<?xml version="1.0" encoding="utf-8"?>
<!-- Generator: Adobe Illustrator 14.0.0, SVG Export Plug-In  -->
<!DOCTYPE svg PUBLIC "-//W3C//DTD SVG 1.1//EN" "http://www.w3.org/Graphics/SVG/1.1/DTD/svg11.dtd" [
	<!ENTITY ns_flows "http://ns.adobe.com/Flows/1.0/">
]>
<svg version="1.1"
	 xmlns="http://www.w3.org/2000/svg" xmlns:xlink="http://www.w3.org/1999/xlink" xmlns:a="http://ns.adobe.com/AdobeSVGViewerExtensions/3.0/"
	 x="0px" y="0px" width="6px" height="11px" viewBox="-0.23 -0.966 6 11" enable-background="new -0.23 -0.966 6 11"
	 xml:space="preserve">
<defs>
</defs>
<polygon fill="#28166F" points="0.637,2.483 0.354,2.483 0.354,2.48 0.361,2.248 0.395,2.017 0.451,1.79 0.525,1.569 0.621,1.356 
	0.738,1.154 0.871,0.963 1.021,0.785 1.189,0.622 1.371,0.476 1.566,0.348 1.771,0.238 1.988,0.147 2.213,0.079 2.439,0.031 
	2.672,0.005 2.672,0.005 2.689,0.004 2.709,0.004 2.727,0.003 2.744,0.002 2.764,0.002 2.779,0.002 2.797,0 2.816,0 2.834,0 
	2.854,0 2.869,0 2.889,0.002 2.906,0.002 2.926,0.002 2.941,0.003 2.961,0.004 2.961,0.004 3.195,0.026 3.426,0.071 3.65,0.139 
	3.871,0.227 4.08,0.336 4.275,0.463 4.463,0.609 4.633,0.772 4.787,0.95 4.922,1.143 5.039,1.347 5.139,1.561 5.215,1.783 
	5.27,2.013 5.305,2.245 5.314,2.48 5.314,2.483 5.029,2.483 5.027,2.48 5.02,2.266 4.986,2.053 4.934,1.844 4.861,1.641 4.77,1.447 
	4.658,1.262 4.529,1.089 4.385,0.929 4.227,0.785 4.053,0.656 3.867,0.546 3.674,0.453 3.471,0.381 3.262,0.328 3.049,0.297 
	2.834,0.287 2.619,0.297 2.404,0.328 2.197,0.381 1.994,0.453 1.799,0.546 1.613,0.656 1.439,0.785 1.281,0.929 1.137,1.089 
	1.01,1.262 0.896,1.447 0.807,1.641 0.732,1.844 0.682,2.053 0.65,2.266 0.639,2.48 "/>
<line fill="none" stroke="#28166F" stroke-width="0.9921" stroke-miterlimit="1" x1="0.529" y1="2.479" x2="5.027" y2="2.48"/>
<polygon fill="#28166F" points="2.672,4.956 2.439,4.93 2.213,4.882 1.988,4.813 1.771,4.723 1.566,4.614 1.371,4.485 1.189,4.339 
	1.021,4.176 0.871,3.998 0.738,3.807 0.621,3.604 0.525,3.392 0.451,3.171 0.395,2.943 0.361,2.713 0.354,2.479 0.354,2.483 
	0.637,2.483 0.639,2.48 0.65,2.703 0.684,2.922 0.738,3.138 0.814,3.347 0.914,3.545 1.031,3.734 1.168,3.909 1.32,4.071 
	1.488,4.216 1.672,4.343 1.867,4.45 2.072,4.538 2.283,4.605 2.5,4.649 2.723,4.672 2.943,4.672 3.166,4.649 3.383,4.605 
	3.598,4.538 3.801,4.45 3.994,4.343 4.178,4.216 4.346,4.071 4.498,3.909 4.635,3.734 4.752,3.545 4.852,3.347 4.928,3.138 
	4.982,2.922 5.018,2.703 5.027,2.48 5.029,2.483 5.314,2.483 5.314,2.48 5.305,2.716 5.27,2.948 5.215,3.178 5.139,3.4 5.039,3.614 
	4.922,3.818 4.787,4.011 4.633,4.188 4.463,4.352 4.275,4.498 4.08,4.625 3.871,4.734 3.652,4.822 3.426,4.89 3.195,4.935 
	2.961,4.958 2.961,4.958 2.941,4.958 2.926,4.959 2.906,4.959 2.889,4.961 2.869,4.961 2.854,4.961 2.834,4.961 2.816,4.961 
	2.797,4.961 2.779,4.961 2.764,4.959 2.744,4.959 2.727,4.958 2.709,4.958 2.689,4.957 "/>
<line fill="#28166F" stroke="#28166F" stroke-width="0.9921" stroke-miterlimit="1" x1="2.834" y1="0.287" x2="2.834" y2="4.782"/>
<line fill="#28166F" stroke="#28166F" stroke-width="0.7087" x1="2.834" y1="4.898" x2="2.834" y2="6.6"/>
<rect y="6.6" fill="#28166F" width="5.668" height="2.835"/>
</svg>
