<?xml version="1.0" encoding="utf-8"?>
<!-- Generator: Adobe Illustrator 14.0.0, SVG Export Plug-In  -->
<!DOCTYPE svg PUBLIC "-//W3C//DTD SVG 1.1//EN" "http://www.w3.org/Graphics/SVG/1.1/DTD/svg11.dtd" [
	<!ENTITY ns_flows "http://ns.adobe.com/Flows/1.0/">
]>
<svg version="1.1"
	 xmlns="http://www.w3.org/2000/svg" xmlns:xlink="http://www.w3.org/1999/xlink" xmlns:a="http://ns.adobe.com/AdobeSVGViewerExtensions/3.0/"
	 x="0px" y="0px" width="7px" height="9px" viewBox="-0.546 -0.226 7 9" enable-background="new -0.546 -0.226 7 9"
	 xml:space="preserve">
<defs>
</defs>
<path fill-rule="evenodd" clip-rule="evenodd" d="M1.188,4.636h3.293C4.02,2.949,1.649,2.927,1.188,4.636 M0.708,5.061
	C0.702,4.313,1.12,3.586,1.772,3.22V2.512h0.354l0.66-2.465l0.018-0.032L2.823,0h0.029L2.87,0.024l0.013,0.022l0.66,2.465h0.354
	V3.22C4.556,3.61,4.959,4.292,4.96,5.061H0.708z"/>
<rect x="1.136" y="4.234" fill-rule="evenodd" clip-rule="evenodd" width="0.563" height="0.5"/>
<rect x="1.292" y="3.922" fill-rule="evenodd" clip-rule="evenodd" width="1.422" height="0.714"/>
<rect x="3.871" y="4.18" fill-rule="evenodd" clip-rule="evenodd" width="0.75" height="0.68"/>
<rect x="3.871" y="4.109" fill-rule="evenodd" clip-rule="evenodd" width="0.375" height="0.25"/>
<rect x="1.917" y="3.359" fill-rule="evenodd" clip-rule="evenodd" width="1.875" height="0.438"/>
<rect x="2.714" y="3.156" fill-rule="evenodd" clip-rule="evenodd" width="0.422" height="0.531"/>
<rect x="3.871" y="3.922" fill-rule="evenodd" clip-rule="evenodd" width="0.562" height="0.563"/>
<rect x="3.136" y="3.156" fill-rule="evenodd" clip-rule="evenodd" width="0.578" height="0.531"/>
<rect x="1.526" y="3.625" fill-rule="evenodd" clip-rule="evenodd" width="2.657" height="1.109"/>
<path fill-rule="evenodd" clip-rule="evenodd" fill="#FFFFFF" d="M1.455,4.52h2.761C3.829,3.183,1.84,3.165,1.455,4.52"/>
<rect y="5.061" width="5.669" height="2.835"/>
<rect x="0.708" y="4.982" fill-rule="evenodd" clip-rule="evenodd" width="4.252" height="0.995"/>
</svg>
