<?xml version="1.0" encoding="utf-8"?>
<!-- Generator: Adobe Illustrator 14.0.0, SVG Export Plug-In  -->
<!DOCTYPE svg PUBLIC "-//W3C//DTD SVG 1.1//EN" "http://www.w3.org/Graphics/SVG/1.1/DTD/svg11.dtd" [
	<!ENTITY ns_flows "http://ns.adobe.com/Flows/1.0/">
]>
<svg version="1.1"
	 xmlns="http://www.w3.org/2000/svg" xmlns:xlink="http://www.w3.org/1999/xlink" xmlns:a="http://ns.adobe.com/AdobeSVGViewerExtensions/3.0/"
	 x="0px" y="0px" width="6px" height="8px" viewBox="-0.299 -0.334 6 8" enable-background="new -0.299 -0.334 6 8"
	 xml:space="preserve">
<defs>
</defs>
<rect y="3.877" width="5.669" height="2.835"/>
<rect x="2.001" y="0.076" fill="#FFFFFF" width="2.115" height="1.711"/>
<path fill-rule="evenodd" clip-rule="evenodd" d="M3.847,3.316H1.731V1.605h2.115V3.316z M1.155,3.877V1.475L1.005,1.34L0.804,1.181
	L0.522,0.849L0.378,0.59L0.292,0.374L0.271,0.323l0.633,0.312C0.991,0.274,1.138,0.084,1.499,0C1.231,0.395,1.472,0.996,1.954,1.064
	l1.791,0.008l0.158-0.044l0.295-0.193l0.123-0.188L4.37,0.34L4.327,0.145L4.276,0.036l-0.02-0.028l0.172,0.036l0.15,0.101
	l0.137,0.187l0.078,0.151l0.029,0.13L5.399,0.34C5.259,0.81,4.929,1.222,4.509,1.475l-0.01,2.402H1.155z"/>
<rect x="1.155" y="3.65" fill-rule="evenodd" clip-rule="evenodd" width="3.343" height="1.063"/>
</svg>
