<?xml version="1.0" encoding="utf-8"?>
<!-- Generator: Adobe Illustrator 14.0.0, SVG Export Plug-In  -->
<!DOCTYPE svg PUBLIC "-//W3C//DTD SVG 1.1//EN" "http://www.w3.org/Graphics/SVG/1.1/DTD/svg11.dtd" [
	<!ENTITY ns_flows "http://ns.adobe.com/Flows/1.0/">
]>
<svg version="1.1"
	 xmlns="http://www.w3.org/2000/svg" xmlns:xlink="http://www.w3.org/1999/xlink" xmlns:a="http://ns.adobe.com/AdobeSVGViewerExtensions/3.0/"
	 x="0px" y="0px" width="6px" height="7px" viewBox="-0.23 -0.447 6 7" enable-background="new -0.23 -0.447 6 7"
	 xml:space="preserve">
<defs>
</defs>
<rect y="3.118" fill="#28166F" width="5.668" height="2.835"/>
<path fill="#28166F" d="M4.131,0H3.555c0,0.161-0.057,0.323-0.176,0.484C3.266,0.646,3.084,0.724,2.838,0.724
	c-0.205,0-0.381-0.07-0.521-0.211C2.184,0.372,2.113,0.204,2.113,0H1.537c0.006,0.316,0.098,0.598,0.287,0.829
	c0.191,0.231,0.436,0.38,0.725,0.443V3.74h0.576V1.272c0.289-0.063,0.527-0.212,0.717-0.443C4.033,0.598,4.131,0.316,4.131,0"/>
</svg>
