<?xml version="1.0" encoding="utf-8"?>
<!-- Generator: Adobe Illustrator 14.0.0, SVG Export Plug-In  -->
<!DOCTYPE svg PUBLIC "-//W3C//DTD SVG 1.1//EN" "http://www.w3.org/Graphics/SVG/1.1/DTD/svg11.dtd" [
	<!ENTITY ns_flows "http://ns.adobe.com/Flows/1.0/">
]>
<svg version="1.1"
	 xmlns="http://www.w3.org/2000/svg" xmlns:xlink="http://www.w3.org/1999/xlink" xmlns:a="http://ns.adobe.com/AdobeSVGViewerExtensions/3.0/"
	 x="0px" y="0px" width="6px" height="8px" viewBox="-0.23 -0.688 6 8" enable-background="new -0.23 -0.688 6 8"
	 xml:space="preserve">
<defs>
</defs>
<rect y="3.877" fill="#28166F" width="5.668" height="2.835"/>
<path fill-rule="evenodd" clip-rule="evenodd" fill="#28166F" d="M3.846,3.316H1.73V1.605h2.115V3.316z M1.154,3.877V1.475
	L1.004,1.34L0.803,1.181L0.521,0.849L0.377,0.59L0.291,0.374L0.27,0.323l0.633,0.312C0.99,0.274,1.137,0.084,1.498,0
	C1.23,0.395,1.471,0.996,1.953,1.064l1.791,0.008l0.158-0.044l0.295-0.193L4.32,0.647L4.369,0.34L4.326,0.145L4.275,0.036
	l-0.02-0.028l0.172,0.036l0.15,0.101l0.137,0.187l0.078,0.151l0.029,0.13L5.398,0.34C5.258,0.81,4.928,1.222,4.508,1.475
	l-0.01,2.402H1.154z"/>
</svg>
