<?xml version="1.0" encoding="utf-8"?>
<!-- Generator: Adobe Illustrator 14.0.0, SVG Export Plug-In  -->
<!DOCTYPE svg PUBLIC "-//W3C//DTD SVG 1.1//EN" "http://www.w3.org/Graphics/SVG/1.1/DTD/svg11.dtd" [
	<!ENTITY ns_flows "http://ns.adobe.com/Flows/1.0/">
]>
<svg version="1.1"
	 xmlns="http://www.w3.org/2000/svg" xmlns:xlink="http://www.w3.org/1999/xlink" xmlns:a="http://ns.adobe.com/AdobeSVGViewerExtensions/3.0/"
	 x="0px" y="0px" width="11.055px" height="11.991px" viewBox="0 0 11.055 11.991" enable-background="new 0 0 11.055 11.991"
	 xml:space="preserve">
<defs>
</defs>
<rect fill="none" width="11.055" height="11.991"/>
<path d="M11.055,2.013V1.729H7.653V0H7.37v1.729H3.968V0H3.685v1.729H0.283V0H0v1.729v0.255v0.028h1.843v1.701H0v0.283v1.729v0.255
	V6.01h1.843v1.701H0v0.283v1.729v0.255v0.028h1.843v1.701H0v0.283h3.685H7.37h3.685v-0.283H9.496v-1.701h1.559V9.724H7.653V7.994
	h3.401V7.711H9.496V6.01h1.559V5.727H7.653V3.997h3.401V3.714H9.496V2.013H11.055z M2.126,2.013h1.559h1.843v1.701H3.685H2.126
	V2.013z M0.283,5.727V3.997h3.401v1.729H0.283z M5.527,6.01v1.701H3.685H2.126V6.01h1.559H5.527z M0.283,9.724V7.994h3.401v1.729
	H0.283z M5.527,11.708H3.685H2.126v-1.701h1.559h1.843V11.708z M9.213,10.007v1.701H7.37h-1.56v-1.701h1.56H9.213z M7.37,9.724
	H3.968V7.994H7.37V9.724z M9.213,6.01v1.701H7.37h-1.56V6.01h1.56H9.213z M7.37,5.727H3.968V3.997H7.37V5.727z M9.213,3.714H7.37
	h-1.56V2.013h1.56h1.843V3.714z"/>
</svg>
