<?xml version="1.0" encoding="utf-8"?>
<!-- Generator: Adobe Illustrator 14.0.0, SVG Export Plug-In  -->
<!DOCTYPE svg PUBLIC "-//W3C//DTD SVG 1.1//EN" "http://www.w3.org/Graphics/SVG/1.1/DTD/svg11.dtd" [
	<!ENTITY ns_flows "http://ns.adobe.com/Flows/1.0/">
]>
<svg version="1.1"
	 xmlns="http://www.w3.org/2000/svg" xmlns:xlink="http://www.w3.org/1999/xlink" xmlns:a="http://ns.adobe.com/AdobeSVGViewerExtensions/3.0/"
	 x="0px" y="0px" width="9.625px" height="9.625px" viewBox="0 0 9.625 9.625" enable-background="new 0 0 9.625 9.625"
	 xml:space="preserve">
<defs>
</defs>
<rect fill="none" width="9.625" height="9.625"/>
<rect fill="#FFFFFF" width="9.625" height="9.625"/>
<polygon points="9.625,6.818 6.818,9.625 7.619,9.625 9.625,7.619 "/>
<polygon points="9.625,9.225 9.224,9.625 9.625,9.625 "/>
<polygon points="0,0 0,0.4 0.401,0 "/>
<polygon points="2.007,0 0,2.006 0,2.807 2.808,0 "/>
<polygon points="5.214,0 4.813,0 4.412,0 0,4.412 0,4.813 0,5.213 0.4,4.813 "/>
<polygon points="7.62,0 6.819,0 0,6.818 0,7.619 "/>
<polygon points="9.625,0 9.225,0 0,9.225 0,9.625 0.4,9.625 9.625,0.4 "/>
<polygon points="9.625,2.006 2.006,9.625 2.807,9.625 9.625,2.807 "/>
<polygon points="4.411,9.625 4.813,9.625 5.213,9.625 9.625,5.213 9.625,4.813 9.625,4.412 "/>
</svg>
