<?xml version="1.0" encoding="utf-8"?>
<!-- Generator: Adobe Illustrator 14.0.0, SVG Export Plug-In  -->
<!DOCTYPE svg PUBLIC "-//W3C//DTD SVG 1.1//EN" "http://www.w3.org/Graphics/SVG/1.1/DTD/svg11.dtd" [
	<!ENTITY ns_flows "http://ns.adobe.com/Flows/1.0/">
]>
<svg version="1.1"
	 xmlns="http://www.w3.org/2000/svg" xmlns:xlink="http://www.w3.org/1999/xlink" xmlns:a="http://ns.adobe.com/AdobeSVGViewerExtensions/3.0/"
	 x="0px" y="0px" width="10.159px" height="10.16px" viewBox="0 0 10.159 10.16" enable-background="new 0 0 10.159 10.16"
	 xml:space="preserve">
<defs>
</defs>
<rect fill="none" width="10.159" height="10.16"/>
<rect fill="#FFFFFF" width="10.159" height="10.16"/>
<polyline fill="#010101" points="7.379,10.16 7.379,9.52 7.608,9.52 7.608,10.021 9.185,10.021 9.185,10.16 7.379,10.16 "/>
<rect x="9.972" fill="#010101" width="0.188" height="0.334"/>
<polyline fill="#010101" points="0.127,0 0.127,0.076 1.774,0.076 1.774,0 2.033,0 2.033,0.076 2.606,0.076 2.606,0.992 
	3.694,0.992 3.694,0.32 3.466,0.32 3.466,0 3.694,0 3.694,0.076 5.343,0.076 5.343,0 5.601,0 5.601,0.076 6.433,0.076 6.433,0.764 
	7.966,0.764 7.966,0.105 7.379,0.105 7.379,0 9.185,0 9.185,0.162 8.194,0.162 8.194,1.021 6.188,1.021 6.188,0.363 3.925,0.363 
	3.925,1.25 2.362,1.25 2.362,0.334 0,0.334 0,0 0.127,0 "/>
<rect x="8.453" y="4.92" fill="#010101" width="0.916" height="0.24"/>
<rect y="0.619" fill="#010101" width="0.313" height="0.229"/>
<rect y="1.363" fill="#010101" width="0.472" height="0.344"/>
<rect y="2.611" fill="#010101" width="0.485" height="0.287"/>
<rect y="4.545" fill="#010101" width="0.542" height="0.244"/>
<polyline fill="#010101" points="0,6.695 0.127,6.695 0.127,7.426 0.558,7.426 0.558,7.67 0.127,7.67 0.127,10.16 0,10.16 0,6.695 
	"/>
<rect x="1.774" y="9.633" fill="#010101" width="0.259" height="0.527"/>
<rect x="3.466" y="9.705" fill="#010101" width="0.229" height="0.455"/>
<rect x="5.343" y="9.691" fill="#010101" width="0.258" height="0.469"/>
<polyline fill="#010101" points="9.185,10.021 9.185,9.217 9.972,9.217 9.972,9.018 8.998,9.018 8.998,10.021 9.185,10.021 "/>
<polyline fill="#010101" points="3.466,8.975 2.047,8.975 2.047,9.633 1.774,9.633 1.774,7.656 0.558,7.656 0.558,7.426 
	0.944,7.426 0.944,4.789 0.542,4.789 0.542,4.545 2.491,4.545 2.491,2.898 0.485,2.898 0.485,2.611 2.749,2.611 2.749,4.561 
	4.771,4.561 4.771,4.918 4.513,4.918 4.513,4.803 3.81,4.803 3.81,6.609 4.513,6.609 4.513,6.824 3.323,6.824 3.323,8.73 
	3.093,8.73 3.093,6.58 3.565,6.58 3.565,4.803 1.201,4.803 1.201,7.398 2.033,7.398 2.033,8.73 3.466,8.73 3.466,8.975 "/>
<polyline fill="#010101" points="1.315,0.332 1.315,2.625 1.058,2.625 1.058,1.707 0.472,1.707 0.472,1.363 1.058,1.363 
	1.058,0.375 1.302,0.375 1.302,0.332 1.315,0.332 "/>
<rect x="2.506" y="1.264" fill="#010101" width="0.259" height="1.348"/>
<rect x="7.199" y="4.918" fill="#010101" width="0.235" height="0.809"/>
<rect x="0.313" y="0.346" fill="#010101" width="0.215" height="0.502"/>
<polyline fill="#010101" points="5.601,9.691 5.601,8.844 5.802,8.844 5.802,6.953 7.379,6.953 7.379,9.52 7.608,9.52 7.608,6.967 
	9.371,6.967 9.371,6.695 4.784,6.695 4.784,5.162 7.199,5.162 7.199,4.918 4.513,4.918 4.513,6.953 5.515,6.953 5.515,8.602 
	3.466,8.602 3.466,9.705 3.69,9.705 3.69,8.873 5.343,8.873 5.343,9.691 5.601,9.691 "/>
<polyline fill="#010101" points="9.972,10.16 9.972,6.967 9.369,6.967 9.369,4.92 9.599,4.92 9.599,1.736 9.168,1.736 9.168,0.619 
	10.159,0.619 10.159,0.848 9.455,0.848 9.455,1.363 10.159,1.363 10.159,1.707 9.813,1.707 9.813,2.611 10.159,2.611 10.159,2.898 
	9.813,2.898 9.813,4.545 10.159,4.545 10.159,4.789 9.883,4.789 9.883,5.158 9.67,5.158 9.67,6.695 10.159,6.695 10.159,10.16 
	9.972,10.16 "/>
<rect x="7.435" y="5.492" fill="#010101" width="0.78" height="0.234"/>
<rect x="8.215" y="4.918" fill="#010101" width="0.238" height="0.809"/>
<polyline fill="#010101" points="3.925,1.25 4.771,1.248 4.776,3.957 8.213,3.949 8.215,4.918 8.453,4.918 8.451,3.729 7.751,3.73 
	7.748,2.324 9.17,2.322 9.168,1.492 8.94,1.494 8.942,2.08 8.198,2.082 8.194,1.021 7.966,1.023 7.97,2.08 7.493,2.082 7.497,3.729 
	6.433,3.73 6.427,1.033 6.188,1.035 6.194,3.729 5.015,3.73 5.008,1.033 3.924,1.037 3.925,1.25 "/>
</svg>
