<?xml version="1.0" encoding="utf-8"?>
<!-- Generator: Adobe Illustrator 14.0.0, SVG Export Plug-In  -->
<!DOCTYPE svg PUBLIC "-//W3C//DTD SVG 1.1//EN" "http://www.w3.org/Graphics/SVG/1.1/DTD/svg11.dtd" [
	<!ENTITY ns_flows "http://ns.adobe.com/Flows/1.0/">
]>
<svg version="1.1"
	 xmlns="http://www.w3.org/2000/svg" xmlns:xlink="http://www.w3.org/1999/xlink" xmlns:a="http://ns.adobe.com/AdobeSVGViewerExtensions/3.0/"
	 x="0px" y="0px" width="20.32px" height="20.32px" viewBox="0 0 20.32 20.32" enable-background="new 0 0 20.32 20.32"
	 xml:space="preserve">
<defs>
</defs>
<rect fill="none" width="20.32" height="20.32"/>
<polyline fill="#BC9045" points="19.585,7.643 20.039,7.682 20.152,8.324 19.699,8.211 19.585,7.643 "/>
<polyline fill="#BC9045" points="18.871,7.379 19.324,7.416 19.439,8.061 18.984,7.945 18.871,7.379 "/>
<polyline fill="#BC9045" points="17.904,6.543 18.357,6.58 18.47,7.225 18.017,7.111 17.904,6.543 "/>
<polyline fill="#BC9045" points="19.66,3.441 20.115,3.48 20.228,4.123 19.775,4.01 19.66,3.441 "/>
<polyline fill="#BC9045" points="16.329,6.811 16.783,6.85 16.898,7.492 16.442,7.379 16.329,6.811 "/>
<polyline fill="#BC9045" points="18.488,5.939 18.941,5.979 19.056,6.621 18.601,6.508 18.488,5.939 "/>
<polyline fill="#BC9045" points="19.433,10.326 19.888,10.363 20.001,11.008 19.546,10.895 19.433,10.326 "/>
<polyline fill="#BC9045" points="18.83,4.994 19.285,5.031 19.398,5.676 18.943,5.563 18.83,4.994 "/>
<polyline fill="#BC9045" points="18.478,8.234 18.931,8.273 19.044,8.916 18.591,8.803 18.478,8.234 "/>
<polyline fill="#BC9045" points="17.011,6.166 17.464,6.205 17.578,6.85 17.125,6.734 17.011,6.166 "/>
<polyline fill="#BC9045" points="13.981,7.037 14.437,7.076 14.55,7.719 14.097,7.605 13.981,7.037 "/>
<polyline fill="#BC9045" points="19.623,13.889 20.078,13.928 20.191,14.57 19.736,14.457 19.623,13.889 "/>
<polyline fill="#BC9045" points="17.769,8.438 18.222,8.477 18.335,9.119 17.88,9.006 17.769,8.438 "/>
<polyline fill="#BC9045" points="15.875,7.568 16.329,7.605 16.442,8.248 15.989,8.137 15.875,7.568 "/>
<polyline fill="#BC9045" points="19.074,11.227 19.529,11.264 19.642,11.906 19.187,11.793 19.074,11.227 "/>
<polyline fill="#BC9045" points="19.06,2.299 19.513,2.336 19.626,2.98 19.173,2.867 19.06,2.299 "/>
<polyline fill="#BC9045" points="12.203,7.113 12.658,7.15 12.771,7.795 12.317,7.682 12.203,7.113 "/>
<polyline fill="#BC9045" points="14.739,7.529 15.194,7.568 15.308,8.211 14.853,8.098 14.739,7.529 "/>
<polyline fill="#BC9045" points="18.185,3.973 18.638,4.01 18.751,4.652 18.298,4.539 18.185,3.973 "/>
<polyline fill="#BC9045" points="19.396,14.76 19.851,14.797 19.962,15.441 19.509,15.326 19.396,14.76 "/>
<polyline fill="#BC9045" points="10.272,7 10.728,7.037 10.841,7.682 10.386,7.568 10.272,7 "/>
<polyline fill="#BC9045" points="18.962,12.191 19.416,12.229 19.531,12.871 19.076,12.76 18.962,12.191 "/>
<polyline fill="#BC9045" points="16.329,5.41 16.783,5.447 16.898,6.092 16.442,5.979 16.329,5.41 "/>
<polyline fill="#BC9045" points="17.128,9.082 17.583,9.119 17.697,9.764 17.244,9.65 17.128,9.082 "/>
<polyline fill="#BC9045" points="13.124,6.166 13.578,6.205 13.69,6.85 13.237,6.734 13.124,6.166 "/>
<polyline fill="#BC9045" points="18.904,13.131 19.357,13.17 19.472,13.813 19.017,13.699 18.904,13.131 "/>
<polyline fill="#BC9045" points="16.375,8.719 16.83,8.756 16.943,9.398 16.489,9.285 16.375,8.719 "/>
<polyline fill="#BC9045" points="15.546,8.363 16.001,8.4 16.114,9.043 15.66,8.93 15.546,8.363 "/>
<polyline fill="#BC9045" points="19.433,18.506 19.888,18.545 20.001,19.188 19.546,19.074 19.433,18.506 "/>
<polyline fill="#BC9045" points="17.314,10.104 17.769,10.143 17.88,10.785 17.427,10.672 17.314,10.104 "/>
<polyline fill="#BC9045" points="3.005,6.811 3.46,6.85 3.573,7.492 3.119,7.379 3.005,6.811 "/>
<polyline fill="#BC9045" points="6.563,6.621 7.019,6.658 7.131,7.303 6.677,7.189 6.563,6.621 "/>
<polyline fill="#BC9045" points="17.671,2.873 18.125,2.912 18.238,3.555 17.785,3.441 17.671,2.873 "/>
<polyline fill="#BC9045" points="18.298,1.434 18.751,1.471 18.865,2.115 18.412,2 18.298,1.434 "/>
<polyline fill="#BC9045" points="3.876,6.734 4.33,6.773 4.444,7.416 3.989,7.303 3.876,6.734 "/>
<polyline fill="#BC9045" points="13.944,5.523 14.399,5.563 14.513,6.205 14.058,6.092 13.944,5.523 "/>
<polyline fill="#BC9045" points="14.476,8.477 14.929,8.514 15.042,9.158 14.588,9.043 14.476,8.477 "/>
<polyline fill="#BC9045" points="17.314,11.082 17.767,11.121 17.88,11.766 17.425,11.65 17.314,11.082 "/>
<polyline fill="#BC9045" points="17.619,1.988 18.074,2.027 18.187,2.67 17.732,2.557 17.619,1.988 "/>
<polyline fill="#BC9045" points="12.499,8.299 12.953,8.336 13.067,8.98 12.612,8.865 12.499,8.299 "/>
<polyline fill="#BC9045" points="18.488,15.189 18.941,15.229 19.056,15.871 18.601,15.758 18.488,15.189 "/>
<polyline fill="#BC9045" points="8.579,7.631 9.033,7.668 9.147,8.313 8.692,8.199 8.579,7.631 "/>
<polyline fill="#BC9045" points="10.867,8 11.321,8.039 11.435,8.682 10.979,8.568 10.867,8 "/>
<polyline fill="#BC9045" points="18.601,16.275 19.056,16.314 19.167,16.957 18.714,16.844 18.601,16.275 "/>
<polyline fill="#BC9045" points="18.751,17.523 19.207,17.561 19.32,18.203 18.865,18.092 18.751,17.523 "/>
<polyline fill="#BC9045" points="6.175,7.48 6.629,7.518 6.743,8.16 6.289,8.047 6.175,7.48 "/>
<polyline fill="#BC9045" points="14.55,9.422 15.004,9.459 15.118,10.104 14.664,9.99 14.55,9.422 "/>
<polyline fill="#BC9045" points="15.269,9.99 15.724,10.027 15.837,10.672 15.383,10.559 15.269,9.99 "/>
<polyline fill="#BC9045" points="14.252,4.313 14.706,4.35 14.819,4.994 14.366,4.879 14.252,4.313 "/>
<polyline fill="#BC9045" points="16.957,11.951 17.41,11.988 17.525,12.633 17.07,12.52 16.957,11.951 "/>
<polyline fill="#BC9045" points="4.671,7.453 5.125,7.492 5.239,8.137 4.784,8.021 4.671,7.453 "/>
<polyline fill="#BC9045" points="7.169,5.939 7.623,5.979 7.737,6.621 7.283,6.508 7.169,5.939 "/>
<polyline fill="#BC9045" points="13.528,4.463 13.981,4.502 14.097,5.145 13.642,5.031 13.528,4.463 "/>
<polyline fill="#BC9045" points="17.158,12.828 17.611,12.867 17.726,13.512 17.271,13.396 17.158,12.828 "/>
<polyline fill="#BC9045" points="14.853,3.631 15.308,3.668 15.421,4.313 14.967,4.199 14.853,3.631 "/>
<polyline fill="#BC9045" points="16.859,1.359 17.314,1.398 17.427,2.041 16.974,1.928 16.859,1.359 "/>
<polyline fill="#BC9045" points="17.64,14.369 18.095,14.406 18.208,15.051 17.753,14.938 17.64,14.369 "/>
<polyline fill="#BC9045" points="11.681,8.777 12.135,8.814 12.249,9.459 11.794,9.346 11.681,8.777 "/>
<polyline fill="#BC9045" points="15.459,10.822 15.913,10.861 16.026,11.504 15.571,11.391 15.459,10.822 "/>
<polyline fill="#BC9045" points="9.138,5.447 9.592,5.486 9.705,6.129 9.251,6.016 9.138,5.447 "/>
<polyline fill="#BC9045" points="15.155,2.797 15.61,2.836 15.724,3.48 15.269,3.365 15.155,2.797 "/>
<polyline fill="#BC9045" points="16.783,13.547 17.238,13.586 17.351,14.23 16.898,14.115 16.783,13.547 "/>
<polyline fill="#BC9045" points="18.123,18.039 18.578,18.076 18.691,18.721 18.236,18.605 18.123,18.039 "/>
<polyline fill="#BC9045" points="15.269,11.504 15.724,11.541 15.837,12.186 15.383,12.072 15.269,11.504 "/>
<polyline fill="#BC9045" points="12.62,9.688 13.074,9.725 13.188,10.369 12.733,10.254 12.62,9.688 "/>
<polyline fill="#BC9045" points="18.382,20.32 18.298,19.9 18.751,19.938 18.82,20.32 18.382,20.32 "/>
<polyline fill="#BC9045" points="4.026,5.826 4.481,5.863 4.595,6.508 4.142,6.395 4.026,5.826 "/>
<polyline fill="#BC9045" points="5.579,8.061 6.033,8.098 6.147,8.74 5.692,8.627 5.579,8.061 "/>
<polyline fill="#BC9045" points="15.345,1.928 15.799,1.967 15.913,2.609 15.459,2.496 15.345,1.928 "/>
<polyline fill="#BC9045" points="13.604,10.33 14.058,10.369 14.172,11.012 13.717,10.898 13.604,10.33 "/>
<polyline fill="#BC9045" points="11.217,4.41 11.671,4.447 11.784,5.092 11.33,4.977 11.217,4.41 "/>
<polyline fill="#BC9045" points="12.923,16.197 13.377,16.236 13.49,16.879 13.036,16.766 12.923,16.197 "/>
<polyline fill="#BC9045" points="7.966,6.768 8.42,6.807 8.534,7.449 8.08,7.336 7.966,6.768 "/>
<polyline fill="#BC9045" points="11.065,11.828 11.521,11.865 11.633,12.51 11.179,12.396 11.065,11.828 "/>
<polyline fill="#BC9045" points="12.935,17.904 13.39,17.941 13.503,18.584 13.048,18.473 12.935,17.904 "/>
<polyline fill="#BC9045" points="9.388,8.205 9.842,8.244 9.956,8.889 9.502,8.773 9.388,8.205 "/>
<polyline fill="#BC9045" points="11.787,5.334 12.241,5.371 12.354,6.016 11.901,5.902 11.787,5.334 "/>
<polyline fill="#BC9045" points="12.278,6.166 12.733,6.205 12.847,6.85 12.394,6.734 12.278,6.166 "/>
<polyline fill="#BC9045" points="15.235,15.686 15.69,15.723 15.804,16.365 15.351,16.252 15.235,15.686 "/>
<polyline fill="#BC9045" points="15.042,16.766 15.497,16.805 15.61,17.447 15.155,17.334 15.042,16.766 "/>
<polyline fill="#BC9045" points="13.623,13.285 14.077,13.324 14.19,13.967 13.735,13.854 13.623,13.285 "/>
<polyline fill="#BC9045" points="10.804,5.334 11.257,5.371 11.371,6.016 10.916,5.902 10.804,5.334 "/>
<polyline fill="#BC9045" points="15.726,19.217 16.181,19.254 16.294,19.898 15.84,19.785 15.726,19.217 "/>
<polyline fill="#BC9045" points="9.364,9.236 9.819,9.273 9.933,9.916 9.478,9.803 9.364,9.236 "/>
<polyline fill="#BC9045" points="15.597,4.547 16.051,4.584 16.165,5.229 15.711,5.115 15.597,4.547 "/>
<polyline fill="#BC9045" points="14.606,14.74 15.062,14.777 15.175,15.422 14.72,15.309 14.606,14.74 "/>
<polyline fill="#BC9045" points="8.608,15.695 9.063,15.732 9.177,16.375 8.722,16.264 8.608,15.695 "/>
<polyline fill="#BC9045" points="9.979,6.006 10.435,6.043 10.547,6.688 10.093,6.574 9.979,6.006 "/>
<polyline fill="#BC9045" points="18.82,0 18.865,0.262 18.412,0.148 18.382,0 18.82,0 "/>
<polyline fill="#BC9045" points="18.748,0.713 19.201,0.752 19.316,1.395 18.861,1.281 18.748,0.713 "/>
<polyline fill="#BC9045" points="19.509,0.301 19.962,0.338 20.078,0.98 19.623,0.867 19.509,0.301 "/>
<polyline fill="#BC9045" points="16.708,0.488 17.162,0.527 17.277,1.17 16.822,1.057 16.708,0.488 "/>
<polyline fill="#BC9045" points="7.726,0 7.813,0.488 7.358,0.375 7.283,0 7.726,0 "/>
<polyline fill="#BC9045" points="6.451,0 6.563,0.641 6.108,0.527 6.004,0 6.451,0 "/>
<polyline fill="#BC9045" points="5.201,0.414 5.655,0.451 5.769,1.096 5.313,0.98 5.201,0.414 "/>
<polyline fill="#BC9045" points="0.242,0.488 0.696,0.527 0.81,1.17 0.356,1.057 0.242,0.488 "/>
<polyline fill="#BC9045" points="2.324,6.508 2.778,6.545 2.892,7.189 2.438,7.076 2.324,6.508 "/>
<polyline fill="#BC9045" points="9.632,12.336 10.086,12.375 10.2,13.018 9.745,12.904 9.632,12.336 "/>
<polyline fill="#BC9045" points="12.532,18.613 12.985,18.65 13.101,19.295 12.646,19.182 12.532,18.613 "/>
<polyline fill="#BC9045" points="11.03,15.1 11.483,15.139 11.599,15.781 11.144,15.668 11.03,15.1 "/>
<polyline fill="#BC9045" points="0.28,5.979 0.733,6.016 0.849,6.658 0.394,6.545 0.28,5.979 "/>
<polyline fill="#BC9045" points="6.108,9.043 6.563,9.082 6.677,9.725 6.224,9.611 6.108,9.043 "/>
<polyline fill="#BC9045" points="4.821,8.477 5.276,8.514 5.39,9.158 4.937,9.043 4.821,8.477 "/>
<polyline fill="#BC9045" points="7.737,10.938 8.19,10.975 8.306,11.617 7.851,11.504 7.737,10.938 "/>
<polyline fill="#BC9045" points="8.985,12.867 9.44,12.904 9.554,13.547 9.101,13.436 8.985,12.867 "/>
<polyline fill="#BC9045" points="10.008,14.494 10.462,14.533 10.576,15.176 10.122,15.063 10.008,14.494 "/>
<polyline fill="#BC9045" points="2.248,7.625 2.702,7.662 2.815,8.307 2.362,8.191 2.248,7.625 "/>
<polyline fill="#BC9045" points="11.825,19.037 12.278,19.074 12.394,19.719 11.938,19.605 11.825,19.037 "/>
<polyline fill="#BC9045" points="6.028,10.143 6.483,10.18 6.597,10.822 6.142,10.709 6.028,10.143 "/>
<polyline fill="#BC9045" points="9.138,13.699 9.592,13.738 9.705,14.381 9.251,14.268 9.138,13.699 "/>
<polyline fill="#BC9045" points="0,6.91 0.174,6.924 0.288,7.568 0,7.496 0,6.91 "/>
<polyline fill="#BC9045" points="7.422,11.801 7.876,11.838 7.99,12.48 7.536,12.367 7.422,11.801 "/>
<polyline fill="#BC9045" points="11.22,18.053 11.673,18.092 11.787,18.734 11.333,18.621 11.22,18.053 "/>
<polyline fill="#BC9045" points="4.254,9.158 4.709,9.195 4.821,9.838 4.368,9.725 4.254,9.158 "/>
<polyline fill="#BC9045" points="0.583,7.266 1.037,7.303 1.151,7.945 0.696,7.832 0.583,7.266 "/>
<polyline fill="#BC9045" points="9.024,14.457 9.478,14.494 9.592,15.139 9.138,15.025 9.024,14.457 "/>
<polyline fill="#BC9045" points="1.5,7.947 1.955,7.984 2.067,8.629 1.614,8.516 1.5,7.947 "/>
<polyline fill="#BC9045" points="2.815,8.74 3.271,8.779 3.384,9.422 2.931,9.309 2.815,8.74 "/>
<polyline fill="#BC9045" points="10.424,17.371 10.879,17.408 10.992,18.053 10.538,17.939 10.424,17.371 "/>
<polyline fill="#BC9045" points="5.504,10.822 5.958,10.861 6.071,11.504 5.617,11.391 5.504,10.822 "/>
<polyline fill="#BC9045" points="11.144,19.566 11.599,19.605 11.711,20.248 11.257,20.135 11.144,19.566 "/>
<polyline fill="#BC9045" points="6.942,12.488 7.396,12.525 7.51,13.17 7.056,13.057 6.942,12.488 "/>
<polyline fill="#BC9045" points="3.422,9.535 3.876,9.574 3.989,10.217 3.535,10.104 3.422,9.535 "/>
<polyline fill="#BC9045" points="9.517,16.652 9.97,16.689 10.084,17.334 9.629,17.221 9.517,16.652 "/>
<polyline fill="#BC9045" points="8.418,14.834 8.872,14.873 8.985,15.518 8.532,15.402 8.418,14.834 "/>
<polyline fill="#BC9045" points="7.245,13.396 7.699,13.436 7.813,14.078 7.358,13.965 7.245,13.396 "/>
<polyline fill="#BC9045" points="0.394,8.211 0.849,8.248 0.961,8.893 0.507,8.779 0.394,8.211 "/>
<polyline fill="#BC9045" points="4.974,11.43 5.429,11.467 5.541,12.109 5.087,11.996 4.974,11.43 "/>
<polyline fill="#BC9045" points="7.661,14.457 8.115,14.494 8.229,15.139 7.774,15.025 7.661,14.457 "/>
<polyline fill="#BC9045" points="8.722,16.576 9.175,16.613 9.289,17.258 8.835,17.145 8.722,16.576 "/>
<polyline fill="#BC9045" points="3.211,10.586 3.665,10.623 3.778,11.268 3.325,11.154 3.211,10.586 "/>
<polyline fill="#BC9045" points="4.784,12.225 5.239,12.262 5.353,12.904 4.897,12.791 4.784,12.225 "/>
<polyline fill="#BC9045" points="7.358,15.176 7.813,15.213 7.926,15.857 7.472,15.744 7.358,15.176 "/>
<polyline fill="#BC9045" points="0.204,9.232 0.658,9.271 0.772,9.914 0.317,9.801 0.204,9.232 "/>
<polyline fill="#BC9045" points="9.213,18.771 9.667,18.811 9.78,19.453 9.327,19.34 9.213,18.771 "/>
<polyline fill="#BC9045" points="8.04,16.879 8.494,16.916 8.606,17.561 8.153,17.447 8.04,16.879 "/>
<polyline fill="#BC9045" points="4.444,12.904 4.897,12.943 5.011,13.586 4.558,13.473 4.444,12.904 "/>
<polyline fill="#BC9045" points="2.476,11.314 2.931,11.354 3.043,11.996 2.589,11.883 2.476,11.314 "/>
<polyline fill="#BC9045" points="6.563,15.555 7.019,15.592 7.131,16.236 6.677,16.121 6.563,15.555 "/>
<polyline fill="#BC9045" points="0.772,10.445 1.226,10.482 1.34,11.125 0.886,11.012 0.772,10.445 "/>
<polyline fill="#BC9045" points="7.472,17.258 7.926,17.295 8.04,17.939 7.585,17.826 7.472,17.258 "/>
<polyline fill="#BC9045" points="1.53,11.178 1.985,11.217 2.099,11.859 1.646,11.746 1.53,11.178 "/>
<polyline fill="#BC9045" points="4.481,13.662 4.937,13.699 5.049,14.344 4.595,14.23 4.481,13.662 "/>
<polyline fill="#BC9045" points="8.646,19.529 9.101,19.566 9.213,20.209 8.759,20.098 8.646,19.529 "/>
<polyline fill="#BC9045" points="5.919,15.959 6.373,15.996 6.487,16.641 6.032,16.527 5.919,15.959 "/>
<polyline fill="#BC9045" points="4.065,14.305 4.519,14.344 4.633,14.986 4.179,14.873 4.065,14.305 "/>
<polyline fill="#BC9045" points="5.146,16.217 5.601,16.252 5.714,16.896 5.259,16.783 5.146,16.217 "/>
<polyline fill="#BC9045" points="6.308,17.895 6.763,17.934 6.876,18.576 6.421,18.463 6.308,17.895 "/>
<polyline fill="#BC9045" points="7.283,20.32 7.245,20.127 7.699,20.164 7.726,20.32 7.283,20.32 "/>
<polyline fill="#BC9045" points="1.644,13.057 2.097,13.094 2.21,13.738 1.756,13.623 1.644,13.057 "/>
<polyline fill="#BC9045" points="2.135,13.928 2.589,13.965 2.702,14.607 2.248,14.494 2.135,13.928 "/>
<polyline fill="#BC9045" points="4.633,16.729 5.087,16.766 5.201,17.408 4.747,17.295 4.633,16.729 "/>
<polyline fill="#BC9045" points="5.396,18.271 5.849,18.309 5.962,18.951 5.508,18.838 5.396,18.271 "/>
<polyline fill="#BC9045" points="6.004,20.32 5.996,20.277 6.45,20.316 6.451,20.32 6.004,20.32 "/>
<polyline fill="#BC9045" points="3.952,17.295 4.405,17.334 4.519,17.977 4.065,17.863 3.952,17.295 "/>
<polyline fill="#BC9045" points="3.46,18.053 3.914,18.092 4.026,18.734 3.573,18.621 3.46,18.053 "/>
<polyline fill="#BC9045" points="4.179,19.377 4.633,19.414 4.747,20.059 4.292,19.945 4.179,19.377 "/>
<polyline fill="#BC9045" points="2.476,17.9 2.931,17.939 3.043,18.582 2.589,18.469 2.476,17.9 "/>
<polyline fill="#BC9045" points="0.583,16.729 1.037,16.766 1.151,17.408 0.696,17.295 0.583,16.729 "/>
<polyline fill="#BC9045" points="0.999,18.545 1.453,18.582 1.567,19.227 1.112,19.113 0.999,18.545 "/>
<polyline fill="#BC9045" points="0.204,17.75 0.658,17.787 0.772,18.432 0.317,18.318 0.204,17.75 "/>
<polyline fill="#BC9045" points="1.112,19.529 1.567,19.566 1.681,20.209 1.226,20.098 1.112,19.529 "/>
<polyline fill="#BC9045" points="2.589,0.316 3.043,0.355 3.157,0.998 2.702,0.885 2.589,0.316 "/>
<polyline fill="#BC9045" points="17.072,0 17.125,0.301 16.67,0.188 16.633,0 17.072,0 "/>
<polyline fill="#BC9045" points="13.438,0.691 13.894,0.729 14.006,1.371 13.552,1.258 13.438,0.691 "/>
<polyline fill="#BC9045" points="11.295,0.148 11.749,0.188 11.862,0.83 11.408,0.717 11.295,0.148 "/>
<polyline fill="#BC9045" points="8.38,0.111 8.835,0.148 8.948,0.791 8.494,0.68 8.38,0.111 "/>
<polyline fill="#BC9045" points="10.728,0.604 11.181,0.641 11.295,1.283 10.841,1.17 10.728,0.604 "/>
<polyline fill="#BC9045" points="8.002,0.754 8.456,0.791 8.569,1.436 8.115,1.322 8.002,0.754 "/>
<polyline fill="#BC9045" points="14.623,0.859 15.078,0.896 15.19,1.539 14.737,1.426 14.623,0.859 "/>
<polyline fill="#BC9045" points="20.32,7.496 20.152,7.453 20.039,6.887 20.32,6.91 20.32,7.496 "/>
<polyline fill="#BC9045" points="12.885,3.518 13.339,3.555 13.453,4.199 12.998,4.084 12.885,3.518 "/>
<polyline fill="#BC9045" points="15.308,12.262 15.761,12.299 15.875,12.943 15.421,12.828 15.308,12.262 "/>
<polyline fill="#BC9045" points="7.169,5.107 7.623,5.145 7.737,5.789 7.283,5.676 7.169,5.107 "/>
<polyline fill="#BC9045" points="8.19,4.879 8.646,4.918 8.759,5.563 8.306,5.447 8.19,4.879 "/>
<polyline fill="#BC9045" points="17.808,18.848 18.263,18.887 18.376,19.529 17.921,19.416 17.808,18.848 "/>
<polyline fill="#BC9045" points="1.832,5.713 2.286,5.75 2.399,6.395 1.944,6.281 1.832,5.713 "/>
<polyline fill="#BC9045" points="16.063,14.039 16.519,14.078 16.632,14.723 16.179,14.607 16.063,14.039 "/>
<polyline fill="#BC9045" points="13.49,11.314 13.944,11.354 14.058,11.996 13.604,11.883 13.49,11.314 "/>
<polyline fill="#BC9045" points="12.166,3.139 12.62,3.178 12.733,3.82 12.278,3.707 12.166,3.139 "/>
<polyline fill="#BC9045" points="16.254,14.949 16.708,14.986 16.822,15.629 16.367,15.518 16.254,14.949 "/>
<polyline fill="#BC9045" points="12.394,10.822 12.847,10.861 12.96,11.504 12.506,11.391 12.394,10.822 "/>
<polyline fill="#BC9045" points="16.446,15.857 16.902,15.895 17.015,16.539 16.562,16.426 16.446,15.857 "/>
<polyline fill="#BC9045" points="14.458,12.668 14.912,12.705 15.026,13.35 14.571,13.236 14.458,12.668 "/>
<polyline fill="#BC9045" points="10.308,3.705 10.763,3.742 10.876,4.387 10.422,4.271 10.308,3.705 "/>
<polyline fill="#BC9045" points="8.759,9.65 9.213,9.688 9.327,10.33 8.872,10.217 8.759,9.65 "/>
<polyline fill="#BC9045" points="13.49,12.225 13.944,12.262 14.058,12.904 13.604,12.791 13.49,12.225 "/>
<polyline fill="#BC9045" points="12.544,2.154 12.998,2.193 13.112,2.836 12.658,2.723 12.544,2.154 "/>
<polyline fill="#BC9045" points="4.179,4.918 4.633,4.955 4.747,5.6 4.292,5.486 4.179,4.918 "/>
<polyline fill="#BC9045" points="7.358,4.275 7.813,4.313 7.926,4.955 7.472,4.842 7.358,4.275 "/>
<polyline fill="#BC9045" points="11.319,2.85 11.772,2.889 11.886,3.531 11.433,3.418 11.319,2.85 "/>
<polyline fill="#BC9045" points="17.097,19.217 17.55,19.254 17.664,19.898 17.208,19.785 17.097,19.217 "/>
<polyline fill="#BC9045" points="11.716,11.209 12.171,11.246 12.284,11.891 11.83,11.777 11.716,11.209 "/>
<polyline fill="#BC9045" points="9.517,3.404 9.97,3.441 10.084,4.084 9.629,3.973 9.517,3.404 "/>
<polyline fill="#BC9045" points="15.875,16.576 16.329,16.613 16.442,17.258 15.989,17.145 15.875,16.576 "/>
<polyline fill="#BC9045" points="12.733,1.133 13.188,1.17 13.301,1.814 12.847,1.701 12.733,1.133 "/>
<polyline fill="#BC9045" points="8.077,10.18 8.532,10.217 8.646,10.861 8.19,10.746 8.077,10.18 "/>
<polyline fill="#BC9045" points="0.129,5.07 0.583,5.107 0.696,5.75 0.242,5.637 0.129,5.07 "/>
<polyline fill="#BC9045" points="16.633,20.32 16.556,19.938 17.011,19.975 17.072,20.32 16.633,20.32 "/>
<polyline fill="#BC9045" points="6.677,3.783 7.131,3.82 7.245,4.463 6.791,4.35 6.677,3.783 "/>
<polyline fill="#BC9045" points="13.788,14.291 14.243,14.328 14.356,14.973 13.901,14.859 13.788,14.291 "/>
<polyline fill="#BC9045" points="8.646,2.762 9.101,2.797 9.213,3.441 8.759,3.328 8.646,2.762 "/>
<polyline fill="#BC9045" points="10.351,11.82 10.806,11.859 10.919,12.502 10.464,12.389 10.351,11.82 "/>
<polyline fill="#BC9045" points="3.194,4.199 3.649,4.236 3.763,4.879 3.308,4.768 3.194,4.199 "/>
<polyline fill="#BC9045" points="1.644,4.463 2.097,4.502 2.21,5.145 1.756,5.031 1.644,4.463 "/>
<polyline fill="#BC9045" points="0.849,4.502 1.302,4.539 1.416,5.184 0.961,5.07 0.849,4.502 "/>
<polyline fill="#BC9045" points="9.024,2.117 9.478,2.154 9.592,2.797 9.138,2.686 9.024,2.117 "/>
<polyline fill="#BC9045" points="15.231,18.406 15.687,18.445 15.799,19.088 15.345,18.975 15.231,18.406 "/>
<polyline fill="#BC9045" points="13.455,15.305 13.909,15.342 14.022,15.984 13.569,15.871 13.455,15.305 "/>
<polyline fill="#BC9045" points="3.989,3.594 4.444,3.631 4.558,4.275 4.103,4.16 3.989,3.594 "/>
<polyline fill="#BC9045" points="2.362,3.934 2.815,3.973 2.931,4.615 2.476,4.502 2.362,3.934 "/>
<polyline fill="#BC9045" points="6.033,3.016 6.487,3.053 6.601,3.695 6.147,3.582 6.033,3.016 "/>
<polyline fill="#BC9045" points="14.664,17.6 15.118,17.637 15.231,18.279 14.776,18.166 14.664,17.6 "/>
<polyline fill="#BC9045" points="10.122,1.133 10.576,1.17 10.688,1.814 10.235,1.701 10.122,1.133 "/>
<polyline fill="#BC9045" points="9.401,1.436 9.856,1.475 9.97,2.117 9.517,2.004 9.401,1.436 "/>
<polyline fill="#BC9045" points="5.246,3.096 5.7,3.135 5.813,3.777 5.358,3.664 5.246,3.096 "/>
<polyline fill="#BC9045" points="7.207,2.23 7.661,2.268 7.774,2.912 7.319,2.797 7.207,2.23 "/>
<polyline fill="#BC9045" points="4.368,2.912 4.821,2.949 4.937,3.594 4.481,3.48 4.368,2.912 "/>
<polyline fill="#BC9045" points="7.661,1.586 8.115,1.625 8.229,2.268 7.774,2.154 7.661,1.586 "/>
<polyline fill="#BC9045" points="13.921,18.041 14.375,18.078 14.489,18.723 14.034,18.609 13.921,18.041 "/>
<polyline fill="#BC9045" points="13.301,17.068 13.755,17.107 13.869,17.75 13.415,17.637 13.301,17.068 "/>
<polyline fill="#BC9045" points="12.128,15.82 12.582,15.857 12.694,16.5 12.241,16.387 12.128,15.82 "/>
<polyline fill="#BC9045" points="6.487,1.475 6.942,1.512 7.056,2.154 6.601,2.041 6.487,1.475 "/>
<polyline fill="#BC9045" points="0.772,3.215 1.226,3.252 1.34,3.896 0.886,3.783 0.772,3.215 "/>
<polyline fill="#BC9045" points="3.61,2.381 4.065,2.42 4.179,3.063 3.726,2.949 3.61,2.381 "/>
<polyline fill="#BC9045" points="4.142,1.512 4.595,1.549 4.709,2.193 4.254,2.078 4.142,1.512 "/>
<polyline fill="#BC9045" points="4.709,1.096 5.163,1.133 5.276,1.775 4.821,1.662 4.709,1.096 "/>
<polyline fill="#BC9045" points="0.204,2.344 0.658,2.381 0.772,3.025 0.317,2.912 0.204,2.344 "/>
<polyline fill="#BC9045" points="1.967,12.217 2.421,12.254 2.534,12.898 2.08,12.783 1.967,12.217 "/>
<polyline fill="#BC9045" points="1.34,1.475 1.794,1.512 1.908,2.154 1.453,2.041 1.34,1.475 "/>
<polyline fill="#BC9045" points="2.135,1.096 2.589,1.133 2.702,1.775 2.248,1.662 2.135,1.096 "/>
<polyline fill="#BC9045" points="0.431,1.512 0.886,1.549 0.999,2.193 0.545,2.078 0.431,1.512 "/>
<polyline fill="#BC9045" points="3.46,14.723 3.914,14.76 4.026,15.402 3.573,15.289 3.46,14.723 "/>
<polyline fill="#BC9045" points="0.129,13.473 0.583,13.512 0.696,14.154 0.242,14.039 0.129,13.473 "/>
<polyline fill="#BC9045" points="7.093,18.053 7.548,18.092 7.661,18.734 7.207,18.621 7.093,18.053 "/>
<polyline fill="#BC9045" points="3.914,15.82 4.368,15.857 4.481,16.5 4.026,16.387 3.914,15.82 "/>
<polyline fill="#BC9045" points="1.908,14.797 2.362,14.834 2.476,15.479 2.021,15.365 1.908,14.797 "/>
<polyline fill="#BC9045" points="2.74,15.252 3.194,15.289 3.308,15.934 2.854,15.82 2.74,15.252 "/>
<polyline fill="#BC9045" points="7.699,19.15 8.153,19.188 8.267,19.832 7.813,19.719 7.699,19.15 "/>
<polyline fill="#BC9045" points="0.694,14.645 1.147,14.682 1.263,15.324 0.808,15.211 0.694,14.645 "/>
<polyline fill="#BC9045" points="1.401,15.414 1.856,15.453 1.97,16.098 1.515,15.982 1.401,15.414 "/>
<polyline fill="#BC9045" points="1.302,16.301 1.756,16.338 1.87,16.98 1.416,16.867 1.302,16.301 "/>
<polyline fill="#BC9045" points="4.825,18.848 5.278,18.887 5.392,19.529 4.938,19.414 4.825,18.848 "/>
<polyline fill="#BC9045" points="2.06,17.031 2.513,17.068 2.627,17.711 2.173,17.6 2.06,17.031 "/>
</svg>
