<?xml version="1.0" encoding="utf-8"?>
<!-- Generator: Adobe Illustrator 14.0.0, SVG Export Plug-In  -->
<!DOCTYPE svg PUBLIC "-//W3C//DTD SVG 1.1//EN" "http://www.w3.org/Graphics/SVG/1.1/DTD/svg11.dtd" [
	<!ENTITY ns_flows "http://ns.adobe.com/Flows/1.0/">
]>
<svg version="1.1"
	 xmlns="http://www.w3.org/2000/svg" xmlns:xlink="http://www.w3.org/1999/xlink" xmlns:a="http://ns.adobe.com/AdobeSVGViewerExtensions/3.0/"
	 x="0px" y="0px" width="35.898px" height="36px" viewBox="0 0 35.898 36" enable-background="new 0 0 35.898 36"
	 xml:space="preserve">
<defs>
</defs>
<rect fill="none" width="35.898" height="36"/>
<rect fill="#FFFFFF" width="35.898" height="36"/>
<rect fill="#FFFFFF" width="35.898" height="36"/>
<rect fill="#FFFFFF" width="35.898" height="36"/>
<circle fill="#BC9045" cx="0.6" cy="0.2" r="0.2"/>
<circle fill="#BC9045" cx="7.1" cy="0.2" r="0.2"/>
<circle fill="#BC9045" cx="9.2" cy="0.2" r="0.2"/>
<circle fill="#BC9045" cx="10.5" cy="0.2" r="0.2"/>
<circle fill="#BC9045" cx="15.2" cy="0.2" r="0.2"/>
<circle fill="#BC9045" cx="22.499" cy="0.2" r="0.2"/>
<circle fill="#BC9045" cx="28.999" cy="0.2" r="0.2"/>
<circle fill="#BC9045" cx="30.699" cy="0.2" r="0.199"/>
<circle fill="#BC9045" cx="33.3" cy="0.2" r="0.199"/>
<ellipse fill="#BC9045" cx="1.9" cy="0.65" rx="0.2" ry="0.25"/>
<ellipse fill="#BC9045" cx="4.5" cy="0.65" rx="0.2" ry="0.25"/>
<ellipse fill="#BC9045" cx="5.8" cy="0.65" rx="0.2" ry="0.25"/>
<circle fill="#BC9045" cx="12.649" cy="0.65" r="0.25"/>
<ellipse fill="#BC9045" cx="16.95" cy="0.65" rx="0.15" ry="0.25"/>
<ellipse fill="#BC9045" cx="17.8" cy="0.65" rx="0.2" ry="0.25"/>
<ellipse fill="#BC9045" cx="19.1" cy="0.65" rx="0.2" ry="0.25"/>
<ellipse fill="#BC9045" cx="20.8" cy="0.65" rx="0.199" ry="0.25"/>
<ellipse fill="#BC9045" cx="25.499" cy="0.65" rx="0.2" ry="0.25"/>
<ellipse fill="#BC9045" cx="27.699" cy="0.65" rx="0.199" ry="0.25"/>
<ellipse fill="#BC9045" cx="34.999" cy="0.65" rx="0.2" ry="0.25"/>
<circle fill="#BC9045" cx="2.8" cy="1.1" r="0.2"/>
<circle fill="#BC9045" cx="9.6" cy="1.1" r="0.2"/>
<circle fill="#BC9045" cx="11.4" cy="1.1" r="0.2"/>
<circle fill="#BC9045" cx="14.4" cy="1.1" r="0.2"/>
<circle fill="#BC9045" cx="24.199" cy="1.1" r="0.199"/>
<circle fill="#BC9045" cx="29.4" cy="1.1" r="0.201"/>
<circle fill="#BC9045" cx="32.8" cy="1.1" r="0.199"/>
<circle fill="#BC9045" cx="0.2" cy="1.5" r="0.2"/>
<circle fill="#BC9045" cx="4.9" cy="1.5" r="0.2"/>
<circle fill="#BC9045" cx="6.2" cy="1.5" r="0.2"/>
<circle fill="#BC9045" cx="7.5" cy="1.5" r="0.2"/>
<circle fill="#BC9045" cx="12.2" cy="1.5" r="0.2"/>
<circle fill="#BC9045" cx="16.1" cy="1.5" r="0.2"/>
<circle fill="#BC9045" cx="22.499" cy="1.5" r="0.2"/>
<circle fill="#BC9045" cx="26.8" cy="1.5" r="0.199"/>
<circle fill="#BC9045" cx="30.699" cy="1.5" r="0.199"/>
<circle fill="#BC9045" cx="1.5" cy="1.9" r="0.2"/>
<circle fill="#BC9045" cx="3.6" cy="1.9" r="0.2"/>
<circle fill="#BC9045" cx="8.8" cy="1.9" r="0.2"/>
<circle fill="#BC9045" cx="10.5" cy="1.9" r="0.2"/>
<circle fill="#BC9045" cx="13.1" cy="1.9" r="0.2"/>
<circle fill="#BC9045" cx="17.4" cy="1.9" r="0.2"/>
<circle fill="#BC9045" cx="18.7" cy="1.9" r="0.2"/>
<ellipse fill="#BC9045" cx="19.95" cy="1.9" rx="0.15" ry="0.2"/>
<circle fill="#BC9045" cx="21.199" cy="1.9" r="0.2"/>
<circle fill="#BC9045" cx="25.098" cy="1.9" r="0.2"/>
<circle fill="#BC9045" cx="31.999" cy="1.9" r="0.2"/>
<circle fill="#BC9045" cx="34.098" cy="1.9" r="0.2"/>
<circle fill="#BC9045" cx="35.4" cy="1.9" r="0.201"/>
<ellipse fill="#BC9045" cx="13.95" cy="2.4" rx="0.25" ry="0.2"/>
<circle fill="#BC9045" cx="28.999" cy="2.4" r="0.2"/>
<circle fill="#BC9045" cx="0.6" cy="2.8" r="0.2"/>
<ellipse fill="#BC9045" cx="2.35" cy="2.8" rx="0.15" ry="0.2"/>
<ellipse fill="#BC9045" cx="5.35" cy="2.8" rx="0.15" ry="0.2"/>
<circle fill="#BC9045" cx="7.9" cy="2.8" r="0.2"/>
<circle fill="#BC9045" cx="9.6" cy="2.8" r="0.2"/>
<circle fill="#BC9045" cx="11.8" cy="2.8" r="0.2"/>
<circle fill="#BC9045" cx="15.7" cy="2.8" r="0.2"/>
<ellipse fill="#BC9045" cx="16.95" cy="2.8" rx="0.15" ry="0.2"/>
<circle fill="#BC9045" cx="22.499" cy="2.8" r="0.2"/>
<circle fill="#BC9045" cx="23.8" cy="2.8" r="0.2"/>
<ellipse fill="#BC9045" cx="27.25" cy="2.8" rx="0.25" ry="0.2"/>
<circle fill="#BC9045" cx="33.3" cy="2.8" r="0.199"/>
<circle fill="#BC9045" cx="4.1" cy="3.2" r="0.2"/>
<circle fill="#BC9045" cx="6.6" cy="3.2" r="0.2"/>
<circle fill="#BC9045" cx="8.8" cy="3.2" r="0.2"/>
<circle fill="#BC9045" cx="18.7" cy="3.2" r="0.2"/>
<ellipse fill="#BC9045" cx="19.95" cy="3.2" rx="0.15" ry="0.2"/>
<circle fill="#BC9045" cx="21.199" cy="3.2" r="0.2"/>
<circle fill="#BC9045" cx="25.499" cy="3.2" r="0.2"/>
<ellipse fill="#BC9045" cx="28.548" cy="3.2" rx="0.25" ry="0.2"/>
<circle fill="#BC9045" cx="30.699" cy="3.2" r="0.199"/>
<circle fill="#BC9045" cx="34.999" cy="3.2" r="0.2"/>
<ellipse fill="#BC9045" cx="10.5" cy="3.65" rx="0.2" ry="0.25"/>
<circle fill="#BC9045" cx="13.95" cy="3.65" r="0.25"/>
<circle fill="#BC9045" cx="1.1" cy="4.1" r="0.2"/>
<circle fill="#BC9045" cx="2.8" cy="4.1" r="0.2"/>
<ellipse fill="#BC9045" cx="5.35" cy="4.1" rx="0.15" ry="0.2"/>
<circle fill="#BC9045" cx="11.8" cy="4.1" r="0.2"/>
<circle fill="#BC9045" cx="15.2" cy="4.1" r="0.2"/>
<circle fill="#BC9045" cx="16.5" cy="4.1" r="0.2"/>
<circle fill="#BC9045" cx="17.8" cy="4.1" r="0.2"/>
<circle fill="#BC9045" cx="19.1" cy="4.1" r="0.2"/>
<circle fill="#BC9045" cx="20.4" cy="4.1" r="0.2"/>
<circle fill="#BC9045" cx="22.099" cy="4.1" r="0.2"/>
<circle fill="#BC9045" cx="24.199" cy="4.1" r="0.199"/>
<circle fill="#BC9045" cx="26.4" cy="4.1" r="0.201"/>
<circle fill="#BC9045" cx="27.699" cy="4.1" r="0.199"/>
<circle fill="#BC9045" cx="29.4" cy="4.1" r="0.201"/>
<circle fill="#BC9045" cx="31.999" cy="4.1" r="0.2"/>
<circle fill="#BC9045" cx="33.699" cy="4.1" r="0.199"/>
<circle fill="#BC9045" cx="34.999" cy="4.1" r="0.2"/>
<ellipse fill="#BC9045" cx="35.75" cy="4.1" rx="0.148" ry="0.2"/>
<circle fill="#BC9045" cx="0.2" cy="4.5" r="0.2"/>
<circle fill="#BC9045" cx="4.1" cy="4.5" r="0.2"/>
<ellipse fill="#BC9045" cx="8.35" cy="4.5" rx="0.15" ry="0.2"/>
<circle fill="#BC9045" cx="10.1" cy="4.5" r="0.2"/>
<circle fill="#BC9045" cx="6.6" cy="4.901" r="0.2"/>
<circle fill="#BC9045" cx="11.4" cy="4.901" r="0.2"/>
<circle fill="#BC9045" cx="13.1" cy="4.901" r="0.2"/>
<circle fill="#BC9045" cx="14.4" cy="4.901" r="0.2"/>
<circle fill="#BC9045" cx="16.5" cy="4.901" r="0.2"/>
<circle fill="#BC9045" cx="18.7" cy="4.901" r="0.2"/>
<circle fill="#BC9045" cx="21.699" cy="4.901" r="0.199"/>
<circle fill="#BC9045" cx="23.4" cy="4.901" r="0.201"/>
<circle fill="#BC9045" cx="25.098" cy="4.901" r="0.2"/>
<circle fill="#BC9045" cx="30.699" cy="4.901" r="0.199"/>
<circle fill="#BC9045" cx="1.5" cy="5.401" r="0.2"/>
<circle fill="#BC9045" cx="2.8" cy="5.401" r="0.2"/>
<ellipse fill="#BC9045" cx="5.35" cy="5.401" rx="0.15" ry="0.199"/>
<circle fill="#BC9045" cx="17.8" cy="5.401" r="0.2"/>
<circle fill="#BC9045" cx="19.5" cy="5.401" r="0.2"/>
<circle fill="#BC9045" cx="26.4" cy="5.401" r="0.201"/>
<circle fill="#BC9045" cx="27.699" cy="5.401" r="0.199"/>
<circle fill="#BC9045" cx="32.8" cy="5.401" r="0.199"/>
<circle fill="#BC9045" cx="34.098" cy="5.401" r="0.2"/>
<circle fill="#BC9045" cx="35.4" cy="5.401" r="0.201"/>
<circle fill="#BC9045" cx="3.6" cy="5.799" r="0.2"/>
<circle fill="#BC9045" cx="7.9" cy="5.799" r="0.2"/>
<circle fill="#BC9045" cx="10.1" cy="5.799" r="0.2"/>
<circle fill="#BC9045" cx="20.8" cy="5.799" r="0.199"/>
<circle fill="#BC9045" cx="22.499" cy="5.799" r="0.2"/>
<circle fill="#BC9045" cx="24.199" cy="5.799" r="0.199"/>
<circle fill="#BC9045" cx="29.4" cy="5.799" r="0.201"/>
<circle fill="#BC9045" cx="0.399" cy="6.2" r="0.2"/>
<circle fill="#BC9045" cx="4.5" cy="6.2" r="0.2"/>
<circle fill="#BC9045" cx="6.2" cy="6.2" r="0.2"/>
<circle fill="#BC9045" cx="8.8" cy="6.2" r="0.2"/>
<circle fill="#BC9045" cx="12.2" cy="6.2" r="0.2"/>
<circle fill="#BC9045" cx="13.1" cy="6.2" r="0.2"/>
<circle fill="#BC9045" cx="15.2" cy="6.2" r="0.2"/>
<circle fill="#BC9045" cx="16.5" cy="6.2" r="0.2"/>
<circle fill="#BC9045" cx="17.8" cy="6.2" r="0.2"/>
<circle fill="#BC9045" cx="25.499" cy="6.2" r="0.2"/>
<circle fill="#BC9045" cx="26.8" cy="6.2" r="0.199"/>
<circle fill="#BC9045" cx="31.499" cy="6.2" r="0.2"/>
<ellipse fill="#BC9045" cx="2.35" cy="6.649" rx="0.15" ry="0.25"/>
<ellipse fill="#BC9045" cx="11.4" cy="6.649" rx="0.2" ry="0.25"/>
<ellipse fill="#BC9045" cx="19.1" cy="6.649" rx="0.2" ry="0.25"/>
<ellipse fill="#BC9045" cx="30.3" cy="6.649" rx="0.199" ry="0.25"/>
<ellipse fill="#BC9045" cx="32.8" cy="6.649" rx="0.199" ry="0.25"/>
<ellipse fill="#BC9045" cx="34.098" cy="6.649" rx="0.2" ry="0.25"/>
<ellipse fill="#BC9045" cx="35.4" cy="6.649" rx="0.201" ry="0.25"/>
<circle fill="#BC9045" cx="4.1" cy="7.1" r="0.2"/>
<ellipse fill="#BC9045" cx="5.35" cy="7.1" rx="0.15" ry="0.199"/>
<circle fill="#BC9045" cx="20.4" cy="7.1" r="0.2"/>
<circle fill="#BC9045" cx="22.099" cy="7.1" r="0.2"/>
<circle fill="#BC9045" cx="23.4" cy="7.1" r="0.201"/>
<circle fill="#BC9045" cx="24.699" cy="7.1" r="0.199"/>
<circle fill="#BC9045" cx="28.098" cy="7.1" r="0.2"/>
<circle fill="#BC9045" cx="1.9" cy="7.5" r="0.2"/>
<circle fill="#BC9045" cx="7.1" cy="7.5" r="0.2"/>
<circle fill="#BC9045" cx="10.5" cy="7.5" r="0.2"/>
<circle fill="#BC9045" cx="15.2" cy="7.5" r="0.2"/>
<circle fill="#BC9045" cx="17.8" cy="7.5" r="0.2"/>
<circle fill="#BC9045" cx="1.1" cy="7.901" r="0.2"/>
<circle fill="#BC9045" cx="3.2" cy="7.901" r="0.2"/>
<circle fill="#BC9045" cx="4.9" cy="7.901" r="0.2"/>
<ellipse fill="#BC9045" cx="8.35" cy="7.901" rx="0.15" ry="0.199"/>
<circle fill="#BC9045" cx="9.2" cy="7.901" r="0.2"/>
<ellipse fill="#BC9045" cx="12.649" cy="7.901" rx="0.25" ry="0.199"/>
<ellipse fill="#BC9045" cx="13.95" cy="7.901" rx="0.25" ry="0.199"/>
<circle fill="#BC9045" cx="16.5" cy="7.901" r="0.2"/>
<circle fill="#BC9045" cx="19.1" cy="7.901" r="0.2"/>
<ellipse fill="#BC9045" cx="22.95" cy="7.901" rx="0.151" ry="0.199"/>
<circle fill="#BC9045" cx="24.199" cy="7.901" r="0.199"/>
<circle fill="#BC9045" cx="25.499" cy="7.901" r="0.2"/>
<circle fill="#BC9045" cx="26.8" cy="7.901" r="0.199"/>
<circle fill="#BC9045" cx="29.4" cy="7.901" r="0.201"/>
<circle fill="#BC9045" cx="32.8" cy="7.901" r="0.199"/>
<circle fill="#BC9045" cx="34.098" cy="7.901" r="0.2"/>
<circle fill="#BC9045" cx="35.4" cy="7.901" r="0.201"/>
<ellipse fill="#BC9045" cx="0.2" cy="8.35" rx="0.2" ry="0.25"/>
<ellipse fill="#BC9045" cx="11.4" cy="8.35" rx="0.2" ry="0.25"/>
<ellipse fill="#BC9045" cx="17.8" cy="8.35" rx="0.2" ry="0.25"/>
<ellipse fill="#BC9045" cx="21.699" cy="8.35" rx="0.199" ry="0.25"/>
<ellipse fill="#BC9045" cx="31.098" cy="8.35" rx="0.2" ry="0.25"/>
<ellipse fill="#BC9045" cx="2.35" cy="8.799" rx="0.15" ry="0.201"/>
<circle fill="#BC9045" cx="4.1" cy="8.799" r="0.2"/>
<circle fill="#BC9045" cx="6.2" cy="8.799" r="0.2"/>
<circle fill="#BC9045" cx="12.2" cy="8.799" r="0.2"/>
<circle fill="#BC9045" cx="15.2" cy="8.799" r="0.2"/>
<circle fill="#BC9045" cx="20.4" cy="8.799" r="0.2"/>
<ellipse fill="#BC9045" cx="5.35" cy="9.2" rx="0.15" ry="0.199"/>
<circle fill="#BC9045" cx="7.5" cy="9.2" r="0.2"/>
<circle fill="#BC9045" cx="10.5" cy="9.2" r="0.2"/>
<circle fill="#BC9045" cx="13.5" cy="9.2" r="0.2"/>
<circle fill="#BC9045" cx="16.5" cy="9.2" r="0.2"/>
<ellipse fill="#BC9045" cx="22.95" cy="9.2" rx="0.151" ry="0.199"/>
<circle fill="#BC9045" cx="24.199" cy="9.2" r="0.199"/>
<circle fill="#BC9045" cx="25.098" cy="9.2" r="0.2"/>
<circle fill="#BC9045" cx="26.4" cy="9.2" r="0.201"/>
<circle fill="#BC9045" cx="27.699" cy="9.2" r="0.199"/>
<circle fill="#BC9045" cx="29.8" cy="9.2" r="0.199"/>
<circle fill="#BC9045" cx="33.3" cy="9.2" r="0.199"/>
<ellipse fill="#BC9045" cx="34.548" cy="9.2" rx="0.15" ry="0.199"/>
<ellipse fill="#BC9045" cx="35.75" cy="9.2" rx="0.148" ry="0.199"/>
<ellipse fill="#BC9045" cx="1.1" cy="9.649" rx="0.2" ry="0.25"/>
<ellipse fill="#BC9045" cx="3.2" cy="9.649" rx="0.2" ry="0.25"/>
<ellipse fill="#BC9045" cx="8.8" cy="9.649" rx="0.2" ry="0.25"/>
<ellipse fill="#BC9045" cx="11.4" cy="9.649" rx="0.2" ry="0.25"/>
<ellipse fill="#BC9045" cx="17.8" cy="9.649" rx="0.2" ry="0.25"/>
<ellipse fill="#BC9045" cx="19.5" cy="9.649" rx="0.2" ry="0.25"/>
<ellipse fill="#BC9045" cx="21.699" cy="9.649" rx="0.199" ry="0.25"/>
<ellipse fill="#BC9045" cx="31.999" cy="9.649" rx="0.2" ry="0.25"/>
<circle fill="#BC9045" cx="0.2" cy="10.1" r="0.2"/>
<circle fill="#BC9045" cx="4.5" cy="10.1" r="0.2"/>
<circle fill="#BC9045" cx="6.6" cy="10.1" r="0.2"/>
<circle fill="#BC9045" cx="12.2" cy="10.1" r="0.2"/>
<circle fill="#BC9045" cx="13.5" cy="10.1" r="0.2"/>
<circle fill="#BC9045" cx="14.4" cy="10.1" r="0.2"/>
<circle fill="#BC9045" cx="15.7" cy="10.1" r="0.2"/>
<ellipse fill="#BC9045" cx="28.548" cy="10.1" rx="0.25" ry="0.199"/>
<circle fill="#BC9045" cx="30.699" cy="10.1" r="0.199"/>
<circle fill="#BC9045" cx="1.9" cy="10.5" r="0.2"/>
<circle fill="#BC9045" cx="10.1" cy="10.5" r="0.2"/>
<ellipse fill="#BC9045" cx="16.95" cy="10.5" rx="0.15" ry="0.199"/>
<circle fill="#BC9045" cx="18.7" cy="10.5" r="0.2"/>
<circle fill="#BC9045" cx="20.8" cy="10.5" r="0.199"/>
<circle fill="#BC9045" cx="23.4" cy="10.5" r="0.201"/>
<circle fill="#BC9045" cx="24.199" cy="10.5" r="0.199"/>
<circle fill="#BC9045" cx="25.098" cy="10.5" r="0.2"/>
<circle fill="#BC9045" cx="26.4" cy="10.5" r="0.201"/>
<circle fill="#BC9045" cx="34.098" cy="10.5" r="0.2"/>
<circle fill="#BC9045" cx="35.4" cy="10.5" r="0.201"/>
<ellipse fill="#BC9045" cx="5.35" cy="10.901" rx="0.15" ry="0.199"/>
<circle fill="#BC9045" cx="7.9" cy="10.901" r="0.2"/>
<circle fill="#BC9045" cx="11.4" cy="10.901" r="0.2"/>
<circle fill="#BC9045" cx="16.1" cy="10.901" r="0.2"/>
<circle fill="#BC9045" cx="22.499" cy="10.901" r="0.2"/>
<circle fill="#BC9045" cx="27.699" cy="10.901" r="0.199"/>
<circle fill="#BC9045" cx="29.4" cy="10.901" r="0.201"/>
<circle fill="#BC9045" cx="32.8" cy="10.901" r="0.199"/>
<ellipse fill="#BC9045" cx="0.2" cy="11.35" rx="0.2" ry="0.25"/>
<ellipse fill="#BC9045" cx="3.6" cy="11.35" rx="0.2" ry="0.25"/>
<ellipse fill="#BC9045" cx="6.6" cy="11.35" rx="0.2" ry="0.25"/>
<ellipse fill="#BC9045" cx="8.8" cy="11.35" rx="0.2" ry="0.25"/>
<ellipse fill="#BC9045" cx="12.2" cy="11.35" rx="0.2" ry="0.25"/>
<ellipse fill="#BC9045" cx="13.5" cy="11.35" rx="0.2" ry="0.25"/>
<ellipse fill="#BC9045" cx="14.8" cy="11.35" rx="0.2" ry="0.25"/>
<ellipse fill="#BC9045" cx="17.8" cy="11.35" rx="0.2" ry="0.25"/>
<ellipse fill="#BC9045" cx="20.4" cy="11.35" rx="0.2" ry="0.25"/>
<ellipse fill="#BC9045" cx="31.499" cy="11.35" rx="0.2" ry="0.25"/>
<circle fill="#BC9045" cx="2.8" cy="11.799" r="0.2"/>
<circle fill="#BC9045" cx="10.1" cy="11.799" r="0.2"/>
<circle fill="#BC9045" cx="19.1" cy="11.799" r="0.2"/>
<circle fill="#BC9045" cx="22.099" cy="11.799" r="0.2"/>
<circle fill="#BC9045" cx="24.199" cy="11.799" r="0.199"/>
<circle fill="#BC9045" cx="25.098" cy="11.799" r="0.2"/>
<circle fill="#BC9045" cx="26.4" cy="11.799" r="0.201"/>
<ellipse fill="#BC9045" cx="28.548" cy="11.799" rx="0.25" ry="0.201"/>
<circle fill="#BC9045" cx="30.3" cy="11.799" r="0.199"/>
<ellipse fill="#BC9045" cx="5.35" cy="12.2" rx="0.15" ry="0.199"/>
<circle fill="#BC9045" cx="7.9" cy="12.2" r="0.2"/>
<circle fill="#BC9045" cx="10.9" cy="12.2" r="0.2"/>
<circle fill="#BC9045" cx="15.2" cy="12.2" r="0.2"/>
<ellipse fill="#BC9045" cx="16.95" cy="12.2" rx="0.15" ry="0.199"/>
<ellipse fill="#BC9045" cx="22.95" cy="12.2" rx="0.151" ry="0.199"/>
<circle fill="#BC9045" cx="33.699" cy="12.2" r="0.199"/>
<circle fill="#BC9045" cx="34.999" cy="12.2" r="0.2"/>
<ellipse fill="#BC9045" cx="1.5" cy="12.649" rx="0.2" ry="0.25"/>
<ellipse fill="#BC9045" cx="4.1" cy="12.649" rx="0.2" ry="0.25"/>
<ellipse fill="#BC9045" cx="6.6" cy="12.649" rx="0.2" ry="0.25"/>
<ellipse fill="#BC9045" cx="8.8" cy="12.649" rx="0.2" ry="0.25"/>
<ellipse fill="#BC9045" cx="12.2" cy="12.649" rx="0.2" ry="0.25"/>
<circle fill="#BC9045" cx="13.95" cy="12.649" r="0.25"/>
<ellipse fill="#BC9045" cx="19.95" cy="12.649" rx="0.15" ry="0.25"/>
<ellipse fill="#BC9045" cx="21.699" cy="12.649" rx="0.199" ry="0.25"/>
<ellipse fill="#BC9045" cx="27.699" cy="12.649" rx="0.199" ry="0.25"/>
<ellipse fill="#BC9045" cx="29.4" cy="12.649" rx="0.201" ry="0.25"/>
<ellipse fill="#BC9045" cx="32.4" cy="12.649" rx="0.201" ry="0.25"/>
<circle fill="#BC9045" cx="0.2" cy="13.1" r="0.2"/>
<circle fill="#BC9045" cx="10.1" cy="13.1" r="0.2"/>
<circle fill="#BC9045" cx="15.7" cy="13.1" r="0.2"/>
<circle fill="#BC9045" cx="18.2" cy="13.1" r="0.2"/>
<circle fill="#BC9045" cx="24.699" cy="13.1" r="0.199"/>
<circle fill="#BC9045" cx="31.098" cy="13.1" r="0.2"/>
<ellipse fill="#BC9045" cx="5.35" cy="13.5" rx="0.15" ry="0.199"/>
<circle fill="#BC9045" cx="7.9" cy="13.5" r="0.2"/>
<circle fill="#BC9045" cx="10.9" cy="13.5" r="0.2"/>
<circle fill="#BC9045" cx="14.8" cy="13.5" r="0.2"/>
<circle fill="#BC9045" cx="21.199" cy="13.5" r="0.2"/>
<circle fill="#BC9045" cx="23.4" cy="13.5" r="0.201"/>
<circle fill="#BC9045" cx="34.098" cy="13.5" r="0.2"/>
<circle fill="#BC9045" cx="35.4" cy="13.5" r="0.201"/>
<circle fill="#BC9045" cx="3.2" cy="13.901" r="0.2"/>
<circle fill="#BC9045" cx="8.8" cy="13.901" r="0.2"/>
<circle fill="#BC9045" cx="12.2" cy="13.901" r="0.2"/>
<circle fill="#BC9045" cx="16.5" cy="13.901" r="0.2"/>
<circle fill="#BC9045" cx="17.8" cy="13.901" r="0.2"/>
<circle fill="#BC9045" cx="19.1" cy="13.901" r="0.2"/>
<circle fill="#BC9045" cx="22.499" cy="13.901" r="0.2"/>
<circle fill="#BC9045" cx="25.499" cy="13.901" r="0.2"/>
<circle fill="#BC9045" cx="26.8" cy="13.901" r="0.199"/>
<ellipse fill="#BC9045" cx="28.548" cy="13.901" rx="0.25" ry="0.199"/>
<circle fill="#BC9045" cx="30.3" cy="13.901" r="0.199"/>
<circle fill="#BC9045" cx="32.8" cy="13.901" r="0.199"/>
<ellipse fill="#BC9045" cx="1.1" cy="14.35" rx="0.2" ry="0.25"/>
<ellipse fill="#BC9045" cx="6.6" cy="14.35" rx="0.2" ry="0.25"/>
<ellipse fill="#BC9045" cx="10.1" cy="14.35" rx="0.2" ry="0.25"/>
<ellipse fill="#BC9045" cx="15.7" cy="14.35" rx="0.2" ry="0.25"/>
<ellipse fill="#BC9045" cx="20.4" cy="14.35" rx="0.2" ry="0.25"/>
<ellipse fill="#BC9045" cx="24.199" cy="14.35" rx="0.199" ry="0.25"/>
<ellipse fill="#BC9045" cx="31.499" cy="14.35" rx="0.2" ry="0.25"/>
<ellipse fill="#BC9045" cx="12.649" cy="14.799" rx="0.25" ry="0.201"/>
<circle fill="#BC9045" cx="23.4" cy="14.799" r="0.201"/>
<circle fill="#BC9045" cx="27.699" cy="14.799" r="0.199"/>
<circle fill="#BC9045" cx="28.999" cy="14.799" r="0.2"/>
<circle fill="#BC9045" cx="30.699" cy="14.799" r="0.199"/>
<circle fill="#BC9045" cx="1.9" cy="15.2" r="0.2"/>
<circle fill="#BC9045" cx="3.2" cy="15.2" r="0.2"/>
<ellipse fill="#BC9045" cx="5.35" cy="15.2" rx="0.15" ry="0.199"/>
<circle fill="#BC9045" cx="7.9" cy="15.2" r="0.2"/>
<circle fill="#BC9045" cx="9.2" cy="15.2" r="0.2"/>
<circle fill="#BC9045" cx="10.9" cy="15.2" r="0.2"/>
<circle fill="#BC9045" cx="11.8" cy="15.2" r="0.2"/>
<circle fill="#BC9045" cx="14.4" cy="15.2" r="0.2"/>
<circle fill="#BC9045" cx="21.699" cy="15.2" r="0.199"/>
<circle fill="#BC9045" cx="26.4" cy="15.2" r="0.201"/>
<circle fill="#BC9045" cx="33.699" cy="15.2" r="0.199"/>
<circle fill="#BC9045" cx="35.4" cy="15.2" r="0.201"/>
<ellipse fill="#BC9045" cx="0.6" cy="15.649" rx="0.2" ry="0.25"/>
<ellipse fill="#BC9045" cx="17.4" cy="15.649" rx="0.2" ry="0.25"/>
<ellipse fill="#BC9045" cx="18.7" cy="15.649" rx="0.2" ry="0.25"/>
<ellipse fill="#BC9045" cx="19.95" cy="15.649" rx="0.15" ry="0.25"/>
<ellipse fill="#BC9045" cx="22.95" cy="15.649" rx="0.151" ry="0.25"/>
<ellipse fill="#BC9045" cx="24.699" cy="15.649" rx="0.199" ry="0.25"/>
<ellipse fill="#BC9045" cx="32.4" cy="15.649" rx="0.201" ry="0.25"/>
<circle fill="#BC9045" cx="4.1" cy="16.1" r="0.2"/>
<circle fill="#BC9045" cx="6.6" cy="16.1" r="0.2"/>
<circle fill="#BC9045" cx="9.6" cy="16.1" r="0.2"/>
<circle fill="#BC9045" cx="13.5" cy="16.1" r="0.2"/>
<circle fill="#BC9045" cx="16.1" cy="16.1" r="0.2"/>
<circle fill="#BC9045" cx="21.199" cy="16.1" r="0.2"/>
<circle fill="#BC9045" cx="25.499" cy="16.1" r="0.2"/>
<ellipse fill="#BC9045" cx="27.25" cy="16.1" rx="0.25" ry="0.199"/>
<circle fill="#BC9045" cx="29.4" cy="16.1" r="0.201"/>
<circle fill="#BC9045" cx="31.098" cy="16.1" r="0.2"/>
<ellipse fill="#BC9045" cx="34.548" cy="16.1" rx="0.15" ry="0.199"/>
<ellipse fill="#BC9045" cx="12.649" cy="16.5" rx="0.25" ry="0.199"/>
<circle fill="#BC9045" cx="22.099" cy="16.5" r="0.2"/>
<circle fill="#BC9045" cx="23.8" cy="16.5" r="0.2"/>
<circle fill="#BC9045" cx="1.1" cy="16.901" r="0.2"/>
<ellipse fill="#BC9045" cx="2.35" cy="16.901" rx="0.15" ry="0.199"/>
<ellipse fill="#BC9045" cx="5.35" cy="16.901" rx="0.15" ry="0.199"/>
<ellipse fill="#BC9045" cx="8.35" cy="16.901" rx="0.15" ry="0.199"/>
<circle fill="#BC9045" cx="10.5" cy="16.901" r="0.2"/>
<circle fill="#BC9045" cx="11.8" cy="16.901" r="0.2"/>
<circle fill="#BC9045" cx="14.4" cy="16.901" r="0.2"/>
<circle fill="#BC9045" cx="18.2" cy="16.901" r="0.2"/>
<circle fill="#BC9045" cx="19.5" cy="16.901" r="0.2"/>
<ellipse fill="#BC9045" cx="22.95" cy="16.901" rx="0.151" ry="0.199"/>
<circle fill="#BC9045" cx="33.3" cy="16.901" r="0.199"/>
<circle fill="#BC9045" cx="35.4" cy="16.901" r="0.201"/>
<ellipse fill="#BC9045" cx="3.6" cy="17.35" rx="0.2" ry="0.25"/>
<ellipse fill="#BC9045" cx="16.5" cy="17.35" rx="0.2" ry="0.25"/>
<ellipse fill="#BC9045" cx="21.199" cy="17.35" rx="0.2" ry="0.25"/>
<ellipse fill="#BC9045" cx="24.699" cy="17.35" rx="0.199" ry="0.25"/>
<ellipse fill="#BC9045" cx="26.4" cy="17.35" rx="0.201" ry="0.25"/>
<ellipse fill="#BC9045" cx="28.098" cy="17.35" rx="0.2" ry="0.25"/>
<ellipse fill="#BC9045" cx="30.3" cy="17.35" rx="0.199" ry="0.25"/>
<ellipse fill="#BC9045" cx="31.999" cy="17.35" rx="0.2" ry="0.25"/>
<circle fill="#BC9045" cx="7.1" cy="17.799" r="0.2"/>
<circle fill="#BC9045" cx="9.6" cy="17.799" r="0.2"/>
<circle fill="#BC9045" cx="11.4" cy="17.799" r="0.2"/>
<circle fill="#BC9045" cx="13.5" cy="17.799" r="0.2"/>
<circle fill="#BC9045" cx="15.7" cy="17.799" r="0.2"/>
<ellipse fill="#BC9045" cx="34.548" cy="17.799" rx="0.15" ry="0.201"/>
<circle fill="#BC9045" cx="1.1" cy="18.2" r="0.2"/>
<circle fill="#BC9045" cx="4.5" cy="18.2" r="0.2"/>
<circle fill="#BC9045" cx="5.8" cy="18.2" r="0.2"/>
<circle fill="#BC9045" cx="17.8" cy="18.2" r="0.2"/>
<circle fill="#BC9045" cx="20.8" cy="18.2" r="0.199"/>
<circle fill="#BC9045" cx="22.499" cy="18.2" r="0.2"/>
<circle fill="#BC9045" cx="26.8" cy="18.2" r="0.199"/>
<circle fill="#BC9045" cx="31.098" cy="18.2" r="0.2"/>
<ellipse fill="#BC9045" cx="2.35" cy="18.649" rx="0.15" ry="0.25"/>
<ellipse fill="#BC9045" cx="7.9" cy="18.649" rx="0.2" ry="0.25"/>
<ellipse fill="#BC9045" cx="12.2" cy="18.649" rx="0.2" ry="0.25"/>
<ellipse fill="#BC9045" cx="14.4" cy="18.649" rx="0.2" ry="0.25"/>
<ellipse fill="#BC9045" cx="19.1" cy="18.649" rx="0.2" ry="0.25"/>
<ellipse fill="#BC9045" cx="23.4" cy="18.649" rx="0.201" ry="0.25"/>
<ellipse fill="#BC9045" cx="25.098" cy="18.649" rx="0.2" ry="0.25"/>
<ellipse fill="#BC9045" cx="29.4" cy="18.649" rx="0.201" ry="0.25"/>
<ellipse fill="#BC9045" cx="33.3" cy="18.649" rx="0.199" ry="0.25"/>
<ellipse fill="#BC9045" cx="35.75" cy="18.649" rx="0.148" ry="0.25"/>
<circle fill="#BC9045" cx="10.5" cy="19.1" r="0.2"/>
<circle fill="#BC9045" cx="16.1" cy="19.1" r="0.2"/>
<circle fill="#BC9045" cx="17.8" cy="19.1" r="0.2"/>
<circle fill="#BC9045" cx="20.8" cy="19.1" r="0.199"/>
<circle fill="#BC9045" cx="27.699" cy="19.1" r="0.199"/>
<circle fill="#BC9045" cx="34.999" cy="19.1" r="0.2"/>
<circle fill="#BC9045" cx="4.1" cy="19.5" r="0.2"/>
<ellipse fill="#BC9045" cx="5.35" cy="19.5" rx="0.15" ry="0.199"/>
<circle fill="#BC9045" cx="6.6" cy="19.5" r="0.2"/>
<ellipse fill="#BC9045" cx="8.35" cy="19.5" rx="0.15" ry="0.199"/>
<circle fill="#BC9045" cx="9.2" cy="19.5" r="0.2"/>
<circle fill="#BC9045" cx="13.1" cy="19.5" r="0.2"/>
<ellipse fill="#BC9045" cx="22.95" cy="19.5" rx="0.151" ry="0.199"/>
<circle fill="#BC9045" cx="25.999" cy="19.5" r="0.2"/>
<circle fill="#BC9045" cx="32.4" cy="19.5" r="0.201"/>
<circle fill="#BC9045" cx="0.6" cy="19.901" r="0.2"/>
<circle fill="#BC9045" cx="10.5" cy="19.901" r="0.2"/>
<circle fill="#BC9045" cx="11.8" cy="19.901" r="0.2"/>
<circle fill="#BC9045" cx="14.8" cy="19.901" r="0.2"/>
<circle fill="#BC9045" cx="19.1" cy="19.901" r="0.2"/>
<circle fill="#BC9045" cx="20.8" cy="19.901" r="0.199"/>
<circle fill="#BC9045" cx="22.099" cy="19.901" r="0.2"/>
<circle fill="#BC9045" cx="24.199" cy="19.901" r="0.199"/>
<circle fill="#BC9045" cx="28.999" cy="19.901" r="0.2"/>
<circle fill="#BC9045" cx="34.098" cy="19.901" r="0.2"/>
<ellipse fill="#BC9045" cx="1.9" cy="20.35" rx="0.2" ry="0.25"/>
<ellipse fill="#BC9045" cx="7.9" cy="20.35" rx="0.2" ry="0.25"/>
<ellipse fill="#BC9045" cx="13.5" cy="20.35" rx="0.2" ry="0.25"/>
<ellipse fill="#BC9045" cx="16.1" cy="20.35" rx="0.2" ry="0.25"/>
<ellipse fill="#BC9045" cx="17.8" cy="20.35" rx="0.2" ry="0.25"/>
<ellipse fill="#BC9045" cx="13.5" cy="13.901" rx="0.2" ry="0.25"/>
<ellipse fill="#BC9045" cx="26.8" cy="20.35" rx="0.199" ry="0.25"/>
<ellipse fill="#BC9045" cx="30.3" cy="20.35" rx="0.199" ry="0.25"/>
<ellipse fill="#BC9045" cx="31.499" cy="20.35" rx="0.2" ry="0.25"/>
<circle fill="#BC9045" cx="2.8" cy="20.801" r="0.2"/>
<circle fill="#BC9045" cx="9.2" cy="20.801" r="0.2"/>
<circle fill="#BC9045" cx="25.499" cy="20.801" r="0.2"/>
<circle fill="#BC9045" cx="33.3" cy="20.801" r="0.199"/>
<circle fill="#BC9045" cx="34.999" cy="20.801" r="0.2"/>
<circle fill="#BC9045" cx="4.1" cy="21.2" r="0.2"/>
<ellipse fill="#BC9045" cx="5.35" cy="21.2" rx="0.15" ry="0.199"/>
<circle fill="#BC9045" cx="6.6" cy="21.2" r="0.2"/>
<circle fill="#BC9045" cx="10.5" cy="21.2" r="0.2"/>
<circle fill="#BC9045" cx="12.2" cy="21.2" r="0.2"/>
<circle fill="#BC9045" cx="14.4" cy="21.2" r="0.2"/>
<circle fill="#BC9045" cx="19.1" cy="21.2" r="0.2"/>
<circle fill="#BC9045" cx="20.8" cy="21.2" r="0.199"/>
<circle fill="#BC9045" cx="23.4" cy="21.2" r="0.201"/>
<circle fill="#BC9045" cx="27.699" cy="21.2" r="0.199"/>
<circle fill="#BC9045" cx="0.6" cy="21.6" r="0.2"/>
<circle fill="#BC9045" cx="7.9" cy="21.6" r="0.2"/>
<circle fill="#BC9045" cx="15.7" cy="21.6" r="0.2"/>
<circle fill="#BC9045" cx="24.699" cy="21.6" r="0.199"/>
<ellipse fill="#BC9045" cx="28.548" cy="21.6" rx="0.25" ry="0.199"/>
<circle fill="#BC9045" cx="32.4" cy="21.6" r="0.201"/>
<circle fill="#BC9045" cx="34.098" cy="21.6" r="0.2"/>
<circle fill="#BC9045" cx="1.9" cy="22.1" r="0.2"/>
<circle fill="#BC9045" cx="9.2" cy="22.1" r="0.2"/>
<circle fill="#BC9045" cx="13.1" cy="22.1" r="0.2"/>
<ellipse fill="#BC9045" cx="16.95" cy="22.1" rx="0.15" ry="0.199"/>
<circle fill="#BC9045" cx="18.2" cy="22.1" r="0.2"/>
<circle fill="#BC9045" cx="19.5" cy="22.1" r="0.2"/>
<circle fill="#BC9045" cx="22.099" cy="22.1" r="0.2"/>
<circle fill="#BC9045" cx="25.499" cy="22.1" r="0.2"/>
<circle fill="#BC9045" cx="29.8" cy="22.1" r="0.199"/>
<circle fill="#BC9045" cx="31.098" cy="22.1" r="0.2"/>
<circle fill="#BC9045" cx="33.3" cy="22.1" r="0.199"/>
<circle fill="#BC9045" cx="11.4" cy="22.5" r="0.2"/>
<circle fill="#BC9045" cx="26.8" cy="22.5" r="0.199"/>
<circle fill="#BC9045" cx="35.4" cy="22.5" r="0.201"/>
<circle fill="#BC9045" cx="1.1" cy="22.901" r="0.2"/>
<circle fill="#BC9045" cx="2.8" cy="22.901" r="0.2"/>
<circle fill="#BC9045" cx="4.1" cy="22.901" r="0.2"/>
<ellipse fill="#BC9045" cx="5.35" cy="22.901" rx="0.15" ry="0.199"/>
<circle fill="#BC9045" cx="6.6" cy="22.901" r="0.2"/>
<ellipse fill="#BC9045" cx="8.35" cy="22.901" rx="0.15" ry="0.199"/>
<circle fill="#BC9045" cx="9.6" cy="22.901" r="0.2"/>
<circle fill="#BC9045" cx="14.4" cy="22.901" r="0.2"/>
<circle fill="#BC9045" cx="21.199" cy="22.901" r="0.2"/>
<circle fill="#BC9045" cx="23.8" cy="22.901" r="0.2"/>
<ellipse fill="#BC9045" cx="28.548" cy="22.901" rx="0.25" ry="0.199"/>
<circle fill="#BC9045" cx="32.4" cy="22.901" r="0.201"/>
<ellipse fill="#BC9045" cx="11.8" cy="23.35" rx="0.2" ry="0.25"/>
<ellipse fill="#BC9045" cx="15.7" cy="23.35" rx="0.2" ry="0.25"/>
<ellipse fill="#BC9045" cx="19.95" cy="23.35" rx="0.15" ry="0.25"/>
<ellipse fill="#BC9045" cx="22.499" cy="23.35" rx="0.2" ry="0.25"/>
<ellipse fill="#BC9045" cx="29.8" cy="23.35" rx="0.199" ry="0.25"/>
<ellipse fill="#BC9045" cx="31.098" cy="23.35" rx="0.2" ry="0.25"/>
<ellipse fill="#BC9045" cx="34.098" cy="23.35" rx="0.2" ry="0.25"/>
<circle fill="#BC9045" cx="0.399" cy="24.2" r="0.2"/>
<circle fill="#BC9045" cx="1.9" cy="23.801" r="0.2"/>
<circle fill="#BC9045" cx="8.8" cy="23.801" r="0.2"/>
<circle fill="#BC9045" cx="10.5" cy="23.801" r="0.2"/>
<ellipse fill="#BC9045" cx="12.649" cy="23.801" rx="0.25" ry="0.199"/>
<ellipse fill="#BC9045" cx="16.95" cy="23.801" rx="0.15" ry="0.199"/>
<circle fill="#BC9045" cx="18.2" cy="23.801" r="0.2"/>
<circle fill="#BC9045" cx="25.499" cy="23.801" r="0.2"/>
<ellipse fill="#BC9045" cx="27.25" cy="23.801" rx="0.25" ry="0.199"/>
<ellipse fill="#BC9045" cx="35.75" cy="23.801" rx="0.148" ry="0.199"/>
<circle fill="#BC9045" cx="3.2" cy="24.2" r="0.2"/>
<circle fill="#BC9045" cx="4.5" cy="24.2" r="0.2"/>
<circle fill="#BC9045" cx="5.8" cy="24.2" r="0.2"/>
<circle fill="#BC9045" cx="7.1" cy="24.2" r="0.2"/>
<circle fill="#BC9045" cx="13.5" cy="24.2" r="0.2"/>
<circle fill="#BC9045" cx="21.699" cy="24.2" r="0.199"/>
<circle fill="#BC9045" cx="24.199" cy="24.2" r="0.199"/>
<circle fill="#BC9045" cx="33.3" cy="24.2" r="0.199"/>
<circle fill="#BC9045" cx="9.2" cy="24.6" r="0.2"/>
<circle fill="#BC9045" cx="11.4" cy="24.6" r="0.2"/>
<circle fill="#BC9045" cx="14.4" cy="24.6" r="0.2"/>
<circle fill="#BC9045" cx="20.4" cy="24.6" r="0.2"/>
<circle fill="#BC9045" cx="23.4" cy="24.6" r="0.201"/>
<circle fill="#BC9045" cx="28.999" cy="24.6" r="0.2"/>
<circle fill="#BC9045" cx="31.999" cy="24.6" r="0.2"/>
<circle fill="#BC9045" cx="1.1" cy="25.1" r="0.2"/>
<circle fill="#BC9045" cx="12.2" cy="25.1" r="0.2"/>
<circle fill="#BC9045" cx="15.2" cy="25.1" r="0.2"/>
<circle fill="#BC9045" cx="16.1" cy="25.1" r="0.2"/>
<circle fill="#BC9045" cx="17.4" cy="25.1" r="0.2"/>
<circle fill="#BC9045" cx="19.1" cy="25.1" r="0.2"/>
<circle fill="#BC9045" cx="22.499" cy="25.1" r="0.2"/>
<circle fill="#BC9045" cx="30.3" cy="25.1" r="0.199"/>
<ellipse fill="#BC9045" cx="34.548" cy="25.1" rx="0.15" ry="0.199"/>
<ellipse fill="#BC9045" cx="2.35" cy="25.5" rx="0.15" ry="0.199"/>
<circle fill="#BC9045" cx="3.6" cy="25.5" r="0.2"/>
<circle fill="#BC9045" cx="4.9" cy="25.5" r="0.2"/>
<circle fill="#BC9045" cx="6.2" cy="25.5" r="0.2"/>
<circle fill="#BC9045" cx="7.9" cy="25.5" r="0.2"/>
<circle fill="#BC9045" cx="10.1" cy="25.5" r="0.2"/>
<circle fill="#BC9045" cx="13.5" cy="25.5" r="0.2"/>
<circle fill="#BC9045" cx="21.699" cy="25.5" r="0.199"/>
<circle fill="#BC9045" cx="24.199" cy="25.5" r="0.199"/>
<circle fill="#BC9045" cx="26.8" cy="25.5" r="0.199"/>
<circle fill="#BC9045" cx="20.4" cy="25.901" r="0.2"/>
<circle fill="#BC9045" cx="28.098" cy="25.901" r="0.2"/>
<circle fill="#BC9045" cx="33.3" cy="25.901" r="0.199"/>
<circle fill="#BC9045" cx="35.4" cy="25.901" r="0.201"/>
<ellipse fill="#BC9045" cx="0.2" cy="26.35" rx="0.2" ry="0.25"/>
<ellipse fill="#BC9045" cx="7.1" cy="26.35" rx="0.2" ry="0.25"/>
<ellipse fill="#BC9045" cx="8.8" cy="26.35" rx="0.2" ry="0.25"/>
<ellipse fill="#BC9045" cx="11.4" cy="26.35" rx="0.2" ry="0.25"/>
<ellipse fill="#BC9045" cx="14.8" cy="26.35" rx="0.2" ry="0.25"/>
<ellipse fill="#BC9045" cx="16.5" cy="26.35" rx="0.2" ry="0.25"/>
<ellipse fill="#BC9045" cx="17.8" cy="26.35" rx="0.2" ry="0.25"/>
<ellipse fill="#BC9045" cx="19.1" cy="26.35" rx="0.2" ry="0.25"/>
<ellipse fill="#BC9045" cx="22.95" cy="26.35" rx="0.151" ry="0.25"/>
<ellipse fill="#BC9045" cx="25.499" cy="26.35" rx="0.2" ry="0.25"/>
<ellipse fill="#BC9045" cx="29.4" cy="26.35" rx="0.201" ry="0.25"/>
<ellipse fill="#BC9045" cx="30.699" cy="26.35" rx="0.199" ry="0.25"/>
<ellipse fill="#BC9045" cx="31.999" cy="26.35" rx="0.2" ry="0.25"/>
<circle fill="#BC9045" cx="1.5" cy="26.801" r="0.2"/>
<circle fill="#BC9045" cx="2.8" cy="26.801" r="0.2"/>
<circle fill="#BC9045" cx="4.1" cy="26.801" r="0.2"/>
<circle fill="#BC9045" cx="5.8" cy="26.801" r="0.2"/>
<ellipse fill="#BC9045" cx="12.649" cy="26.801" rx="0.25" ry="0.199"/>
<ellipse fill="#BC9045" cx="34.548" cy="26.801" rx="0.15" ry="0.199"/>
<circle fill="#BC9045" cx="7.9" cy="27.2" r="0.2"/>
<circle fill="#BC9045" cx="10.5" cy="27.2" r="0.2"/>
<ellipse fill="#BC9045" cx="13.95" cy="27.2" rx="0.25" ry="0.199"/>
<circle fill="#BC9045" cx="20.4" cy="27.2" r="0.2"/>
<circle fill="#BC9045" cx="21.699" cy="27.2" r="0.199"/>
<circle fill="#BC9045" cx="24.199" cy="27.2" r="0.199"/>
<ellipse fill="#BC9045" cx="27.25" cy="27.2" rx="0.25" ry="0.199"/>
<ellipse fill="#BC9045" cx="35.75" cy="27.2" rx="0.148" ry="0.199"/>
<circle fill="#BC9045" cx="6.6" cy="27.6" r="0.2"/>
<circle fill="#BC9045" cx="15.7" cy="27.6" r="0.2"/>
<ellipse fill="#BC9045" cx="16.95" cy="27.6" rx="0.15" ry="0.199"/>
<circle fill="#BC9045" cx="19.1" cy="27.6" r="0.2"/>
<circle fill="#BC9045" cx="28.999" cy="27.6" r="0.2"/>
<circle fill="#BC9045" cx="30.699" cy="27.6" r="0.199"/>
<circle fill="#BC9045" cx="32.8" cy="27.6" r="0.199"/>
<circle fill="#BC9045" cx="0.2" cy="28.1" r="0.2"/>
<circle fill="#BC9045" cx="1.9" cy="28.1" r="0.2"/>
<circle fill="#BC9045" cx="3.2" cy="28.1" r="0.2"/>
<circle fill="#BC9045" cx="4.9" cy="28.1" r="0.2"/>
<circle fill="#BC9045" cx="9.6" cy="28.1" r="0.2"/>
<circle fill="#BC9045" cx="11.8" cy="28.1" r="0.2"/>
<circle fill="#BC9045" cx="23.4" cy="28.1" r="0.201"/>
<circle fill="#BC9045" cx="7.5" cy="28.5" r="0.2"/>
<ellipse fill="#BC9045" cx="8.35" cy="28.5" rx="0.15" ry="0.199"/>
<circle fill="#BC9045" cx="13.1" cy="28.5" r="0.2"/>
<circle fill="#BC9045" cx="18.2" cy="28.5" r="0.2"/>
<ellipse fill="#BC9045" cx="19.95" cy="28.5" rx="0.15" ry="0.199"/>
<circle fill="#BC9045" cx="25.999" cy="28.5" r="0.2"/>
<circle fill="#BC9045" cx="31.999" cy="28.5" r="0.2"/>
<circle fill="#BC9045" cx="34.098" cy="28.5" r="0.2"/>
<circle fill="#BC9045" cx="5.8" cy="28.901" r="0.2"/>
<circle fill="#BC9045" cx="10.9" cy="28.901" r="0.2"/>
<circle fill="#BC9045" cx="15.7" cy="28.901" r="0.2"/>
<circle fill="#BC9045" cx="21.199" cy="28.901" r="0.2"/>
<circle fill="#BC9045" cx="22.499" cy="28.901" r="0.2"/>
<circle fill="#BC9045" cx="28.098" cy="28.901" r="0.2"/>
<circle fill="#BC9045" cx="30.3" cy="28.901" r="0.199"/>
<circle fill="#BC9045" cx="35.4" cy="28.901" r="0.201"/>
<ellipse fill="#BC9045" cx="2.35" cy="29.35" rx="0.15" ry="0.25"/>
<ellipse fill="#BC9045" cx="4.1" cy="29.35" rx="0.2" ry="0.25"/>
<ellipse fill="#BC9045" cx="9.2" cy="29.35" rx="0.2" ry="0.25"/>
<ellipse fill="#BC9045" cx="12.2" cy="29.35" rx="0.2" ry="0.25"/>
<ellipse fill="#BC9045" cx="16.95" cy="29.35" rx="0.15" ry="0.25"/>
<ellipse fill="#BC9045" cx="19.1" cy="29.35" rx="0.2" ry="0.25"/>
<ellipse fill="#BC9045" cx="24.699" cy="29.35" rx="0.199" ry="0.25"/>
<circle fill="#BC9045" cx="0.6" cy="29.801" r="0.2"/>
<circle fill="#BC9045" cx="6.6" cy="29.801" r="0.2"/>
<circle fill="#BC9045" cx="14.4" cy="29.801" r="0.2"/>
<ellipse fill="#BC9045" cx="27.25" cy="29.801" rx="0.25" ry="0.199"/>
<circle fill="#BC9045" cx="31.499" cy="29.801" r="0.2"/>
<circle fill="#BC9045" cx="32.8" cy="29.801" r="0.199"/>
<ellipse fill="#BC9045" cx="34.548" cy="29.801" rx="0.15" ry="0.199"/>
<ellipse fill="#BC9045" cx="35.75" cy="29.801" rx="0.148" ry="0.199"/>
<ellipse fill="#BC9045" cx="5.35" cy="30.2" rx="0.15" ry="0.199"/>
<circle fill="#BC9045" cx="7.5" cy="30.2" r="0.2"/>
<circle fill="#BC9045" cx="10.5" cy="30.2" r="0.2"/>
<circle fill="#BC9045" cx="17.8" cy="30.2" r="0.2"/>
<circle fill="#BC9045" cx="20.4" cy="30.2" r="0.2"/>
<circle fill="#BC9045" cx="23.4" cy="30.2" r="0.201"/>
<circle fill="#BC9045" cx="29.4" cy="30.2" r="0.201"/>
<circle fill="#BC9045" cx="1.9" cy="30.6" r="0.2"/>
<circle fill="#BC9045" cx="3.6" cy="30.6" r="0.2"/>
<circle fill="#BC9045" cx="8.8" cy="30.6" r="0.2"/>
<circle fill="#BC9045" cx="11.8" cy="30.6" r="0.2"/>
<circle fill="#BC9045" cx="15.7" cy="30.6" r="0.2"/>
<circle fill="#BC9045" cx="22.099" cy="30.6" r="0.2"/>
<circle fill="#BC9045" cx="25.999" cy="30.6" r="0.2"/>
<circle fill="#BC9045" cx="13.5" cy="31.1" r="0.2"/>
<circle fill="#BC9045" cx="19.1" cy="31.1" r="0.2"/>
<circle fill="#BC9045" cx="27.699" cy="31.1" r="0.199"/>
<circle fill="#BC9045" cx="30.3" cy="31.1" r="0.199"/>
<circle fill="#BC9045" cx="31.999" cy="31.1" r="0.2"/>
<circle fill="#BC9045" cx="34.098" cy="31.1" r="0.2"/>
<ellipse fill="#BC9045" cx="5.35" cy="31.5" rx="0.15" ry="0.199"/>
<circle fill="#BC9045" cx="10.1" cy="31.5" r="0.2"/>
<circle fill="#BC9045" cx="14.8" cy="31.5" r="0.2"/>
<circle fill="#BC9045" cx="16.5" cy="31.5" r="0.2"/>
<circle fill="#BC9045" cx="24.199" cy="31.5" r="0.199"/>
<circle fill="#BC9045" cx="0.2" cy="31.901" r="0.2"/>
<circle fill="#BC9045" cx="7.1" cy="31.901" r="0.2"/>
<circle fill="#BC9045" cx="11.4" cy="31.901" r="0.2"/>
<circle fill="#BC9045" cx="17.8" cy="31.901" r="0.2"/>
<circle fill="#BC9045" cx="20.8" cy="31.901" r="0.199"/>
<circle fill="#BC9045" cx="22.499" cy="31.901" r="0.2"/>
<circle fill="#BC9045" cx="25.999" cy="31.901" r="0.2"/>
<circle fill="#BC9045" cx="28.999" cy="31.901" r="0.2"/>
<circle fill="#BC9045" cx="34.999" cy="31.901" r="0.2"/>
<ellipse fill="#BC9045" cx="1.5" cy="32.35" rx="0.2" ry="0.25"/>
<ellipse fill="#BC9045" cx="3.2" cy="32.35" rx="0.2" ry="0.25"/>
<ellipse fill="#BC9045" cx="4.9" cy="32.35" rx="0.2" ry="0.25"/>
<ellipse fill="#BC9045" cx="8.35" cy="32.35" rx="0.15" ry="0.25"/>
<ellipse fill="#BC9045" cx="13.1" cy="32.35" rx="0.2" ry="0.25"/>
<ellipse fill="#BC9045" cx="18.7" cy="32.35" rx="0.2" ry="0.25"/>
<ellipse fill="#BC9045" cx="19.95" cy="32.35" rx="0.15" ry="0.25"/>
<ellipse fill="#BC9045" cx="27.699" cy="32.35" rx="0.199" ry="0.25"/>
<ellipse fill="#BC9045" cx="31.098" cy="32.35" rx="0.2" ry="0.25"/>
<ellipse fill="#BC9045" cx="32.8" cy="32.35" rx="0.199" ry="0.25"/>
<circle fill="#BC9045" cx="14.4" cy="32.801" r="0.2"/>
<circle fill="#BC9045" cx="24.199" cy="32.801" r="0.199"/>
<circle fill="#BC9045" cx="9.6" cy="33.2" r="0.2"/>
<circle fill="#BC9045" cx="11.4" cy="33.2" r="0.2"/>
<circle fill="#BC9045" cx="15.7" cy="33.2" r="0.2"/>
<ellipse fill="#BC9045" cx="16.95" cy="33.2" rx="0.15" ry="0.199"/>
<circle fill="#BC9045" cx="21.199" cy="33.2" r="0.2"/>
<circle fill="#BC9045" cx="22.499" cy="33.2" r="0.2"/>
<circle fill="#BC9045" cx="25.999" cy="33.2" r="0.2"/>
<circle fill="#BC9045" cx="29.4" cy="33.2" r="0.201"/>
<ellipse fill="#BC9045" cx="35.75" cy="33.2" rx="0.148" ry="0.199"/>
<circle fill="#BC9045" cx="0.2" cy="33.6" r="0.2"/>
<circle fill="#BC9045" cx="1.5" cy="33.6" r="0.2"/>
<circle fill="#BC9045" cx="3.2" cy="33.6" r="0.2"/>
<ellipse fill="#BC9045" cx="4.9" cy="33.95" rx="0.2" ry="0.35"/>
<circle fill="#BC9045" cx="6.6" cy="33.6" r="0.2"/>
<ellipse fill="#BC9045" cx="12.649" cy="33.6" rx="0.25" ry="0.199"/>
<circle fill="#BC9045" cx="18.2" cy="33.6" r="0.2"/>
<circle fill="#BC9045" cx="19.5" cy="33.6" r="0.2"/>
<circle fill="#BC9045" cx="27.699" cy="33.6" r="0.199"/>
<circle fill="#BC9045" cx="31.499" cy="33.6" r="0.2"/>
<circle fill="#BC9045" cx="33.3" cy="33.6" r="0.199"/>
<ellipse fill="#BC9045" cx="34.548" cy="33.6" rx="0.15" ry="0.199"/>
<ellipse fill="#BC9045" cx="8.35" cy="34.1" rx="0.15" ry="0.199"/>
<ellipse fill="#BC9045" cx="13.95" cy="34.1" rx="0.25" ry="0.199"/>
<circle fill="#BC9045" cx="24.199" cy="34.1" r="0.199"/>
<circle fill="#BC9045" cx="11.4" cy="34.5" r="0.2"/>
<circle fill="#BC9045" cx="15.7" cy="34.5" r="0.2"/>
<circle fill="#BC9045" cx="21.199" cy="34.5" r="0.2"/>
<circle fill="#BC9045" cx="22.499" cy="34.5" r="0.2"/>
<circle fill="#BC9045" cx="25.999" cy="34.5" r="0.2"/>
<circle fill="#BC9045" cx="29.4" cy="34.5" r="0.201"/>
<circle fill="#BC9045" cx="31.098" cy="34.5" r="0.2"/>
<circle fill="#BC9045" cx="1.5" cy="34.901" r="0.2"/>
<circle fill="#BC9045" cx="3.2" cy="34.901" r="0.2"/>
<circle fill="#BC9045" cx="6.6" cy="34.901" r="0.2"/>
<circle fill="#BC9045" cx="9.6" cy="34.901" r="0.2"/>
<ellipse fill="#BC9045" cx="12.649" cy="34.901" rx="0.25" ry="0.199"/>
<ellipse fill="#BC9045" cx="16.95" cy="34.901" rx="0.15" ry="0.199"/>
<circle fill="#BC9045" cx="18.7" cy="34.901" r="0.2"/>
<circle fill="#BC9045" cx="19.5" cy="34.901" r="0.2"/>
<circle fill="#BC9045" cx="23.8" cy="34.901" r="0.2"/>
<ellipse fill="#BC9045" cx="27.25" cy="34.901" rx="0.25" ry="0.199"/>
<circle fill="#BC9045" cx="33.3" cy="34.901" r="0.199"/>
<circle fill="#BC9045" cx="34.999" cy="34.901" r="0.2"/>
<ellipse fill="#BC9045" cx="0.2" cy="35.35" rx="0.2" ry="0.25"/>
<ellipse fill="#BC9045" cx="8.35" cy="35.35" rx="0.15" ry="0.25"/>
<ellipse fill="#BC9045" cx="14.4" cy="35.35" rx="0.2" ry="0.25"/>
<ellipse fill="#BC9045" cx="22.099" cy="35.35" rx="0.2" ry="0.25"/>
<circle fill="#BC9045" cx="4.9" cy="35.801" r="0.2"/>
<circle fill="#BC9045" cx="11.4" cy="35.801" r="0.2"/>
<circle fill="#BC9045" cx="13.1" cy="35.801" r="0.2"/>
<circle fill="#BC9045" cx="16.1" cy="35.801" r="0.2"/>
<circle fill="#BC9045" cx="17.4" cy="35.801" r="0.2"/>
<circle fill="#BC9045" cx="20.4" cy="35.801" r="0.2"/>
<circle fill="#BC9045" cx="25.098" cy="35.801" r="0.2"/>
<circle fill="#BC9045" cx="26.8" cy="35.801" r="0.199"/>
<circle fill="#BC9045" cx="28.999" cy="35.601" r="0.2"/>
<circle fill="#BC9045" cx="31.5" cy="35.601" r="0.199"/>
<circle fill="#BC9045" cx="32.8" cy="35.801" r="0.199"/>
<ellipse fill="#BC9045" cx="34.548" cy="35.801" rx="0.15" ry="0.199"/>
</svg>
