<?xml version="1.0" encoding="utf-8"?>
<!-- Generator: Adobe Illustrator 14.0.0, SVG Export Plug-In  -->
<!DOCTYPE svg PUBLIC "-//W3C//DTD SVG 1.1//EN" "http://www.w3.org/Graphics/SVG/1.1/DTD/svg11.dtd" [
	<!ENTITY ns_flows "http://ns.adobe.com/Flows/1.0/">
]>
<svg version="1.1"
	 xmlns="http://www.w3.org/2000/svg" xmlns:xlink="http://www.w3.org/1999/xlink" xmlns:a="http://ns.adobe.com/AdobeSVGViewerExtensions/3.0/"
	 x="0px" y="0px" width="9.625px" height="9.625px" viewBox="0 0 9.625 9.625" enable-background="new 0 0 9.625 9.625"
	 xml:space="preserve">
<defs>
</defs>
<rect fill="#FFFFFF" width="9.625" height="9.625"/>
<polygon fill="#BC9045" points="9.625,0 9.625,0.4 9.224,0 "/>
<polygon fill="#BC9045" points="0,9.225 0.403,9.625 0,9.625 "/>
<rect x="0" fill="none" width="9.625" height="9.625"/>
<polygon fill="#BC9045" points="0,6.818 2.807,9.625 2.006,9.625 0,7.619 "/>
<polygon fill="#BC9045" points="7.619,0 9.625,2.006 9.625,2.807 6.819,0 "/>
<polygon fill="#BC9045" points="4.413,0 4.813,0 5.213,0 9.625,4.412 9.625,4.813 9.625,5.213 9.225,4.813 "/>
<polygon fill="#BC9045" points="2.006,0 2.807,0 9.625,6.818 9.625,7.619 "/>
<polygon fill="#BC9045" points="0,0 0.401,0 9.625,9.225 9.625,9.625 9.225,9.625 0,0.4 "/>
<polygon fill="#BC9045" points="0,2.006 7.62,9.625 6.819,9.625 0,2.807 "/>
<polygon fill="#BC9045" points="5.215,9.625 4.813,9.625 4.413,9.625 0,5.213 0,4.813 0,4.412 "/>
</svg>
