<?xml version="1.0" encoding="utf-8"?>
<!-- Generator: Adobe Illustrator 14.0.0, SVG Export Plug-In  -->
<!DOCTYPE svg PUBLIC "-//W3C//DTD SVG 1.1//EN" "http://www.w3.org/Graphics/SVG/1.1/DTD/svg11.dtd" [
	<!ENTITY ns_flows "http://ns.adobe.com/Flows/1.0/">
]>
<svg version="1.1"
	 xmlns="http://www.w3.org/2000/svg" xmlns:xlink="http://www.w3.org/1999/xlink" xmlns:a="http://ns.adobe.com/AdobeSVGViewerExtensions/3.0/"
	 x="0px" y="0px" width="12.686px" height="12.099px" viewBox="0 0 12.686 12.099" enable-background="new 0 0 12.686 12.099"
	 xml:space="preserve">
<defs>
</defs>
<rect fill="none" width="12.686" height="12.099"/>
<path fill="#2BACE2" d="M6.218,10.078c-0.878,0-1.908,0.701-2.999,1.444c-0.281,0.191-0.571,0.388-0.864,0.576h1.529
	c0.877-0.596,1.76-1.171,2.334-1.171c0.549,0,1.463,0.569,2.384,1.171h1.563c-0.283-0.178-0.564-0.362-0.838-0.541
	C8.117,10.764,7.071,10.078,6.218,10.078z"/>
<path fill="#2BACE2" d="M3.884,0.005H2.355C1.562,0.516,0.77,0.952,0.097,0.992H0v0.853c1.191,0,2.465-0.867,3.697-1.707
	C3.765,0.092,3.817,0.051,3.884,0.005z"/>
<rect opacity="0.57" fill="none" width="12.686" height="12.099"/>
<path fill="#2BACE2" d="M6.218,8.063c-0.878,0-1.908,0.701-2.999,1.444c-1.036,0.706-2.206,1.503-3.122,1.558H0v0.853
	c1.191,0,2.465-0.867,3.697-1.707c0.937-0.638,1.905-1.298,2.521-1.298c0.6,0,1.639,0.682,2.644,1.341
	c1.311,0.86,2.666,1.664,3.824,1.664v-0.853c-0.903,0-2.208-0.768-3.358-1.522C8.117,8.749,7.071,8.063,6.218,8.063z"/>
<path fill="#2BACE2" d="M6.218,6.049c-0.878,0-1.908,0.701-2.999,1.444C2.183,8.199,1.013,8.996,0.097,9.051H0v0.853
	c1.191,0,2.465-0.867,3.697-1.707c0.937-0.638,1.905-1.298,2.521-1.298c0.6,0,1.639,0.682,2.644,1.341
	c1.311,0.86,2.666,1.664,3.824,1.664V9.051c-0.903,0-2.208-0.768-3.358-1.522C8.117,6.734,7.071,6.049,6.218,6.049z"/>
<path fill="#2BACE2" d="M6.218,4.034c-0.878,0-1.908,0.701-2.999,1.444C2.183,6.185,1.013,6.981,0.097,7.036H0v0.853
	c1.191,0,2.465-0.867,3.697-1.707c0.937-0.638,1.905-1.298,2.521-1.298c0.6,0,1.639,0.682,2.644,1.341
	c1.311,0.86,2.666,1.664,3.824,1.664V7.036c-0.903,0-2.208-0.768-3.358-1.522C8.117,4.72,7.071,4.034,6.218,4.034z"/>
<path fill="#2BACE2" d="M6.218,2.02c-0.878,0-1.908,0.701-2.999,1.444C2.183,4.17,1.013,4.967,0.097,5.021H0v0.853
	c1.191,0,2.465-0.867,3.697-1.707c0.937-0.638,1.905-1.298,2.521-1.298c0.6,0,1.639,0.682,2.644,1.341
	c1.311,0.86,2.666,1.664,3.824,1.664V5.021c-0.903,0-2.208-0.768-3.358-1.522C8.117,2.705,7.071,2.02,6.218,2.02z"/>
<path fill="#2BACE2" d="M6.218,0.005c-0.878,0-1.908,0.701-2.999,1.444C2.183,2.155,1.013,2.952,0.097,3.007H0v0.853
	c1.191,0,2.465-0.867,3.697-1.707c0.937-0.638,1.905-1.298,2.521-1.298c0.6,0,1.639,0.682,2.644,1.341
	c1.311,0.86,2.666,1.664,3.824,1.664V3.007c-0.903,0-2.208-0.768-3.358-1.522C8.117,0.69,7.071,0.005,6.218,0.005z"/>
<path fill="#2BACE2" d="M10.165,0H8.602c0.093,0.061,0.168,0.12,0.26,0.181c1.311,0.86,2.666,1.664,3.824,1.664V0.992
	C11.991,0.992,11.08,0.575,10.165,0z"/>
</svg>
