<?xml version="1.0" encoding="utf-8"?>
<!-- Generator: Adobe Illustrator 14.0.0, SVG Export Plug-In  -->
<!DOCTYPE svg PUBLIC "-//W3C//DTD SVG 1.1//EN" "http://www.w3.org/Graphics/SVG/1.1/DTD/svg11.dtd" [
	<!ENTITY ns_flows "http://ns.adobe.com/Flows/1.0/">
]>
<svg version="1.1"
	 xmlns="http://www.w3.org/2000/svg" xmlns:xlink="http://www.w3.org/1999/xlink" xmlns:a="http://ns.adobe.com/AdobeSVGViewerExtensions/3.0/"
	 x="0px" y="0px" width="20.318px" height="20.32px" viewBox="0 0 20.318 20.32" enable-background="new 0 0 20.318 20.32"
	 xml:space="preserve">
<defs>
</defs>
<rect fill="none" width="20.318" height="20.32"/>
<polyline fill="#00AEEF" points="16.026,0 16.026,0.08 15.724,0.08 15.704,0 16.026,0 "/>
<polyline fill="#00AEEF" points="17.39,14.76 17.238,14.91 17.238,15.213 17.541,15.213 17.39,14.76 "/>
<polyline fill="#00AEEF" points="15.951,1.096 15.799,1.246 15.799,1.549 16.103,1.549 15.951,1.096 "/>
<polyline fill="#00AEEF" points="15.345,0.68 15.345,0.867 15.231,0.867 15.193,1.02 15.383,1.02 15.421,1.17 15.724,1.17 
	15.724,0.68 15.345,0.68 "/>
<polyline fill="#00AEEF" points="18.676,0 18.676,0.414 18.373,0.414 18.335,0.262 18.146,0.262 18.185,0.111 18.298,0.111 
	18.298,0 18.676,0 "/>
<polyline fill="#00AEEF" points="19.66,0.68 19.509,0.83 19.509,1.133 19.812,1.133 19.66,0.68 "/>
<polyline fill="#00AEEF" points="15.913,15.063 15.761,15.213 15.761,15.518 16.064,15.518 15.913,15.063 "/>
<polyline fill="#00AEEF" points="18.601,1.549 18.601,1.738 19.018,1.738 19.056,1.928 18.639,1.928 18.601,2.154 19.206,2.154 
	19.206,1.549 18.601,1.549 "/>
<polyline fill="#00AEEF" points="15.647,14.078 15.497,14.23 15.497,14.533 15.799,14.533 15.647,14.078 "/>
<polyline fill="#00AEEF" points="18.223,2.533 18.069,2.686 18.069,2.988 18.373,2.988 18.223,2.533 "/>
<polyline fill="#00AEEF" points="16.064,11.012 16.064,11.201 15.951,11.201 15.913,11.354 16.103,11.354 16.14,11.504 
	16.443,11.504 16.443,11.012 16.064,11.012 "/>
<polyline fill="#00AEEF" points="15.383,10.559 15.383,10.746 15.269,10.746 15.231,10.898 15.421,10.898 15.459,11.051 
	15.761,11.051 15.761,10.559 15.383,10.559 "/>
<polyline fill="#00AEEF" points="16.178,14.533 16.026,14.684 16.026,14.986 16.329,14.986 16.178,14.533 "/>
<polyline fill="#00AEEF" points="15.459,14.684 15.307,14.834 15.307,15.139 15.61,15.139 15.459,14.684 "/>
<polyline fill="#00AEEF" points="16.481,9.422 16.481,9.611 16.367,9.611 16.329,9.764 16.519,9.764 16.557,9.914 16.859,9.914 
	16.859,9.422 16.481,9.422 "/>
<rect x="16.67" y="7.719" fill="#00AEEF" width="0.454" height="0.379"/>
<polyline fill="#00AEEF" points="17.313,6.811 17.313,7 17.2,7 17.162,7.15 17.352,7.15 17.39,7.303 17.692,7.303 17.692,6.811 
	17.313,6.811 "/>
<rect x="16.897" y="8.855" fill="#00AEEF" width="0.454" height="0.377"/>
<polyline fill="#00AEEF" points="17.995,6.281 17.843,6.432 17.843,6.734 18.146,6.734 17.995,6.281 "/>
<polyline fill="#00AEEF" points="16.936,13.813 16.783,13.965 16.783,14.268 17.086,14.268 16.936,13.813 "/>
<rect x="17.616" y="8.211" fill="#00AEEF" width="0.453" height="0.379"/>
<polyline fill="#00AEEF" points="17.919,6.887 17.919,7.076 18.335,7.076 18.373,7.266 17.957,7.266 17.919,7.492 18.524,7.492 
	18.524,6.887 17.919,6.887 "/>
<polyline fill="#00AEEF" points="17.843,8.74 17.843,8.93 17.73,8.93 17.692,9.082 17.881,9.082 17.919,9.232 18.223,9.232 
	18.223,8.74 17.843,8.74 "/>
<polyline fill="#00AEEF" points="19.925,4.576 19.925,4.768 19.812,4.768 19.773,4.918 19.963,4.918 20.001,5.07 20.304,5.07 
	20.304,4.576 19.925,4.576 "/>
<polyline fill="#00AEEF" points="18.26,7.756 18.26,7.945 18.676,7.945 18.714,8.137 18.298,8.137 18.26,8.363 18.865,8.363 
	18.865,7.756 18.26,7.756 "/>
<polyline fill="#00AEEF" points="17.465,12.754 17.465,12.943 17.352,12.943 17.313,13.094 17.503,13.094 17.541,13.246 
	17.843,13.246 17.843,12.754 17.465,12.754 "/>
<polyline fill="#00AEEF" points="16.783,19.605 16.783,19.793 16.67,19.793 16.632,19.945 16.82,19.945 16.859,20.098 
	17.162,20.098 17.162,19.605 16.783,19.605 "/>
<polyline fill="#00AEEF" points="17.39,18.998 17.238,19.15 17.238,19.453 17.541,19.453 17.39,18.998 "/>
<rect x="17.957" y="12.98" fill="#00AEEF" width="0.454" height="0.379"/>
<polyline fill="#00AEEF" points="17.769,14.607 17.769,14.797 17.653,14.797 17.616,14.949 17.806,14.949 17.843,15.1 18.146,15.1 
	18.146,14.607 17.769,14.607 "/>
<polyline fill="#00AEEF" points="18.639,11.959 18.639,12.148 18.524,12.148 18.486,12.299 18.676,12.299 18.714,12.451 
	19.018,12.451 19.018,11.959 18.639,11.959 "/>
<polyline fill="#00AEEF" points="18.335,13.586 18.335,13.775 18.223,13.775 18.185,13.928 18.373,13.928 18.411,14.078 
	18.714,14.078 18.714,13.586 18.335,13.586 "/>
<polyline fill="#00AEEF" points="17.578,18.582 17.578,18.771 17.995,18.771 18.033,18.961 17.616,18.961 17.578,19.188 
	18.185,19.188 18.185,18.582 17.578,18.582 "/>
<rect x="18.979" y="12.754" fill="#00AEEF" width="0.454" height="0.377"/>
<polyline fill="#00AEEF" points="19.735,12.602 19.735,12.791 19.622,12.791 19.585,12.943 19.773,12.943 19.812,13.094 
	20.114,13.094 20.114,12.602 19.735,12.602 "/>
<polyline fill="#00AEEF" points="18.335,17.447 18.335,17.637 18.752,17.637 18.79,17.826 18.373,17.826 18.335,18.053 
	18.94,18.053 18.94,17.447 18.335,17.447 "/>
<rect x="18.298" y="20.24" fill="#00AEEF" width="0.378" height="0.08"/>
<polyline fill="#00AEEF" points="19.018,18.203 19.018,18.393 19.433,18.393 19.472,18.582 19.056,18.582 19.018,18.811 
	19.622,18.811 19.622,18.203 19.018,18.203 "/>
<polyline fill="#00AEEF" points="19.66,19.719 19.509,19.869 19.509,20.172 19.812,20.172 19.66,19.719 "/>
<polyline fill="#00AEEF" points="15.704,20.32 15.686,20.248 15.497,20.248 15.534,20.098 15.647,20.098 15.647,19.908 
	16.026,19.908 16.026,20.32 15.704,20.32 "/>
<polyline fill="#00AEEF" points="19.168,0.111 19.168,0.301 19.056,0.301 19.018,0.451 19.206,0.451 19.244,0.604 19.547,0.604 
	19.547,0.111 19.168,0.111 "/>
<rect x="0.545" y="15.592" fill="#00AEEF" width="0.454" height="0.379"/>
<rect x="5.313" y="14.797" fill="#00AEEF" width="0.455" height="0.379"/>
<polyline fill="#00AEEF" points="5.391,4.313 5.239,4.463 5.239,4.768 5.541,4.768 5.391,4.313 "/>
<polyline fill="#00AEEF" points="5.882,1.283 5.731,1.436 5.731,1.738 6.033,1.738 5.882,1.283 "/>
<rect x="1.566" y="1.17" fill="#00AEEF" width="0.455" height="0.379"/>
<rect x="2.021" y="0.641" fill="#00AEEF" width="0.454" height="0.379"/>
<polyline fill="#00AEEF" points="0.355,9.119 0.355,9.309 0.242,9.309 0.204,9.459 0.395,9.459 0.431,9.611 0.734,9.611 
	0.734,9.119 0.355,9.119 "/>
<rect x="6.45" y="13.586" fill="#00AEEF" width="0.454" height="0.379"/>
<polyline fill="#00AEEF" points="5.958,14.457 5.958,14.646 6.374,14.646 6.412,14.834 5.996,14.834 5.958,15.063 6.563,15.063 
	6.563,14.457 5.958,14.457 "/>
<polyline fill="#00AEEF" points="3.535,10.746 3.535,10.938 3.422,10.938 3.384,11.088 3.573,11.088 3.61,11.238 3.914,11.238 
	3.914,10.746 3.535,10.746 "/>
<rect x="0.507" y="7.945" fill="#00AEEF" width="0.454" height="0.379"/>
<polyline fill="#00AEEF" points="4.405,9.838 4.405,10.027 4.292,10.027 4.254,10.18 4.444,10.18 4.481,10.33 4.784,10.33 
	4.784,9.838 4.405,9.838 "/>
<polyline fill="#00AEEF" points="5.731,10.406 5.579,10.559 5.579,10.861 5.882,10.861 5.731,10.406 "/>
<rect x="8.38" y="17.6" fill="#00AEEF" width="0.455" height="0.377"/>
<rect x="7.396" y="18.621" fill="#00AEEF" width="0.454" height="0.377"/>
<rect x="8.267" y="19.793" fill="#00AEEF" width="0.454" height="0.379"/>
<polyline fill="#00AEEF" points="6.261,11.58 6.261,11.77 6.677,11.77 6.715,11.959 6.298,11.959 6.261,12.186 6.866,12.186 
	6.866,11.58 6.261,11.58 "/>
<polyline fill="#00AEEF" points="7.888,18.922 7.888,19.113 8.306,19.113 8.342,19.303 7.926,19.303 7.888,19.529 8.494,19.529 
	8.494,18.922 7.888,18.922 "/>
<polyline fill="#00AEEF" points="5.313,10.975 5.313,11.164 5.731,11.164 5.769,11.354 5.352,11.354 5.313,11.58 5.92,11.58 
	5.92,10.975 5.313,10.975 "/>
<polyline fill="#00AEEF" points="1.453,0.188 1.453,0.375 1.34,0.375 1.302,0.527 1.491,0.527 1.529,0.68 1.832,0.68 1.832,0.188 
	1.453,0.188 "/>
<polyline fill="#00AEEF" points="4.254,10.445 4.104,10.596 4.104,10.898 4.405,10.898 4.254,10.445 "/>
<rect x="1.529" y="8.553" fill="#00AEEF" width="0.453" height="0.377"/>
<rect x="5.428" y="4.879" fill="#00AEEF" width="0.454" height="0.381"/>
<polyline fill="#00AEEF" points="5.845,4.275 5.692,4.426 5.692,4.729 5.996,4.729 5.845,4.275 "/>
<rect x="1.644" y="6.887" fill="#00AEEF" width="0.454" height="0.379"/>
<rect x="2.551" y="5.826" fill="#00AEEF" width="0.454" height="0.379"/>
<rect x="3.763" y="4.691" fill="#00AEEF" width="0.454" height="0.379"/>
<polyline fill="#00AEEF" points="5.504,3.102 5.352,3.252 5.352,3.555 5.655,3.555 5.504,3.102 "/>
<rect x="2.967" y="5.26" fill="#00AEEF" width="0.455" height="0.377"/>
<rect x="5.617" y="2.686" fill="#00AEEF" width="0.453" height="0.377"/>
<rect x="4.595" y="3.555" fill="#00AEEF" width="0.454" height="0.379"/>
<polyline fill="#00AEEF" points="3.194,4.576 3.194,4.768 3.081,4.768 3.043,4.918 3.231,4.918 3.271,5.07 3.573,5.07 3.573,4.576 
	3.194,4.576 "/>
<polyline fill="#00AEEF" points="5.313,2.381 5.163,2.533 5.163,2.836 5.466,2.836 5.313,2.381 "/>
<rect x="5.731" y="0.83" fill="#00AEEF" width="0.454" height="0.379"/>
<polyline fill="#00AEEF" points="0.166,2.686 0.166,2.873 0.054,2.873 0.016,3.025 0.204,3.025 0.242,3.178 0.545,3.178 
	0.545,2.686 0.166,2.686 "/>
<polyline fill="#00AEEF" points="0.923,1.928 0.923,2.117 0.811,2.117 0.772,2.268 0.961,2.268 0.999,2.42 1.302,2.42 1.302,1.928 
	0.923,1.928 "/>
<rect x="2.135" y="0.111" fill="#00AEEF" width="0.454" height="0.377"/>
<rect x="0.621" y="1.398" fill="#00AEEF" width="0.454" height="0.377"/>
<polyline fill="#00AEEF" points="1.491,16.5 1.491,16.689 1.378,16.689 1.34,16.842 1.529,16.842 1.566,16.992 1.87,16.992 
	1.87,16.5 1.491,16.5 "/>
<rect x="0.772" y="16.35" fill="#00AEEF" width="0.453" height="0.379"/>
<polyline fill="#00AEEF" points="6.563,9.65 6.412,9.801 6.412,10.104 6.715,10.104 6.563,9.65 "/>
<polyline fill="#00AEEF" points="6.753,9.119 6.601,9.271 6.601,9.574 6.904,9.574 6.753,9.119 "/>
<rect x="6.45" y="0.262" fill="#00AEEF" width="0.454" height="0.379"/>
<rect x="6.261" y="1.662" fill="#00AEEF" width="0.454" height="0.379"/>
<rect x="7.888" y="6.471" fill="#00AEEF" width="0.454" height="0.379"/>
<polyline fill="#00AEEF" points="7.319,6.508 7.319,6.697 7.207,6.697 7.169,6.85 7.357,6.85 7.396,7 7.699,7 7.699,6.508 
	7.319,6.508 "/>
<polyline fill="#00AEEF" points="7.813,7.037 7.813,7.227 7.699,7.227 7.661,7.379 7.851,7.379 7.888,7.529 8.191,7.529 
	8.191,7.037 7.813,7.037 "/>
<rect x="7.131" y="7.227" fill="#00AEEF" width="0.454" height="0.379"/>
<rect x="7.473" y="8.477" fill="#00AEEF" width="0.453" height="0.379"/>
<rect x="6.639" y="8.021" fill="#00AEEF" width="0.454" height="0.379"/>
<rect x="1.908" y="6.357" fill="#00AEEF" width="0.454" height="0.377"/>
<rect x="6.866" y="9.611" fill="#00AEEF" width="0.453" height="0.379"/>
<polyline fill="#00AEEF" points="2.476,7.227 2.476,7.416 2.362,7.416 2.324,7.568 2.513,7.568 2.551,7.719 2.854,7.719 
	2.854,7.227 2.476,7.227 "/>
<rect x="1.604" y="7.453" fill="#00AEEF" width="0.454" height="0.379"/>
<polyline fill="#00AEEF" points="1.037,7.379 1.037,7.568 0.923,7.568 0.886,7.719 1.075,7.719 1.112,7.871 1.416,7.871 
	1.416,7.379 1.037,7.379 "/>
<polyline fill="#00AEEF" points="2.173,7.984 2.173,8.172 2.059,8.172 2.021,8.324 2.21,8.324 2.248,8.477 2.551,8.477 2.551,7.984 
	2.173,7.984 "/>
<polyline fill="#00AEEF" points="6.033,10.482 6.033,10.672 5.92,10.672 5.882,10.822 6.07,10.822 6.109,10.975 6.412,10.975 
	6.412,10.482 6.033,10.482 "/>
<polyline fill="#00AEEF" points="14.814,0 14.814,0.08 14.512,0.08 14.492,0 14.814,0 "/>
<polyline fill="#00AEEF" points="14.739,11.164 14.739,11.354 14.626,11.354 14.588,11.504 14.777,11.504 14.814,11.656 
	15.118,11.656 15.118,11.164 14.739,11.164 "/>
<polyline fill="#00AEEF" points="14.512,15.326 14.512,15.518 14.929,15.518 14.967,15.705 14.55,15.705 14.512,15.934 
	15.118,15.934 15.118,15.326 14.512,15.326 "/>
<polyline fill="#00AEEF" points="13.831,8.59 13.681,8.74 13.681,9.043 13.981,9.043 13.831,8.59 "/>
<polyline fill="#00AEEF" points="14.492,20.32 14.476,20.248 14.285,20.248 14.323,20.098 14.437,20.098 14.437,19.908 
	14.814,19.908 14.814,20.32 14.492,20.32 "/>
<polyline fill="#00AEEF" points="13.565,7.342 13.415,7.492 13.415,7.795 13.717,7.795 13.565,7.342 "/>
<polyline fill="#00AEEF" points="12.658,7.643 12.658,7.832 13.074,7.832 13.111,8.021 12.694,8.021 12.658,8.248 13.264,8.248 
	13.264,7.643 12.658,7.643 "/>
<rect x="12.544" y="15.139" fill="#00AEEF" width="0.454" height="0.379"/>
<polyline fill="#00AEEF" points="12.544,15.82 12.544,16.01 12.431,16.01 12.394,16.16 12.582,16.16 12.62,16.313 12.923,16.313 
	12.923,15.82 12.544,15.82 "/>
<polyline fill="#00AEEF" points="11.068,11.354 11.068,11.541 10.954,11.541 10.916,11.693 11.106,11.693 11.144,11.846 
	11.445,11.846 11.445,11.354 11.068,11.354 "/>
<polyline fill="#00AEEF" points="12.394,17.6 12.394,17.787 12.278,17.787 12.241,17.939 12.431,17.939 12.468,18.092 
	12.771,18.092 12.771,17.6 12.394,17.6 "/>
<rect x="12.052" y="16.652" fill="#00AEEF" width="0.454" height="0.379"/>
<polyline fill="#00AEEF" points="11.03,11.846 10.879,11.996 10.879,12.299 11.182,12.299 11.03,11.846 "/>
<polyline fill="#00AEEF" points="11.636,14.949 11.636,15.139 11.522,15.139 11.484,15.289 11.673,15.289 11.711,15.441 
	12.015,15.441 12.015,14.949 11.636,14.949 "/>
<rect x="11.408" y="16.729" fill="#00AEEF" width="0.455" height="0.379"/>
<polyline fill="#00AEEF" points="10.803,15.592 10.803,15.781 10.689,15.781 10.651,15.934 10.841,15.934 10.879,16.084 
	11.182,16.084 11.182,15.592 10.803,15.592 "/>
<polyline fill="#00AEEF" points="20.318,18.922 20.182,18.922 20.22,18.771 20.318,18.771 20.318,18.922 "/>
<polyline fill="#00AEEF" points="20.114,19.756 19.963,19.908 19.963,20.209 20.266,20.209 20.114,19.756 "/>
<rect x="2.892" y="11.959" fill="#00AEEF" width="0.454" height="0.377"/>
<polyline fill="#00AEEF" points="5.163,15.252 5.011,15.402 5.011,15.705 5.313,15.705 5.163,15.252 "/>
<polyline fill="#00AEEF" points="7.093,19.566 6.941,19.719 6.941,20.021 7.245,20.021 7.093,19.566 "/>
<polyline fill="#00AEEF" points="5.428,16.689 5.276,16.842 5.276,17.145 5.579,17.145 5.428,16.689 "/>
<rect x="1.982" y="12.375" fill="#00AEEF" width="0.456" height="0.379"/>
<rect x="4.368" y="15.668" fill="#00AEEF" width="0.454" height="0.379"/>
<polyline fill="#00AEEF" points="5.049,17.145 4.898,17.295 4.898,17.6 5.201,17.6 5.049,17.145 "/>
<rect x="1.264" y="12.564" fill="#00AEEF" width="0.454" height="0.379"/>
<polyline fill="#00AEEF" points="0.849,11.959 0.849,12.148 0.734,12.148 0.696,12.299 0.886,12.299 0.923,12.451 1.226,12.451 
	1.226,11.959 0.849,11.959 "/>
<rect x="2.513" y="14.115" fill="#00AEEF" width="0.454" height="0.379"/>
<polyline fill="#00AEEF" points="4.859,17.787 4.859,17.977 4.747,17.977 4.709,18.129 4.898,18.129 4.937,18.279 5.239,18.279 
	5.239,17.787 4.859,17.787 "/>
<rect x="1.112" y="13.207" fill="#00AEEF" width="0.454" height="0.379"/>
<polyline fill="#00AEEF" points="4.217,17.371 4.217,17.561 4.104,17.561 4.064,17.711 4.254,17.711 4.292,17.863 4.595,17.863 
	4.595,17.371 4.217,17.371 "/>
<rect x="1.832" y="14.533" fill="#00AEEF" width="0.454" height="0.377"/>
<rect x="0.431" y="13.586" fill="#00AEEF" width="0.455" height="0.379"/>
<polyline fill="#00AEEF" points="1.491,14.684 1.34,14.834 1.34,15.139 1.644,15.139 1.491,14.684 "/>
<rect x="3.573" y="18.355" fill="#00AEEF" width="0.454" height="0.379"/>
<polyline fill="#00AEEF" points="0.923,14.949 0.772,15.1 0.772,15.402 1.075,15.402 0.923,14.949 "/>
<rect x="3.573" y="18.961" fill="#00AEEF" width="0.454" height="0.379"/>
<polyline fill="#00AEEF" points="0.999,19.68 0.999,19.869 0.886,19.869 0.849,20.021 1.037,20.021 1.075,20.172 1.378,20.172 
	1.378,19.68 0.999,19.68 "/>
<polyline fill="#00AEEF" points="0,18.771 0.016,18.771 0.016,18.582 0.395,18.582 0.395,19.074 0.091,19.074 0.054,18.922 
	0,18.922 0,18.771 "/>
<polyline fill="#00AEEF" points="0.317,19.566 0.317,19.756 0.204,19.756 0.166,19.908 0.355,19.908 0.395,20.059 0.696,20.059 
	0.696,19.566 0.317,19.566 "/>
<polyline fill="#00AEEF" points="9.705,12.641 9.705,12.828 9.592,12.828 9.555,12.98 9.743,12.98 9.78,13.131 10.084,13.131 
	10.084,12.641 9.705,12.641 "/>
<polyline fill="#00AEEF" points="9.062,17.787 8.91,17.939 8.91,18.242 9.213,18.242 9.062,17.787 "/>
<polyline fill="#00AEEF" points="10.689,11.125 10.538,11.277 10.538,11.58 10.841,11.58 10.689,11.125 "/>
<polyline fill="#00AEEF" points="10.272,11.732 10.272,11.92 10.159,11.92 10.122,12.072 10.311,12.072 10.349,12.225 
	10.651,12.225 10.651,11.732 10.272,11.732 "/>
<polyline fill="#00AEEF" points="11.561,9.688 11.561,9.877 11.445,9.877 11.408,10.027 11.598,10.027 11.636,10.18 11.938,10.18 
	11.938,9.688 11.561,9.688 "/>
<polyline fill="#00AEEF" points="11.144,8.969 11.144,9.158 11.03,9.158 10.992,9.309 11.182,9.309 11.219,9.459 11.522,9.459 
	11.522,8.969 11.144,8.969 "/>
<rect x="11.863" y="0.68" fill="#00AEEF" width="0.454" height="0.377"/>
<rect x="11.182" y="0.68" fill="#00AEEF" width="0.454" height="0.377"/>
<polyline fill="#00AEEF" points="15.118,1.586 15.118,1.775 15.004,1.775 14.967,1.928 15.156,1.928 15.193,2.078 15.497,2.078 
	15.497,1.586 15.118,1.586 "/>
<polyline fill="#00AEEF" points="14.398,1.852 14.398,2.041 14.285,2.041 14.247,2.193 14.437,2.193 14.476,2.344 14.777,2.344 
	14.777,1.852 14.398,1.852 "/>
<rect x="11.673" y="1.322" fill="#00AEEF" width="0.455" height="0.379"/>
<polyline fill="#00AEEF" points="14.21,2.797 14.058,2.949 14.058,3.252 14.36,3.252 14.21,2.797 "/>
<polyline fill="#00AEEF" points="14.702,3.252 14.55,3.404 14.55,3.707 14.853,3.707 14.702,3.252 "/>
<polyline fill="#00AEEF" points="14.476,3.82 14.476,4.01 14.891,4.01 14.929,4.199 14.512,4.199 14.476,4.426 15.08,4.426 
	15.08,3.82 14.476,3.82 "/>
<rect x="11.863" y="2.686" fill="#00AEEF" width="0.454" height="0.377"/>
<polyline fill="#00AEEF" points="14.626,5.145 14.476,5.297 14.476,5.6 14.777,5.6 14.626,5.145 "/>
<polyline fill="#00AEEF" points="11.257,3.063 11.257,3.252 11.144,3.252 11.106,3.404 11.295,3.404 11.333,3.555 11.636,3.555 
	11.636,3.063 11.257,3.063 "/>
<polyline fill="#00AEEF" points="13.681,4.768 13.681,4.955 14.097,4.955 14.134,5.145 13.717,5.145 13.681,5.371 14.285,5.371 
	14.285,4.768 13.681,4.768 "/>
<polyline fill="#00AEEF" points="9.819,4.955 9.819,5.145 10.235,5.145 10.272,5.334 9.856,5.334 9.819,5.563 10.424,5.563 
	10.424,4.955 9.819,4.955 "/>
<rect x="9.101" y="5.334" fill="#00AEEF" width="0.454" height="0.379"/>
<polyline fill="#00AEEF" points="10.122,5.789 10.122,5.979 10.538,5.979 10.576,6.166 10.159,6.166 10.122,6.395 10.728,6.395 
	10.728,5.789 10.122,5.789 "/>
<polyline fill="#00AEEF" points="8.532,5.41 8.532,5.6 8.418,5.6 8.38,5.75 8.569,5.75 8.606,5.902 8.91,5.902 8.91,5.41 
	8.532,5.41 "/>
<polyline fill="#00AEEF" points="11.257,7.605 11.257,7.795 11.673,7.795 11.711,7.984 11.295,7.984 11.257,8.211 11.863,8.211 
	11.863,7.605 11.257,7.605 "/>
<rect x="8.948" y="6.092" fill="#00AEEF" width="0.454" height="0.379"/>
<polyline fill="#00AEEF" points="12.355,9.006 12.355,9.195 12.241,9.195 12.203,9.348 12.394,9.348 12.431,9.498 12.732,9.498 
	12.732,9.006 12.355,9.006 "/>
<polyline fill="#00AEEF" points="12.317,9.688 12.317,9.877 12.732,9.877 12.771,10.066 12.355,10.066 12.317,10.293 12.923,10.293 
	12.923,9.688 12.317,9.688 "/>
<polyline fill="#00AEEF" points="11.371,10.635 11.371,10.822 11.257,10.822 11.219,10.975 11.408,10.975 11.445,11.125 
	11.749,11.125 11.749,10.635 11.371,10.635 "/>
<polyline fill="#00AEEF" points="9.592,10.746 9.592,10.938 9.479,10.938 9.439,11.088 9.629,11.088 9.667,11.238 9.97,11.238 
	9.97,10.746 9.592,10.746 "/>
<rect x="14.097" y="5.713" fill="#00AEEF" width="0.453" height="0.379"/>
<polyline fill="#00AEEF" points="13.301,6.621 13.301,6.811 13.717,6.811 13.755,7 13.339,7 13.301,7.227 13.907,7.227 
	13.907,6.621 13.301,6.621 "/>
<polyline fill="#00AEEF" points="14.967,5.41 14.967,5.6 15.383,5.6 15.421,5.789 15.004,5.789 14.967,6.016 15.572,6.016 
	15.572,5.41 14.967,5.41 "/>
<polyline fill="#00AEEF" points="14.247,6.471 14.097,6.621 14.097,6.924 14.398,6.924 14.247,6.471 "/>
<rect x="14.512" y="6.281" fill="#00AEEF" width="0.455" height="0.377"/>
<polyline fill="#00AEEF" points="11.561,2.381 11.408,2.533 11.408,2.836 11.711,2.836 11.561,2.381 "/>
<polyline fill="#00AEEF" points="10.992,3.594 10.841,3.744 10.841,4.047 11.144,4.047 10.992,3.594 "/>
<polyline fill="#00AEEF" points="11.333,1.359 11.182,1.512 11.182,1.814 11.484,1.814 11.333,1.359 "/>
</svg>
