<?xml version="1.0" encoding="utf-8"?>
<!-- Generator: Adobe Illustrator 14.0.0, SVG Export Plug-In  -->
<!DOCTYPE svg PUBLIC "-//W3C//DTD SVG 1.1//EN" "http://www.w3.org/Graphics/SVG/1.1/DTD/svg11.dtd" [
	<!ENTITY ns_flows "http://ns.adobe.com/Flows/1.0/">
]>
<svg version="1.1"
	 xmlns="http://www.w3.org/2000/svg" xmlns:xlink="http://www.w3.org/1999/xlink" xmlns:a="http://ns.adobe.com/AdobeSVGViewerExtensions/3.0/"
	 x="0px" y="0px" width="20.319px" height="20.319px" viewBox="0 0 20.319 20.319" enable-background="new 0 0 20.319 20.319"
	 xml:space="preserve">
<defs>
</defs>
<rect fill="none" width="20.319" height="20.319"/>
<polyline fill="#00AEEF" points="19.585,7.643 20.039,7.681 20.151,8.324 19.698,8.21 19.585,7.643 "/>
<polyline fill="#00AEEF" points="18.87,7.378 19.324,7.415 19.438,8.06 18.983,7.945 18.87,7.378 "/>
<polyline fill="#00AEEF" points="17.903,6.542 18.356,6.58 18.47,7.225 18.017,7.11 17.903,6.542 "/>
<polyline fill="#00AEEF" points="19.66,3.441 20.114,3.479 20.228,4.122 19.774,4.01 19.66,3.441 "/>
<polyline fill="#00AEEF" points="16.329,6.811 16.783,6.849 16.897,7.491 16.442,7.378 16.329,6.811 "/>
<polyline fill="#00AEEF" points="18.487,5.939 18.94,5.978 19.056,6.62 18.601,6.508 18.487,5.939 "/>
<polyline fill="#00AEEF" points="19.433,10.325 19.888,10.363 20.001,11.008 19.547,10.894 19.433,10.325 "/>
<polyline fill="#00AEEF" points="18.83,4.993 19.284,5.031 19.397,5.675 18.942,5.562 18.83,4.993 "/>
<polyline fill="#00AEEF" points="18.478,8.234 18.931,8.272 19.045,8.915 18.591,8.803 18.478,8.234 "/>
<polyline fill="#00AEEF" points="17.011,6.166 17.465,6.204 17.578,6.849 17.124,6.734 17.011,6.166 "/>
<polyline fill="#00AEEF" points="13.981,7.037 14.437,7.075 14.55,7.719 14.097,7.605 13.981,7.037 "/>
<polyline fill="#00AEEF" points="19.622,13.889 20.077,13.927 20.19,14.569 19.735,14.456 19.622,13.889 "/>
<polyline fill="#00AEEF" points="17.769,8.438 18.222,8.476 18.335,9.119 17.881,9.005 17.769,8.438 "/>
<polyline fill="#00AEEF" points="15.875,7.567 16.329,7.605 16.442,8.248 15.989,8.136 15.875,7.567 "/>
<polyline fill="#00AEEF" points="19.073,11.226 19.528,11.264 19.642,11.906 19.187,11.792 19.073,11.226 "/>
<polyline fill="#00AEEF" points="19.06,2.298 19.513,2.336 19.627,2.98 19.173,2.866 19.06,2.298 "/>
<polyline fill="#00AEEF" points="12.203,7.113 12.658,7.15 12.771,7.794 12.317,7.681 12.203,7.113 "/>
<polyline fill="#00AEEF" points="14.739,7.529 15.194,7.567 15.308,8.21 14.853,8.098 14.739,7.529 "/>
<polyline fill="#00AEEF" points="18.185,3.972 18.638,4.01 18.752,4.652 18.298,4.539 18.185,3.972 "/>
<polyline fill="#00AEEF" points="19.396,14.76 19.851,14.797 19.963,15.44 19.509,15.326 19.396,14.76 "/>
<polyline fill="#00AEEF" points="10.272,6.999 10.728,7.037 10.841,7.681 10.386,7.567 10.272,6.999 "/>
<polyline fill="#00AEEF" points="18.962,12.19 19.416,12.229 19.53,12.871 19.076,12.759 18.962,12.19 "/>
<polyline fill="#00AEEF" points="16.329,5.409 16.783,5.447 16.897,6.092 16.442,5.978 16.329,5.409 "/>
<polyline fill="#00AEEF" points="17.129,9.081 17.583,9.119 17.696,9.763 17.243,9.649 17.129,9.081 "/>
<polyline fill="#00AEEF" points="13.124,6.166 13.578,6.204 13.69,6.849 13.237,6.734 13.124,6.166 "/>
<polyline fill="#00AEEF" points="18.903,13.131 19.356,13.169 19.472,13.813 19.017,13.699 18.903,13.131 "/>
<polyline fill="#00AEEF" points="16.375,8.718 16.83,8.755 16.942,9.398 16.489,9.285 16.375,8.718 "/>
<polyline fill="#00AEEF" points="15.546,8.362 16.001,8.4 16.114,9.043 15.66,8.93 15.546,8.362 "/>
<polyline fill="#00AEEF" points="19.433,18.506 19.888,18.544 20.001,19.188 19.547,19.074 19.433,18.506 "/>
<polyline fill="#00AEEF" points="17.313,10.104 17.769,10.142 17.881,10.784 17.427,10.671 17.313,10.104 "/>
<polyline fill="#00AEEF" points="3.005,6.811 3.46,6.849 3.573,7.491 3.119,7.378 3.005,6.811 "/>
<polyline fill="#00AEEF" points="6.563,6.62 7.019,6.658 7.131,7.303 6.677,7.188 6.563,6.62 "/>
<polyline fill="#00AEEF" points="17.671,2.873 18.125,2.911 18.237,3.555 17.784,3.441 17.671,2.873 "/>
<polyline fill="#00AEEF" points="18.298,1.433 18.752,1.471 18.865,2.114 18.411,2 18.298,1.433 "/>
<polyline fill="#00AEEF" points="3.876,6.734 4.33,6.772 4.444,7.415 3.989,7.303 3.876,6.734 "/>
<polyline fill="#00AEEF" points="13.944,5.523 14.399,5.562 14.513,6.204 14.058,6.092 13.944,5.523 "/>
<polyline fill="#00AEEF" points="14.476,8.476 14.929,8.514 15.042,9.157 14.588,9.043 14.476,8.476 "/>
<polyline fill="#00AEEF" points="17.313,11.082 17.767,11.12 17.881,11.765 17.426,11.65 17.313,11.082 "/>
<polyline fill="#00AEEF" points="17.618,1.988 18.073,2.026 18.187,2.67 17.731,2.557 17.618,1.988 "/>
<polyline fill="#00AEEF" points="12.499,8.298 12.953,8.336 13.067,8.979 12.612,8.865 12.499,8.298 "/>
<polyline fill="#00AEEF" points="18.487,15.189 18.94,15.228 19.056,15.871 18.601,15.758 18.487,15.189 "/>
<polyline fill="#00AEEF" points="8.579,7.631 9.033,7.668 9.147,8.313 8.692,8.198 8.579,7.631 "/>
<polyline fill="#00AEEF" points="10.867,8 11.321,8.038 11.435,8.682 10.979,8.567 10.867,8 "/>
<polyline fill="#00AEEF" points="18.601,16.275 19.056,16.313 19.168,16.956 18.714,16.844 18.601,16.275 "/>
<polyline fill="#00AEEF" points="18.752,17.522 19.206,17.561 19.319,18.203 18.865,18.091 18.752,17.522 "/>
<polyline fill="#00AEEF" points="6.175,7.479 6.629,7.518 6.743,8.16 6.289,8.047 6.175,7.479 "/>
<polyline fill="#00AEEF" points="14.55,9.422 15.004,9.459 15.118,10.104 14.664,9.989 14.55,9.422 "/>
<polyline fill="#00AEEF" points="15.269,9.989 15.724,10.027 15.837,10.671 15.383,10.558 15.269,9.989 "/>
<polyline fill="#00AEEF" points="14.252,4.312 14.706,4.35 14.819,4.993 14.366,4.879 14.252,4.312 "/>
<polyline fill="#00AEEF" points="16.956,11.951 17.41,11.988 17.524,12.633 17.069,12.519 16.956,11.951 "/>
<polyline fill="#00AEEF" points="4.671,7.453 5.125,7.491 5.239,8.136 4.784,8.021 4.671,7.453 "/>
<polyline fill="#00AEEF" points="7.169,5.939 7.623,5.978 7.737,6.62 7.283,6.508 7.169,5.939 "/>
<polyline fill="#00AEEF" points="13.528,4.463 13.981,4.501 14.097,5.145 13.642,5.031 13.528,4.463 "/>
<polyline fill="#00AEEF" points="17.157,12.828 17.61,12.866 17.726,13.511 17.271,13.396 17.157,12.828 "/>
<polyline fill="#00AEEF" points="14.853,3.63 15.308,3.668 15.421,4.312 14.967,4.198 14.853,3.63 "/>
<polyline fill="#00AEEF" points="16.858,1.359 17.313,1.397 17.427,2.04 16.974,1.928 16.858,1.359 "/>
<polyline fill="#00AEEF" points="17.64,14.368 18.095,14.406 18.208,15.051 17.753,14.937 17.64,14.368 "/>
<polyline fill="#00AEEF" points="11.681,8.776 12.135,8.814 12.249,9.458 11.794,9.345 11.681,8.776 "/>
<polyline fill="#00AEEF" points="15.459,10.822 15.913,10.86 16.026,11.503 15.571,11.391 15.459,10.822 "/>
<polyline fill="#00AEEF" points="9.138,5.447 9.592,5.485 9.705,6.128 9.251,6.016 9.138,5.447 "/>
<polyline fill="#00AEEF" points="15.155,2.797 15.61,2.835 15.724,3.479 15.269,3.365 15.155,2.797 "/>
<polyline fill="#00AEEF" points="16.783,13.547 17.237,13.585 17.351,14.229 16.897,14.115 16.783,13.547 "/>
<polyline fill="#00AEEF" points="18.123,18.038 18.577,18.075 18.69,18.72 18.235,18.605 18.123,18.038 "/>
<polyline fill="#00AEEF" points="15.269,11.503 15.724,11.541 15.837,12.186 15.383,12.071 15.269,11.503 "/>
<polyline fill="#00AEEF" points="12.62,9.687 13.074,9.725 13.188,10.368 12.733,10.254 12.62,9.687 "/>
<polyline fill="#00AEEF" points="18.382,20.319 18.298,19.899 18.752,19.938 18.819,20.319 18.382,20.319 "/>
<polyline fill="#00AEEF" points="4.026,5.826 4.481,5.863 4.595,6.508 4.142,6.394 4.026,5.826 "/>
<polyline fill="#00AEEF" points="5.579,8.06 6.033,8.098 6.147,8.74 5.692,8.627 5.579,8.06 "/>
<polyline fill="#00AEEF" points="15.345,1.928 15.799,1.966 15.913,2.608 15.459,2.495 15.345,1.928 "/>
<polyline fill="#00AEEF" points="13.604,10.33 14.058,10.368 14.172,11.012 13.717,10.898 13.604,10.33 "/>
<polyline fill="#00AEEF" points="11.217,4.409 11.671,4.446 11.784,5.091 11.33,4.977 11.217,4.409 "/>
<polyline fill="#00AEEF" points="12.923,16.197 13.377,16.235 13.49,16.878 13.036,16.766 12.923,16.197 "/>
<polyline fill="#00AEEF" points="7.966,6.768 8.42,6.806 8.534,7.448 8.08,7.335 7.966,6.768 "/>
<polyline fill="#00AEEF" points="11.065,11.827 11.521,11.865 11.633,12.51 11.179,12.396 11.065,11.827 "/>
<polyline fill="#00AEEF" points="12.935,17.903 13.39,17.941 13.503,18.584 13.048,18.472 12.935,17.903 "/>
<polyline fill="#00AEEF" points="9.388,8.205 9.842,8.243 9.956,8.888 9.502,8.773 9.388,8.205 "/>
<polyline fill="#00AEEF" points="11.787,5.333 12.241,5.371 12.354,6.016 11.901,5.901 11.787,5.333 "/>
<polyline fill="#00AEEF" points="12.278,6.166 12.733,6.204 12.847,6.849 12.394,6.734 12.278,6.166 "/>
<polyline fill="#00AEEF" points="15.235,15.685 15.69,15.723 15.804,16.365 15.351,16.252 15.235,15.685 "/>
<polyline fill="#00AEEF" points="15.042,16.766 15.497,16.804 15.61,17.446 15.155,17.333 15.042,16.766 "/>
<polyline fill="#00AEEF" points="13.623,13.285 14.077,13.323 14.19,13.967 13.735,13.854 13.623,13.285 "/>
<polyline fill="#00AEEF" points="10.804,5.333 11.257,5.371 11.371,6.016 10.916,5.901 10.804,5.333 "/>
<polyline fill="#00AEEF" points="15.726,19.217 16.181,19.254 16.294,19.897 15.84,19.784 15.726,19.217 "/>
<polyline fill="#00AEEF" points="9.364,9.235 9.819,9.272 9.933,9.916 9.478,9.803 9.364,9.235 "/>
<polyline fill="#00AEEF" points="15.597,4.546 16.051,4.584 16.165,5.229 15.711,5.114 15.597,4.546 "/>
<polyline fill="#00AEEF" points="14.606,14.74 15.062,14.777 15.175,15.421 14.72,15.308 14.606,14.74 "/>
<polyline fill="#00AEEF" points="8.608,15.694 9.063,15.732 9.177,16.375 8.722,16.263 8.608,15.694 "/>
<polyline fill="#00AEEF" points="9.979,6.005 10.435,6.043 10.547,6.688 10.093,6.573 9.979,6.005 "/>
<polyline fill="#00AEEF" points="18.819,0 18.865,0.262 18.411,0.148 18.382,0 18.819,0 "/>
<polyline fill="#00AEEF" points="18.747,0.713 19.201,0.751 19.315,1.395 18.86,1.281 18.747,0.713 "/>
<polyline fill="#00AEEF" points="19.509,0.3 19.963,0.337 20.077,0.98 19.622,0.867 19.509,0.3 "/>
<polyline fill="#00AEEF" points="16.708,0.488 17.162,0.526 17.276,1.17 16.821,1.057 16.708,0.488 "/>
<polyline fill="#00AEEF" points="7.726,0 7.813,0.488 7.358,0.375 7.283,0 7.726,0 "/>
<polyline fill="#00AEEF" points="6.451,0 6.563,0.641 6.108,0.526 6.004,0 6.451,0 "/>
<polyline fill="#00AEEF" points="5.201,0.413 5.655,0.451 5.769,1.095 5.313,0.98 5.201,0.413 "/>
<polyline fill="#00AEEF" points="0.242,0.488 0.696,0.526 0.81,1.17 0.356,1.057 0.242,0.488 "/>
<polyline fill="#00AEEF" points="2.324,6.508 2.778,6.545 2.892,7.188 2.438,7.075 2.324,6.508 "/>
<polyline fill="#00AEEF" points="9.632,12.336 10.086,12.374 10.2,13.018 9.745,12.904 9.632,12.336 "/>
<polyline fill="#00AEEF" points="12.532,18.612 12.985,18.65 13.101,19.294 12.646,19.181 12.532,18.612 "/>
<polyline fill="#00AEEF" points="11.03,15.1 11.483,15.138 11.599,15.781 11.144,15.667 11.03,15.1 "/>
<polyline fill="#00AEEF" points="0.28,5.978 0.733,6.016 0.849,6.658 0.394,6.545 0.28,5.978 "/>
<polyline fill="#00AEEF" points="6.108,9.043 6.563,9.081 6.677,9.725 6.224,9.611 6.108,9.043 "/>
<polyline fill="#00AEEF" points="4.821,8.476 5.276,8.514 5.39,9.157 4.937,9.043 4.821,8.476 "/>
<polyline fill="#00AEEF" points="7.737,10.937 8.19,10.974 8.306,11.617 7.851,11.503 7.737,10.937 "/>
<polyline fill="#00AEEF" points="8.985,12.866 9.44,12.904 9.554,13.547 9.101,13.435 8.985,12.866 "/>
<polyline fill="#00AEEF" points="10.008,14.494 10.462,14.532 10.576,15.176 10.122,15.062 10.008,14.494 "/>
<polyline fill="#00AEEF" points="2.248,7.624 2.702,7.662 2.815,8.306 2.362,8.191 2.248,7.624 "/>
<polyline fill="#00AEEF" points="11.825,19.036 12.278,19.074 12.394,19.718 11.938,19.604 11.825,19.036 "/>
<polyline fill="#00AEEF" points="6.028,10.142 6.483,10.18 6.597,10.822 6.142,10.708 6.028,10.142 "/>
<polyline fill="#00AEEF" points="9.138,13.699 9.592,13.737 9.705,14.38 9.251,14.268 9.138,13.699 "/>
<polyline fill="#00AEEF" points="0,6.909 0.174,6.923 0.288,7.567 0,7.495 0,6.909 "/>
<polyline fill="#00AEEF" points="7.422,11.8 7.876,11.837 7.99,12.48 7.536,12.367 7.422,11.8 "/>
<polyline fill="#00AEEF" points="11.22,18.053 11.673,18.091 11.787,18.733 11.333,18.62 11.22,18.053 "/>
<polyline fill="#00AEEF" points="4.254,9.157 4.709,9.194 4.821,9.838 4.368,9.725 4.254,9.157 "/>
<polyline fill="#00AEEF" points="0.583,7.265 1.037,7.303 1.151,7.945 0.696,7.832 0.583,7.265 "/>
<polyline fill="#00AEEF" points="9.024,14.456 9.478,14.494 9.592,15.138 9.138,15.024 9.024,14.456 "/>
<polyline fill="#00AEEF" points="1.5,7.946 1.955,7.984 2.067,8.628 1.614,8.515 1.5,7.946 "/>
<polyline fill="#00AEEF" points="2.815,8.74 3.271,8.778 3.384,9.422 2.931,9.309 2.815,8.74 "/>
<polyline fill="#00AEEF" points="10.424,17.37 10.879,17.408 10.992,18.053 10.538,17.938 10.424,17.37 "/>
<polyline fill="#00AEEF" points="5.504,10.822 5.958,10.86 6.071,11.503 5.617,11.391 5.504,10.822 "/>
<polyline fill="#00AEEF" points="11.144,19.566 11.599,19.604 11.711,20.247 11.257,20.135 11.144,19.566 "/>
<polyline fill="#00AEEF" points="6.942,12.488 7.396,12.525 7.51,13.169 7.056,13.056 6.942,12.488 "/>
<polyline fill="#00AEEF" points="3.422,9.535 3.876,9.573 3.989,10.217 3.535,10.104 3.422,9.535 "/>
<polyline fill="#00AEEF" points="9.517,16.651 9.97,16.689 10.084,17.333 9.629,17.22 9.517,16.651 "/>
<polyline fill="#00AEEF" points="8.418,14.834 8.872,14.872 8.985,15.517 8.532,15.402 8.418,14.834 "/>
<polyline fill="#00AEEF" points="7.245,13.396 7.699,13.435 7.813,14.077 7.358,13.964 7.245,13.396 "/>
<polyline fill="#00AEEF" points="0.394,8.21 0.849,8.248 0.961,8.893 0.507,8.778 0.394,8.21 "/>
<polyline fill="#00AEEF" points="4.974,11.429 5.429,11.467 5.541,12.109 5.087,11.995 4.974,11.429 "/>
<polyline fill="#00AEEF" points="7.661,14.456 8.115,14.494 8.229,15.138 7.774,15.024 7.661,14.456 "/>
<polyline fill="#00AEEF" points="8.722,16.576 9.175,16.613 9.289,17.258 8.835,17.144 8.722,16.576 "/>
<polyline fill="#00AEEF" points="3.211,10.585 3.665,10.623 3.778,11.268 3.325,11.153 3.211,10.585 "/>
<polyline fill="#00AEEF" points="4.784,12.224 5.239,12.261 5.353,12.904 4.897,12.79 4.784,12.224 "/>
<polyline fill="#00AEEF" points="7.358,15.176 7.813,15.213 7.926,15.856 7.472,15.743 7.358,15.176 "/>
<polyline fill="#00AEEF" points="0.204,9.232 0.658,9.271 0.772,9.914 0.317,9.801 0.204,9.232 "/>
<polyline fill="#00AEEF" points="9.213,18.771 9.667,18.81 9.78,19.452 9.327,19.339 9.213,18.771 "/>
<polyline fill="#00AEEF" points="8.04,16.878 8.494,16.916 8.606,17.561 8.153,17.446 8.04,16.878 "/>
<polyline fill="#00AEEF" points="4.444,12.904 4.897,12.942 5.011,13.585 4.558,13.473 4.444,12.904 "/>
<polyline fill="#00AEEF" points="2.476,11.314 2.931,11.353 3.043,11.995 2.589,11.883 2.476,11.314 "/>
<polyline fill="#00AEEF" points="6.563,15.555 7.019,15.592 7.131,16.235 6.677,16.121 6.563,15.555 "/>
<polyline fill="#00AEEF" points="0.772,10.444 1.226,10.481 1.34,11.125 0.886,11.012 0.772,10.444 "/>
<polyline fill="#00AEEF" points="7.472,17.258 7.926,17.295 8.04,17.938 7.585,17.825 7.472,17.258 "/>
<polyline fill="#00AEEF" points="1.53,11.178 1.985,11.216 2.099,11.858 1.646,11.745 1.53,11.178 "/>
<polyline fill="#00AEEF" points="4.481,13.661 4.937,13.699 5.049,14.343 4.595,14.229 4.481,13.661 "/>
<polyline fill="#00AEEF" points="8.646,19.528 9.101,19.566 9.213,20.209 8.759,20.097 8.646,19.528 "/>
<polyline fill="#00AEEF" points="5.919,15.958 6.373,15.996 6.487,16.641 6.032,16.526 5.919,15.958 "/>
<polyline fill="#00AEEF" points="4.065,14.305 4.519,14.343 4.633,14.986 4.179,14.872 4.065,14.305 "/>
<polyline fill="#00AEEF" points="5.146,16.216 5.601,16.252 5.714,16.896 5.259,16.782 5.146,16.216 "/>
<polyline fill="#00AEEF" points="6.308,17.895 6.763,17.933 6.876,18.575 6.421,18.462 6.308,17.895 "/>
<polyline fill="#00AEEF" points="7.283,20.319 7.245,20.126 7.699,20.164 7.726,20.319 7.283,20.319 "/>
<polyline fill="#00AEEF" points="1.644,13.056 2.097,13.094 2.21,13.737 1.756,13.623 1.644,13.056 "/>
<polyline fill="#00AEEF" points="2.135,13.927 2.589,13.964 2.702,14.607 2.248,14.494 2.135,13.927 "/>
<polyline fill="#00AEEF" points="4.633,16.728 5.087,16.766 5.201,17.408 4.747,17.295 4.633,16.728 "/>
<polyline fill="#00AEEF" points="5.396,18.271 5.849,18.308 5.962,18.951 5.508,18.837 5.396,18.271 "/>
<polyline fill="#00AEEF" points="6.004,20.319 5.996,20.277 6.45,20.315 6.451,20.319 6.004,20.319 "/>
<polyline fill="#00AEEF" points="3.952,17.295 4.405,17.333 4.519,17.977 4.065,17.863 3.952,17.295 "/>
<polyline fill="#00AEEF" points="3.46,18.053 3.914,18.091 4.026,18.733 3.573,18.62 3.46,18.053 "/>
<polyline fill="#00AEEF" points="4.179,19.377 4.633,19.414 4.747,20.059 4.292,19.944 4.179,19.377 "/>
<polyline fill="#00AEEF" points="2.476,17.9 2.931,17.938 3.043,18.582 2.589,18.469 2.476,17.9 "/>
<polyline fill="#00AEEF" points="0.583,16.728 1.037,16.766 1.151,17.408 0.696,17.295 0.583,16.728 "/>
<polyline fill="#00AEEF" points="0.999,18.544 1.453,18.582 1.567,19.226 1.112,19.112 0.999,18.544 "/>
<polyline fill="#00AEEF" points="0.204,17.749 0.658,17.787 0.772,18.431 0.317,18.317 0.204,17.749 "/>
<polyline fill="#00AEEF" points="1.112,19.528 1.567,19.566 1.681,20.209 1.226,20.097 1.112,19.528 "/>
<polyline fill="#00AEEF" points="2.589,0.316 3.043,0.354 3.157,0.997 2.702,0.884 2.589,0.316 "/>
<polyline fill="#00AEEF" points="17.071,0 17.124,0.3 16.67,0.187 16.633,0 17.071,0 "/>
<polyline fill="#00AEEF" points="13.438,0.69 13.894,0.728 14.006,1.371 13.552,1.258 13.438,0.69 "/>
<polyline fill="#00AEEF" points="11.295,0.148 11.749,0.187 11.862,0.829 11.408,0.717 11.295,0.148 "/>
<polyline fill="#00AEEF" points="8.38,0.11 8.835,0.148 8.948,0.791 8.494,0.679 8.38,0.11 "/>
<polyline fill="#00AEEF" points="10.728,0.603 11.181,0.641 11.295,1.283 10.841,1.17 10.728,0.603 "/>
<polyline fill="#00AEEF" points="8.002,0.753 8.456,0.791 8.569,1.436 8.115,1.321 8.002,0.753 "/>
<polyline fill="#00AEEF" points="14.623,0.858 15.078,0.896 15.19,1.539 14.737,1.426 14.623,0.858 "/>
<polyline fill="#00AEEF" points="20.319,7.495 20.151,7.453 20.039,6.886 20.319,6.909 20.319,7.495 "/>
<polyline fill="#00AEEF" points="12.885,3.518 13.339,3.555 13.453,4.198 12.998,4.084 12.885,3.518 "/>
<polyline fill="#00AEEF" points="15.308,12.261 15.761,12.298 15.875,12.942 15.421,12.828 15.308,12.261 "/>
<polyline fill="#00AEEF" points="7.169,5.106 7.623,5.145 7.737,5.788 7.283,5.675 7.169,5.106 "/>
<polyline fill="#00AEEF" points="8.19,4.879 8.646,4.917 8.759,5.562 8.306,5.447 8.19,4.879 "/>
<polyline fill="#00AEEF" points="17.808,18.848 18.263,18.886 18.376,19.528 17.921,19.415 17.808,18.848 "/>
<polyline fill="#00AEEF" points="1.832,5.712 2.286,5.75 2.399,6.394 1.944,6.28 1.832,5.712 "/>
<polyline fill="#00AEEF" points="16.063,14.039 16.519,14.077 16.632,14.722 16.179,14.607 16.063,14.039 "/>
<polyline fill="#00AEEF" points="13.49,11.314 13.944,11.353 14.058,11.995 13.604,11.883 13.49,11.314 "/>
<polyline fill="#00AEEF" points="12.166,3.139 12.62,3.177 12.733,3.819 12.278,3.706 12.166,3.139 "/>
<polyline fill="#00AEEF" points="16.254,14.948 16.708,14.986 16.821,15.629 16.367,15.517 16.254,14.948 "/>
<polyline fill="#00AEEF" points="12.394,10.822 12.847,10.86 12.96,11.503 12.506,11.391 12.394,10.822 "/>
<polyline fill="#00AEEF" points="16.446,15.856 16.901,15.895 17.015,16.538 16.562,16.425 16.446,15.856 "/>
<polyline fill="#00AEEF" points="14.458,12.667 14.912,12.705 15.026,13.35 14.571,13.235 14.458,12.667 "/>
<polyline fill="#00AEEF" points="10.308,3.704 10.763,3.741 10.876,4.386 10.422,4.271 10.308,3.704 "/>
<polyline fill="#00AEEF" points="8.759,9.649 9.213,9.687 9.327,10.33 8.872,10.217 8.759,9.649 "/>
<polyline fill="#00AEEF" points="13.49,12.224 13.944,12.261 14.058,12.904 13.604,12.79 13.49,12.224 "/>
<polyline fill="#00AEEF" points="12.544,2.154 12.998,2.192 13.112,2.835 12.658,2.723 12.544,2.154 "/>
<polyline fill="#00AEEF" points="4.179,4.917 4.633,4.955 4.747,5.599 4.292,5.485 4.179,4.917 "/>
<polyline fill="#00AEEF" points="7.358,4.274 7.813,4.312 7.926,4.955 7.472,4.842 7.358,4.274 "/>
<polyline fill="#00AEEF" points="11.319,2.85 11.772,2.888 11.886,3.531 11.433,3.417 11.319,2.85 "/>
<polyline fill="#00AEEF" points="17.097,19.217 17.55,19.254 17.663,19.897 17.209,19.784 17.097,19.217 "/>
<polyline fill="#00AEEF" points="11.716,11.208 12.171,11.246 12.284,11.89 11.83,11.776 11.716,11.208 "/>
<polyline fill="#00AEEF" points="9.517,3.403 9.97,3.441 10.084,4.084 9.629,3.972 9.517,3.403 "/>
<polyline fill="#00AEEF" points="15.875,16.576 16.329,16.613 16.442,17.258 15.989,17.144 15.875,16.576 "/>
<polyline fill="#00AEEF" points="12.733,1.133 13.188,1.17 13.301,1.813 12.847,1.7 12.733,1.133 "/>
<polyline fill="#00AEEF" points="8.077,10.18 8.532,10.217 8.646,10.86 8.19,10.746 8.077,10.18 "/>
<polyline fill="#00AEEF" points="0.129,5.069 0.583,5.106 0.696,5.75 0.242,5.637 0.129,5.069 "/>
<polyline fill="#00AEEF" points="16.633,20.319 16.556,19.938 17.011,19.975 17.071,20.319 16.633,20.319 "/>
<polyline fill="#00AEEF" points="6.677,3.782 7.131,3.819 7.245,4.463 6.791,4.35 6.677,3.782 "/>
<polyline fill="#00AEEF" points="13.788,14.29 14.243,14.328 14.356,14.973 13.901,14.858 13.788,14.29 "/>
<polyline fill="#00AEEF" points="8.646,2.761 9.101,2.797 9.213,3.441 8.759,3.327 8.646,2.761 "/>
<polyline fill="#00AEEF" points="10.351,11.82 10.806,11.858 10.919,12.502 10.464,12.389 10.351,11.82 "/>
<polyline fill="#00AEEF" points="3.194,4.198 3.649,4.236 3.763,4.879 3.308,4.767 3.194,4.198 "/>
<polyline fill="#00AEEF" points="1.644,4.463 2.097,4.501 2.21,5.145 1.756,5.031 1.644,4.463 "/>
<polyline fill="#00AEEF" points="0.849,4.501 1.302,4.539 1.416,5.183 0.961,5.069 0.849,4.501 "/>
<polyline fill="#00AEEF" points="9.024,2.116 9.478,2.154 9.592,2.797 9.138,2.685 9.024,2.116 "/>
<polyline fill="#00AEEF" points="15.231,18.406 15.687,18.444 15.799,19.088 15.345,18.975 15.231,18.406 "/>
<polyline fill="#00AEEF" points="13.455,15.304 13.909,15.342 14.022,15.984 13.569,15.871 13.455,15.304 "/>
<polyline fill="#00AEEF" points="3.989,3.593 4.444,3.63 4.558,4.274 4.103,4.16 3.989,3.593 "/>
<polyline fill="#00AEEF" points="2.362,3.934 2.815,3.972 2.931,4.614 2.476,4.501 2.362,3.934 "/>
<polyline fill="#00AEEF" points="6.033,3.015 6.487,3.053 6.601,3.695 6.147,3.582 6.033,3.015 "/>
<polyline fill="#00AEEF" points="14.664,17.599 15.118,17.636 15.231,18.279 14.776,18.165 14.664,17.599 "/>
<polyline fill="#00AEEF" points="10.122,1.133 10.576,1.17 10.688,1.813 10.235,1.7 10.122,1.133 "/>
<polyline fill="#00AEEF" points="9.401,1.436 9.856,1.474 9.97,2.116 9.517,2.003 9.401,1.436 "/>
<polyline fill="#00AEEF" points="5.246,3.096 5.7,3.134 5.813,3.776 5.358,3.663 5.246,3.096 "/>
<polyline fill="#00AEEF" points="7.207,2.23 7.661,2.268 7.774,2.911 7.319,2.797 7.207,2.23 "/>
<polyline fill="#00AEEF" points="4.368,2.911 4.821,2.949 4.937,3.593 4.481,3.479 4.368,2.911 "/>
<polyline fill="#00AEEF" points="7.661,1.586 8.115,1.624 8.229,2.268 7.774,2.154 7.661,1.586 "/>
<polyline fill="#00AEEF" points="13.921,18.04 14.375,18.078 14.489,18.722 14.034,18.608 13.921,18.04 "/>
<polyline fill="#00AEEF" points="13.301,17.068 13.755,17.106 13.869,17.749 13.415,17.636 13.301,17.068 "/>
<polyline fill="#00AEEF" points="12.128,15.819 12.582,15.856 12.694,16.5 12.241,16.387 12.128,15.819 "/>
<polyline fill="#00AEEF" points="6.487,1.474 6.942,1.511 7.056,2.154 6.601,2.04 6.487,1.474 "/>
<polyline fill="#00AEEF" points="0.772,3.214 1.226,3.252 1.34,3.896 0.886,3.782 0.772,3.214 "/>
<polyline fill="#00AEEF" points="3.61,2.381 4.065,2.419 4.179,3.063 3.726,2.949 3.61,2.381 "/>
<polyline fill="#00AEEF" points="4.142,1.511 4.595,1.548 4.709,2.192 4.254,2.078 4.142,1.511 "/>
<polyline fill="#00AEEF" points="4.709,1.095 5.163,1.133 5.276,1.775 4.821,1.662 4.709,1.095 "/>
<polyline fill="#00AEEF" points="0.204,2.344 0.658,2.381 0.772,3.025 0.317,2.911 0.204,2.344 "/>
<polyline fill="#00AEEF" points="1.967,12.216 2.421,12.253 2.534,12.897 2.08,12.783 1.967,12.216 "/>
<polyline fill="#00AEEF" points="1.34,1.474 1.794,1.511 1.908,2.154 1.453,2.04 1.34,1.474 "/>
<polyline fill="#00AEEF" points="2.135,1.095 2.589,1.133 2.702,1.775 2.248,1.662 2.135,1.095 "/>
<polyline fill="#00AEEF" points="0.431,1.511 0.886,1.548 0.999,2.192 0.545,2.078 0.431,1.511 "/>
<polyline fill="#00AEEF" points="3.46,14.722 3.914,14.76 4.026,15.402 3.573,15.289 3.46,14.722 "/>
<polyline fill="#00AEEF" points="0.129,13.473 0.583,13.511 0.696,14.153 0.242,14.039 0.129,13.473 "/>
<polyline fill="#00AEEF" points="7.093,18.053 7.548,18.091 7.661,18.733 7.207,18.62 7.093,18.053 "/>
<polyline fill="#00AEEF" points="3.914,15.819 4.368,15.856 4.481,16.5 4.026,16.387 3.914,15.819 "/>
<polyline fill="#00AEEF" points="1.908,14.797 2.362,14.834 2.476,15.479 2.021,15.364 1.908,14.797 "/>
<polyline fill="#00AEEF" points="2.74,15.251 3.194,15.289 3.308,15.933 2.854,15.819 2.74,15.251 "/>
<polyline fill="#00AEEF" points="7.699,19.15 8.153,19.188 8.267,19.831 7.813,19.718 7.699,19.15 "/>
<polyline fill="#00AEEF" points="0.694,14.644 1.147,14.681 1.263,15.324 0.808,15.21 0.694,14.644 "/>
<polyline fill="#00AEEF" points="1.401,15.414 1.856,15.452 1.97,16.097 1.515,15.982 1.401,15.414 "/>
<polyline fill="#00AEEF" points="1.302,16.3 1.756,16.337 1.87,16.98 1.416,16.867 1.302,16.3 "/>
<polyline fill="#00AEEF" points="4.825,18.848 5.278,18.886 5.392,19.528 4.938,19.414 4.825,18.848 "/>
<polyline fill="#00AEEF" points="2.06,17.03 2.513,17.068 2.627,17.711 2.173,17.599 2.06,17.03 "/>
</svg>
