<?xml version="1.0" encoding="utf-8"?>
<!-- Generator: Adobe Illustrator 14.0.0, SVG Export Plug-In  -->
<!DOCTYPE svg PUBLIC "-//W3C//DTD SVG 1.1//EN" "http://www.w3.org/Graphics/SVG/1.1/DTD/svg11.dtd" [
	<!ENTITY ns_flows "http://ns.adobe.com/Flows/1.0/">
]>
<svg version="1.1"
	 xmlns="http://www.w3.org/2000/svg" xmlns:xlink="http://www.w3.org/1999/xlink" xmlns:a="http://ns.adobe.com/AdobeSVGViewerExtensions/3.0/"
	 x="0px" y="0px" width="20.32px" height="30.477px" viewBox="0 0 20.32 30.477" enable-background="new 0 0 20.32 30.477"
	 xml:space="preserve">
<defs>
</defs>
<rect fill="none" width="20.32" height="30.477"/>
<rect x="14.476" y="0.675" fill="#00AEEF" width="0.227" height="0.284"/>
<rect x="14.702" y="3.854" fill="#00AEEF" width="0.283" height="0.285"/>
<rect x="14.758" y="7.829" fill="#00AEEF" width="0.284" height="0.342"/>
<rect x="14.929" y="9.079" fill="#00AEEF" width="0.284" height="0.283"/>
<rect x="15.497" y="7.829" fill="#00AEEF" width="0.34" height="0.342"/>
<polyline fill="#00AEEF" points="11.408,15.778 11.692,15.778 11.692,15.266 11.408,15.778 "/>
<rect x="1.927" y="23.272" fill="#00AEEF" width="0.454" height="0.285"/>
<rect x="2.778" y="23.215" fill="#00AEEF" width="0.227" height="0.285"/>
<rect x="2.438" y="16.459" fill="#00AEEF" width="0.227" height="0.283"/>
<rect x="3.062" y="16.516" fill="#00AEEF" width="0.285" height="0.283"/>
<rect x="4.651" y="21.059" fill="#00AEEF" width="0.285" height="0.34"/>
<polyline fill="#00AEEF" points="11.522,22.307 11.125,22.42 11.011,21.854 11.522,22.307 "/>
<rect x="11.011" y="16.459" fill="#00AEEF" width="0.284" height="0.34"/>
<polyline fill="#00AEEF" points="10.67,15.721 11.067,15.721 11.295,15.211 11.295,14.756 10.784,15.096 10.67,15.721 "/>
<rect x="10.33" y="17.368" fill="#00AEEF" width="0.454" height="0.283"/>
<rect x="10.33" y="16.516" fill="#00AEEF" width="0.284" height="0.283"/>
<rect x="10.897" y="12.372" fill="#00AEEF" width="0.228" height="0.283"/>
<rect x="9.875" y="13.733" fill="#00AEEF" width="0.511" height="1.988"/>
<rect x="9.592" y="17.311" fill="#00AEEF" width="0.341" height="0.34"/>
<rect x="10.046" y="12.428" fill="#00AEEF" width="0.454" height="0.283"/>
<rect x="9.705" y="16.459" fill="#00AEEF" width="0.228" height="0.283"/>
<polyline fill="#00AEEF" points="9.647,15.778 9.251,15.778 8.853,15.153 9.024,14.983 9.478,15.266 9.647,15.778 "/>
<rect x="8.853" y="18.616" fill="#00AEEF" width="0.455" height="0.285"/>
<rect x="7.377" y="16.459" fill="#00AEEF" width="0.284" height="0.34"/>
<rect x="9.308" y="12.372" fill="#00AEEF" width="0.34" height="0.34"/>
<rect x="8.853" y="16.516" fill="#00AEEF" width="0.455" height="0.283"/>
<rect x="7.377" y="18.559" fill="#00AEEF" width="0.284" height="0.342"/>
<rect x="8.853" y="17.311" fill="#00AEEF" width="0.285" height="0.34"/>
<rect x="8.115" y="18.559" fill="#00AEEF" width="0.341" height="0.342"/>
<rect x="7.604" y="21.114" fill="#00AEEF" width="0.283" height="0.285"/>
<rect x="8.115" y="16.459" fill="#00AEEF" width="0.341" height="0.34"/>
<rect x="6.979" y="21.059" fill="#00AEEF" width="0.228" height="0.283"/>
<rect x="10.159" y="22.932" fill="#00AEEF" width="7.78" height="0.34"/>
<rect x="8.569" y="12.372" fill="#00AEEF" width="0.283" height="0.34"/>
<rect x="6.128" y="21.114" fill="#00AEEF" width="0.454" height="0.285"/>
<polyline fill="#00AEEF" points="8.74,15.778 8.399,15.778 8.342,15.266 8.74,15.778 "/>
<rect x="5.39" y="21.059" fill="#00AEEF" width="0.342" height="0.34"/>
<rect x="0.45" y="23.215" fill="#00AEEF" width="0.283" height="0.342"/>
<rect x="1.188" y="23.215" fill="#00AEEF" width="0.34" height="0.342"/>
<rect x="15.951" y="19.184" fill="#00AEEF" width="0.284" height="0.285"/>
<rect x="15.326" y="19.127" fill="#00AEEF" width="0.228" height="0.283"/>
<rect x="17.541" y="13.678" fill="#00AEEF" width="0.34" height="0.34"/>
<rect x="14.476" y="19.184" fill="#00AEEF" width="0.453" height="0.285"/>
<rect x="13.735" y="19.127" fill="#00AEEF" width="0.342" height="0.342"/>
<rect x="12.998" y="19.127" fill="#00AEEF" width="0.284" height="0.342"/>
<rect x="13.964" y="16.516" fill="#00AEEF" width="0.283" height="0.283"/>
<rect x="17.085" y="7.829" fill="#00AEEF" width="0.229" height="0.283"/>
<rect x="13.339" y="16.459" fill="#00AEEF" width="0.227" height="0.283"/>
<rect x="11.806" y="17.368" fill="#00AEEF" width="0.284" height="0.283"/>
<rect x="12.487" y="16.516" fill="#00AEEF" width="0.453" height="0.283"/>
<rect x="11.181" y="17.311" fill="#00AEEF" width="0.228" height="0.283"/>
<rect x="16.235" y="7.885" fill="#00AEEF" width="0.454" height="0.285"/>
<polyline fill="#00AEEF" points="14.985,22.307 15.44,22.307 15.951,21.512 15.724,21.059 15.213,21.739 14.985,22.307 "/>
<rect x="13.396" y="19.752" fill="#00AEEF" width="0.512" height="2.611"/>
<polyline fill="#00AEEF" points="15.894,22.364 16.235,22.307 16.179,21.854 15.894,22.364 "/>
<polyline fill="#00AEEF" points="14.304,22.364 14.646,22.364 14.758,21.172 15.269,20.491 14.929,20.206 14.418,21.114 
	14.304,22.364 "/>
<polyline fill="#00AEEF" points="12.374,20.264 12.09,20.604 12.714,21.399 12.714,22.364 13.056,22.364 12.998,21.059 
	12.374,20.264 "/>
<polyline fill="#00AEEF" points="11.636,21.286 11.353,21.627 12.147,22.42 12.431,22.42 12.147,21.739 11.636,21.286 "/>
<rect x="12.487" y="17.368" fill="#00AEEF" width="0.227" height="0.283"/>
<rect x="12.998" y="12.372" fill="#00AEEF" width="0.228" height="0.283"/>
<rect x="12.374" y="12.372" fill="#00AEEF" width="0.227" height="0.283"/>
<rect x="14.985" y="4.819" fill="#00AEEF" width="0.512" height="2.613"/>
<polyline fill="#00AEEF" points="15.894,7.432 16.235,7.432 16.349,6.239 16.859,5.557 16.519,5.274 16.008,6.182 15.894,7.432 "/>
<polyline fill="#00AEEF" points="16.576,7.375 17.031,7.375 17.541,6.579 17.314,6.125 16.802,6.807 16.576,7.375 "/>
<polyline fill="#00AEEF" points="17.484,7.432 17.824,7.375 17.769,6.92 17.484,7.432 "/>
<rect x="12.94" y="29.575" fill="#00AEEF" width="0.285" height="0.283"/>
<polyline fill="#00AEEF" points="1.927,10.838 2.21,10.838 2.21,10.327 1.927,10.838 "/>
<polyline fill="#00AEEF" points="13.226,6.352 12.94,6.694 13.735,7.489 14.021,7.489 13.735,6.807 13.226,6.352 "/>
<polyline fill="#00AEEF" points="13.112,7.375 12.714,7.489 12.601,6.92 13.112,7.375 "/>
<polyline fill="#00AEEF" points="13.964,5.331 13.681,5.672 14.304,6.467 14.304,7.432 14.646,7.432 14.588,6.125 13.964,5.331 "/>
<rect x="0.166" y="6.125" fill="#00AEEF" width="0.228" height="0.283"/>
<rect x="3.347" y="2.379" fill="#00AEEF" width="0.283" height="0.34"/>
<rect x="4.084" y="2.379" fill="#00AEEF" width="0.341" height="0.34"/>
<rect x="4.821" y="2.434" fill="#00AEEF" width="0.455" height="0.285"/>
<rect x="0.224" y="3.401" fill="#00AEEF" width="0.227" height="0.283"/>
<rect x="13.396" y="7.829" fill="#00AEEF" width="0.228" height="0.283"/>
<rect x="12.544" y="7.885" fill="#00AEEF" width="0.454" height="0.285"/>
<rect x="11.806" y="7.829" fill="#00AEEF" width="0.342" height="0.342"/>
<rect x="5.674" y="2.379" fill="#00AEEF" width="0.228" height="0.283"/>
<rect y="1.811" fill="#00AEEF" width="0.117" height="0.396"/>
<rect x="11.067" y="7.829" fill="#00AEEF" width="0.285" height="0.342"/>
<rect x="6.298" y="2.434" fill="#00AEEF" width="0.284" height="0.285"/>
<polyline fill="#00AEEF" points="5.983,30.477 6.071,29.506 6.582,28.598 6.923,28.881 6.412,29.563 6.325,30.477 5.983,30.477 "/>
<rect x="6.753" y="0.959" fill="#00AEEF" width="0.34" height="0.341"/>
<rect x="14.077" y="3.797" fill="#00AEEF" width="0.227" height="0.283"/>
<polyline fill="#00AEEF" points="6.728,30.477 6.866,30.131 7.377,29.45 7.604,29.903 7.235,30.477 6.728,30.477 "/>
<rect x="7.491" y="1.016" fill="#00AEEF" width="0.453" height="0.284"/>
<rect x="13.226" y="3.854" fill="#00AEEF" width="0.455" height="0.285"/>
<rect x="12.487" y="3.797" fill="#00AEEF" width="0.341" height="0.342"/>
<polyline fill="#00AEEF" points="7.702,30.477 7.831,30.245 7.86,30.477 7.702,30.477 "/>
<rect x="11.749" y="3.797" fill="#00AEEF" width="0.284" height="0.342"/>
<rect x="5.446" y="4.706" fill="#00AEEF" width="0.285" height="0.342"/>
<rect x="13.623" y="0.731" fill="#00AEEF" width="0.454" height="0.284"/>
<rect x="6.185" y="4.706" fill="#00AEEF" width="0.342" height="0.342"/>
<rect x="12.885" y="0.675" fill="#00AEEF" width="0.341" height="0.341"/>
<rect x="6.923" y="4.762" fill="#00AEEF" width="0.454" height="0.285"/>
<rect x="6.015" y="0.959" fill="#00AEEF" width="0.283" height="0.341"/>
<rect x="7.774" y="4.706" fill="#00AEEF" width="0.228" height="0.283"/>
<rect x="5.333" y="0.959" fill="#00AEEF" width="0.284" height="0.283"/>
<rect x="2.381" y="0.901" fill="#00AEEF" width="0.284" height="0.341"/>
<rect x="4.709" y="0.901" fill="#00AEEF" width="0.228" height="0.284"/>
<rect x="3.856" y="0.959" fill="#00AEEF" width="0.455" height="0.283"/>
<rect x="3.119" y="0.901" fill="#00AEEF" width="0.341" height="0.341"/>
<polyline fill="#00AEEF" points="11.579,28.836 11.181,28.836 10.784,28.213 10.954,28.042 11.408,28.325 11.579,28.836 "/>
<rect x="12.317" y="29.518" fill="#00AEEF" width="0.227" height="0.285"/>
<rect x="11.465" y="29.575" fill="#00AEEF" width="0.454" height="0.283"/>
<rect x="20.257" y="24.237" fill="#00AEEF" width="0.063" height="0.285"/>
<rect x="11.749" y="23.954" fill="#00AEEF" width="3.861" height="0.398"/>
<rect x="6.81" y="24.749" fill="#00AEEF" width="0.228" height="0.283"/>
<rect x="7.435" y="24.805" fill="#00AEEF" width="0.283" height="0.285"/>
<rect x="5.958" y="24.805" fill="#00AEEF" width="0.454" height="0.285"/>
<rect x="12.26" y="25.543" fill="#00AEEF" width="0.284" height="0.283"/>
<rect x="5.22" y="24.749" fill="#00AEEF" width="0.34" height="0.342"/>
<rect x="11.636" y="25.487" fill="#00AEEF" width="0.227" height="0.283"/>
<rect x="4.481" y="24.749" fill="#00AEEF" width="0.283" height="0.342"/>
<rect x="10.784" y="25.543" fill="#00AEEF" width="0.453" height="0.283"/>
<rect x="10.046" y="25.487" fill="#00AEEF" width="0.34" height="0.34"/>
<rect x="9.308" y="25.487" fill="#00AEEF" width="0.284" height="0.34"/>
<rect x="1.586" y="16.516" fill="#00AEEF" width="0.454" height="0.283"/>
<rect x="0.849" y="16.459" fill="#00AEEF" width="0.34" height="0.34"/>
<rect x="7.718" y="9.475" fill="#00AEEF" width="0.284" height="0.285"/>
<rect x="5.674" y="11.405" fill="#00AEEF" width="0.284" height="0.285"/>
<rect x="7.093" y="9.418" fill="#00AEEF" width="0.227" height="0.283"/>
<rect x="5.049" y="11.35" fill="#00AEEF" width="0.228" height="0.283"/>
<rect x="2.778" y="12.598" fill="#00AEEF" width="0.283" height="0.285"/>
<rect x="4.198" y="11.405" fill="#00AEEF" width="0.453" height="0.285"/>
<rect x="6.242" y="9.475" fill="#00AEEF" width="0.454" height="0.285"/>
<rect x="2.153" y="12.542" fill="#00AEEF" width="0.228" height="0.283"/>
<rect x="3.46" y="11.35" fill="#00AEEF" width="0.34" height="0.34"/>
<rect x="5.504" y="9.418" fill="#00AEEF" width="0.341" height="0.342"/>
<rect x="1.302" y="12.598" fill="#00AEEF" width="0.454" height="0.285"/>
<rect x="2.722" y="11.35" fill="#00AEEF" width="0.283" height="0.34"/>
<rect x="4.765" y="9.418" fill="#00AEEF" width="0.284" height="0.342"/>
<rect x="8.399" y="4.762" fill="#00AEEF" width="0.283" height="0.285"/>
<rect x="0.563" y="12.542" fill="#00AEEF" width="0.342" height="0.342"/>
<rect x="1.983" y="11.35" fill="#00AEEF" width="0.283" height="0.283"/>
<rect x="1.358" y="11.293" fill="#00AEEF" width="0.228" height="0.283"/>
<rect x="4.254" y="8.284" fill="#00AEEF" width="0.284" height="0.283"/>
<rect x="0.507" y="11.35" fill="#00AEEF" width="0.454" height="0.283"/>
<rect x="3.63" y="8.227" fill="#00AEEF" width="0.227" height="0.283"/>
<rect x="8.342" y="0.959" fill="#00AEEF" width="0.228" height="0.283"/>
<rect x="2.778" y="8.284" fill="#00AEEF" width="0.453" height="0.283"/>
<rect x="2.04" y="8.227" fill="#00AEEF" width="0.341" height="0.34"/>
<rect x="1.302" y="8.227" fill="#00AEEF" width="0.284" height="0.34"/>
<rect x="0.905" y="6.125" fill="#00AEEF" width="0.227" height="0.283"/>
<rect x="1.019" y="3.401" fill="#00AEEF" width="0.227" height="0.283"/>
<rect x="20.152" y="28.042" fill="#00AEEF" width="0.168" height="0.283"/>
<rect x="20.144" y="12.542" fill="#00AEEF" width="0.176" height="0.342"/>
<rect x="19.925" y="17.368" fill="#00AEEF" width="0.283" height="0.283"/>
<rect x="20.087" y="11.293" fill="#00AEEF" width="0.232" height="0.34"/>
<rect x="19.472" y="28.155" fill="#00AEEF" width="0.283" height="0.285"/>
<rect x="19.755" y="13.733" fill="#00AEEF" width="0.283" height="0.285"/>
<rect x="18.847" y="28.098" fill="#00AEEF" width="0.227" height="0.285"/>
<rect x="19.3" y="17.311" fill="#00AEEF" width="0.229" height="0.283"/>
<rect x="19.869" y="6.125" fill="#00AEEF" width="0.229" height="0.283"/>
<rect x="17.996" y="28.155" fill="#00AEEF" width="0.453" height="0.285"/>
<rect x="17.257" y="28.098" fill="#00AEEF" width="0.34" height="0.342"/>
<rect x="19.13" y="13.678" fill="#00AEEF" width="0.227" height="0.283"/>
<rect x="18.449" y="17.368" fill="#00AEEF" width="0.455" height="0.283"/>
<rect x="16.519" y="28.098" fill="#00AEEF" width="0.284" height="0.342"/>
<rect x="17.71" y="17.311" fill="#00AEEF" width="0.342" height="0.34"/>
<rect x="18.279" y="13.733" fill="#00AEEF" width="0.455" height="0.285"/>
<rect x="17.71" y="7.885" fill="#00AEEF" width="0.285" height="0.285"/>
<rect x="18.279" y="1.811" fill="#00AEEF" width="2.041" height="0.396"/>
<polyline fill="#00AEEF" points="20.32,10.838 20.087,10.838 19.691,10.213 19.861,10.043 20.316,10.327 20.32,10.338 20.32,10.838 
	"/>
<polyline fill="#00AEEF" points="19.578,10.838 19.236,10.838 19.179,10.327 19.578,10.838 "/>
<rect x="19.017" y="6.125" fill="#00AEEF" width="0.227" height="0.283"/>
<rect x="18.619" y="7.885" fill="#00AEEF" width="0.229" height="0.285"/>
<rect x="19.351" y="11.293" fill="#00AEEF" width="0.281" height="0.34"/>
<polyline fill="#00AEEF" points="7.235,0 7.093,0.221 6.64,0.221 6.728,0 7.235,0 "/>
<polyline fill="#00AEEF" points="7.86,0 7.888,0.221 7.548,0.277 7.702,0 7.86,0 "/>
<polyline fill="#00AEEF" points="6.325,0 6.298,0.277 5.958,0.277 5.983,0 6.325,0 "/>
<rect x="5.049" fill="#00AEEF" width="0.511" height="0.277"/>
<polyline fill="#00AEEF" points="4.696,0 4.709,0.277 4.368,0.277 4.368,0 4.696,0 "/>
<polyline fill="#00AEEF" points="3.944,0 4.084,0.335 3.8,0.335 3.465,0 3.944,0 "/>
<polyline fill="#00AEEF" points="2.927,0 3.176,0.221 2.778,0.335 2.711,0 2.927,0 "/>
<rect x="12.714" y="9.022" fill="#00AEEF" width="0.342" height="0.34"/>
<rect x="14.021" y="7.885" fill="#00AEEF" width="0.283" height="0.285"/>
<polyline fill="#00AEEF" points="1.188,10.782 1.586,10.782 1.813,10.27 1.813,9.817 1.302,10.157 1.188,10.782 "/>
<rect x="11.522" y="12.428" fill="#00AEEF" width="0.283" height="0.283"/>
<rect x="5.049" y="28.143" fill="#00AEEF" width="0.511" height="2.334"/>
<rect x="2.608" y="14.131" fill="#00AEEF" width="4.371" height="0.396"/>
<rect x="13.453" y="9.079" fill="#00AEEF" width="0.454" height="0.283"/>
<rect x="14.304" y="9.022" fill="#00AEEF" width="0.227" height="0.283"/>
<rect x="0.394" y="8.795" fill="#00AEEF" width="0.512" height="1.986"/>
<polyline fill="#00AEEF" points="0,10.338 0.166,10.838 0,10.838 0,10.338 "/>
<rect y="11.293" fill="#00AEEF" width="0.11" height="0.34"/>
<polyline fill="#00AEEF" points="3.176,21.967 3.46,21.967 3.46,21.456 3.176,21.967 "/>
<rect x="11.749" y="16.459" fill="#00AEEF" width="0.341" height="0.34"/>
<rect y="12.542" fill="#00AEEF" width="0.11" height="0.342"/>
<polyline fill="#00AEEF" points="2.438,21.909 2.835,21.909 3.062,21.399 3.062,20.944 2.551,21.286 2.438,21.909 "/>
<polyline fill="#00AEEF" points="4.368,30.477 4.368,29.792 3.743,28.995 4.026,28.655 4.651,29.45 4.696,30.477 4.368,30.477 "/>
<rect x="9.989" y="29.518" fill="#00AEEF" width="0.283" height="0.34"/>
<polyline fill="#00AEEF" points="10.67,28.836 10.33,28.836 10.272,28.325 10.67,28.836 "/>
<rect x="0.11" y="16.459" fill="#00AEEF" width="0.283" height="0.34"/>
<rect x="1.644" y="19.922" fill="#00AEEF" width="0.51" height="1.986"/>
<polyline fill="#00AEEF" points="3.465,30.477 3.005,30.018 3.289,29.676 3.8,30.131 3.944,30.477 3.465,30.477 "/>
<rect x="10.728" y="29.518" fill="#00AEEF" width="0.34" height="0.34"/>
<polyline fill="#00AEEF" points="2.711,30.477 2.665,30.245 2.927,30.477 2.711,30.477 "/>
<polyline fill="#00AEEF" points="1.416,21.967 1.019,21.967 0.621,21.342 0.791,21.172 1.245,21.456 1.416,21.967 "/>
<polyline fill="#00AEEF" points="0.507,21.967 0.166,21.967 0.11,21.456 0.507,21.967 "/>
<rect x="11.806" y="26.793" fill="#00AEEF" width="0.512" height="1.986"/>
<rect x="0.507" y="24.295" fill="#00AEEF" width="0.227" height="0.283"/>
<rect x="13.112" y="25.543" fill="#00AEEF" width="0.227" height="0.283"/>
<rect y="24.237" fill="#00AEEF" width="0.166" height="0.285"/>
<rect x="0.507" y="27.872" fill="#00AEEF" width="0.227" height="0.283"/>
<polyline fill="#00AEEF" points="12.601,28.78 12.998,28.78 13.226,28.27 13.226,27.815 12.714,28.155 12.601,28.78 "/>
<polyline fill="#00AEEF" points="13.339,28.836 13.623,28.836 13.623,28.325 13.339,28.836 "/>
<rect y="28.042" fill="#00AEEF" width="0.062" height="0.283"/>
</svg>
