<?xml version="1.0" encoding="utf-8"?>
<!-- Generator: Adobe Illustrator 14.0.0, SVG Export Plug-In  -->
<!DOCTYPE svg PUBLIC "-//W3C//DTD SVG 1.1//EN" "http://www.w3.org/Graphics/SVG/1.1/DTD/svg11.dtd" [
	<!ENTITY ns_flows "http://ns.adobe.com/Flows/1.0/">
]>
<svg version="1.1"
	 xmlns="http://www.w3.org/2000/svg" xmlns:xlink="http://www.w3.org/1999/xlink" xmlns:a="http://ns.adobe.com/AdobeSVGViewerExtensions/3.0/"
	 x="0px" y="0px" width="35.898px" height="36px" viewBox="0 0 35.898 36" enable-background="new 0 0 35.898 36"
	 xml:space="preserve">
<defs>
</defs>
<rect fill="none" width="35.898" height="36"/>
<circle fill="#990000" cx="0.599" cy="0.2" r="0.2"/>
<path fill="#990000" d="M7.946,0.748C7.904,0.79,7.852,0.826,7.783,0.855c-0.17,0.072-0.584,0.117-0.721-0.032
	C6.926,0.675,6.894,0.564,6.899,0.372C6.9,0.35,6.898,0,6.898,0H8.1C8.1,0.271,8.131,0.563,7.946,0.748z"/>
<circle fill="#990000" cx="9.2" cy="0.2" r="0.2"/>
<circle fill="#990000" cx="10.499" cy="0.2" r="0.2"/>
<circle fill="#990000" cx="15.2" cy="0.2" r="0.2"/>
<circle fill="#990000" cx="22.499" cy="0.2" r="0.2"/>
<circle fill="#990000" cx="27.699" cy="0.2" r="0.199"/>
<circle fill="#990000" cx="29.4" cy="0.2" r="0.201"/>
<circle fill="#990000" cx="31.499" cy="0.2" r="0.2"/>
<circle fill="#990000" cx="33.3" cy="0.2" r="0.2"/>
<ellipse fill="#990000" cx="1.899" cy="0.65" rx="0.2" ry="0.25"/>
<ellipse fill="#990000" cx="4.499" cy="0.65" rx="0.2" ry="0.25"/>
<ellipse fill="#990000" cx="5.8" cy="0.65" rx="0.2" ry="0.25"/>
<circle fill="#990000" cx="12.649" cy="0.65" r="0.25"/>
<ellipse fill="#990000" cx="16.949" cy="0.65" rx="0.15" ry="0.25"/>
<ellipse fill="#990000" cx="17.8" cy="0.65" rx="0.2" ry="0.25"/>
<ellipse fill="#990000" cx="19.099" cy="0.65" rx="0.2" ry="0.25"/>
<ellipse fill="#990000" cx="20.8" cy="0.65" rx="0.2" ry="0.25"/>
<ellipse fill="#990000" cx="25.499" cy="0.65" rx="0.2" ry="0.25"/>
<ellipse fill="#990000" cx="34.999" cy="0.65" rx="0.2" ry="0.25"/>
<circle fill="#990000" cx="2.8" cy="1.1" r="0.2"/>
<circle fill="#990000" cx="9.599" cy="1.1" r="0.2"/>
<circle fill="#990000" cx="11.399" cy="1.1" r="0.2"/>
<circle fill="#990000" cx="14.399" cy="1.1" r="0.2"/>
<circle fill="#990000" cx="24.199" cy="1.1" r="0.199"/>
<ellipse fill="#990000" cx="26.85" cy="1.5" rx="0.65" ry="0.601"/>
<circle fill="#990000" cx="32.8" cy="1.1" r="0.2"/>
<circle fill="#990000" cx="0.2" cy="1.5" r="0.2"/>
<circle fill="#990000" cx="4.899" cy="1.5" r="0.2"/>
<circle fill="#990000" cx="6.2" cy="1.5" r="0.2"/>
<circle fill="#990000" cx="7.499" cy="1.5" r="0.2"/>
<circle fill="#990000" cx="12.2" cy="1.5" r="0.2"/>
<circle fill="#990000" cx="16.099" cy="1.5" r="0.2"/>
<circle fill="#990000" cx="22.499" cy="1.5" r="0.2"/>
<ellipse fill="#990000" cx="28.549" cy="1.5" rx="0.25" ry="0.2"/>
<circle fill="#990000" cx="30.3" cy="1.5" r="0.2"/>
<circle fill="#990000" cx="1.499" cy="1.9" r="0.2"/>
<circle fill="#990000" cx="3.599" cy="1.9" r="0.2"/>
<circle fill="#990000" cx="8.8" cy="1.9" r="0.2"/>
<circle fill="#990000" cx="10.499" cy="1.9" r="0.2"/>
<circle fill="#990000" cx="13.099" cy="1.9" r="0.2"/>
<circle fill="#990000" cx="17.399" cy="1.9" r="0.2"/>
<circle fill="#990000" cx="18.699" cy="1.9" r="0.199"/>
<ellipse fill="#990000" cx="19.949" cy="1.9" rx="0.15" ry="0.2"/>
<circle fill="#990000" cx="21.199" cy="1.9" r="0.199"/>
<circle fill="#990000" cx="25.099" cy="1.9" r="0.2"/>
<circle fill="#990000" cx="31.999" cy="1.9" r="0.2"/>
<circle fill="#990000" cx="34.099" cy="1.9" r="0.2"/>
<circle fill="#990000" cx="35.4" cy="1.9" r="0.201"/>
<ellipse fill="#990000" cx="13.949" cy="2.4" rx="0.25" ry="0.2"/>
<circle fill="#990000" cx="0.599" cy="2.8" r="0.2"/>
<ellipse fill="#990000" cx="2.35" cy="2.8" rx="0.15" ry="0.2"/>
<ellipse fill="#990000" cx="5.35" cy="2.8" rx="0.15" ry="0.2"/>
<circle fill="#990000" cx="7.899" cy="2.8" r="0.2"/>
<circle fill="#990000" cx="9.599" cy="2.8" r="0.2"/>
<circle fill="#990000" cx="11.8" cy="2.8" r="0.2"/>
<circle fill="#990000" cx="15.7" cy="2.8" r="0.2"/>
<ellipse fill="#990000" cx="16.949" cy="2.8" rx="0.15" ry="0.2"/>
<circle fill="#990000" cx="22.499" cy="2.8" r="0.2"/>
<circle fill="#990000" cx="23.8" cy="2.8" r="0.2"/>
<ellipse fill="#990000" cx="27.25" cy="2.8" rx="0.25" ry="0.2"/>
<circle fill="#990000" cx="28.999" cy="2.8" r="0.2"/>
<circle fill="#990000" cx="33.3" cy="2.8" r="0.2"/>
<circle fill="#990000" cx="4.099" cy="3.2" r="0.2"/>
<circle fill="#990000" cx="6.599" cy="3.2" r="0.2"/>
<circle fill="#990000" cx="8.8" cy="3.2" r="0.2"/>
<circle fill="#990000" cx="18.699" cy="3.2" r="0.199"/>
<ellipse fill="#990000" cx="19.949" cy="3.2" rx="0.15" ry="0.2"/>
<circle fill="#990000" cx="21.199" cy="3.2" r="0.199"/>
<circle fill="#990000" cx="25.499" cy="3.2" r="0.2"/>
<circle fill="#990000" cx="30.699" cy="3.2" r="0.199"/>
<circle fill="#990000" cx="34.999" cy="3.2" r="0.2"/>
<ellipse fill="#990000" cx="10.499" cy="3.65" rx="0.2" ry="0.25"/>
<circle fill="#990000" cx="13.949" cy="3.65" r="0.25"/>
<circle fill="#990000" cx="1.099" cy="4.1" r="0.2"/>
<circle fill="#990000" cx="2.8" cy="4.1" r="0.2"/>
<ellipse fill="#990000" cx="5.35" cy="4.1" rx="0.15" ry="0.2"/>
<circle fill="#990000" cx="11.8" cy="4.1" r="0.2"/>
<circle fill="#990000" cx="15.2" cy="4.1" r="0.2"/>
<circle fill="#990000" cx="16.499" cy="4.1" r="0.2"/>
<circle fill="#990000" cx="17.8" cy="4.1" r="0.2"/>
<circle fill="#990000" cx="19.099" cy="4.1" r="0.2"/>
<circle fill="#990000" cx="20.399" cy="4.1" r="0.2"/>
<circle fill="#990000" cx="22.099" cy="4.1" r="0.2"/>
<circle fill="#990000" cx="24.199" cy="4.1" r="0.199"/>
<circle fill="#990000" cx="26.4" cy="4.1" r="0.201"/>
<circle fill="#990000" cx="27.699" cy="4.1" r="0.199"/>
<circle fill="#990000" cx="29.4" cy="4.1" r="0.201"/>
<circle fill="#990000" cx="31.999" cy="4.1" r="0.2"/>
<circle fill="#990000" cx="33.699" cy="4.1" r="0.199"/>
<circle fill="#990000" cx="34.999" cy="4.1" r="0.2"/>
<ellipse fill="#990000" cx="35.75" cy="4.1" rx="0.149" ry="0.2"/>
<circle fill="#990000" cx="0.2" cy="4.5" r="0.2"/>
<circle fill="#990000" cx="4.099" cy="4.5" r="0.2"/>
<ellipse fill="#990000" cx="8.35" cy="4.5" rx="0.15" ry="0.2"/>
<circle fill="#990000" cx="10.099" cy="4.5" r="0.2"/>
<circle fill="#990000" cx="6.599" cy="4.9" r="0.2"/>
<circle fill="#990000" cx="11.399" cy="4.9" r="0.2"/>
<circle fill="#990000" cx="13.099" cy="4.9" r="0.2"/>
<circle fill="#990000" cx="14.399" cy="4.9" r="0.2"/>
<circle fill="#990000" cx="16.499" cy="4.9" r="0.2"/>
<circle fill="#990000" cx="18.699" cy="4.9" r="0.199"/>
<circle fill="#990000" cx="21.699" cy="4.9" r="0.199"/>
<circle fill="#990000" cx="23.4" cy="4.9" r="0.201"/>
<circle fill="#990000" cx="25.099" cy="4.9" r="0.2"/>
<circle fill="#990000" cx="30.699" cy="4.9" r="0.199"/>
<circle fill="#990000" cx="1.499" cy="5.4" r="0.2"/>
<circle fill="#990000" cx="2.8" cy="5.4" r="0.2"/>
<ellipse fill="#990000" cx="5.35" cy="5.4" rx="0.15" ry="0.2"/>
<circle fill="#990000" cx="17.8" cy="5.4" r="0.2"/>
<circle fill="#990000" cx="19.499" cy="5.4" r="0.2"/>
<circle fill="#990000" cx="26.4" cy="5.4" r="0.201"/>
<circle fill="#990000" cx="27.699" cy="5.4" r="0.199"/>
<circle fill="#990000" cx="32.8" cy="5.4" r="0.2"/>
<circle fill="#990000" cx="34.099" cy="5.4" r="0.2"/>
<circle fill="#990000" cx="35.4" cy="5.4" r="0.201"/>
<circle fill="#990000" cx="3.599" cy="5.8" r="0.2"/>
<circle fill="#990000" cx="7.899" cy="5.8" r="0.2"/>
<circle fill="#990000" cx="10.099" cy="5.8" r="0.2"/>
<circle fill="#990000" cx="15.25" cy="6.25" r="0.65"/>
<circle fill="#990000" cx="2.318" cy="10.522" r="0.65"/>
<circle fill="#990000" cx="20.8" cy="5.8" r="0.2"/>
<circle fill="#990000" cx="22.499" cy="5.8" r="0.2"/>
<circle fill="#990000" cx="24.199" cy="5.8" r="0.199"/>
<circle fill="#990000" cx="29.4" cy="5.8" r="0.201"/>
<circle fill="#990000" cx="31.549" cy="6.25" r="0.65"/>
<circle fill="#990000" cx="0.2" cy="6.2" r="0.2"/>
<circle fill="#990000" cx="6.2" cy="6.2" r="0.2"/>
<circle fill="#990000" cx="8.8" cy="6.2" r="0.2"/>
<circle fill="#990000" cx="12.2" cy="6.2" r="0.2"/>
<circle fill="#990000" cx="13.099" cy="6.2" r="0.2"/>
<circle fill="#990000" cx="16.499" cy="6.2" r="0.2"/>
<circle fill="#990000" cx="17.8" cy="6.2" r="0.2"/>
<circle fill="#990000" cx="25.499" cy="6.2" r="0.2"/>
<circle fill="#990000" cx="26.8" cy="6.2" r="0.2"/>
<ellipse fill="#990000" cx="2.35" cy="6.649" rx="0.15" ry="0.25"/>
<ellipse fill="#990000" cx="4.899" cy="6.649" rx="0.2" ry="0.25"/>
<ellipse fill="#990000" cx="11.399" cy="6.649" rx="0.2" ry="0.25"/>
<ellipse fill="#990000" cx="19.099" cy="6.649" rx="0.2" ry="0.25"/>
<ellipse fill="#990000" cx="30.3" cy="6.649" rx="0.2" ry="0.25"/>
<ellipse fill="#990000" cx="32.8" cy="6.649" rx="0.2" ry="0.25"/>
<ellipse fill="#990000" cx="34.099" cy="6.649" rx="0.2" ry="0.25"/>
<ellipse fill="#990000" cx="35.4" cy="6.649" rx="0.201" ry="0.25"/>
<circle fill="#990000" cx="3.599" cy="7.1" r="0.2"/>
<circle fill="#990000" cx="20.399" cy="7.1" r="0.2"/>
<circle fill="#990000" cx="22.099" cy="7.1" r="0.2"/>
<circle fill="#990000" cx="23.4" cy="7.1" r="0.201"/>
<circle fill="#990000" cx="24.699" cy="7.1" r="0.199"/>
<circle fill="#990000" cx="28.099" cy="7.1" r="0.2"/>
<circle fill="#990000" cx="1.899" cy="7.5" r="0.2"/>
<circle fill="#990000" cx="5.8" cy="7.5" r="0.2"/>
<circle fill="#990000" cx="7.099" cy="7.5" r="0.2"/>
<circle fill="#990000" cx="10.499" cy="7.5" r="0.2"/>
<circle fill="#990000" cx="15.2" cy="7.5" r="0.2"/>
<circle fill="#990000" cx="17.8" cy="7.5" r="0.2"/>
<circle fill="#990000" cx="1.099" cy="7.9" r="0.2"/>
<circle fill="#990000" cx="3.2" cy="7.9" r="0.2"/>
<circle fill="#990000" cx="4.499" cy="7.9" r="0.2"/>
<ellipse fill="#990000" cx="8.35" cy="7.9" rx="0.15" ry="0.2"/>
<circle fill="#990000" cx="9.2" cy="7.9" r="0.2"/>
<ellipse fill="#990000" cx="12.649" cy="7.9" rx="0.25" ry="0.2"/>
<ellipse fill="#990000" cx="13.949" cy="7.9" rx="0.25" ry="0.2"/>
<circle fill="#990000" cx="16.499" cy="7.9" r="0.2"/>
<circle fill="#990000" cx="19.099" cy="7.9" r="0.2"/>
<ellipse fill="#990000" cx="22.95" cy="7.9" rx="0.151" ry="0.2"/>
<circle fill="#990000" cx="24.199" cy="7.9" r="0.199"/>
<circle fill="#990000" cx="25.499" cy="7.9" r="0.2"/>
<circle fill="#990000" cx="26.8" cy="7.9" r="0.2"/>
<circle fill="#990000" cx="29.4" cy="7.9" r="0.201"/>
<circle fill="#990000" cx="32.8" cy="7.9" r="0.2"/>
<circle fill="#990000" cx="34.099" cy="7.9" r="0.2"/>
<circle fill="#990000" cx="35.4" cy="7.9" r="0.201"/>
<ellipse fill="#990000" cx="0.2" cy="8.351" rx="0.2" ry="0.25"/>
<ellipse fill="#990000" cx="11.399" cy="8.351" rx="0.2" ry="0.25"/>
<ellipse fill="#990000" cx="17.8" cy="8.351" rx="0.2" ry="0.25"/>
<ellipse fill="#990000" cx="21.699" cy="8.351" rx="0.199" ry="0.25"/>
<ellipse fill="#990000" cx="31.099" cy="8.351" rx="0.2" ry="0.25"/>
<ellipse fill="#990000" cx="2.35" cy="8.8" rx="0.15" ry="0.2"/>
<circle fill="#990000" cx="4.099" cy="8.8" r="0.2"/>
<circle fill="#990000" cx="6.2" cy="8.8" r="0.2"/>
<circle fill="#990000" cx="12.2" cy="8.8" r="0.2"/>
<circle fill="#990000" cx="15.2" cy="8.8" r="0.2"/>
<circle fill="#990000" cx="20.399" cy="8.8" r="0.2"/>
<ellipse fill="#990000" cx="5.35" cy="9.2" rx="0.15" ry="0.199"/>
<circle fill="#990000" cx="7.499" cy="9.2" r="0.2"/>
<circle fill="#990000" cx="10.499" cy="9.2" r="0.2"/>
<circle fill="#990000" cx="13.499" cy="9.2" r="0.2"/>
<circle fill="#990000" cx="16.499" cy="9.2" r="0.2"/>
<circle fill="#990000" cx="24.199" cy="9.2" r="0.199"/>
<circle fill="#990000" cx="25.099" cy="9.2" r="0.2"/>
<circle fill="#990000" cx="26.4" cy="9.2" r="0.201"/>
<circle fill="#990000" cx="27.699" cy="9.2" r="0.199"/>
<circle fill="#990000" cx="29.8" cy="9.2" r="0.2"/>
<circle fill="#990000" cx="33.3" cy="9.2" r="0.2"/>
<ellipse fill="#990000" cx="34.549" cy="9.2" rx="0.15" ry="0.199"/>
<ellipse fill="#990000" cx="35.75" cy="9.2" rx="0.149" ry="0.199"/>
<ellipse fill="#990000" cx="1.099" cy="9.649" rx="0.2" ry="0.25"/>
<ellipse fill="#990000" cx="3.2" cy="9.649" rx="0.2" ry="0.25"/>
<ellipse fill="#990000" cx="8.8" cy="9.649" rx="0.2" ry="0.25"/>
<ellipse fill="#990000" cx="11.399" cy="9.649" rx="0.2" ry="0.25"/>
<ellipse fill="#990000" cx="17.8" cy="9.649" rx="0.2" ry="0.25"/>
<ellipse fill="#990000" cx="19.499" cy="9.649" rx="0.2" ry="0.25"/>
<ellipse fill="#990000" cx="22.95" cy="9.649" rx="0.151" ry="0.25"/>
<ellipse fill="#990000" cx="31.999" cy="9.649" rx="0.2" ry="0.25"/>
<circle fill="#990000" cx="0.2" cy="10.1" r="0.2"/>
<circle fill="#990000" cx="4.499" cy="10.1" r="0.2"/>
<circle fill="#990000" cx="6.599" cy="10.1" r="0.2"/>
<circle fill="#990000" cx="12.2" cy="10.1" r="0.2"/>
<circle fill="#990000" cx="13.499" cy="10.1" r="0.2"/>
<circle fill="#990000" cx="14.399" cy="10.1" r="0.2"/>
<circle fill="#990000" cx="15.7" cy="10.1" r="0.2"/>
<circle fill="#990000" cx="21.699" cy="10.1" r="0.199"/>
<ellipse fill="#990000" cx="28.549" cy="10.1" rx="0.25" ry="0.2"/>
<circle fill="#990000" cx="30.699" cy="10.1" r="0.199"/>
<circle fill="#990000" cx="10.099" cy="10.5" r="0.2"/>
<ellipse fill="#990000" cx="16.949" cy="10.5" rx="0.15" ry="0.2"/>
<circle fill="#990000" cx="18.699" cy="10.5" r="0.199"/>
<circle fill="#990000" cx="20.8" cy="10.5" r="0.2"/>
<circle fill="#990000" cx="23.4" cy="10.5" r="0.201"/>
<circle fill="#990000" cx="24.199" cy="10.5" r="0.199"/>
<circle fill="#990000" cx="25.099" cy="10.5" r="0.2"/>
<circle fill="#990000" cx="26.4" cy="10.5" r="0.201"/>
<circle fill="#990000" cx="34.099" cy="10.5" r="0.2"/>
<circle fill="#990000" cx="35.4" cy="10.5" r="0.201"/>
<ellipse fill="#990000" cx="5.35" cy="10.9" rx="0.15" ry="0.2"/>
<circle fill="#990000" cx="7.899" cy="10.9" r="0.2"/>
<circle fill="#990000" cx="11.399" cy="10.9" r="0.2"/>
<circle fill="#990000" cx="16.099" cy="10.9" r="0.2"/>
<ellipse fill="#990000" cx="19.949" cy="10.9" rx="0.15" ry="0.2"/>
<circle fill="#990000" cx="22.499" cy="10.9" r="0.2"/>
<circle fill="#990000" cx="27.699" cy="10.9" r="0.199"/>
<circle fill="#990000" cx="29.4" cy="10.9" r="0.201"/>
<circle fill="#990000" cx="32.8" cy="10.9" r="0.2"/>
<ellipse fill="#990000" cx="0.2" cy="11.351" rx="0.2" ry="0.25"/>
<ellipse fill="#990000" cx="3.599" cy="11.351" rx="0.2" ry="0.25"/>
<ellipse fill="#990000" cx="6.599" cy="11.351" rx="0.2" ry="0.25"/>
<ellipse fill="#990000" cx="8.8" cy="11.351" rx="0.2" ry="0.25"/>
<ellipse fill="#990000" cx="12.2" cy="11.351" rx="0.2" ry="0.25"/>
<ellipse fill="#990000" cx="13.499" cy="11.351" rx="0.2" ry="0.25"/>
<ellipse fill="#990000" cx="14.8" cy="11.351" rx="0.2" ry="0.25"/>
<ellipse fill="#990000" cx="17.8" cy="11.351" rx="0.2" ry="0.25"/>
<ellipse fill="#990000" cx="21.699" cy="11.351" rx="0.199" ry="0.25"/>
<ellipse fill="#990000" cx="22.093" cy="12.609" rx="0.2" ry="0.25"/>
<ellipse fill="#990000" cx="31.499" cy="11.351" rx="0.2" ry="0.25"/>
<circle fill="#990000" cx="2.8" cy="11.8" r="0.2"/>
<circle fill="#990000" cx="10.099" cy="11.8" r="0.2"/>
<circle fill="#990000" cx="19.099" cy="11.8" r="0.2"/>
<circle fill="#990000" cx="20.8" cy="11.8" r="0.2"/>
<circle fill="#990000" cx="24.199" cy="11.8" r="0.199"/>
<circle fill="#990000" cx="25.099" cy="11.8" r="0.2"/>
<circle fill="#990000" cx="26.4" cy="11.8" r="0.201"/>
<ellipse fill="#990000" cx="28.549" cy="11.8" rx="0.25" ry="0.2"/>
<circle fill="#990000" cx="30.3" cy="11.8" r="0.2"/>
<ellipse fill="#990000" cx="5.35" cy="12.2" rx="0.15" ry="0.199"/>
<circle fill="#990000" cx="7.899" cy="12.2" r="0.2"/>
<circle fill="#990000" cx="10.899" cy="12.2" r="0.2"/>
<circle fill="#990000" cx="15.2" cy="12.2" r="0.2"/>
<ellipse fill="#990000" cx="16.949" cy="12.2" rx="0.15" ry="0.199"/>
<ellipse fill="#990000" cx="22.95" cy="12.2" rx="0.151" ry="0.199"/>
<circle fill="#990000" cx="33.699" cy="12.2" r="0.199"/>
<circle fill="#990000" cx="34.999" cy="12.2" r="0.2"/>
<ellipse fill="#990000" cx="1.499" cy="12.649" rx="0.2" ry="0.25"/>
<ellipse fill="#990000" cx="4.099" cy="12.649" rx="0.2" ry="0.25"/>
<ellipse fill="#990000" cx="6.599" cy="12.649" rx="0.2" ry="0.25"/>
<ellipse fill="#990000" cx="8.8" cy="12.649" rx="0.2" ry="0.25"/>
<ellipse fill="#990000" cx="12.2" cy="12.649" rx="0.2" ry="0.25"/>
<circle fill="#990000" cx="13.949" cy="12.649" r="0.25"/>
<ellipse fill="#990000" cx="19.949" cy="12.649" rx="0.15" ry="0.25"/>
<ellipse fill="#990000" cx="27.699" cy="12.649" rx="0.199" ry="0.25"/>
<ellipse fill="#990000" cx="29.4" cy="12.649" rx="0.201" ry="0.25"/>
<ellipse fill="#990000" cx="32.4" cy="12.649" rx="0.201" ry="0.25"/>
<circle fill="#990000" cx="0.2" cy="13.1" r="0.2"/>
<circle fill="#990000" cx="10.099" cy="13.1" r="0.2"/>
<circle fill="#990000" cx="15.7" cy="13.1" r="0.2"/>
<circle fill="#990000" cx="18.2" cy="13.1" r="0.2"/>
<circle fill="#990000" cx="24.699" cy="13.1" r="0.199"/>
<circle fill="#990000" cx="31.099" cy="13.1" r="0.2"/>
<ellipse fill="#990000" cx="5.35" cy="13.5" rx="0.15" ry="0.2"/>
<circle fill="#990000" cx="7.899" cy="13.5" r="0.2"/>
<circle fill="#990000" cx="10.899" cy="13.5" r="0.2"/>
<circle fill="#990000" cx="14.8" cy="13.5" r="0.2"/>
<circle fill="#990000" cx="23.4" cy="13.5" r="0.201"/>
<circle fill="#990000" cx="34.099" cy="13.5" r="0.2"/>
<circle fill="#990000" cx="35.4" cy="13.5" r="0.201"/>
<circle fill="#990000" cx="3.2" cy="13.9" r="0.2"/>
<circle fill="#990000" cx="8.8" cy="13.9" r="0.2"/>
<circle fill="#990000" cx="12.2" cy="13.9" r="0.2"/>
<circle fill="#990000" cx="13.5" cy="14.3" r="0.2"/>
<circle fill="#990000" cx="16.499" cy="13.9" r="0.2"/>
<circle fill="#990000" cx="17.8" cy="13.9" r="0.2"/>
<circle fill="#990000" cx="19.099" cy="13.9" r="0.2"/>
<circle fill="#990000" cx="20.399" cy="14.3" r="0.2"/>
<circle fill="#990000" cx="22.499" cy="13.9" r="0.2"/>
<circle fill="#990000" cx="25.499" cy="13.9" r="0.2"/>
<circle fill="#990000" cx="26.8" cy="13.9" r="0.2"/>
<ellipse fill="#990000" cx="28.549" cy="13.9" rx="0.25" ry="0.2"/>
<circle fill="#990000" cx="30.3" cy="13.9" r="0.2"/>
<circle fill="#990000" cx="32.8" cy="13.9" r="0.2"/>
<ellipse fill="#990000" cx="1.099" cy="14.351" rx="0.2" ry="0.25"/>
<ellipse fill="#990000" cx="6.599" cy="14.351" rx="0.2" ry="0.25"/>
<ellipse fill="#990000" cx="10.099" cy="14.351" rx="0.2" ry="0.25"/>
<ellipse fill="#990000" cx="15.7" cy="14.351" rx="0.2" ry="0.25"/>
<ellipse fill="#990000" cx="24.199" cy="14.351" rx="0.199" ry="0.25"/>
<ellipse fill="#990000" cx="31.499" cy="14.351" rx="0.2" ry="0.25"/>
<ellipse fill="#990000" cx="12.649" cy="14.8" rx="0.25" ry="0.2"/>
<circle fill="#990000" cx="23.4" cy="14.8" r="0.201"/>
<circle fill="#990000" cx="27.699" cy="14.8" r="0.199"/>
<circle fill="#990000" cx="28.999" cy="14.8" r="0.2"/>
<circle fill="#990000" cx="30.699" cy="14.8" r="0.199"/>
<circle fill="#990000" cx="1.899" cy="15.2" r="0.2"/>
<circle fill="#990000" cx="3.2" cy="15.2" r="0.2"/>
<ellipse fill="#990000" cx="5.35" cy="15.2" rx="0.15" ry="0.199"/>
<circle fill="#990000" cx="7.899" cy="15.2" r="0.2"/>
<circle fill="#990000" cx="9.2" cy="15.2" r="0.2"/>
<circle fill="#990000" cx="10.949" cy="15.649" r="0.65"/>
<circle fill="#990000" cx="21.211" cy="13.45" r="0.65"/>
<circle fill="#990000" cx="14.399" cy="15.2" r="0.2"/>
<circle fill="#990000" cx="21.699" cy="15.2" r="0.199"/>
<circle fill="#990000" cx="26.4" cy="15.2" r="0.201"/>
<circle fill="#990000" cx="33.699" cy="15.2" r="0.199"/>
<circle fill="#990000" cx="35.4" cy="15.2" r="0.201"/>
<ellipse fill="#990000" cx="0.599" cy="15.649" rx="0.2" ry="0.25"/>
<ellipse fill="#990000" cx="17.399" cy="15.649" rx="0.2" ry="0.25"/>
<ellipse fill="#990000" cx="18.699" cy="15.649" rx="0.199" ry="0.25"/>
<ellipse fill="#990000" cx="19.949" cy="15.649" rx="0.15" ry="0.25"/>
<ellipse fill="#990000" cx="22.95" cy="15.649" rx="0.151" ry="0.25"/>
<ellipse fill="#990000" cx="24.699" cy="15.649" rx="0.199" ry="0.25"/>
<ellipse fill="#990000" cx="32.4" cy="15.649" rx="0.201" ry="0.25"/>
<circle fill="#990000" cx="4.099" cy="16.1" r="0.2"/>
<circle fill="#990000" cx="6.599" cy="16.1" r="0.2"/>
<circle fill="#990000" cx="9.599" cy="16.1" r="0.2"/>
<circle fill="#990000" cx="13.499" cy="16.1" r="0.2"/>
<circle fill="#990000" cx="16.099" cy="16.1" r="0.2"/>
<circle fill="#990000" cx="21.199" cy="16.1" r="0.199"/>
<circle fill="#990000" cx="25.499" cy="16.1" r="0.2"/>
<ellipse fill="#990000" cx="27.25" cy="16.1" rx="0.25" ry="0.2"/>
<circle fill="#990000" cx="29.4" cy="16.1" r="0.201"/>
<circle fill="#990000" cx="31.099" cy="16.1" r="0.2"/>
<ellipse fill="#990000" cx="34.549" cy="16.1" rx="0.15" ry="0.2"/>
<ellipse fill="#990000" cx="12.649" cy="16.5" rx="0.25" ry="0.2"/>
<ellipse fill="#990000" cx="13.949" cy="13.899" rx="0.25" ry="0.201"/>
<circle fill="#990000" cx="22.099" cy="16.5" r="0.2"/>
<circle fill="#990000" cx="23.8" cy="16.5" r="0.2"/>
<circle fill="#990000" cx="1.099" cy="16.9" r="0.2"/>
<ellipse fill="#990000" cx="2.35" cy="16.9" rx="0.15" ry="0.2"/>
<ellipse fill="#990000" cx="5.35" cy="16.9" rx="0.15" ry="0.2"/>
<ellipse fill="#990000" cx="8.35" cy="16.9" rx="0.15" ry="0.2"/>
<circle fill="#990000" cx="10.499" cy="16.9" r="0.2"/>
<circle fill="#990000" cx="11.8" cy="16.9" r="0.2"/>
<circle fill="#990000" cx="14.399" cy="16.9" r="0.2"/>
<circle fill="#990000" cx="18.2" cy="16.9" r="0.2"/>
<circle fill="#990000" cx="19.499" cy="16.9" r="0.2"/>
<ellipse fill="#990000" cx="22.95" cy="16.9" rx="0.151" ry="0.2"/>
<circle fill="#990000" cx="33.3" cy="16.9" r="0.2"/>
<circle fill="#990000" cx="35.4" cy="16.9" r="0.201"/>
<ellipse fill="#990000" cx="3.599" cy="17.351" rx="0.2" ry="0.25"/>
<ellipse fill="#990000" cx="16.499" cy="17.351" rx="0.2" ry="0.25"/>
<ellipse fill="#990000" cx="21.199" cy="17.351" rx="0.199" ry="0.25"/>
<ellipse fill="#990000" cx="24.699" cy="17.351" rx="0.199" ry="0.25"/>
<ellipse fill="#990000" cx="26.4" cy="17.351" rx="0.201" ry="0.25"/>
<ellipse fill="#990000" cx="28.099" cy="17.351" rx="0.2" ry="0.25"/>
<ellipse fill="#990000" cx="30.3" cy="17.351" rx="0.2" ry="0.25"/>
<ellipse fill="#990000" cx="31.999" cy="17.351" rx="0.2" ry="0.25"/>
<circle fill="#990000" cx="7.099" cy="17.8" r="0.2"/>
<circle fill="#990000" cx="11.399" cy="17.8" r="0.2"/>
<circle fill="#990000" cx="13.499" cy="17.8" r="0.2"/>
<circle fill="#990000" cx="15.7" cy="17.8" r="0.2"/>
<ellipse fill="#990000" cx="34.549" cy="17.8" rx="0.15" ry="0.2"/>
<circle fill="#990000" cx="1.099" cy="18.2" r="0.2"/>
<circle fill="#990000" cx="4.499" cy="18.2" r="0.2"/>
<circle fill="#990000" cx="5.8" cy="18.2" r="0.2"/>
<circle fill="#990000" cx="9.2" cy="18.2" r="0.2"/>
<circle fill="#990000" cx="17.8" cy="18.2" r="0.2"/>
<circle fill="#990000" cx="20.8" cy="18.2" r="0.2"/>
<circle fill="#990000" cx="22.499" cy="18.2" r="0.2"/>
<circle fill="#990000" cx="26.8" cy="18.2" r="0.2"/>
<ellipse fill="#990000" cx="31.1" cy="18.649" rx="0.6" ry="0.65"/>
<ellipse fill="#990000" cx="2.35" cy="18.649" rx="0.15" ry="0.25"/>
<ellipse fill="#990000" cx="7.899" cy="18.649" rx="0.2" ry="0.25"/>
<ellipse fill="#990000" cx="10.499" cy="18.649" rx="0.2" ry="0.25"/>
<ellipse fill="#990000" cx="12.2" cy="18.649" rx="0.2" ry="0.25"/>
<ellipse fill="#990000" cx="14.399" cy="18.649" rx="0.2" ry="0.25"/>
<ellipse fill="#990000" cx="19.099" cy="18.649" rx="0.2" ry="0.25"/>
<ellipse fill="#990000" cx="23.4" cy="18.649" rx="0.201" ry="0.25"/>
<ellipse fill="#990000" cx="25.099" cy="18.649" rx="0.2" ry="0.25"/>
<ellipse fill="#990000" cx="29.4" cy="18.649" rx="0.201" ry="0.25"/>
<ellipse fill="#990000" cx="33.3" cy="18.649" rx="0.2" ry="0.25"/>
<ellipse fill="#990000" cx="35.75" cy="18.649" rx="0.149" ry="0.25"/>
<circle fill="#990000" cx="16.099" cy="19.1" r="0.2"/>
<circle fill="#990000" cx="17.8" cy="19.1" r="0.2"/>
<circle fill="#990000" cx="20.8" cy="19.1" r="0.2"/>
<circle fill="#990000" cx="27.699" cy="19.1" r="0.199"/>
<circle fill="#990000" cx="34.999" cy="19.1" r="0.2"/>
<circle fill="#990000" cx="4.099" cy="19.5" r="0.2"/>
<ellipse fill="#990000" cx="5.35" cy="19.5" rx="0.15" ry="0.2"/>
<circle fill="#990000" cx="6.599" cy="19.5" r="0.2"/>
<circle fill="#990000" cx="9.2" cy="19.5" r="0.2"/>
<circle fill="#990000" cx="13.099" cy="19.5" r="0.2"/>
<ellipse fill="#990000" cx="22.95" cy="19.5" rx="0.151" ry="0.2"/>
<circle fill="#990000" cx="25.999" cy="19.5" r="0.2"/>
<circle fill="#990000" cx="32.4" cy="19.5" r="0.201"/>
<circle fill="#990000" cx="0.599" cy="19.9" r="0.2"/>
<circle fill="#990000" cx="10.499" cy="19.9" r="0.2"/>
<circle fill="#990000" cx="11.8" cy="19.9" r="0.2"/>
<circle fill="#990000" cx="14.8" cy="19.9" r="0.2"/>
<circle fill="#990000" cx="19.099" cy="19.9" r="0.2"/>
<circle fill="#990000" cx="20.8" cy="19.9" r="0.2"/>
<circle fill="#990000" cx="22.099" cy="19.9" r="0.2"/>
<circle fill="#990000" cx="24.199" cy="19.9" r="0.199"/>
<circle fill="#990000" cx="28.999" cy="19.9" r="0.2"/>
<circle fill="#990000" cx="34.099" cy="19.9" r="0.2"/>
<ellipse fill="#990000" cx="1.899" cy="20.351" rx="0.2" ry="0.25"/>
<ellipse fill="#990000" cx="7.899" cy="20.351" rx="0.2" ry="0.25"/>
<ellipse fill="#990000" cx="13.499" cy="20.351" rx="0.2" ry="0.25"/>
<ellipse fill="#990000" cx="16.099" cy="20.351" rx="0.2" ry="0.25"/>
<ellipse fill="#990000" cx="17.8" cy="20.351" rx="0.2" ry="0.25"/>
<ellipse fill="#990000" cx="26.8" cy="20.351" rx="0.2" ry="0.25"/>
<ellipse fill="#990000" cx="30.3" cy="20.351" rx="0.2" ry="0.25"/>
<ellipse fill="#990000" cx="31.499" cy="20.351" rx="0.2" ry="0.25"/>
<circle fill="#990000" cx="2.8" cy="20.801" r="0.2"/>
<circle fill="#990000" cx="9.2" cy="20.801" r="0.2"/>
<circle fill="#990000" cx="25.499" cy="20.801" r="0.2"/>
<circle fill="#990000" cx="33.3" cy="20.801" r="0.2"/>
<circle fill="#990000" cx="34.999" cy="20.801" r="0.2"/>
<circle fill="#990000" cx="4.099" cy="21.199" r="0.2"/>
<ellipse fill="#990000" cx="5.35" cy="21.199" rx="0.15" ry="0.2"/>
<circle fill="#990000" cx="6.599" cy="21.199" r="0.2"/>
<circle fill="#990000" cx="10.499" cy="21.199" r="0.2"/>
<circle fill="#990000" cx="12.2" cy="21.199" r="0.2"/>
<circle fill="#990000" cx="14.399" cy="21.199" r="0.2"/>
<circle fill="#990000" cx="19.099" cy="21.199" r="0.2"/>
<circle fill="#990000" cx="20.8" cy="21.199" r="0.2"/>
<circle fill="#990000" cx="23.4" cy="21.199" r="0.201"/>
<circle fill="#990000" cx="27.699" cy="21.199" r="0.199"/>
<circle fill="#990000" cx="0.599" cy="21.6" r="0.2"/>
<circle fill="#990000" cx="7.899" cy="21.6" r="0.2"/>
<circle fill="#990000" cx="15.7" cy="21.6" r="0.2"/>
<circle fill="#990000" cx="24.699" cy="21.6" r="0.199"/>
<ellipse fill="#990000" cx="28.549" cy="21.6" rx="0.25" ry="0.2"/>
<circle fill="#990000" cx="32.4" cy="21.6" r="0.201"/>
<circle fill="#990000" cx="34.099" cy="21.6" r="0.2"/>
<circle fill="#990000" cx="1.899" cy="22.1" r="0.2"/>
<circle fill="#990000" cx="9.2" cy="22.1" r="0.2"/>
<circle fill="#990000" cx="13.099" cy="22.1" r="0.2"/>
<ellipse fill="#990000" cx="16.949" cy="22.1" rx="0.15" ry="0.2"/>
<circle fill="#990000" cx="18.2" cy="22.1" r="0.2"/>
<circle fill="#990000" cx="19.499" cy="22.1" r="0.2"/>
<circle fill="#990000" cx="22.099" cy="22.1" r="0.2"/>
<circle fill="#990000" cx="26.4" cy="22.1" r="0.201"/>
<circle fill="#990000" cx="25.499" cy="22.9" r="0.2"/>
<circle fill="#990000" cx="29.8" cy="22.1" r="0.2"/>
<circle fill="#990000" cx="31.099" cy="22.1" r="0.2"/>
<circle fill="#990000" cx="33.3" cy="22.1" r="0.2"/>
<circle fill="#990000" cx="11.399" cy="22.5" r="0.2"/>
<ellipse fill="#990000" cx="27.25" cy="22.5" rx="0.25" ry="0.2"/>
<circle fill="#990000" cx="35.4" cy="22.5" r="0.201"/>
<circle fill="#990000" cx="1.099" cy="22.9" r="0.2"/>
<circle fill="#990000" cx="2.8" cy="22.9" r="0.2"/>
<circle fill="#990000" cx="4.099" cy="22.9" r="0.2"/>
<ellipse fill="#990000" cx="5.35" cy="22.9" rx="0.15" ry="0.2"/>
<circle fill="#990000" cx="6.599" cy="22.9" r="0.2"/>
<ellipse fill="#990000" cx="8.35" cy="22.9" rx="0.15" ry="0.2"/>
<circle fill="#990000" cx="9.599" cy="22.9" r="0.2"/>
<circle fill="#990000" cx="14.399" cy="22.9" r="0.2"/>
<circle fill="#990000" cx="18.249" cy="23.351" r="0.649"/>
<circle fill="#990000" cx="25.951" cy="26.35" r="0.65"/>
<circle fill="#990000" cx="21.199" cy="22.9" r="0.199"/>
<circle fill="#990000" cx="23.8" cy="22.9" r="0.2"/>
<circle fill="#990000" cx="25.105" cy="23.315" r="0.2"/>
<ellipse fill="#990000" cx="28.549" cy="22.9" rx="0.25" ry="0.2"/>
<circle fill="#990000" cx="32.4" cy="22.9" r="0.201"/>
<path fill="#990000" d="M0.316,24.324c-0.02,0.023-0.043,0.043-0.071,0.059C0.219,24.396,0,24.406,0,24.399c0-0.005,0-1.287,0-1.299
	c0.008,0.016,0.131-0.012,0.15-0.004c0.063,0.023,0.092,0.087,0.121,0.146c0.091,0.178,0.128,0.407,0.128,0.604
	C0.399,23.99,0.42,24.201,0.316,24.324z"/>
<ellipse fill="#990000" cx="11.8" cy="23.351" rx="0.2" ry="0.25"/>
<ellipse fill="#990000" cx="15.7" cy="23.351" rx="0.2" ry="0.25"/>
<ellipse fill="#990000" cx="19.949" cy="23.351" rx="0.15" ry="0.25"/>
<ellipse fill="#990000" cx="22.499" cy="23.351" rx="0.2" ry="0.25"/>
<ellipse fill="#990000" cx="29.8" cy="23.351" rx="0.2" ry="0.25"/>
<ellipse fill="#990000" cx="31.099" cy="23.351" rx="0.2" ry="0.25"/>
<ellipse fill="#990000" cx="34.099" cy="23.351" rx="0.2" ry="0.25"/>
<path fill="#990000" d="M35.898,24.399c-0.286,0-0.564,0.062-0.685-0.259c-0.084-0.227-0.059-0.508-0.023-0.739
	c0.023-0.157,0.123-0.241,0.27-0.281c0.045-0.012,0.438-0.032,0.438-0.02C35.898,23.108,35.898,24.399,35.898,24.399z"/>
<circle fill="#990000" cx="1.899" cy="23.801" r="0.2"/>
<circle fill="#990000" cx="8.8" cy="23.801" r="0.2"/>
<circle fill="#990000" cx="10.499" cy="23.801" r="0.2"/>
<ellipse fill="#990000" cx="12.649" cy="23.801" rx="0.25" ry="0.199"/>
<ellipse fill="#990000" cx="16.949" cy="23.801" rx="0.15" ry="0.199"/>
<circle fill="#990000" cx="26.8" cy="23.801" r="0.2"/>
<circle fill="#990000" cx="3.2" cy="24.199" r="0.2"/>
<circle fill="#990000" cx="4.499" cy="24.199" r="0.2"/>
<circle fill="#990000" cx="5.8" cy="24.199" r="0.2"/>
<circle fill="#990000" cx="7.099" cy="24.199" r="0.2"/>
<circle fill="#990000" cx="13.499" cy="24.199" r="0.2"/>
<circle fill="#990000" cx="21.699" cy="24.199" r="0.199"/>
<circle fill="#990000" cx="24.199" cy="24.199" r="0.199"/>
<circle fill="#990000" cx="27.699" cy="24.199" r="0.199"/>
<circle fill="#990000" cx="26.8" cy="25.5" r="0.2"/>
<circle fill="#990000" cx="33.3" cy="24.199" r="0.2"/>
<circle fill="#990000" cx="9.2" cy="24.6" r="0.2"/>
<circle fill="#990000" cx="11.399" cy="24.6" r="0.2"/>
<circle fill="#990000" cx="14.399" cy="24.6" r="0.2"/>
<circle fill="#990000" cx="20.399" cy="24.6" r="0.2"/>
<circle fill="#990000" cx="23.4" cy="24.6" r="0.201"/>
<circle fill="#990000" cx="25.499" cy="24.6" r="0.2"/>
<circle fill="#990000" cx="28.999" cy="24.6" r="0.2"/>
<circle fill="#990000" cx="31.999" cy="24.6" r="0.2"/>
<circle fill="#990000" cx="1.099" cy="25.1" r="0.2"/>
<circle fill="#990000" cx="12.2" cy="25.1" r="0.2"/>
<circle fill="#990000" cx="15.2" cy="25.1" r="0.2"/>
<circle fill="#990000" cx="16.099" cy="25.1" r="0.2"/>
<circle fill="#990000" cx="17.399" cy="25.1" r="0.2"/>
<circle fill="#990000" cx="19.099" cy="25.1" r="0.2"/>
<circle fill="#990000" cx="22.499" cy="25.1" r="0.2"/>
<circle fill="#990000" cx="30.3" cy="25.1" r="0.2"/>
<ellipse fill="#990000" cx="34.549" cy="25.1" rx="0.15" ry="0.2"/>
<ellipse fill="#990000" cx="2.35" cy="25.5" rx="0.15" ry="0.2"/>
<circle fill="#990000" cx="3.599" cy="25.5" r="0.2"/>
<circle fill="#990000" cx="4.899" cy="25.5" r="0.2"/>
<circle fill="#990000" cx="6.2" cy="25.5" r="0.2"/>
<circle fill="#990000" cx="7.899" cy="25.5" r="0.2"/>
<circle fill="#990000" cx="10.099" cy="25.5" r="0.2"/>
<circle fill="#990000" cx="13.499" cy="25.5" r="0.2"/>
<circle fill="#990000" cx="21.699" cy="25.5" r="0.199"/>
<circle fill="#990000" cx="24.199" cy="25.5" r="0.199"/>
<circle fill="#990000" cx="20.399" cy="25.9" r="0.2"/>
<circle fill="#990000" cx="28.099" cy="25.9" r="0.2"/>
<circle fill="#990000" cx="33.3" cy="25.9" r="0.2"/>
<circle fill="#990000" cx="35.4" cy="25.9" r="0.201"/>
<ellipse fill="#990000" cx="0.2" cy="26.351" rx="0.2" ry="0.25"/>
<ellipse fill="#990000" cx="7.099" cy="26.351" rx="0.2" ry="0.25"/>
<ellipse fill="#990000" cx="8.8" cy="26.351" rx="0.2" ry="0.25"/>
<ellipse fill="#990000" cx="11.399" cy="26.351" rx="0.2" ry="0.25"/>
<ellipse fill="#990000" cx="14.8" cy="26.351" rx="0.2" ry="0.25"/>
<ellipse fill="#990000" cx="16.499" cy="26.351" rx="0.2" ry="0.25"/>
<ellipse fill="#990000" cx="17.8" cy="26.351" rx="0.2" ry="0.25"/>
<ellipse fill="#990000" cx="19.099" cy="26.351" rx="0.2" ry="0.25"/>
<ellipse fill="#990000" cx="22.95" cy="26.351" rx="0.151" ry="0.25"/>
<ellipse fill="#990000" cx="29.4" cy="26.351" rx="0.201" ry="0.25"/>
<ellipse fill="#990000" cx="30.699" cy="26.351" rx="0.199" ry="0.25"/>
<ellipse fill="#990000" cx="31.999" cy="26.351" rx="0.2" ry="0.25"/>
<circle fill="#990000" cx="1.499" cy="26.801" r="0.2"/>
<circle fill="#990000" cx="2.8" cy="26.801" r="0.2"/>
<circle fill="#990000" cx="4.099" cy="26.801" r="0.2"/>
<circle fill="#990000" cx="5.8" cy="26.801" r="0.2"/>
<ellipse fill="#990000" cx="12.649" cy="26.801" rx="0.25" ry="0.199"/>
<ellipse fill="#990000" cx="34.549" cy="26.801" rx="0.15" ry="0.199"/>
<circle fill="#990000" cx="7.899" cy="27.199" r="0.2"/>
<circle fill="#990000" cx="10.499" cy="27.199" r="0.2"/>
<ellipse fill="#990000" cx="13.949" cy="27.199" rx="0.25" ry="0.2"/>
<circle fill="#990000" cx="20.399" cy="27.199" r="0.2"/>
<circle fill="#990000" cx="21.699" cy="27.199" r="0.199"/>
<circle fill="#990000" cx="24.199" cy="27.199" r="0.199"/>
<ellipse fill="#990000" cx="27.25" cy="27.199" rx="0.25" ry="0.2"/>
<ellipse fill="#990000" cx="35.75" cy="27.199" rx="0.149" ry="0.2"/>
<circle fill="#990000" cx="6.599" cy="27.6" r="0.2"/>
<circle fill="#990000" cx="15.7" cy="27.6" r="0.2"/>
<ellipse fill="#990000" cx="16.949" cy="27.6" rx="0.15" ry="0.2"/>
<circle fill="#990000" cx="19.099" cy="27.6" r="0.2"/>
<circle fill="#990000" cx="28.999" cy="27.6" r="0.2"/>
<circle fill="#990000" cx="30.699" cy="27.6" r="0.199"/>
<circle fill="#990000" cx="32.8" cy="27.6" r="0.2"/>
<circle fill="#990000" cx="0.2" cy="28.1" r="0.2"/>
<circle fill="#990000" cx="1.899" cy="28.1" r="0.2"/>
<circle fill="#990000" cx="3.2" cy="28.1" r="0.2"/>
<circle fill="#990000" cx="4.899" cy="28.1" r="0.2"/>
<circle fill="#990000" cx="9.599" cy="28.1" r="0.2"/>
<circle fill="#990000" cx="11.8" cy="28.1" r="0.2"/>
<circle fill="#990000" cx="23.4" cy="28.1" r="0.201"/>
<circle fill="#990000" cx="7.499" cy="28.5" r="0.2"/>
<circle fill="#990000" cx="13.099" cy="28.5" r="0.2"/>
<circle fill="#990000" cx="18.2" cy="28.5" r="0.2"/>
<ellipse fill="#990000" cx="19.949" cy="28.5" rx="0.15" ry="0.2"/>
<circle fill="#990000" cx="25.999" cy="28.5" r="0.2"/>
<circle fill="#990000" cx="31.999" cy="28.5" r="0.2"/>
<circle fill="#990000" cx="34.099" cy="28.5" r="0.2"/>
<circle fill="#990000" cx="5.8" cy="28.9" r="0.2"/>
<circle fill="#990000" cx="10.899" cy="28.9" r="0.2"/>
<circle fill="#990000" cx="15.7" cy="28.9" r="0.2"/>
<circle fill="#990000" cx="21.199" cy="28.9" r="0.199"/>
<circle fill="#990000" cx="22.499" cy="28.9" r="0.2"/>
<circle fill="#990000" cx="28.099" cy="28.9" r="0.2"/>
<circle fill="#990000" cx="30.3" cy="28.9" r="0.2"/>
<circle fill="#990000" cx="35.4" cy="28.9" r="0.201"/>
<ellipse fill="#990000" cx="2.35" cy="29.351" rx="0.15" ry="0.25"/>
<ellipse fill="#990000" cx="4.099" cy="29.351" rx="0.2" ry="0.25"/>
<ellipse fill="#990000" cx="9.2" cy="29.351" rx="0.2" ry="0.25"/>
<circle fill="#990000" cx="12.25" cy="29.75" r="0.65"/>
<ellipse fill="#990000" cx="16.949" cy="29.351" rx="0.15" ry="0.25"/>
<ellipse fill="#990000" cx="19.099" cy="29.351" rx="0.2" ry="0.25"/>
<ellipse fill="#990000" cx="24.699" cy="29.351" rx="0.199" ry="0.25"/>
<circle fill="#990000" cx="0.599" cy="29.801" r="0.2"/>
<circle fill="#990000" cx="7.099" cy="29.801" r="0.2"/>
<circle fill="#990000" cx="14.399" cy="29.801" r="0.2"/>
<ellipse fill="#990000" cx="27.25" cy="29.801" rx="0.25" ry="0.199"/>
<circle fill="#990000" cx="31.499" cy="29.801" r="0.2"/>
<circle fill="#990000" cx="32.8" cy="29.801" r="0.2"/>
<ellipse fill="#990000" cx="34.549" cy="29.801" rx="0.15" ry="0.199"/>
<ellipse fill="#990000" cx="35.75" cy="29.801" rx="0.149" ry="0.199"/>
<circle fill="#990000" cx="10.499" cy="30.199" r="0.2"/>
<circle fill="#990000" cx="17.8" cy="30.199" r="0.2"/>
<circle fill="#990000" cx="20.399" cy="30.199" r="0.2"/>
<circle fill="#990000" cx="23.4" cy="30.199" r="0.201"/>
<circle fill="#990000" cx="29.4" cy="30.199" r="0.201"/>
<circle fill="#990000" cx="1.899" cy="30.6" r="0.2"/>
<circle fill="#990000" cx="3.599" cy="30.6" r="0.2"/>
<ellipse fill="#990000" cx="5.35" cy="30.6" rx="0.15" ry="0.2"/>
<circle fill="#990000" cx="8.8" cy="30.6" r="0.2"/>
<circle fill="#990000" cx="15.7" cy="30.6" r="0.2"/>
<circle fill="#990000" cx="22.099" cy="30.6" r="0.2"/>
<circle fill="#990000" cx="25.999" cy="30.6" r="0.2"/>
<circle fill="#990000" cx="6.599" cy="31.1" r="0.2"/>
<circle fill="#990000" cx="13.499" cy="31.1" r="0.2"/>
<circle fill="#990000" cx="19.099" cy="31.1" r="0.2"/>
<circle fill="#990000" cx="27.699" cy="31.1" r="0.199"/>
<circle fill="#990000" cx="30.3" cy="31.1" r="0.2"/>
<circle fill="#990000" cx="31.999" cy="31.1" r="0.2"/>
<circle fill="#990000" cx="34.099" cy="31.1" r="0.2"/>
<ellipse fill="#990000" cx="4.5" cy="31.95" rx="0.6" ry="0.65"/>
<circle fill="#990000" cx="10.099" cy="31.5" r="0.2"/>
<circle fill="#990000" cx="14.8" cy="31.5" r="0.2"/>
<circle fill="#990000" cx="16.499" cy="31.5" r="0.2"/>
<circle fill="#990000" cx="24.199" cy="31.5" r="0.199"/>
<circle fill="#990000" cx="0.2" cy="31.9" r="0.2"/>
<circle fill="#990000" cx="11.399" cy="31.9" r="0.2"/>
<circle fill="#990000" cx="17.8" cy="31.9" r="0.2"/>
<circle fill="#990000" cx="20.8" cy="31.9" r="0.2"/>
<circle fill="#990000" cx="22.499" cy="31.9" r="0.2"/>
<circle fill="#990000" cx="25.999" cy="31.9" r="0.2"/>
<circle fill="#990000" cx="28.999" cy="31.9" r="0.2"/>
<circle fill="#990000" cx="32.85" cy="32.35" r="0.65"/>
<circle fill="#990000" cx="34.999" cy="31.9" r="0.2"/>
<ellipse fill="#990000" cx="1.499" cy="32.351" rx="0.2" ry="0.25"/>
<ellipse fill="#990000" cx="3.2" cy="32.351" rx="0.2" ry="0.25"/>
<ellipse fill="#990000" cx="6.599" cy="32.351" rx="0.2" ry="0.25"/>
<ellipse fill="#990000" cx="8.35" cy="32.351" rx="0.15" ry="0.25"/>
<ellipse fill="#990000" cx="13.099" cy="32.351" rx="0.2" ry="0.25"/>
<ellipse fill="#990000" cx="18.699" cy="32.351" rx="0.199" ry="0.25"/>
<ellipse fill="#990000" cx="19.949" cy="32.351" rx="0.15" ry="0.25"/>
<ellipse fill="#990000" cx="27.699" cy="32.351" rx="0.199" ry="0.25"/>
<ellipse fill="#990000" cx="31.099" cy="32.351" rx="0.2" ry="0.25"/>
<circle fill="#990000" cx="14.399" cy="32.801" r="0.2"/>
<circle fill="#990000" cx="24.199" cy="32.801" r="0.199"/>
<circle fill="#990000" cx="9.599" cy="33.199" r="0.2"/>
<circle fill="#990000" cx="11.399" cy="33.199" r="0.2"/>
<circle fill="#990000" cx="15.7" cy="33.199" r="0.2"/>
<ellipse fill="#990000" cx="16.949" cy="33.199" rx="0.15" ry="0.2"/>
<circle fill="#990000" cx="19.949" cy="33.65" r="0.65"/>
<circle fill="#990000" cx="21.199" cy="33.199" r="0.199"/>
<circle fill="#990000" cx="22.499" cy="33.199" r="0.2"/>
<circle fill="#990000" cx="25.999" cy="33.199" r="0.2"/>
<circle fill="#990000" cx="29.4" cy="33.199" r="0.201"/>
<ellipse fill="#990000" cx="35.75" cy="33.199" rx="0.149" ry="0.2"/>
<circle fill="#990000" cx="0.2" cy="33.6" r="0.2"/>
<circle fill="#990000" cx="1.499" cy="33.6" r="0.2"/>
<circle fill="#990000" cx="3.2" cy="33.6" r="0.2"/>
<circle fill="#990000" cx="6.599" cy="33.6" r="0.2"/>
<ellipse fill="#990000" cx="12.649" cy="33.6" rx="0.25" ry="0.2"/>
<circle fill="#990000" cx="18.2" cy="33.6" r="0.2"/>
<circle fill="#990000" cx="27.699" cy="33.6" r="0.199"/>
<circle fill="#990000" cx="31.499" cy="33.6" r="0.2"/>
<circle fill="#990000" cx="33.3" cy="33.6" r="0.2"/>
<ellipse fill="#990000" cx="34.549" cy="33.6" rx="0.15" ry="0.2"/>
<circle fill="#990000" cx="4.899" cy="34.1" r="0.2"/>
<ellipse fill="#990000" cx="8.35" cy="34.1" rx="0.15" ry="0.2"/>
<ellipse fill="#990000" cx="8.268" cy="35.394" rx="0.15" ry="0.2"/>
<ellipse fill="#990000" cx="13.949" cy="34.1" rx="0.25" ry="0.2"/>
<circle fill="#990000" cx="24.199" cy="34.1" r="0.199"/>
<circle fill="#990000" cx="11.399" cy="34.5" r="0.2"/>
<circle fill="#990000" cx="15.7" cy="34.5" r="0.2"/>
<circle fill="#990000" cx="21.199" cy="34.5" r="0.199"/>
<circle fill="#990000" cx="22.499" cy="34.5" r="0.2"/>
<circle fill="#990000" cx="25.999" cy="34.5" r="0.2"/>
<circle fill="#990000" cx="29.4" cy="34.5" r="0.201"/>
<circle fill="#990000" cx="1.499" cy="34.9" r="0.2"/>
<circle fill="#990000" cx="3.2" cy="34.9" r="0.2"/>
<circle fill="#990000" cx="6.599" cy="34.9" r="0.2"/>
<circle fill="#990000" cx="9.599" cy="34.9" r="0.2"/>
<ellipse fill="#990000" cx="12.649" cy="34.9" rx="0.25" ry="0.2"/>
<ellipse fill="#990000" cx="16.949" cy="34.9" rx="0.15" ry="0.2"/>
<circle fill="#990000" cx="18.699" cy="34.9" r="0.199"/>
<circle fill="#990000" cx="19.499" cy="34.9" r="0.2"/>
<circle fill="#990000" cx="23.8" cy="34.9" r="0.2"/>
<ellipse fill="#990000" cx="27.25" cy="34.9" rx="0.25" ry="0.2"/>
<circle fill="#990000" cx="31.499" cy="34.9" r="0.2"/>
<circle fill="#990000" cx="33.3" cy="34.9" r="0.2"/>
<circle fill="#990000" cx="34.999" cy="34.9" r="0.2"/>
<ellipse fill="#990000" cx="0.2" cy="35.351" rx="0.2" ry="0.25"/>
<path fill="#990000" d="M7.99,35.726C8.059,35.791,8.102,35.881,8.1,36h-1.2c0-0.302,0.161-0.397,0.456-0.426
	C7.568,35.556,7.841,35.584,7.99,35.726z"/>
<ellipse fill="#990000" cx="14.399" cy="35.351" rx="0.2" ry="0.25"/>
<ellipse fill="#990000" cx="22.099" cy="35.351" rx="0.2" ry="0.25"/>
<circle fill="#990000" cx="4.899" cy="35.801" r="0.2"/>
<circle fill="#990000" cx="11.399" cy="35.801" r="0.2"/>
<circle fill="#990000" cx="13.099" cy="35.801" r="0.2"/>
<circle fill="#990000" cx="16.099" cy="35.801" r="0.2"/>
<circle fill="#990000" cx="17.399" cy="35.801" r="0.2"/>
<circle fill="#990000" cx="20.399" cy="35.801" r="0.2"/>
<circle fill="#990000" cx="25.099" cy="35.801" r="0.2"/>
<circle fill="#990000" cx="28.999" cy="35.801" r="0.2"/>
<circle fill="#990000" cx="32.8" cy="35.801" r="0.2"/>
<ellipse fill="#990000" cx="34.549" cy="35.801" rx="0.15" ry="0.199"/>
<rect fill="none" width="35.898" height="36"/>
</svg>
