<?xml version="1.0" encoding="utf-8"?>
<!-- Generator: Adobe Illustrator 14.0.0, SVG Export Plug-In  -->
<!DOCTYPE svg PUBLIC "-//W3C//DTD SVG 1.1//EN" "http://www.w3.org/Graphics/SVG/1.1/DTD/svg11.dtd" [
	<!ENTITY ns_flows "http://ns.adobe.com/Flows/1.0/">
]>
<svg version="1.1"
	 xmlns="http://www.w3.org/2000/svg" xmlns:xlink="http://www.w3.org/1999/xlink" xmlns:a="http://ns.adobe.com/AdobeSVGViewerExtensions/3.0/"
	 x="0px" y="0px" width="20.32px" height="20.32px" viewBox="0 0 20.32 20.32" enable-background="new 0 0 20.32 20.32"
	 xml:space="preserve">
<defs>
</defs>
<rect fill="none" width="20.32" height="20.32"/>
<polyline fill="#D49494" points="19.585,7.643 20.039,7.681 20.152,8.324 19.699,8.21 19.585,7.643 "/>
<polyline fill="#D49494" points="18.871,7.378 19.324,7.415 19.439,8.06 18.984,7.945 18.871,7.378 "/>
<polyline fill="#D49494" points="17.904,6.542 18.357,6.58 18.47,7.225 18.017,7.11 17.904,6.542 "/>
<polyline fill="#D49494" points="19.66,3.441 20.115,3.479 20.228,4.122 19.775,4.01 19.66,3.441 "/>
<polyline fill="#D49494" points="16.33,6.811 16.783,6.849 16.898,7.491 16.443,7.378 16.33,6.811 "/>
<polyline fill="#D49494" points="18.488,5.939 18.941,5.978 19.056,6.62 18.601,6.508 18.488,5.939 "/>
<polyline fill="#D49494" points="19.433,10.326 19.888,10.363 20.001,11.007 19.546,10.894 19.433,10.326 "/>
<polyline fill="#D49494" points="18.83,4.993 19.285,5.031 19.398,5.675 18.943,5.562 18.83,4.993 "/>
<polyline fill="#D49494" points="18.478,8.234 18.931,8.272 19.044,8.916 18.591,8.802 18.478,8.234 "/>
<polyline fill="#D49494" points="17.011,6.166 17.464,6.204 17.578,6.849 17.125,6.734 17.011,6.166 "/>
<polyline fill="#D49494" points="13.982,7.037 14.437,7.075 14.55,7.719 14.097,7.605 13.982,7.037 "/>
<polyline fill="#D49494" points="19.623,13.888 20.078,13.927 20.191,14.57 19.736,14.457 19.623,13.888 "/>
<polyline fill="#D49494" points="17.769,8.438 18.222,8.476 18.335,9.119 17.88,9.005 17.769,8.438 "/>
<polyline fill="#D49494" points="15.875,7.567 16.33,7.605 16.443,8.248 15.99,8.136 15.875,7.567 "/>
<polyline fill="#D49494" points="19.074,11.226 19.529,11.263 19.642,11.906 19.187,11.792 19.074,11.226 "/>
<polyline fill="#D49494" points="19.06,2.298 19.513,2.336 19.626,2.98 19.173,2.866 19.06,2.298 "/>
<polyline fill="#D49494" points="12.203,7.113 12.658,7.15 12.771,7.794 12.318,7.681 12.203,7.113 "/>
<polyline fill="#D49494" points="14.74,7.529 15.195,7.567 15.308,8.21 14.853,8.098 14.74,7.529 "/>
<polyline fill="#D49494" points="18.185,3.972 18.638,4.01 18.751,4.652 18.298,4.539 18.185,3.972 "/>
<polyline fill="#D49494" points="19.396,14.759 19.851,14.796 19.962,15.441 19.509,15.326 19.396,14.759 "/>
<polyline fill="#D49494" points="10.273,6.999 10.728,7.037 10.841,7.681 10.386,7.567 10.273,6.999 "/>
<polyline fill="#D49494" points="18.962,12.191 19.416,12.228 19.531,12.871 19.076,12.759 18.962,12.191 "/>
<polyline fill="#D49494" points="16.33,5.409 16.783,5.447 16.898,6.092 16.443,5.978 16.33,5.409 "/>
<polyline fill="#D49494" points="17.128,9.082 17.583,9.119 17.697,9.763 17.244,9.65 17.128,9.082 "/>
<polyline fill="#D49494" points="13.125,6.166 13.578,6.204 13.691,6.849 13.238,6.734 13.125,6.166 "/>
<polyline fill="#D49494" points="18.904,13.13 19.357,13.169 19.472,13.812 19.017,13.699 18.904,13.13 "/>
<polyline fill="#D49494" points="16.375,8.718 16.83,8.755 16.943,9.398 16.49,9.285 16.375,8.718 "/>
<polyline fill="#D49494" points="15.546,8.362 16.001,8.4 16.115,9.042 15.66,8.929 15.546,8.362 "/>
<polyline fill="#D49494" points="19.433,18.505 19.888,18.544 20.001,19.187 19.546,19.074 19.433,18.505 "/>
<polyline fill="#D49494" points="17.314,10.103 17.769,10.142 17.88,10.785 17.427,10.671 17.314,10.103 "/>
<polyline fill="#D49494" points="3.005,6.811 3.46,6.849 3.573,7.491 3.119,7.378 3.005,6.811 "/>
<polyline fill="#D49494" points="6.563,6.62 7.019,6.658 7.131,7.303 6.677,7.188 6.563,6.62 "/>
<polyline fill="#D49494" points="17.671,2.873 18.125,2.911 18.238,3.555 17.785,3.441 17.671,2.873 "/>
<polyline fill="#D49494" points="18.298,1.433 18.751,1.471 18.865,2.114 18.412,2 18.298,1.433 "/>
<polyline fill="#D49494" points="3.876,6.734 4.33,6.772 4.444,7.415 3.989,7.303 3.876,6.734 "/>
<polyline fill="#D49494" points="13.945,5.523 14.4,5.562 14.513,6.204 14.058,6.092 13.945,5.523 "/>
<polyline fill="#D49494" points="14.476,8.476 14.929,8.514 15.042,9.158 14.587,9.042 14.476,8.476 "/>
<polyline fill="#D49494" points="17.314,11.082 17.767,11.121 17.88,11.765 17.425,11.65 17.314,11.082 "/>
<polyline fill="#D49494" points="17.619,1.988 18.074,2.026 18.187,2.67 17.732,2.557 17.619,1.988 "/>
<polyline fill="#D49494" points="12.5,8.298 12.953,8.336 13.068,8.98 12.613,8.865 12.5,8.298 "/>
<polyline fill="#D49494" points="18.488,15.189 18.941,15.228 19.056,15.871 18.601,15.757 18.488,15.189 "/>
<polyline fill="#D49494" points="8.58,7.631 9.033,7.668 9.148,8.313 8.693,8.198 8.58,7.631 "/>
<polyline fill="#D49494" points="10.867,8 11.322,8.038 11.435,8.681 10.98,8.567 10.867,8 "/>
<polyline fill="#D49494" points="18.601,16.275 19.056,16.314 19.167,16.957 18.714,16.843 18.601,16.275 "/>
<polyline fill="#D49494" points="18.751,17.523 19.207,17.56 19.32,18.203 18.865,18.091 18.751,17.523 "/>
<polyline fill="#D49494" points="6.175,7.479 6.629,7.518 6.743,8.16 6.289,8.047 6.175,7.479 "/>
<polyline fill="#D49494" points="14.55,9.421 15.003,9.458 15.119,10.103 14.664,9.99 14.55,9.421 "/>
<polyline fill="#D49494" points="15.269,9.99 15.724,10.027 15.837,10.671 15.382,10.558 15.269,9.99 "/>
<polyline fill="#D49494" points="14.251,4.312 14.707,4.35 14.82,4.993 14.367,4.879 14.251,4.312 "/>
<polyline fill="#D49494" points="16.957,11.951 17.41,11.988 17.525,12.632 17.07,12.519 16.957,11.951 "/>
<polyline fill="#D49494" points="4.671,7.453 5.125,7.491 5.239,8.136 4.784,8.021 4.671,7.453 "/>
<polyline fill="#D49494" points="7.169,5.939 7.623,5.978 7.738,6.62 7.283,6.508 7.169,5.939 "/>
<polyline fill="#D49494" points="13.529,4.463 13.982,4.501 14.097,5.145 13.642,5.031 13.529,4.463 "/>
<polyline fill="#D49494" points="17.158,12.828 17.611,12.867 17.726,13.511 17.271,13.396 17.158,12.828 "/>
<polyline fill="#D49494" points="14.853,3.63 15.308,3.668 15.421,4.312 14.966,4.198 14.853,3.63 "/>
<polyline fill="#D49494" points="16.859,1.359 17.314,1.397 17.427,2.04 16.974,1.928 16.859,1.359 "/>
<polyline fill="#D49494" points="17.64,14.369 18.095,14.406 18.208,15.05 17.753,14.937 17.64,14.369 "/>
<polyline fill="#D49494" points="11.681,8.777 12.134,8.814 12.25,9.458 11.794,9.345 11.681,8.777 "/>
<polyline fill="#D49494" points="15.458,10.822 15.914,10.861 16.027,11.503 15.572,11.39 15.458,10.822 "/>
<polyline fill="#D49494" points="9.138,5.447 9.591,5.485 9.705,6.128 9.251,6.016 9.138,5.447 "/>
<polyline fill="#D49494" points="15.156,2.797 15.611,2.835 15.724,3.479 15.269,3.365 15.156,2.797 "/>
<polyline fill="#D49494" points="16.783,13.546 17.238,13.585 17.351,14.23 16.898,14.115 16.783,13.546 "/>
<polyline fill="#D49494" points="18.123,18.039 18.578,18.076 18.691,18.72 18.236,18.605 18.123,18.039 "/>
<polyline fill="#D49494" points="15.269,11.503 15.724,11.541 15.837,12.185 15.382,12.072 15.269,11.503 "/>
<polyline fill="#D49494" points="12.621,9.687 13.074,9.724 13.189,10.369 12.734,10.253 12.621,9.687 "/>
<polyline fill="#D49494" points="18.382,20.32 18.298,19.9 18.751,19.937 18.82,20.32 18.382,20.32 "/>
<polyline fill="#D49494" points="4.026,5.826 4.481,5.863 4.595,6.508 4.142,6.394 4.026,5.826 "/>
<polyline fill="#D49494" points="5.579,8.06 6.033,8.098 6.147,8.74 5.692,8.627 5.579,8.06 "/>
<polyline fill="#D49494" points="15.345,1.928 15.798,1.966 15.914,2.608 15.458,2.495 15.345,1.928 "/>
<polyline fill="#D49494" points="13.605,10.33 14.058,10.369 14.171,11.011 13.716,10.898 13.605,10.33 "/>
<polyline fill="#D49494" points="11.216,4.409 11.671,4.446 11.785,5.091 11.33,4.977 11.216,4.409 "/>
<polyline fill="#D49494" points="12.923,16.197 13.376,16.236 13.49,16.878 13.037,16.765 12.923,16.197 "/>
<polyline fill="#D49494" points="7.966,6.768 8.419,6.806 8.535,7.448 8.08,7.335 7.966,6.768 "/>
<polyline fill="#D49494" points="11.066,11.828 11.521,11.865 11.632,12.509 11.179,12.396 11.066,11.828 "/>
<polyline fill="#D49494" points="12.935,17.904 13.39,17.941 13.503,18.583 13.048,18.472 12.935,17.904 "/>
<polyline fill="#D49494" points="9.388,8.205 9.841,8.243 9.957,8.888 9.501,8.773 9.388,8.205 "/>
<polyline fill="#D49494" points="11.787,5.333 12.242,5.371 12.355,6.016 11.902,5.901 11.787,5.333 "/>
<polyline fill="#D49494" points="12.279,6.166 12.734,6.204 12.847,6.849 12.394,6.734 12.279,6.166 "/>
<polyline fill="#D49494" points="15.236,15.685 15.691,15.722 15.804,16.365 15.351,16.251 15.236,15.685 "/>
<polyline fill="#D49494" points="15.042,16.765 15.498,16.804 15.611,17.447 15.156,17.333 15.042,16.765 "/>
<polyline fill="#D49494" points="13.623,13.285 14.078,13.324 14.191,13.966 13.736,13.853 13.623,13.285 "/>
<polyline fill="#D49494" points="10.804,5.333 11.257,5.371 11.371,6.016 10.916,5.901 10.804,5.333 "/>
<polyline fill="#D49494" points="15.726,19.216 16.181,19.253 16.294,19.898 15.839,19.785 15.726,19.216 "/>
<polyline fill="#D49494" points="9.365,9.236 9.82,9.273 9.933,9.916 9.478,9.802 9.365,9.236 "/>
<polyline fill="#D49494" points="15.597,4.546 16.05,4.584 16.166,5.229 15.71,5.114 15.597,4.546 "/>
<polyline fill="#D49494" points="14.607,14.74 15.062,14.777 15.175,15.421 14.72,15.308 14.607,14.74 "/>
<polyline fill="#D49494" points="8.609,15.695 9.064,15.732 9.177,16.375 8.722,16.263 8.609,15.695 "/>
<polyline fill="#D49494" points="9.98,6.005 10.435,6.043 10.546,6.688 10.093,6.573 9.98,6.005 "/>
<polyline fill="#D49494" points="18.82,0 18.865,0.262 18.412,0.148 18.382,0 18.82,0 "/>
<polyline fill="#D49494" points="18.748,0.713 19.201,0.751 19.316,1.395 18.861,1.281 18.748,0.713 "/>
<polyline fill="#D49494" points="19.509,0.3 19.962,0.337 20.078,0.98 19.623,0.867 19.509,0.3 "/>
<polyline fill="#D49494" points="16.708,0.488 17.162,0.526 17.277,1.17 16.822,1.057 16.708,0.488 "/>
<polyline fill="#D49494" points="7.726,0 7.814,0.488 7.359,0.375 7.283,0 7.726,0 "/>
<polyline fill="#D49494" points="6.451,0 6.563,0.641 6.108,0.526 6.004,0 6.451,0 "/>
<polyline fill="#D49494" points="5.201,0.413 5.655,0.451 5.769,1.095 5.313,0.98 5.201,0.413 "/>
<polyline fill="#D49494" points="0.242,0.488 0.696,0.526 0.81,1.17 0.356,1.057 0.242,0.488 "/>
<polyline fill="#D49494" points="2.324,6.508 2.778,6.545 2.892,7.188 2.438,7.075 2.324,6.508 "/>
<polyline fill="#D49494" points="9.632,12.335 10.085,12.375 10.201,13.017 9.746,12.904 9.632,12.335 "/>
<polyline fill="#D49494" points="12.533,18.613 12.986,18.65 13.101,19.294 12.646,19.181 12.533,18.613 "/>
<polyline fill="#D49494" points="11.031,15.099 11.484,15.138 11.599,15.781 11.144,15.667 11.031,15.099 "/>
<polyline fill="#D49494" points="0.28,5.978 0.733,6.016 0.849,6.658 0.394,6.545 0.28,5.978 "/>
<polyline fill="#D49494" points="6.108,9.042 6.563,9.082 6.677,9.724 6.224,9.611 6.108,9.042 "/>
<polyline fill="#D49494" points="4.821,8.476 5.276,8.514 5.39,9.158 4.937,9.042 4.821,8.476 "/>
<polyline fill="#D49494" points="7.738,10.937 8.191,10.974 8.306,11.617 7.851,11.503 7.738,10.937 "/>
<polyline fill="#D49494" points="8.986,12.867 9.441,12.904 9.554,13.546 9.101,13.435 8.986,12.867 "/>
<polyline fill="#D49494" points="10.007,14.494 10.462,14.533 10.576,15.175 10.123,15.062 10.007,14.494 "/>
<polyline fill="#D49494" points="2.248,7.624 2.702,7.662 2.815,8.306 2.362,8.191 2.248,7.624 "/>
<polyline fill="#D49494" points="11.826,19.037 12.279,19.074 12.394,19.718 11.939,19.605 11.826,19.037 "/>
<polyline fill="#D49494" points="6.028,10.142 6.483,10.179 6.597,10.822 6.142,10.708 6.028,10.142 "/>
<polyline fill="#D49494" points="9.138,13.699 9.591,13.738 9.705,14.38 9.251,14.267 9.138,13.699 "/>
<polyline fill="#D49494" points="0,6.909 0.174,6.923 0.288,7.567 0,7.495 0,6.909 "/>
<polyline fill="#D49494" points="7.421,11.8 7.876,11.837 7.99,12.48 7.537,12.367 7.421,11.8 "/>
<polyline fill="#D49494" points="11.22,18.052 11.673,18.091 11.787,18.734 11.333,18.621 11.22,18.052 "/>
<polyline fill="#D49494" points="4.254,9.158 4.709,9.195 4.821,9.837 4.368,9.724 4.254,9.158 "/>
<polyline fill="#D49494" points="0.583,7.265 1.037,7.303 1.151,7.945 0.696,7.832 0.583,7.265 "/>
<polyline fill="#D49494" points="9.025,14.457 9.478,14.494 9.591,15.138 9.138,15.025 9.025,14.457 "/>
<polyline fill="#D49494" points="1.5,7.946 1.955,7.984 2.067,8.628 1.614,8.515 1.5,7.946 "/>
<polyline fill="#D49494" points="2.815,8.74 3.271,8.779 3.384,9.421 2.931,9.308 2.815,8.74 "/>
<polyline fill="#D49494" points="10.423,17.371 10.878,17.408 10.992,18.052 10.539,17.939 10.423,17.371 "/>
<polyline fill="#D49494" points="5.504,10.822 5.958,10.861 6.071,11.503 5.617,11.39 5.504,10.822 "/>
<polyline fill="#D49494" points="11.144,19.566 11.599,19.605 11.71,20.248 11.257,20.134 11.144,19.566 "/>
<polyline fill="#D49494" points="6.942,12.488 7.396,12.525 7.509,13.169 7.056,13.056 6.942,12.488 "/>
<polyline fill="#D49494" points="3.422,9.535 3.876,9.574 3.989,10.216 3.535,10.103 3.422,9.535 "/>
<polyline fill="#D49494" points="9.517,16.652 9.97,16.689 10.083,17.333 9.628,17.22 9.517,16.652 "/>
<polyline fill="#D49494" points="8.417,14.833 8.873,14.873 8.986,15.517 8.533,15.402 8.417,14.833 "/>
<polyline fill="#D49494" points="7.246,13.396 7.699,13.435 7.814,14.078 7.359,13.964 7.246,13.396 "/>
<polyline fill="#D49494" points="0.394,8.21 0.849,8.248 0.961,8.892 0.507,8.779 0.394,8.21 "/>
<polyline fill="#D49494" points="4.974,11.429 5.429,11.466 5.541,12.109 5.087,11.996 4.974,11.429 "/>
<polyline fill="#D49494" points="7.662,14.457 8.115,14.494 8.23,15.138 7.775,15.025 7.662,14.457 "/>
<polyline fill="#D49494" points="8.722,16.576 9.175,16.613 9.289,17.257 8.835,17.144 8.722,16.576 "/>
<polyline fill="#D49494" points="3.211,10.585 3.665,10.623 3.778,11.267 3.325,11.154 3.211,10.585 "/>
<polyline fill="#D49494" points="4.784,12.224 5.239,12.261 5.353,12.904 4.897,12.791 4.784,12.224 "/>
<polyline fill="#D49494" points="7.359,15.175 7.814,15.212 7.925,15.857 7.472,15.744 7.359,15.175 "/>
<polyline fill="#D49494" points="0.204,9.232 0.658,9.271 0.772,9.914 0.317,9.8 0.204,9.232 "/>
<polyline fill="#D49494" points="9.212,18.771 9.667,18.81 9.781,19.453 9.328,19.339 9.212,18.771 "/>
<polyline fill="#D49494" points="8.041,16.878 8.494,16.916 8.607,17.56 8.154,17.447 8.041,16.878 "/>
<polyline fill="#D49494" points="4.444,12.904 4.897,12.943 5.011,13.585 4.558,13.472 4.444,12.904 "/>
<polyline fill="#D49494" points="2.476,11.314 2.931,11.353 3.043,11.996 2.589,11.882 2.476,11.314 "/>
<polyline fill="#D49494" points="6.563,15.554 7.019,15.591 7.131,16.236 6.677,16.121 6.563,15.554 "/>
<polyline fill="#D49494" points="0.772,10.445 1.226,10.482 1.34,11.125 0.886,11.011 0.772,10.445 "/>
<polyline fill="#D49494" points="7.472,17.257 7.925,17.294 8.041,17.939 7.585,17.826 7.472,17.257 "/>
<polyline fill="#D49494" points="1.53,11.177 1.985,11.216 2.099,11.859 1.646,11.746 1.53,11.177 "/>
<polyline fill="#D49494" points="4.481,13.662 4.937,13.699 5.049,14.343 4.595,14.23 4.481,13.662 "/>
<polyline fill="#D49494" points="8.646,19.529 9.101,19.566 9.212,20.208 8.759,20.097 8.646,19.529 "/>
<polyline fill="#D49494" points="5.919,15.958 6.373,15.996 6.487,16.64 6.032,16.527 5.919,15.958 "/>
<polyline fill="#D49494" points="4.065,14.304 4.519,14.343 4.633,14.986 4.179,14.873 4.065,14.304 "/>
<polyline fill="#D49494" points="5.146,16.216 5.601,16.251 5.714,16.896 5.259,16.783 5.146,16.216 "/>
<polyline fill="#D49494" points="6.308,17.894 6.763,17.933 6.876,18.576 6.421,18.462 6.308,17.894 "/>
<polyline fill="#D49494" points="7.283,20.32 7.246,20.126 7.699,20.164 7.726,20.32 7.283,20.32 "/>
<polyline fill="#D49494" points="1.644,13.056 2.097,13.093 2.21,13.738 1.756,13.623 1.644,13.056 "/>
<polyline fill="#D49494" points="2.135,13.927 2.589,13.964 2.702,14.607 2.248,14.494 2.135,13.927 "/>
<polyline fill="#D49494" points="4.633,16.728 5.087,16.765 5.201,17.408 4.747,17.294 4.633,16.728 "/>
<polyline fill="#D49494" points="5.396,18.271 5.849,18.308 5.962,18.951 5.508,18.837 5.396,18.271 "/>
<polyline fill="#D49494" points="6.004,20.32 5.996,20.277 6.45,20.316 6.451,20.32 6.004,20.32 "/>
<polyline fill="#D49494" points="3.952,17.294 4.405,17.333 4.519,17.976 4.065,17.863 3.952,17.294 "/>
<polyline fill="#D49494" points="3.46,18.052 3.914,18.091 4.026,18.734 3.573,18.621 3.46,18.052 "/>
<polyline fill="#D49494" points="4.179,19.376 4.633,19.414 4.747,20.058 4.292,19.945 4.179,19.376 "/>
<polyline fill="#D49494" points="2.476,17.9 2.931,17.939 3.043,18.582 2.589,18.468 2.476,17.9 "/>
<polyline fill="#D49494" points="0.583,16.728 1.037,16.765 1.151,17.408 0.696,17.294 0.583,16.728 "/>
<polyline fill="#D49494" points="0.999,18.544 1.453,18.582 1.567,19.226 1.112,19.113 0.999,18.544 "/>
<polyline fill="#D49494" points="0.204,17.75 0.658,17.787 0.772,18.431 0.317,18.318 0.204,17.75 "/>
<polyline fill="#D49494" points="1.112,19.529 1.567,19.566 1.681,20.208 1.226,20.097 1.112,19.529 "/>
<polyline fill="#D49494" points="2.589,0.316 3.043,0.354 3.157,0.997 2.702,0.884 2.589,0.316 "/>
<polyline fill="#D49494" points="17.072,0 17.125,0.3 16.669,0.187 16.632,0 17.072,0 "/>
<polyline fill="#D49494" points="13.439,0.69 13.894,0.728 14.005,1.371 13.552,1.258 13.439,0.69 "/>
<polyline fill="#D49494" points="11.294,0.148 11.75,0.187 11.863,0.829 11.408,0.717 11.294,0.148 "/>
<polyline fill="#D49494" points="8.38,0.11 8.835,0.148 8.949,0.791 8.494,0.679 8.38,0.11 "/>
<polyline fill="#D49494" points="10.728,0.603 11.181,0.641 11.294,1.283 10.841,1.17 10.728,0.603 "/>
<polyline fill="#D49494" points="8.001,0.753 8.457,0.791 8.57,1.436 8.115,1.321 8.001,0.753 "/>
<polyline fill="#D49494" points="14.623,0.858 15.078,0.896 15.191,1.539 14.738,1.426 14.623,0.858 "/>
<polyline fill="#D49494" points="20.32,7.495 20.152,7.453 20.039,6.886 20.32,6.909 20.32,7.495 "/>
<polyline fill="#D49494" points="12.884,3.518 13.339,3.555 13.453,4.198 12.998,4.084 12.884,3.518 "/>
<polyline fill="#D49494" points="15.308,12.261 15.761,12.298 15.875,12.943 15.421,12.828 15.308,12.261 "/>
<polyline fill="#D49494" points="7.169,5.106 7.623,5.145 7.738,5.788 7.283,5.675 7.169,5.106 "/>
<polyline fill="#D49494" points="8.191,4.879 8.646,4.917 8.759,5.562 8.306,5.447 8.191,4.879 "/>
<polyline fill="#D49494" points="17.808,18.847 18.263,18.886 18.376,19.529 17.921,19.416 17.808,18.847 "/>
<polyline fill="#D49494" points="1.832,5.712 2.286,5.75 2.399,6.394 1.944,6.28 1.832,5.712 "/>
<polyline fill="#D49494" points="16.064,14.039 16.519,14.078 16.632,14.722 16.179,14.607 16.064,14.039 "/>
<polyline fill="#D49494" points="13.49,11.314 13.945,11.353 14.058,11.996 13.605,11.882 13.49,11.314 "/>
<polyline fill="#D49494" points="12.166,3.139 12.621,3.177 12.734,3.819 12.279,3.706 12.166,3.139 "/>
<polyline fill="#D49494" points="16.253,14.949 16.708,14.986 16.822,15.628 16.367,15.517 16.253,14.949 "/>
<polyline fill="#D49494" points="12.394,10.822 12.847,10.861 12.96,11.503 12.505,11.39 12.394,10.822 "/>
<polyline fill="#D49494" points="16.447,15.857 16.902,15.894 17.015,16.539 16.562,16.425 16.447,15.857 "/>
<polyline fill="#D49494" points="14.458,12.667 14.912,12.705 15.027,13.349 14.572,13.236 14.458,12.667 "/>
<polyline fill="#D49494" points="10.308,3.704 10.763,3.741 10.876,4.386 10.421,4.271 10.308,3.704 "/>
<polyline fill="#D49494" points="8.759,9.65 9.212,9.687 9.328,10.33 8.873,10.216 8.759,9.65 "/>
<polyline fill="#D49494" points="13.49,12.224 13.945,12.261 14.058,12.904 13.605,12.791 13.49,12.224 "/>
<polyline fill="#D49494" points="12.544,2.154 12.998,2.192 13.113,2.835 12.658,2.723 12.544,2.154 "/>
<polyline fill="#D49494" points="4.179,4.917 4.633,4.955 4.747,5.599 4.292,5.485 4.179,4.917 "/>
<polyline fill="#D49494" points="7.359,4.274 7.814,4.312 7.925,4.955 7.472,4.842 7.359,4.274 "/>
<polyline fill="#D49494" points="11.32,2.85 11.773,2.888 11.886,3.531 11.433,3.417 11.32,2.85 "/>
<polyline fill="#D49494" points="17.097,19.216 17.55,19.253 17.664,19.898 17.208,19.785 17.097,19.216 "/>
<polyline fill="#D49494" points="11.716,11.208 12.171,11.246 12.285,11.89 11.83,11.777 11.716,11.208 "/>
<polyline fill="#D49494" points="9.517,3.403 9.97,3.441 10.083,4.084 9.628,3.972 9.517,3.403 "/>
<polyline fill="#D49494" points="15.875,16.576 16.33,16.613 16.443,17.257 15.99,17.144 15.875,16.576 "/>
<polyline fill="#D49494" points="12.734,1.133 13.189,1.17 13.3,1.813 12.847,1.7 12.734,1.133 "/>
<polyline fill="#D49494" points="8.078,10.179 8.533,10.216 8.646,10.861 8.191,10.746 8.078,10.179 "/>
<polyline fill="#D49494" points="0.129,5.069 0.583,5.106 0.696,5.75 0.242,5.637 0.129,5.069 "/>
<polyline fill="#D49494" points="16.632,20.32 16.556,19.937 17.011,19.974 17.072,20.32 16.632,20.32 "/>
<polyline fill="#D49494" points="6.677,3.782 7.131,3.819 7.246,4.463 6.791,4.35 6.677,3.782 "/>
<polyline fill="#D49494" points="13.789,14.291 14.244,14.328 14.357,14.972 13.902,14.859 13.789,14.291 "/>
<polyline fill="#D49494" points="8.646,2.761 9.101,2.797 9.212,3.441 8.759,3.327 8.646,2.761 "/>
<polyline fill="#D49494" points="10.351,11.82 10.806,11.859 10.919,12.501 10.464,12.388 10.351,11.82 "/>
<polyline fill="#D49494" points="3.194,4.198 3.649,4.236 3.763,4.879 3.308,4.767 3.194,4.198 "/>
<polyline fill="#D49494" points="1.644,4.463 2.097,4.501 2.21,5.145 1.756,5.031 1.644,4.463 "/>
<polyline fill="#D49494" points="0.849,4.501 1.302,4.539 1.416,5.183 0.961,5.069 0.849,4.501 "/>
<polyline fill="#D49494" points="9.025,2.116 9.478,2.154 9.591,2.797 9.138,2.685 9.025,2.116 "/>
<polyline fill="#D49494" points="15.232,18.406 15.687,18.445 15.798,19.087 15.345,18.974 15.232,18.406 "/>
<polyline fill="#D49494" points="13.455,15.304 13.91,15.341 14.023,15.984 13.57,15.871 13.455,15.304 "/>
<polyline fill="#D49494" points="3.989,3.593 4.444,3.63 4.558,4.274 4.103,4.16 3.989,3.593 "/>
<polyline fill="#D49494" points="2.362,3.934 2.815,3.972 2.931,4.614 2.476,4.501 2.362,3.934 "/>
<polyline fill="#D49494" points="6.033,3.015 6.487,3.053 6.601,3.695 6.147,3.582 6.033,3.015 "/>
<polyline fill="#D49494" points="14.664,17.599 15.119,17.636 15.232,18.279 14.777,18.166 14.664,17.599 "/>
<polyline fill="#D49494" points="10.123,1.133 10.576,1.17 10.689,1.813 10.236,1.7 10.123,1.133 "/>
<polyline fill="#D49494" points="9.402,1.436 9.857,1.474 9.97,2.116 9.517,2.003 9.402,1.436 "/>
<polyline fill="#D49494" points="5.246,3.096 5.7,3.134 5.813,3.776 5.358,3.663 5.246,3.096 "/>
<polyline fill="#D49494" points="7.207,2.23 7.662,2.268 7.775,2.911 7.32,2.797 7.207,2.23 "/>
<polyline fill="#D49494" points="4.368,2.911 4.821,2.949 4.937,3.593 4.481,3.479 4.368,2.911 "/>
<polyline fill="#D49494" points="7.662,1.586 8.115,1.624 8.23,2.268 7.775,2.154 7.662,1.586 "/>
<polyline fill="#D49494" points="13.921,18.041 14.375,18.078 14.49,18.722 14.035,18.609 13.921,18.041 "/>
<polyline fill="#D49494" points="13.3,17.068 13.755,17.107 13.869,17.75 13.416,17.636 13.3,17.068 "/>
<polyline fill="#D49494" points="12.128,15.82 12.582,15.857 12.695,16.5 12.242,16.386 12.128,15.82 "/>
<polyline fill="#D49494" points="6.487,1.474 6.942,1.511 7.056,2.154 6.601,2.04 6.487,1.474 "/>
<polyline fill="#D49494" points="0.772,3.214 1.226,3.252 1.34,3.896 0.886,3.782 0.772,3.214 "/>
<polyline fill="#D49494" points="3.61,2.381 4.065,2.419 4.179,3.063 3.726,2.949 3.61,2.381 "/>
<polyline fill="#D49494" points="4.142,1.511 4.595,1.548 4.709,2.192 4.254,2.078 4.142,1.511 "/>
<polyline fill="#D49494" points="4.709,1.095 5.163,1.133 5.276,1.775 4.821,1.662 4.709,1.095 "/>
<polyline fill="#D49494" points="0.204,2.344 0.658,2.381 0.772,3.025 0.317,2.911 0.204,2.344 "/>
<polyline fill="#D49494" points="1.967,12.216 2.421,12.253 2.534,12.898 2.08,12.783 1.967,12.216 "/>
<polyline fill="#D49494" points="1.34,1.474 1.794,1.511 1.908,2.154 1.453,2.04 1.34,1.474 "/>
<polyline fill="#D49494" points="2.135,1.095 2.589,1.133 2.702,1.775 2.248,1.662 2.135,1.095 "/>
<polyline fill="#D49494" points="0.431,1.511 0.886,1.548 0.999,2.192 0.545,2.078 0.431,1.511 "/>
<polyline fill="#D49494" points="3.46,14.722 3.914,14.759 4.026,15.402 3.573,15.289 3.46,14.722 "/>
<polyline fill="#D49494" points="0.129,13.472 0.583,13.511 0.696,14.154 0.242,14.039 0.129,13.472 "/>
<polyline fill="#D49494" points="7.093,18.052 7.548,18.091 7.662,18.734 7.207,18.621 7.093,18.052 "/>
<polyline fill="#D49494" points="3.914,15.82 4.368,15.857 4.481,16.5 4.026,16.386 3.914,15.82 "/>
<polyline fill="#D49494" points="1.908,14.796 2.362,14.833 2.476,15.478 2.021,15.365 1.908,14.796 "/>
<polyline fill="#D49494" points="2.74,15.251 3.194,15.289 3.308,15.933 2.854,15.82 2.74,15.251 "/>
<polyline fill="#D49494" points="7.699,19.15 8.154,19.187 8.267,19.832 7.814,19.718 7.699,19.15 "/>
<polyline fill="#D49494" points="0.694,14.644 1.147,14.681 1.263,15.324 0.808,15.21 0.694,14.644 "/>
<polyline fill="#D49494" points="1.401,15.414 1.856,15.453 1.97,16.097 1.515,15.982 1.401,15.414 "/>
<polyline fill="#D49494" points="1.302,16.3 1.756,16.337 1.87,16.98 1.416,16.867 1.302,16.3 "/>
<polyline fill="#D49494" points="4.825,18.847 5.278,18.886 5.392,19.529 4.938,19.414 4.825,18.847 "/>
<polyline fill="#D49494" points="2.06,17.031 2.513,17.068 2.627,17.71 2.173,17.599 2.06,17.031 "/>
</svg>
