<?xml version="1.0" encoding="utf-8"?>
<!-- Generator: Adobe Illustrator 14.0.0, SVG Export Plug-In  -->
<!DOCTYPE svg PUBLIC "-//W3C//DTD SVG 1.1//EN" "http://www.w3.org/Graphics/SVG/1.1/DTD/svg11.dtd" [
	<!ENTITY ns_flows "http://ns.adobe.com/Flows/1.0/">
]>
<svg version="1.1"
	 xmlns="http://www.w3.org/2000/svg" xmlns:xlink="http://www.w3.org/1999/xlink" xmlns:a="http://ns.adobe.com/AdobeSVGViewerExtensions/3.0/"
	 x="0px" y="0px" width="30.479px" height="30.477px" viewBox="0 0 30.479 30.477" enable-background="new 0 0 30.479 30.477"
	 xml:space="preserve">
<defs>
</defs>
<rect fill="none" width="30.479" height="30.477"/>
<polyline fill="#3F9C35" points="14.014,0 14.014,0.333 13.503,0.347 13.503,0 14.014,0 "/>
<polyline fill="#3F9C35" points="27.354,20.887 27.223,21.163 27.73,21.163 27.936,21.557 27.965,22.022 27.762,22.372 
	27.134,22.213 27.163,22.459 27.469,22.635 27.498,22.94 27.877,22.94 27.863,22.577 28.329,22.168 28.314,21.411 27.979,20.887 
	27.354,20.887 "/>
<polyline fill="#3F9C35" points="4.08,18.44 3.949,18.717 4.459,18.717 4.663,19.11 4.691,19.575 4.488,19.926 3.861,19.766 
	3.891,20.014 4.197,20.188 4.227,20.493 4.605,20.493 4.59,20.129 5.057,19.721 5.042,18.965 4.706,18.44 4.08,18.44 "/>
<polyline fill="#3F9C35" points="18.506,20.127 19.075,20.141 19.337,20.754 19.322,21.221 19.016,21.715 18.667,21.438 
	18.23,21.454 18.754,21.963 18.754,22.415 19.221,22.415 19.191,21.948 19.832,21.366 19.848,20.463 19.337,19.879 18.579,19.895 
	18.506,20.127 "/>
<polyline fill="#3F9C35" points="8.605,19.729 9.174,19.743 9.436,20.356 9.421,20.821 9.115,21.317 8.766,21.042 8.329,21.055 
	8.854,21.565 8.854,22.016 9.318,22.016 9.29,21.551 9.932,20.967 9.945,20.065 9.436,19.481 8.678,19.495 8.605,19.729 "/>
<polyline fill="#3F9C35" points="0,22.043 0.619,22.202 0.823,21.852 0.793,21.385 0.59,20.993 0.08,20.993 0.211,20.715 
	0.837,20.715 1.172,21.241 1.188,21.997 0.721,22.405 0.734,22.77 0.355,22.77 0.327,22.463 0.021,22.29 0,22.108 0,22.043 "/>
<polyline fill="#3F9C35" points="11.988,22.252 11.857,22.528 12.368,22.528 12.572,22.922 12.602,23.389 12.396,23.739 
	11.771,23.577 11.8,23.825 12.105,24 12.135,24.307 12.514,24.307 12.499,23.942 12.965,23.534 12.951,22.776 12.616,22.252 
	11.988,22.252 "/>
<polyline fill="#3F9C35" points="24.596,23.825 25.163,23.84 25.425,24.452 25.411,24.918 25.105,25.413 24.755,25.137 
	24.318,25.151 24.842,25.661 24.842,26.114 25.309,26.114 25.279,25.647 25.921,25.065 25.936,24.161 25.425,23.579 24.668,23.592 
	24.596,23.825 "/>
<polyline fill="#3F9C35" points="21.037,24.073 20.906,24.35 21.415,24.35 21.619,24.743 21.648,25.209 21.445,25.559 
	20.818,25.399 20.848,25.647 21.152,25.821 21.182,26.127 21.561,26.127 21.547,25.762 22.014,25.354 21.998,24.598 21.663,24.073 
	21.037,24.073 "/>
<polyline fill="#3F9C35" points="15.035,23.485 15.604,23.5 15.866,24.112 15.852,24.577 15.545,25.073 15.195,24.795 
	14.759,24.811 15.283,25.321 15.283,25.772 15.749,25.772 15.721,25.305 16.361,24.723 16.376,23.819 15.866,23.237 15.107,23.252 
	15.035,23.485 "/>
<polyline fill="#3F9C35" points="27.667,25.647 28.236,25.661 28.498,26.274 28.482,26.739 28.177,27.235 27.828,26.959 
	27.391,26.973 27.915,27.483 27.915,27.934 28.381,27.934 28.352,27.467 28.993,26.885 29.008,25.981 28.498,25.399 27.74,25.413 
	27.667,25.647 "/>
<polyline fill="#3F9C35" points="2.402,23.143 2.971,23.157 3.234,23.77 3.219,24.235 2.913,24.731 2.564,24.454 2.126,24.469 
	2.65,24.979 2.65,25.43 3.117,25.43 3.088,24.965 3.729,24.381 3.744,23.479 3.234,22.895 2.477,22.911 2.402,23.143 "/>
<polyline fill="#3F9C35" points="6.641,23.903 6.509,24.178 7.02,24.178 7.223,24.573 7.252,25.038 7.049,25.389 6.422,25.227 
	6.451,25.475 6.757,25.651 6.786,25.956 7.165,25.956 7.15,25.592 7.617,25.184 7.602,24.426 7.268,23.903 6.641,23.903 "/>
<polyline fill="#3F9C35" points="9.543,25.268 9.411,25.545 9.921,25.545 10.125,25.938 10.154,26.405 9.95,26.754 9.324,26.594 
	9.354,26.842 9.659,27.016 9.688,27.321 10.066,27.321 10.052,26.958 10.52,26.549 10.504,25.793 10.169,25.268 9.543,25.268 "/>
<polyline fill="#3F9C35" points="17.994,26.842 18.563,26.856 18.825,27.469 18.811,27.934 18.504,28.43 18.154,28.153 
	17.717,28.168 18.242,28.678 18.242,29.129 18.708,29.129 18.68,28.663 19.32,28.081 19.335,27.176 18.825,26.594 18.066,26.608 
	17.994,26.842 "/>
<polyline fill="#3F9C35" points="22.623,30.477 22.623,30.442 22.1,29.932 22.536,29.917 22.887,30.194 23.191,29.698 
	23.206,29.233 22.943,28.62 22.376,28.606 22.448,28.372 23.206,28.358 23.716,28.94 23.701,29.844 23.061,30.426 23.064,30.477 
	22.623,30.477 "/>
<polyline fill="#3F9C35" points="18.327,30.477 18.352,30.401 19.109,30.385 19.189,30.477 18.327,30.477 "/>
<polyline fill="#3F9C35" points="13.503,30.477 13.503,30.374 12.964,29.602 13.43,29.514 13.751,29.95 14.348,28.596 
	13.911,27.606 13.328,27.575 13.328,27.256 14.057,27.182 14.814,28.29 14.8,29.368 14.014,30.374 14.014,30.477 13.503,30.477 "/>
<polyline fill="#3F9C35" points="6.443,27.581 7.012,27.596 7.273,28.208 7.259,28.674 6.953,29.17 6.604,28.893 6.166,28.907 
	6.691,29.418 6.691,29.868 7.157,29.868 7.128,29.403 7.77,28.819 7.784,27.917 7.273,27.334 6.516,27.348 6.443,27.581 "/>
<polyline fill="#3F9C35" points="4.063,30.477 4.061,30.473 3.551,30.473 3.682,30.198 4.309,30.198 4.486,30.477 4.063,30.477 "/>
<polyline fill="#3F9C35" points="1.379,28.094 1.947,28.108 2.209,28.721 2.195,29.186 1.889,29.682 1.539,29.405 1.102,29.42 
	1.627,29.93 1.627,30.381 2.093,30.381 2.064,29.915 2.705,29.331 2.719,28.428 2.209,27.846 1.452,27.86 1.379,28.094 "/>
<polyline fill="#3F9C35" points="12.986,11.762 13.555,11.778 13.816,12.389 13.803,12.856 13.497,13.35 13.146,13.075 
	12.71,13.088 13.234,13.598 13.234,14.051 13.701,14.051 13.672,13.584 14.313,13.002 14.327,12.098 13.816,11.516 13.061,11.53 
	12.986,11.762 "/>
<polyline fill="#3F9C35" points="23.064,0 23.09,0.414 22.623,0.414 22.623,0 23.064,0 "/>
<polyline fill="#3F9C35" points="17.027,11.307 17.596,11.323 17.857,11.934 17.843,12.401 17.537,12.895 17.188,12.618 
	16.75,12.633 17.275,13.143 17.275,13.594 17.741,13.594 17.712,13.129 18.354,12.547 18.367,11.643 17.857,11.061 17.1,11.075 
	17.027,11.307 "/>
<polyline fill="#3F9C35" points="19.018,6.641 19.587,6.657 19.85,7.268 19.834,7.735 19.527,8.229 19.18,7.952 18.742,7.967 
	19.266,8.477 19.266,8.93 19.732,8.93 19.703,8.463 20.344,7.881 20.359,6.977 19.85,6.395 19.091,6.409 19.018,6.641 "/>
<polyline fill="#3F9C35" points="25.221,0.496 25.789,0.511 26.051,1.122 26.037,1.59 25.73,2.085 25.381,1.808 24.943,1.822 
	25.468,2.333 25.468,2.784 25.936,2.784 25.904,2.317 26.546,1.734 26.561,0.831 26.051,0.249 25.294,0.264 25.221,0.496 "/>
<polyline fill="#3F9C35" points="28.919,2.261 29.486,2.274 29.75,2.887 29.734,3.354 29.43,3.848 29.08,3.571 28.643,3.586 
	29.167,4.096 29.167,4.547 29.633,4.547 29.604,4.081 30.245,3.499 30.26,2.596 29.75,2.013 28.992,2.027 28.919,2.261 "/>
<polyline fill="#3F9C35" points="0,17.372 0.066,17.446 0.051,18.35 0,18.397 0,17.372 "/>
<polyline fill="#3F9C35" points="23.969,18.25 24.537,18.264 24.799,18.877 24.785,19.342 24.479,19.838 24.129,19.561 
	23.691,19.575 24.217,20.086 24.217,20.536 24.684,20.536 24.654,20.071 25.295,19.489 25.309,18.584 24.799,18.002 24.042,18.016 
	23.969,18.25 "/>
<polyline fill="#3F9C35" points="30.479,18.397 29.889,18.932 29.918,19.399 29.451,19.399 29.451,18.948 28.927,18.438 
	29.363,18.422 29.714,18.7 30.02,18.204 30.034,17.739 29.771,17.127 29.204,17.112 29.277,16.879 30.034,16.864 30.479,17.372 
	30.479,18.397 "/>
<polyline fill="#3F9C35" points="26.7,13.584 27.268,13.598 27.531,14.211 27.516,14.676 27.21,15.172 26.859,14.895 26.423,14.909 
	26.948,15.42 26.948,15.872 27.414,15.872 27.385,15.405 28.025,14.823 28.04,13.918 27.531,13.336 26.773,13.35 26.7,13.584 "/>
<polyline fill="#3F9C35" points="30.479,22.108 30.471,22.042 30.479,22.043 30.479,22.108 "/>
<polyline fill="#3F9C35" points="13.613,18.477 14.182,18.491 14.443,19.104 14.43,19.569 14.123,20.065 13.773,19.788 
	13.336,19.803 13.861,20.313 13.861,20.764 14.327,20.764 14.298,20.299 14.939,19.715 14.953,18.813 14.443,18.229 13.686,18.245 
	13.613,18.477 "/>
<polyline fill="#3F9C35" points="25.619,5.788 26.188,5.803 26.449,6.415 26.436,6.881 26.129,7.377 25.779,7.1 25.342,7.114 
	25.867,7.624 25.867,8.075 26.333,8.075 26.305,7.61 26.945,7.026 26.959,6.124 26.449,5.542 25.691,5.555 25.619,5.788 "/>
<polyline fill="#3F9C35" points="7.068,2.261 7.637,2.274 7.9,2.887 7.885,3.354 7.579,3.848 7.229,3.571 6.792,3.586 7.316,4.096 
	7.316,4.547 7.783,4.547 7.754,4.081 8.395,3.499 8.41,2.596 7.9,2.013 7.143,2.027 7.068,2.261 "/>
<polyline fill="#3F9C35" points="11.734,1.406 12.303,1.422 12.566,2.033 12.551,2.5 12.245,2.995 11.895,2.719 11.458,2.733 
	11.982,3.243 11.982,3.694 12.449,3.694 12.42,3.227 13.061,2.645 13.075,1.741 12.566,1.159 11.809,1.174 11.734,1.406 "/>
<polyline fill="#3F9C35" points="20.727,15.633 21.294,15.647 21.557,16.258 21.541,16.725 21.234,17.221 20.887,16.944 
	20.449,16.958 20.973,17.467 20.973,17.92 21.439,17.92 21.41,17.454 22.051,16.87 22.066,15.967 21.557,15.385 20.798,15.399 
	20.727,15.633 "/>
<polyline fill="#3F9C35" points="15.348,7.344 15.215,7.62 15.725,7.62 15.93,8.014 15.958,8.481 15.754,8.829 15.128,8.67 
	15.157,8.918 15.463,9.092 15.492,9.399 15.871,9.399 15.855,9.034 16.323,8.625 16.309,7.868 15.973,7.344 15.348,7.344 "/>
<polyline fill="#3F9C35" points="10.598,6.528 11.165,6.543 11.427,7.155 11.413,7.62 11.107,8.116 10.757,7.84 10.32,7.854 
	10.846,8.364 10.846,8.815 11.311,8.815 11.282,8.35 11.923,7.766 11.938,6.864 11.427,6.28 10.67,6.295 10.598,6.528 "/>
<polyline fill="#3F9C35" points="4.566,6.295 5.148,6.325 5.585,7.315 4.988,8.67 4.668,8.233 4.201,8.319 4.74,9.092 4.74,9.543 
	5.25,9.53 5.25,9.092 6.037,8.086 6.052,7.008 5.294,5.901 4.566,5.975 4.566,6.295 "/>
<polyline fill="#3F9C35" points="19.189,0 19.619,0.49 19.605,1.394 18.963,1.977 18.993,2.442 18.525,2.442 18.525,1.99 
	18.002,1.48 18.439,1.467 18.789,1.743 19.096,1.247 19.109,0.781 18.848,0.17 18.279,0.155 18.327,0 19.189,0 "/>
<polyline fill="#3F9C35" points="9.145,10.53 9.014,10.807 9.523,10.807 9.727,11.2 9.756,11.667 9.552,12.016 8.926,11.856 
	8.955,12.104 9.262,12.278 9.29,12.584 9.669,12.584 9.654,12.221 10.12,11.813 10.105,11.055 9.771,10.53 9.145,10.53 "/>
<polyline fill="#3F9C35" points="3.057,11.84 2.925,12.116 3.436,12.116 3.639,12.51 3.668,12.975 3.464,13.325 2.837,13.165 
	2.866,13.413 3.172,13.588 3.201,13.893 3.58,13.893 3.566,13.53 4.032,13.122 4.018,12.364 3.682,11.84 3.057,11.84 "/>
<polyline fill="#3F9C35" points="10.852,15.026 10.721,15.303 11.23,15.303 11.434,15.696 11.463,16.161 11.259,16.512 
	10.633,16.352 10.662,16.598 10.968,16.774 10.997,17.079 11.376,17.079 11.361,16.715 11.827,16.307 11.813,15.549 11.479,15.026 
	10.852,15.026 "/>
<polyline fill="#3F9C35" points="16.77,15.594 16.639,15.872 17.148,15.872 17.352,16.264 17.381,16.731 17.177,17.081 
	16.551,16.92 16.58,17.168 16.887,17.342 16.915,17.649 17.294,17.649 17.279,17.284 17.745,16.877 17.73,16.12 17.395,15.594 
	16.77,15.594 "/>
<polyline fill="#3F9C35" points="1.121,3.02 0.99,3.297 1.5,3.297 1.704,3.69 1.732,4.155 1.529,4.506 0.902,4.346 0.932,4.592 
	1.238,4.768 1.268,5.073 1.646,5.073 1.631,4.709 2.098,4.301 2.083,3.543 1.748,3.02 1.121,3.02 "/>
<polyline fill="#3F9C35" points="1.633,15.481 1.502,15.758 2.012,15.758 2.216,16.151 2.245,16.618 2.041,16.967 1.415,16.807 
	1.443,17.055 1.75,17.229 1.779,17.534 2.158,17.534 2.143,17.17 2.609,16.762 2.596,16.006 2.26,15.481 1.633,15.481 "/>
<polyline fill="#3F9C35" points="4.486,0 4.643,0.243 4.658,1.002 4.191,1.409 4.206,1.773 3.827,1.773 3.798,1.468 3.492,1.293 
	3.463,1.045 4.09,1.205 4.294,0.855 4.264,0.39 4.063,0 4.486,0 "/>
<polyline fill="#3F9C35" points="15.916,3.02 15.784,3.297 16.294,3.297 16.498,3.69 16.527,4.155 16.323,4.506 15.697,4.346 
	15.727,4.592 16.032,4.768 16.061,5.073 16.439,5.073 16.425,4.709 16.893,4.301 16.877,3.543 16.542,3.02 15.916,3.02 "/>
<polyline fill="#3F9C35" points="6.898,15.063 7.467,15.077 7.729,15.69 7.714,16.155 7.408,16.651 7.059,16.375 6.622,16.389 
	7.146,16.899 7.146,17.35 7.611,17.35 7.583,16.885 8.225,16.301 8.238,15.399 7.729,14.815 6.971,14.831 6.898,15.063 "/>
<polyline fill="#3F9C35" points="21.947,3.588 21.816,3.866 22.326,3.866 22.529,4.258 22.559,4.725 22.355,5.075 21.729,4.915 
	21.758,5.161 22.064,5.336 22.093,5.643 22.473,5.643 22.457,5.278 22.923,4.87 22.909,4.112 22.574,3.588 21.947,3.588 "/>
<polyline fill="#3F9C35" points="21.663,10.53 21.531,10.807 22.041,10.807 22.245,11.2 22.273,11.667 22.07,12.016 21.443,11.856 
	21.473,12.104 21.779,12.278 21.809,12.584 22.188,12.584 22.172,12.221 22.639,11.813 22.624,11.055 22.289,10.53 21.663,10.53 "/>
<polyline fill="#3F9C35" points="25.077,9.792 24.945,10.067 25.455,10.067 25.659,10.461 25.689,10.926 25.484,11.276 
	24.857,11.116 24.887,11.364 25.193,11.538 25.223,11.844 25.602,11.844 25.587,11.481 26.053,11.073 26.038,10.315 25.703,9.792 
	25.077,9.792 "/>
<polyline fill="#3F9C35" points="30.479,10.024 30.287,10.024 30.257,9.719 29.951,9.543 29.922,9.295 30.479,9.438 30.479,10.024 
	"/>
<polyline fill="#3F9C35" points="30.479,8.247 30.01,8.247 30.141,7.969 30.479,7.969 30.479,8.247 "/>
<polyline fill="#3F9C35" points="0,9.438 0.07,9.456 0.275,9.106 0.245,8.639 0.042,8.247 0,8.247 0,7.969 0.289,7.969 0.624,8.495 
	0.639,9.252 0.173,9.659 0.188,10.024 0,10.024 0,9.438 "/>
</svg>
