<?xml version="1.0" encoding="utf-8"?>
<!-- Generator: Adobe Illustrator 14.0.0, SVG Export Plug-In  -->
<!DOCTYPE svg PUBLIC "-//W3C//DTD SVG 1.1//EN" "http://www.w3.org/Graphics/SVG/1.1/DTD/svg11.dtd" [
	<!ENTITY ns_flows "http://ns.adobe.com/Flows/1.0/">
]>
<svg version="1.1"
	 xmlns="http://www.w3.org/2000/svg" xmlns:xlink="http://www.w3.org/1999/xlink" xmlns:a="http://ns.adobe.com/AdobeSVGViewerExtensions/3.0/"
	 x="0px" y="0px" width="29.933px" height="29.955px" viewBox="0 0 29.933 29.955" enable-background="new 0 0 29.933 29.955"
	 xml:space="preserve">
<defs>
</defs>
<rect x="0" fill="none" width="29.933" height="29.955"/>
<path fill="#3F9C35" d="M29.723,3.836c0-0.551-0.005-1.03-0.063-1.33c-0.116-0.578-0.104-0.549-0.476-1.245
	c0,0-0.233-0.438-0.391-0.344c-0.155,0.094,0.095,0.5,0.095,0.5c0.371,0.692,0.313,0.638,0.417,1.159
	c0.055,0.268,0.059,0.748,0.059,1.26H29.723z"/>
<path fill="#3F9C35" d="M28.706,3.911c-0.063-0.35-0.167-0.599-0.268-0.839l-0.012-0.028c-0.117-0.282-0.137-0.297-0.32-0.518
	c0,0-0.234-0.344-0.422-0.203c-0.115,0.086,0.094,0.359,0.094,0.359c0.168,0.2,0.219,0.268,0.315,0.499
	c0,0.001,0.012,0.028,0.012,0.028c0.098,0.233,0.189,0.454,0.246,0.766L28.706,3.911z"/>
<path fill="#3F9C35" d="M27.636,4.194c-0.143-0.446-0.273-0.724-0.671-1.012c0,0-0.234-0.219-0.359-0.094s0.141,0.375,0.141,0.375
	c0.338,0.245,0.427,0.465,0.548,0.841L27.636,4.194z"/>
<path fill="#3F9C35" d="M26.61,4.714l-0.128-0.168c-0.164-0.222-0.105-0.259-0.329-0.426c0,0-0.281-0.172-0.375-0.031
	S25.84,4.37,25.84,4.37c0.182,0.136,0.198,0.182,0.353,0.391l0.129,0.171L26.61,4.714z"/>
<path fill="#3F9C35" d="M29.933,16.677c-0.144-0.446-0.274-0.724-0.672-1.012c0,0-0.234-0.219-0.359-0.094s0.141,0.375,0.141,0.375
	c0.338,0.245,0.427,0.465,0.548,0.841L29.933,16.677z"/>
<path fill="#3F9C35" d="M28.906,17.196l-0.128-0.168c-0.164-0.222-0.105-0.259-0.329-0.426c0,0-0.281-0.172-0.375-0.031
	s0.063,0.281,0.063,0.281c0.182,0.136,0.198,0.182,0.353,0.391l0.129,0.171L28.906,17.196z"/>
<path fill="#3F9C35" d="M28.292,21.15l-0.008-0.111c-0.046-0.631-0.158-1.541-0.487-1.979c0,0-0.213-0.334-0.391-0.234
	c-0.14,0.078,0.157,0.469,0.157,0.469c0.25,0.359,0.316,1.149,0.362,1.77l0.008,0.113L28.292,21.15z"/>
<path fill="#3F9C35" d="M29.338,21.194c0.029-0.459,0.163-1.306,0.396-1.759c0,0,0.234-0.375,0.095-0.469
	c-0.141-0.094-0.36,0.297-0.5,0.609c-0.204,0.452-0.323,1.171-0.35,1.595L29.338,21.194z"/>
<path fill="#3F9C35" d="M27.301,21.232c-0.153-0.631-0.316-0.875-0.597-1.219c0,0-0.365-0.444-0.485-0.313
	c-0.172,0.188,0.095,0.375,0.095,0.375c0.376,0.45,0.5,0.677,0.638,1.241L27.301,21.232z"/>
<path fill="#3F9C35" d="M26.197,21.531c-0.216-0.476-0.29-0.596-0.462-0.783c0,0-0.346-0.33-0.438-0.219
	c-0.141,0.172,0.109,0.359,0.109,0.359c0.199,0.197,0.236,0.293,0.461,0.791L26.197,21.531z"/>
<path fill="#3F9C35" d="M25.243,22.019c-0.225-0.336-0.476-0.567-0.476-0.567s-0.313-0.313-0.438-0.188
	c-0.173,0.172,0.172,0.406,0.172,0.406c0.264,0.264,0.237,0.242,0.441,0.548L25.243,22.019z"/>
<path fill="#3F9C35" d="M0.647,3.9c0.06-0.555,0.102-0.828,0.135-1.049l0.03-0.207C0.9,2.021,0.88,1.731,1.275,1.354
	c0,0,0.188-0.266,0.125-0.359S1.103,1.089,1.103,1.089C0.636,1.536,0.552,1.907,0.456,2.595L0.426,2.797
	C0.392,3.021,0.349,3.3,0.29,3.862L0.647,3.9z"/>
<path fill="#3F9C35" d="M1.57,4.145c0.173-0.499,0.154-0.526,0.314-0.79c0.18-0.296,0.25-0.469,0.406-0.609
	c0,0,0.328-0.313,0.219-0.422C2.445,2.259,2.072,2.479,2.072,2.479C1.884,2.636,1.815,2.769,1.668,3.01
	C1.493,3.301,1.408,3.509,1.231,4.027L1.57,4.145z"/>
<path fill="#3F9C35" d="M2.581,4.564c0.153-0.335,0.531-0.621,0.585-0.663c0,0,0.281-0.25,0.188-0.359S3.009,3.651,3.009,3.651
	C2.964,3.687,2.437,4.01,2.252,4.416L2.581,4.564z"/>
<path fill="#3F9C35" d="M3.405,5.278c0.055-0.055,0.101-0.103,0.142-0.146c0.176-0.185,0.08-0.187,0.416-0.325
	c0,0,0.219-0.109,0.188-0.234S3.884,4.479,3.884,4.479C3.478,4.647,3.476,4.685,3.286,4.885c-0.04,0.04-0.083,0.087-0.136,0.139
	L3.405,5.278z"/>
<path fill="#3F9C35" d="M3.016,16.383c0.06-0.555,0.102-0.828,0.136-1.049l0.029-0.207c0.088-0.623,0.068-0.913,0.463-1.29
	c0,0,0.188-0.266,0.125-0.359s-0.297,0.094-0.297,0.094c-0.467,0.447-0.551,0.818-0.647,1.506l-0.028,0.202
	c-0.034,0.225-0.078,0.503-0.138,1.065L3.016,16.383z"/>
<path fill="#3F9C35" d="M2.075,16.318c0-0.551-0.006-1.03-0.065-1.33c-0.115-0.578-0.103-0.549-0.475-1.245
	c0,0-0.234-0.438-0.391-0.344s0.094,0.5,0.094,0.5c0.371,0.692,0.314,0.638,0.418,1.159c0.054,0.268,0.059,0.748,0.059,1.26H2.075z"
	/>
<path fill="#3F9C35" d="M3.939,16.627c0.173-0.499,0.154-0.526,0.314-0.79c0.18-0.296,0.25-0.469,0.406-0.609
	c0,0,0.328-0.313,0.219-0.422c-0.064-0.064-0.438,0.156-0.438,0.156c-0.188,0.156-0.257,0.289-0.403,0.53
	c-0.176,0.291-0.261,0.499-0.438,1.018L3.939,16.627z"/>
<path fill="#3F9C35" d="M4.95,17.047c0.153-0.335,0.531-0.621,0.585-0.663c0,0,0.281-0.25,0.188-0.359s-0.344,0.109-0.344,0.109
	c-0.045,0.035-0.572,0.358-0.757,0.765L4.95,17.047z"/>
<path fill="#3F9C35" d="M5.774,17.761c0.055-0.055,0.101-0.103,0.142-0.146c0.177-0.185,0.08-0.187,0.416-0.325
	c0,0,0.219-0.109,0.188-0.234s-0.266-0.094-0.266-0.094c-0.407,0.168-0.408,0.205-0.599,0.405c-0.04,0.04-0.083,0.087-0.136,0.139
	L5.774,17.761z"/>
<path fill="#3F9C35" d="M1.055,16.394c-0.063-0.35-0.167-0.599-0.268-0.839l-0.012-0.028c-0.116-0.282-0.136-0.297-0.319-0.518
	c0,0-0.234-0.344-0.422-0.203c-0.115,0.086,0.094,0.359,0.094,0.359c0.167,0.2,0.219,0.268,0.315,0.499
	c0,0.001,0.012,0.028,0.012,0.028c0.098,0.233,0.189,0.454,0.246,0.766L1.055,16.394z"/>
<path fill="#3F9C35" d="M5.637,27.38c0.06-0.554,0.101-0.828,0.134-1.048l0.031-0.207c0.088-0.624,0.068-0.913,0.463-1.291
	c0,0,0.188-0.266,0.125-0.359s-0.298,0.094-0.298,0.094c-0.467,0.448-0.551,0.819-0.647,1.507l-0.029,0.202
	c-0.034,0.224-0.076,0.502-0.136,1.064L5.637,27.38z"/>
<path fill="#3F9C35" d="M4.694,27.315c0-0.55-0.005-1.03-0.064-1.33c-0.114-0.577-0.103-0.548-0.475-1.245
	c0,0-0.233-0.438-0.39-0.344s0.094,0.5,0.094,0.5c0.37,0.693,0.313,0.638,0.418,1.159c0.054,0.268,0.058,0.749,0.058,1.26H4.694z"/>
<path fill="#3F9C35" d="M6.559,27.624c0.172-0.498,0.155-0.525,0.314-0.79c0.18-0.296,0.25-0.469,0.406-0.609
	c0,0,0.329-0.313,0.219-0.422c-0.064-0.064-0.438,0.156-0.438,0.156c-0.188,0.156-0.256,0.29-0.403,0.53
	c-0.177,0.291-0.261,0.499-0.438,1.018L6.559,27.624z"/>
<path fill="#3F9C35" d="M7.57,28.045c0.152-0.336,0.531-0.622,0.585-0.664c0,0,0.281-0.25,0.188-0.359s-0.344,0.109-0.344,0.109
	c-0.046,0.036-0.571,0.358-0.756,0.766L7.57,28.045z"/>
<path fill="#3F9C35" d="M8.393,28.759c0.056-0.056,0.103-0.104,0.142-0.146c0.177-0.186,0.081-0.187,0.418-0.326
	c0,0,0.219-0.109,0.188-0.234s-0.267-0.094-0.267-0.094c-0.406,0.169-0.408,0.206-0.599,0.405c-0.04,0.041-0.084,0.088-0.135,0.14
	L8.393,28.759z"/>
<path fill="#3F9C35" d="M3.675,27.392c-0.063-0.351-0.166-0.599-0.268-0.84l-0.012-0.028c-0.116-0.281-0.136-0.296-0.318-0.518
	c0,0-0.235-0.344-0.423-0.203c-0.114,0.087,0.094,0.359,0.094,0.359c0.167,0.201,0.219,0.268,0.315,0.5l0.012,0.028
	c0.099,0.233,0.189,0.454,0.246,0.766L3.675,27.392z"/>
<path fill="#3F9C35" d="M2.607,27.675c-0.143-0.446-0.273-0.725-0.671-1.013c0,0-0.233-0.219-0.358-0.094s0.14,0.375,0.14,0.375
	c0.338,0.245,0.427,0.465,0.548,0.842L2.607,27.675z"/>
<path fill="#3F9C35" d="M1.581,28.194l-0.128-0.169c-0.164-0.222-0.106-0.259-0.329-0.426c0,0-0.281-0.172-0.375-0.031
	s0.063,0.281,0.063,0.281c0.182,0.136,0.198,0.182,0.353,0.391l0.13,0.172L1.581,28.194z"/>
<path fill="#3F9C35" d="M25.826,26.098c0.06-0.554,0.102-0.828,0.135-1.048l0.03-0.207c0.088-0.624,0.068-0.913,0.463-1.291
	c0,0,0.188-0.266,0.125-0.359s-0.297,0.094-0.297,0.094c-0.467,0.448-0.551,0.819-0.647,1.507l-0.029,0.202
	c-0.034,0.224-0.077,0.502-0.137,1.064L25.826,26.098z"/>
<path fill="#3F9C35" d="M24.883,26.033c0-0.55-0.005-1.03-0.064-1.33c-0.115-0.577-0.103-0.548-0.475-1.245
	c0,0-0.234-0.438-0.391-0.344s0.094,0.5,0.094,0.5c0.371,0.693,0.314,0.638,0.418,1.159c0.054,0.268,0.059,0.749,0.059,1.26H24.883z
	"/>
<path fill="#3F9C35" d="M26.749,26.342c0.172-0.498,0.154-0.525,0.314-0.79c0.18-0.296,0.25-0.469,0.406-0.609
	c0,0,0.328-0.313,0.219-0.422c-0.064-0.064-0.438,0.156-0.438,0.156c-0.188,0.156-0.257,0.29-0.403,0.53
	c-0.177,0.291-0.261,0.499-0.438,1.018L26.749,26.342z"/>
<path fill="#3F9C35" d="M27.759,26.763c0.152-0.336,0.531-0.622,0.585-0.664c0,0,0.281-0.25,0.188-0.359s-0.344,0.109-0.344,0.109
	c-0.046,0.036-0.572,0.358-0.757,0.766L27.759,26.763z"/>
<path fill="#3F9C35" d="M28.583,27.477c0.056-0.056,0.102-0.104,0.142-0.146c0.177-0.186,0.081-0.187,0.417-0.326
	c0,0,0.219-0.109,0.188-0.234s-0.266-0.094-0.266-0.094c-0.407,0.169-0.408,0.206-0.599,0.405c-0.04,0.041-0.084,0.088-0.136,0.14
	L28.583,27.477z"/>
<path fill="#3F9C35" d="M23.865,26.109c-0.063-0.351-0.167-0.599-0.268-0.84l-0.012-0.028c-0.116-0.281-0.136-0.296-0.319-0.518
	c0,0-0.234-0.344-0.422-0.203c-0.115,0.087,0.094,0.359,0.094,0.359c0.167,0.201,0.219,0.268,0.315,0.5l0.012,0.028
	c0.098,0.233,0.189,0.454,0.246,0.766L23.865,26.109z"/>
<path fill="#3F9C35" d="M22.796,26.393c-0.143-0.446-0.274-0.725-0.671-1.013c0,0-0.234-0.219-0.359-0.094s0.141,0.375,0.141,0.375
	c0.337,0.245,0.427,0.465,0.548,0.842L22.796,26.393z"/>
<path fill="#3F9C35" d="M21.769,26.912l-0.127-0.169c-0.164-0.222-0.106-0.259-0.329-0.426c0,0-0.281-0.172-0.375-0.031
	S21,26.567,21,26.567c0.182,0.136,0.198,0.182,0.353,0.391l0.129,0.172L21.769,26.912z"/>
<path fill="#3F9C35" d="M19.911,5.575c0.06-0.554,0.102-0.828,0.135-1.048l0.03-0.207c0.088-0.624,0.068-0.913,0.463-1.291
	c0,0,0.188-0.266,0.125-0.359s-0.297,0.094-0.297,0.094c-0.467,0.448-0.551,0.819-0.647,1.507L19.69,4.473
	c-0.034,0.224-0.077,0.502-0.137,1.064L19.911,5.575z"/>
<path fill="#3F9C35" d="M18.968,5.511c0-0.55-0.005-1.03-0.064-1.33c-0.115-0.577-0.103-0.548-0.475-1.245
	c0,0-0.234-0.438-0.391-0.344s0.094,0.5,0.094,0.5c0.371,0.693,0.314,0.638,0.418,1.159c0.054,0.268,0.059,0.749,0.059,1.26H18.968z
	"/>
<path fill="#3F9C35" d="M20.833,5.819c0.172-0.498,0.154-0.525,0.314-0.79c0.18-0.296,0.25-0.469,0.406-0.609
	c0,0,0.328-0.313,0.219-0.422c-0.064-0.064-0.438,0.156-0.438,0.156c-0.188,0.156-0.257,0.29-0.403,0.53
	c-0.177,0.291-0.261,0.499-0.438,1.018L20.833,5.819z"/>
<path fill="#3F9C35" d="M21.844,6.24c0.152-0.336,0.531-0.622,0.585-0.664c0,0,0.281-0.25,0.188-0.359s-0.344,0.109-0.344,0.109
	c-0.046,0.036-0.572,0.358-0.757,0.766L21.844,6.24z"/>
<path fill="#3F9C35" d="M22.667,6.954c0.056-0.056,0.102-0.104,0.142-0.146c0.177-0.186,0.081-0.187,0.417-0.326
	c0,0,0.219-0.109,0.188-0.234s-0.266-0.094-0.266-0.094C22.741,6.323,22.74,6.36,22.549,6.56c-0.04,0.041-0.084,0.088-0.136,0.14
	L22.667,6.954z"/>
<path fill="#3F9C35" d="M17.95,5.587c-0.063-0.351-0.167-0.599-0.268-0.84L17.67,4.719c-0.116-0.281-0.136-0.296-0.319-0.518
	c0,0-0.234-0.344-0.422-0.203c-0.115,0.087,0.094,0.359,0.094,0.359c0.167,0.201,0.219,0.268,0.315,0.5l0.012,0.028
	c0.098,0.233,0.189,0.454,0.246,0.766L17.95,5.587z"/>
<path fill="#3F9C35" d="M16.881,5.87c-0.143-0.446-0.274-0.725-0.671-1.013c0,0-0.234-0.219-0.359-0.094s0.141,0.375,0.141,0.375
	c0.337,0.245,0.427,0.465,0.548,0.842L16.881,5.87z"/>
<path fill="#3F9C35" d="M15.854,6.39l-0.127-0.169c-0.164-0.222-0.106-0.259-0.329-0.426c0,0-0.281-0.172-0.375-0.031
	s0.063,0.281,0.063,0.281c0.182,0.136,0.198,0.182,0.353,0.391l0.129,0.172L15.854,6.39z"/>
<path fill="#3F9C35" d="M17.173,28.576c0.061-0.554,0.103-0.828,0.136-1.048l0.029-0.207c0.088-0.624,0.068-0.913,0.463-1.291
	c0,0,0.188-0.266,0.125-0.359s-0.296,0.094-0.296,0.094c-0.467,0.448-0.551,0.819-0.648,1.507l-0.029,0.202
	c-0.034,0.224-0.076,0.502-0.136,1.064L17.173,28.576z"/>
<path fill="#3F9C35" d="M16.231,28.512c0-0.55-0.005-1.03-0.063-1.33c-0.116-0.577-0.104-0.548-0.475-1.245
	c0,0-0.234-0.438-0.392-0.344c-0.155,0.094,0.095,0.5,0.095,0.5c0.371,0.693,0.313,0.638,0.418,1.159
	c0.054,0.268,0.058,0.749,0.058,1.26H16.231z"/>
<path fill="#3F9C35" d="M18.097,28.82c0.171-0.498,0.154-0.525,0.313-0.79c0.181-0.296,0.25-0.469,0.407-0.609
	c0,0,0.328-0.313,0.218-0.422c-0.063-0.064-0.438,0.156-0.438,0.156c-0.188,0.156-0.256,0.29-0.402,0.53
	c-0.178,0.291-0.262,0.499-0.439,1.018L18.097,28.82z"/>
<path fill="#3F9C35" d="M19.107,29.241c0.152-0.336,0.532-0.622,0.586-0.664c0,0,0.28-0.25,0.188-0.359
	c-0.095-0.109-0.345,0.109-0.345,0.109c-0.046,0.036-0.572,0.358-0.756,0.766L19.107,29.241z"/>
<path fill="#3F9C35" d="M19.93,29.955c0.056-0.056,0.102-0.104,0.142-0.146c0.177-0.186,0.082-0.187,0.417-0.326
	c0,0,0.22-0.109,0.188-0.234c-0.03-0.125-0.266-0.094-0.266-0.094c-0.406,0.169-0.408,0.206-0.598,0.405
	c-0.041,0.041-0.084,0.088-0.137,0.14L19.93,29.955z"/>
<path fill="#3F9C35" d="M15.213,28.588c-0.063-0.351-0.167-0.599-0.268-0.84l-0.012-0.028c-0.116-0.281-0.137-0.296-0.32-0.518
	c0,0-0.233-0.344-0.421-0.203c-0.116,0.087,0.093,0.359,0.093,0.359c0.167,0.201,0.22,0.268,0.315,0.5l0.013,0.028
	c0.097,0.233,0.188,0.454,0.246,0.766L15.213,28.588z"/>
<path fill="#3F9C35" d="M14.144,28.871c-0.143-0.446-0.273-0.725-0.671-1.013c0,0-0.234-0.219-0.359-0.094s0.142,0.375,0.142,0.375
	c0.337,0.245,0.426,0.465,0.547,0.842L14.144,28.871z"/>
<path fill="#3F9C35" d="M13.118,29.391l-0.128-0.169c-0.163-0.222-0.105-0.259-0.329-0.426c0,0-0.28-0.172-0.375-0.031
	c-0.093,0.141,0.063,0.281,0.063,0.281c0.183,0.136,0.199,0.182,0.354,0.391l0.129,0.172L13.118,29.391z"/>
<path fill="#3F9C35" d="M20.684,17.875c0.06-0.554,0.102-0.828,0.135-1.048l0.031-0.207c0.088-0.624,0.067-0.913,0.463-1.291
	c0,0,0.188-0.266,0.125-0.359s-0.298,0.094-0.298,0.094c-0.467,0.448-0.551,0.819-0.647,1.507l-0.029,0.202
	c-0.033,0.224-0.077,0.502-0.137,1.064L20.684,17.875z"/>
<path fill="#3F9C35" d="M19.743,17.811c0-0.55-0.005-1.03-0.065-1.33c-0.114-0.577-0.102-0.548-0.475-1.245
	c0,0-0.234-0.438-0.39-0.344c-0.157,0.094,0.093,0.5,0.093,0.5c0.371,0.693,0.315,0.638,0.418,1.159
	c0.054,0.268,0.06,0.749,0.06,1.26H19.743z"/>
<path fill="#3F9C35" d="M21.607,18.119c0.173-0.498,0.154-0.525,0.315-0.79c0.179-0.296,0.25-0.469,0.405-0.609
	c0,0,0.328-0.313,0.22-0.422c-0.065-0.064-0.438,0.156-0.438,0.156c-0.188,0.156-0.258,0.29-0.404,0.53
	c-0.176,0.291-0.26,0.499-0.438,1.018L21.607,18.119z"/>
<path fill="#3F9C35" d="M22.618,18.54c0.153-0.336,0.532-0.622,0.585-0.664c0,0,0.282-0.25,0.188-0.359
	c-0.093-0.109-0.343,0.109-0.343,0.109c-0.046,0.036-0.572,0.358-0.758,0.766L22.618,18.54z"/>
<path fill="#3F9C35" d="M23.442,19.254c0.055-0.056,0.101-0.104,0.142-0.146c0.176-0.186,0.08-0.187,0.417-0.326
	c0,0,0.218-0.109,0.188-0.234c-0.032-0.125-0.266-0.094-0.266-0.094c-0.408,0.169-0.408,0.206-0.6,0.405
	c-0.039,0.041-0.084,0.088-0.135,0.14L23.442,19.254z"/>
<path fill="#3F9C35" d="M18.723,17.887c-0.063-0.351-0.167-0.599-0.268-0.84l-0.012-0.028c-0.116-0.281-0.135-0.296-0.318-0.518
	c0,0-0.235-0.344-0.423-0.203c-0.114,0.087,0.095,0.359,0.095,0.359c0.166,0.201,0.218,0.268,0.315,0.5l0.011,0.028
	c0.099,0.233,0.19,0.454,0.247,0.766L18.723,17.887z"/>
<path fill="#3F9C35" d="M17.656,18.17c-0.143-0.446-0.275-0.725-0.671-1.013c0,0-0.234-0.219-0.359-0.094s0.14,0.375,0.14,0.375
	c0.337,0.245,0.428,0.465,0.549,0.842L17.656,18.17z"/>
<path fill="#3F9C35" d="M16.627,18.689l-0.126-0.169c-0.164-0.222-0.107-0.259-0.329-0.426c0,0-0.282-0.172-0.375-0.031
	c-0.095,0.141,0.063,0.281,0.063,0.281c0.182,0.136,0.198,0.182,0.353,0.391l0.129,0.172L16.627,18.689z"/>
<path fill="#3F9C35" d="M13.982,12.706c0.06-0.554,0.102-0.828,0.135-1.048l0.03-0.207c0.088-0.624,0.068-0.913,0.463-1.291
	c0,0,0.188-0.266,0.125-0.359s-0.297,0.094-0.297,0.094c-0.467,0.448-0.551,0.819-0.647,1.507l-0.029,0.202
	c-0.034,0.224-0.077,0.502-0.137,1.064L13.982,12.706z"/>
<path fill="#3F9C35" d="M13.04,12.642c0-0.55-0.005-1.03-0.064-1.33c-0.115-0.577-0.103-0.548-0.475-1.245
	c0,0-0.234-0.438-0.391-0.344s0.094,0.5,0.094,0.5c0.371,0.693,0.314,0.638,0.418,1.159c0.054,0.268,0.059,0.749,0.059,1.26H13.04z"
	/>
<path fill="#3F9C35" d="M14.905,12.95c0.172-0.498,0.154-0.525,0.314-0.79c0.18-0.296,0.25-0.469,0.406-0.609
	c0,0,0.328-0.313,0.219-0.422c-0.064-0.064-0.438,0.156-0.438,0.156c-0.188,0.156-0.257,0.29-0.403,0.53
	c-0.177,0.291-0.261,0.499-0.438,1.018L14.905,12.95z"/>
<path fill="#3F9C35" d="M15.916,13.371c0.152-0.336,0.531-0.622,0.585-0.664c0,0,0.281-0.25,0.188-0.359s-0.344,0.109-0.344,0.109
	c-0.046,0.036-0.572,0.358-0.757,0.766L15.916,13.371z"/>
<path fill="#3F9C35" d="M16.739,14.085c0.056-0.056,0.102-0.104,0.142-0.146c0.177-0.186,0.081-0.187,0.417-0.326
	c0,0,0.219-0.109,0.188-0.234s-0.266-0.094-0.266-0.094c-0.407,0.169-0.408,0.206-0.599,0.405c-0.04,0.041-0.084,0.088-0.136,0.14
	L16.739,14.085z"/>
<path fill="#3F9C35" d="M12.021,12.718c-0.063-0.351-0.167-0.599-0.268-0.84l-0.012-0.028c-0.116-0.281-0.136-0.296-0.319-0.518
	c0,0-0.234-0.344-0.422-0.203c-0.115,0.087,0.094,0.359,0.094,0.359c0.167,0.201,0.219,0.268,0.315,0.5l0.012,0.028
	c0.098,0.233,0.189,0.454,0.246,0.766L12.021,12.718z"/>
<path fill="#3F9C35" d="M10.953,13.001c-0.143-0.446-0.274-0.725-0.671-1.013c0,0-0.234-0.219-0.359-0.094s0.141,0.375,0.141,0.375
	c0.337,0.245,0.427,0.465,0.548,0.842L10.953,13.001z"/>
<path fill="#3F9C35" d="M9.925,13.521l-0.127-0.169c-0.164-0.222-0.106-0.259-0.329-0.426c0,0-0.281-0.172-0.375-0.031
	s0.063,0.281,0.063,0.281c0.182,0.136,0.198,0.182,0.353,0.391l0.129,0.172L9.925,13.521z"/>
<path fill="#3F9C35" d="M4.464,9.21L4.456,9.099C4.411,8.469,4.297,7.558,3.969,7.12c0,0-0.213-0.333-0.391-0.234
	C3.438,6.964,3.735,7.354,3.735,7.354c0.25,0.359,0.317,1.15,0.362,1.771l0.009,0.112L4.464,9.21z"/>
<path fill="#3F9C35" d="M5.51,9.254c0.03-0.458,0.162-1.306,0.396-1.759c0,0,0.234-0.375,0.094-0.469S5.641,7.323,5.5,7.636
	C5.296,8.089,5.178,8.807,5.152,9.23L5.51,9.254z"/>
<path fill="#3F9C35" d="M6.75,9.566c0.056-0.158,0.093-0.299,0.126-0.423C6.969,8.797,7,8.62,7.25,8.339c0,0,0.25-0.25,0.141-0.375
	S6.954,8.229,6.954,8.229C6.538,8.634,6.625,8.69,6.53,9.05C6.496,9.174,6.461,9.302,6.411,9.447L6.75,9.566z"/>
<path fill="#3F9C35" d="M7.643,9.976C7.717,9.853,7.891,9.542,8.094,9.37c0,0,0.313-0.234,0.188-0.375S7.829,9.151,7.829,9.151
	C7.657,9.261,7.549,9.435,7.333,9.79L7.643,9.976z"/>
<path fill="#3F9C35" d="M8.458,10.604c0.076-0.076,0.131-0.138,0.178-0.191c0.124-0.142,0.146-0.199,0.271-0.293
	c0,0,0.344-0.141,0.266-0.313c-0.055-0.121-0.281,0-0.281,0c-0.36,0.149-0.37,0.191-0.525,0.367
	c-0.044,0.051-0.094,0.107-0.16,0.175L8.458,10.604z"/>
<path fill="#3F9C35" d="M3.473,9.292C3.32,8.662,3.157,8.417,2.875,8.073c0,0-0.363-0.443-0.484-0.313
	C2.219,7.948,2.485,8.136,2.485,8.136c0.377,0.45,0.502,0.678,0.639,1.241L3.473,9.292z"/>
<path fill="#3F9C35" d="M2.368,9.592C2.153,9.116,2.079,8.995,1.907,8.808c0,0-0.346-0.33-0.438-0.219
	C1.329,8.761,1.579,8.948,1.579,8.948C1.778,9.146,1.815,9.241,2.041,9.74L2.368,9.592z"/>
<path fill="#3F9C35" d="M1.414,10.078C1.19,9.743,0.938,9.511,0.938,9.511S0.625,9.198,0.5,9.323
	C0.329,9.495,0.672,9.729,0.672,9.729c0.265,0.264,0.238,0.242,0.442,0.549L1.414,10.078z"/>
<path fill="#3F9C35" d="M23.398,11.403l-0.009-0.111c-0.045-0.63-0.158-1.541-0.485-1.979c0,0-0.214-0.333-0.391-0.234
	c-0.142,0.078,0.155,0.469,0.155,0.469c0.25,0.359,0.317,1.15,0.362,1.771l0.008,0.112L23.398,11.403z"/>
<path fill="#3F9C35" d="M24.444,11.447c0.029-0.458,0.162-1.306,0.396-1.759c0,0,0.235-0.375,0.094-0.469
	c-0.141-0.094-0.358,0.297-0.5,0.609c-0.204,0.453-0.321,1.171-0.35,1.595L24.444,11.447z"/>
<path fill="#3F9C35" d="M25.684,11.76c0.056-0.158,0.093-0.299,0.126-0.423c0.093-0.347,0.124-0.523,0.374-0.805
	c0,0,0.25-0.25,0.142-0.375c-0.11-0.125-0.438,0.266-0.438,0.266c-0.416,0.404-0.329,0.461-0.425,0.82
	c-0.033,0.124-0.067,0.252-0.119,0.397L25.684,11.76z"/>
<path fill="#3F9C35" d="M26.577,12.169c0.074-0.123,0.249-0.434,0.451-0.605c0,0,0.313-0.234,0.188-0.375s-0.452,0.156-0.452,0.156
	c-0.173,0.109-0.281,0.283-0.495,0.639L26.577,12.169z"/>
<path fill="#3F9C35" d="M27.393,12.798c0.075-0.076,0.129-0.138,0.178-0.191c0.123-0.142,0.145-0.199,0.27-0.293
	c0,0,0.344-0.141,0.266-0.313c-0.055-0.121-0.28,0-0.28,0c-0.361,0.149-0.37,0.191-0.525,0.367
	c-0.045,0.051-0.095,0.107-0.161,0.175L27.393,12.798z"/>
<path fill="#3F9C35" d="M22.407,11.485c-0.152-0.63-0.315-0.875-0.598-1.219c0,0-0.363-0.443-0.483-0.313
	c-0.172,0.188,0.093,0.375,0.093,0.375c0.378,0.45,0.501,0.678,0.64,1.241L22.407,11.485z"/>
<path fill="#3F9C35" d="M21.301,11.785c-0.214-0.476-0.288-0.597-0.46-0.784c0,0-0.348-0.33-0.438-0.219
	c-0.141,0.172,0.109,0.359,0.109,0.359c0.199,0.197,0.235,0.293,0.46,0.792L21.301,11.785z"/>
<path fill="#3F9C35" d="M20.347,12.271c-0.224-0.335-0.476-0.567-0.476-0.567s-0.313-0.313-0.438-0.188
	c-0.171,0.172,0.172,0.406,0.172,0.406c0.266,0.264,0.238,0.242,0.442,0.549L20.347,12.271z"/>
<path fill="#3F9C35" d="M12.189,21.596l-0.009-0.111c-0.046-0.63-0.158-1.541-0.487-1.979c0,0-0.213-0.333-0.391-0.234
	c-0.14,0.078,0.157,0.469,0.157,0.469c0.25,0.359,0.316,1.15,0.362,1.771l0.008,0.112L12.189,21.596z"/>
<path fill="#3F9C35" d="M13.235,21.64c0.029-0.458,0.162-1.306,0.396-1.759c0,0,0.234-0.375,0.095-0.469
	c-0.141-0.094-0.36,0.297-0.5,0.609c-0.204,0.453-0.323,1.171-0.35,1.595L13.235,21.64z"/>
<path fill="#3F9C35" d="M14.475,21.952c0.056-0.158,0.093-0.299,0.126-0.423c0.092-0.347,0.124-0.523,0.374-0.805
	c0,0,0.25-0.25,0.14-0.375c-0.109-0.125-0.438,0.266-0.438,0.266c-0.416,0.404-0.327,0.461-0.425,0.82
	c-0.033,0.124-0.067,0.252-0.118,0.397L14.475,21.952z"/>
<path fill="#3F9C35" d="M15.367,22.361c0.073-0.123,0.248-0.434,0.451-0.605c0,0,0.313-0.234,0.188-0.375s-0.453,0.156-0.453,0.156
	c-0.172,0.109-0.28,0.283-0.494,0.639L15.367,22.361z"/>
<path fill="#3F9C35" d="M16.183,22.99c0.076-0.076,0.13-0.138,0.177-0.191c0.125-0.142,0.146-0.199,0.271-0.293
	c0,0,0.345-0.141,0.267-0.313c-0.056-0.121-0.282,0-0.282,0c-0.359,0.149-0.369,0.191-0.525,0.367
	c-0.043,0.051-0.093,0.107-0.16,0.175L16.183,22.99z"/>
<path fill="#3F9C35" d="M11.197,21.678c-0.153-0.63-0.316-0.875-0.597-1.219c0,0-0.365-0.443-0.485-0.313
	c-0.172,0.188,0.095,0.375,0.095,0.375c0.376,0.45,0.5,0.678,0.638,1.241L11.197,21.678z"/>
<path fill="#3F9C35" d="M10.092,21.978c-0.216-0.476-0.29-0.597-0.462-0.784c0,0-0.347-0.33-0.438-0.219
	c-0.141,0.172,0.109,0.359,0.109,0.359c0.199,0.197,0.236,0.293,0.461,0.792L10.092,21.978z"/>
<path fill="#3F9C35" d="M9.137,22.464c-0.224-0.335-0.476-0.567-0.476-0.567s-0.313-0.313-0.438-0.188
	c-0.172,0.172,0.172,0.406,0.172,0.406c0.265,0.264,0.238,0.242,0.443,0.549L9.137,22.464z"/>
<path fill="#3F9C35" d="M9.493,2.343L9.484,2.231C9.439,1.602,9.326,0.69,8.999,0.253c0,0-0.214-0.333-0.392-0.234
	c-0.14,0.078,0.156,0.469,0.156,0.469c0.25,0.359,0.317,1.15,0.362,1.771L9.134,2.37L9.493,2.343z"/>
<path fill="#3F9C35" d="M10.539,2.387c0.029-0.458,0.163-1.306,0.396-1.759c0,0,0.234-0.375,0.095-0.469
	c-0.141-0.094-0.36,0.297-0.5,0.609c-0.204,0.453-0.323,1.171-0.35,1.595L10.539,2.387z"/>
<path fill="#3F9C35" d="M11.78,2.699c0.055-0.158,0.092-0.299,0.126-0.423c0.092-0.347,0.124-0.523,0.374-0.805
	c0,0,0.25-0.25,0.14-0.375c-0.109-0.125-0.438,0.266-0.438,0.266c-0.415,0.404-0.327,0.461-0.424,0.82
	c-0.033,0.124-0.068,0.252-0.119,0.397L11.78,2.699z"/>
<path fill="#3F9C35" d="M12.671,3.108c0.074-0.123,0.248-0.434,0.451-0.605c0,0,0.313-0.234,0.188-0.375s-0.453,0.156-0.453,0.156
	c-0.172,0.109-0.28,0.283-0.494,0.639L12.671,3.108z"/>
<path fill="#3F9C35" d="M13.488,3.737c0.076-0.076,0.13-0.138,0.177-0.191c0.124-0.142,0.146-0.199,0.271-0.293
	c0,0,0.345-0.141,0.267-0.313c-0.056-0.121-0.282,0-0.282,0c-0.36,0.149-0.369,0.191-0.525,0.367
	c-0.043,0.051-0.093,0.107-0.16,0.175L13.488,3.737z"/>
<path fill="#3F9C35" d="M8.501,2.425C8.348,1.795,8.186,1.55,7.905,1.206c0,0-0.364-0.443-0.485-0.313
	C7.249,1.081,7.513,1.269,7.513,1.269C7.89,1.719,8.015,1.946,8.152,2.51L8.501,2.425z"/>
<path fill="#3F9C35" d="M7.396,2.725C7.181,2.249,7.107,2.128,6.936,1.94c0,0-0.347-0.33-0.438-0.219
	C6.357,1.894,6.607,2.081,6.607,2.081c0.199,0.197,0.236,0.293,0.461,0.792L7.396,2.725z"/>
<path fill="#3F9C35" d="M6.442,3.211C6.218,2.876,5.967,2.644,5.967,2.644S5.655,2.331,5.53,2.456
	C5.357,2.628,5.701,2.862,5.701,2.862c0.265,0.264,0.238,0.242,0.442,0.549L6.442,3.211z"/>
<path fill="#3F9C35" d="M0.56,21.506c0.056-0.157,0.093-0.299,0.126-0.423c0.093-0.346,0.124-0.522,0.375-0.804
	c0,0,0.25-0.25,0.14-0.375c-0.108-0.125-0.438,0.266-0.438,0.266c-0.416,0.403-0.328,0.46-0.425,0.82
	c-0.033,0.123-0.067,0.252-0.118,0.396L0.56,21.506z"/>
<path fill="#3F9C35" d="M1.453,21.916c0.074-0.124,0.248-0.434,0.452-0.605c0,0,0.313-0.234,0.188-0.375s-0.454,0.156-0.454,0.156
	c-0.171,0.109-0.279,0.282-0.495,0.639L1.453,21.916z"/>
<path fill="#3F9C35" d="M2.268,22.544c0.076-0.075,0.131-0.137,0.179-0.19c0.123-0.142,0.146-0.199,0.271-0.293
	c0,0,0.344-0.141,0.265-0.313c-0.055-0.122-0.281,0-0.281,0c-0.36,0.148-0.37,0.19-0.525,0.367c-0.044,0.05-0.094,0.106-0.16,0.174
	L2.268,22.544z"/>
</svg>
