<?xml version="1.0" encoding="utf-8"?>
<!-- Generator: Adobe Illustrator 14.0.0, SVG Export Plug-In  -->
<!DOCTYPE svg PUBLIC "-//W3C//DTD SVG 1.1//EN" "http://www.w3.org/Graphics/SVG/1.1/DTD/svg11.dtd" [
	<!ENTITY ns_flows "http://ns.adobe.com/Flows/1.0/">
]>
<svg version="1.1"
	 xmlns="http://www.w3.org/2000/svg" xmlns:xlink="http://www.w3.org/1999/xlink" xmlns:a="http://ns.adobe.com/AdobeSVGViewerExtensions/3.0/"
	 x="0px" y="0px" width="60.957px" height="60.957px" viewBox="0 0 60.957 60.957" enable-background="new 0 0 60.957 60.957"
	 xml:space="preserve">
<defs>
</defs>
<rect fill="none" width="60.957" height="60.957"/>
<rect x="60.625" y="29.073" fill="#3F9C35" width="0.332" height="0.683"/>
<polyline fill="#3F9C35" points="60.957,28.653 60.642,28.653 60.607,26.832 59.714,27.865 59.207,27.48 60.099,26.377 
	60.957,26.357 60.957,28.653 "/>
<rect x="60.169" y="2.228" fill="#3F9C35" width="0.648" height="0.682"/>
<polyline fill="#3F9C35" points="60.957,0.215 60.73,0.004 60.73,1.807 60.187,1.807 60.152,0 60.957,0 60.957,0.215 "/>
<rect x="58.158" y="17.181" fill="#3F9C35" width="0.543" height="0.648"/>
<rect x="55.541" y="37.999" fill="#3F9C35" width="0.543" height="0.647"/>
<rect x="56.757" y="17.129" fill="#3F9C35" width="0.646" height="0.684"/>
<rect x="54.14" y="37.946" fill="#3F9C35" width="0.648" height="0.683"/>
<polyline fill="#3F9C35" points="60.14,0 59.259,1.02 58.751,0.634 59.265,0 60.14,0 "/>
<polyline fill="#3F9C35" points="54.158,37.526 54.701,37.526 54.701,35.723 55.734,36.687 56.189,36.301 55.103,35.215 
	53.615,35.25 52.722,36.354 53.23,36.738 54.123,35.705 54.158,37.526 "/>
<polyline fill="#3F9C35" points="56.775,16.709 57.318,16.709 57.318,14.906 58.351,15.868 58.806,15.483 57.72,14.398 
	56.232,14.433 55.339,15.536 55.847,15.921 56.74,14.888 56.775,16.709 "/>
<rect x="53.039" y="49.603" fill="#3F9C35" width="0.543" height="0.646"/>
<rect x="51.638" y="49.548" fill="#3F9C35" width="0.647" height="0.684"/>
<polyline fill="#3F9C35" points="51.655,49.128 52.198,49.128 52.198,47.326 53.232,48.289 53.687,47.904 52.601,46.818 
	51.112,46.853 50.22,47.957 50.728,48.341 51.62,47.308 51.655,49.128 "/>
<rect x="31.272" y="9.182" fill="#3F9C35" width="0.438" height="0.596"/>
<rect x="10.606" y="17.409" fill="#3F9C35" width="0.543" height="0.647"/>
<rect x="29.802" y="9.182" fill="#3F9C35" width="0.596" height="0.613"/>
<rect x="9.207" y="17.356" fill="#3F9C35" width="0.647" height="0.683"/>
<polyline fill="#3F9C35" points="29.854,8.728 30.397,8.728 30.397,6.924 31.431,7.887 31.885,7.502 30.8,6.416 29.312,6.451 
	28.419,7.554 28.927,7.939 29.819,6.907 29.854,8.728 "/>
<polyline fill="#3F9C35" points="9.224,16.937 9.767,16.937 9.767,15.133 10.8,16.096 11.255,15.711 10.169,14.625 8.681,14.66 
	7.789,15.763 8.296,16.148 9.188,15.116 9.224,16.937 "/>
<rect x="33.093" y="57.521" fill="#3F9C35" width="0.385" height="0.488"/>
<rect x="31.728" y="57.416" fill="#3F9C35" width="0.438" height="0.594"/>
<rect x="30.257" y="57.416" fill="#3F9C35" width="0.596" height="0.613"/>
<polyline fill="#3F9C35" points="30.31,56.96 30.853,56.96 30.853,55.158 31.885,56.119 32.34,55.734 31.255,54.65 29.767,54.683 
	28.874,55.787 29.382,56.171 30.274,55.138 30.31,56.96 "/>
<rect x="18.759" y="6.671" fill="#3F9C35" width="0.387" height="0.49"/>
<rect x="17.394" y="6.566" fill="#3F9C35" width="0.438" height="0.595"/>
<rect x="15.924" y="6.566" fill="#3F9C35" width="0.595" height="0.612"/>
<rect x="19.215" y="54.904" fill="#3F9C35" width="0.386" height="0.49"/>
<rect x="17.849" y="54.798" fill="#3F9C35" width="0.438" height="0.596"/>
<polyline fill="#3F9C35" points="16.431,54.343 16.974,54.343 16.974,52.541 18.007,53.503 18.462,53.119 17.376,52.033 
	15.888,52.068 14.996,53.169 15.503,53.556 16.396,52.523 16.431,54.343 "/>
<rect x="16.379" y="54.798" fill="#3F9C35" width="0.595" height="0.613"/>
<polyline fill="#3F9C35" points="3.991,49.47 4.534,49.47 4.534,47.667 5.567,48.63 6.022,48.246 4.937,47.16 3.449,47.195 
	2.556,48.298 3.063,48.683 3.956,47.65 3.991,49.47 "/>
<rect x="5.374" y="49.943" fill="#3F9C35" width="0.543" height="0.648"/>
<polyline fill="#3F9C35" points="15.976,6.111 16.519,6.111 16.519,4.308 17.552,5.271 18.007,4.885 16.921,3.8 15.433,3.835 
	14.541,4.938 15.048,5.323 15.94,4.29 15.976,6.111 "/>
<rect x="3.974" y="49.89" fill="#3F9C35" width="0.648" height="0.684"/>
<rect x="6.967" y="0.135" fill="#3F9C35" width="0.543" height="0.648"/>
<rect x="5.565" y="0.082" fill="#3F9C35" width="0.648" height="0.683"/>
<rect x="0.614" y="2.279" fill="#3F9C35" width="0.541" height="0.647"/>
<polyline fill="#3F9C35" points="5.584,60.619 6.127,60.619 6.127,58.816 7.159,59.779 7.615,59.392 6.528,58.308 5.041,58.343 
	4.147,59.447 4.655,59.832 5.549,58.798 5.584,60.619 "/>
<polyline fill="#3F9C35" points="0.681,0 1.261,0.581 0.806,0.966 0,0.215 0,0 0.681,0 "/>
<polyline fill="#3F9C35" points="59.265,60.957 59.644,60.488 60.957,60.457 60.957,60.957 60.152,60.957 60.152,60.943 
	60.14,60.957 59.265,60.957 "/>
<polyline fill="#3F9C35" points="0,60.457 0.176,60.453 0.681,60.957 0,60.957 0,60.457 "/>
<rect y="29.073" fill="#3F9C35" width="0.315" height="0.683"/>
<rect x="39.017" y="45.47" fill="#3F9C35" width="0.594" height="0.613"/>
<rect x="48.829" y="28.216" fill="#3F9C35" width="0.543" height="0.647"/>
<rect x="47.429" y="28.163" fill="#3F9C35" width="0.647" height="0.683"/>
<rect x="40.485" y="45.47" fill="#3F9C35" width="0.438" height="0.596"/>
<rect x="41.853" y="45.576" fill="#3F9C35" width="0.385" height="0.49"/>
<polyline fill="#3F9C35" points="39.069,45.015 39.61,45.015 39.61,43.212 40.644,44.175 41.099,43.791 40.015,42.705 38.526,42.74 
	37.633,43.841 38.142,44.228 39.034,43.195 39.069,45.015 "/>
<rect x="1.069" y="29.126" fill="#3F9C35" width="0.541" height="0.647"/>
<rect x="21.384" y="42.171" fill="#3F9C35" width="0.596" height="0.613"/>
<polyline fill="#3F9C35" points="47.446,27.743 47.989,27.743 47.989,25.94 49.022,26.903 49.478,26.518 48.392,25.432 
	46.903,25.467 46.011,26.57 46.519,26.955 47.411,25.922 47.446,27.743 "/>
<rect x="22.854" y="42.171" fill="#3F9C35" width="0.438" height="0.596"/>
<rect x="24.22" y="42.277" fill="#3F9C35" width="0.385" height="0.49"/>
<polyline fill="#3F9C35" points="12.409,31.042 12.952,31.042 12.952,29.239 13.985,30.202 14.44,29.817 13.354,28.731 
	11.867,28.766 10.974,29.869 11.481,30.254 12.374,29.221 12.409,31.042 "/>
<rect x="13.792" y="31.515" fill="#3F9C35" width="0.543" height="0.647"/>
<polyline fill="#3F9C35" points="33.722,34.208 34.265,34.208 34.265,32.405 35.298,33.368 35.753,32.983 34.667,31.898 
	33.179,31.933 32.287,33.036 32.794,33.421 33.687,32.388 33.722,34.208 "/>
<rect x="12.392" y="31.462" fill="#3F9C35" width="0.648" height="0.684"/>
<rect x="25.396" y="24.348" fill="#3F9C35" width="0.543" height="0.648"/>
<rect x="23.995" y="24.295" fill="#3F9C35" width="0.648" height="0.684"/>
<polyline fill="#3F9C35" points="0,26.357 0.631,26.342 1.716,27.428 1.261,27.813 0.228,26.85 0.228,28.653 0,28.653 0,26.357 "/>
<rect x="35.747" y="21.163" fill="#3F9C35" width="0.543" height="0.648"/>
<rect x="34.347" y="21.11" fill="#3F9C35" width="0.647" height="0.683"/>
<rect x="45.985" y="11.494" fill="#3F9C35" width="0.543" height="0.646"/>
<rect x="44.585" y="11.441" fill="#3F9C35" width="0.646" height="0.683"/>
<polyline fill="#3F9C35" points="24.013,23.875 24.556,23.875 24.556,22.072 25.588,23.035 26.043,22.65 24.958,21.565 23.47,21.6 
	22.577,22.702 23.085,23.088 23.978,22.055 24.013,23.875 "/>
<polyline fill="#3F9C35" points="34.364,20.69 34.907,20.69 34.907,18.887 35.94,19.85 36.396,19.465 35.31,18.379 33.821,18.414 
	32.929,19.517 33.437,19.902 34.329,18.87 34.364,20.69 "/>
<polyline fill="#3F9C35" points="44.603,11.021 45.146,11.021 45.146,9.218 46.179,10.181 46.633,9.795 45.548,8.71 44.06,8.745 
	43.167,9.848 43.674,10.233 44.567,9.2 44.603,11.021 "/>
<rect x="32.638" y="9.287" fill="#3F9C35" width="0.385" height="0.49"/>
<polyline fill="#3F9C35" points="21.437,41.716 21.979,41.716 21.979,39.913 23.013,40.876 23.467,40.492 22.382,39.406 
	20.894,39.441 20.001,40.544 20.509,40.929 21.401,39.896 21.437,41.716 "/>
<rect x="6.476" y="38.174" fill="#3F9C35" width="0.648" height="0.683"/>
<rect x="7.877" y="38.226" fill="#3F9C35" width="0.543" height="0.648"/>
<polyline fill="#3F9C35" points="6.494,37.754 7.037,37.754 7.037,35.95 8.069,36.913 8.524,36.528 7.438,35.443 5.951,35.479 
	5.06,36.581 5.565,36.966 6.459,35.933 6.494,37.754 "/>
<rect x="33.669" y="34.664" fill="#3F9C35" width="0.596" height="0.612"/>
<rect x="35.14" y="34.664" fill="#3F9C35" width="0.438" height="0.595"/>
<rect x="36.505" y="34.77" fill="#3F9C35" width="0.387" height="0.489"/>
<polyline fill="#3F9C35" points="44.944,59.14 45.485,59.14 45.485,57.337 46.519,58.298 46.974,57.914 45.89,56.83 44.401,56.865 
	43.508,57.966 44.017,58.353 44.908,57.32 44.944,59.14 "/>
<rect x="46.326" y="59.613" fill="#3F9C35" width="0.543" height="0.646"/>
<rect x="44.926" y="59.56" fill="#3F9C35" width="0.648" height="0.684"/>
<rect x="11.745" y="17.462" fill="#3F9C35" width="0.385" height="0.491"/>
<rect x="26.718" y="24.477" fill="#3F9C35" width="0.385" height="0.49"/>
<rect x="37.104" y="21.239" fill="#3F9C35" width="0.386" height="0.491"/>
<rect x="50.188" y="28.389" fill="#3F9C35" width="0.387" height="0.49"/>
<rect x="56.664" y="38.101" fill="#3F9C35" width="0.385" height="0.49"/>
<rect x="59.363" y="17.327" fill="#3F9C35" width="0.385" height="0.491"/>
<rect x="54.236" y="49.703" fill="#3F9C35" width="0.385" height="0.49"/>
<rect x="47.627" y="59.683" fill="#3F9C35" width="0.386" height="0.49"/>
<rect x="6.483" y="50.107" fill="#3F9C35" width="0.386" height="0.49"/>
<rect x="9.183" y="38.371" fill="#3F9C35" width="0.385" height="0.49"/>
<rect x="14.981" y="31.626" fill="#3F9C35" width="0.387" height="0.49"/>
<rect x="2.304" y="29.198" fill="#3F9C35" width="0.385" height="0.49"/>
<rect x="1.763" y="2.354" fill="#3F9C35" width="0.385" height="0.49"/>
<rect x="8.237" y="0.331" fill="#3F9C35" width="0.386" height="0.49"/>
<rect x="47.222" y="11.662" fill="#3F9C35" width="0.385" height="0.49"/>
</svg>
