<?xml version="1.0" encoding="utf-8"?>
<!-- Generator: Adobe Illustrator 14.0.0, SVG Export Plug-In  -->
<!DOCTYPE svg PUBLIC "-//W3C//DTD SVG 1.1//EN" "http://www.w3.org/Graphics/SVG/1.1/DTD/svg11.dtd" [
	<!ENTITY ns_flows "http://ns.adobe.com/Flows/1.0/">
]>
<svg version="1.1"
	 xmlns="http://www.w3.org/2000/svg" xmlns:xlink="http://www.w3.org/1999/xlink" xmlns:a="http://ns.adobe.com/AdobeSVGViewerExtensions/3.0/"
	 x="0px" y="0px" width="60.956px" height="60.956px" viewBox="0 0 60.956 60.956" enable-background="new 0 0 60.956 60.956"
	 xml:space="preserve">
<defs>
	
		<pattern  x="-270.147" y="411.853" width="60.956" height="60.956" patternUnits="userSpaceOnUse" id="ap_x5F_63_x5F_000_x5F_52813" viewBox="0 -60.956 60.956 60.956" overflow="visible">
		<g>
			<g>
				<polygon fill="none" points="0,0 60.956,0 60.956,-60.956 0,-60.956 				"/>
				<polygon fill="#3F9C35" points="17.519,-8.774 17.993,-8.774 17.993,-9.154 17.519,-9.154 				"/>
				<polygon fill="#3F9C35" points="18.681,-8.774 18.919,-8.774 18.919,-8.964 18.681,-8.964 				"/>
				<polyline fill="#3F9C35" points="16.212,-9.035 15.856,-9.035 15.001,-11.457 13.86,-9.035 16.924,-9.035 16.948,-8.727 
					13.41,-8.703 15.048,-12.573 16.212,-9.035 				"/>
				<polyline fill="#3F9C35" points="59.201,-9.688 58.845,-9.688 57.99,-12.11 56.851,-9.688 59.913,-9.688 59.937,-9.38 
					56.399,-9.356 58.037,-13.226 59.201,-9.688 				"/>
				<polygon fill="#3F9C35" points="30.529,-16.305 31.092,-16.305 31.092,-16.754 30.529,-16.754 				"/>
				<polygon fill="#3F9C35" points="32.049,-16.305 32.416,-16.305 32.416,-16.529 32.049,-16.529 				"/>
				<polyline fill="#3F9C35" points="29.18,-16.558 28.842,-16.558 27.379,-21.791 25.408,-16.558 29.826,-16.558 29.826,-16.305 
					25.015,-16.305 27.49,-23.283 29.18,-16.558 				"/>
				<polygon fill="#3F9C35" points="19.332,-37.146 19.895,-37.146 19.895,-37.595 19.332,-37.595 				"/>
				<polygon fill="#3F9C35" points="20.852,-37.146 21.219,-37.146 21.219,-37.37 20.852,-37.37 				"/>
				<polyline fill="#3F9C35" points="17.982,-37.398 17.645,-37.398 16.182,-42.632 14.211,-37.398 18.629,-37.398 18.629,-37.146 
					13.817,-37.146 16.293,-44.124 17.982,-37.398 				"/>
				<polygon fill="#3F9C35" points="41.474,-8.359 41.867,-8.359 41.867,-8.726 41.474,-8.726 				"/>
				<polygon fill="#3F9C35" points="42.515,-8.331 42.908,-8.331 42.908,-8.613 42.515,-8.613 				"/>
				<polyline fill="#3F9C35" points="39.644,-8.613 39.308,-8.613 38.378,-11.934 37.421,-8.642 39.308,-8.613 40.742,-8.613 
					40.742,-8.331 37.14,-8.331 38.265,-12.946 38.603,-12.946 39.644,-8.613 				"/>
				<polygon fill="#3F9C35" points="10.349,-18.165 10.742,-18.165 10.742,-18.531 10.349,-18.531 				"/>
				<polygon fill="#3F9C35" points="11.39,-18.137 11.783,-18.137 11.783,-18.418 11.39,-18.418 				"/>
				<polyline fill="#3F9C35" points="8.519,-18.418 8.181,-18.418 7.252,-21.739 6.296,-18.446 8.181,-18.418 9.616,-18.418 
					9.616,-18.137 6.015,-18.137 7.14,-22.752 7.478,-22.752 8.519,-18.418 				"/>
				<polygon fill="#3F9C35" points="41.474,-23.171 41.868,-23.171 41.868,-23.537 41.474,-23.537 				"/>
				<polygon fill="#3F9C35" points="42.515,-23.143 42.909,-23.143 42.909,-23.424 42.515,-23.424 				"/>
				<polyline fill="#3F9C35" points="39.646,-23.424 39.308,-23.424 38.379,-26.745 37.422,-23.453 39.308,-23.424 40.742,-23.424 
					40.742,-23.143 37.14,-23.143 38.267,-27.758 38.604,-27.758 39.646,-23.424 				"/>
				<polygon fill="#3F9C35" points="23.726,-27.957 24.12,-27.957 24.12,-28.266 23.726,-28.266 				"/>
				<polygon fill="#3F9C35" points="24.767,-27.985 24.992,-27.985 24.992,-28.21 24.767,-28.21 				"/>
				<polyline fill="#3F9C35" points="22.235,-28.21 21.728,-28.21 22.235,-28.914 21.419,-29.758 20.828,-28.886 21.728,-28.21 
					23.19,-28.21 23.19,-27.985 20.968,-27.985 20.603,-28.407 20.49,-29.533 21.054,-30.124 21.756,-30.124 22.571,-29.279 
					22.629,-28.576 22.235,-28.21 				"/>
				<polygon fill="#3F9C35" points="57.567,-24.881 58.043,-24.881 58.043,-25.261 57.567,-25.261 				"/>
				<polygon fill="#3F9C35" points="58.731,-24.881 58.97,-24.881 58.97,-25.071 58.731,-25.071 				"/>
				<polyline fill="#3F9C35" points="56.263,-25.143 55.905,-25.143 55.051,-27.564 53.912,-25.143 56.976,-25.143 56.998,-24.834 
					53.46,-24.81 55.099,-28.68 56.263,-25.143 				"/>
				<polygon fill="#3F9C35" points="7.728,-3.469 8.122,-3.469 8.122,-3.779 7.728,-3.779 				"/>
				<polygon fill="#3F9C35" points="8.769,-3.498 8.994,-3.498 8.994,-3.723 8.769,-3.723 				"/>
				<polyline fill="#3F9C35" points="6.235,-3.723 5.729,-3.723 6.235,-4.426 5.42,-5.27 4.829,-4.398 5.729,-3.723 7.192,-3.723 
					7.192,-3.498 4.97,-3.498 4.604,-3.92 4.492,-5.045 5.054,-5.636 5.758,-5.636 6.574,-4.792 6.63,-4.089 6.235,-3.723 				"/>
				<polygon fill="#3F9C35" points="9.151,-48.529 9.544,-48.529 9.544,-48.895 9.151,-48.895 				"/>
				<polygon fill="#3F9C35" points="10.192,-48.501 10.586,-48.501 10.586,-48.782 10.192,-48.782 				"/>
				<polyline fill="#3F9C35" points="7.321,-48.782 6.983,-48.782 6.056,-52.103 5.099,-48.811 6.983,-48.782 8.419,-48.782 
					8.419,-48.501 4.817,-48.501 5.942,-53.116 6.28,-53.116 7.321,-48.782 				"/>
				<polygon fill="#3F9C35" points="34.104,-36.447 34.794,-36.447 34.794,-36.851 34.104,-36.851 				"/>
				<polygon fill="#3F9C35" points="35.245,-36.447 35.601,-36.447 35.601,-36.709 35.245,-36.709 				"/>
				<polyline fill="#3F9C35" points="32.039,-36.827 31.256,-36.804 32.491,-37.991 32.467,-39.131 31.351,-40.223 30.235,-40.175 
					29.144,-39.107 29.166,-37.943 30.164,-36.709 31.256,-36.804 32.039,-36.827 33.487,-36.851 33.487,-36.352 30.092,-36.424 
					28.739,-37.943 28.715,-39.178 30.211,-40.745 31.517,-40.721 33.203,-39.178 33.132,-37.801 32.039,-36.827 				"/>
				<polygon fill="#3F9C35" points="23.183,-59.627 23.576,-59.627 23.576,-59.937 23.183,-59.937 				"/>
				<polygon fill="#3F9C35" points="24.224,-59.655 24.448,-59.655 24.448,-59.881 24.224,-59.881 				"/>
				<polygon fill="#3F9C35" points="47.045,-44.124 47.607,-44.124 47.607,-44.573 47.045,-44.573 				"/>
				<polygon fill="#3F9C35" points="48.564,-44.124 48.93,-44.124 48.93,-44.349 48.564,-44.349 				"/>
				<polyline fill="#3F9C35" points="45.694,-44.377 45.355,-44.377 43.893,-49.61 41.924,-44.377 46.342,-44.377 46.342,-44.124 
					41.529,-44.124 44.006,-51.102 45.694,-44.377 				"/>
				<polygon fill="#3F9C35" points="36.576,-55.603 36.97,-55.603 36.97,-55.969 36.576,-55.969 				"/>
				<polygon fill="#3F9C35" points="37.618,-55.575 38.013,-55.575 38.013,-55.857 37.618,-55.857 				"/>
				<polyline fill="#3F9C35" points="34.747,-55.857 34.41,-55.857 33.481,-59.177 32.524,-55.885 34.41,-55.857 35.845,-55.857 
					35.845,-55.575 32.243,-55.575 33.369,-60.19 33.706,-60.19 34.747,-55.857 				"/>
				<polygon fill="#3F9C35" points="4.24,-39.03 4.715,-39.03 4.715,-39.41 4.24,-39.41 				"/>
				<polygon fill="#3F9C35" points="5.403,-39.03 5.642,-39.03 5.642,-39.22 5.403,-39.22 				"/>
				<polyline fill="#3F9C35" points="2.935,-39.291 2.578,-39.291 1.724,-41.713 0.583,-39.291 3.646,-39.291 3.67,-38.982 
					0.132,-38.958 1.771,-42.829 2.935,-39.291 				"/>
				<polygon fill="#3F9C35" points="58.548,-53.831 59.022,-53.831 59.022,-54.211 58.548,-54.211 				"/>
				<polygon fill="#3F9C35" points="59.711,-53.831 59.949,-53.831 59.949,-54.021 59.711,-54.021 				"/>
				<polyline fill="#3F9C35" points="57.242,-54.092 56.886,-54.092 56.03,-56.514 54.892,-54.092 57.954,-54.092 57.978,-53.783 
					54.44,-53.76 56.078,-57.63 57.242,-54.092 				"/>
				<polygon fill="#3F9C35" points="5.985,-31.984 6.38,-31.984 6.38,-32.293 5.985,-32.293 				"/>
				<polygon fill="#3F9C35" points="7.028,-32.012 7.253,-32.012 7.253,-32.237 7.028,-32.237 				"/>
				<polyline fill="#3F9C35" points="4.495,-32.237 3.987,-32.237 4.495,-32.94 3.679,-33.785 3.088,-32.912 3.987,-32.237 
					5.452,-32.237 5.452,-32.012 3.229,-32.012 2.862,-32.434 2.75,-33.56 3.313,-34.15 4.017,-34.15 4.833,-33.306 4.89,-32.603 
					4.495,-32.237 				"/>
				<polygon fill="#3F9C35" points="48.976,-31.984 49.369,-31.984 49.369,-32.293 48.976,-32.293 				"/>
				<polygon fill="#3F9C35" points="50.017,-32.012 50.242,-32.012 50.242,-32.237 50.017,-32.237 				"/>
				<polyline fill="#3F9C35" points="47.483,-32.237 46.978,-32.237 47.483,-32.94 46.668,-33.785 46.077,-32.912 46.978,-32.237 
					48.44,-32.237 48.44,-32.012 46.218,-32.012 45.853,-32.434 45.739,-33.56 46.302,-34.15 47.006,-34.15 47.821,-33.306 
					47.878,-32.603 47.483,-32.237 				"/>
				<polygon fill="#3F9C35" points="49.521,-0.858 49.913,-0.858 49.913,-1.167 49.521,-1.167 				"/>
				<polygon fill="#3F9C35" points="50.562,-0.886 50.786,-0.886 50.786,-1.111 50.562,-1.111 				"/>
				<polyline fill="#3F9C35" points="48.028,-1.111 47.522,-1.111 48.028,-1.814 47.212,-2.658 46.621,-1.786 47.522,-1.111 
					48.985,-1.111 48.985,-0.886 46.763,-0.886 46.396,-1.308 46.283,-2.433 46.847,-3.024 47.55,-3.024 48.366,-2.18 
					48.422,-1.477 48.028,-1.111 				"/>
				<polyline fill="#3F9C35" points="20.556,-60.956 20.284,-60.556 21.185,-59.881 22.647,-59.881 22.647,-59.655 20.424,-59.655 
					20.058,-60.078 19.972,-60.956 20.556,-60.956 				"/>
				<polyline fill="#3F9C35" points="22.022,-60.956 22.028,-60.95 22.085,-60.246 21.69,-59.881 21.185,-59.881 21.69,-60.584 
					21.331,-60.956 22.022,-60.956 				"/>
				<polygon fill="#3F9C35" points="0,-9.427 0.024,-9.427 0.024,-9.807 0,-9.807 				"/>
				<polygon fill="#3F9C35" points="60.507,-9.427 60.956,-9.427 60.956,-9.807 60.507,-9.807 				"/>
				<polygon fill="#3F9C35" points="54.474,-14.219 54.844,-14.219 54.844,-14.58 54.474,-14.58 				"/>
				<polygon fill="#3F9C35" points="53.319,-14.219 53.749,-14.219 53.749,-14.589 53.319,-14.589 				"/>
				<polyline fill="#3F9C35" points="51.755,-14.472 51.048,-14.472 52.058,-15.6 52.075,-16.517 50.787,-17.442 49.382,-16.23 
					49.382,-15.666 50.551,-14.462 51.048,-14.472 52.688,-14.472 52.688,-14.219 50.206,-14.219 48.985,-15.768 48.985,-16.28 
					50.257,-17.745 51.142,-17.736 52.462,-16.819 52.47,-15.371 51.755,-14.472 				"/>
				<polygon fill="#3F9C35" points="22.505,-48.501 22.875,-48.501 22.875,-48.862 22.505,-48.862 				"/>
				<polygon fill="#3F9C35" points="21.351,-48.501 21.78,-48.501 21.78,-48.871 21.351,-48.871 				"/>
				<polyline fill="#3F9C35" points="19.786,-48.754 19.079,-48.754 20.089,-49.882 20.106,-50.799 18.818,-51.725 17.413,-50.513 
					17.413,-49.948 18.582,-48.744 19.079,-48.754 20.72,-48.754 20.72,-48.501 18.237,-48.501 17.017,-50.05 17.017,-50.563 
					18.288,-52.027 19.173,-52.019 20.493,-51.102 20.501,-49.653 19.786,-48.754 				"/>
				<polygon fill="#3F9C35" points="0.714,-9.427 0.951,-9.427 0.951,-9.617 0.714,-9.617 				"/>
				<polyline fill="#3F9C35" points="21.331,0 20.875,-0.472 20.556,0 19.972,0 19.946,-0.247 20.509,-0.838 21.212,-0.838 
					22.022,0 21.331,0 				"/>
			</g>
		</g>
	</pattern>
</defs>
<pattern  id="SVGID_1_" xlink:href="#ap_x5F_63_x5F_000_x5F_52813" patternTransform="matrix(1 0 0 1 20.6147 20.3516)">
</pattern>
<rect fill="url(#SVGID_1_)" width="60.957" height="60.957"/>
<pattern  id="SVGID_2_" xlink:href="#ap_x5F_63_x5F_000_x5F_52813" patternTransform="matrix(1 0 0 1 20.6147 20.3516)">
</pattern>
<rect x="17.519" y="51.802" fill="url(#SVGID_2_)" width="0.475" height="0.379"/>
<pattern  id="SVGID_3_" xlink:href="#ap_x5F_63_x5F_000_x5F_52813" patternTransform="matrix(1 0 0 1 20.6147 20.3516)">
</pattern>
<rect x="18.681" y="51.992" fill="url(#SVGID_3_)" width="0.238" height="0.189"/>
<pattern  id="SVGID_4_" xlink:href="#ap_x5F_63_x5F_000_x5F_52813" patternTransform="matrix(1 0 0 1 20.6147 20.3516)">
</pattern>
<polyline fill="url(#SVGID_4_)" points="16.212,51.921 15.856,51.921 15.001,49.5 13.86,51.921 16.924,51.921 16.948,52.23 
	13.41,52.253 15.048,48.382 16.212,51.921 "/>
<pattern  id="SVGID_5_" xlink:href="#ap_x5F_63_x5F_000_x5F_52813" patternTransform="matrix(1 0 0 1 20.6147 20.3516)">
</pattern>
<polyline fill="url(#SVGID_5_)" points="59.201,51.267 58.845,51.267 57.99,48.845 56.851,51.267 59.914,51.267 59.937,51.576 
	56.4,51.599 58.037,47.73 59.201,51.267 "/>
<pattern  id="SVGID_6_" xlink:href="#ap_x5F_63_x5F_000_x5F_52813" patternTransform="matrix(1 0 0 1 20.6147 20.3516)">
</pattern>
<rect x="30.529" y="44.203" fill="url(#SVGID_6_)" width="0.563" height="0.449"/>
<pattern  id="SVGID_7_" xlink:href="#ap_x5F_63_x5F_000_x5F_52813" patternTransform="matrix(1 0 0 1 20.6147 20.3516)">
</pattern>
<rect x="32.049" y="44.427" fill="url(#SVGID_7_)" width="0.367" height="0.225"/>
<pattern  id="SVGID_8_" xlink:href="#ap_x5F_63_x5F_000_x5F_52813" patternTransform="matrix(1 0 0 1 20.6147 20.3516)">
</pattern>
<polyline fill="url(#SVGID_8_)" points="29.18,44.398 28.842,44.398 27.379,39.166 25.408,44.398 29.826,44.398 29.826,44.652 
	25.015,44.652 27.49,37.673 29.18,44.398 "/>
<pattern  id="SVGID_9_" xlink:href="#ap_x5F_63_x5F_000_x5F_52813" patternTransform="matrix(1 0 0 1 20.6147 20.3516)">
</pattern>
<rect x="19.332" y="23.361" fill="url(#SVGID_9_)" width="0.563" height="0.449"/>
<pattern  id="SVGID_10_" xlink:href="#ap_x5F_63_x5F_000_x5F_52813" patternTransform="matrix(1 0 0 1 20.6147 20.3516)">
</pattern>
<rect x="20.852" y="23.585" fill="url(#SVGID_10_)" width="0.367" height="0.225"/>
<pattern  id="SVGID_11_" xlink:href="#ap_x5F_63_x5F_000_x5F_52813" patternTransform="matrix(1 0 0 1 20.6147 20.3516)">
</pattern>
<polyline fill="url(#SVGID_11_)" points="17.982,23.558 17.645,23.558 16.182,18.324 14.211,23.558 18.629,23.558 18.629,23.81 
	13.817,23.81 16.293,16.832 17.982,23.558 "/>
<pattern  id="SVGID_12_" xlink:href="#ap_x5F_63_x5F_000_x5F_52813" patternTransform="matrix(1 0 0 1 20.6147 20.3516)">
</pattern>
<rect x="41.474" y="52.23" fill="url(#SVGID_12_)" width="0.393" height="0.367"/>
<pattern  id="SVGID_13_" xlink:href="#ap_x5F_63_x5F_000_x5F_52813" patternTransform="matrix(1 0 0 1 20.6147 20.3516)">
</pattern>
<rect x="42.515" y="52.343" fill="url(#SVGID_13_)" width="0.393" height="0.281"/>
<pattern  id="SVGID_14_" xlink:href="#ap_x5F_63_x5F_000_x5F_52813" patternTransform="matrix(1 0 0 1 20.6147 20.3516)">
</pattern>
<polyline fill="url(#SVGID_14_)" points="39.644,52.343 39.308,52.343 38.378,49.023 37.421,52.314 39.308,52.343 40.742,52.343 
	40.742,52.625 37.14,52.625 38.265,48.009 38.603,48.009 39.644,52.343 "/>
<pattern  id="SVGID_15_" xlink:href="#ap_x5F_63_x5F_000_x5F_52813" patternTransform="matrix(1 0 0 1 20.6147 20.3516)">
</pattern>
<rect x="10.349" y="42.425" fill="url(#SVGID_15_)" width="0.394" height="0.365"/>
<pattern  id="SVGID_16_" xlink:href="#ap_x5F_63_x5F_000_x5F_52813" patternTransform="matrix(1 0 0 1 20.6147 20.3516)">
</pattern>
<rect x="11.39" y="42.539" fill="url(#SVGID_16_)" width="0.394" height="0.281"/>
<pattern  id="SVGID_17_" xlink:href="#ap_x5F_63_x5F_000_x5F_52813" patternTransform="matrix(1 0 0 1 20.6147 20.3516)">
</pattern>
<polyline fill="url(#SVGID_17_)" points="8.519,42.539 8.181,42.539 7.252,39.216 6.296,42.509 8.181,42.539 9.616,42.539 
	9.616,42.82 6.015,42.82 7.14,38.205 7.478,38.205 8.519,42.539 "/>
<pattern  id="SVGID_18_" xlink:href="#ap_x5F_63_x5F_000_x5F_52813" patternTransform="matrix(1 0 0 1 20.6147 20.3516)">
</pattern>
<rect x="41.474" y="37.419" fill="url(#SVGID_18_)" width="0.395" height="0.365"/>
<pattern  id="SVGID_19_" xlink:href="#ap_x5F_63_x5F_000_x5F_52813" patternTransform="matrix(1 0 0 1 20.6147 20.3516)">
</pattern>
<rect x="42.515" y="37.533" fill="url(#SVGID_19_)" width="0.395" height="0.281"/>
<pattern  id="SVGID_20_" xlink:href="#ap_x5F_63_x5F_000_x5F_52813" patternTransform="matrix(1 0 0 1 20.6147 20.3516)">
</pattern>
<polyline fill="url(#SVGID_20_)" points="39.646,37.533 39.308,37.533 38.378,34.21 37.421,37.503 39.308,37.533 40.742,37.533 
	40.742,37.814 37.14,37.814 38.267,33.199 38.605,33.199 39.646,37.533 "/>
<pattern  id="SVGID_21_" xlink:href="#ap_x5F_63_x5F_000_x5F_52813" patternTransform="matrix(1 0 0 1 20.6147 20.3516)">
</pattern>
<rect x="23.726" y="32.691" fill="url(#SVGID_21_)" width="0.395" height="0.309"/>
<pattern  id="SVGID_22_" xlink:href="#ap_x5F_63_x5F_000_x5F_52813" patternTransform="matrix(1 0 0 1 20.6147 20.3516)">
</pattern>
<rect x="24.767" y="32.746" fill="url(#SVGID_22_)" width="0.226" height="0.225"/>
<pattern  id="SVGID_23_" xlink:href="#ap_x5F_63_x5F_000_x5F_52813" patternTransform="matrix(1 0 0 1 20.6147 20.3516)">
</pattern>
<polyline fill="url(#SVGID_23_)" points="22.235,32.746 21.728,32.746 22.235,32.042 21.419,31.199 20.828,32.07 21.728,32.746 
	23.19,32.746 23.19,32.97 20.968,32.97 20.603,32.548 20.49,31.423 21.054,30.832 21.756,30.832 22.571,31.677 22.629,32.38 
	22.235,32.746 "/>
<pattern  id="SVGID_24_" xlink:href="#ap_x5F_63_x5F_000_x5F_52813" patternTransform="matrix(1 0 0 1 20.6147 20.3516)">
</pattern>
<rect x="57.568" y="35.695" fill="url(#SVGID_24_)" width="0.475" height="0.381"/>
<pattern  id="SVGID_25_" xlink:href="#ap_x5F_63_x5F_000_x5F_52813" patternTransform="matrix(1 0 0 1 20.6147 20.3516)">
</pattern>
<rect x="58.732" y="35.884" fill="url(#SVGID_25_)" width="0.238" height="0.191"/>
<pattern  id="SVGID_26_" xlink:href="#ap_x5F_63_x5F_000_x5F_52813" patternTransform="matrix(1 0 0 1 20.6147 20.3516)">
</pattern>
<polyline fill="url(#SVGID_26_)" points="56.263,35.814 55.906,35.814 55.05,33.392 53.912,35.814 56.976,35.814 56.998,36.123 
	53.46,36.146 55.099,32.277 56.263,35.814 "/>
<pattern  id="SVGID_27_" xlink:href="#ap_x5F_63_x5F_000_x5F_52813" patternTransform="matrix(1 0 0 1 20.6147 20.3516)">
</pattern>
<rect x="7.728" y="57.177" fill="url(#SVGID_27_)" width="0.395" height="0.311"/>
<pattern  id="SVGID_28_" xlink:href="#ap_x5F_63_x5F_000_x5F_52813" patternTransform="matrix(1 0 0 1 20.6147 20.3516)">
</pattern>
<rect x="8.769" y="57.234" fill="url(#SVGID_28_)" width="0.226" height="0.225"/>
<pattern  id="SVGID_29_" xlink:href="#ap_x5F_63_x5F_000_x5F_52813" patternTransform="matrix(1 0 0 1 20.6147 20.3516)">
</pattern>
<polyline fill="url(#SVGID_29_)" points="6.235,57.234 5.729,57.234 6.235,56.531 5.42,55.687 4.829,56.558 5.729,57.234 
	7.192,57.234 7.192,57.458 4.97,57.458 4.604,57.037 4.492,55.912 5.054,55.32 5.758,55.32 6.574,56.164 6.63,56.867 6.235,57.234 
	"/>
<pattern  id="SVGID_30_" xlink:href="#ap_x5F_63_x5F_000_x5F_52813" patternTransform="matrix(1 0 0 1 20.6147 20.3516)">
</pattern>
<rect x="9.151" y="12.062" fill="url(#SVGID_30_)" width="0.393" height="0.365"/>
<pattern  id="SVGID_31_" xlink:href="#ap_x5F_63_x5F_000_x5F_52813" patternTransform="matrix(1 0 0 1 20.6147 20.3516)">
</pattern>
<rect x="10.192" y="12.174" fill="url(#SVGID_31_)" width="0.394" height="0.281"/>
<pattern  id="SVGID_32_" xlink:href="#ap_x5F_63_x5F_000_x5F_52813" patternTransform="matrix(1 0 0 1 20.6147 20.3516)">
</pattern>
<polyline fill="url(#SVGID_32_)" points="7.321,12.174 6.983,12.174 6.056,8.854 5.099,12.146 6.983,12.174 8.419,12.174 
	8.419,12.455 4.817,12.455 5.942,7.84 6.28,7.84 7.321,12.174 "/>
<pattern  id="SVGID_33_" xlink:href="#ap_x5F_63_x5F_000_x5F_52813" patternTransform="matrix(1 0 0 1 20.6147 20.3516)">
</pattern>
<rect x="34.104" y="24.105" fill="url(#SVGID_33_)" width="0.689" height="0.404"/>
<pattern  id="SVGID_34_" xlink:href="#ap_x5F_63_x5F_000_x5F_52813" patternTransform="matrix(1 0 0 1 20.6147 20.3516)">
</pattern>
<rect x="35.245" y="24.248" fill="url(#SVGID_34_)" width="0.355" height="0.262"/>
<pattern  id="SVGID_35_" xlink:href="#ap_x5F_63_x5F_000_x5F_52813" patternTransform="matrix(1 0 0 1 20.6147 20.3516)">
</pattern>
<polyline fill="url(#SVGID_35_)" points="32.039,24.128 31.256,24.152 32.491,22.964 32.467,21.826 31.351,20.734 30.235,20.781 
	29.144,21.849 29.166,23.013 30.164,24.248 31.256,24.152 32.039,24.128 33.487,24.105 33.487,24.605 30.092,24.533 28.739,23.013 
	28.715,21.779 30.211,20.21 31.517,20.236 33.203,21.779 33.132,23.156 32.039,24.128 "/>
<pattern  id="SVGID_36_" xlink:href="#ap_x5F_63_x5F_000_x5F_52813" patternTransform="matrix(1 0 0 1 20.6147 20.3516)">
</pattern>
<rect x="23.183" y="1.02" fill="url(#SVGID_36_)" width="0.394" height="0.31"/>
<pattern  id="SVGID_37_" xlink:href="#ap_x5F_63_x5F_000_x5F_52813" patternTransform="matrix(1 0 0 1 20.6147 20.3516)">
</pattern>
<rect x="24.224" y="1.075" fill="url(#SVGID_37_)" width="0.225" height="0.226"/>
<pattern  id="SVGID_38_" xlink:href="#ap_x5F_63_x5F_000_x5F_52813" patternTransform="matrix(1 0 0 1 20.6147 20.3516)">
</pattern>
<rect x="47.044" y="16.383" fill="url(#SVGID_38_)" width="0.563" height="0.449"/>
<pattern  id="SVGID_39_" xlink:href="#ap_x5F_63_x5F_000_x5F_52813" patternTransform="matrix(1 0 0 1 20.6147 20.3516)">
</pattern>
<rect x="48.564" y="16.607" fill="url(#SVGID_39_)" width="0.365" height="0.225"/>
<pattern  id="SVGID_40_" xlink:href="#ap_x5F_63_x5F_000_x5F_52813" patternTransform="matrix(1 0 0 1 20.6147 20.3516)">
</pattern>
<polyline fill="url(#SVGID_40_)" points="45.695,16.579 45.355,16.579 43.892,11.346 41.923,16.579 46.341,16.579 46.341,16.832 
	41.529,16.832 44.005,9.854 45.695,16.579 "/>
<pattern  id="SVGID_41_" xlink:href="#ap_x5F_63_x5F_000_x5F_52813" patternTransform="matrix(1 0 0 1 20.6147 20.3516)">
</pattern>
<rect x="36.576" y="4.987" fill="url(#SVGID_41_)" width="0.394" height="0.366"/>
<pattern  id="SVGID_42_" xlink:href="#ap_x5F_63_x5F_000_x5F_52813" patternTransform="matrix(1 0 0 1 20.6147 20.3516)">
</pattern>
<rect x="37.619" y="5.099" fill="url(#SVGID_42_)" width="0.395" height="0.282"/>
<pattern  id="SVGID_43_" xlink:href="#ap_x5F_63_x5F_000_x5F_52813" patternTransform="matrix(1 0 0 1 20.6147 20.3516)">
</pattern>
<polyline fill="url(#SVGID_43_)" points="34.747,5.099 34.41,5.099 33.481,1.779 32.524,5.071 34.41,5.099 35.845,5.099 
	35.845,5.381 32.243,5.381 33.369,0.766 33.706,0.766 34.747,5.099 "/>
<pattern  id="SVGID_44_" xlink:href="#ap_x5F_63_x5F_000_x5F_52813" patternTransform="matrix(1 0 0 1 20.6147 20.3516)">
</pattern>
<rect x="4.24" y="21.546" fill="url(#SVGID_44_)" width="0.475" height="0.379"/>
<pattern  id="SVGID_45_" xlink:href="#ap_x5F_63_x5F_000_x5F_52813" patternTransform="matrix(1 0 0 1 20.6147 20.3516)">
</pattern>
<rect x="5.403" y="21.736" fill="url(#SVGID_45_)" width="0.238" height="0.189"/>
<pattern  id="SVGID_46_" xlink:href="#ap_x5F_63_x5F_000_x5F_52813" patternTransform="matrix(1 0 0 1 20.6147 20.3516)">
</pattern>
<polyline fill="url(#SVGID_46_)" points="2.935,21.666 2.578,21.666 1.724,19.244 0.583,21.666 3.646,21.666 3.67,21.974 
	0.132,21.998 1.771,18.126 2.935,21.666 "/>
<pattern  id="SVGID_47_" xlink:href="#ap_x5F_63_x5F_000_x5F_52813" patternTransform="matrix(1 0 0 1 20.6147 20.3516)">
</pattern>
<rect x="58.548" y="6.745" fill="url(#SVGID_47_)" width="0.475" height="0.38"/>
<pattern  id="SVGID_48_" xlink:href="#ap_x5F_63_x5F_000_x5F_52813" patternTransform="matrix(1 0 0 1 20.6147 20.3516)">
</pattern>
<rect x="59.71" y="6.935" fill="url(#SVGID_48_)" width="0.238" height="0.19"/>
<pattern  id="SVGID_49_" xlink:href="#ap_x5F_63_x5F_000_x5F_52813" patternTransform="matrix(1 0 0 1 20.6147 20.3516)">
</pattern>
<polyline fill="url(#SVGID_49_)" points="57.242,6.864 56.886,6.864 56.031,4.442 54.892,6.864 57.955,6.864 57.978,7.173 
	54.441,7.196 56.078,3.326 57.242,6.864 "/>
<pattern  id="SVGID_50_" xlink:href="#ap_x5F_63_x5F_000_x5F_52813" patternTransform="matrix(1 0 0 1 20.6147 20.3516)">
</pattern>
<rect x="5.985" y="28.664" fill="url(#SVGID_50_)" width="0.395" height="0.309"/>
<pattern  id="SVGID_51_" xlink:href="#ap_x5F_63_x5F_000_x5F_52813" patternTransform="matrix(1 0 0 1 20.6147 20.3516)">
</pattern>
<rect x="7.028" y="28.718" fill="url(#SVGID_51_)" width="0.225" height="0.227"/>
<pattern  id="SVGID_52_" xlink:href="#ap_x5F_63_x5F_000_x5F_52813" patternTransform="matrix(1 0 0 1 20.6147 20.3516)">
</pattern>
<polyline fill="url(#SVGID_52_)" points="4.495,28.718 3.987,28.718 4.495,28.015 3.679,27.171 3.088,28.044 3.987,28.718 
	5.452,28.718 5.452,28.945 3.229,28.945 2.862,28.523 2.75,27.396 3.313,26.806 4.017,26.806 4.833,27.65 4.89,28.353 4.495,28.718 
	"/>
<pattern  id="SVGID_53_" xlink:href="#ap_x5F_63_x5F_000_x5F_52813" patternTransform="matrix(1 0 0 1 20.6147 20.3516)">
</pattern>
<rect x="48.976" y="28.664" fill="url(#SVGID_53_)" width="0.393" height="0.309"/>
<pattern  id="SVGID_54_" xlink:href="#ap_x5F_63_x5F_000_x5F_52813" patternTransform="matrix(1 0 0 1 20.6147 20.3516)">
</pattern>
<rect x="50.017" y="28.718" fill="url(#SVGID_54_)" width="0.225" height="0.227"/>
<pattern  id="SVGID_55_" xlink:href="#ap_x5F_63_x5F_000_x5F_52813" patternTransform="matrix(1 0 0 1 20.6147 20.3516)">
</pattern>
<polyline fill="url(#SVGID_55_)" points="47.484,28.718 46.978,28.718 47.484,28.015 46.667,27.171 46.078,28.044 46.978,28.718 
	48.441,28.718 48.441,28.945 46.218,28.945 45.853,28.523 45.74,27.396 46.302,26.806 47.005,26.806 47.822,27.65 47.878,28.353 
	47.484,28.718 "/>
<pattern  id="SVGID_56_" xlink:href="#ap_x5F_63_x5F_000_x5F_52813" patternTransform="matrix(1 0 0 1 20.6147 20.3516)">
</pattern>
<rect x="49.521" y="59.789" fill="url(#SVGID_56_)" width="0.393" height="0.309"/>
<pattern  id="SVGID_57_" xlink:href="#ap_x5F_63_x5F_000_x5F_52813" patternTransform="matrix(1 0 0 1 20.6147 20.3516)">
</pattern>
<rect x="50.562" y="59.845" fill="url(#SVGID_57_)" width="0.225" height="0.225"/>
<pattern  id="SVGID_58_" xlink:href="#ap_x5F_63_x5F_000_x5F_52813" patternTransform="matrix(1 0 0 1 20.6147 20.3516)">
</pattern>
<polyline fill="url(#SVGID_58_)" points="48.029,59.845 47.523,59.845 48.029,59.142 47.212,58.298 46.621,59.169 47.523,59.845 
	48.986,59.845 48.986,60.07 46.763,60.07 46.396,59.648 46.283,58.523 46.847,57.931 47.55,57.931 48.367,58.777 48.421,59.48 
	48.029,59.845 "/>
<pattern  id="SVGID_59_" xlink:href="#ap_x5F_63_x5F_000_x5F_52813" patternTransform="matrix(1 0 0 1 20.6147 20.3516)">
</pattern>
<polyline fill="url(#SVGID_59_)" points="20.556,0 20.284,0.4 21.185,1.075 22.647,1.075 22.647,1.301 20.424,1.301 20.058,0.878 
	19.972,0 20.556,0 "/>
<pattern  id="SVGID_60_" xlink:href="#ap_x5F_63_x5F_000_x5F_52813" patternTransform="matrix(1 0 0 1 20.6147 20.3516)">
</pattern>
<polyline fill="url(#SVGID_60_)" points="22.022,0 22.028,0.006 22.085,0.71 21.69,1.075 21.185,1.075 21.69,0.372 21.331,0 
	22.022,0 "/>
<pattern  id="SVGID_61_" xlink:href="#ap_x5F_63_x5F_000_x5F_52813" patternTransform="matrix(1 0 0 1 20.6147 20.3516)">
</pattern>
<rect y="51.15" fill="url(#SVGID_61_)" width="0.024" height="0.379"/>
<pattern  id="SVGID_62_" xlink:href="#ap_x5F_63_x5F_000_x5F_52813" patternTransform="matrix(1 0 0 1 20.6147 20.3516)">
</pattern>
<rect x="60.507" y="51.15" fill="url(#SVGID_62_)" width="0.449" height="0.379"/>
<pattern  id="SVGID_63_" xlink:href="#ap_x5F_63_x5F_000_x5F_52813" patternTransform="matrix(1 0 0 1 20.6147 20.3516)">
</pattern>
<rect x="54.474" y="46.376" fill="url(#SVGID_63_)" width="0.369" height="0.361"/>
<pattern  id="SVGID_64_" xlink:href="#ap_x5F_63_x5F_000_x5F_52813" patternTransform="matrix(1 0 0 1 20.6147 20.3516)">
</pattern>
<rect x="53.32" y="46.367" fill="url(#SVGID_64_)" width="0.43" height="0.371"/>
<pattern  id="SVGID_65_" xlink:href="#ap_x5F_63_x5F_000_x5F_52813" patternTransform="matrix(1 0 0 1 20.6147 20.3516)">
</pattern>
<polyline fill="url(#SVGID_65_)" points="51.755,46.484 51.048,46.484 52.058,45.357 52.076,44.439 50.787,43.513 49.382,44.726 
	49.382,45.291 50.55,46.494 51.048,46.484 52.689,46.484 52.689,46.738 50.207,46.738 48.986,45.189 48.986,44.675 50.257,43.21 
	51.142,43.22 52.462,44.136 52.47,45.585 51.755,46.484 "/>
<pattern  id="SVGID_66_" xlink:href="#ap_x5F_63_x5F_000_x5F_52813" patternTransform="matrix(1 0 0 1 20.6147 20.3516)">
</pattern>
<rect x="22.505" y="12.094" fill="url(#SVGID_66_)" width="0.37" height="0.361"/>
<pattern  id="SVGID_67_" xlink:href="#ap_x5F_63_x5F_000_x5F_52813" patternTransform="matrix(1 0 0 1 20.6147 20.3516)">
</pattern>
<rect x="21.351" y="12.085" fill="url(#SVGID_67_)" width="0.43" height="0.37"/>
<pattern  id="SVGID_68_" xlink:href="#ap_x5F_63_x5F_000_x5F_52813" patternTransform="matrix(1 0 0 1 20.6147 20.3516)">
</pattern>
<polyline fill="url(#SVGID_68_)" points="19.786,12.202 19.079,12.202 20.089,11.074 20.106,10.157 18.818,9.231 17.413,10.443 
	17.413,11.008 18.582,12.212 19.079,12.202 20.72,12.202 20.72,12.455 18.237,12.455 17.017,10.906 17.017,10.394 18.288,8.929 
	19.173,8.938 20.493,9.854 20.501,11.303 19.786,12.202 "/>
<pattern  id="SVGID_69_" xlink:href="#ap_x5F_63_x5F_000_x5F_52813" patternTransform="matrix(1 0 0 1 20.6147 20.3516)">
</pattern>
<rect x="0.714" y="51.339" fill="url(#SVGID_69_)" width="0.237" height="0.189"/>
<pattern  id="SVGID_70_" xlink:href="#ap_x5F_63_x5F_000_x5F_52813" patternTransform="matrix(1 0 0 1 20.6147 20.3516)">
</pattern>
<polyline fill="url(#SVGID_70_)" points="21.331,60.957 20.875,60.484 20.556,60.957 19.972,60.957 19.946,60.708 20.509,60.119 
	21.212,60.119 22.022,60.957 21.331,60.957 "/>
</svg>
