<?xml version="1.0" encoding="utf-8"?>
<!-- Generator: Adobe Illustrator 14.0.0, SVG Export Plug-In  -->
<!DOCTYPE svg PUBLIC "-//W3C//DTD SVG 1.1//EN" "http://www.w3.org/Graphics/SVG/1.1/DTD/svg11.dtd" [
	<!ENTITY ns_flows "http://ns.adobe.com/Flows/1.0/">
]>
<svg version="1.1"
	 xmlns="http://www.w3.org/2000/svg" xmlns:xlink="http://www.w3.org/1999/xlink" xmlns:a="http://ns.adobe.com/AdobeSVGViewerExtensions/3.0/"
	 x="0px" y="0px" width="15.238px" height="15.239px" viewBox="0 0 15.238 15.239" enable-background="new 0 0 15.238 15.239"
	 xml:space="preserve">
<defs>
</defs>
<rect fill="none" width="15.238" height="15.239"/>
<polyline fill="#3F9C35" points="0,1.352 0.643,1.36 0.613,1.7 0,1.762 0,1.352 "/>
<polyline fill="#3F9C35" points="7.591,5.931 7.818,5.931 8.074,5.477 8.925,5.675 9.493,5.618 8.698,4.965 8.102,5.022 
	8.357,4.228 10.373,4.028 10.402,3.688 8.271,3.659 7.591,4.71 6.541,3.574 5.064,3.574 4.725,4.482 5.093,4.512 5.604,3.972 
	6.598,4.058 7.08,5.022 5.773,5.448 6.37,5.562 7.052,5.363 7.591,5.931 "/>
<polyline fill="#3F9C35" points="15.238,12.232 14.881,12.204 15.223,11.296 15.238,11.296 15.238,12.232 "/>
<polyline fill="#3F9C35" points="11.566,9.536 11.793,9.536 12.048,9.082 12.9,9.28 13.468,9.224 12.673,8.571 12.077,8.627 
	12.332,7.832 14.348,7.634 14.376,7.293 12.247,7.266 11.566,8.315 10.516,7.18 9.039,7.18 8.698,8.088 9.066,8.116 9.578,7.577 
	10.572,7.662 11.055,8.627 9.749,9.054 10.346,9.167 11.025,8.968 11.566,9.536 "/>
<polyline fill="#3F9C35" points="8.557,13.425 8.783,13.425 9.039,12.972 9.891,13.17 10.458,13.113 9.664,12.46 9.066,12.518 
	9.323,11.723 11.338,11.523 11.367,11.183 9.238,11.154 8.557,12.204 7.506,11.069 6.029,11.069 5.689,11.978 6.059,12.006 
	6.568,11.466 7.563,11.551 8.045,12.518 6.738,12.942 7.336,13.057 8.018,12.857 8.557,13.425 "/>
<polyline fill="#3F9C35" points="0,13.441 0.896,13.453 0.869,13.794 0,13.88 0,13.441 "/>
<polyline fill="#3F9C35" points="4.895,10.189 5.121,10.189 5.377,9.734 6.229,9.934 6.796,9.876 6.001,9.224 5.404,9.28 
	5.661,8.485 7.676,8.287 7.705,7.946 5.576,7.918 4.895,8.968 3.844,7.832 2.368,7.832 2.027,8.741 2.396,8.77 2.907,8.23 
	3.9,8.315 4.383,9.28 3.077,9.706 3.673,9.82 4.355,9.621 4.895,10.189 "/>
<polyline fill="#3F9C35" points="0,4.893 0.409,5.334 1.09,4.284 3.219,4.313 3.191,4.653 1.175,4.853 0.92,5.646 1.516,5.59 
	2.311,6.243 1.743,6.299 0.891,6.102 0.637,6.556 0.409,6.556 0,6.125 0,4.893 "/>
<polyline fill="#3F9C35" points="6.143,2.524 6.37,2.524 6.626,2.069 7.479,2.269 8.045,2.211 7.25,1.559 6.654,1.615 6.91,0.82 
	8.925,0.622 8.954,0.281 6.825,0.253 6.143,1.304 5.093,0.167 3.617,0.167 3.275,1.076 3.645,1.104 4.156,0.565 5.15,0.65 
	5.632,1.615 4.326,2.041 4.923,2.155 5.604,1.956 6.143,2.524 "/>
<polyline fill="#3F9C35" points="11.643,15.239 11.509,15.214 12.814,14.788 12.332,13.822 11.338,13.737 10.827,14.277 
	10.458,14.248 10.799,13.34 12.275,13.34 13.326,14.476 14.007,13.425 15.238,13.441 15.238,13.88 14.092,13.993 13.837,14.788 
	14.434,14.731 15.051,15.239 12.891,15.239 12.786,15.128 12.407,15.239 11.643,15.239 "/>
<polyline fill="#3F9C35" points="15.051,0 15.229,0.146 14.66,0.202 13.809,0.003 13.553,0.457 13.326,0.457 12.891,0 15.051,0 "/>
<polyline fill="#3F9C35" points="12.407,0 12.105,0.088 11.643,0 12.407,0 "/>
<polyline fill="#3F9C35" points="15.238,6.125 15.107,5.987 14.427,6.187 13.831,6.072 15.137,5.646 14.654,4.682 13.661,4.597 
	13.15,5.136 12.779,5.107 13.121,4.199 14.598,4.199 15.238,4.893 15.238,6.125 "/>
<polyline fill="#3F9C35" points="0,11.296 1.459,11.296 2.509,12.432 3.191,11.381 5.32,11.409 5.292,11.75 3.275,11.949 
	3.02,12.744 3.617,12.688 4.412,13.34 3.844,13.397 2.992,13.198 2.736,13.652 2.509,13.652 1.971,13.084 1.289,13.283 0.693,13.17 
	1.998,12.744 1.516,11.778 0.521,11.693 0.012,12.233 0,12.232 0,11.296 "/>
<polyline fill="#3F9C35" points="15.238,1.762 13.837,1.899 13.581,2.694 14.177,2.638 14.973,3.29 14.404,3.348 13.553,3.148 
	13.297,3.603 13.07,3.603 12.531,3.035 11.85,3.233 11.253,3.12 12.559,2.694 12.077,1.729 11.083,1.645 10.572,2.184 10.203,2.155 
	10.544,1.246 12.02,1.246 13.07,2.382 13.752,1.331 15.238,1.352 15.238,1.762 "/>
</svg>
