<?xml version="1.0" encoding="utf-8"?>
<!-- Generator: Adobe Illustrator 14.0.0, SVG Export Plug-In  -->
<!DOCTYPE svg PUBLIC "-//W3C//DTD SVG 1.1//EN" "http://www.w3.org/Graphics/SVG/1.1/DTD/svg11.dtd" [
	<!ENTITY ns_flows "http://ns.adobe.com/Flows/1.0/">
]>
<svg version="1.1"
	 xmlns="http://www.w3.org/2000/svg" xmlns:xlink="http://www.w3.org/1999/xlink" xmlns:a="http://ns.adobe.com/AdobeSVGViewerExtensions/3.0/"
	 x="0px" y="0px" width="29.391px" height="26.553px" viewBox="0 0 29.391 26.553" enable-background="new 0 0 29.391 26.553"
	 xml:space="preserve">
<defs>
</defs>
<rect fill="none" width="29.391" height="26.553"/>
<rect x="11.381" y="20.886" fill="#3F9C35" width="0.369" height="0.243"/>
<rect x="11.982" y="20.891" fill="#3F9C35" width="0.234" height="0.233"/>
<polyline fill="#3F9C35" points="10.202,20.886 9.6,20.886 10.07,20.39 10.075,20.137 9.706,19.555 9.463,19.555 9.018,20.172 
	9.023,20.41 9.402,20.886 10.905,20.886 10.92,21.129 9.327,21.134 8.633,20.4 8.628,20 9.337,19.252 9.898,19.267 10.551,20.041 
	10.557,20.572 10.202,20.886 "/>
<rect x="20.719" y="26.213" fill="#3F9C35" width="0.35" height="0.34"/>
<rect x="21.436" y="26.327" fill="#3F9C35" width="0.226" height="0.226"/>
<polyline fill="#3F9C35" points="19.146,26.169 19.596,25.721 19.547,25.111 19.131,24.728 18.331,24.76 18.139,25.207 
	18.154,25.672 18.667,26.169 19.146,26.169 20.172,26.2 20.172,26.553 18.539,26.536 17.723,25.832 17.723,24.951 18.619,24.199 
	19.259,24.216 20.107,24.903 19.996,25.881 19.82,26.169 19.146,26.169 "/>
<rect x="5.68" y="14.991" fill="#3F9C35" width="0.35" height="0.34"/>
<rect x="6.396" y="15.135" fill="#3F9C35" width="0.226" height="0.225"/>
<polyline fill="#3F9C35" points="4.107,14.987 4.557,14.538 4.508,13.93 4.092,13.546 3.292,13.578 3.1,14.026 3.115,14.49 
	3.628,14.987 4.107,14.987 5.133,15.019 5.133,15.371 3.5,15.354 2.684,14.65 2.684,13.77 3.58,13.017 4.221,13.033 5.068,13.722 
	4.957,14.698 4.779,14.987 4.107,14.987 "/>
<rect x="18.57" y="13.389" fill="#3F9C35" width="0.35" height="0.339"/>
<rect x="19.173" y="13.513" fill="#3F9C35" width="0.226" height="0.225"/>
<polyline fill="#3F9C35" points="18.529,14.986 18.978,14.538 18.93,13.93 18.514,13.545 17.713,13.577 17.521,14.026 17.536,14.49 
	18.049,14.986 18.529,14.986 19.555,15.018 19.555,15.371 17.922,15.355 17.104,14.65 17.104,13.769 18.002,13.017 18.642,13.033 
	19.49,13.721 19.379,14.698 19.201,14.986 18.529,14.986 "/>
<rect x="28.557" y="21.828" fill="#3F9C35" width="0.369" height="0.242"/>
<rect x="29.158" y="21.833" fill="#3F9C35" width="0.232" height="0.231"/>
<polyline fill="#3F9C35" points="27.377,21.828 26.775,21.828 27.246,21.332 27.251,21.079 26.881,20.497 26.639,20.497 
	26.193,21.114 26.197,21.352 26.578,21.828 28.081,21.828 28.096,22.07 26.502,22.075 25.809,21.342 25.805,20.942 26.512,20.193 
	27.074,20.208 27.727,20.982 27.73,21.514 27.377,21.828 "/>
<rect x="13.175" y="4.503" fill="#3F9C35" width="0.369" height="0.243"/>
<rect x="13.777" y="4.508" fill="#3F9C35" width="0.232" height="0.233"/>
<polyline fill="#3F9C35" points="11.996,4.503 11.395,4.503 11.863,4.007 11.869,3.754 11.5,3.172 11.257,3.172 10.813,3.79 
	10.816,4.028 11.195,4.503 12.699,4.503 12.714,4.746 11.121,4.751 10.427,4.017 10.422,3.618 11.131,2.869 11.691,2.884 
	12.346,3.658 12.35,4.188 11.996,4.503 "/>
<rect x="3.572" y="2.174" fill="#3F9C35" width="0.365" height="0.469"/>
<rect x="4.3" y="2.416" fill="#3F9C35" width="0.259" height="0.243"/>
<polyline fill="#3F9C35" points="2.49,2.189 1.795,2.174 2.109,1.802 2.126,0.848 1.504,0.396 1.02,0.404 0.389,1.139 0.389,1.607 
	0.995,2.303 1.544,2.271 1.795,2.174 2.49,2.189 2.87,2.189 2.87,2.675 1.1,2.627 0.396,2.311 0,1.697 0.009,0.953 0.559,0.283 
	1.236,0.023 1.561,0 2.313,0.347 2.773,1.01 2.749,1.721 2.49,2.189 "/>
<rect x="25.79" y="6.52" fill="#3F9C35" width="0.364" height="0.469"/>
<rect x="26.518" y="6.762" fill="#3F9C35" width="0.258" height="0.242"/>
<polyline fill="#3F9C35" points="24.707,6.536 24.012,6.52 24.327,6.147 24.343,5.194 23.721,4.741 23.236,4.749 22.605,5.485 
	22.605,5.954 23.211,6.648 23.761,6.617 24.012,6.52 24.707,6.536 25.087,6.536 25.087,7.021 23.316,6.972 22.613,6.657 
	22.217,6.043 22.225,5.299 22.775,4.628 23.454,4.37 23.777,4.345 24.529,4.693 24.99,5.355 24.965,6.067 24.707,6.536 "/>
</svg>
