<?xml version="1.0" encoding="utf-8"?>
<!-- Generator: Adobe Illustrator 14.0.0, SVG Export Plug-In  -->
<!DOCTYPE svg PUBLIC "-//W3C//DTD SVG 1.1//EN" "http://www.w3.org/Graphics/SVG/1.1/DTD/svg11.dtd" [
	<!ENTITY ns_flows "http://ns.adobe.com/Flows/1.0/">
]>
<svg version="1.1"
	 xmlns="http://www.w3.org/2000/svg" xmlns:xlink="http://www.w3.org/1999/xlink" xmlns:a="http://ns.adobe.com/AdobeSVGViewerExtensions/3.0/"
	 x="0px" y="0px" width="10.159px" height="10.159px" viewBox="0 0 10.159 10.159" enable-background="new 0 0 10.159 10.159"
	 xml:space="preserve">
<defs>
</defs>
<rect fill="none" width="10.159" height="10.159"/>
<polyline fill="#3F9C35" points="1.312,8.02 1.387,8.549 2.087,8.549 2.05,8.077 1.312,8.02 "/>
<polyline fill="#3F9C35" points="0.952,4.121 0.952,4.822 1.387,4.822 1.425,5.238 0.896,5.219 0.157,4.462 0.271,4.083 
	0.952,4.121 "/>
<polyline fill="#3F9C35" points="0.649,6.733 0.706,7.321 0.194,7.282 0.157,6.676 0.649,6.733 "/>
<polyline fill="#3F9C35" points="1.614,6.014 1.671,6.866 1.009,6.772 0.971,6.034 1.614,6.014 "/>
<rect x="1.993" y="3.421" fill="#3F9C35" width="0.473" height="0.454"/>
<rect x="2.522" y="3.894" fill="#3F9C35" width="0.209" height="0.189"/>
<rect x="2.106" y="4.822" fill="#3F9C35" width="0.379" height="0.378"/>
<polyline fill="#3F9C35" points="2.579,9.344 2.598,9.573 3.147,9.573 3.204,9.288 2.579,9.344 "/>
<polyline fill="#3F9C35" points="0.8,9.137 0.971,9.856 0.384,9.875 0.403,9.118 0.8,9.137 "/>
<polyline fill="#3F9C35" points="8.045,5.731 8.688,5.788 8.613,6.6 7.742,6.583 8.045,5.731 "/>
<polygon fill="#3F9C35" points="3.374,4.935 3.249,4.93 2.901,4.916 2.712,5.788 3.249,5.93 3.488,5.995 "/>
<polyline fill="#3F9C35" points="5.982,4.462 5.887,5.352 5.264,5.162 5.244,4.651 5.982,4.462 "/>
<polyline fill="#3F9C35" points="7.439,4.5 7.307,5.068 6.928,4.935 7.023,4.348 7.439,4.5 "/>
<polyline fill="#3F9C35" points="9.161,6.11 9.407,6.11 9.616,6.526 9.407,6.713 8.973,6.336 9.161,6.11 "/>
<polyline fill="#3F9C35" points="9.938,7.206 9.938,7.604 9.598,7.85 9.236,7.85 9.352,7.262 9.938,7.206 "/>
<polyline fill="#3F9C35" points="5.282,7.245 4.809,7.245 4.809,7.624 5.092,8 5.564,7.584 5.698,7.225 5.282,7.245 "/>
<polyline fill="#3F9C35" points="4.714,5.749 3.9,5.672 3.919,6.374 4.695,6.411 4.714,5.749 "/>
<rect x="6.076" y="3.251" fill="#3F9C35" width="0.379" height="0.397"/>
<rect x="8.613" y="4.481" fill="#3F9C35" width="0.681" height="0.681"/>
<rect x="3.616" y="7.491" fill="#3F9C35" width="0.341" height="0.34"/>
<polyline fill="#3F9C35" points="3.995,4.121 4.07,4.784 3.919,4.954 3.616,4.973 3.54,4.538 3.616,4.065 3.995,4.121 "/>
<polyline fill="#3F9C35" points="7.307,3.156 7.174,3.535 7.154,3.837 7.893,3.913 8.461,3.535 7.723,3.137 7.307,3.156 "/>
<rect x="7.154" y="5.995" fill="#3F9C35" width="0.246" height="0.285"/>
<rect x="5.244" y="5.901" fill="#3F9C35" width="0.492" height="0.359"/>
<polyline fill="#3F9C35" points="9.672,3.402 9.918,3.591 9.881,3.951 9.445,3.913 9.482,3.44 9.672,3.402 "/>
<polygon fill="#3F9C35" points="3.249,6.489 2.901,6.543 2.769,6.885 3.185,7.016 3.249,6.897 3.488,6.45 "/>
<rect x="6.682" y="6.979" fill="#3F9C35" width="0.492" height="0.492"/>
<polygon fill="#3F9C35" points="3.249,7.881 3.015,7.282 2.39,7.338 2.428,8.153 3.249,8.153 3.355,8.153 "/>
<polyline fill="#3F9C35" points="6.663,7.887 6.493,8.778 5.925,8.778 5.717,8.19 5.943,7.813 6.663,7.887 "/>
<polyline fill="#3F9C35" points="8.688,7.963 8.613,8.928 8.083,9.098 7.837,8.436 8.139,7.85 8.688,7.963 "/>
<polygon fill="#3F9C35" points="3.249,8.758 3.161,8.758 3.161,9.081 3.249,9.081 3.445,9.081 3.445,8.758 "/>
<rect x="4.07" y="8.872" fill="#3F9C35" width="0.625" height="0.416"/>
<rect x="8.499" y="9.458" fill="#3F9C35" width="0.454" height="0.361"/>
<polyline fill="#3F9C35" points="7.174,9.231 7.137,9.649 6.796,9.893 6.417,9.836 6.682,9.231 7.174,9.231 "/>
<polyline fill="#3F9C35" points="5.434,9.458 5.244,10.102 4.96,10.065 4.922,9.458 5.434,9.458 "/>
<rect x="1.37" y="0.132" fill="#3F9C35" width="0.529" height="0.511"/>
<rect x="0.14" y="0.227" fill="#3F9C35" width="0.643" height="0.757"/>
<polyline fill="#3F9C35" points="1.635,1.306 1.692,1.816 1.407,2.044 1.143,1.76 1.257,1.306 1.635,1.306 "/>
<polygon fill="#3F9C35" points="1.786,2.517 1.817,3.007 1.815,3.007 1.821,3.122 2.825,3.198 2.891,3.007 2.893,3.007 3.055,2.536 
	"/>
<polygon fill="#3F9C35" points="3.58,1.419 3.251,1.726 3.013,1.949 3.251,2.27 3.561,2.687 3.751,2.082 "/>
<rect x="3.846" fill="#3F9C35" width="0.207" height="0.378"/>
<polygon fill="#3F9C35" points="3.251,0.378 2.997,0.378 2.997,0.681 3.251,0.681 3.338,0.681 3.338,0.378 "/>
<polyline fill="#3F9C35" points="9.05,0.889 8.993,1.495 8.501,1.495 8.501,0.775 9.05,0.889 "/>
<polyline fill="#3F9C35" points="7.025,0.813 7.006,1.343 6.268,1.343 6.438,0.946 7.025,0.813 "/>
<polyline fill="#3F9C35" points="4.811,0.378 4.886,1.154 4.109,1.116 4.375,0.511 4.811,0.378 "/>
<rect x="5.17" y="1.325" fill="#3F9C35" width="0.473" height="0.511"/>
<polyline fill="#3F9C35" points="7.518,1.684 7.82,2.063 7.857,2.725 7.328,2.668 7.195,2.024 7.518,1.684 "/>
<polyline fill="#3F9C35" points="10.072,1.93 10.034,2.44 9.428,2.933 8.822,2.933 8.993,2.29 10.072,1.93 "/>
<polygon fill="#3F9C35" points="5.668,3.007 5.67,3.007 5.643,2.744 5.436,2.574 4.545,2.574 4.637,3.007 4.635,3.007 4.676,3.198 
	5.698,3.292 "/>
<rect x="9.9" y="8.739" fill="#3F9C35" width="0.259" height="0.379"/>
<rect y="8.739" fill="#3F9C35" width="0.118" height="0.379"/>
<rect x="7.154" y="10.045" fill="#3F9C35" width="0.38" height="0.113"/>
<rect x="7.156" fill="#3F9C35" width="0.38" height="0.321"/>
<rect fill="none" width="10.159" height="10.159"/>
</svg>
