<?xml version="1.0" encoding="utf-8"?>
<!-- Generator: Adobe Illustrator 14.0.0, SVG Export Plug-In  -->
<!DOCTYPE svg PUBLIC "-//W3C//DTD SVG 1.1//EN" "http://www.w3.org/Graphics/SVG/1.1/DTD/svg11.dtd" [
	<!ENTITY ns_flows "http://ns.adobe.com/Flows/1.0/">
]>
<svg version="1.1"
	 xmlns="http://www.w3.org/2000/svg" xmlns:xlink="http://www.w3.org/1999/xlink" xmlns:a="http://ns.adobe.com/AdobeSVGViewerExtensions/3.0/"
	 x="0px" y="0px" width="60.956px" height="58.189px" viewBox="0 0 60.956 58.189" enable-background="new 0 0 60.956 58.189"
	 xml:space="preserve">
<defs>
</defs>
<rect fill="none" width="60.956" height="58.189"/>
<polyline fill="#3F9C35" points="44.569,18.939 43.961,18.939 42.458,13.461 40.72,18.939 45.962,18.939 45.962,19.3 40.259,19.3 
	42.358,12.094 42.769,12.094 44.569,18.939 "/>
<rect x="46.459" y="18.927" fill="#3F9C35" width="0.597" height="0.36"/>
<rect x="47.415" y="19.063" fill="#3F9C35" width="0.473" height="0.211"/>
<polyline fill="#3F9C35" points="8.573,40.401 7.964,40.401 6.461,34.923 4.722,40.401 9.964,40.401 9.964,40.762 4.263,40.762 
	6.36,33.557 6.771,33.557 8.573,40.401 "/>
<rect x="10.461" y="40.39" fill="#3F9C35" width="0.597" height="0.36"/>
<rect x="11.418" y="40.525" fill="#3F9C35" width="0.472" height="0.211"/>
<polyline fill="#3F9C35" points="9.896,53.025 9.416,53.025 8.749,50.166 7.731,53.019 9.416,53.025 11.315,53.025 11.315,53.263 
	7.373,53.263 8.655,49.169 9,49.169 9.896,53.025 "/>
<rect x="11.782" y="53.025" fill="#3F9C35" width="0.48" height="0.237"/>
<rect x="12.856" y="53.025" fill="#3F9C35" width="0.266" height="0.23"/>
<polyline fill="#3F9C35" points="2.629,5.105 2.147,5.105 1.481,2.244 0.464,5.098 2.147,5.105 4.048,5.105 4.048,5.342 
	0.104,5.342 1.388,1.249 1.733,1.249 2.629,5.105 "/>
<rect x="4.515" y="5.105" fill="#3F9C35" width="0.48" height="0.236"/>
<rect x="5.59" y="5.105" fill="#3F9C35" width="0.265" height="0.229"/>
<polyline fill="#3F9C35" points="26.476,3.856 25.995,3.856 25.328,0.995 24.31,3.849 25.995,3.856 27.896,3.856 27.896,4.093 
	23.952,4.093 25.235,0 25.579,0 26.476,3.856 "/>
<rect x="28.36" y="3.856" fill="#3F9C35" width="0.48" height="0.236"/>
<rect x="29.437" y="3.856" fill="#3F9C35" width="0.266" height="0.229"/>
<polyline fill="#3F9C35" points="50.89,7.035 50.41,7.035 49.743,4.176 48.726,7.028 50.41,7.035 52.31,7.035 52.31,7.272 
	48.367,7.272 49.649,3.179 49.994,3.179 50.89,7.035 "/>
<rect x="52.776" y="7.035" fill="#3F9C35" width="0.479" height="0.237"/>
<rect x="53.851" y="7.035" fill="#3F9C35" width="0.266" height="0.23"/>
<polyline fill="#3F9C35" points="31.926,33.948 31.446,33.948 30.778,31.089 29.761,33.941 31.446,33.948 33.347,33.948 
	33.347,34.186 29.403,34.186 30.687,30.092 31.03,30.092 31.926,33.948 "/>
<rect x="33.812" y="33.948" fill="#3F9C35" width="0.48" height="0.237"/>
<rect x="34.888" y="33.948" fill="#3F9C35" width="0.264" height="0.229"/>
<polyline fill="#3F9C35" points="40.274,57.96 39.662,57.943 38.533,54.257 37.381,57.943 39.662,57.943 40.274,57.96 41.681,57.96 
	41.681,58.189 37.039,58.189 38.446,53.024 38.748,53.024 40.274,57.96 "/>
<rect x="42.19" y="57.888" fill="#3F9C35" width="0.461" height="0.269"/>
<rect x="43.226" y="57.965" fill="#3F9C35" width="0.27" height="0.152"/>
<polyline fill="#3F9C35" points="28.01,48.647 27.397,48.632 26.269,44.944 25.117,48.632 27.397,48.632 28.01,48.647 
	29.416,48.647 29.416,48.879 24.774,48.879 26.183,43.713 26.483,43.713 28.01,48.647 "/>
<rect x="29.927" y="48.575" fill="#3F9C35" width="0.461" height="0.27"/>
<rect x="30.962" y="48.652" fill="#3F9C35" width="0.27" height="0.154"/>
<polyline fill="#3F9C35" points="16.541,30.252 15.929,30.235 14.8,26.549 13.647,30.235 15.929,30.235 16.541,30.252 
	17.946,30.252 17.946,30.482 13.306,30.482 14.713,25.316 15.015,25.316 16.541,30.252 "/>
<rect x="18.458" y="30.18" fill="#3F9C35" width="0.46" height="0.269"/>
<rect x="19.493" y="30.257" fill="#3F9C35" width="0.27" height="0.152"/>
<polyline fill="#3F9C35" points="12.793,15.489 12.181,15.474 11.054,11.785 9.899,15.474 12.181,15.474 12.793,15.489 14.2,15.489 
	14.2,15.72 9.56,15.72 10.965,10.555 11.267,10.555 12.793,15.489 "/>
<rect x="14.711" y="15.418" fill="#3F9C35" width="0.46" height="0.268"/>
<rect x="15.746" y="15.494" fill="#3F9C35" width="0.269" height="0.153"/>
<polyline fill="#3F9C35" points="28.123,20.714 27.511,20.697 26.383,17.01 25.229,20.697 27.511,20.697 28.123,20.714 
	29.53,20.714 29.53,20.943 24.89,20.943 26.295,15.777 26.597,15.777 28.123,20.714 "/>
<rect x="30.041" y="20.642" fill="#3F9C35" width="0.46" height="0.268"/>
<rect x="31.076" y="20.718" fill="#3F9C35" width="0.269" height="0.153"/>
<polyline fill="#3F9C35" points="50.494,36.951 49.882,36.936 48.753,33.249 47.601,36.936 49.882,36.936 50.494,36.951 
	51.901,36.951 51.901,37.183 47.259,37.183 48.666,32.017 48.968,32.017 50.494,36.951 "/>
<rect x="52.411" y="36.88" fill="#3F9C35" width="0.46" height="0.269"/>
<rect x="53.446" y="36.957" fill="#3F9C35" width="0.269" height="0.152"/>
<polyline fill="#3F9C35" points="42.033,45.985 41.552,45.985 40.886,43.125 39.868,45.979 41.552,45.985 43.452,45.985 
	43.452,46.223 39.509,46.223 40.792,42.129 41.138,42.129 42.033,45.985 "/>
<rect x="43.918" y="45.985" fill="#3F9C35" width="0.481" height="0.237"/>
<rect x="44.994" y="45.985" fill="#3F9C35" width="0.265" height="0.229"/>
<polyline fill="#3F9C35" points="57.517,55.277 56.907,55.277 55.403,49.799 53.664,55.277 58.907,55.277 58.907,55.638 
	53.205,55.638 55.304,48.432 55.714,48.432 57.517,55.277 "/>
<rect x="59.403" y="55.266" fill="#3F9C35" width="0.597" height="0.36"/>
<rect x="60.36" y="55.401" fill="#3F9C35" width="0.473" height="0.211"/>
<polyline fill="#3F9C35" points="60.956,21.645 59.832,17.549 58.093,23.027 60.956,23.027 60.956,23.388 57.633,23.388 
	59.733,16.182 60.144,16.182 60.956,19.272 60.956,21.645 "/>
<rect x="3.833" y="23.151" fill="#3F9C35" width="0.473" height="0.211"/>
<rect x="2.877" y="23.016" fill="#3F9C35" width="0.597" height="0.36"/>
<polyline fill="#3F9C35" points="0,19.272 0.987,23.027 0.379,23.027 0,21.645 0,19.272 "/>
<rect y="23.027" fill="#3F9C35" width="2.38" height="0.36"/>
</svg>
