<?xml version="1.0" encoding="utf-8"?>
<!-- Generator: Adobe Illustrator 14.0.0, SVG Export Plug-In  -->
<!DOCTYPE svg PUBLIC "-//W3C//DTD SVG 1.1//EN" "http://www.w3.org/Graphics/SVG/1.1/DTD/svg11.dtd" [
	<!ENTITY ns_flows "http://ns.adobe.com/Flows/1.0/">
]>
<svg version="1.1"
	 xmlns="http://www.w3.org/2000/svg" xmlns:xlink="http://www.w3.org/1999/xlink" xmlns:a="http://ns.adobe.com/AdobeSVGViewerExtensions/3.0/"
	 x="0px" y="0px" width="30.023px" height="29.977px" viewBox="0 0 30.023 29.977" enable-background="new 0 0 30.023 29.977"
	 xml:space="preserve">
<defs>
</defs>
<rect fill="none" width="30.023" height="29.977"/>
<path fill="#A0D07F" d="M30.023,24.516v-0.283c-0.314-0.018-0.639,0.006-0.83,0.049c-1.057,0.24-1.656,0.924-1.732,1.977l0.02,0.001
	c-0.281,0.154-0.465,0.562-0.537,1.247c-0.014,0.133-0.014,1.131,0.365,1.396c0.115,0.082,0.256,0.09,0.395,0.023
	c0.4-0.193,0.514-0.842,0.545-1.211c0.008-0.066-0.014-0.726-0.18-1.154c0.377,0.023,0.693,0.067,1.002,0.184
	c0.031,0.137,0.061,0.287,0.088,0.455c0.104,0.608,0.219,1.299,0.611,1.639c0.082,0.07,0.168,0.119,0.254,0.158v-0.334
	c-0.023-0.016-0.045-0.02-0.068-0.039c-0.316-0.273-0.428-0.938-0.518-1.471c-0.016-0.094-0.033-0.168-0.049-0.254
	c0.059,0.031,0.113,0.054,0.174,0.093c0.148,0.097,0.309,0.227,0.461,0.374v-0.387c-0.104-0.084-0.209-0.16-0.307-0.225
	c-0.604-0.395-1.1-0.451-1.828-0.49c-0.02-0.018-0.043-0.023-0.064-0.035c0.016-0.007,0.033-0.014,0.049-0.021
	c0.188-0.079,0.365-0.153,0.555-0.172c0.553-0.054,1.092-0.035,1.596,0.027v-0.284c-0.516-0.061-1.063-0.08-1.621-0.025
	c-0.213,0.021-0.402,0.096-0.584,0.172c0.137-0.598,0.5-1.013,1.088-1.24v0.002c0.094,0.049,0.193,0.108,0.299,0.172
	c0.252,0.152,0.529,0.307,0.818,0.367v-0.289c-0.225-0.061-0.449-0.188-0.672-0.32c-0.035-0.021-0.066-0.037-0.1-0.057
	c0.002-0.001,0.004-0.002,0.004-0.002C29.451,24.515,29.748,24.498,30.023,24.516z M27.966,27.691
	c-0.045,0.518-0.189,0.883-0.387,0.979c-0.061,0.029-0.086,0.016-0.107,0.002c-0.195-0.139-0.273-0.869-0.246-1.138
	c0.088-0.86,0.318-1.038,0.447-1.067c0.006-0.002,0.012-0.004,0.029,0.012C27.894,26.645,27.982,27.505,27.966,27.691z"/>
<path fill="#A0D07F" d="M29.943,19.211c0.023-0.005,0.053-0.005,0.08-0.008V18.92c-0.051,0.003-0.102,0.006-0.143,0.016
	c-0.426,0.095-0.779,0.316-1.092,0.512c-0.576,0.359-1.029,0.643-1.75,0.137c0,0-0.547-0.453-0.744-0.743c0,0-0.137-0.756,0-1.002
	c0.045-0.085,0.168-0.075,0.168-0.075l0.014,0.008c0.518,0.303,1.227,0.717,1.873,0.701c0.316-0.007,0.566-0.156,0.635-0.379
	c0.031-0.102,0.064-0.364-0.295-0.623c-0.5-0.355-1.52-0.317-2.051-0.179c-0.285,0.075-0.484,0.213-0.594,0.411
	c-0.078,0.144-0.096,0.309-0.088,0.48c-0.213-0.465-0.396-0.91-0.508-1.292c-0.053-0.188-0.355-1.12-0.961-1.054
	c-0.26,0.029-0.379,0.17-0.434,0.284c-0.148,0.309,0.011,0.755,0.153,0.98c0.176,0.276,0.414,0.584,0.619,0.804
	c0.17,0.182,0.383,0.294,0.59,0.403c0.145,0.077,0.279,0.15,0.398,0.244c0.023,0.048,0.041,0.092,0.064,0.142
	c-0.363-0.157-0.814-0.219-1.117-0.258l-0.039-0.004c-0.342-0.045-1.507-0.145-2.083,0.438c-0.27,0.273-0.356,0.65-0.213,0.917
	c0.06,0.109,0.247,0.354,0.72,0.26c0.438-0.089,0.725-0.372,1.002-0.645c0.197-0.193,0.699-0.518,0.933-0.631
	c0.322,0.057,0.711,0.15,0.932,0.327c-0.295,0.082-0.506,0.26-0.59,0.66c-0.109,0.51,0.023,1.477,0.479,1.83
	c0.225,0.174,0.475,0.199,0.67,0.068c0.221-0.15,0.311-0.458,0.225-0.768c-0.145-0.518-0.674-0.867-1.094-1.069l-0.004,0.011
	c0-0.004,0-0.01,0-0.013c0.076-0.356,0.275-0.45,0.621-0.486c0.199,0.22,0.42,0.417,0.639,0.609c0.145,0.127,0.293,0.258,0.43,0.39
	c0.043,0.043,0.109,0.154,0.109,0.154c0.33,0.198,0.512,0.518,0.703,0.857c0.029,0.052,0.064,0.104,0.096,0.158
	c-0.402,0.28-0.613,1.323-0.367,1.855c0.131,0.285,0.381,0.396,0.682,0.305c0.23-0.07,0.391-0.221,0.467-0.438
	c0.184-0.525-0.176-1.307-0.379-1.604c-0.092-0.133-0.172-0.277-0.252-0.417c-0.053-0.093-0.105-0.186-0.162-0.276
	c0.539,0.224,1.117,0.27,1.738,0.264v-0.283c-0.941,0.01-1.732-0.086-2.438-0.777c-0.004-0.005-0.008-0.009-0.014-0.014
	c0.412,0.068,1.102-0.085,1.102-0.085c0.08-0.003,0.197,0.003,0.334,0.011c0.303,0.016,0.682,0.035,1.016-0.02v-0.29
	c-0.314,0.06-0.713,0.041-1.002,0.026c-0.076-0.004-0.127-0.004-0.191-0.006c0.035-0.022,0.072-0.045,0.109-0.066
	C29.246,19.495,29.564,19.297,29.943,19.211z M26.71,17.566c0.484-0.127,1.412-0.152,1.813,0.135
	c0.146,0.105,0.217,0.221,0.189,0.309c-0.025,0.084-0.152,0.175-0.369,0.18c-0.537,0.014-1.166-0.338-1.646-0.618
	C26.703,17.57,26.705,17.568,26.71,17.566z M25.548,18.059c-0.195-0.103-0.379-0.199-0.516-0.347
	c-0.193-0.207-0.42-0.499-0.588-0.762c-0.131-0.206-0.217-0.538-0.135-0.706c0.021-0.045,0.066-0.109,0.209-0.124
	c0.316-0.034,0.568,0.541,0.658,0.851c0.1,0.342,0.25,0.724,0.426,1.123C25.585,18.083,25.566,18.068,25.548,18.059z M23.949,19.201
	c-0.259,0.256-0.504,0.496-0.859,0.568c-0.117,0.023-0.329,0.04-0.413-0.115c-0.07-0.131-0.037-0.38,0.164-0.584
	c0.362-0.365,1.108-0.426,1.729-0.363C24.332,18.838,24.135,19.019,23.949,19.201z M25.05,18.767 M26.523,20.967
	c0.059,0.211-0.012,0.389-0.109,0.456c-0.092,0.062-0.211,0.04-0.338-0.058c-0.281-0.219-0.406-0.791-0.4-1.236
	C25.98,20.286,26.414,20.569,26.523,20.967z M28.464,21.781c0.229,0.331,0.475,0.984,0.346,1.35
	c-0.045,0.131-0.137,0.217-0.281,0.26c-0.164,0.051-0.271,0.003-0.342-0.152c-0.195-0.424-0.006-1.287,0.256-1.492
	C28.451,21.758,28.457,21.77,28.464,21.781z"/>
<path fill="#A0D07F" d="M30.023,9.076c-0.525,0.047-1.24,0.202-1.879,0.604c-0.041,0.016-0.105,0.07-0.105,0.07
	c-0.096,0.066-0.199,0.114-0.287,0.193c-0.285,0.252-0.502,0.758-0.381,1.154c-0.035-0.014-0.076-0.021-0.111-0.035
	c-0.906-0.352-0.809-1.324-0.715-2.266c0.02-0.201,0.037-0.393,0.047-0.574c0.023-0.5,0.074-1.539-0.928-1.756
	c-0.326-0.07-0.924,0.006-1.145,0.328c-0.07,0.101-0.158,0.314,0.033,0.612c0.215,0.335,0.707,0.357,0.971,0.369
	c0.313,0.015,0.518,0.034,0.783,0.126c0,0.102,0.008,0.195,0.002,0.307c-0.008,0.176-0.027,0.361-0.047,0.56
	c-0.037,0.381-0.076,0.798-0.039,1.19c-0.152-0.048-0.256-0.154-0.371-0.279c-0.061-0.065-0.123-0.133-0.199-0.196
	c-0.209-0.177-0.408-0.253-0.67-0.339c-0.713-0.24-1.368-0.215-1.948,0.075c-0.001,0.001-0.02,0.009-0.02,0.009
	c-0.463,0.234-1.429,0.72-1.084,1.484c0.109,0.242,0.269,0.313,0.384,0.33c0.435,0.066,0.949-0.47,1.575-1.177
	c0.189-0.214,0.426-0.481,0.5-0.511c0,0,0.322-0.004,0.502,0.057c0.246,0.082,0.406,0.143,0.578,0.287
	c0.061,0.053,0.115,0.111,0.172,0.174c0.035,0.037,0.076,0.072,0.113,0.109c-0.27,0.062-0.541,0.201-0.697,0.293
	c-0.588,0.345-1.487,1.21-1.394,2.064c0.035,0.325,0.153,0.506,0.348,0.539c0.398,0.067,0.847-0.588,0.958-0.82
	c0.139-0.291,0.18-0.598,0.219-0.895c0.033-0.254,0.064-0.494,0.152-0.716c0.365-0.188,0.746-0.297,0.871-0.135
	c0,0,0.354,0.691,0.76,0.913c-0.551,0.234-0.988,0.927-1.287,1.404l-0.066,0.107c-0.354,0.557-0.818,1.695-0.313,2.428
	c0.207,0.299,0.404,0.326,0.533,0.298c0.205-0.046,0.367-0.274,0.42-0.595c0.096-0.583-0.154-1.426-0.365-2.036
	c0.016-0.026,0.033-0.052,0.033-0.052c0.287-0.461,0.771-1.234,1.293-1.343c0,0,0.33,0.005,0.508,0.054
	c0.037,0.012,0.076,0.023,0.115,0.033c0.432,0.113,0.881,0.201,1.348,0.232c-0.219,0.368-0.242,0.957-0.211,1.288
	c0,0-0.352,0.362-0.584,0.491c-0.096,0.053-0.205,0.113-0.318,0.193c-0.459,0.326-0.76,0.777-0.93,1.1
	c-0.184,0.342-0.408,1.045-0.092,1.512c0.146,0.213,0.391,0.342,0.654,0.346c0.262,0.004,0.506-0.117,0.654-0.323
	c0.326-0.456,0.205-1.053,0.096-1.579c-0.059-0.29-0.113-0.564-0.1-0.797c0,0,0.078-0.152,0.174-0.203
	c0.188-0.104,0.367-0.205,0.51-0.41c0.174,0.785,0.502,1.382,0.979,1.785v-0.382c-0.225-0.239-0.402-0.54-0.537-0.896
	c0.111,0.022,0.211,0.051,0.334,0.068c0.066,0.01,0.135,0.021,0.203,0.032v-0.287c-0.055-0.008-0.109-0.019-0.164-0.025
	c-0.174-0.025-0.334-0.053-0.471-0.09c-0.041-0.145-0.084-0.286-0.111-0.445c-0.068-0.376-0.008-1.18,0.275-1.368
	c0.133,0.003,0.268,0.011,0.4,0.007c0.023-0.001,0.045-0.006,0.07-0.008v-0.283c-0.027,0.001-0.053,0.006-0.078,0.008
	c-0.643,0.02-1.287-0.051-1.885-0.19l0.002-0.019c-0.225-0.01-0.365-0.093-0.42-0.248c-0.09-0.248,0.051-0.659,0.297-0.879
	c0.107-0.095,0.232-0.158,0.35-0.232c0.141-0.019,0.303,0.08,0.516,0.23c0.129,0.09,0.25,0.175,0.371,0.214
	c0.264,0.083,0.561,0.093,0.848,0.048V10.13c-0.258,0.046-0.531,0.038-0.762-0.034c-0.08-0.025-0.184-0.098-0.293-0.176
	c-0.1-0.07-0.217-0.143-0.338-0.201c0.492-0.227,0.994-0.32,1.393-0.358V9.076z M25.541,7.494c-0.217-0.011-0.613-0.028-0.75-0.24
	c-0.117-0.184-0.059-0.27-0.039-0.299c0.125-0.182,0.582-0.27,0.854-0.211c0.453,0.099,0.631,0.412,0.686,0.861
	C26.037,7.533,25.814,7.506,25.541,7.494z M23.677,9.678c-0.375,0.424-1.003,1.133-1.319,1.085
	c-0.025-0.003-0.101-0.015-0.168-0.166c-0.205-0.454,0.337-0.804,0.953-1.114l0.018-0.01c0.276-0.138,0.575-0.201,0.892-0.201
	C23.953,9.368,23.833,9.502,23.677,9.678z M24.908,11.127c-0.039,0.287-0.074,0.559-0.193,0.81
	c-0.141,0.296-0.504,0.688-0.655,0.663c-0.038-0.006-0.091-0.086-0.113-0.29c-0.065-0.601,0.516-1.271,1.042-1.649
	C24.953,10.815,24.927,10.973,24.908,11.127z M25.98,14.822c-0.037,0.216-0.131,0.35-0.203,0.365
	c-0.059,0.014-0.148-0.055-0.236-0.183c-0.355-0.513-0.1-1.319,0.166-1.843C25.855,13.618,26.058,14.35,25.98,14.822z
	 M28.132,16.199c-0.094,0.133-0.246,0.207-0.418,0.205s-0.33-0.086-0.424-0.223c-0.201-0.295-0.098-0.836,0.107-1.219
	c0.133-0.25,0.371-0.574,0.688-0.851c0.006,0.23,0.045,0.473,0.1,0.729C28.285,15.334,28.39,15.844,28.132,16.199z"/>
<path fill="#A0D07F" d="M1.671,7.982c0.189-0.008,0.33-0.107,0.396-0.279c0.15-0.391-0.126-1.11-0.33-1.313
	C1.425,6.086,1.03,6.059,0.649,6.031c-0.188-0.013-0.363-0.03-0.528-0.074C0.08,5.899,0.04,5.844,0,5.787v0.488
	c0.215,0.299,0.441,0.611,0.69,0.948C0.696,7.232,1.277,8,1.671,7.982z M0.63,6.314c0.346,0.024,0.672,0.047,0.908,0.279
	c0.125,0.123,0.369,0.735,0.265,1.008C1.777,7.668,1.735,7.695,1.658,7.699c-0.147,0.006-0.544-0.381-0.74-0.645
	C0.721,6.786,0.536,6.534,0.359,6.29C0.449,6.3,0.54,6.309,0.63,6.314z"/>
<path fill="#A0D07F" d="M0.875,5.067c0.128-0.06,0.332-0.221,0.266-0.624C1.053,3.91,0.485,3.42,0,3.156v0.325
	c0.387,0.239,0.797,0.62,0.861,1.009c0.041,0.252-0.069,0.304-0.106,0.32C0.578,4.894,0.237,4.811,0,4.653v0.319
	C0.286,5.114,0.632,5.182,0.875,5.067z"/>
<path fill="#A0D07F" d="M0.471,25.229c0.259-0.073,0.436-0.234,0.461-0.419c0.013-0.092-0.003-0.269-0.25-0.42
	C0.521,24.29,0.263,24.247,0,24.232v0.283c0.218,0.014,0.422,0.047,0.533,0.115c0.079,0.049,0.123,0.101,0.118,0.14
	c-0.009,0.057-0.101,0.14-0.257,0.185C0.266,24.99,0.134,24.973,0,24.938v0.289C0.154,25.26,0.311,25.273,0.471,25.229z"/>
<path fill="#A0D07F" d="M0.608,26.308c0.133,0.173,0.236,0.428,0.346,0.698c0.21,0.516,0.448,1.101,0.985,1.285
	c0.363,0.125,0.539,0.016,0.623-0.099c0.198-0.271,0.024-0.796-0.177-1.071c-0.494-0.672-1.278-1.174-2.044-1.309
	C0.233,25.794,0.112,25.793,0,25.779v0.284c0.096,0.013,0.2,0.013,0.292,0.028C0.436,26.117,0.608,26.308,0.608,26.308z
	 M2.157,27.289c0.171,0.233,0.264,0.617,0.177,0.734c-0.054,0.074-0.229,0.024-0.303,0c-0.415-0.144-0.618-0.643-0.814-1.125
	c-0.088-0.216-0.178-0.412-0.279-0.588C1.406,26.529,1.851,26.872,2.157,27.289z"/>
<path fill="#A0D07F" d="M0.544,28.99c0.241-0.145,0.343-0.471,0.261-0.829C0.686,27.65,0.343,27.259,0,26.979v0.387
	c0.236,0.229,0.446,0.512,0.528,0.859c0.054,0.233,0.001,0.443-0.131,0.523C0.293,28.811,0.149,28.77,0,28.662v0.334
	C0.192,29.082,0.386,29.086,0.544,28.99z"/>
<path fill="#86A78C" d="M0.196,21.188c0.009-0.001,0.019-0.001,0.029-0.001l-0.011-0.04L0.196,21.188z"/>
<path fill="#A0D07F" d="M0.735,19.548c0.061-0.161,0.039-0.313-0.059-0.427C0.526,18.949,0.228,18.904,0,18.92v0.283
	c0.17-0.016,0.389,0.02,0.462,0.104c0.013,0.015,0.043,0.048,0.008,0.141C0.41,19.607,0.226,19.69,0,19.733v0.29
	C0.337,19.969,0.626,19.838,0.735,19.548z"/>
<path fill="#86A78C" d="M0.192,21.194l0.004-0.006c-0.006,0-0.011,0-0.016,0C0.183,21.189,0.192,21.194,0.192,21.194z"/>
<path fill="#A0D07F" d="M0.286,21.215c0.113,0.028,0.37,0.103,0.441,0.127c0.376,0.132,0.678,0.341,1.021,0.698
	c-0.44,0.54-0.457,1.433-0.244,2.01c0.1,0.271,0.323,0.448,0.585,0.463c0.253,0.015,0.478-0.128,0.604-0.38
	c0.353-0.709-0.229-1.742-0.677-2.227c-0.333-0.359-0.631-0.582-0.976-0.738c0.406-0.011,0.815-0.018,1.224,0.002
	c0.26,0.051,0.434,0.348,0.601,0.642c0.099,0.175,0.192,0.341,0.308,0.462c0.25,0.262,0.767,0.475,1.13,0.465
	c0.283-0.008,0.53-0.121,0.66-0.303c0.072-0.102,0.144-0.273,0.066-0.518c-0.132-0.425-0.727-0.66-1.068-0.764
	c-0.548-0.167-1.106-0.239-1.666-0.267c-0.013-0.003-0.023-0.011-0.037-0.013l-0.001,0.012c-0.156-0.007-0.313-0.007-0.469-0.008
	c0.373-0.155,0.711-0.433,0.994-0.694c0.156-0.145,0.611-0.694,0.617-1.089c0.003-0.15-0.06-0.242-0.111-0.294
	c-0.326-0.319-0.895,0.075-1.15,0.328c-0.293,0.288-0.457,1.044-0.439,1.479c-0.035,0.015-0.069,0.035-0.104,0.047
	c-0.251,0.088-0.515,0.129-0.792,0.172c-0.125,0.02-0.252,0.047-0.378,0.072l-0.122,0.003C0.198,20.906,0.1,20.907,0,20.908v0.283
	c0.06,0,0.12-0.002,0.181-0.003 M2.337,19.332c0.194-0.193,0.61-0.467,0.753-0.328c0.011,0.012,0.027,0.034,0.027,0.088
	c-0.005,0.266-0.372,0.74-0.527,0.885c-0.183,0.169-0.39,0.343-0.607,0.482C2.003,20.066,2.15,19.515,2.337,19.332z M2.439,24.008
	c-0.074,0.148-0.196,0.229-0.334,0.223c-0.146-0.009-0.274-0.115-0.334-0.279c-0.184-0.495-0.159-1.242,0.173-1.689
	C2.319,22.742,2.681,23.521,2.439,24.008z M4.731,22.271c-0.076,0.106-0.247,0.178-0.438,0.184
	c-0.278,0.008-0.724-0.176-0.916-0.377c-0.092-0.096-0.177-0.246-0.267-0.406c-0.087-0.153-0.182-0.312-0.294-0.449
	c0.359,0.04,0.715,0.098,1.062,0.203c0.483,0.145,0.813,0.361,0.88,0.576C4.793,22.11,4.784,22.198,4.731,22.271z"/>
<path fill="#A0D07F" d="M0.96,15.262c0.276-0.229,0.365-0.611,0.217-0.931C0.967,13.879,0.474,13.768,0,13.695v0.287
	c0.398,0.063,0.774,0.156,0.92,0.469c0.109,0.235,0.004,0.473-0.141,0.592c-0.069,0.058-0.252,0.174-0.467,0.02
	c-0.114-0.08-0.215-0.18-0.313-0.284v0.382c0.051,0.043,0.094,0.096,0.147,0.133C0.404,15.477,0.715,15.465,0.96,15.262z"/>
<path fill="#A0D07F" d="M1.092,9.42C0.996,9.184,0.67,9.035,0.278,9.051C0.2,9.055,0.094,9.068,0,9.076V9.36
	c0.099-0.009,0.208-0.022,0.29-0.026c0.295-0.012,0.498,0.09,0.538,0.191c0.031,0.078-0.031,0.195-0.174,0.318
	C0.493,9.985,0.255,10.084,0,10.13v0.284c0.323-0.049,0.629-0.169,0.842-0.357C1.167,9.773,1.138,9.535,1.092,9.42z"/>
<path fill="#A0D07F" d="M5.691,11.641c-0.062-0.361-0.689-0.645-1.011-0.679c-0.88-0.093-1.88,0.067-2.762,0.209l-0.111,0.018
	c-0.216,0.034-0.43,0.078-0.636,0.12c-0.271,0.056-0.535,0.102-0.8,0.136c0.142-0.259,0.411-0.53,0.735-0.777
	c0.639,0.397,1.392,0.165,1.982-0.091l0.079-0.033c0.285-0.119,0.816-0.34,0.932-0.678c0.04-0.119,0.026-0.244-0.04-0.359
	c-0.076-0.132-0.192-0.219-0.345-0.26c-0.567-0.15-1.535,0.415-2,0.687c-0.053,0.031-0.1,0.058-0.133,0.077
	c-0.137,0.076-1.288,0.742-1.55,1.469C0.021,11.479,0.011,11.481,0,11.482v0.283c0.098-0.004,0.191-0.018,0.286-0.028
	c-0.054,0.489,0.228,1.229,0.677,1.716c0.321,0.35,0.666,0.511,0.998,0.467c0.21-0.027,0.383-0.17,0.475-0.391
	c0.109-0.266,0.077-0.582-0.08-0.785c-0.221-0.287-0.53-0.291-0.803-0.294l-0.082-0.001c-0.31-0.007-0.45-0.035-0.727-0.199
	c0,0-0.217-0.36-0.18-0.541c0.226-0.035,0.446-0.078,0.664-0.123c0.203-0.041,0.414-0.084,0.624-0.117l0.11-0.018
	c0.349-0.057,0.715-0.111,1.084-0.155c0.48,0.712,1.377,1.257,2.298,0.825C5.672,11.969,5.714,11.775,5.691,11.641z M1.72,10.257
	c0.037-0.021,0.085-0.048,0.14-0.079C2.223,9.965,3.188,9.4,3.644,9.521c0.079,0.021,0.134,0.062,0.171,0.126
	c0.026,0.046,0.031,0.086,0.018,0.128c-0.074,0.217-0.563,0.42-0.771,0.507l-0.084,0.035c-0.517,0.224-1.098,0.389-1.598,0.156
	C1.493,10.396,1.608,10.319,1.72,10.257z M1.465,12.732l0.085,0.002c0.275,0.003,0.451,0.014,0.581,0.183
	c0.095,0.122,0.112,0.335,0.042,0.505c-0.03,0.072-0.103,0.198-0.248,0.217c-0.233,0.031-0.501-0.104-0.753-0.377
	c-0.183-0.197-0.33-0.447-0.441-0.698C0.961,12.683,1.146,12.726,1.465,12.732z M5.224,11.865C4.507,12.2,3.797,11.811,3.367,11.26
	c0.441-0.042,0.879-0.059,1.284-0.016c0.269,0.028,0.731,0.275,0.76,0.443C5.425,11.763,5.285,11.836,5.224,11.865z"/>
<path fill="#86A78C" d="M8.787,5.724c0.029-0.007,0.058-0.003,0.088-0.015L8.773,5.443C8.763,5.447,8.752,5.439,8.742,5.442
	C8.694,5.488,8.646,5.534,8.61,5.592C8.544,5.695,8.512,5.8,8.495,5.904C8.591,5.85,8.687,5.799,8.79,5.728L8.787,5.724z"/>
<path fill="#A0D07F" d="M10.93,6.079c-0.389-0.231-1.471,0.176-1.723,0.405c0,0-0.24-0.058-0.346-0.195
	C8.729,6.117,8.726,5.938,8.85,5.744c0.072-0.113,0.194-0.202,0.324-0.295c0.114-0.084,0.234-0.17,0.333-0.285
	C9.743,4.891,9.963,4.597,10.16,4.29c0.477-0.741,0.748-1.424,0.827-2.086c0-0.001,0.007-0.062,0.007-0.062
	C11.058,1.622,11.17,0.646,10.919,0h-0.306c0.162,0.318,0.191,0.808,0.174,1.258c-0.06-0.064-0.115-0.125-0.206-0.217
	C10.331,0.785,9.87,0.311,9.731,0H9.431c0.1,0.347,0.49,0.771,0.948,1.239c0.145,0.148,0.326,0.333,0.351,0.386
	c0,0-0.001,0.36-0.016,0.484L10.706,2.17c-0.07,0.588-0.312,1.201-0.725,1.865c-0.051-0.283-0.162-0.609-0.289-0.93L9.675,3.061
	C9.331,2.185,8.91,1.695,8.421,1.604C8.148,1.553,7.823,1.642,7.731,1.912c-0.076,0.23,0.142,0.501,0.317,0.719
	c0.032,0.039,0.059,0.072,0.079,0.1c0.212,0.29,0.858,0.945,1.366,0.654c0.094,0.252,0.154,0.447,0.189,0.597
	C9.354,3.742,8.889,3.57,8.556,3.572C8.471,3.573,8.396,3.57,8.316,3.568l0.001-0.018C8.266,3.547,8.152,3.496,7.964,3.199
	C7.936,3.156,7.913,3.115,7.893,3.074c-0.05-0.094-0.101-0.189-0.209-0.29C7.418,2.541,7.009,2.229,6.521,2.333
	c-0.4,0.084-0.502,0.279-0.518,0.429c-0.031,0.303,0.301,0.636,0.64,0.783c0.677,0.294,1.292,0.314,1.915,0.311
	C8.919,3.854,9.522,4.119,9.72,4.406C9.581,4.602,9.446,4.8,9.291,4.979C9.215,5.068,9.114,5.142,9.007,5.219
	C8.914,5.285,8.825,5.359,8.742,5.442c-0.141,0.036-0.27-0.034-0.46-0.169C8.187,5.205,8.089,5.135,7.981,5.091
	c-0.395-0.163-0.77-0.222-1.114-0.176C6.66,4.943,6.375,5.005,6.291,5.227c-0.063,0.162,0.007,0.355,0.21,0.592
	C6.834,6.204,7.447,6.5,8.495,5.904C8.463,6.098,8.504,6.287,8.636,6.461c0.383,0.502,1.396,0.774,1.902,0.618
	c0.189-0.058,0.577-0.304,0.614-0.606C11.163,6.383,11.148,6.211,10.93,6.079z M9.377,3.131C9.08,3.342,8.552,2.829,8.356,2.563
	C8.332,2.53,8.303,2.494,8.27,2.452C8.195,2.361,7.973,2.085,8,2.002c0.041-0.121,0.245-0.143,0.368-0.119
	C8.851,1.972,9.377,3.131,9.377,3.131z M6.755,3.285c-0.256-0.111-0.484-0.352-0.47-0.494C6.296,2.682,6.493,2.628,6.578,2.61
	c0.275-0.058,0.565,0.063,0.914,0.383C7.564,3.06,7.599,3.125,7.642,3.206C7.664,3.25,7.69,3.299,7.724,3.352
	c0.04,0.063,0.089,0.129,0.142,0.195C7.474,3.515,7.121,3.443,6.755,3.285z M6.716,5.633c-0.183-0.211-0.165-0.292-0.16-0.307
	c0.006-0.014,0.049-0.09,0.349-0.13c0.295-0.04,0.621,0.013,0.97,0.156c0.076,0.032,0.158,0.09,0.244,0.151
	c0.07,0.051,0.149,0.102,0.232,0.146C7.641,6.051,7.086,6.063,6.716,5.633z M10.455,6.809c-0.224,0.068-0.644,0.005-1.016-0.143
	c0.266-0.195,1.13-0.472,1.345-0.344c0.094,0.057,0.089,0.101,0.086,0.117C10.854,6.575,10.604,6.763,10.455,6.809z"/>
<path fill="#A0D07F" d="M5.391,2.251l0.004,0.001C5.396,2.25,5.396,2.248,5.396,2.247c0.027-0.021,0.057-0.042,0.082-0.062
	l0.162-0.116c0.446-0.321,0.954-0.685,1.108-1.268c0.099-0.38-0.074-0.61-0.271-0.699C6.197-0.025,5.827,0.094,5.637,0.373
	C5.458,0.633,5.42,0.92,5.383,1.196C5.376,1.254,5.368,1.313,5.359,1.369C5.334,1.53,5.283,1.675,5.23,1.828
	C5.203,1.906,5.179,1.99,5.154,2.074c-0.213,0.16-0.465,0.367-0.673,0.613c0-0.068,0.008-0.135-0.006-0.205
	C4.436,2.285,4.37,2.1,4.308,1.922C4.21,1.646,4.118,1.385,4.117,1.095C4.116,0.666,4.237,0.313,4.428,0H4.103
	c-0.166,0.316-0.27,0.672-0.269,1.096c0.001,0.338,0.104,0.634,0.205,0.92c0.063,0.178,0.122,0.346,0.158,0.523
	C4.233,2.721,4.194,2.906,4.149,3.1C4.044,2.919,3.902,2.75,3.661,2.626c-0.228-0.118-1.186-0.47-1.668-0.252
	C1.858,2.435,1.769,2.537,1.735,2.671C1.694,2.838,1.718,2.996,1.808,3.142c0.229,0.372,0.805,0.526,0.976,0.565
	c0.411,0.094,0.719,0,1.045-0.1c0.065-0.02,0.137-0.038,0.206-0.057C4.063,3.68,4.146,3.992,4.146,3.992
	c0.183,0.496,0.767,0.915,1.249,0.976C5.77,5.016,6.509,4.904,6.602,4.422C6.637,4.244,6.588,4.088,6.46,3.969
	C6.167,3.695,5.55,3.707,5.3,3.773c-0.113,0.03-0.233,0.103-0.352,0.173C4.834,4.016,4.658,4.12,4.591,4.102
	c0,0-0.201-0.17-0.227-0.299C4.351,3.738,4.357,3.674,4.359,3.609h0.004C4.366,3.044,4.99,2.547,5.391,2.251z M5.639,1.412
	c0.01-0.06,0.018-0.12,0.025-0.179c0.033-0.255,0.065-0.495,0.207-0.7c0.127-0.188,0.353-0.234,0.49-0.173
	c0.12,0.056,0.161,0.187,0.112,0.369C6.353,1.191,5.942,1.502,5.532,1.797C5.573,1.674,5.617,1.553,5.639,1.412z M3.746,3.336
	c-0.302,0.092-0.563,0.172-0.9,0.095C2.563,3.367,2.186,3.213,2.05,2.993C2.001,2.914,1.987,2.83,2.011,2.74
	c0.008-0.033,0.027-0.075,0.099-0.107C2.42,2.492,3.218,2.715,3.531,2.878c0.19,0.099,0.325,0.228,0.414,0.403
	C3.879,3.299,3.809,3.317,3.746,3.336z M5.095,4.189c0.1-0.061,0.204-0.123,0.279-0.143C5.61,3.984,6.09,4.01,6.267,4.176
	C6.322,4.228,6.34,4.287,6.323,4.367C6.273,4.629,5.717,4.723,5.43,4.687C5.216,4.66,4.962,4.531,4.752,4.358
	C4.865,4.322,4.981,4.258,5.095,4.189z"/>
<path fill="#A0D07F" d="M24.216,0.721c0.16,0.123,0.313,0.239,0.463,0.343c0.412,0.284,1.268,0.875,1.98,0.139
	C26.894,0.959,27.126,0.383,26.986,0h-0.33c0.031,0.025,0.055,0.054,0.066,0.08c0.105,0.244-0.09,0.742-0.266,0.925
	c-0.32,0.331-0.678,0.324-1.084,0.137c0.195-0.177,0.318-0.349,0.48-0.585c0.023-0.035,0.045-0.068,0.068-0.104
	C26.019,0.304,26.156,0.098,26.302,0h-0.4c-0.082,0.1-0.154,0.203-0.217,0.298c-0.023,0.034-0.045,0.065-0.063,0.094
	c-0.18,0.261-0.299,0.427-0.521,0.606c-0.086-0.051-0.172-0.106-0.262-0.168c-0.145-0.1-0.293-0.213-0.449-0.334
	C24.173,0.328,23.938,0.153,23.694,0h-0.6C23.473,0.15,23.848,0.438,24.216,0.721z"/>
<path fill="#A0D07F" d="M22.641,1.485c-0.005-0.114-0.014-0.229-0.034-0.345c-0.064-0.375-0.38-0.826-0.78-0.932
	c0.03-0.023,0.059-0.053,0.089-0.076C21.992,0.074,22.069,0.037,22.147,0H21.86h-0.228h-0.064c-0.003,0.021-0.004,0.042-0.008,0.062
	c-0.088,0.072-0.17,0.162-0.256,0.24c-0.04,0.027-0.079,0.07-0.118,0.111c-0.313,0.299-0.616,0.624-0.882,0.993
	c-0.203-0.39-0.712-0.727-1.005-0.869l0.017-0.024C19.192,0.428,19.136,0.23,19.11,0h-0.279c0.014,0.146,0.042,0.279,0.088,0.4
	c-0.801-0.265-1.521-0.284-2.134-0.027c-0.291,0.121-0.445,0.392-0.402,0.707c0.05,0.354,0.327,0.632,0.677,0.674
	c0.551,0.068,0.933-0.387,1.269-0.787c0.113-0.135,0.221-0.258,0.325-0.354c0.145,0.041,0.286,0.08,0.437,0.139
	c0.354,0.142,1.007,0.615,1.018,0.957c-0.073,0.112-0.15,0.222-0.218,0.338c-0.061,0.104-0.104,0.213-0.157,0.32
	c-0.13-0.104-0.305-0.184-0.507-0.246c-0.033-0.014-0.065-0.027-0.101-0.031c-0.376-0.098-0.813-0.129-1.206-0.055
	c-0.467,0.09-0.786,0.297-0.924,0.602c-0.088,0.193-0.059,0.416,0.082,0.609c0.168,0.234,0.453,0.373,0.709,0.348
	c0.232-0.025,0.441-0.167,0.59-0.4c0.018-0.027,0.039-0.064,0.063-0.106c0.116-0.198,0.388-0.661,0.607-0.714
	c0.036-0.01,0.064-0.004,0.097,0.015c0.191,0.059,0.361,0.132,0.467,0.23c-0.09,0.21-0.17,0.42-0.246,0.626
	c-0.071,0.195-0.146,0.398-0.229,0.595c0-0.001-0.047,0.112-0.047,0.112c-0.136,0.322-0.281,0.66-0.437,0.994
	c-0.858,0.033-1.794,0.506-1.913,1.516c-0.044,0.359,0.098,0.496,0.226,0.548c0.339,0.14,0.91-0.245,1.108-0.5
	c0.542-0.696,0.933-1.627,1.276-2.448l0.048-0.112c0.085-0.202,0.16-0.407,0.234-0.604c0.096-0.26,0.195-0.506,0.306-0.75
	c0.146,0.258,0.235,0.635,0.273,1.043c-0.67,0.335-0.875,1.088-0.971,1.724c-0.003,0.024-0.008,0.054-0.013,0.087
	c-0.05,0.305-0.142,0.871,0.084,1.147c0.08,0.097,0.193,0.151,0.326,0.155c0.152,0.006,0.287-0.047,0.402-0.156
	c0.428-0.403,0.458-1.523,0.473-2.063c0.002-0.061,0.003-0.113,0.005-0.152c0.007-0.154,0.049-1.486-0.43-2.092
	c0.018-0.033,0.029-0.066,0.049-0.1c0.321-0.556,0.721-1.066,1.154-1.5l0.016,0.011c0.126-0.185,0.271-0.261,0.432-0.226
	c0.258,0.057,0.534,0.391,0.59,0.717c0.02,0.111,0.029,0.224,0.033,0.335c-0.013,0.181-0.2,0.279-0.487,0.401
	c-0.145,0.061-0.28,0.119-0.378,0.201c-0.447,0.384-0.717,1.07-0.628,1.598c0.069,0.426,0.286,0.527,0.409,0.549
	c0.251,0.045,0.55-0.154,0.742-0.496c0.263-0.467,0.661-1.336,0.625-2.264c0-0.011,0.007-0.018,0.006-0.029L22.641,1.485z
	 M18.11,0.784c-0.304,0.362-0.618,0.737-1.017,0.688c-0.259-0.031-0.404-0.246-0.43-0.432c-0.012-0.089-0.015-0.305,0.229-0.406
	c0.421-0.176,0.903-0.202,1.434-0.101C18.256,0.611,18.185,0.697,18.11,0.784z M18.195,2.943c-0.023,0.04-0.044,0.074-0.059,0.098
	c-0.071,0.113-0.194,0.251-0.38,0.27c-0.153,0.017-0.343-0.08-0.45-0.229c-0.046-0.064-0.114-0.192-0.054-0.327
	c0.098-0.213,0.353-0.369,0.719-0.439c0.223-0.043,0.463-0.04,0.696-0.018C18.492,2.465,18.335,2.706,18.195,2.943z M17.849,6.335
	c-0.166,0.214-0.62,0.477-0.778,0.411c-0.069-0.028-0.06-0.186-0.052-0.252c0.094-0.786,0.8-1.184,1.495-1.258
	C18.316,5.633,18.099,6.014,17.849,6.335z M20.233,4.365c-0.002,0.042-0.003,0.096-0.005,0.159c-0.012,0.421-0.042,1.54-0.384,1.864
	c-0.06,0.056-0.123,0.081-0.198,0.078c-0.053-0.002-0.089-0.018-0.116-0.053c-0.146-0.176-0.061-0.698-0.024-0.921
	c0.005-0.035,0.011-0.065,0.014-0.091c0.084-0.558,0.25-1.139,0.712-1.44C20.235,4.1,20.239,4.238,20.233,4.365z M21.772,3.638
	c-0.146,0.257-0.339,0.376-0.446,0.356c-0.083-0.016-0.149-0.13-0.18-0.315c-0.071-0.424,0.168-1.022,0.533-1.336
	c0.063-0.054,0.181-0.104,0.304-0.156c0.113-0.048,0.239-0.108,0.354-0.183C22.255,2.678,21.973,3.281,21.772,3.638z"/>
<path fill="#A0D07F" d="M15.883,0.563c-0.179-0.178-0.548-0.143-0.733-0.049c-0.444,0.223-0.688,0.615-0.833,0.891
	c-0.028,0.055-0.055,0.107-0.08,0.158c-0.063,0.128-0.122,0.248-0.207,0.364c-0.045,0.062-0.086,0.126-0.126,0.188
	c-0.056,0.089-0.108,0.172-0.172,0.244c-0.011,0.012-0.021,0.021-0.033,0.032c0.08-0.221,0.146-0.448,0.162-0.679
	c0.028-0.41-0.023-0.814-0.086-1.225c0.001-0.002,0.004-0.014,0.004-0.014l-0.006-0.002c-0.001-0.011-0.003-0.021-0.004-0.032
	l0.01-0.004l0.002,0.001V0.436c0,0,0.009-0.035,0.005-0.047C13.794,0.29,13.823,0.078,13.836,0h-0.142h-0.03h-0.115h-0.142h-0.039
	c0.006,0.021,0.013,0.042,0.019,0.064c0.021,0.072,0.048,0.146,0.069,0.222c0.008,0.043,0.016,0.085,0.022,0.128
	c0.069,0.434,0.128,0.859,0.099,1.279c-0.023,0.348-0.18,0.719-0.317,1.045l-0.008,0.017c-0.013,0.032-0.037,0.061-0.053,0.092
	c-0.011-0.273-0.109-0.507-0.247-0.719c0.062-0.327,0.059-0.694-0.038-1.062c-0.082-0.307-0.215-0.805-0.565-0.891
	c-0.144-0.035-0.271,0-0.359,0.096c-0.187,0.205-0.131,0.605-0.074,0.768c0.128,0.364,0.351,0.65,0.547,0.902
	c0.353,0.449,0.628,0.81,0.332,1.467c-0.206,0.217-0.435,0.408-0.629,0.566C12.137,4,12.085,4.037,12.027,4.082
	c-0.371,0.277-1.063,0.793-1.06,1.246c0,0.103,0.035,0.25,0.202,0.373c0.101,0.073,0.219,0.102,0.342,0.081
	c0.3-0.05,0.582-0.376,0.766-0.64c0.266-0.382,0.522-0.84,0.526-1.348c0.077-0.071,0.151-0.143,0.224-0.222l0.005,0.003
	c0.003-0.006,0.004-0.011,0.007-0.016c0.061-0.066,0.118-0.137,0.174-0.207c-0.116,0.483-0.222,0.975-0.238,1.48
	c-0.031,0.965,0.203,1.516,0.698,1.637c0.156,0.039,0.296,0.004,0.394-0.101c0.161-0.173,0.158-0.487,0.087-0.706
	c-0.135-0.424-0.372-1.015-0.827-1.373c0.051-0.359,0.121-0.717,0.208-1.069c0.069,0.314,0.185,0.618,0.346,0.853
	c0.229,0.336,0.692,0.891,1.209,0.83c0.25-0.029,0.329-0.171,0.354-0.252c0.051-0.166-0.032-0.374-0.21-0.527
	c-0.392-0.342-0.858-0.52-1.286-0.516c-0.116-0.269-0.181-0.578-0.191-0.871c0.021-0.023,0.039-0.045,0.07-0.073
	c0.034-0.032,0.075-0.069,0.117-0.117c0.079-0.089,0.142-0.187,0.2-0.282c0.038-0.061,0.074-0.117,0.113-0.17
	c0.054-0.072,0.135-0.188,0.135-0.188c0.321-0.117,0.653-0.271,0.961-0.442l0.053-0.029c0.175-0.096,0.414-0.227,0.514-0.428
	C16.037,0.77,15.947,0.627,15.883,0.563z M12.686,1.767c-0.191-0.247-0.391-0.501-0.504-0.821c-0.051-0.148-0.054-0.404,0.018-0.482
	c0.008-0.01,0.023-0.025,0.082-0.012c0.188,0.046,0.306,0.49,0.356,0.68c0.06,0.229,0.075,0.449,0.068,0.662
	C12.699,1.784,12.693,1.775,12.686,1.767z M12.045,4.98c-0.21,0.301-0.427,0.496-0.58,0.521c-0.049,0.009-0.088,0-0.126-0.029
	c-0.078-0.057-0.088-0.107-0.088-0.146c-0.002-0.311,0.687-0.825,0.945-1.019c0.064-0.049,0.115-0.086,0.149-0.115
	c0.047-0.038,0.101-0.084,0.151-0.126C12.423,4.398,12.234,4.709,12.045,4.98z M15.048,4.338c0.105,0.092,0.137,0.19,0.124,0.23
	c-0.012,0.039-0.092,0.053-0.116,0.055c-0.266,0.031-0.617-0.234-0.942-0.709c-0.005-0.008-0.008-0.018-0.013-0.025
	C14.417,3.927,14.755,4.084,15.048,4.338z M13.884,5.75c0.052,0.162,0.04,0.356-0.024,0.427c-0.012,0.012-0.036,0.039-0.119,0.019
	c-0.347-0.085-0.509-0.539-0.482-1.352c0.003-0.068,0.02-0.137,0.025-0.204C13.592,4.957,13.774,5.409,13.884,5.75z M15.665,0.882
	c-0.061,0.121-0.255,0.228-0.396,0.306l-0.055,0.03c-0.2,0.112-0.415,0.198-0.626,0.288c0.198-0.367,0.41-0.6,0.688-0.738
	c0.122-0.063,0.347-0.064,0.406-0.004C15.707,0.788,15.678,0.854,15.665,0.882z"/>
<path fill="none" d="M19.473,26.568c-0.155,0.008-0.26,0.047-0.28,0.105c-0.023,0.068,0.039,0.221,0.204,0.365
	c0.359,0.314,1.088,0.527,1.554,0.643C20.646,27.18,20.095,26.537,19.473,26.568z"/>
<path fill="none" d="M6.928,26.707c0.063-0.189,0.023-0.373-0.052-0.428c-0.063-0.047-0.168,0.018-0.226,0.059
	c-0.433,0.318-0.476,0.891-0.423,1.465C6.527,27.492,6.778,27.152,6.928,26.707z"/>
<path fill="none" d="M23.372,27.85c-0.104-0.436-0.32-0.998-0.77-1.213c-0.184-0.088-0.279-0.086-0.306-0.057
	c-0.102,0.115,0.04,0.631,0.218,0.906c0.15,0.232,0.362,0.406,0.587,0.59c0.125,0.104,0.249,0.213,0.367,0.33
	C23.457,28.227,23.418,28.041,23.372,27.85z"/>
<path fill="none" d="M8.836,27.031c0.326,0.096,0.632,0.088,0.799-0.021c0.052-0.035,0.137-0.102,0.126-0.168
	c-0.015-0.092-0.169-0.205-0.345-0.254c-0.405-0.109-0.82-0.066-1.21,0.066C8.322,26.805,8.556,26.951,8.836,27.031z"/>
<path fill="none" d="M8.104,28.955c0.593-0.117,0.756-0.221,0.801-0.271c0.122-0.141,0.085-0.207,0.071-0.229
	c-0.105-0.184-0.614-0.283-0.848-0.236c-0.463,0.092-0.818,0.406-1.153,0.742c0.01,0,0.019,0.002,0.028,0.002
	C7.317,28.998,7.727,29.031,8.104,28.955z"/>
<path fill="none" d="M15.82,28.721c0.122-0.068,0.19-0.189,0.181-0.314c-0.011-0.115-0.086-0.209-0.209-0.252
	c-0.408-0.148-0.985,0.246-1.333,0.623C14.855,29.002,15.447,28.936,15.82,28.721z"/>
<path fill="none" d="M14.835,26.637c0.008-0.162-0.055-0.199-0.075-0.211c-0.133-0.078-0.442,0.006-0.637,0.129
	c-0.286,0.182-0.471,0.459-0.563,0.852c-0.008,0.031-0.007,0.061-0.013,0.09C13.944,27.402,14.82,26.936,14.835,26.637z"/>
<path fill="none" d="M5.213,26.852c-0.053-0.25-0.415-0.658-0.678-0.619c-0.109,0.016-0.107,0.053-0.104,0.09
	c0.017,0.277,0.51,0.789,0.8,0.918C5.245,27.115,5.242,26.986,5.213,26.852z"/>
<path fill="none" d="M26.453,29.922c-0.051,0.002-0.102,0.021-0.15,0.055h0.354C26.617,29.945,26.558,29.92,26.453,29.922z"/>
<path fill="none" d="M12.193,23.494c-0.093-0.041-0.167-0.049-0.199-0.023c-0.042,0.033-0.071,0.156-0.035,0.348
	c0.096,0.512,0.686,0.865,1.173,1.133C13.057,24.313,12.828,23.768,12.193,23.494z"/>
<path fill="none" d="M11.785,25.434c-0.208-0.115-0.402-0.129-0.592-0.043c-0.071,0.031-0.082,0.057-0.05,0.129
	c0.149,0.344,1.061,0.877,1.438,0.793C12.352,25.932,12.077,25.596,11.785,25.434z"/>
<path fill="none" d="M25.66,27.072v-0.035c0.012-0.256,0.025-0.547-0.113-0.732c-0.061-0.08-0.211-0.262-0.32-0.197
	c-0.154,0.09-0.232,0.365-0.238,0.582c-0.014,0.43,0.078,1.021,0.346,1.48c0.064-0.088,0.121-0.178,0.164-0.273
	C25.591,27.68,25.646,27.402,25.66,27.072z"/>
<path fill="none" d="M12.014,27.963c-0.215-0.148-0.631-0.332-0.823-0.277c-0.042,0.012-0.067,0.033-0.084,0.072
	c-0.121,0.279,0.444,0.549,0.559,0.6c0.323,0.143,0.658,0.258,0.962,0.221C12.448,28.346,12.246,28.125,12.014,27.963z"/>
<path fill="none" d="M17.02,25.184c0.106-0.07,0.17-0.154,0.166-0.221c-0.004-0.074-0.101-0.135-0.158-0.164
	C16.803,24.684,16.31,24.75,15.561,25c-0.202,0.066-0.405,0.158-0.604,0.26C15.615,25.393,16.622,25.449,17.02,25.184z"/>
<path fill="none" d="M16.347,23.826c0.026-0.041,0.057-0.106,0.013-0.224c-0.027-0.069-0.071-0.112-0.141-0.136
	c-0.35-0.12-1.121,0.259-1.479,0.475c-0.133,0.082-0.264,0.184-0.392,0.297C15.504,24.217,16.177,24.078,16.347,23.826z"/>
<path fill="none" d="M22.44,29.891v-0.004c-0.098,0.014-0.196,0.045-0.293,0.09h0.947c-0.192-0.076-0.385-0.115-0.579-0.102
	C22.49,29.881,22.465,29.885,22.44,29.891z"/>
<path fill="none" d="M17.949,27.35c-0.32-0.137-0.501-0.131-0.563-0.078c-0.055,0.045-0.064,0.17-0.026,0.342
	c0.104,0.479,0.936,1.059,1.457,1.127C18.744,28.016,18.471,27.57,17.949,27.35z"/>
<path fill="#A0D07F" d="M9.696,29.77c0.025-0.068,0.148-0.115,0.337-0.129c0.194-0.016,0.346,0.035,0.461,0.156
	c0.047,0.049,0.084,0.113,0.119,0.18h0.306c-0.056-0.143-0.123-0.275-0.221-0.377c-0.175-0.182-0.406-0.264-0.688-0.242
	c-0.316,0.025-0.512,0.129-0.58,0.313c-0.035,0.094-0.031,0.197,0,0.307h0.301C9.695,29.895,9.677,29.822,9.696,29.77z"/>
<path fill="#A0D07F" d="M26.453,29.922c0.105-0.002,0.164,0.023,0.203,0.055h0.33c-0.004-0.01,0-0.023-0.004-0.033
	c-0.051-0.117-0.188-0.311-0.533-0.305c-0.227,0.004-0.4,0.158-0.547,0.338h0.4C26.351,29.943,26.402,29.924,26.453,29.922z"/>
<path fill="#86A78C" d="M22.516,29.875c-0.025,0.002-0.051,0.008-0.075,0.012v0.004C22.465,29.885,22.49,29.881,22.516,29.875z"/>
<path fill="#A0D07F" d="M25.773,26.135c-0.305-0.408-0.563-0.346-0.689-0.273c-0.266,0.156-0.369,0.525-0.379,0.82
	c-0.016,0.498,0.094,1.203,0.438,1.725c-0.01,0.01-0.016,0.02-0.023,0.029c-0.055,0.064-0.111,0.129-0.164,0.195
	c-0.379,0.479-0.976,0.656-1.51,0.766l-0.134,0.025c0.069-0.064,0.141-0.129,0.201-0.203c0.369-0.459,0.245-0.977,0.136-1.436
	c-0.168-0.709-0.487-1.193-0.922-1.402c-0.294-0.141-0.51-0.137-0.641,0.012c-0.267,0.301,0.052,1.029,0.191,1.246
	c0.174,0.271,0.413,0.469,0.646,0.658c0.189,0.154,0.367,0.305,0.506,0.486c-0.028,0.088-0.07,0.174-0.137,0.258
	c-0.15,0.186-0.326,0.33-0.589,0.484l0.011,0.02c-0.078,0.016-0.155,0.029-0.233,0.047c-0.197,0.016-0.396,0.09-0.596,0.211
	c0.029-0.266,0.031-0.557-0.05-0.863c-0.085-0.32-0.235-0.621-0.381-0.914l-0.097-0.193c-0.286-0.596-1.008-1.592-1.897-1.547
	c-0.362,0.018-0.49,0.17-0.534,0.295c-0.069,0.199,0.04,0.457,0.284,0.672c0.443,0.389,1.293,0.619,1.922,0.764
	c0.029,0.059,0.068,0.137,0.068,0.137c0.14,0.279,0.283,0.566,0.361,0.859c0.092,0.346,0.06,0.664,0.008,0.965h0.064h0.228h0.287
	c0.097-0.045,0.195-0.076,0.293-0.09c0.024-0.004,0.05-0.01,0.075-0.012c0.194-0.014,0.387,0.025,0.579,0.102h0.6
	c-0.154-0.096-0.313-0.182-0.475-0.248l0.282-0.055c0.55-0.113,1.238-0.313,1.675-0.867c0.049-0.063,0.102-0.123,0.156-0.188
	c0.158-0.184,0.32-0.375,0.422-0.609c0.109-0.248,0.172-0.561,0.188-0.926v-0.035C25.957,26.76,25.972,26.4,25.773,26.135z
	 M23.102,28.076c-0.225-0.184-0.437-0.357-0.587-0.59c-0.178-0.275-0.319-0.791-0.218-0.906c0.026-0.029,0.122-0.031,0.306,0.057
	c0.449,0.215,0.666,0.777,0.77,1.213c0.046,0.191,0.085,0.377,0.097,0.557C23.351,28.289,23.227,28.18,23.102,28.076z
	 M19.396,27.039c-0.165-0.145-0.228-0.297-0.204-0.365c0.021-0.059,0.125-0.098,0.28-0.105c0.622-0.031,1.174,0.611,1.478,1.113
	C20.484,27.566,19.756,27.354,19.396,27.039z M25.66,27.072c-0.014,0.33-0.068,0.607-0.162,0.824
	c-0.043,0.096-0.1,0.186-0.164,0.273c-0.268-0.459-0.359-1.051-0.346-1.48c0.006-0.217,0.084-0.492,0.238-0.582
	c0.109-0.064,0.26,0.117,0.32,0.197c0.139,0.186,0.125,0.477,0.113,0.732V27.072z"/>
<path fill="#A0D07F" d="M19.103,29.232c0.008-0.191,0.014-0.354,0.003-0.48c-0.074-0.854-0.416-1.396-1.045-1.664
	c-0.395-0.168-0.683-0.18-0.855-0.035c-0.146,0.119-0.187,0.328-0.123,0.621c0.14,0.634,1.157,1.251,1.743,1.368
	c-0.002,0.058-0.004,0.116-0.006,0.179c-0.009,0.242-0.013,0.51,0.012,0.756h0.279C19.085,29.738,19.095,29.465,19.103,29.232z
	 M17.359,27.613c-0.038-0.172-0.028-0.297,0.026-0.342c0.063-0.053,0.243-0.059,0.563,0.078c0.521,0.221,0.795,0.666,0.867,1.391
	C18.295,28.672,17.464,28.092,17.359,27.613z"/>
<path fill="#A0D07F" d="M17.157,24.547c-0.399-0.205-1.152,0.006-1.686,0.184c-0.479,0.158-0.974,0.424-1.358,0.727
	c-0.233,0.184-0.674,0.742-0.674,0.723l0.025-0.002c-0.069-0.691,0.746-1.652,0.746-1.652c0.028-0.002,0.075-0.004,0.137-0.004
	c0.883-0.016,1.934-0.092,2.233-0.537c0.066-0.098,0.128-0.262,0.042-0.483c-0.056-0.146-0.164-0.251-0.313-0.302
	c-0.541-0.186-1.525,0.385-1.717,0.501c-0.455,0.274-0.909,0.741-1.179,1.302c-0.075-0.74-0.329-1.433-1.108-1.77
	c-0.253-0.107-0.406-0.051-0.49,0.018c-0.143,0.113-0.19,0.334-0.136,0.621c0.129,0.688,0.888,1.1,1.442,1.4l0.033,0.018
	c0.013,0.287,0.008,0.586,0,0.883c-0.005,0.213-0.009,0.418-0.006,0.613c-0.286-0.635-0.716-1.318-1.229-1.6
	c-0.288-0.158-0.572-0.176-0.845-0.055c-0.213,0.096-0.287,0.289-0.193,0.504c0.216,0.494,1.343,1.125,1.844,0.936
	c0.25,0.471,0.425,0.955,0.485,1.258c-0.039,0.395-0.019,0.779,0.033,1.16c-0.266-0.451-0.61-0.938-1.072-1.258
	c-0.006-0.004-0.646-0.438-1.061-0.318c-0.124,0.035-0.216,0.115-0.267,0.232c-0.152,0.352,0.104,0.705,0.704,0.971
	c0.409,0.184,0.846,0.334,1.263,0.223c0.135,0.201,0.255,0.4,0.35,0.572c0.093,0.172,0.148,0.365,0.205,0.566h0.039h0.142h0.115
	h0.03h0.142c0.001-0.004,0.002-0.01,0.003-0.014c0.063-0.338,0.201-0.625,0.443-0.959c0.504,0.309,1.23,0.221,1.678-0.037
	c0.219-0.123,0.342-0.348,0.322-0.584c-0.019-0.229-0.165-0.412-0.394-0.496c-0.637-0.23-1.432,0.41-1.782,0.867
	c-0.234,0.309-0.383,0.574-0.475,0.865c-0.105-0.586-0.192-1.15-0.14-1.732c0,0,0.012-0.047,0.009-0.064
	c0.001-0.012,0.004-0.023,0.005-0.035c0.43-0.063,1.586-0.598,1.612-1.137c0.013-0.277-0.11-0.408-0.216-0.469
	c-0.274-0.16-0.707-0.008-0.931,0.133c-0.216,0.137-0.369,0.338-0.494,0.568c0.128-0.482,0.465-0.93,0.811-1.203
	c0.097-0.076,0.215-0.141,0.324-0.211c0.566,0.156,1.974,0.344,2.564-0.051c0.195-0.129,0.302-0.301,0.292-0.471
	C17.462,24.836,17.403,24.674,17.157,24.547z M14.739,23.941c0.358-0.216,1.13-0.595,1.479-0.475
	c0.069,0.023,0.113,0.066,0.141,0.136c0.044,0.117,0.014,0.183-0.013,0.224c-0.17,0.252-0.843,0.391-1.999,0.412
	C14.476,24.125,14.606,24.023,14.739,23.941z M11.959,23.818c-0.036-0.191-0.007-0.314,0.035-0.348
	c0.032-0.025,0.106-0.018,0.199,0.023c0.635,0.273,0.863,0.818,0.938,1.457C12.645,24.684,12.055,24.33,11.959,23.818z
	 M11.144,25.52c-0.032-0.072-0.021-0.098,0.05-0.129c0.189-0.086,0.384-0.072,0.592,0.043c0.292,0.162,0.566,0.498,0.797,0.879
	C12.204,26.396,11.293,25.863,11.144,25.52z M11.665,28.357c-0.114-0.051-0.68-0.32-0.559-0.6c0.017-0.039,0.042-0.061,0.084-0.072
	c0.192-0.055,0.608,0.129,0.823,0.277c0.232,0.162,0.435,0.383,0.613,0.615C12.323,28.615,11.988,28.5,11.665,28.357z
	 M15.792,28.154c0.123,0.043,0.198,0.137,0.209,0.252c0.01,0.125-0.059,0.246-0.181,0.314c-0.373,0.215-0.965,0.281-1.361,0.057
	C14.807,28.4,15.384,28.006,15.792,28.154z M13.561,27.406c0.092-0.393,0.276-0.67,0.563-0.852c0.194-0.123,0.504-0.207,0.637-0.129
	c0.021,0.012,0.083,0.049,0.075,0.211c-0.015,0.299-0.891,0.766-1.287,0.859C13.554,27.467,13.553,27.438,13.561,27.406z
	 M17.02,25.184c-0.397,0.266-1.404,0.209-2.063,0.076c0.198-0.102,0.401-0.193,0.604-0.26c0.749-0.25,1.242-0.316,1.467-0.201
	c0.058,0.029,0.154,0.09,0.158,0.164C17.189,25.029,17.126,25.113,17.02,25.184z"/>
<path fill="#A0D07F" d="M8.389,8.184C8.346,8.079,8.265,7.999,8.165,7.933C7.639,7.072,6.83,6.493,5.99,6.386
	C5.095,6.271,4.082,6.81,3.684,7.611C3.624,7.73,3.444,8.093,3.643,8.276c0.141,0.131,0.393,0.096,0.727-0.104
	C4.995,7.801,5.358,7.306,5.71,6.678c0.082-0.001,0.165-0.021,0.245-0.011C6.697,6.762,7.304,7.261,7.704,7.78
	c-0.112-0.013-0.23-0.018-0.356-0.013L7.34,7.759C7.337,7.762,7.334,7.765,7.331,7.768C6.666,7.8,5.882,8.056,5.614,8.256
	C5.266,8.518,5.336,8.747,5.383,8.834c0.116,0.217,0.466,0.303,0.779,0.191c0.453-0.163,0.77-0.475,1.075-0.776
	C7.305,8.183,7.375,8.116,7.446,8.05c0.146,0,0.285,0.009,0.399,0.04c0.147,0.04,0.242,0.108,0.28,0.201
	C8.199,8.47,8.109,8.729,7.989,8.978C6.798,9.344,5.68,9.94,5.593,10.477c-0.041,0.252,0.048,0.383,0.129,0.449
	c0.217,0.175,0.584,0.061,0.733,0.003c0.621-0.244,1.196-0.727,1.464-1.228c0.028-0.054,0.064-0.116,0.103-0.183
	C8.248,9.129,8.556,8.594,8.389,8.184z M4.225,7.929c-0.241,0.144-0.36,0.146-0.387,0.139C3.834,8.052,3.821,7.972,3.937,7.738
	C4.2,7.209,4.771,6.813,5.37,6.693C5.068,7.206,4.743,7.621,4.225,7.929z M6.066,8.758c-0.195,0.07-0.396,0.014-0.435-0.059
	C5.608,8.655,5.669,8.568,5.783,8.482c0.187-0.14,0.705-0.319,1.214-0.397C6.716,8.362,6.443,8.624,6.066,8.758z M7.669,9.567
	c-0.238,0.445-0.756,0.876-1.317,1.098c-0.199,0.077-0.385,0.094-0.452,0.04c-0.044-0.036-0.036-0.131-0.027-0.184
	c0.067-0.412,0.887-0.891,1.941-1.211C7.802,9.332,7.788,9.356,7.776,9.377C7.737,9.445,7.7,9.51,7.669,9.567z"/>
<path fill="#A0D07F" d="M18.182,13.032c-0.168-0.31-0.359-0.354-0.49-0.336c-0.381,0.05-0.656,0.693-0.73,0.997l-0.051,0.221
	c-0.116,0.517-0.228,1.005-0.622,1.368l0.008,0.008c-0.238,0.114-0.464,0.241-0.675,0.381c0.036-0.273,0.072-0.557,0.092-0.843
	c0.021-0.318,0.004-0.632-0.03-0.94h0.009c0.002-0.069,0.005-0.2,0.005-0.2c0.019-0.331,0.139-0.621,0.285-0.911l0.014-0.001
	c0-0.007-0.003-0.013-0.003-0.021c0.038-0.075,0.077-0.149,0.117-0.226c0.046-0.088,0.094-0.178,0.14-0.27
	c0.209-0.416,0.645-1.281,0.315-1.801c-0.209-0.335-0.43-0.368-0.578-0.336c-0.31,0.065-0.53,0.48-0.58,0.837
	c-0.059,0.433,0.047,0.774,0.148,1.105c0.065,0.211,0.121,0.415,0.145,0.641c-0.063,0.13-0.118,0.265-0.166,0.402
	c-0.087-0.313-0.192-0.618-0.338-0.903c-0.179-0.35-0.725-1.01-0.725-1.01c-0.273-0.192-0.003-0.843,0.159-1.231
	c0.039-0.092,0.072-0.172,0.096-0.239c0.022-0.063,0.058-0.134,0.085-0.2c0,0,0.026-0.038,0.025-0.059
	c0.045-0.106,0.084-0.209,0.137-0.322c0.226-0.498,0.483-1.062,0.437-1.586c-0.037-0.419-0.347-0.797-0.689-0.843
	c-0.133-0.018-0.462-0.004-0.647,0.499c-0.193,0.528,0.017,0.989,0.22,1.435c0.122,0.267,0.225,0.521,0.252,0.78
	c-0.027,0.065-0.063,0.136-0.085,0.2c-0.022,0.061-0.054,0.138-0.091,0.227c-0.117,0.282-0.265,0.645-0.29,0.966
	c-0.083-0.055-0.3-0.296-0.532-0.554c-0.074-0.082-0.146-0.161-0.22-0.241c0,0-0.076-0.113-0.14-0.152
	c-0.813-0.879-1.57-1.581-2.129-1.502c-0.136,0.02-0.324,0.098-0.451,0.36c-0.1,0.207-0.108,0.392-0.026,0.549
	c0.189,0.364,0.8,0.463,1.446,0.567c0.367,0.06,0.764,0.128,0.977,0.244c0.121,0.131,0.234,0.256,0.332,0.364
	c0.015,0.017,0.025,0.028,0.039,0.044c-0.104-0.05-0.205-0.111-0.311-0.149c-0.575-0.206-1.178,0.031-1.71,0.241l-0.136,0.054
	c-0.125,0.049-0.273,0.117-0.444,0.197c-0.123,0.058-0.354,0.121-0.354,0.121l-0.135-0.11c-0.263-0.215-0.561-0.459-0.856-0.604
	c-0.296-0.146-0.759-0.18-1.032,0.043c-0.101,0.082-0.256,0.272-0.166,0.619c0.081,0.313,0.244,0.529,0.485,0.643
	c0.597,0.281,1.511-0.145,2.179-0.455c0.167-0.078,0.311-0.145,0.427-0.19l0.137-0.054c0.509-0.2,1.036-0.408,1.511-0.237
	c0.804,0.289,1.598,0.979,1.976,1.715c0.131,0.256,0.227,0.529,0.307,0.81c-0.159-0.131-0.337-0.242-0.509-0.328
	c0,0-0.068-0.042-0.108-0.052c-0.073-0.033-0.142-0.062-0.206-0.083c-0.141-0.15-0.258-0.344-0.379-0.551
	c-0.283-0.484-0.604-1.033-1.333-0.989c-0.469,0.029-0.592,0.282-0.622,0.43c-0.079,0.372,0.244,0.827,0.583,1.003
	c0.322,0.167,0.664,0.208,0.994,0.248c0.005,0.001,0.011,0.002,0.016,0.003c-0.275,0.084-0.548,0.2-0.806,0.317
	c-0.179,0.08-0.348,0.156-0.505,0.215c-0.063,0.023-0.131-0.036-0.131-0.036c-0.097-0.078-0.198-0.173-0.306-0.272
	c-0.428-0.396-0.961-0.89-1.621-0.776c-0.398,0.067-0.483,0.302-0.498,0.436c-0.039,0.366,0.345,0.829,0.69,0.97
	c0.635,0.259,1.431,0.142,1.963-0.055c0.168-0.062,0.341-0.14,0.524-0.223c0.507-0.229,1.072-0.471,1.549-0.365
	c0.339,0.158,0.72,0.424,0.831,0.691c0.053,0.354,0.077,0.715,0.053,1.084c-0.013,0.184-0.037,0.364-0.059,0.545
	c-0.24-0.262-0.944-0.596-0.944-0.596c-0.284-0.568-1.204-1.034-1.823-0.922c-0.313,0.057-0.506,0.257-0.539,0.564
	c-0.011,0.104,0.021,0.201,0.093,0.279c0.222,0.241,0.778,0.265,1.349,0.253c0.046,0,0.082-0.001,0.104-0.001
	c0.345,0.004,1.521,0.305,1.68,0.808c0,0,0.008,0.232-0.006,0.356c-0.426-0.352-1.133-0.198-1.837-0.021
	c-0.207-0.334-0.617-0.595-1.176-0.734c-0.382-0.096-0.889-0.045-1.078,0.237c-0.069,0.103-0.149,0.323,0.087,0.641
	c0.431,0.588,1.297,0.369,2.135,0.157c0.796-0.201,1.548-0.392,1.827,0.101l0.007-0.004c-0.02,0.296-0.02,0.597,0.021,0.903
	c0.184,1.371,0.72,1.608,1.137,1.565c0.277-0.028,0.397-0.172,0.45-0.288c0.117-0.261,0.001-0.615-0.167-0.852
	c-0.241-0.341-0.516-0.543-0.804-0.757c-0.114-0.084-0.232-0.171-0.349-0.269c0.003-0.243,0.015-0.49,0.044-0.735
	c0.258-0.215,0.592-0.382,0.951-0.553c0.356-0.169,0.724-0.343,1.017-0.579C18.103,14.462,18.536,13.685,18.182,13.032z
	 M16.046,10.399c0.107-0.022,0.211,0.103,0.279,0.211c0.243,0.384-0.158,1.182-0.329,1.522c-0.026,0.054-0.055,0.106-0.082,0.159
	c-0.027-0.105-0.057-0.21-0.088-0.31c-0.098-0.315-0.189-0.614-0.139-0.983C15.728,10.712,15.895,10.432,16.046,10.399z
	 M14.339,7.312c0.058-0.157,0.164-0.34,0.343-0.315c0.188,0.024,0.417,0.272,0.445,0.587c0.038,0.435-0.176,0.921-0.392,1.395
	c-0.054-0.152-0.119-0.301-0.186-0.446C14.362,8.119,14.186,7.73,14.339,7.312z M12.071,9.569c-0.523-0.085-1.116-0.181-1.24-0.419
	c-0.014-0.027-0.058-0.111,0.03-0.295c0.079-0.163,0.173-0.193,0.236-0.203c0.358-0.051,0.96,0.468,1.499,1.014
	C12.431,9.631,12.255,9.6,12.071,9.569z M8.837,11.3c-0.165-0.078-0.273-0.228-0.333-0.457c-0.039-0.15-0.016-0.258,0.071-0.329
	c0.151-0.124,0.485-0.128,0.728-0.009c0.267,0.131,0.551,0.364,0.803,0.569l0.051,0.041C9.677,11.308,9.162,11.453,8.837,11.3z
	 M14.076,10.841c-0.002,0.028-0.006,0.057-0.006,0.083C14.061,10.916,14.076,10.841,14.076,10.841z M10.616,13.414
	c-0.241-0.098-0.539-0.45-0.515-0.677c0.004-0.035,0.016-0.145,0.263-0.187c0.523-0.09,0.979,0.333,1.381,0.705
	c0.084,0.078,0.162,0.146,0.241,0.214C11.553,13.566,11.04,13.587,10.616,13.414z M12.807,12.321
	c-0.266-0.138-0.482-0.48-0.438-0.692c0.027-0.123,0.148-0.192,0.362-0.205c0.555-0.033,0.795,0.376,1.071,0.85
	c0.062,0.105,0.125,0.212,0.192,0.313c-0.097-0.015-0.195-0.035-0.29-0.047C13.385,12.501,13.082,12.465,12.807,12.321z M13.5,14.65
	c-0.643,0.013-1.023-0.042-1.133-0.161c-0.018-0.019-0.023-0.034-0.02-0.059c0.019-0.178,0.119-0.281,0.308-0.315
	c0.416-0.075,1.052,0.223,1.37,0.591c-0.171-0.036-0.318-0.056-0.411-0.057C13.587,14.649,13.549,14.649,13.5,14.65z M11.508,16.051
	c-0.069-0.094-0.139-0.225-0.078-0.314c0.095-0.144,0.457-0.199,0.772-0.12c0.441,0.11,0.765,0.298,0.948,0.533
	C12.468,16.318,11.8,16.446,11.508,16.051z M15.717,17.273c0.271,0.199,0.526,0.389,0.741,0.692c0.12,0.168,0.205,0.428,0.14,0.571
	c-0.012,0.025-0.047,0.104-0.221,0.123c-0.558,0.057-0.757-0.804-0.826-1.321c-0.009-0.066,0-0.131-0.005-0.197
	C15.603,17.186,15.661,17.232,15.717,17.273z M17.372,14.688c-0.156,0.126-0.344,0.233-0.539,0.335
	c0.182-0.329,0.273-0.69,0.354-1.046l0.05-0.218c0.082-0.334,0.324-0.761,0.491-0.783c0.083-0.011,0.164,0.115,0.205,0.19
	C18.21,13.677,17.836,14.313,17.372,14.688z"/>
<path fill="#A0D07F" d="M23.336,14.465c-0.141-0.43-0.57-0.74-0.95-1.014c-0.101-0.073-0.196-0.143-0.278-0.208l-0.011,0.014
	c-0.214-0.543-0.534-1.009-1.134-1.035c-0.097-0.256-0.214-0.513-0.327-0.77c0,0-0.046-0.854-0.021-1.266
	c0.005-0.099,0.012-0.192,0.014-0.279c0.005-0.15,0.076-0.421,0.076-0.421c0.166-0.291,0.389-0.569,0.72-0.9
	c0-0.001,0.05-0.049,0.05-0.049c0.219-0.217,0.517-0.514,0.524-0.876c0.004-0.197-0.068-0.31-0.131-0.368
	c-0.061-0.058-0.171-0.122-0.356-0.108c-0.296,0.022-0.538,0.253-0.741,0.705c-0.248,0.554-0.399,1.268-0.425,2.008
	c-0.002,0.083-0.008,0.175-0.014,0.271c-0.011,0.186-0.02,0.39-0.018,0.592c-0.175-0.347-0.355-0.691-0.549-1.006
	c-0.035-0.058-0.019-0.137-0.019-0.137c0.164-0.473,0.207-1.252-0.035-1.764c-0.149-0.316-0.423-0.496-0.682-0.446
	C18.794,7.454,18.643,7.675,18.623,8c-0.034,0.597,0.314,1.077,0.622,1.501c0.102,0.139,0.197,0.27,0.278,0.402
	c0.124,0.202,0.235,0.43,0.354,0.647c-0.184-0.125-0.387-0.235-0.626-0.321c-0.099-0.035-0.191-0.081-0.291-0.129
	c-0.129-0.064-0.263-0.13-0.415-0.174c-0.027-0.008-0.373-0.401-0.543-0.653c-0.305-0.451-0.651-0.964-1.191-0.872
	c-0.183,0.03-0.322,0.13-0.395,0.281c-0.083,0.174-0.068,0.399,0.039,0.589c0.23,0.406,0.555,0.522,0.898,0.646
	c0.06,0.021,0.12,0.043,0.182,0.066c0.185,0.071,0.375,0.105,0.559,0.138c0.13,0.022,0.254,0.045,0.374,0.079
	c0.126,0.036,0.243,0.094,0.368,0.154c0.101,0.05,0.205,0.101,0.319,0.142c0.521,0.188,0.886,0.471,1.116,0.866l0.015-0.009
	c0.16,0.348,0.317,0.699,0.445,1.047c0.074,0.201,0.117,0.412,0.139,0.629c-0.103-0.177-0.237-0.343-0.428-0.488
	c-0.2-0.154-0.423-0.268-0.648-0.372l0.011-0.011c-0.165-0.16-0.308-0.339-0.46-0.527c-0.182-0.228-0.371-0.464-0.603-0.662
	c-0.253-0.215-0.884-0.501-1.202-0.19c-0.168,0.165-0.176,0.32-0.154,0.421c0.083,0.363,0.683,0.597,1.289,0.806
	c0.109,0.037,0.204,0.069,0.248,0.091c0.131,0.061,0.266,0.117,0.396,0.172c0.33,0.139,0.671,0.283,0.95,0.498
	c0.204,0.155,0.342,0.322,0.423,0.51c0.047,0.112,0.057,0.24,0.068,0.376c0.007,0.092,0.019,0.186,0.037,0.279
	c-0.055,0.25-0.142,0.499-0.258,0.748c0.021-0.247,0.021-0.487-0.015-0.664c-0.06-0.293-0.255-0.513-0.535-0.601
	c-0.311-0.099-0.668-0.015-0.91,0.214c-0.206,0.194-0.403,0.493-0.503,0.762c-0.003,0.008-0.254,0.75,0.053,0.985
	c0.147,0.114,0.281,0.102,0.367,0.07c0.372-0.135,0.59-0.909,0.755-1.648c0.012-0.052,0.021-0.091,0.027-0.117
	c0.042,0.004,0.085-0.009,0.126,0.004c0.105,0.033,0.289,0.128,0.343,0.388c0.082,0.402-0.009,1.221-0.301,1.528
	c0,0-0.64,0.73-0.972,1.023c-0.407,0.361-0.965,0.854-1.188,1.528c-0.125,0.381,0.036,0.885,0.326,1.019
	c0.102,0.046,0.363,0.11,0.613-0.302c0.323-0.533,0.557-1.6,0.62-2.188l-0.013-0.001c0.358-0.326,0.719-0.696,1.042-1.15
	c0.129,0.374-0.07,0.89-0.206,1.217l-0.068,0.16c-0.192,0.451-0.391,0.917-0.263,1.451c0.071,0.296,0.305,0.52,0.554,0.531
	c0.104,0.004,0.356-0.025,0.482-0.399c0.2-0.596-0.066-1.305-0.325-1.796c0,0,0.313-0.996,0.024-1.447l-0.013,0.009
	c0.222-0.358,0.366-0.729,0.466-1.1c0.02,0.02,0.039,0.041,0.06,0.06c0.072,0.067,0.14,0.131,0.2,0.199
	c0.152,0.17,0.18,0.32,0.183,0.596c0-0.001,0.001,0.214,0.001,0.214c0,0.472-0.001,0.958,0.197,1.43
	c0.16,0.383,0.406,0.469,0.583,0.422c0.244-0.064,0.383-0.365,0.338-0.732c-0.075-0.62-0.479-0.971-0.835-1.208l-0.001-0.128
	c-0.003-0.276-0.023-0.525-0.255-0.782c-0.068-0.077-0.144-0.148-0.217-0.217c-0.06-0.057-0.115-0.11-0.17-0.167
	c0.08-0.458,0.05-0.905-0.068-1.327c0.581,0.102,0.811,0.842,1.011,1.51c0.08,0.266,0.155,0.517,0.249,0.708
	c0.182,0.37,0.572,0.511,0.823,0.408C23.311,15.065,23.462,14.849,23.336,14.465z M21.028,8.005
	c0.153-0.343,0.323-0.523,0.503-0.537c0.046-0.004,0.107-0.001,0.142,0.031c0.028,0.027,0.043,0.083,0.042,0.156
	c-0.005,0.248-0.247,0.487-0.441,0.681l-0.05,0.049c-0.192,0.192-0.347,0.371-0.481,0.546C20.811,8.593,20.906,8.277,21.028,8.005z
	 M18.906,8.017c0.011-0.188,0.077-0.311,0.177-0.33c0.107-0.021,0.27,0.072,0.372,0.289c0.18,0.381,0.166,0.988,0.057,1.411
	c-0.013-0.018-0.023-0.036-0.036-0.053C19.182,8.93,18.877,8.513,18.906,8.017z M17.449,9.65c-0.33-0.119-0.569-0.204-0.748-0.519
	c-0.061-0.106-0.071-0.238-0.029-0.327c0.031-0.067,0.094-0.108,0.185-0.124c0.361-0.061,0.641,0.353,0.911,0.752
	c0.093,0.138,0.183,0.271,0.276,0.386c-0.14-0.026-0.278-0.05-0.407-0.099C17.572,9.694,17.51,9.672,17.449,9.65z M18.767,11.736
	c-0.314-0.107-1.049-0.36-1.104-0.6c-0.004-0.017-0.016-0.067,0.075-0.155c0.159-0.155,0.627,0.039,0.819,0.203
	c0.211,0.181,0.384,0.396,0.566,0.624c0.028,0.035,0.063,0.068,0.092,0.104c-0.059-0.025-0.116-0.049-0.172-0.075
	C18.985,11.812,18.889,11.778,18.767,11.736z M18.899,15.179c-0.013,0.005-0.041,0.015-0.098-0.028
	c-0.075-0.058-0.04-0.444,0.041-0.661c0.085-0.229,0.259-0.491,0.431-0.654c0.058-0.055,0.133-0.08,0.204-0.11
	c0,0.005-0.001,0.006-0.002,0.011C19.228,14.846,19.026,15.133,18.899,15.179z M18.485,18.722c-0.045,0.072-0.156,0.234-0.253,0.19
	c-0.144-0.066-0.259-0.417-0.175-0.672c0.165-0.498,0.528-0.88,0.959-1.27C18.925,17.537,18.733,18.313,18.485,18.722z
	 M22.31,16.376c0.031,0.262-0.058,0.406-0.13,0.426c-0.062,0.016-0.165-0.058-0.249-0.258c-0.142-0.337-0.168-0.687-0.174-1.052
	C22.091,15.755,22.267,16.028,22.31,16.376z M20.607,18.399c-0.026,0.079-0.089,0.211-0.201,0.206
	c-0.104-0.005-0.245-0.126-0.291-0.314c-0.105-0.443,0.066-0.847,0.249-1.273l0.012-0.028
	C20.559,17.369,20.762,17.938,20.607,18.399z M23.02,14.877c-0.114,0.047-0.346-0.033-0.461-0.271
	c-0.084-0.171-0.156-0.41-0.232-0.665c-0.023-0.077-0.048-0.157-0.072-0.236c0.335,0.243,0.705,0.517,0.813,0.848
	C23.094,14.634,23.143,14.828,23.02,14.877z"/>
<path fill="#A0D07F" d="M24.149,4.642c-0.052-0.387-0.241-0.71-0.549-0.934c-0.25-0.183-0.424-0.143-0.524-0.076
	c-0.241,0.157-0.25,0.57-0.198,0.811c0.111,0.506,0.579,0.838,0.865,1.001c-0.048,0.105-0.104,0.208-0.178,0.299
	c-0.121,0.152-0.431,0.313-0.431,0.313c-0.191,0.012-0.4-0.086-0.624-0.189c-0.376-0.175-0.845-0.393-1.251,0.04
	c-0.192,0.204-0.167,0.395-0.136,0.49c0.069,0.201,0.288,0.36,0.559,0.404c0.74,0.121,1.586-0.232,2.104-0.881
	C24.073,5.561,24.208,5.083,24.149,4.642z M21.729,6.521c-0.16-0.026-0.302-0.117-0.335-0.216c-0.021-0.063,0.003-0.132,0.072-0.206
	c0.253-0.27,0.517-0.166,0.926,0.023c0.154,0.072,0.313,0.132,0.475,0.173C22.5,6.485,22.097,6.582,21.729,6.521z M23.155,4.382
	c-0.05-0.229,0-0.463,0.075-0.513c0.037-0.023,0.112,0.002,0.203,0.067c0.308,0.225,0.406,0.527,0.436,0.742
	c0.021,0.162,0.007,0.33-0.032,0.492C23.603,5.029,23.237,4.757,23.155,4.382z"/>
<path fill="#A0D07F" d="M19.703,19.565c-0.036-0.076-0.136-0.203-0.389-0.198c-0.328,0.006-0.622,0.169-0.853,0.471
	c-0.197,0.26-0.318,0.604-0.367,0.945c-0.188-0.279-0.454-0.505-0.757-0.627c-0.361-0.146-0.736-0.142-1.084,0.015
	c-0.282,0.126-0.333,0.297-0.326,0.417c0.017,0.286,0.371,0.5,0.605,0.574c0.503,0.156,1.039-0.103,1.299-0.256
	c0.067,0.095,0.128,0.194,0.171,0.303c0.072,0.181,0.06,0.529,0.06,0.529c-0.084,0.172-0.273,0.306-0.474,0.448
	c-0.34,0.24-0.761,0.539-0.586,1.107c0.082,0.269,0.261,0.341,0.358,0.359c0.209,0.041,0.456-0.07,0.628-0.284
	c0.408-0.503,0.526-1.276,0.352-1.972c0,0,0.008-0.567,0.095-0.856c0.397,0.122,0.933-0.191,1.155-0.462
	C19.731,19.909,19.774,19.713,19.703,19.565z M16.618,20.892c-0.223-0.07-0.402-0.229-0.407-0.32
	c-0.002-0.043,0.058-0.097,0.159-0.143c0.348-0.156,0.66-0.092,0.861-0.01c0.151,0.062,0.289,0.157,0.411,0.271
	C17.403,20.823,16.985,21.006,16.618,20.892z M17.769,23.191c-0.103,0.126-0.25,0.204-0.353,0.185
	c-0.064-0.013-0.113-0.068-0.143-0.166c-0.108-0.354,0.111-0.531,0.479-0.792c0.139-0.099,0.27-0.207,0.385-0.327
	C18.12,22.504,18.003,22.901,17.769,23.191z M19.373,19.899c-0.169,0.203-0.583,0.438-0.837,0.374
	c0.045-0.094,0.093-0.186,0.152-0.264c0.122-0.161,0.33-0.354,0.631-0.359c0.067-0.001,0.117,0.014,0.129,0.038
	C19.466,19.725,19.445,19.812,19.373,19.899z"/>
<path fill="#A0D07F" d="M3.675,16.649c-0.502-0.152-1.037,0.11-1.296,0.265c-0.068-0.095-0.13-0.193-0.173-0.302
	c-0.073-0.18-0.063-0.528-0.063-0.528c0.083-0.173,0.271-0.308,0.472-0.451c0.337-0.243,0.757-0.545,0.578-1.111
	c-0.084-0.269-0.263-0.34-0.361-0.358c-0.209-0.038-0.455,0.075-0.626,0.289c-0.405,0.507-0.519,1.279-0.339,1.974
	c0,0-0.004,0.567-0.088,0.856c-0.398-0.119-0.933,0.199-1.153,0.47c-0.139,0.171-0.181,0.368-0.109,0.515
	c0.038,0.076,0.138,0.202,0.391,0.196c0.328-0.008,0.621-0.172,0.849-0.476c0.196-0.262,0.316-0.606,0.362-0.948
	c0.19,0.277,0.458,0.501,0.762,0.622c0.362,0.145,0.736,0.137,1.083-0.021c0.281-0.129,0.331-0.3,0.323-0.42
	C4.266,16.933,3.91,16.722,3.675,16.649z M1.528,17.817C1.407,17.979,1.2,18.173,0.899,18.18c-0.066,0.002-0.116-0.013-0.129-0.037
	c-0.018-0.037,0.002-0.123,0.074-0.211c0.166-0.204,0.579-0.44,0.835-0.38C1.636,17.646,1.587,17.739,1.528,17.817z M2.427,14.63
	c0.102-0.128,0.25-0.207,0.353-0.188c0.064,0.012,0.113,0.067,0.143,0.164c0.111,0.354-0.107,0.532-0.474,0.796
	c-0.139,0.1-0.268,0.209-0.382,0.329C2.08,15.319,2.194,14.921,2.427,14.63z M3.844,17.382c-0.346,0.158-0.658,0.096-0.86,0.016
	c-0.151-0.061-0.29-0.155-0.413-0.269c0.237-0.135,0.653-0.319,1.022-0.208c0.224,0.068,0.403,0.227,0.409,0.317
	C4.005,17.281,3.945,17.335,3.844,17.382z"/>
<path fill="#A0D07F" d="M15.051,21.202c-0.728-0.496-1.678-0.831-2.516-1.126l-0.12-0.042c-0.204-0.07-0.409-0.133-0.608-0.192
	c-0.267-0.081-0.523-0.167-0.776-0.264c0.249-0.161,0.619-0.273,1.024-0.336c0.376,0.649,1.141,0.809,1.779,0.864
	c0.023,0.002,0.053,0.005,0.087,0.008c0.307,0.031,0.878,0.09,1.14-0.153c0.093-0.086,0.141-0.202,0.137-0.336
	c-0.005-0.151-0.065-0.282-0.18-0.391c-0.428-0.401-1.545-0.365-2.082-0.349c-0.063,0.003-0.118,0.004-0.158,0.005
	c-0.156,0.002-1.485,0.04-2.063,0.556c-0.033-0.016-0.068-0.025-0.102-0.042c-0.574-0.286-1.107-0.654-1.567-1.061l0.009-0.016
	c-0.192-0.116-0.277-0.257-0.252-0.419c0.042-0.262,0.358-0.556,0.68-0.631c0.111-0.026,0.224-0.043,0.335-0.055
	c0.18,0.004,0.289,0.185,0.429,0.463c0.069,0.14,0.135,0.272,0.224,0.364c0.407,0.423,1.109,0.651,1.633,0.531
	c0.422-0.097,0.508-0.319,0.522-0.444c0.028-0.253-0.188-0.538-0.54-0.709c-0.48-0.234-1.371-0.579-2.295-0.486
	c-0.012,0-0.02-0.006-0.031-0.005l0.001,0.01c-0.114,0.013-0.229,0.028-0.343,0.056c-0.369,0.086-0.802,0.428-0.883,0.835
	c-0.025-0.028-0.057-0.056-0.081-0.084c-0.631-0.74-0.082-1.552,0.448-2.336c0.112-0.167,0.22-0.325,0.313-0.481
	c0.259-0.428,0.796-1.317,0.018-1.984c-0.255-0.218-0.816-0.434-1.164-0.256c-0.109,0.056-0.288,0.201-0.26,0.554
	c0.029,0.399,0.451,0.651,0.679,0.787c0.27,0.161,0.443,0.27,0.637,0.483c-0.045,0.088-0.096,0.177-0.151,0.27
	c-0.091,0.149-0.195,0.305-0.307,0.469c-0.215,0.318-0.446,0.668-0.602,1.031c-0.11-0.113-0.151-0.256-0.193-0.421
	c-0.022-0.087-0.046-0.177-0.082-0.269c-0.101-0.257-0.24-0.418-0.427-0.617c-0.512-0.551-1.102-0.84-1.752-0.858
	c0.001,0-0.015-0.001-0.015-0.001c-0.521-0.016-1.605-0.05-1.665,0.791c-0.019,0.263,0.088,0.401,0.182,0.472
	c0.351,0.265,1.057,0.037,1.945-0.288c0.268-0.098,0.603-0.221,0.683-0.211c0,0,0.285,0.15,0.414,0.289
	c0.171,0.182,0.288,0.316,0.372,0.527c0.029,0.075,0.049,0.153,0.069,0.235c0.013,0.048,0.032,0.099,0.047,0.148
	c-0.268-0.074-0.572-0.079-0.754-0.072c-0.68,0.022-1.881,0.356-2.206,1.153c-0.123,0.304-0.106,0.519,0.051,0.641
	c0.316,0.247,1.024-0.115,1.233-0.268c0.26-0.19,0.44-0.441,0.616-0.685c0.149-0.207,0.292-0.402,0.475-0.555
	c0.411,0.007,0.798,0.093,0.83,0.294c0,0-0.018,0.775,0.232,1.163c-0.592-0.054-1.303,0.346-1.791,0.623l-0.115,0.064
	c-0.576,0.321-1.527,1.103-1.429,1.99c0.04,0.36,0.2,0.479,0.327,0.515c0.203,0.057,0.452-0.067,0.651-0.324
	c0.362-0.467,0.542-1.329,0.647-1.966c0.029-0.017,0.059-0.033,0.059-0.033c0.472-0.268,1.262-0.716,1.771-0.564
	c0,0,0.985,0.843,1.583,1.219c-0.232,0.139-0.438,0.39-0.592,0.638l-0.006-0.005c-0.534,0.684-1.295,1.069-1.838,1.273l-0.1,0.038
	c-0.305,0.113-0.568,0.211-0.864,0.415c-0.38,0.261-0.679,0.523-0.913,0.804l-0.018,0.021c-0.164,0.196-0.334,0.398-0.374,0.696
	c-0.028,0.214,0.022,0.483,0.2,0.604c0.07,0.047,0.219,0.108,0.43-0.011c0.55-0.309,0.831-1.278,0.886-1.854
	c0,0,0.454-0.298,0.753-0.41l0.1-0.037c0.196-0.073,0.422-0.181,0.652-0.304c-0.003,0.009-0.007,0.018-0.01,0.026
	c-0.093,0.258-0.182,0.502-0.318,0.72c-0.169,0.271-0.365,0.536-0.555,0.792l-0.024,0.034c-0.334,0.452-0.663,0.943-0.684,1.537
	c-0.008,0.227,0.075,0.653,0.33,0.834c0.093,0.065,0.247,0.126,0.455,0.044c0.447-0.177,0.616-0.597,0.503-1.248
	c-0.02-0.108-0.043-0.219-0.068-0.326c-0.088-0.392-0.171-0.762,0.006-1.104l-0.008-0.004c0.097-0.136,0.197-0.267,0.286-0.408
	c0.152-0.243,0.25-0.513,0.344-0.773c0.043-0.118,0.087-0.238,0.136-0.354c0.134-0.089,0.268-0.188,0.397-0.298
	c-0.25,0.86-0.232,1.615,0.074,2.236c0.139,0.283,0.418,0.421,0.73,0.357c0.352-0.07,0.611-0.364,0.632-0.715
	c0.034-0.556-0.444-0.908-0.865-1.22c-0.141-0.104-0.269-0.204-0.371-0.302c0.032-0.146,0.063-0.291,0.113-0.444
	c0.12-0.362,0.553-1.041,0.893-1.074c0.116,0.066,0.23,0.138,0.351,0.197c0.108,0.054,0.219,0.092,0.329,0.137
	c-0.28,0.404-0.384,1.189-0.221,1.831c0.117,0.46,0.345,0.766,0.657,0.886c0.196,0.076,0.416,0.033,0.601-0.117
	c0.225-0.182,0.347-0.476,0.305-0.73c-0.057-0.354-0.326-0.506-0.564-0.639l-0.073-0.041c-0.27-0.152-0.38-0.244-0.544-0.521
	c0,0-0.02-0.42,0.098-0.562c0.219,0.078,0.438,0.146,0.652,0.211c0.195,0.059,0.397,0.12,0.597,0.188
	c-0.001,0,0.118,0.042,0.118,0.042c0.328,0.115,0.674,0.241,1.015,0.376c0.089,0.879,0.657,1.761,1.629,1.816
	c0.36,0.021,0.489-0.129,0.533-0.259C15.735,21.93,15.317,21.384,15.051,21.202z M12.781,19.174c0.042,0,0.099-0.002,0.163-0.004
	c0.421-0.014,1.537-0.05,1.879,0.271c0.059,0.057,0.088,0.117,0.091,0.192c0.001,0.053-0.013,0.09-0.046,0.12
	c-0.168,0.156-0.694,0.103-0.919,0.079c-0.034-0.003-0.065-0.006-0.092-0.009c-0.561-0.048-1.15-0.179-1.48-0.622
	C12.515,19.188,12.653,19.176,12.781,19.174z M12.344,18.105c-0.01,0.086-0.121,0.158-0.305,0.201
	c-0.42,0.096-1.032-0.107-1.365-0.453c-0.059-0.061-0.114-0.173-0.175-0.293c-0.055-0.11-0.123-0.232-0.204-0.343
	c0.678,0.041,1.298,0.286,1.665,0.466C12.226,17.813,12.355,17.997,12.344,18.105z M8.633,13.793
	c-0.183-0.108-0.523-0.312-0.543-0.564c-0.017-0.217,0.076-0.265,0.107-0.28c0.196-0.101,0.64,0.039,0.852,0.219
	c0.351,0.301,0.364,0.656,0.202,1.075C9.059,14.053,8.872,13.937,8.633,13.793z M5.959,14.833c-0.531,0.194-1.421,0.52-1.677,0.327
	c-0.02-0.015-0.081-0.061-0.068-0.226c0.035-0.5,0.682-0.549,1.373-0.526h0.015c0.31,0.009,0.603,0.095,0.881,0.244
	C6.35,14.69,6.18,14.752,5.959,14.833z M5.541,20.454c-0.134,0.173-0.281,0.244-0.352,0.225c-0.06-0.017-0.105-0.118-0.123-0.272
	c-0.068-0.621,0.541-1.211,1.023-1.544C6.003,19.334,5.834,20.075,5.541,20.454z M6.354,16.691c-0.17,0.235-0.33,0.458-0.555,0.622
	c-0.265,0.193-0.77,0.367-0.892,0.272c-0.031-0.024-0.039-0.12,0.038-0.31c0.229-0.561,1.058-0.873,1.699-0.956
	C6.54,16.44,6.444,16.565,6.354,16.691z M5.61,23.511c-0.041,0.022-0.098,0.046-0.132,0.022C5.425,23.496,5.38,23.354,5.4,23.2
	c0.029-0.216,0.159-0.371,0.311-0.552l0.018-0.021c0.159-0.19,0.365-0.372,0.599-0.553C6.242,22.581,6.006,23.287,5.61,23.511z
	 M7.229,24.875c-0.097,0.038-0.15,0.014-0.187-0.012c-0.133-0.094-0.218-0.388-0.211-0.593c0.017-0.474,0.268-0.879,0.558-1.28
	c0.01,0.22,0.059,0.435,0.104,0.637c0.024,0.108,0.047,0.21,0.064,0.313C7.675,24.615,7.428,24.797,7.229,24.875z M9.332,21.509
	c0.382,0.282,0.775,0.573,0.751,0.976c-0.015,0.259-0.221,0.417-0.405,0.454c-0.087,0.018-0.304,0.033-0.42-0.205
	c-0.2-0.407-0.256-0.887-0.187-1.423C9.152,21.377,9.241,21.441,9.332,21.509z M11.38,21.23c-0.001,0,0.075,0.043,0.075,0.043
	c0.24,0.134,0.389,0.228,0.423,0.437c0.025,0.153-0.061,0.349-0.204,0.465c-0.061,0.05-0.184,0.125-0.32,0.072
	c-0.221-0.085-0.393-0.33-0.484-0.69c-0.066-0.26-0.077-0.55-0.055-0.822C10.96,20.948,11.103,21.074,11.38,21.23z M15.101,22.253
	c-0.793-0.045-1.232-0.725-1.347-1.414c0.407,0.174,0.8,0.368,1.137,0.598c0.224,0.151,0.513,0.588,0.458,0.75
	C15.324,22.259,15.167,22.257,15.101,22.253z"/>
<path fill="#A0D07F" d="M10.04,26.799c-0.038-0.242-0.303-0.416-0.55-0.484c-0.288-0.078-0.578-0.071-0.864-0.033
	c0.341-0.235,0.676-0.484,0.938-0.811c0.187-0.233,0.491-0.686,0.428-1.09c-0.029-0.185-0.129-0.334-0.295-0.443
	c-0.298-0.195-0.488-0.048-0.557,0.025c-0.299,0.319-0.256,1.235-0.062,1.582c-0.277,0.265-0.591,0.499-0.914,0.714
	c-0.104,0.069-0.212,0.142-0.316,0.214c0,0-0.486,0.273-0.705,0.441c0.016-0.041,0.038-0.074,0.052-0.117
	c0.099-0.297,0.035-0.611-0.152-0.748c-0.072-0.053-0.272-0.152-0.561,0.061c-0.605,0.447-0.61,1.227-0.516,1.953
	c-0.087,0.08-0.173,0.16-0.265,0.24l-0.288,0.244c-0.285,0.24-0.572,0.484-0.824,0.754c-0.013,0.006-0.025,0.012-0.038,0.018
	c0.082-0.299,0.253-0.578,0.438-0.867c0.314-0.494,0.64-1.002,0.501-1.658c-0.08-0.377-0.559-0.906-0.997-0.842
	c-0.229,0.035-0.358,0.18-0.346,0.387c0.022,0.387,0.59,1.014,1.013,1.176c-0.09,0.268-0.243,0.523-0.409,0.783
	c-0.283,0.443-0.576,0.902-0.532,1.473h0.008c-0.043,0.066-0.086,0.135-0.124,0.207h0.325c0.097-0.156,0.208-0.303,0.335-0.443
	c0.063-0.029,0.129-0.057,0.188-0.088c0.209-0.105,0.408-0.203,0.654-0.236c0.45-0.061,0.902-0.018,1.365,0.035
	c0.335,0.039,0.772,0.072,1.189-0.01c0.536-0.107,0.832-0.219,0.958-0.365c0.224-0.256,0.161-0.459,0.104-0.557
	c-0.193-0.334-0.854-0.43-1.15-0.371c-0.624,0.125-1.07,0.582-1.463,0.986c-0.347-0.029-0.691-0.047-1.041,0
	C5.48,28.939,5.407,28.967,5.33,28.99c0.088-0.076,0.177-0.15,0.267-0.227l0.291-0.248c0.296-0.256,0.576-0.521,0.815-0.828
	c0,0,0.75-0.707,1.234-0.93c0.164,0.268,0.518,0.459,0.819,0.547c0.409,0.119,0.796,0.098,1.034-0.059
	C10.031,27.088,10.06,26.916,10.04,26.799z M9.348,24.156c0.022-0.023,0.063-0.067,0.193,0.018c0.099,0.065,0.154,0.147,0.171,0.251
	c0.034,0.214-0.104,0.538-0.369,0.868c-0.015,0.019-0.036,0.031-0.051,0.049C9.181,25.049,9.162,24.354,9.348,24.156z M4.431,26.322
	c-0.003-0.037-0.005-0.074,0.104-0.09c0.263-0.039,0.625,0.369,0.678,0.619c0.029,0.135,0.032,0.264,0.018,0.389
	C4.94,27.111,4.447,26.6,4.431,26.322z M8.129,28.219c0.233-0.047,0.742,0.053,0.848,0.236c0.014,0.021,0.051,0.088-0.071,0.229
	c-0.045,0.051-0.208,0.154-0.801,0.271c-0.378,0.076-0.787,0.043-1.101,0.008c-0.01,0-0.019-0.002-0.028-0.002
	C7.311,28.625,7.666,28.311,8.129,28.219z M6.928,26.707c-0.149,0.445-0.4,0.785-0.7,1.096c-0.053-0.574-0.01-1.146,0.423-1.465
	c0.058-0.041,0.162-0.105,0.226-0.059C6.951,26.334,6.99,26.518,6.928,26.707z M9.635,27.01c-0.167,0.109-0.473,0.117-0.799,0.021
	c-0.28-0.08-0.514-0.227-0.63-0.377c0.39-0.133,0.805-0.176,1.21-0.066c0.176,0.049,0.33,0.162,0.345,0.254
	C9.771,26.908,9.687,26.975,9.635,27.01z"/>
<path fill="#A0D07F" d="M27.167,22.786c-0.102-0.229-0.266-0.295-0.385-0.31c-0.268-0.033-0.553,0.161-0.705,0.355
	c-0.287,0.37-0.342,0.868-0.383,1.277c-0.244,0.067-0.49,0.102-0.746,0.136c-0.139,0.019-0.279,0.038-0.424,0.063
	c0.205-0.239,0.381-0.514,0.359-0.74c-0.012-0.145-0.1-0.259-0.246-0.322c-0.105-0.046-0.225-0.058-0.346-0.048
	c0.322-0.362,0.555-0.819,0.635-1.227c0.064-0.331,0.131-1.253-0.328-1.535c-0.182-0.111-0.328-0.085-0.42-0.044
	c-0.168,0.077-0.295,0.276-0.338,0.532c-0.073,0.443,0.203,1.273,0.592,1.575c-0.248,0.474-1.165,1.138-1.195,1.159
	c-0.063,0.045-0.633,0.547-0.878,0.99c-0.244-0.334-0.43-0.63-0.543-0.976c0.098-0.124,0.211-0.258,0.339-0.403
	c0.451-0.516,0.964-1.1,0.986-1.658c0.016-0.374-0.131-0.655-0.391-0.75c-0.288-0.106-0.638,0.037-0.893,0.364
	c-0.462,0.595-0.497,1.361-0.445,1.9c0.074,0.777,0.364,1.224,0.833,1.849c-0.001,0.004-0.003,0.008-0.003,0.012
	c0,0.037,0.012,0.067,0.021,0.1c-0.028-0.015-0.057-0.029-0.084-0.043c-0.197-0.097-0.383-0.189-0.529-0.332
	c-0.508-0.494-0.938-1.042-1.245-1.585c-0.079-0.139-0.031-0.418-0.031-0.418c0.059-0.234,0.207-0.502,0.365-0.785
	c0.299-0.537,0.638-1.146,0.43-1.715c-0.136-0.373-0.341-0.444-0.488-0.438c-0.361,0.015-0.7,0.537-0.796,0.893
	c-0.24,0.882-0.135,1.879,0.274,2.603c0.32,0.565,0.767,1.136,1.293,1.648c0.175,0.17,0.384,0.275,0.588,0.376
	c-0.646,0.353-1.289,0.354-1.92,0l0.041-0.009c-0.022-0.112-0.039-0.237-0.058-0.369c-0.064-0.482-0.139-1.029-0.563-1.314
	c-0.235-0.156-0.486-0.188-0.657-0.082c-0.085,0.053-0.221,0.186-0.183,0.489c0.055,0.445,0.633,1.08,0.94,1.31
	c0.926,0.693,1.919,0.698,2.87,0.014l-0.021-0.029c0.321,0.139,0.791,0.005,1.45-0.438c0.031-0.021,0.115-0.088,0.221-0.183
	c0.282-0.077,0.557-0.116,0.823-0.152c0.559-0.074,1.086-0.146,1.631-0.551C26.806,23.833,27.41,23.329,27.167,22.786z
	 M24.12,20.971c0.027-0.156,0.098-0.285,0.176-0.32c0.016-0.008,0.063-0.029,0.154,0.027c0.277,0.17,0.266,0.891,0.197,1.238
	c-0.018,0.099-0.051,0.201-0.088,0.304C24.302,21.966,24.063,21.322,24.12,20.971z M22.083,21.399
	c0.202-0.259,0.432-0.323,0.571-0.272c0.141,0.052,0.215,0.224,0.205,0.473c-0.019,0.459-0.517,1.026-0.916,1.483
	c-0.077,0.088-0.137,0.163-0.206,0.245c-0.014-0.076-0.034-0.145-0.042-0.229C21.649,22.611,21.68,21.921,22.083,21.399z
	 M20.159,20.737c0.079-0.292,0.353-0.676,0.534-0.684c0.102-0.005,0.176,0.155,0.21,0.252c0.164,0.446-0.129,0.972-0.411,1.479
	c-0.135,0.243-0.251,0.473-0.332,0.695C20.017,21.93,20.006,21.302,20.159,20.737z M18.983,23.97
	c-0.008-0.063-0.012-0.175,0.05-0.213c0.061-0.037,0.201-0.023,0.352,0.077c0.317,0.213,0.38,0.672,0.438,1.115
	c0.008,0.058,0.018,0.108,0.025,0.163c-0.012-0.009-0.024-0.015-0.037-0.024C19.506,24.859,19.022,24.289,18.983,23.97z
	 M23.784,24.624c-0.813,0.549-1.129,0.486-1.244,0.4c-0.006-0.005-0.013-0.01-0.012-0.034c0.003-0.276,0.697-0.977,0.873-1.1
	c0.482-0.337,0.903-0.481,1.124-0.386c0.072,0.031,0.076,0.068,0.078,0.088C24.626,23.855,24.04,24.452,23.784,24.624z
	 M26.447,23.748c-0.15,0.112-0.303,0.189-0.455,0.254c0.037-0.354,0.1-0.725,0.311-0.996c0.104-0.133,0.305-0.266,0.445-0.248
	c0.045,0.006,0.109,0.026,0.162,0.144C27.033,23.181,26.738,23.531,26.447,23.748z"/>
<path fill="#A0D07F" d="M30.023,3.481V3.156c-0.088-0.048-0.176-0.091-0.254-0.123c-0.566-0.224-1.242-0.16-1.721,0.16
	c0,0-0.709-0.197-1.021-0.198c-0.158,0-0.4,0.066-0.4,0.066c-0.059-0.204,0.043-0.472,0.23-0.75l-0.002,0.007
	c0.135,0.012,0.252,0.041,0.379,0.072c0.223,0.055,0.451,0.111,0.74,0.059c0.248-0.045,0.93-0.254,1.104-0.685
	c0.053-0.128,0.08-0.332-0.092-0.57c-0.113-0.157-0.281-0.253-0.486-0.279c-0.361-0.046-0.787,0.126-1.021,0.319
	c-0.291,0.241-1.158,1.026-1.141,1.717H26.33V3.2c-0.027,0.014-0.055,0.023-0.082,0.036c-0.143,0.069-0.275,0.135-0.41,0.173
	c-0.02,0.005-0.523-0.493-0.744-0.808c-0.189-0.268-0.385-0.546-0.645-0.694c-0.238-0.136-0.479-0.122-0.66,0.038
	c-0.226,0.201-0.296,0.588-0.163,0.9c0.414,0.98,1.454,1.074,2.29,0.836c0.158-0.045,0.311-0.119,0.457-0.19
	c0.225-0.109,0.438-0.212,0.654-0.213c0.146,0.001,0.348,0.038,0.539,0.093c-0.516,0.244-1.117,0.894-1.334,1.484
	c-0.146,0.408-0.111,0.76,0.104,1.019c0.203,0.243,0.383,0.249,0.498,0.21c0.293-0.096,0.424-0.553,0.443-0.838
	c0.027-0.477-0.012-0.88-0.117-1.234c0.254-0.24,0.523-0.418,0.721-0.453c0,0,0.105-0.028,0.15-0.001
	c0.27,0.163,0.609,0.663,0.609,0.663c0.002,0.149-0.063,0.297-0.129,0.453c-0.045,0.101-0.09,0.205-0.119,0.314
	c-0.008,0.025-0.344,0.275-0.527,0.389c-0.178,0.111-0.361,0.226-0.492,0.391c-0.191,0.24-0.449,0.742-0.383,1.141
	c0.029,0.18,0.125,0.324,0.271,0.42c0.133,0.088,0.277,0.108,0.416,0.059c0.385-0.136,0.629-0.768,0.801-1.303
	c0.061-0.191,0.084-0.379,0.107-0.561c0.02-0.16,0.037-0.312,0.08-0.459c0.023-0.092,0.063-0.183,0.105-0.277
	c0.041-0.095,0.08-0.191,0.109-0.292c0.088,0.144,0.172,0.29,0.256,0.436c0.049,0.087,0.111,0.249,0.111,0.249
	c-0.041,0.269-0.035,0.532-0.027,0.787c0.002,0.059,0.002,0.119,0.004,0.18l-0.008-0.008l-0.012,0.011
	c-0.379,0.361-0.898,0.856-1.082,1.353c-0.1,0.266-0.135,0.676,0.018,0.953c0.086,0.155,0.225,0.256,0.398,0.292
	c0.18,0.038,0.338,0.007,0.465-0.092c0.313-0.241,0.344-0.815,0.365-1.197c0.004-0.07,0.008-0.132,0.012-0.179
	c0.014-0.134,0.035-0.27,0.057-0.4c0.035-0.22,0.072-0.447,0.07-0.682c0-0.08-0.002-0.16-0.004-0.238
	c-0.004-0.146-0.006-0.285,0-0.425c0.021,0.03,0.037,0.066,0.059,0.097c0.145,0.206,0.301,0.423,0.461,0.645V5.787
	c-0.076-0.105-0.158-0.217-0.229-0.319c-0.146-0.206-0.275-0.435-0.412-0.677c-0.295-0.521-0.605-1.051-1.104-1.397
	c0.191-0.112,0.41-0.185,0.643-0.203c0.107,0.45,0.35,1.087,0.727,1.521c0.09,0.104,0.227,0.189,0.375,0.262V4.653
	c-0.061-0.04-0.119-0.08-0.16-0.128c-0.307-0.352-0.531-0.893-0.646-1.328c0.152,0.015,0.305,0.043,0.447,0.1
	C29.773,3.341,29.896,3.404,30.023,3.481z M27.66,1.453c0.156-0.129,0.51-0.295,0.805-0.257c0.129,0.017,0.225,0.069,0.293,0.163
	c0.104,0.145,0.082,0.24,0.059,0.299c-0.102,0.248-0.582,0.457-0.893,0.512c-0.23,0.041-0.412-0.003-0.621-0.055
	c-0.082-0.02-0.174-0.033-0.264-0.049C27.218,1.852,27.435,1.639,27.66,1.453z M23.886,2.736c-0.084-0.2-0.043-0.459,0.092-0.579
	c0.087-0.078,0.199-0.079,0.331-0.004c0.205,0.117,0.383,0.368,0.553,0.612c0.199,0.281,0.408,0.563,0.684,0.707
	C25.052,3.555,24.232,3.556,23.886,2.736z M26.746,5.814c-0.064,0.021-0.156-0.078-0.193-0.122
	c-0.148-0.179-0.166-0.428-0.053-0.739c0.086-0.236,0.246-0.465,0.424-0.678c0.061,0.281,0.092,0.588,0.07,0.953
	C26.978,5.488,26.855,5.779,26.746,5.814z M28.302,5.488c-0.021,0.177-0.043,0.344-0.092,0.504c-0.271,0.845-0.49,1.079-0.629,1.128
	c-0.037,0.013-0.088,0.021-0.166-0.029c-0.08-0.053-0.129-0.128-0.146-0.229c-0.047-0.289,0.162-0.711,0.324-0.918
	c0.102-0.126,0.264-0.228,0.422-0.326c0.104-0.064,0.207-0.131,0.303-0.206C28.314,5.438,28.306,5.463,28.302,5.488z M29.158,6.834
	c-0.021,0.135-0.045,0.275-0.059,0.418c-0.006,0.053-0.01,0.117-0.014,0.19c-0.016,0.31-0.045,0.827-0.254,0.988
	c-0.039,0.029-0.105,0.065-0.234,0.039c-0.096-0.02-0.162-0.069-0.209-0.152c-0.104-0.188-0.078-0.509-0.002-0.716
	c0.133-0.353,0.488-0.734,0.801-1.04C29.175,6.652,29.173,6.74,29.158,6.834z"/>
</svg>
