<?xml version="1.0" encoding="utf-8"?>
<!-- Generator: Adobe Illustrator 14.0.0, SVG Export Plug-In  -->
<!DOCTYPE svg PUBLIC "-//W3C//DTD SVG 1.1//EN" "http://www.w3.org/Graphics/SVG/1.1/DTD/svg11.dtd" [
	<!ENTITY ns_flows "http://ns.adobe.com/Flows/1.0/">
]>
<svg version="1.1"
	 xmlns="http://www.w3.org/2000/svg" xmlns:xlink="http://www.w3.org/1999/xlink" xmlns:a="http://ns.adobe.com/AdobeSVGViewerExtensions/3.0/"
	 x="0px" y="0px" width="15.238px" height="15.238px" viewBox="0 0 15.238 15.238" enable-background="new 0 0 15.238 15.238"
	 xml:space="preserve">
<defs>
</defs>
<rect fill="none" width="15.238" height="15.238"/>
<polyline fill="#A0D07F" points="0,1.352 0.643,1.359 0.613,1.699 0,1.762 0,1.352 "/>
<polyline fill="#A0D07F" points="7.591,5.93 7.818,5.93 8.074,5.477 8.925,5.674 9.493,5.617 8.698,4.965 8.102,5.021 8.357,4.227 
	10.373,4.027 10.402,3.688 8.271,3.658 7.591,4.709 6.541,3.574 5.064,3.574 4.725,4.482 5.093,4.512 5.604,3.971 6.598,4.057 
	7.08,5.021 5.773,5.447 6.37,5.561 7.052,5.363 7.591,5.93 "/>
<polyline fill="#A0D07F" points="15.238,12.232 14.881,12.203 15.223,11.295 15.238,11.295 15.238,12.232 "/>
<polyline fill="#A0D07F" points="11.566,9.535 11.793,9.535 12.048,9.082 12.9,9.279 13.468,9.223 12.673,8.57 12.077,8.627 
	12.332,7.832 14.348,7.633 14.376,7.293 12.247,7.266 11.566,8.314 10.516,7.18 9.039,7.18 8.698,8.088 9.066,8.115 9.578,7.576 
	10.572,7.662 11.055,8.627 9.749,9.053 10.346,9.166 11.025,8.967 11.566,9.535 "/>
<polyline fill="#A0D07F" points="8.557,13.424 8.783,13.424 9.039,12.971 9.891,13.17 10.458,13.113 9.664,12.459 9.066,12.518 
	9.323,11.723 11.338,11.523 11.367,11.182 9.238,11.154 8.557,12.203 7.506,11.068 6.029,11.068 5.689,11.977 6.059,12.006 
	6.568,11.465 7.563,11.551 8.045,12.518 6.738,12.941 7.336,13.057 8.018,12.857 8.557,13.424 "/>
<polyline fill="#A0D07F" points="0,13.441 0.896,13.453 0.869,13.793 0,13.879 0,13.441 "/>
<polyline fill="#A0D07F" points="4.895,10.189 5.121,10.189 5.377,9.734 6.229,9.934 6.796,9.875 6.001,9.223 5.404,9.279 
	5.661,8.484 7.676,8.287 7.705,7.945 5.576,7.918 4.895,8.967 3.844,7.832 2.368,7.832 2.027,8.74 2.396,8.77 2.907,8.23 3.9,8.314 
	4.383,9.279 3.077,9.705 3.673,9.82 4.355,9.621 4.895,10.189 "/>
<polyline fill="#A0D07F" points="0,4.893 0.409,5.334 1.09,4.283 3.219,4.313 3.191,4.652 1.175,4.852 0.92,5.646 1.516,5.59 
	2.311,6.242 1.743,6.299 0.891,6.102 0.637,6.555 0.409,6.555 0,6.125 0,4.893 "/>
<polyline fill="#A0D07F" points="6.143,2.523 6.37,2.523 6.626,2.068 7.479,2.268 8.045,2.211 7.25,1.559 6.654,1.615 6.91,0.82 
	8.925,0.621 8.954,0.281 6.825,0.252 6.143,1.303 5.093,0.166 3.617,0.166 3.275,1.076 3.645,1.104 4.156,0.564 5.15,0.65 
	5.632,1.615 4.326,2.041 4.923,2.154 5.604,1.955 6.143,2.523 "/>
<polyline fill="#A0D07F" points="11.643,15.238 11.509,15.213 12.814,14.787 12.332,13.822 11.338,13.736 10.827,14.277 
	10.458,14.248 10.799,13.34 12.275,13.34 13.326,14.475 14.007,13.424 15.238,13.441 15.238,13.879 14.092,13.992 13.837,14.787 
	14.434,14.73 15.051,15.238 12.891,15.238 12.786,15.127 12.407,15.238 11.643,15.238 "/>
<polyline fill="#A0D07F" points="15.051,0 15.229,0.145 14.66,0.201 13.809,0.002 13.553,0.457 13.326,0.457 12.891,0 15.051,0 "/>
<polyline fill="#A0D07F" points="12.407,0 12.105,0.088 11.643,0 12.407,0 "/>
<polyline fill="#A0D07F" points="15.238,6.125 15.107,5.986 14.427,6.186 13.831,6.072 15.137,5.646 14.654,4.682 13.661,4.596 
	13.15,5.135 12.779,5.107 13.121,4.199 14.598,4.199 15.238,4.893 15.238,6.125 "/>
<polyline fill="#A0D07F" points="0,11.295 1.459,11.295 2.509,12.432 3.191,11.381 5.32,11.408 5.292,11.75 3.275,11.949 
	3.02,12.744 3.617,12.688 4.412,13.34 3.844,13.396 2.992,13.197 2.736,13.652 2.509,13.652 1.971,13.084 1.289,13.283 0.693,13.17 
	1.998,12.744 1.516,11.777 0.521,11.693 0.012,12.232 0,12.232 0,11.295 "/>
<polyline fill="#A0D07F" points="15.238,1.762 13.837,1.898 13.581,2.693 14.177,2.637 14.973,3.289 14.404,3.348 13.553,3.148 
	13.297,3.602 13.07,3.602 12.531,3.035 11.85,3.232 11.253,3.119 12.559,2.693 12.077,1.729 11.083,1.645 10.572,2.184 
	10.203,2.154 10.544,1.246 12.02,1.246 13.07,2.381 13.752,1.33 15.238,1.352 15.238,1.762 "/>
</svg>
