<?xml version="1.0" encoding="utf-8"?>
<!-- Generator: Adobe Illustrator 14.0.0, SVG Export Plug-In  -->
<!DOCTYPE svg PUBLIC "-//W3C//DTD SVG 1.1//EN" "http://www.w3.org/Graphics/SVG/1.1/DTD/svg11.dtd" [
	<!ENTITY ns_flows "http://ns.adobe.com/Flows/1.0/">
]>
<svg version="1.1"
	 xmlns="http://www.w3.org/2000/svg" xmlns:xlink="http://www.w3.org/1999/xlink" xmlns:a="http://ns.adobe.com/AdobeSVGViewerExtensions/3.0/"
	 x="0px" y="0px" width="30.478px" height="30.477px" viewBox="0 0 30.478 30.477" enable-background="new 0 0 30.478 30.477"
	 xml:space="preserve">
<defs>
</defs>
<rect fill="none" width="30.478" height="30.477"/>
<polyline fill="#A0D07F" points="14.014,0 14.014,0.332 13.503,0.346 13.503,0 14.014,0 "/>
<polyline fill="#A0D07F" points="27.353,20.887 27.222,21.162 27.73,21.162 27.935,21.557 27.964,22.021 27.761,22.371 
	27.134,22.213 27.164,22.459 27.468,22.635 27.498,22.939 27.876,22.939 27.863,22.576 28.33,22.168 28.314,21.41 27.978,20.887 
	27.353,20.887 "/>
<polyline fill="#A0D07F" points="4.08,18.439 3.949,18.717 4.459,18.717 4.663,19.109 4.691,19.574 4.488,19.926 3.861,19.766 
	3.891,20.014 4.197,20.188 4.227,20.492 4.605,20.492 4.59,20.129 5.057,19.721 5.042,18.965 4.706,18.439 4.08,18.439 "/>
<polyline fill="#A0D07F" points="18.506,20.127 19.075,20.141 19.337,20.754 19.322,21.221 19.016,21.715 18.667,21.438 
	18.23,21.453 18.754,21.963 18.754,22.414 19.221,22.414 19.191,21.947 19.832,21.365 19.848,20.463 19.337,19.879 18.579,19.895 
	18.506,20.127 "/>
<polyline fill="#A0D07F" points="8.605,19.729 9.174,19.742 9.436,20.355 9.421,20.82 9.115,21.316 8.766,21.041 8.329,21.055 
	8.854,21.564 8.854,22.016 9.318,22.016 9.29,21.551 9.932,20.967 9.945,20.064 9.436,19.48 8.678,19.494 8.605,19.729 "/>
<polyline fill="#A0D07F" points="0,22.043 0.619,22.201 0.823,21.852 0.793,21.385 0.59,20.992 0.08,20.992 0.211,20.715 
	0.837,20.715 1.172,21.24 1.188,21.996 0.721,22.404 0.734,22.77 0.355,22.77 0.327,22.463 0.021,22.289 0,22.107 0,22.043 "/>
<polyline fill="#A0D07F" points="11.988,22.252 11.857,22.527 12.368,22.527 12.572,22.922 12.602,23.389 12.396,23.738 
	11.771,23.576 11.8,23.824 12.105,24 12.135,24.307 12.514,24.307 12.499,23.941 12.965,23.533 12.951,22.775 12.616,22.252 
	11.988,22.252 "/>
<polyline fill="#A0D07F" points="24.596,23.824 25.164,23.84 25.425,24.451 25.412,24.918 25.105,25.412 24.755,25.137 
	24.318,25.15 24.842,25.66 24.842,26.113 25.308,26.113 25.279,25.646 25.921,25.064 25.935,24.16 25.425,23.578 24.668,23.592 
	24.596,23.824 "/>
<polyline fill="#A0D07F" points="21.037,24.072 20.906,24.35 21.415,24.35 21.619,24.742 21.648,25.209 21.445,25.559 
	20.818,25.398 20.848,25.646 21.152,25.82 21.182,26.127 21.561,26.127 21.547,25.762 22.014,25.354 21.998,24.598 21.663,24.072 
	21.037,24.072 "/>
<polyline fill="#A0D07F" points="15.035,23.484 15.604,23.5 15.866,24.111 15.852,24.576 15.545,25.072 15.195,24.795 
	14.759,24.811 15.283,25.32 15.283,25.771 15.749,25.771 15.721,25.305 16.361,24.723 16.376,23.818 15.866,23.236 15.107,23.252 
	15.035,23.484 "/>
<polyline fill="#A0D07F" points="27.667,25.646 28.236,25.66 28.498,26.273 28.482,26.738 28.177,27.234 27.828,26.959 
	27.39,26.973 27.916,27.482 27.916,27.934 28.38,27.934 28.351,27.467 28.994,26.885 29.007,25.98 28.498,25.398 27.74,25.412 
	27.667,25.646 "/>
<polyline fill="#A0D07F" points="2.402,23.143 2.971,23.156 3.234,23.77 3.219,24.234 2.913,24.73 2.564,24.453 2.126,24.469 
	2.65,24.979 2.65,25.43 3.117,25.43 3.088,24.965 3.729,24.381 3.744,23.479 3.234,22.895 2.477,22.91 2.402,23.143 "/>
<polyline fill="#A0D07F" points="6.641,23.902 6.509,24.178 7.02,24.178 7.223,24.572 7.252,25.037 7.049,25.389 6.422,25.227 
	6.451,25.475 6.757,25.65 6.786,25.955 7.165,25.955 7.15,25.592 7.617,25.184 7.602,24.426 7.268,23.902 6.641,23.902 "/>
<polyline fill="#A0D07F" points="9.543,25.268 9.411,25.545 9.921,25.545 10.125,25.938 10.154,26.404 9.95,26.754 9.324,26.594 
	9.354,26.842 9.659,27.016 9.688,27.32 10.066,27.32 10.052,26.957 10.52,26.549 10.504,25.793 10.169,25.268 9.543,25.268 "/>
<polyline fill="#A0D07F" points="17.994,26.842 18.563,26.855 18.825,27.469 18.811,27.934 18.504,28.43 18.154,28.152 
	17.717,28.168 18.242,28.678 18.242,29.129 18.708,29.129 18.68,28.662 19.32,28.08 19.335,27.176 18.825,26.594 18.066,26.607 
	17.994,26.842 "/>
<polyline fill="#A0D07F" points="22.623,30.477 22.623,30.441 22.1,29.932 22.536,29.916 22.887,30.193 23.191,29.697 
	23.206,29.232 22.943,28.619 22.376,28.605 22.448,28.371 23.206,28.357 23.716,28.939 23.701,29.844 23.061,30.426 23.064,30.477 
	22.623,30.477 "/>
<polyline fill="#A0D07F" points="18.327,30.477 18.352,30.4 19.109,30.385 19.189,30.477 18.327,30.477 "/>
<polyline fill="#A0D07F" points="13.503,30.477 13.503,30.373 12.964,29.602 13.43,29.514 13.751,29.949 14.348,28.596 
	13.911,27.605 13.328,27.574 13.328,27.256 14.057,27.182 14.814,28.289 14.8,29.367 14.014,30.373 14.014,30.477 13.503,30.477 "/>
<polyline fill="#A0D07F" points="6.443,27.58 7.012,27.596 7.273,28.207 7.259,28.674 6.953,29.17 6.604,28.893 6.166,28.906 
	6.691,29.418 6.691,29.867 7.157,29.867 7.128,29.402 7.77,28.818 7.784,27.916 7.273,27.334 6.516,27.348 6.443,27.58 "/>
<polyline fill="#A0D07F" points="4.063,30.477 4.061,30.473 3.551,30.473 3.682,30.197 4.309,30.197 4.486,30.477 4.063,30.477 "/>
<polyline fill="#A0D07F" points="1.379,28.094 1.947,28.107 2.209,28.721 2.195,29.186 1.889,29.682 1.539,29.404 1.102,29.42 
	1.627,29.93 1.627,30.381 2.093,30.381 2.064,29.914 2.705,29.33 2.719,28.428 2.209,27.846 1.452,27.859 1.379,28.094 "/>
<polyline fill="#A0D07F" points="12.986,11.762 13.555,11.777 13.816,12.389 13.803,12.855 13.497,13.35 13.146,13.074 
	12.71,13.088 13.234,13.598 13.234,14.051 13.701,14.051 13.672,13.584 14.313,13.002 14.327,12.098 13.816,11.516 13.061,11.529 
	12.986,11.762 "/>
<polyline fill="#A0D07F" points="23.064,0 23.09,0.414 22.623,0.414 22.623,0 23.064,0 "/>
<polyline fill="#A0D07F" points="17.027,11.307 17.596,11.322 17.857,11.934 17.843,12.4 17.537,12.895 17.188,12.617 16.75,12.633 
	17.275,13.143 17.275,13.594 17.741,13.594 17.712,13.129 18.354,12.547 18.367,11.643 17.857,11.061 17.1,11.074 17.027,11.307 "/>
<polyline fill="#A0D07F" points="19.018,6.641 19.587,6.656 19.85,7.268 19.834,7.734 19.527,8.229 19.18,7.951 18.742,7.967 
	19.266,8.477 19.266,8.93 19.732,8.93 19.703,8.463 20.344,7.881 20.359,6.977 19.85,6.395 19.091,6.408 19.018,6.641 "/>
<polyline fill="#A0D07F" points="25.22,0.496 25.789,0.51 26.05,1.121 26.037,1.59 25.73,2.084 25.38,1.807 24.943,1.822 
	25.468,2.332 25.468,2.783 25.935,2.783 25.904,2.316 26.546,1.734 26.56,0.83 26.05,0.248 25.294,0.264 25.22,0.496 "/>
<polyline fill="#A0D07F" points="28.919,2.26 29.486,2.273 29.75,2.887 29.734,3.354 29.429,3.848 29.08,3.57 28.642,3.586 
	29.167,4.096 29.167,4.547 29.632,4.547 29.603,4.08 30.246,3.498 30.259,2.596 29.75,2.012 28.992,2.027 28.919,2.26 "/>
<polyline fill="#A0D07F" points="0,17.371 0.066,17.445 0.051,18.35 0,18.396 0,17.371 "/>
<polyline fill="#A0D07F" points="23.969,18.25 24.537,18.264 24.799,18.877 24.785,19.342 24.479,19.838 24.129,19.561 
	23.691,19.574 24.217,20.086 24.217,20.535 24.684,20.535 24.654,20.07 25.294,19.488 25.308,18.584 24.799,18.002 24.042,18.016 
	23.969,18.25 "/>
<polyline fill="#A0D07F" points="30.478,18.396 29.888,18.932 29.917,19.398 29.451,19.398 29.451,18.947 28.927,18.438 
	29.363,18.422 29.714,18.699 30.019,18.203 30.035,17.738 29.771,17.127 29.205,17.111 29.277,16.879 30.035,16.863 30.478,17.371 
	30.478,18.396 "/>
<polyline fill="#A0D07F" points="26.701,13.584 27.267,13.598 27.531,14.211 27.515,14.676 27.21,15.172 26.859,14.895 
	26.423,14.908 26.949,15.42 26.949,15.871 27.414,15.871 27.384,15.404 28.025,14.822 28.041,13.918 27.531,13.336 26.773,13.35 
	26.701,13.584 "/>
<polyline fill="#A0D07F" points="30.478,22.107 30.47,22.041 30.478,22.043 30.478,22.107 "/>
<polyline fill="#A0D07F" points="13.613,18.477 14.182,18.49 14.443,19.104 14.43,19.568 14.123,20.064 13.773,19.787 
	13.336,19.803 13.861,20.313 13.861,20.764 14.327,20.764 14.298,20.299 14.939,19.715 14.953,18.813 14.443,18.229 13.686,18.244 
	13.613,18.477 "/>
<polyline fill="#A0D07F" points="25.619,5.787 26.187,5.803 26.449,6.414 26.435,6.881 26.128,7.377 25.779,7.1 25.341,7.113 
	25.867,7.623 25.867,8.074 26.333,8.074 26.304,7.609 26.945,7.025 26.958,6.123 26.449,5.541 25.691,5.555 25.619,5.787 "/>
<polyline fill="#A0D07F" points="7.068,2.26 7.637,2.273 7.9,2.887 7.885,3.354 7.579,3.848 7.229,3.57 6.792,3.586 7.316,4.096 
	7.316,4.547 7.783,4.547 7.754,4.08 8.395,3.498 8.41,2.596 7.9,2.012 7.143,2.027 7.068,2.26 "/>
<polyline fill="#A0D07F" points="11.734,1.406 12.303,1.422 12.566,2.033 12.551,2.5 12.245,2.994 11.895,2.719 11.458,2.732 
	11.982,3.242 11.982,3.693 12.449,3.693 12.42,3.227 13.061,2.645 13.075,1.74 12.566,1.158 11.809,1.174 11.734,1.406 "/>
<polyline fill="#A0D07F" points="20.727,15.633 21.294,15.646 21.557,16.258 21.541,16.725 21.234,17.221 20.887,16.943 
	20.449,16.957 20.973,17.467 20.973,17.92 21.439,17.92 21.41,17.453 22.051,16.869 22.066,15.967 21.557,15.385 20.798,15.398 
	20.727,15.633 "/>
<polyline fill="#A0D07F" points="15.348,7.344 15.215,7.619 15.725,7.619 15.93,8.014 15.958,8.48 15.754,8.828 15.128,8.67 
	15.157,8.918 15.463,9.092 15.492,9.398 15.871,9.398 15.855,9.033 16.323,8.625 16.309,7.867 15.973,7.344 15.348,7.344 "/>
<polyline fill="#A0D07F" points="10.598,6.527 11.165,6.543 11.427,7.154 11.413,7.619 11.107,8.115 10.757,7.84 10.32,7.854 
	10.846,8.363 10.846,8.814 11.311,8.814 11.282,8.35 11.923,7.766 11.938,6.863 11.427,6.279 10.67,6.295 10.598,6.527 "/>
<polyline fill="#A0D07F" points="4.566,6.295 5.148,6.324 5.585,7.314 4.988,8.67 4.668,8.232 4.201,8.318 4.74,9.092 4.74,9.543 
	5.25,9.529 5.25,9.092 6.037,8.086 6.052,7.008 5.294,5.9 4.566,5.975 4.566,6.295 "/>
<polyline fill="#A0D07F" points="19.189,0 19.619,0.49 19.605,1.393 18.963,1.977 18.993,2.441 18.525,2.441 18.525,1.99 
	18.002,1.48 18.439,1.467 18.789,1.742 19.096,1.246 19.109,0.781 18.848,0.17 18.279,0.154 18.327,0 19.189,0 "/>
<polyline fill="#A0D07F" points="9.145,10.529 9.014,10.807 9.523,10.807 9.727,11.199 9.756,11.666 9.552,12.016 8.926,11.855 
	8.955,12.104 9.262,12.277 9.29,12.584 9.669,12.584 9.654,12.221 10.12,11.813 10.105,11.055 9.771,10.529 9.145,10.529 "/>
<polyline fill="#A0D07F" points="3.057,11.84 2.925,12.115 3.436,12.115 3.639,12.51 3.668,12.975 3.464,13.324 2.837,13.164 
	2.866,13.412 3.172,13.588 3.201,13.893 3.58,13.893 3.566,13.529 4.032,13.121 4.018,12.363 3.682,11.84 3.057,11.84 "/>
<polyline fill="#A0D07F" points="10.852,15.025 10.721,15.303 11.23,15.303 11.434,15.695 11.463,16.16 11.259,16.512 
	10.633,16.352 10.662,16.598 10.968,16.773 10.997,17.078 11.376,17.078 11.361,16.715 11.827,16.307 11.813,15.549 11.479,15.025 
	10.852,15.025 "/>
<polyline fill="#A0D07F" points="16.77,15.594 16.639,15.871 17.148,15.871 17.352,16.264 17.381,16.73 17.177,17.08 16.551,16.92 
	16.58,17.168 16.887,17.342 16.915,17.648 17.294,17.648 17.279,17.283 17.745,16.877 17.73,16.119 17.395,15.594 16.77,15.594 "/>
<polyline fill="#A0D07F" points="1.121,3.02 0.99,3.297 1.5,3.297 1.704,3.689 1.732,4.154 1.529,4.506 0.902,4.346 0.932,4.592 
	1.238,4.768 1.268,5.072 1.646,5.072 1.631,4.709 2.098,4.301 2.083,3.543 1.748,3.02 1.121,3.02 "/>
<polyline fill="#A0D07F" points="1.633,15.48 1.502,15.758 2.012,15.758 2.216,16.15 2.245,16.617 2.041,16.967 1.415,16.807 
	1.443,17.055 1.75,17.229 1.779,17.533 2.158,17.533 2.143,17.17 2.609,16.762 2.596,16.006 2.26,15.48 1.633,15.48 "/>
<polyline fill="#A0D07F" points="4.486,0 4.643,0.242 4.658,1.002 4.191,1.408 4.206,1.773 3.827,1.773 3.798,1.467 3.492,1.293 
	3.463,1.045 4.09,1.205 4.294,0.855 4.264,0.389 4.063,0 4.486,0 "/>
<polyline fill="#A0D07F" points="15.916,3.02 15.784,3.297 16.294,3.297 16.498,3.689 16.527,4.154 16.323,4.506 15.697,4.346 
	15.727,4.592 16.032,4.768 16.061,5.072 16.439,5.072 16.425,4.709 16.893,4.301 16.877,3.543 16.542,3.02 15.916,3.02 "/>
<polyline fill="#A0D07F" points="6.898,15.063 7.467,15.076 7.729,15.689 7.714,16.154 7.408,16.65 7.059,16.375 6.622,16.389 
	7.146,16.898 7.146,17.35 7.611,17.35 7.583,16.885 8.225,16.301 8.238,15.398 7.729,14.814 6.971,14.83 6.898,15.063 "/>
<polyline fill="#A0D07F" points="21.947,3.588 21.816,3.865 22.326,3.865 22.529,4.258 22.559,4.725 22.355,5.074 21.729,4.914 
	21.758,5.16 22.064,5.336 22.093,5.643 22.473,5.643 22.457,5.277 22.923,4.869 22.909,4.111 22.574,3.588 21.947,3.588 "/>
<polyline fill="#A0D07F" points="21.663,10.529 21.531,10.807 22.041,10.807 22.245,11.199 22.273,11.666 22.07,12.016 
	21.443,11.855 21.473,12.104 21.779,12.277 21.809,12.584 22.188,12.584 22.172,12.221 22.639,11.813 22.624,11.055 22.289,10.529 
	21.663,10.529 "/>
<polyline fill="#A0D07F" points="25.078,9.791 24.945,10.066 25.455,10.066 25.66,10.461 25.689,10.926 25.484,11.275 
	24.857,11.115 24.887,11.363 25.193,11.537 25.222,11.844 25.601,11.844 25.587,11.48 26.052,11.072 26.039,10.314 25.703,9.791 
	25.078,9.791 "/>
<polyline fill="#A0D07F" points="30.478,10.023 30.287,10.023 30.257,9.719 29.951,9.543 29.921,9.295 30.478,9.438 30.478,10.023 
	"/>
<polyline fill="#A0D07F" points="30.478,8.246 30.009,8.246 30.14,7.969 30.478,7.969 30.478,8.246 "/>
<polyline fill="#A0D07F" points="0,9.438 0.07,9.455 0.275,9.105 0.245,8.639 0.042,8.246 0,8.246 0,7.969 0.289,7.969 0.624,8.494 
	0.639,9.252 0.173,9.658 0.188,10.023 0,10.023 0,9.438 "/>
</svg>
