<?xml version="1.0" encoding="utf-8"?>
<!-- Generator: Adobe Illustrator 14.0.0, SVG Export Plug-In  -->
<!DOCTYPE svg PUBLIC "-//W3C//DTD SVG 1.1//EN" "http://www.w3.org/Graphics/SVG/1.1/DTD/svg11.dtd" [
	<!ENTITY ns_flows "http://ns.adobe.com/Flows/1.0/">
]>
<svg version="1.1"
	 xmlns="http://www.w3.org/2000/svg" xmlns:xlink="http://www.w3.org/1999/xlink" xmlns:a="http://ns.adobe.com/AdobeSVGViewerExtensions/3.0/"
	 x="0px" y="0px" width="14px" height="7px" viewBox="-0.561 -0.941 14 7" enable-background="new -0.561 -0.941 14 7"
	 xml:space="preserve">
<defs>
	<symbol  id="Deleted_Symbol" viewBox="-2.126 -2.126 4.252 4.252">
		<path d="M2.126,0.573v1.553h-1.56V1.543h-1.133v0.583h-1.56V0.573h0.592v-1.147h-0.592v-1.552h1.56v0.588h1.133v-0.588h1.56v1.552
			H1.528v1.147H2.126z M1.157-0.574H0.566v-0.588h-1.133v0.588h-0.597v1.147h0.597v0.594h1.133V0.573h0.591V-0.574z"/>
	</symbol>
	<symbol  id="Mine_x5F_PeatCutting_x5F_1A010P004" viewBox="-6.52 -2.976 13.039 5.951">
		<polygon fill="none" stroke="#000000" stroke-width="0.2835" points="-2.127,-2.834 -6.378,-2.834 -6.378,0 -2.127,0 		"/>
		<polygon fill="none" stroke="#000000" stroke-width="0.2835" points="2.125,-2.834 -2.127,-2.834 -2.127,0 2.125,0 		"/>
		<polygon fill="none" stroke="#000000" stroke-width="0.2835" points="6.378,-2.834 2.125,-2.834 2.125,0 6.378,0 		"/>
		<polygon fill="none" stroke="#000000" stroke-width="0.2835" points="0,0 -4.252,0 -4.252,2.834 0,2.834 		"/>
		<polygon fill="none" stroke="#000000" stroke-width="0.2835" points="4.252,0 0,0 0,2.834 4.252,2.834 		"/>
	</symbol>
</defs>
<rect x="0.143" y="2.976" fill="#FFFFFF" width="2.734" height="2.771"/>
<rect x="2.299" y="0.184" fill="#FFFFFF" width="8.422" height="5.625"/>
<rect x="9.33" y="2.997" fill="#FFFFFF" width="3.563" height="2.75"/>
<use xlink:href="#Mine_x5F_PeatCutting_x5F_1A010P004"  width="13.039" height="5.951" x="-6.52" y="-2.976" transform="matrix(1 0 0 -1 6.5195 2.9756)" overflow="visible"/>
</svg>
