<?xml version="1.0" encoding="utf-8"?>
<!-- Generator: Adobe Illustrator 14.0.0, SVG Export Plug-In  -->
<!DOCTYPE svg PUBLIC "-//W3C//DTD SVG 1.1//EN" "http://www.w3.org/Graphics/SVG/1.1/DTD/svg11.dtd" [
	<!ENTITY ns_flows "http://ns.adobe.com/Flows/1.0/">
]>
<svg version="1.1"
	 xmlns="http://www.w3.org/2000/svg" xmlns:xlink="http://www.w3.org/1999/xlink" xmlns:a="http://ns.adobe.com/AdobeSVGViewerExtensions/3.0/"
	 x="0px" y="0px" width="6px" height="11px" viewBox="-0.313 -0.525 6 11" enable-background="new -0.313 -0.525 6 11"
	 xml:space="preserve">
<defs>
	<symbol  id="Deleted_Symbol" viewBox="-2.126 -2.126 4.252 4.252">
		<path d="M2.126,0.573v1.553h-1.56V1.543h-1.133v0.583h-1.56V0.573h0.592v-1.147h-0.592v-1.552h1.56v0.588h1.133v-0.588h1.56v1.552
			H1.528v1.147H2.126z M1.157-0.574H0.566v-0.588h-1.133v0.588h-0.597v1.147h0.597v0.594h1.133V0.573h0.591V-0.574z"/>
	</symbol>
	<symbol  id="Deleted_Symbol_1" viewBox="-0.835 -3.25 1.671 6.501">
		<polygon points="0.625,2.878 0.797,3.251 0.797,3.251 0.792,3.114 0.81,3.004 0.819,2.895 0.81,2.758 0.732,2.566 0.717,2.507 
			0.717,2.427 0.75,2.274 0.788,2.117 0.819,2.023 0.835,1.933 0.835,1.821 0.81,1.706 0.701,1.436 0.651,1.333 0.548,1.203 
			0.458,1.109 0.321,1.018 0.176,0.963 0.041,0.937 -0.029,0.933 -0.029,0.933 -0.041,1.134 -0.041,1.134 0.015,1.138 0.11,1.153 
			0.213,1.193 0.312,1.26 0.381,1.33 0.462,1.436 0.5,1.511 0.604,1.761 0.62,1.841 0.62,1.918 0.607,1.979 0.577,2.069 
			0.539,2.234 0.5,2.406 0.5,2.531 0.527,2.627 		"/>
		<polygon points="-0.029,0.933 -0.212,0.943 -0.327,0.966 -0.587,1.083 -0.689,1.163 -0.76,1.244 -0.804,1.324 -0.819,1.395 
			-0.835,1.48 -0.835,1.604 -0.78,1.781 -0.63,2.014 -0.474,2.214 -0.321,2.366 -0.187,2.526 -0.1,2.633 0.003,2.724 0.272,2.918 
			0.539,3.101 0.797,3.251 0.797,3.251 0.625,2.878 0.625,2.878 0.436,2.779 0.402,2.758 0.144,2.571 0.063,2.494 -0.014,2.406 
			-0.16,2.234 -0.306,2.091 -0.452,1.902 -0.582,1.701 -0.619,1.576 -0.619,1.501 -0.607,1.436 -0.598,1.391 -0.576,1.354 
			-0.533,1.306 -0.468,1.253 -0.256,1.159 -0.175,1.138 -0.041,1.134 -0.041,1.134 		"/>
		<path d="M-0.078-3.004c0.247,0,0.43-0.1,0.551-0.246v3.779l-0.26,0.243h-0.54l-0.261-0.243v-3.741
			C-0.467-3.089-0.301-3.004-0.078-3.004z"/>
	</symbol>
	<symbol  id="New_Symbol" viewBox="-2.834 -5.058 5.669 10.115">
		<g>
			<polygon points="0.362,-4.491 0.362,-4.502 0.362,-4.511 0.361,-4.521 0.361,-4.53 0.36,-4.542 0.359,-4.551 0.358,-4.56 
				0.357,-4.57 0.355,-4.579 0.354,-4.591 0.352,-4.6 0.35,-4.608 0.348,-4.619 0.346,-4.628 0.343,-4.638 0.34,-4.647 
				0.337,-4.657 0.334,-4.667 0.331,-4.677 0.328,-4.686 0.324,-4.694 0.321,-4.704 0.317,-4.714 0.313,-4.723 0.309,-4.73 
				0.305,-4.739 0.301,-4.749 0.296,-4.759 0.292,-4.767 0.286,-4.775 0.281,-4.783 0.276,-4.791 0.271,-4.8 0.265,-4.809 
				0.26,-4.816 0.253,-4.824 0.248,-4.832 0.242,-4.84 0.236,-4.849 0.229,-4.856 0.223,-4.864 0.217,-4.87 0.21,-4.878 
				0.203,-4.885 0.196,-4.892 0.189,-4.899 0.182,-4.906 0.174,-4.913 0.167,-4.919 0.16,-4.926 0.152,-4.931 0.144,-4.938 
				0.137,-4.944 0.129,-4.95 0.12,-4.955 0.112,-4.962 0.104,-4.967 0.096,-4.972 0.087,-4.978 0.079,-4.983 0.07,-4.987 
				0.061,-4.992 0.053,-4.996 0.043,-5.001 0.035,-5.005 0.025,-5.009 0.017,-5.013 0.008,-5.017 -0.001,-5.021 -0.011,-5.024 
				-0.02,-5.028 -0.03,-5.03 -0.039,-5.033 -0.048,-5.036 -0.059,-5.038 -0.068,-5.041 -0.078,-5.044 -0.087,-5.046 -0.097,-5.048 
				-0.106,-5.05 -0.116,-5.052 -0.126,-5.053 -0.136,-5.054 -0.146,-5.056 -0.156,-5.056 -0.166,-5.057 -0.175,-5.057 
				-0.186,-5.058 -0.195,-5.058 -0.205,-5.058 -0.215,-5.058 -0.225,-5.058 -0.235,-5.057 -0.244,-5.057 -0.254,-5.056 
				-0.264,-5.056 -0.274,-5.054 -0.284,-5.053 -0.294,-5.052 -0.304,-5.05 -0.313,-5.048 -0.323,-5.046 -0.333,-5.044 
				-0.342,-5.041 -0.352,-5.038 -0.361,-5.036 -0.371,-5.033 -0.38,-5.03 -0.39,-5.028 -0.399,-5.024 -0.408,-5.021 -0.417,-5.017 
				-0.427,-5.013 -0.436,-5.009 -0.444,-5.005 -0.454,-5.001 -0.462,-4.996 -0.471,-4.992 -0.479,-4.987 -0.488,-4.983 
				-0.497,-4.978 -0.505,-4.972 -0.514,-4.967 -0.522,-4.962 -0.53,-4.955 -0.539,-4.95 -0.546,-4.944 -0.554,-4.938 -0.562,-4.931 
				-0.569,-4.926 -0.577,-4.919 -0.584,-4.913 -0.592,-4.906 -0.599,-4.899 -0.606,-4.892 -0.613,-4.885 -0.62,-4.878 -0.626,-4.87 
				-0.633,-4.864 -0.64,-4.856 -0.646,-4.849 -0.652,-4.84 -0.658,-4.832 -0.664,-4.824 -0.669,-4.816 -0.675,-4.809 -0.681,-4.8 
				-0.686,-4.791 -0.691,-4.783 -0.696,-4.775 -0.701,-4.767 -0.706,-4.759 -0.71,-4.749 -0.715,-4.739 -0.719,-4.73 -0.723,-4.723 
				-0.727,-4.714 -0.731,-4.704 -0.734,-4.694 -0.738,-4.686 -0.741,-4.677 -0.744,-4.667 -0.747,-4.657 -0.75,-4.647 
				-0.752,-4.638 -0.755,-4.628 -0.757,-4.619 -0.76,-4.608 -0.762,-4.6 -0.763,-4.591 -0.765,-4.579 -0.767,-4.57 -0.768,-4.56 
				-0.769,-4.551 -0.77,-4.542 -0.771,-4.53 -0.771,-4.521 -0.772,-4.511 -0.772,-4.502 -0.772,-4.491 -0.772,-4.481 -0.772,-4.472 
				-0.771,-4.462 -0.771,-4.452 -0.77,-4.442 -0.769,-4.432 -0.768,-4.423 -0.767,-4.412 -0.765,-4.403 -0.763,-4.394 
				-0.762,-4.383 -0.76,-4.374 -0.757,-4.364 -0.755,-4.354 -0.752,-4.345 -0.75,-4.335 -0.747,-4.326 -0.744,-4.317 -0.741,-4.308 
				-0.738,-4.297 -0.734,-4.288 -0.731,-4.28 -0.727,-4.271 -0.723,-4.261 -0.719,-4.252 -0.715,-4.243 -0.71,-4.233 -0.706,-4.226 
				-0.701,-4.216 -0.696,-4.208 -0.691,-4.199 -0.686,-4.191 -0.681,-4.183 -0.675,-4.174 -0.669,-4.166 -0.664,-4.158 
				-0.658,-4.15 -0.652,-4.142 -0.646,-4.134 -0.64,-4.126 -0.633,-4.12 -0.626,-4.112 -0.62,-4.105 -0.613,-4.097 -0.606,-4.091 
				-0.599,-4.084 -0.592,-4.077 -0.584,-4.069 -0.577,-4.063 -0.569,-4.058 -0.562,-4.052 -0.554,-4.044 -0.546,-4.039 
				-0.539,-4.032 -0.53,-4.027 -0.522,-4.022 -0.514,-4.016 -0.505,-4.011 -0.497,-4.007 -0.488,-4.001 -0.479,-3.995 
				-0.471,-3.991 -0.462,-3.986 -0.454,-3.982 -0.444,-3.978 -0.436,-3.974 -0.427,-3.97 -0.417,-3.967 -0.408,-3.962 
				-0.399,-3.958 -0.39,-3.956 -0.38,-3.952 -0.371,-3.949 -0.361,-3.946 -0.352,-3.944 -0.342,-3.941 -0.333,-3.938 -0.323,-3.938 
				-0.313,-3.935 -0.304,-3.934 -0.294,-3.933 -0.284,-3.93 -0.274,-3.929 -0.264,-3.929 -0.254,-3.927 -0.244,-3.926 
				-0.235,-3.926 -0.225,-3.926 -0.215,-3.925 -0.205,-3.925 -0.195,-3.925 -0.186,-3.926 -0.175,-3.926 -0.166,-3.926 
				-0.156,-3.927 -0.146,-3.929 -0.136,-3.929 -0.126,-3.93 -0.116,-3.933 -0.106,-3.934 -0.097,-3.935 -0.087,-3.938 
				-0.078,-3.938 -0.068,-3.941 -0.059,-3.944 -0.048,-3.946 -0.039,-3.949 -0.03,-3.952 -0.02,-3.956 -0.011,-3.958 -0.001,-3.962 
				0.008,-3.967 0.017,-3.97 0.025,-3.974 0.035,-3.978 0.043,-3.982 0.053,-3.986 0.061,-3.991 0.07,-3.995 0.079,-4.001 
				0.087,-4.007 0.096,-4.011 0.104,-4.016 0.112,-4.022 0.12,-4.027 0.129,-4.032 0.137,-4.039 0.144,-4.044 0.152,-4.052 
				0.16,-4.058 0.167,-4.063 0.174,-4.069 0.182,-4.077 0.189,-4.084 0.196,-4.091 0.203,-4.097 0.21,-4.105 0.217,-4.112 
				0.223,-4.12 0.229,-4.126 0.236,-4.134 0.242,-4.142 0.248,-4.15 0.253,-4.158 0.26,-4.166 0.265,-4.174 0.271,-4.183 
				0.276,-4.191 0.281,-4.199 0.286,-4.208 0.292,-4.216 0.296,-4.226 0.301,-4.233 0.305,-4.243 0.309,-4.252 0.313,-4.261 
				0.317,-4.271 0.321,-4.28 0.324,-4.288 0.328,-4.297 0.331,-4.308 0.334,-4.317 0.337,-4.326 0.34,-4.335 0.343,-4.345 
				0.346,-4.354 0.348,-4.364 0.35,-4.374 0.352,-4.383 0.354,-4.394 0.355,-4.403 0.357,-4.412 0.358,-4.423 0.359,-4.432 
				0.36,-4.442 0.361,-4.452 0.361,-4.462 0.362,-4.472 0.362,-4.481 			"/>
		</g>
		<g>
			<g id="XMLID_5_">
				<g>
					<polygon points="0.417,2.332 0.016,2.709 -0.417,2.298 -2.45,0.412 -2.834,0.875 -0.417,3.086 -2.002,4.612 -1.617,5.058 
						0.064,3.532 1.73,5.058 2.114,4.612 0.497,3.138 2.835,0.926 2.418,0.412 					"/>
				</g>
				<g>
					
						<line fill="none" stroke="#000000" stroke-width="0.4838" stroke-miterlimit="1" x1="-2.402" y1="-3.446" x2="2.258" y2="-3.446"/>
					<polyline fill="none" stroke="#000000" stroke-width="0.4838" stroke-miterlimit="1" points="-1.329,-3.223 -0.417,2.298 
						-0.368,2.641 					"/>
					<polyline fill="none" stroke="#000000" stroke-width="0.4838" stroke-miterlimit="1" points="1.137,-3.274 0.417,2.332 
						0.384,2.589 					"/>
				</g>
			</g>
		</g>
	</symbol>
</defs>
<path fill="#FFFFFF" d="M3.991,8.127C3.435,6.54,3.406,4.534,3.406,2.865c0-0.225-0.235-0.283-0.383-0.194
	C3.025,2.59,3.029,2.508,3.031,2.428c0.007-0.323-0.493-0.322-0.5,0c-0.01,0.508-0.044,1.014-0.074,1.521
	C2.223,3.96,2.183,4.227,2.313,4.356C2.31,4.398,2.323,4.433,2.337,4.472C2.23,4.487,2.127,4.541,2.109,4.678
	c-0.045,0.686-0.313,1.279-0.46,1.934c-0.109,0.49-0.03,1.067-0.024,1.566c0.002,0.193,0.225,0.281,0.37,0.22
	c0.04,0.024,0.083,0.044,0.13,0.046c0.544,0.029,1.081,0.018,1.625,0C3.903,8.438,4.047,8.286,3.991,8.127z"/>
<use xlink:href="#New_Symbol"  width="5.669" height="10.115" x="-2.834" y="-5.058" transform="matrix(1 0 0 -1 2.834 5.0576)" overflow="visible"/>
<path d="M1.469,8.131c-0.322,0-0.322,0.5,0,0.5S1.791,8.131,1.469,8.131z"/>
</svg>
