<?xml version="1.0" encoding="utf-8"?>
<!-- Generator: Adobe Illustrator 14.0.0, SVG Export Plug-In  -->
<!DOCTYPE svg PUBLIC "-//W3C//DTD SVG 1.1//EN" "http://www.w3.org/Graphics/SVG/1.1/DTD/svg11.dtd" [
	<!ENTITY ns_flows "http://ns.adobe.com/Flows/1.0/">
]>
<svg version="1.1"
	 xmlns="http://www.w3.org/2000/svg" xmlns:xlink="http://www.w3.org/1999/xlink" xmlns:a="http://ns.adobe.com/AdobeSVGViewerExtensions/3.0/"
	 x="0px" y="0px" width="6px" height="6px" viewBox="-0.3662109 -0.7158203 6 6" enable-background="new -0.3662109 -0.7158203 6 6"
	 xml:space="preserve">
<defs>
	<symbol  id="Mine_x5F_abandoned_x5F_1A010P002" viewBox="-2.6696389 -2.5734146 5.3390689 5.1466546">
		<path fill-rule="evenodd" clip-rule="evenodd" d="M1.6674805-0.734375L0.6645508,0.2685547l1.8046875,1.8027344
			L1.9672852,2.5732422L0.1655273,0.7675781l-1.8051758,1.8056641l-0.5019531-0.5019531l1.8037109-1.8037109l-1.1518555-1.1523438
			L-1.5117188-0.90625c-0.472168,0.3554688-0.8666992,0.8144531-1.152832,1.3320313
			c-0.1000977-1.6767578,1.2900391-3.0849609,2.9726563-2.9951172c-0.5019531,0.28125-0.9628906,0.7158203-1.296875,1.1835938
			l1.1523438,1.1533203l1.0029297-1.0029297L0.4643555-1.9365234l0.3007813-0.3007813L0.8911133-2.234375l0.1303711,0.0107422
			l0.159668,0.0253906l0.1640625,0.0439453c0.2617188,0.0712891,0.5825195,0.2685547,0.7700195,0.4648438
			C2.2866211-1.5234375,2.4663086-1.2539063,2.543457-1.0292969l0.0439453,0.1220703l0.0258789,0.0986328l0.0249023,0.1025391
			l0.0200195,0.1367188l0.0112305,0.2363281L2.3681641-0.0322266L1.6674805-0.734375"/>
	</symbol>
</defs>
<use xlink:href="#Mine_x5F_abandoned_x5F_1A010P002"  width="5.3390689" height="5.1466546" x="-2.6696389" y="-2.5734146" transform="matrix(1 0 0 -1 2.6694336 2.5732422)" overflow="visible"/>
</svg>
