<?xml version="1.0" encoding="utf-8"?>
<!-- Generator: Adobe Illustrator 14.0.0, SVG Export Plug-In  -->
<!DOCTYPE svg PUBLIC "-//W3C//DTD SVG 1.1//EN" "http://www.w3.org/Graphics/SVG/1.1/DTD/svg11.dtd" [
	<!ENTITY ns_flows "http://ns.adobe.com/Flows/1.0/">
]>
<svg version="1.1"
	 xmlns="http://www.w3.org/2000/svg" xmlns:xlink="http://www.w3.org/1999/xlink" xmlns:a="http://ns.adobe.com/AdobeSVGViewerExtensions/3.0/"
	 x="0px" y="0px" width="8px" height="5px" viewBox="-0.368 -0.721 8 5" enable-background="new -0.368 -0.721 8 5"
	 xml:space="preserve">
<defs>
</defs>
<path fill="#FFFFFF" d="M3,1.61C2.734,1.513,2.471,1.422,2.219,1.293C1.952,1.158,1.73,0.952,1.463,0.816
	C1.372,0.771,1.27,0.761,1.169,0.769C1.166,0.75,1.164,0.728,1.161,0.709C1.053,0.074,0.089,0.344,0.197,0.975
	C0.253,1.303,0.25,1.635,0.236,1.967c-0.01,0.236,0.012,0.564-0.098,0.778c-0.271,0.527,0.35,0.958,0.785,0.606
	c0.3-0.243,0.565-0.396,0.955-0.431c0.438-0.039,0.846-0.214,1.241-0.397C3.55,2.325,3.362,1.743,3,1.61z"/>
<path fill="#FFFFFF" d="M7.429,2.029C7.423,1.675,7.469,1.322,7.46,0.967C7.45,0.502,6.937,0.343,6.607,0.613
	c-0.243,0.2-0.405,0.341-0.702,0.475c-0.396,0.178-0.8,0.314-1.218,0.428C4.065,1.685,4.33,2.649,4.953,2.48
	c0.072-0.02,0.143-0.046,0.214-0.067c0.041,0.118,0.104,0.229,0.197,0.298c0.402,0.295,0.992,0.275,1.321,0.656
	c0.282,0.327,0.876,0.069,0.854-0.354C7.521,2.683,7.435,2.36,7.429,2.029z"/>
<line fill="none" stroke="#010101" stroke-width="0.5254" x1="0.263" y1="3.946" x2="0.263" y2="0.005"/>
<line fill="none" stroke="#010101" stroke-width="0.5254" x1="7.355" y1="3.946" x2="7.355" y2="0.005"/>
<line fill="none" stroke="#010101" stroke-width="0.5254" x1="0.392" y1="0.238" x2="7.212" y2="3.713"/>
<path fill="none" stroke="#010101" stroke-width="0.5254" d="M7.227,0.234l-6.85,3.49L7.227,0.234z"/>
</svg>
