<?xml version="1.0" encoding="utf-8"?>
<!-- Generator: Adobe Illustrator 14.0.0, SVG Export Plug-In  -->
<!DOCTYPE svg PUBLIC "-//W3C//DTD SVG 1.1//EN" "http://www.w3.org/Graphics/SVG/1.1/DTD/svg11.dtd" [
	<!ENTITY ns_flows "http://ns.adobe.com/Flows/1.0/">
]>
<svg version="1.1"
	 xmlns="http://www.w3.org/2000/svg" xmlns:xlink="http://www.w3.org/1999/xlink" xmlns:a="http://ns.adobe.com/AdobeSVGViewerExtensions/3.0/"
	 x="0px" y="0px" width="14px" height="14px" viewBox="-0.646 0.632 14 14" enable-background="new -0.646 0.632 14 14"
	 xml:space="preserve">
<defs>
</defs>
<g>
	<g>
		<path fill="#FFFFFF" d="M1.885,1.632c0.167,1.409,0.603,2.827,1.237,4.095c0.119,0.237,0.453,0.105,0.466-0.126
			C3.63,4.854,3.484,4.219,3.235,3.515C3.014,2.886,2.343,2.136,2.276,1.507C2.134,1.566,1.991,1.625,1.849,1.684
			c0.508,0.451,1.095,0.522,1.755,0.604c0-0.167,0-0.333,0-0.5C3.292,1.801,2.985,1.757,2.686,1.657
			C2.642,1.817,2.598,1.979,2.553,2.139c1.118,0.237,3.034,0.472,4.024-0.309c0.062-0.049,0.094-0.17,0.064-0.243
			C6.626,1.549,6.61,1.511,6.595,1.472c-0.073-0.181-0.265-0.24-0.418-0.11C6.109,1.419,6.042,1.477,5.974,1.534
			c-0.234,0.198,0.064,0.5,0.303,0.393C6.08,2.015,6.873,2.182,6.979,2.179c0.259-0.006,0.327-0.327,0.126-0.466
			C6.987,1.622,6.868,1.531,6.75,1.44C6.648,1.571,6.547,1.702,6.447,1.833c0.521,0.343,1.387,0.494,2.006,0.512
			c0.423,0.013,1.16,0.007,1.542-0.2c1.042-0.562,0.769,1.021,0.765,1.69c0.125-0.072,0.251-0.144,0.376-0.216
			c-0.237-0.122-0.391-0.255-0.653-0.307c-0.198-0.039-0.415,0.17-0.282,0.367c0.383,0.57,1.092,0.731,1.728,0.881
			c0.195,0.046,0.343-0.119,0.308-0.308c-0.129-0.686-0.667-1.18-0.781-1.891c-0.161,0.044-0.322,0.088-0.482,0.133
			c0.095,0.466,0.11,0.938,0.188,1.406c0.106,0.641,0.403,1.154,0.319,1.84c0.155-0.042,0.311-0.084,0.466-0.126
			c-0.063-0.094-0.125-0.188-0.188-0.281c-0.112-0.168-0.317-0.152-0.432,0c-0.98,1.299-2.24,2.355-3.061,3.771
			c-0.294,0.507-0.506,1.07-0.715,1.616c-0.102,0.266-0.333,1.523-0.471,0.719c-0.051-0.296-0.469-0.196-0.491,0.066
			c-0.055,0.652-0.127,1.236-0.419,1.843c-0.093,0.192,0.058,0.426,0.282,0.367c0.756-0.2,1.496-0.479,2.179-0.863
			c0.642-0.36,1.114-1.024,1.682-1.483c-0.131-0.101-0.262-0.202-0.393-0.303c-0.123,0.141-0.222,0.297-0.297,0.469
			c-0.151,0.284,0.267,0.53,0.432,0.252c0.141-0.262,0.311-0.506,0.508-0.73c-0.142-0.059-0.285-0.118-0.427-0.177
			c-0.005,0.073-0.01,0.146-0.016,0.219c-0.015,0.214,0.286,0.335,0.427,0.177c0.434-0.489,0.757-1.025,1.007-1.631
			c0.267-0.648,0.713-1.197,0.785-1.897c0.056-0.548,0.305-3.121-0.296-3.442c-0.484-0.259-1.132-0.203-1.667-0.244
			C9.397,3.986,8.444,3.751,7.463,3.695c-0.873-0.05-1.708-0.323-2.579-0.409C4.087,3.207,3.432,3.293,2.764,2.725
			c-0.305-0.26-0.462-0.611-0.616-0.968C2.084,1.609,1.855,1.597,1.755,1.706c-0.478,0.516-0.567,1.179-0.83,1.813
			c0.164,0.022,0.328,0.044,0.491,0.066c-0.005-0.078-0.01-0.156-0.016-0.234C1.385,3.119,1.057,2.989,0.935,3.225
			C0.323,4.41,0.377,5.777,0.432,7.07c0.164-0.022,0.327-0.044,0.491-0.066C0.902,6.951,0.881,6.899,0.861,6.847
			C0.743,6.552,0.259,6.68,0.378,6.98C0.399,7.032,0.42,7.084,0.441,7.136C0.539,7.381,0.945,7.373,0.932,7.07
			c-0.05-1.18-0.127-2.505,0.435-3.593C1.211,3.435,1.056,3.393,0.901,3.351c0.005,0.078,0.01,0.156,0.016,0.234
			c0.02,0.295,0.385,0.323,0.491,0.066c0.219-0.527,0.296-1.155,0.701-1.593C1.978,2.042,1.847,2.025,1.716,2.008
			c0.356,0.826,1.06,1.703,2.053,1.751c1.748,0.083,3.566,0.34,5.296,0.639C9.774,4.52,10.49,4.57,11.207,4.63
			c0.809,0.069,0.622,0.992,0.644,1.654c0.055,1.629-0.55,3.39-1.658,4.64c0.142,0.059,0.285,0.118,0.427,0.177
			c0.005-0.073,0.01-0.146,0.016-0.219c0.015-0.209-0.29-0.343-0.427-0.177c-0.22,0.268-0.408,0.532-0.586,0.832
			c0.144,0.084,0.288,0.168,0.432,0.252c0.075-0.171,0.174-0.327,0.297-0.469c0.183-0.245-0.19-0.466-0.393-0.303
			c-0.55,0.445-1.01,0.983-1.581,1.405c-0.555,0.411-1.398,0.638-2.059,0.812c0.094,0.123,0.188,0.245,0.282,0.367
			c0.349-0.725,0.419-1.285,0.487-2.095c-0.164,0.022-0.327,0.044-0.491,0.066c0.156,0.911,0.799,1.113,1.15,0.151
			c0.393-1.079,0.757-2.118,1.396-3.089c0.728-1.105,1.814-1.989,2.614-3.05c-0.144,0-0.288,0-0.432,0
			c0.063,0.094,0.125,0.188,0.188,0.281c0.146,0.22,0.436,0.117,0.466-0.126c0.142-1.156-0.294-2.254-0.524-3.379
			c-0.065-0.32-0.532-0.179-0.482,0.133c0.112,0.7,0.653,1.21,0.781,1.891c0.103-0.103,0.205-0.205,0.308-0.308
			c-0.46-0.108-1.148-0.233-1.429-0.65c-0.094,0.122-0.188,0.245-0.282,0.367c0.182,0.077,0.36,0.163,0.534,0.256
			c0.167,0.086,0.375-0.019,0.376-0.216c0.005-0.859,0.127-1.766-0.507-2.452c-0.062-0.067-0.158-0.084-0.243-0.064
			c-0.385,0.09-0.623,0.35-1.035,0.444C9.436,1.771,7.999,1.975,7.928,1.826C7.756,1.464,6.99,1.592,6.699,1.401
			c-0.236-0.155-0.52,0.208-0.303,0.393c0.167,0.142,0.277,0.228,0.457,0.352C6.895,1.99,6.937,1.834,6.979,1.679
			C6.761,1.695,6.593,1.625,6.477,1.467c-0.084-0.087-0.2-0.085-0.303-0.039C6.124,1.45,6.074,1.472,6.025,1.495
			c0.101,0.131,0.202,0.262,0.303,0.393C6.396,1.83,6.463,1.772,6.531,1.715c-0.139-0.037-0.278-0.074-0.418-0.11
			C6.167,1.74,2.917,1.706,2.686,1.657C2.368,1.589,2.253,2.027,2.553,2.139c0.364,0.135,0.658,0.139,1.051,0.149
			c0.331,0.009,0.31-0.461,0-0.5C3.098,1.76,2.631,1.608,2.203,1.331C2.057,1.201,1.75,1.272,1.776,1.507
			C1.82,1.917,2.083,2.18,2.264,2.55C2.74,3.53,3.151,4.491,3.088,5.601c0.155-0.042,0.311-0.084,0.466-0.126
			C2.969,4.305,2.54,2.939,2.385,1.632C2.348,1.316,1.847,1.313,1.885,1.632L1.885,1.632z"/>
	</g>
</g>
<g>
	<g>
		<path fill="#FFFFFF" d="M0.275,6.895c1.027,0.753,2.588,1.035,3.79,1.387c0.821,0.241,1.632,0.52,2.47,0.694
			c0.761,0.157,1.399,0.728,2.127,1.007C8.964,10.099,9.093,9.615,8.795,9.5C8.228,9.283,7.653,8.73,7.074,8.591
			C6.242,8.392,5.426,8.171,4.607,7.923c-1.281-0.389-2.985-0.658-4.08-1.46C0.267,6.272,0.018,6.707,0.275,6.895L0.275,6.895z"/>
	</g>
</g>
<g>
	<g>
		<path fill="#FFFFFF" d="M9.573,12.21c0.322,0,0.322-0.5,0-0.5S9.25,12.21,9.573,12.21L9.573,12.21z"/>
	</g>
</g>
<g>
	<g>
		<path fill="#FFFFFF" d="M9.713,12.195c0.322,0,0.322-0.5,0-0.5S9.391,12.195,9.713,12.195L9.713,12.195z"/>
	</g>
</g>
<g>
	<g>
		<path fill="#FFFFFF" d="M5.854,1.96c0.322,0,0.322-0.5,0-0.5S5.532,1.96,5.854,1.96L5.854,1.96z"/>
	</g>
</g>
<g>
	<g>
		<path fill="#FFFFFF" d="M11.167,2.476c0.322,0,0.322-0.5,0-0.5S10.844,2.476,11.167,2.476L11.167,2.476z"/>
	</g>
</g>
<g>
	<g>
		<path fill="#FFFFFF" d="M0.253,7.324c0.125,0.572,0.379,1.121,0.531,1.688C0.868,9.322,1.351,9.19,1.267,8.878
			C1.115,8.312,0.86,7.763,0.736,7.191C0.667,6.876,0.185,7.009,0.253,7.324L0.253,7.324z"/>
	</g>
</g>
<g>
	<g>
		<path fill="#FFFFFF" d="M0.841,9.243c1.077,2.068,2.842,4.107,5.274,4.475c0.121,0.018,0.286-0.029,0.308-0.175
			c0.294-1.979,0.168-4.096,0.228-6.098c0.055-1.837,0.527-3.796,0.022-5.598c-0.063-0.223-0.441-0.255-0.482,0
			C5.914,3.583,5.984,5.396,5.967,7.149C5.95,8.942,5.6,10.918,5.957,12.683c0.037,0.181,0.297,0.246,0.418,0.11
			c0.533-0.597,1.039-1.22,1.563-1.828c-0.139-0.081-0.278-0.162-0.418-0.243c-0.189,0.68-0.406,1.488-0.725,2.112
			c0.152,0.02,0.305,0.04,0.457,0.06c0-0.242,0-0.484,0-0.727c-0.164-0.022-0.328-0.044-0.491-0.066
			c-0.024,0.385-0.054,0.657,0.183,0.958c0.115,0.146,0.382,0.061,0.418-0.11c0.07-0.334,0.123-0.668,0.203-1
			c-0.164-0.022-0.328-0.044-0.491-0.066c-0.033,0.333-0.032,0.636,0,0.969c0.019,0.198,0.268,0.355,0.427,0.177
			c0.308-0.347,0.41-0.705,0.602-1.129c-0.155-0.042-0.311-0.084-0.466-0.126C7.634,12.125,7.58,12.467,7.472,12.8
			c0.164,0.022,0.328,0.044,0.491,0.066c0.055-0.542,0.247-1.006,0.266-1.547c0.01-0.28-0.432-0.344-0.491-0.066
			c-0.09,0.422-0.165,0.845-0.266,1.266c0.164,0.022,0.328,0.044,0.491,0.066c0.046-0.676,0.176-1.341,0.234-2.016
			c-0.167,0-0.333,0-0.5,0c-0.024,0.542-0.034,1.083-0.047,1.625c-0.007,0.294,0.402,0.324,0.491,0.066
			c0.215-0.622,0.469-1.222,0.756-1.815c-0.152-0.064-0.305-0.128-0.457-0.192c-0.099,0.625-0.159,1.247-0.196,1.879
			c-0.017,0.28,0.438,0.344,0.491,0.066c0.085-0.446,0.166-0.865,0.196-1.316c0.02-0.299-0.399-0.315-0.491-0.066
			c-0.176,0.478-0.338,0.938-0.537,1.409c-0.103,0.242,0.183,0.529,0.393,0.303c0.098-0.086,0.195-0.172,0.293-0.258
			c-0.114-0.114-0.228-0.228-0.342-0.342c-0.162,0.257-0.368,0.469-0.617,0.637c0.118,0.118,0.236,0.236,0.354,0.354
			c0.949-0.789,2.143-1.704,2.859-2.709c0.857-1.203,1.099-2.649,1.146-4.095c0.02-0.624-0.122-1.206-0.135-1.824
			c-0.009-0.418-0.05-0.816-0.364-1.128c-0.316-0.313-0.591-1.144-0.979-1.371c-0.23-0.135-0.974,0.132-1.06,0.136
			C7.883,1.999,6.28,1.941,4.709,1.936c-0.727-0.003-1.483,0.012-2.206-0.07C2.26,1.838,1.919,1.851,1.722,2.025
			C0.932,2.721,0.85,4.12,0.814,5.099C0.762,6.507,0.845,8.123,1.175,9.496c0.161-0.044,0.322-0.088,0.482-0.133
			c-0.35-1.102-0.48-2.167-0.429-3.324C1.065,6.061,0.902,6.083,0.738,6.105c0.113,0.666,0.279,1.3,0.524,1.93
			c0.272,0.701,0.341,1.367,0.554,2.07C1.918,10.002,2.021,9.9,2.124,9.797C2.039,9.785,1.908,8.432,1.917,8.601
			C1.774,8.66,1.632,8.719,1.49,8.778c0.629,0.638,0.393,1.214,0.592,1.937c0.098,0.355,0.432,0.615,0.635,0.903
			c0.226,0.321,0.751,0.515,1.062,0.763c0.455,0.362,0.896,0.614,1.462,0.728c0.315,0.063,0.449-0.419,0.133-0.482
			c-1.065-0.214-1.779-1.051-2.53-1.717c-0.408-0.362-0.332-0.988-0.41-1.477c-0.068-0.417-0.304-0.719-0.59-1.008
			C1.696,8.275,1.405,8.38,1.417,8.601c0.025,0.479-0.068,1.583,0.574,1.679c0.177,0.026,0.368-0.107,0.308-0.308
			C2.127,9.406,2.113,8.838,1.91,8.277C1.626,7.493,1.36,6.797,1.22,5.972C1.171,5.682,0.741,5.77,0.729,6.039
			C0.675,7.242,0.811,8.346,1.175,9.496c0.097,0.307,0.558,0.182,0.482-0.133c-0.25-1.041-1.035-6.802,0.607-7.007
			C3.16,2.244,4.187,2.434,5.094,2.437c1.333,0.005,2.667-0.033,4.001-0.021c0.391,0.004,0.712,0,1.09-0.09
			c0.193-0.046,0.339,0.421,0.411,0.545c0.623,1.083,0.902,1.986,0.892,3.243c-0.012,1.456-0.322,2.945-1.281,4.079
			c-0.719,0.851-1.719,1.658-2.578,2.371c-0.25,0.208,0.105,0.549,0.354,0.354c0.298-0.234,0.501-0.419,0.695-0.738
			c0.126-0.206-0.132-0.487-0.342-0.342c-0.192,0.132-0.236,0.166-0.395,0.336c0.131,0.101,0.262,0.202,0.393,0.303
			c0.215-0.509,0.395-1.006,0.588-1.528c-0.164-0.022-0.328-0.044-0.491-0.066c-0.036,0.398-0.095,0.793-0.179,1.184
			c0.164,0.022,0.328,0.044,0.491,0.066c0.035-0.589,0.086-1.161,0.179-1.746c0.041-0.258-0.324-0.468-0.457-0.192
			c-0.306,0.632-0.577,1.27-0.807,1.935c0.164,0.022,0.328,0.044,0.491,0.066c0.013-0.542,0.022-1.083,0.047-1.625
			c0.015-0.326-0.473-0.316-0.5,0c-0.059,0.676-0.188,1.339-0.234,2.016c-0.019,0.284,0.426,0.338,0.491,0.066
			c0.101-0.42,0.175-0.843,0.266-1.266c-0.164-0.022-0.328-0.044-0.491-0.066c-0.018,0.526-0.213,1.024-0.266,1.547
			c-0.029,0.286,0.421,0.333,0.491,0.066c0.104-0.393,0.158-0.757,0.181-1.16c0.013-0.24-0.363-0.354-0.466-0.126
			c-0.135,0.299-0.356,0.838-0.523,1.027c0.142,0.059,0.285,0.118,0.427,0.177c-0.032-0.333-0.033-0.636,0-0.969
			c0.028-0.284-0.426-0.336-0.491-0.066c-0.08,0.332-0.132,0.666-0.203,1c0.14-0.037,0.279-0.074,0.418-0.11
			c-0.121-0.154-0.047-0.429-0.036-0.604c0.018-0.281-0.434-0.342-0.491-0.066c-0.072,0.351-0.063,0.641,0,0.992
			c0.039,0.212,0.363,0.245,0.457,0.06c0.351-0.687,0.568-1.488,0.775-2.231c0.064-0.231-0.25-0.438-0.418-0.243
			c-0.521,0.606-1.031,1.232-1.563,1.828c0.139,0.037,0.278,0.074,0.418,0.11c-0.318-1.575,0.022-3.32,0.025-4.917
			C6.468,5.776,6.38,3.819,6.673,1.98c-0.161,0-0.322,0-0.482,0c0.487,1.738,0.016,3.688-0.04,5.465
			c-0.062,1.951,0.077,4.037-0.21,5.965c0.103-0.058,0.205-0.116,0.308-0.175c-2.226-0.335-3.994-2.36-4.976-4.244
			C1.124,8.705,0.692,8.958,0.841,9.243L0.841,9.243z"/>
	</g>
</g>
<g>
	<g>
		<path fill="#FFFFFF" d="M1.669,2.703c0.862,2.858,4.273,4.905,4.16,8.077c-0.044,0.399-0.093,0.798-0.147,1.196
			c0.5,0.386,0.409,0.378-0.273-0.021C4.387,11.446,3.247,10.262,3.07,9.14C2.943,8.326,2.546,7.575,2.322,6.787
			C1.996,5.637,1.976,4.288,2.026,3.101C1.715,3.185,1.405,3.27,1.094,3.354c0.659,0.958,1.158,1.809,1.96,2.692
			c1.562,1.719,2.646,3.291,2.302,5.673c0.205-0.117,0.41-0.233,0.615-0.349c-2.784-1.094-2.664-4.929-3.26-7.307
			C2.572,3.508,1.731,3.634,1.729,4.195C1.721,6.08,2.203,7.731,2.646,9.544c0.29,1.191,1.502,1.716,2.56,2.132
			c0.284,0.112,0.667-0.177,0.633-0.482C5.6,9.108,4.005,7.273,3.242,5.343C2.964,5.505,2.685,5.667,2.407,5.83
			c1.042,1.093,2.494,2.949,2.494,4.506c0.251-0.144,0.501-0.288,0.752-0.432c-1.031-0.473-1.335-1.27-1.63-2.326
			C3.851,6.958,2.886,7.221,3.06,7.843c0.373,1.337,0.755,2.312,2.089,2.924c0.334,0.153,0.752-0.024,0.752-0.432
			c0-1.987-1.453-3.813-2.787-5.213C2.786,4.779,2.089,5.131,2.278,5.609c0.701,1.774,2.344,3.697,2.56,5.586
			c0.211-0.161,0.422-0.321,0.633-0.482C2.995,9.737,2.719,6.547,2.729,4.195C2.402,4.239,2.074,4.284,1.747,4.328
			c0.722,2.88,0.69,6.721,3.958,8.005c0.231,0.091,0.579-0.098,0.615-0.349c0.248-1.709,0.314-2.888-0.769-4.292
			C4.318,6.096,3.09,4.496,1.958,2.849C1.677,2.44,1.047,2.587,1.026,3.101c-0.136,3.24,0.806,9.766,5.08,10.21
			c0.217,0.022,0.429-0.169,0.482-0.367c0.409-1.52,0.393-3.291-0.224-4.736c-0.857-2.01-3.092-3.654-3.731-5.771
			C2.447,1.821,1.482,2.084,1.669,2.703L1.669,2.703z"/>
	</g>
</g>
<g>
	<g>
		<path fill="#FFFFFF" d="M2.313,2.736c0.781,0.623,1.646,0.642,2.626,0.687c1.769,0.081,3.653,0.096,5.391-0.261
			c-0.128-0.304-0.257-0.609-0.385-0.914C9.224,2.621,7.742,2.57,6.987,2.275c-0.54-0.211-0.861,0.635-0.385,0.914
			c1.155,0.676,3.743,1.442,4.637,0.149c-0.311-0.084-0.621-0.168-0.932-0.252c0.08,1.212,0.44,2.339,0.474,3.568
			c0.045,1.633-0.643,4.379-2.623,4.747c0.188,0.245,0.376,0.489,0.564,0.734c0.543-1.239,2.139-2.165,2.394-3.526
			c0.333-1.773,0.128-3.701-0.25-5.453c-0.122-0.567-0.969-0.417-0.982,0.133c-0.057,2.378,0.241,5.649-1.088,7.716
			c0.311,0.084,0.621,0.168,0.932,0.252C9.63,10.047,9.83,8.812,9.776,7.59C9.745,6.88,9.18,4.554,9.692,3.97
			C9.414,3.896,9.135,3.823,8.856,3.75c0.649,2.008,0.731,5.004-0.793,6.576c0.285,0.118,0.569,0.236,0.854,0.354
			C8.813,8.993,8.92,7.252,8.993,5.562c0.03-0.703,0.23-1.813-0.285-2.393C8.469,2.901,7.939,3.026,7.872,3.39
			C7.628,4.706,7.711,5.979,7.341,7.3C6.976,8.606,7.056,10.014,6.7,11.296c-0.148,0.532,0.683,0.915,0.914,0.385
			c0.301-0.691,0.692-1.296,0.894-2.026c0.099-0.357-0.248-0.73-0.615-0.615C7.026,9.313,7.353,9.039,7.37,9.523
			c-0.021-0.588-0.016-1.17,0.009-1.758c0.055-1.315,0.298-2.782,0.801-4C7.853,3.721,7.525,3.677,7.198,3.632
			c0.046,1.025-0.112,2.015-0.219,3.031C6.92,7.223,7.874,7.352,7.961,6.796c0.165-1.042,0.365-2.332,0.078-3.359
			C7.995,3.279,7.858,3.121,7.69,3.088C7.206,2.993,6.662,2.896,6.36,3.411c-0.193,0.33-0.207,0.68-0.24,1.047
			c-0.11,1.208-0.316,2.2-0.838,3.312c0.305,0.04,0.609,0.08,0.914,0.12c-0.188-0.833-0.494-1.563-1.07-2.211
			C4.746,5.251,3.221,4.182,3.208,3.6C2.997,3.76,2.786,3.921,2.575,4.082c1.074,0.146,1.251,0.501,1.816,1.396
			c0.333,0.528,0.426,1.156,1.111,1.308C5.735,6.838,5.934,6.75,6.067,6.557c0.868-1.269-0.409-2.226-1.25-2.965
			C4.655,3.87,4.493,4.148,4.331,4.427c0.384,0.135,0.712,0.23,0.982,0.543c0.194,0.225,0.662,0.186,0.785-0.101
			C6.356,4.266,6.37,4.284,6.461,3.64C6.55,3.01,5.587,2.738,5.497,3.375c-0.087,0.33-0.175,0.66-0.262,0.99
			C5.497,4.331,5.758,4.297,6.02,4.263c-0.407-0.472-0.838-0.595-1.424-0.8C4.128,3.298,3.739,3.973,4.11,4.298
			c0.498,0.437,1.179,0.796,1.184,1.523c0.239-0.208,0.256-0.423,0.05-0.646C5.22,4.915,5.082,4.668,4.903,4.439
			C4.196,3.534,4.104,3.29,2.841,3.118C2.532,3.075,2.2,3.242,2.208,3.6c0.009,0.411,0.222,0.714,0.493,1.021
			c1.013,1.15,2.17,1.942,2.53,3.535c0.091,0.403,0.729,0.512,0.914,0.12c0.433-0.923,0.734-1.85,0.925-2.854
			C7.13,5.107,7.117,4.776,7.12,4.458c0.003-0.332-0.114,2.018-0.123,2.072c0.327,0.044,0.655,0.088,0.982,0.133
			c0.107-1.017,0.265-2.006,0.219-3.031C8.171,3.036,7.425,2.993,7.216,3.5c-0.474,1.146-0.67,2.446-0.784,3.68
			C6.359,7.98,6.031,9.43,6.547,10.135c0.134,0.183,0.332,0.295,0.564,0.229c0.36-0.101,0.685-0.246,1.047-0.359
			C7.954,9.8,7.749,9.595,7.544,9.39c-0.178,0.642-0.531,1.184-0.793,1.787c0.305,0.128,0.609,0.257,0.914,0.385
			c0.357-1.287,0.295-2.679,0.642-3.996c0.356-1.353,0.283-2.573,0.53-3.91C8.558,3.729,8.279,3.803,8,3.876
			c0.271,0.306-0.014,1.837-0.033,2.26c-0.066,1.496-0.143,3.05-0.051,4.543c0.026,0.419,0.534,0.683,0.854,0.354
			c1.83-1.887,1.825-5.155,1.05-7.549C9.712,3.148,9.246,2.966,8.985,3.263c-0.532,0.606-0.35,1.409-0.341,2.169
			c0.023,1.902-0.068,3.943,0.085,5.825c0.04,0.492,0.652,0.688,0.932,0.252c1.453-2.261,1.164-5.655,1.225-8.221
			c-0.327,0.044-0.655,0.089-0.982,0.133c0.348,1.614,0.819,4.232-0.208,5.679c-0.583,0.822-1.432,1.61-1.835,2.53
			c-0.18,0.41,0.109,0.819,0.564,0.734c1.228-0.228,2.435-1.657,2.882-2.785c0.895-2.253,0.151-4.22,0-6.494
			c-0.034-0.508-0.646-0.667-0.932-0.252C10.03,3.333,7.49,2.55,7.106,2.326C6.978,2.63,6.85,2.935,6.721,3.239
			c1.083,0.423,2.69,0.409,3.729-0.128c0.528-0.273,0.146-1.023-0.385-0.914C8.837,2.449,7.513,2.433,6.26,2.435
			C5.317,2.437,3.8,2.65,3.02,2.029C2.521,1.631,1.809,2.334,2.313,2.736L2.313,2.736z"/>
	</g>
</g>
<g>
	<g>
		<path fill="#FFFFFF" d="M3.963,3.085c0.645,0,0.645-1,0-1S3.318,3.085,3.963,3.085L3.963,3.085z"/>
	</g>
</g>
<g>
	<g>
		<path fill="#FFFFFF" d="M3.752,2.927C5.084,3.163,6.503,3.05,7.854,3.054c0.645,0.002,0.645-0.998,0-1
			C6.605,2.051,5.248,2.181,4.018,1.963C3.388,1.851,3.118,2.814,3.752,2.927L3.752,2.927z"/>
	</g>
</g>
<g>
	<g>
		<path fill="#FFFFFF" d="M6.729,11.195c0.645,0,0.645-1,0-1S6.084,11.195,6.729,11.195L6.729,11.195z"/>
	</g>
</g>
<g>
	<g>
		<path fill="#FFFFFF" d="M6.37,10.21c0.002,0.277,0.008,0.552-0.016,0.828c-0.054,0.643,0.946,0.638,1,0
			c0.023-0.276,0.018-0.551,0.016-0.828C7.364,9.566,6.364,9.565,6.37,10.21L6.37,10.21z"/>
	</g>
</g>
<path d="M12.47,4.673c-0.1-0.484-0.249-0.996-0.448-1.533c-0.216-0.51-0.435-0.95-0.656-1.32c-0.222-0.371-0.451-0.68-0.689-0.924
	c-0.393,0.256-0.768,0.448-1.125,0.576C9.196,1.6,8.852,1.664,8.519,1.664c-0.337,0-0.69-0.064-1.058-0.195S6.72,1.147,6.345,0.896
	c-0.371,0.256-0.738,0.448-1.1,0.576C4.882,1.6,4.53,1.664,4.187,1.664c-0.332,0-0.68-0.063-1.045-0.191s-0.747-0.32-1.145-0.576
	c-0.222,0.232-0.44,0.533-0.657,0.902C1.124,2.167,0.9,2.615,0.667,3.14c-0.2,0.555-0.349,1.07-0.449,1.551
	C0.119,5.169,0.069,5.625,0.069,6.058c0,0.936,0.165,1.853,0.494,2.75c0.33,0.898,0.807,1.721,1.433,2.469
	c0.608,0.73,1.287,1.324,2.037,1.778c0.749,0.454,1.52,0.743,2.312,0.864c1.837-0.404,3.342-1.344,4.515-2.818
	c1.173-1.473,1.76-3.154,1.76-5.043C12.62,5.62,12.57,5.159,12.47,4.673z M10.619,10.878c-1.117,1.424-2.542,2.328-4.274,2.717
	c-0.797-0.122-1.587-0.432-2.37-0.926c-0.783-0.496-1.432-1.106-1.946-1.832c-0.553-0.764-0.964-1.539-1.232-2.328
	C0.528,7.72,0.395,6.899,0.395,6.046c0-0.427,0.035-0.84,0.107-1.241c0.071-0.401,0.176-0.799,0.315-1.192h0
	c0.022-0.1,0.05-0.178,0.108-0.266H0.925c0.183-0.463,0.368-0.863,0.556-1.201c0.188-0.337,0.381-0.617,0.581-0.842
	C2.416,1.529,2.767,1.695,3.116,1.8c0.349,0.105,0.706,0.158,1.071,0.158c0.382,0,0.746-0.053,1.091-0.158
	c0.346-0.106,0.701-0.277,1.066-0.512c0.321,0.219,0.667,0.385,1.038,0.499c0.371,0.114,0.749,0.171,1.136,0.171
	c0.31,0,0.638-0.053,0.984-0.158c0.345-0.105,0.726-0.271,1.141-0.496c0.215,0.279,0.414,0.587,0.597,0.922
	c0.184,0.335,0.352,0.709,0.507,1.121h-0.002c0.008,0.016,0.018,0.033,0.018,0.045c0.044,0.07,0.079,0.136,0.104,0.221h0.005
	c0.138,0.371,0.243,0.76,0.315,1.167c0.072,0.407,0.107,0.829,0.107,1.267C12.295,7.845,11.736,9.457,10.619,10.878z"/>
</svg>
