<?xml version="1.0" encoding="utf-8"?>
<!-- Generator: Adobe Illustrator 14.0.0, SVG Export Plug-In  -->
<!DOCTYPE svg PUBLIC "-//W3C//DTD SVG 1.1//EN" "http://www.w3.org/Graphics/SVG/1.1/DTD/svg11.dtd" [
	<!ENTITY ns_flows "http://ns.adobe.com/Flows/1.0/">
]>
<svg version="1.1"
	 xmlns="http://www.w3.org/2000/svg" xmlns:xlink="http://www.w3.org/1999/xlink" xmlns:a="http://ns.adobe.com/AdobeSVGViewerExtensions/3.0/"
	 x="0px" y="0px" width="7px" height="11px" viewBox="-0.159 -0.2 7 11" enable-background="new -0.159 -0.2 7 11"
	 xml:space="preserve">
<defs>
	<symbol  id="Deleted_Symbol" viewBox="-2.126 -2.126 4.252 4.252">
		<path d="M2.126,0.573v1.553h-1.56V1.543h-1.133v0.583h-1.56V0.573h0.592v-1.147h-0.592v-1.552h1.56v0.588h1.133v-0.588h1.56v1.552
			H1.528v1.147H2.126z M1.157-0.574H0.566v-0.588h-1.133v0.588h-0.597v1.147h0.597v0.594h1.133V0.573h0.591V-0.574z"/>
	</symbol>
	<symbol  id="Deleted_Symbol_1" viewBox="-0.835 -3.25 1.671 6.501">
		<polygon points="0.625,2.878 0.797,3.251 0.797,3.251 0.792,3.114 0.81,3.004 0.819,2.895 0.81,2.758 0.732,2.566 0.717,2.507 
			0.717,2.427 0.75,2.274 0.788,2.117 0.819,2.023 0.835,1.933 0.835,1.821 0.81,1.706 0.701,1.436 0.651,1.333 0.548,1.203 
			0.458,1.109 0.321,1.018 0.176,0.963 0.041,0.937 -0.029,0.933 -0.029,0.933 -0.041,1.134 -0.041,1.134 0.015,1.138 0.11,1.153 
			0.213,1.193 0.312,1.26 0.381,1.33 0.462,1.436 0.5,1.511 0.604,1.761 0.62,1.841 0.62,1.918 0.607,1.979 0.577,2.069 
			0.539,2.234 0.5,2.406 0.5,2.531 0.527,2.627 		"/>
		<polygon points="-0.029,0.933 -0.212,0.943 -0.327,0.966 -0.587,1.083 -0.689,1.163 -0.76,1.244 -0.804,1.324 -0.819,1.395 
			-0.835,1.48 -0.835,1.604 -0.78,1.781 -0.63,2.014 -0.474,2.214 -0.321,2.366 -0.187,2.526 -0.1,2.633 0.003,2.724 0.272,2.918 
			0.539,3.101 0.797,3.251 0.797,3.251 0.625,2.878 0.625,2.878 0.436,2.779 0.402,2.758 0.144,2.571 0.063,2.494 -0.014,2.406 
			-0.16,2.234 -0.306,2.091 -0.452,1.902 -0.582,1.701 -0.619,1.576 -0.619,1.501 -0.607,1.436 -0.598,1.391 -0.576,1.354 
			-0.533,1.306 -0.468,1.253 -0.256,1.159 -0.175,1.138 -0.041,1.134 -0.041,1.134 		"/>
		<path d="M-0.078-3.004c0.247,0,0.43-0.1,0.551-0.246v3.779l-0.26,0.243h-0.54l-0.261-0.243v-3.741
			C-0.467-3.089-0.301-3.004-0.078-3.004z"/>
	</symbol>
	<symbol  id="Deleted_Symbol_2" viewBox="-1.771 -2.48 3.543 4.961">
		<polygon points="1.214,-2.223 0.813,2.48 -0.911,2.48 -1.314,-2.223 -1.771,-2.223 -1.771,-2.48 1.771,-2.48 1.771,-2.223 		"/>
	</symbol>
	<symbol  id="Wind_turbine_1" viewBox="-2.989 -5.146 5.977 10.293">
		<polygon points="0.395,-4.58 0.395,-4.591 0.395,-4.6 0.394,-4.61 0.393,-4.619 0.392,-4.631 0.391,-4.64 0.39,-4.648 
			0.389,-4.659 0.388,-4.668 0.386,-4.68 0.384,-4.688 0.382,-4.697 0.38,-4.708 0.378,-4.717 0.375,-4.727 0.373,-4.736 
			0.37,-4.746 0.367,-4.756 0.363,-4.766 0.36,-4.774 0.356,-4.783 0.354,-4.793 0.349,-4.803 0.345,-4.812 0.341,-4.819 
			0.337,-4.828 0.333,-4.838 0.328,-4.848 0.324,-4.855 0.318,-4.864 0.313,-4.872 0.309,-4.88 0.303,-4.889 0.297,-4.897 
			0.292,-4.905 0.286,-4.913 0.28,-4.921 0.274,-4.929 0.268,-4.938 0.261,-4.945 0.255,-4.953 0.249,-4.959 0.242,-4.967 
			0.235,-4.974 0.229,-4.98 0.221,-4.988 0.214,-4.995 0.207,-5.002 0.199,-5.008 0.192,-5.015 0.184,-5.02 0.176,-5.027 
			0.169,-5.033 0.161,-5.039 0.152,-5.044 0.145,-5.051 0.136,-5.056 0.128,-5.061 0.119,-5.066 0.111,-5.072 0.102,-5.076 
			0.093,-5.081 0.085,-5.085 0.076,-5.09 0.067,-5.094 0.058,-5.098 0.049,-5.102 0.04,-5.105 0.031,-5.109 0.021,-5.113 
			0.012,-5.117 0.002,-5.119 -0.007,-5.122 -0.016,-5.125 -0.026,-5.127 -0.036,-5.13 -0.045,-5.133 -0.055,-5.135 -0.064,-5.137 
			-0.074,-5.139 -0.083,-5.141 -0.094,-5.142 -0.104,-5.143 -0.113,-5.145 -0.124,-5.145 -0.133,-5.146 -0.143,-5.146 
			-0.153,-5.146 -0.163,-5.146 -0.173,-5.146 -0.183,-5.146 -0.193,-5.146 -0.203,-5.146 -0.212,-5.146 -0.222,-5.145 
			-0.232,-5.145 -0.242,-5.143 -0.251,-5.142 -0.262,-5.141 -0.271,-5.139 -0.281,-5.137 -0.291,-5.135 -0.3,-5.133 -0.31,-5.13 
			-0.32,-5.127 -0.329,-5.125 -0.338,-5.122 -0.348,-5.119 -0.357,-5.117 -0.367,-5.113 -0.376,-5.109 -0.385,-5.105 -0.395,-5.102 
			-0.404,-5.098 -0.412,-5.094 -0.421,-5.09 -0.43,-5.085 -0.438,-5.081 -0.447,-5.076 -0.456,-5.072 -0.464,-5.066 -0.473,-5.061 
			-0.482,-5.056 -0.49,-5.051 -0.498,-5.044 -0.506,-5.039 -0.514,-5.033 -0.522,-5.027 -0.529,-5.02 -0.537,-5.015 -0.544,-5.008 
			-0.552,-5.002 -0.56,-4.995 -0.566,-4.988 -0.574,-4.98 -0.581,-4.974 -0.587,-4.967 -0.594,-4.959 -0.601,-4.953 -0.607,-4.945 
			-0.613,-4.938 -0.62,-4.929 -0.626,-4.921 -0.632,-4.913 -0.637,-4.905 -0.643,-4.897 -0.648,-4.889 -0.654,-4.88 -0.659,-4.872 
			-0.664,-4.864 -0.669,-4.855 -0.673,-4.848 -0.678,-4.838 -0.683,-4.828 -0.687,-4.819 -0.69,-4.812 -0.695,-4.803 -0.699,-4.793 
			-0.702,-4.783 -0.706,-4.774 -0.709,-4.766 -0.712,-4.756 -0.715,-4.746 -0.718,-4.736 -0.72,-4.727 -0.723,-4.717 -0.725,-4.708 
			-0.728,-4.697 -0.729,-4.688 -0.731,-4.68 -0.733,-4.668 -0.734,-4.659 -0.735,-4.648 -0.737,-4.64 -0.738,-4.631 -0.738,-4.619 
			-0.739,-4.61 -0.74,-4.6 -0.74,-4.591 -0.74,-4.58 -0.74,-4.57 -0.74,-4.561 -0.739,-4.551 -0.738,-4.541 -0.738,-4.531 
			-0.737,-4.521 -0.735,-4.512 -0.734,-4.501 -0.733,-4.492 -0.731,-4.482 -0.729,-4.472 -0.728,-4.463 -0.725,-4.453 
			-0.723,-4.442 -0.72,-4.434 -0.718,-4.424 -0.715,-4.415 -0.712,-4.406 -0.709,-4.396 -0.706,-4.386 -0.702,-4.377 -0.699,-4.369 
			-0.695,-4.359 -0.69,-4.35 -0.687,-4.341 -0.683,-4.332 -0.678,-4.322 -0.673,-4.314 -0.669,-4.305 -0.664,-4.297 -0.659,-4.288 
			-0.654,-4.28 -0.648,-4.271 -0.643,-4.263 -0.637,-4.255 -0.632,-4.247 -0.626,-4.239 -0.62,-4.23 -0.613,-4.223 -0.607,-4.215 
			-0.601,-4.209 -0.594,-4.201 -0.587,-4.194 -0.581,-4.186 -0.574,-4.18 -0.566,-4.173 -0.56,-4.166 -0.552,-4.158 -0.544,-4.152 
			-0.537,-4.146 -0.529,-4.141 -0.522,-4.133 -0.514,-4.128 -0.506,-4.121 -0.498,-4.116 -0.49,-4.111 -0.482,-4.104 -0.473,-4.1 
			-0.464,-4.096 -0.456,-4.09 -0.447,-4.084 -0.438,-4.08 -0.43,-4.075 -0.421,-4.071 -0.412,-4.066 -0.404,-4.063 -0.395,-4.059 
			-0.385,-4.056 -0.376,-4.051 -0.367,-4.047 -0.357,-4.045 -0.348,-4.041 -0.338,-4.038 -0.329,-4.035 -0.32,-4.033 -0.31,-4.03 
			-0.3,-4.027 -0.291,-4.026 -0.281,-4.023 -0.271,-4.022 -0.262,-4.021 -0.251,-4.019 -0.242,-4.018 -0.232,-4.018 -0.222,-4.016 
			-0.212,-4.015 -0.203,-4.015 -0.193,-4.015 -0.183,-4.014 -0.173,-4.014 -0.163,-4.014 -0.153,-4.015 -0.143,-4.015 
			-0.133,-4.015 -0.124,-4.016 -0.113,-4.018 -0.104,-4.018 -0.094,-4.019 -0.083,-4.021 -0.074,-4.022 -0.064,-4.023 
			-0.055,-4.026 -0.045,-4.027 -0.036,-4.03 -0.026,-4.033 -0.016,-4.035 -0.007,-4.038 0.002,-4.041 0.012,-4.045 0.021,-4.047 
			0.031,-4.051 0.04,-4.056 0.049,-4.059 0.058,-4.063 0.067,-4.066 0.076,-4.071 0.085,-4.075 0.093,-4.08 0.102,-4.084 
			0.111,-4.09 0.119,-4.096 0.128,-4.1 0.136,-4.104 0.145,-4.111 0.152,-4.116 0.161,-4.121 0.169,-4.128 0.176,-4.133 
			0.184,-4.141 0.192,-4.146 0.199,-4.152 0.207,-4.158 0.214,-4.166 0.221,-4.173 0.229,-4.18 0.235,-4.186 0.242,-4.194 
			0.249,-4.201 0.255,-4.209 0.261,-4.215 0.268,-4.223 0.274,-4.23 0.28,-4.239 0.286,-4.247 0.292,-4.255 0.297,-4.263 
			0.303,-4.271 0.309,-4.28 0.313,-4.288 0.318,-4.297 0.324,-4.305 0.328,-4.314 0.333,-4.322 0.337,-4.332 0.341,-4.341 
			0.345,-4.35 0.349,-4.359 0.354,-4.369 0.356,-4.377 0.36,-4.386 0.363,-4.396 0.367,-4.406 0.37,-4.415 0.373,-4.424 
			0.375,-4.434 0.378,-4.442 0.38,-4.453 0.382,-4.463 0.384,-4.472 0.386,-4.482 0.388,-4.492 0.389,-4.501 0.39,-4.512 
			0.391,-4.521 0.392,-4.531 0.393,-4.541 0.394,-4.551 0.395,-4.561 0.395,-4.57 		"/>
		<g>
			<path fill="none" stroke="#000000" stroke-width="0.6989" d="M-0.138,1.648"/>
			<path fill="none" stroke="#000000" stroke-width="0.6989" d="M-0.124-3.522"/>
			<line fill="none" stroke="#000000" stroke-width="0.466" x1="-1.333" y1="-3.513" x2="1.119" y2="-3.513"/>
			<line fill="none" stroke="#000000" stroke-width="0.9319" x1="-0.138" y1="1.648" x2="2.98" y2="1.702"/>
			<line fill="none" stroke="#000000" stroke-width="0.9319" x1="-2.688" y1="-0.501" x2="-0.134" y2="1.65"/>
			<line fill="none" stroke="#000000" stroke-width="0.9319" x1="-0.124" y1="1.63" x2="-1.699" y2="4.946"/>
			<line fill="none" stroke="#000000" stroke-width="0.6535" x1="-0.124" y1="1.63" x2="-0.124" y2="-3.558"/>
		</g>
	</symbol>
</defs>
<use xlink:href="#Wind_turbine_1"  width="5.977" height="10.293" x="-2.989" y="-5.146" transform="matrix(1 0 0 -1 2.9888 5.1465)" overflow="visible"/>
</svg>
