<?xml version="1.0" encoding="utf-8"?>
<!-- Generator: Adobe Illustrator 14.0.0, SVG Export Plug-In  -->
<!DOCTYPE svg PUBLIC "-//W3C//DTD SVG 1.1//EN" "http://www.w3.org/Graphics/SVG/1.1/DTD/svg11.dtd" [
	<!ENTITY ns_flows "http://ns.adobe.com/Flows/1.0/">
]>
<svg version="1.1"
	 xmlns="http://www.w3.org/2000/svg" xmlns:xlink="http://www.w3.org/1999/xlink" xmlns:a="http://ns.adobe.com/AdobeSVGViewerExtensions/3.0/"
	 x="0px" y="0px" width="6px" height="6px" viewBox="-0.193 -0.323 6 6" enable-background="new -0.193 -0.323 6 6"
	 xml:space="preserve">
<defs>
	<symbol  id="ANCP14_quarantine" viewBox="-2.48 -2.48 4.961 4.961">
		<polygon points="-0.381,-2.195 -0.381,-0.384 -2.197,-0.384 -2.197,-0.194 -0.19,-0.194 -0.19,-2.195 		"/>
		<polygon points="0.382,-2.195 0.189,-2.195 0.189,-0.194 2.196,-0.194 2.196,-0.384 0.382,-0.384 		"/>
		<polygon points="0.382,2.188 0.382,0.379 2.196,0.379 2.196,0.188 0.189,0.188 0.189,2.188 		"/>
		<polygon points="-0.381,2.188 -0.19,2.188 -0.19,0.188 -2.197,0.188 -2.197,0.379 -0.381,0.379 		"/>
		<polygon points="-0.162,-2.476 -0.395,-2.449 -0.622,-2.401 -0.845,-2.333 -1.061,-2.242 -1.267,-2.134 -1.462,-2.005 
			-1.643,-1.858 -1.811,-1.695 -1.962,-1.518 -2.096,-1.326 -2.211,-1.124 -2.309,-0.911 -2.383,-0.69 -2.438,-0.463 -2.472,-0.232 
			-2.48,0.001 -2.48,-0.003 -2.197,-0.003 -2.195,0 -2.184,-0.223 -2.15,-0.441 -2.094,-0.657 -2.018,-0.866 -1.919,-1.064 
			-1.802,-1.254 -1.666,-1.429 -1.513,-1.591 -1.344,-1.735 -1.161,-1.862 -0.967,-1.97 -0.762,-2.058 -0.55,-2.125 -0.333,-2.169 
			-0.11,-2.191 0.11,-2.191 0.332,-2.169 0.549,-2.125 0.763,-2.058 0.967,-1.97 1.161,-1.862 1.344,-1.735 1.513,-1.591 
			1.665,-1.429 1.802,-1.254 1.919,-1.064 2.017,-0.866 2.094,-0.657 2.149,-0.441 2.183,-0.223 2.194,0 2.196,-0.003 2.48,-0.003 
			2.48,0 2.471,-0.235 2.437,-0.468 2.381,-0.697 2.305,-0.92 2.207,-1.134 2.089,-1.338 1.953,-1.53 1.799,-1.708 1.629,-1.871 
			1.443,-2.018 1.246,-2.145 1.037,-2.254 0.819,-2.342 0.592,-2.409 0.361,-2.454 0.127,-2.478 0.126,-2.478 0.108,-2.478 
			0.091,-2.479 0.072,-2.479 0.056,-2.48 0.037,-2.48 0.02,-2.48 0,-2.48 -0.018,-2.48 -0.036,-2.48 -0.054,-2.48 -0.07,-2.479 
			-0.089,-2.479 -0.106,-2.478 -0.125,-2.478 -0.145,-2.477 		"/>
		<polygon points="-2.197,-0.003 -2.48,-0.003 -2.48,0 -2.472,0.232 -2.438,0.464 -2.383,0.69 -2.309,0.911 -2.211,1.124 
			-2.096,1.326 -1.962,1.518 -1.811,1.695 -1.643,1.858 -1.462,2.005 -1.267,2.133 -1.061,2.242 -0.845,2.333 -0.622,2.401 
			-0.395,2.449 -0.162,2.476 -0.162,2.476 -0.145,2.477 -0.125,2.477 -0.106,2.478 -0.089,2.479 -0.07,2.479 -0.054,2.479 
			-0.036,2.48 -0.018,2.48 0,2.48 0.02,2.48 0.037,2.48 0.056,2.479 0.072,2.479 0.091,2.479 0.108,2.478 0.126,2.477 0.126,2.477 
			0.361,2.454 0.592,2.409 0.818,2.342 1.037,2.254 1.246,2.145 1.443,2.018 1.629,1.871 1.799,1.708 1.953,1.53 2.089,1.338 
			2.207,1.134 2.305,0.92 2.381,0.697 2.437,0.468 2.471,0.235 2.48,0 2.48,-0.003 2.196,-0.003 2.194,0 2.185,0.215 2.152,0.428 
			2.1,0.637 2.027,0.84 1.936,1.033 1.824,1.219 1.696,1.392 1.552,1.552 1.393,1.695 1.22,1.824 1.034,1.935 0.841,2.027 
			0.638,2.1 0.429,2.152 0.215,2.184 0,2.193 -0.215,2.184 -0.429,2.152 -0.637,2.1 -0.84,2.027 -1.035,1.935 -1.22,1.824 
			-1.393,1.695 -1.552,1.552 -1.697,1.392 -1.824,1.219 -1.936,1.033 -2.027,0.84 -2.1,0.637 -2.152,0.428 -2.184,0.215 -2.195,0 		
			"/>
		<line fill="none" stroke="#000000" stroke-width="1.0002" stroke-miterlimit="1" x1="0" y1="2.193" x2="0" y2="-2.302"/>
		<line fill="none" stroke="#000000" stroke-width="1.0002" stroke-miterlimit="1" x1="-2.304" y1="0.001" x2="2.194" y2="0"/>
	</symbol>
</defs>
<ellipse fill="#FFFFFF" cx="2.48" cy="2.48" rx="2.311" ry="2.261"/>
<use xlink:href="#ANCP14_quarantine"  width="4.961" height="4.961" x="-2.48" y="-2.48" transform="matrix(1 0 0 -1 2.4805 2.4805)" overflow="visible"/>
</svg>
