<?xml version="1.0" encoding="utf-8"?>
<!-- Generator: Adobe Illustrator 14.0.0, SVG Export Plug-In  -->
<!DOCTYPE svg PUBLIC "-//W3C//DTD SVG 1.1//EN" "http://www.w3.org/Graphics/SVG/1.1/DTD/svg11.dtd" [
	<!ENTITY ns_flows "http://ns.adobe.com/Flows/1.0/">
]>
<svg version="1.1"
	 xmlns="http://www.w3.org/2000/svg" xmlns:xlink="http://www.w3.org/1999/xlink" xmlns:a="http://ns.adobe.com/AdobeSVGViewerExtensions/3.0/"
	 x="0px" y="0px" width="7px" height="9px" viewBox="-0.438 -0.716 7 9" enable-background="new -0.438 -0.716 7 9"
	 xml:space="preserve">
<defs>
	<symbol  id="ANCP01_black_anchor" viewBox="-2.906 -3.94 5.813 7.88">
		<polygon points="0.285,2.053 0.285,2.009 0.285,2.009 0.285,1.102 0.285,1.102 1.423,1.102 1.423,0.54 1.423,0.54 0.285,0.54 
			0.285,0.54 0.285,-3.364 0.286,-3.358 0.371,-3.349 0.455,-3.335 0.54,-3.317 0.623,-3.298 0.707,-3.275 0.788,-3.251 
			0.869,-3.224 0.949,-3.192 1.028,-3.159 1.106,-3.124 1.183,-3.084 1.259,-3.044 1.333,-3.001 1.405,-2.955 1.476,-2.905 
			1.545,-2.856 1.545,-2.86 1.199,-2.571 1.199,-2.571 2.906,-1.952 2.906,-1.952 2.59,-3.739 2.59,-3.739 1.985,-3.228 
			1.983,-3.226 1.878,-3.309 1.769,-3.388 1.657,-3.461 1.542,-3.529 1.424,-3.593 1.304,-3.651 1.181,-3.705 1.056,-3.752 
			0.929,-3.795 0.8,-3.833 0.67,-3.865 0.538,-3.891 0.406,-3.91 0.272,-3.925 0.139,-3.934 0.006,-3.937 0.004,-3.939 -0.1,-3.778 
			-0.083,2.462 0.004,2.57 0.005,2.576 0.046,2.578 0.085,2.586 0.125,2.595 0.163,2.609 0.199,2.627 0.234,2.649 0.266,2.674 
			0.296,2.701 0.321,2.732 0.346,2.766 0.364,2.801 0.38,2.839 0.393,2.877 0.401,2.917 0.405,2.958 0.405,2.997 0.401,3.038 
			0.393,3.078 0.38,3.116 0.364,3.154 0.345,3.189 0.321,3.223 0.295,3.254 0.266,3.281 0.233,3.306 0.198,3.328 0.163,3.346 
			0.125,3.359 0.085,3.37 0.046,3.376 0.005,3.379 0.004,3.377 -0.1,3.621 0.004,3.938 0.005,3.939 0.103,3.934 0.198,3.92 
			0.294,3.896 0.385,3.861 0.473,3.817 0.556,3.767 0.633,3.706 0.703,3.639 0.768,3.564 0.822,3.483 0.869,3.398 0.908,3.309 
			0.937,3.216 0.957,3.119 0.966,3.021 0.966,2.924 0.955,2.826 0.935,2.731 0.905,2.638 0.866,2.549 0.817,2.464 0.762,2.384 
			0.697,2.311 0.627,2.243 0.549,2.184 0.466,2.133 0.377,2.09 0.286,2.058 		"/>
		<polygon points="0.004,3.938 0.004,3.938 0.004,3.938 0.004,3.377 0.005,3.379 -0.035,3.376 -0.073,3.371 -0.111,3.36 
			-0.148,3.348 -0.185,3.331 -0.219,3.312 -0.249,3.287 -0.278,3.26 -0.305,3.231 -0.327,3.2 -0.349,3.166 -0.365,3.13 
			-0.379,3.094 -0.388,3.056 -0.395,3.018 -0.395,2.978 -0.395,2.938 -0.388,2.899 -0.379,2.861 -0.365,2.825 -0.349,2.789 
			-0.327,2.755 -0.305,2.724 -0.278,2.694 -0.249,2.668 -0.219,2.644 -0.185,2.624 -0.148,2.607 -0.111,2.595 -0.073,2.584 
			-0.035,2.578 0.005,2.576 0.004,2.57 0.004,-3.939 0.005,-3.937 -0.13,-3.934 -0.264,-3.925 -0.398,-3.911 -0.532,-3.891 
			-0.663,-3.865 -0.794,-3.833 -0.923,-3.797 -1.052,-3.754 -1.177,-3.706 -1.3,-3.652 -1.421,-3.593 -1.54,-3.529 -1.655,-3.46 
			-1.769,-3.386 -1.878,-3.308 -1.983,-3.224 -1.984,-3.228 -2.589,-3.739 -2.589,-3.739 -2.906,-1.952 -2.906,-1.952 
			-1.199,-2.571 -1.199,-2.571 -1.544,-2.86 -1.543,-2.856 -1.473,-2.907 -1.402,-2.956 -1.33,-3.001 -1.255,-3.045 -1.179,-3.087 
			-1.102,-3.124 -1.023,-3.16 -0.944,-3.194 -0.863,-3.225 -0.782,-3.252 -0.699,-3.277 -0.615,-3.299 -0.532,-3.319 -0.446,-3.335 
			-0.361,-3.349 -0.276,-3.359 -0.277,-3.364 -0.277,0.54 -0.277,0.54 -1.415,0.54 -1.415,0.54 -1.415,1.102 -0.277,1.102 
			-0.277,1.102 -0.277,2.053 -0.276,2.058 -0.368,2.09 -0.457,2.133 -0.54,2.184 -0.617,2.243 -0.688,2.311 -0.752,2.384 
			-0.809,2.464 -0.857,2.549 -0.896,2.638 -0.925,2.731 -0.946,2.826 -0.957,2.924 -0.957,3.021 -0.947,3.119 -0.927,3.216 
			-0.899,3.309 -0.86,3.398 -0.813,3.483 -0.758,3.564 -0.694,3.639 -0.623,3.706 -0.546,3.767 -0.464,3.817 -0.375,3.861 
			-0.284,3.896 -0.189,3.92 -0.094,3.934 0.005,3.939 		"/>
	</symbol>
</defs>
<ellipse fill="#FFFFFF" cx="2.906" cy="0.948" rx="0.469" ry="0.492"/>
<use xlink:href="#ANCP01_black_anchor"  width="5.813" height="7.88" x="-2.906" y="-3.94" transform="matrix(1 0 0 -1 2.9063 3.9399)" overflow="visible"/>
</svg>
