<?xml version="1.0" encoding="utf-8"?>
<!-- Generator: Adobe Illustrator 14.0.0, SVG Export Plug-In  -->
<!DOCTYPE svg PUBLIC "-//W3C//DTD SVG 1.1//EN" "http://www.w3.org/Graphics/SVG/1.1/DTD/svg11.dtd" [
	<!ENTITY ns_flows "http://ns.adobe.com/Flows/1.0/">
]>
<svg version="1.1"
	 xmlns="http://www.w3.org/2000/svg" xmlns:xlink="http://www.w3.org/1999/xlink" xmlns:a="http://ns.adobe.com/AdobeSVGViewerExtensions/3.0/"
	 x="0px" y="0px" width="6px" height="4px" viewBox="-0.636 -0.045 6 4" enable-background="new -0.636 -0.045 6 4"
	 xml:space="preserve">
<defs>
	<symbol  id="Deleted_Symbol" viewBox="-2.126 -2.126 4.252 4.252">
		<path d="M2.126,0.573v1.553h-1.56V1.543h-1.133v0.583h-1.56V0.573h0.592v-1.147h-0.592v-1.552h1.56v0.588h1.133v-0.588h1.56v1.552
			H1.528v1.147H2.126z M1.157-0.574H0.566v-0.588h-1.133v0.588h-0.597v1.147h0.597v0.594h1.133V0.573h0.591V-0.574z"/>
	</symbol>
</defs>
<rect x="1.551" y="1.701" fill="none" stroke="#010101" stroke-width="0.5669" width="1.843" height="1.842"/>
<path fill="#FFFFFF" stroke="#010101" stroke-width="0.5669" d="M3.394,1.455c0-0.646-0.413-1.172-0.922-1.172
	c-0.508,0-0.921,0.525-0.921,1.172c0,0.643,0.413,1.166,0.921,1.166C2.98,2.621,3.394,2.098,3.394,1.455z"/>
<rect x="1.826" y="1.453" fill="#FFFFFF" width="1.281" height="1.809"/>
<line fill="none" stroke="#000000" stroke-width="0.5669" x1="3.538" y1="3.543" x2="4.956" y2="3.543"/>
<line fill="none" stroke="#000000" stroke-width="0.5669" x1="0" y1="3.543" x2="1.418" y2="3.543"/>
</svg>
