<?xml version="1.0" encoding="utf-8"?>
<!-- Generator: Adobe Illustrator 14.0.0, SVG Export Plug-In  -->
<!DOCTYPE svg PUBLIC "-//W3C//DTD SVG 1.1//EN" "http://www.w3.org/Graphics/SVG/1.1/DTD/svg11.dtd" [
	<!ENTITY ns_flows "http://ns.adobe.com/Flows/1.0/">
]>
<svg version="1.1"
	 xmlns="http://www.w3.org/2000/svg" xmlns:xlink="http://www.w3.org/1999/xlink" xmlns:a="http://ns.adobe.com/AdobeSVGViewerExtensions/3.0/"
	 x="0px" y="0px" width="5px" height="5px" viewBox="-0.601 -0.801 5 5" enable-background="new -0.601 -0.801 5 5"
	 xml:space="preserve">
<defs>
	<symbol  id="Control_x5F_pt_x5F_Horizontal_x5F_9B035P001" viewBox="-2.126 -1.845 4.252 3.689">
		<path fill-rule="evenodd" clip-rule="evenodd" d="M0.424-0.425c0-0.235-0.19-0.425-0.426-0.425c-0.234,0-0.425,0.189-0.425,0.425
			S-0.236,0-0.002,0C0.233,0,0.424-0.189,0.424-0.425z M-1.613-1.547L0.01,1.274l1.629-2.821H-1.613z M-2.126-1.845L0.01,1.845
			l2.116-3.681L-2.126-1.845z"/>
	</symbol>
	<symbol  id="Deleted_Symbol" viewBox="-2.126 -2.126 4.252 4.252">
		<path d="M2.126,0.573v1.553h-1.56V1.543h-1.133v0.583h-1.56V0.573h0.592v-1.147h-0.592v-1.552h1.56v0.588h1.133v-0.588h1.56v1.552
			H1.528v1.147H2.126z M1.157-0.574H0.566v-0.588h-1.133v0.588h-0.597v1.147h0.597v0.594h1.133V0.573h0.591V-0.574z"/>
	</symbol>
</defs>
<path fill="#FFFFFF" d="M3.771,3.151C3.465,2.645,3.057,2.139,2.742,1.606C2.7,1.419,2.617,1.174,2.47,1.039
	C2.427,0.929,2.371,0.823,2.344,0.71c-0.058-0.238-0.426-0.24-0.482,0C1.825,0.865,1.804,1.019,1.775,1.17
	C1.594,1.343,1.454,1.573,1.324,1.776C1.291,1.827,1.291,1.876,1.296,1.923C1.238,1.982,1.186,2.038,1.15,2.09
	C0.939,2.407,0.87,2.711,0.566,2.975C0.473,3.056,0.48,3.184,0.54,3.279C0.468,3.467,0.66,3.716,0.885,3.586
	C0.946,3.55,0.994,3.505,1.048,3.463C1.375,3.502,1.703,3.486,2.04,3.48c0.507-0.009,1.008,0.079,1.516,0.047
	C3.738,3.515,3.875,3.322,3.771,3.151z"/>
<use xlink:href="#Control_x5F_pt_x5F_Horizontal_x5F_9B035P001"  width="4.252" height="3.689" x="-2.126" y="-1.845" transform="matrix(1 0 0 -1 2.126 1.8447)" overflow="visible"/>
</svg>
