<?xml version="1.0" encoding="utf-8"?>
<!-- Generator: Adobe Illustrator 14.0.0, SVG Export Plug-In  -->
<!DOCTYPE svg PUBLIC "-//W3C//DTD SVG 1.1//EN" "http://www.w3.org/Graphics/SVG/1.1/DTD/svg11.dtd" [
	<!ENTITY ns_flows "http://ns.adobe.com/Flows/1.0/">
]>
<svg version="1.1"
	 xmlns="http://www.w3.org/2000/svg" xmlns:xlink="http://www.w3.org/1999/xlink" xmlns:a="http://ns.adobe.com/AdobeSVGViewerExtensions/3.0/"
	 x="0px" y="0px" width="13px" height="13px" viewBox="-0.371 -0.372 13 13" enable-background="new -0.371 -0.372 13 13"
	 xml:space="preserve">
<defs>
</defs>
<polyline fill="none" stroke="#28166F" stroke-width="1.1447" stroke-miterlimit="10" points="0.288,2.951 4.23,0.662 0.288,2.951 
	4.23,0.662 6.144,1.777 7.944,0.719 12.172,3.151 "/>
<path fill-rule="evenodd" clip-rule="evenodd" fill="#28166F" d="M6.173,10.992c0.399,0,0.714,0.314,0.714,0.716
	c0,0.372-0.314,0.715-0.714,0.715c-0.372,0-0.715-0.343-0.715-0.715C5.458,11.307,5.801,10.992,6.173,10.992L6.173,10.992z"/>
<path fill-rule="evenodd" clip-rule="evenodd" fill="#28166F" d="M6.173,8.731H6.144C6.087,8.589,5.859,8.159,5.801,7.959
	c-0.114-0.2-0.229-0.601-0.285-0.801c-0.2-0.516-0.286-1.23-0.4-1.832C5.001,4.84,5.001,4.125,5.001,3.438
	c0-0.744,0.086-1.545-0.686-1.545H4.173c-0.429,0-0.657,0.4-0.657,0.887c0,0.516,0,1.03,0,1.545c0,0.516-0.086,0.945-0.114,1.432
	c-0.028,0.4-0.286,0.973-0.286,1.287L3.059,7.101L3.001,7.358L2.973,7.329c0,0.2-0.4,1.145-0.485,1.346
	c-0.172,0.4-0.458,0.829-0.657,1.201c-0.086,0.2-0.2,0.344-0.343,0.544c-0.144,0.172-0.258,0.344-0.4,0.516
	c-0.086,0.114-0.8,0.973-0.857,1.001v0.258c0,0.057,0.229,0.258,0.258,0.258h0.229c0.057,0,2.028-1.288,2.313-1.432
	c0.172-0.085,0.429-0.257,0.572-0.343c0.114-0.086,0.514-0.229,0.656-0.286c0.314-0.114,1.086-0.372,1.515-0.372h0.743
	c0.343,0,1.229,0.2,1.514,0.343c0.229,0.086,0.457,0.144,0.686,0.258c0.2,0.144,0.372,0.229,0.572,0.372
	c0.285,0.172,2.285,1.402,2.428,1.402h0.114c0.114,0,0.286-0.2,0.286-0.344v-0.086c0-0.171-0.657-0.829-0.8-1.001
	c-0.114-0.144-0.258-0.286-0.4-0.458c-0.114-0.172-0.229-0.372-0.371-0.544c-0.229-0.314-1.028-1.917-1.172-2.375
	c0-0.086,0-0.086,0-0.114c0-0.058-0.028-0.028-0.085-0.144c-0.029-0.143-0.058-0.2-0.086-0.343C9.172,6.871,9.058,6.442,9.03,6.271
	C8.944,6.041,8.916,5.784,8.859,5.555C8.83,5.298,8.773,5.012,8.745,4.754c-0.029-0.486-0.058-1.23-0.058-1.717
	c0-0.314,0.028-0.572-0.057-0.801C8.573,2.093,8.288,1.863,8.087,1.863H7.859c-0.229,0-0.486,0.258-0.571,0.486
	C7.202,2.551,7.258,3.065,7.258,3.381c0,0.715,0,1.43-0.114,2.031C7.087,5.727,7.058,6.014,6.973,6.299
	C6.916,6.586,6.83,6.9,6.773,7.158C6.687,7.444,6.544,7.73,6.488,7.959C6.458,8.188,6.202,8.56,6.173,8.731L6.173,8.731z"/>
</svg>
