<?xml version="1.0" encoding="utf-8"?>
<!-- Generator: Adobe Illustrator 14.0.0, SVG Export Plug-In  -->
<!DOCTYPE svg PUBLIC "-//W3C//DTD SVG 1.1//EN" "http://www.w3.org/Graphics/SVG/1.1/DTD/svg11.dtd" [
	<!ENTITY ns_flows "http://ns.adobe.com/Flows/1.0/">
]>
<svg version="1.1"
	 xmlns="http://www.w3.org/2000/svg" xmlns:xlink="http://www.w3.org/1999/xlink" xmlns:a="http://ns.adobe.com/AdobeSVGViewerExtensions/3.0/"
	 x="0px" y="0px" width="9px" height="12px" viewBox="-0.876 -0.951 9 12" enable-background="new -0.876 -0.951 9 12"
	 xml:space="preserve">
<defs>
	<symbol  id="Deleted_Symbol" viewBox="-2.126 -2.126 4.252 4.252">
		<path d="M2.126,0.573v1.553h-1.56V1.543h-1.133v0.583h-1.56V0.573h0.592v-1.147h-0.592v-1.552h1.56v0.588h1.133v-0.588h1.56v1.552
			H1.528v1.147H2.126z M1.157-0.574H0.566v-0.588h-1.133v0.588h-0.597v1.147h0.597v0.594h1.133V0.573h0.591V-0.574z"/>
	</symbol>
</defs>
<path d="M4.054,10.457c0.771-0.014,0.653-1.252-0.115-1.129C3.251,9.438,3.349,10.492,4.054,10.457"/>
<path d="M2.999,8.938c-0.506,0.291-2.632,2.02-2.97,1.285c-0.186-0.404,0.603-0.934,0.824-1.204c0.293-0.36,0.552-0.772,0.801-1.165
	c1.246-1.98,1.669-4.219,1.653-6.515c-0.003-0.474-0.08-1.229,0.61-1.328c1.051-0.149,0.819,1.269,0.809,1.866
	C4.702,3.385,5.022,5.032,5.665,6.43C6.041,7.246,6.46,8.036,7.007,8.752c0.167,0.218,1.56,1.428,0.825,1.654
	c-0.643,0.198-1.75-0.795-2.336-1.244C4.349,8.286,3.878,8.268,2.999,8.938"/>
</svg>
