<?xml version="1.0" encoding="utf-8"?>
<!-- Generator: Adobe Illustrator 14.0.0, SVG Export Plug-In  -->
<!DOCTYPE svg PUBLIC "-//W3C//DTD SVG 1.1//EN" "http://www.w3.org/Graphics/SVG/1.1/DTD/svg11.dtd" [
	<!ENTITY ns_flows "http://ns.adobe.com/Flows/1.0/">
]>
<svg version="1.1"
	 xmlns="http://www.w3.org/2000/svg" xmlns:xlink="http://www.w3.org/1999/xlink" xmlns:a="http://ns.adobe.com/AdobeSVGViewerExtensions/3.0/"
	 x="0px" y="0px" width="17px" height="10px" viewBox="-0.518 -0.868 17 10" enable-background="new -0.518 -0.868 17 10"
	 xml:space="preserve">
<defs>
	<symbol  id="Storage_x5F_Bunker_x5F_1M060P001" viewBox="-7.802 -4.14 15.604 8.281">
		<line fill="none" stroke="#BC9045" stroke-width="0.851" x1="-7.802" y1="-3.715" x2="7.802" y2="-3.715"/>
		<line fill="none" stroke="#BC9045" stroke-width="0.5673" x1="-7.802" y1="-2.296" x2="-4.966" y2="-2.296"/>
		<line fill="none" stroke="#BC9045" stroke-width="0.5673" x1="4.964" y1="-2.296" x2="7.802" y2="-2.296"/>
		<line fill="none" stroke="#BC9045" stroke-width="0.5673" x1="-7.208" y1="0.16" x2="-4.647" y2="-1.061"/>
		<line fill="none" stroke="#BC9045" stroke-width="0.5673" x1="-5.447" y1="2.322" x2="-3.645" y2="0.133"/>
		<line fill="none" stroke="#BC9045" stroke-width="0.5673" x1="-2.982" y1="3.66" x2="-2.013" y2="0.995"/>
		<line fill="none" stroke="#BC9045" stroke-width="0.5673" x1="0" y1="1.303" x2="0" y2="4.141"/>
		<line fill="none" stroke="#BC9045" stroke-width="0.5673" x1="7.22" y1="0.16" x2="4.66" y2="-1.061"/>
		<line fill="none" stroke="#BC9045" stroke-width="0.5673" x1="5.455" y1="2.322" x2="3.654" y2="0.133"/>
		<line fill="none" stroke="#BC9045" stroke-width="0.5673" x1="2.99" y1="3.66" x2="2.025" y2="0.995"/>
		<polyline fill="none" stroke="#000000" stroke-width="0.4252" points="5.119,-3.432 3.516,-1.973 -3.571,-1.973 -5.174,-3.432 		
			"/>
	</symbol>
</defs>
<use xlink:href="#Storage_x5F_Bunker_x5F_1M060P001"  width="15.604" height="8.281" x="-7.802" y="-4.14" transform="matrix(1 0 0 -1 7.8027 4.1406)" overflow="visible"/>
</svg>
