<?xml version="1.0" encoding="utf-8"?>
<!-- Generator: Adobe Illustrator 14.0.0, SVG Export Plug-In  -->
<!DOCTYPE svg PUBLIC "-//W3C//DTD SVG 1.1//EN" "http://www.w3.org/Graphics/SVG/1.1/DTD/svg11.dtd" [
	<!ENTITY ns_flows "http://ns.adobe.com/Flows/1.0/">
]>
<svg version="1.1"
	 xmlns="http://www.w3.org/2000/svg" xmlns:xlink="http://www.w3.org/1999/xlink" xmlns:a="http://ns.adobe.com/AdobeSVGViewerExtensions/3.0/"
	 x="0px" y="0px" width="4px" height="7px" viewBox="0 -0.068 4 7" enable-background="new 0 -0.068 4 7" xml:space="preserve">
<defs>
	<symbol  id="Deleted_Symbol" viewBox="-2.126 -2.126 4.252 4.252">
		<path d="M2.126,0.573v1.553h-1.56V1.543h-1.133v0.583h-1.56V0.573h0.592v-1.147h-0.592v-1.552h1.56v0.588h1.133v-0.588h1.56v1.552
			H1.528v1.147H2.126z M1.157-0.574H0.566v-0.588h-1.133v0.588h-0.597v1.147h0.597v0.594h1.133V0.573h0.591V-0.574z"/>
	</symbol>
	<symbol  id="Deleted_Symbol_1" viewBox="-0.835 -3.25 1.671 6.501">
		<polygon points="0.625,2.878 0.797,3.251 0.797,3.251 0.792,3.114 0.81,3.004 0.819,2.895 0.81,2.758 0.732,2.566 0.717,2.507 
			0.717,2.427 0.75,2.274 0.788,2.117 0.819,2.023 0.835,1.933 0.835,1.821 0.81,1.706 0.701,1.436 0.651,1.333 0.548,1.203 
			0.458,1.109 0.321,1.018 0.176,0.963 0.041,0.937 -0.029,0.933 -0.029,0.933 -0.041,1.134 -0.041,1.134 0.015,1.138 0.11,1.153 
			0.213,1.193 0.312,1.26 0.381,1.33 0.462,1.436 0.5,1.511 0.604,1.761 0.62,1.841 0.62,1.918 0.607,1.979 0.577,2.069 
			0.539,2.234 0.5,2.406 0.5,2.531 0.527,2.627 		"/>
		<polygon points="-0.029,0.933 -0.212,0.943 -0.327,0.966 -0.587,1.083 -0.689,1.163 -0.76,1.244 -0.804,1.324 -0.819,1.395 
			-0.835,1.48 -0.835,1.604 -0.78,1.781 -0.63,2.014 -0.474,2.214 -0.321,2.366 -0.187,2.526 -0.1,2.633 0.003,2.724 0.272,2.918 
			0.539,3.101 0.797,3.251 0.797,3.251 0.625,2.878 0.625,2.878 0.436,2.779 0.402,2.758 0.144,2.571 0.063,2.494 -0.014,2.406 
			-0.16,2.234 -0.306,2.091 -0.452,1.902 -0.582,1.701 -0.619,1.576 -0.619,1.501 -0.607,1.436 -0.598,1.391 -0.576,1.354 
			-0.533,1.306 -0.468,1.253 -0.256,1.159 -0.175,1.138 -0.041,1.134 -0.041,1.134 		"/>
		<path d="M-0.078-3.004c0.247,0,0.43-0.1,0.551-0.246v3.779l-0.26,0.243h-0.54l-0.261-0.243v-3.741
			C-0.467-3.089-0.301-3.004-0.078-3.004z"/>
	</symbol>
	<symbol  id="DishAerial" viewBox="-1.771 -2.48 3.543 4.961">
		<g id="XMLID_104_">
			<g>
				<g>
					<path fill="#010101" d="M0.17,1.339l0.555,1.012L0.513,2.48l-0.554-1.009l-1.596,0.975L-1.661,2.39l-0.032-0.089l0.002-0.002
						L-1.73,2.136L-1.757,1.97l-0.015-0.167V1.637l0.01-0.169l0.024-0.166l0.036-0.163l0.047-0.16l0.063-0.156l0.072-0.151
						l0.082-0.142l0.094-0.136l0.104-0.127l0.113-0.12l0.121-0.108l0.13-0.099l-0.003-0.002l0.003,0.001l0.148-0.093l0.155-0.082
						l0.111-0.046l-0.002-0.002v-0.017l-0.18-1.946c0.074,0.039,0.162,0.066,0.27,0.066c0.117,0,0.209-0.034,0.289-0.081L-0.26-0.35
						v0.001l0.016-0.005l0.172-0.036l0.174-0.019l0.173-0.004L0.448-0.4l0.173,0.029l0.166,0.045l0.166,0.058l0.159,0.074
						l0.153,0.088L1.41-0.004L1.547,0.11L1.67,0.237l0.053,0.061L1.771,0.36L0.17,1.339z M1.271,0.207L1.152,0.121L1.025,0.047
						l-0.13-0.063L0.759-0.067L0.62-0.108L0.479-0.136L0.335-0.151L0.191-0.154l-0.143,0.01l-0.145,0.021l-0.141,0.035l-0.137,0.045
						l-0.133,0.057l-0.129,0.069l-0.122,0.08l-0.002,0.002V0.164l-0.101,0.08l-0.1,0.088l-0.093,0.095L-1.137,0.53l-0.077,0.107
						l-0.071,0.115l-0.062,0.119L-1.4,0.996l-0.044,0.129l-0.035,0.131l-0.028,0.133l-0.017,0.133l-0.008,0.137l0.003,0.136
						l0.012,0.135l0.021,0.135l1.332-0.814l1.547-0.948L1.271,0.207z"/>
				</g>
			</g>
		</g>
		<g>
			<g>
				<polygon fill="#010101" points="0.575,-2.465 -1.3,-2.48 -1.304,-2.185 0.584,-2.185 				"/>
			</g>
		</g>
	</symbol>
</defs>
<path fill="#FFFFFF" d="M3.13,2.021C2.84,1.79,2.517,1.65,2.18,1.5C1.707,1.29,1.303,0.955,0.876,0.669
	C0.803,0.619,0.72,0.632,0.647,0.668c-0.005-0.031-0.01-0.072-0.016-0.1c-0.07-0.314-0.553-0.182-0.482,0.133
	c0.104,0.463,0.132,0.944,0.415,1.342c0.174,0.244,0.461,0.339,0.732,0.443C1.299,2.489,1.298,2.492,1.3,2.495
	c0.38,0.511,1.563,0.372,1.869-0.172C3.22,2.233,3.218,2.09,3.13,2.021z"/>
<use xlink:href="#DishAerial"  width="3.543" height="4.961" x="-1.771" y="-2.48" transform="matrix(1 0 0 -1 1.7715 2.4805)" overflow="visible"/>
<circle fill="#010101" cx="1.426" cy="6.23" r="0.567"/>
</svg>
