<?xml version="1.0" encoding="utf-8"?>
<!-- Generator: Adobe Illustrator 14.0.0, SVG Export Plug-In  -->
<!DOCTYPE svg PUBLIC "-//W3C//DTD SVG 1.1//EN" "http://www.w3.org/Graphics/SVG/1.1/DTD/svg11.dtd" [
	<!ENTITY ns_flows "http://ns.adobe.com/Flows/1.0/">
]>
<svg version="1.1"
	 xmlns="http://www.w3.org/2000/svg" xmlns:xlink="http://www.w3.org/1999/xlink" xmlns:a="http://ns.adobe.com/AdobeSVGViewerExtensions/3.0/"
	 x="0px" y="0px" width="7px" height="5px" viewBox="-0.748 -0.905 7 5" enable-background="new -0.748 -0.905 7 5"
	 xml:space="preserve">
<defs>
</defs>
<path fill="#FFFFFF" stroke="#FFFFFF" stroke-width="0.2836" d="M4.783,1.955C4.85,1.749,5.053,1.662,5.204,1.53
	C5.33,1.42,5.453,1.113,5.621,1.101C5.764,1.414,5.587,1.835,5.652,2.17c-0.01,0.012-0.025,0.018-0.035,0.03
	c0.041,0.136,0.029,0.43,0.008,0.578C5.505,2.707,5.418,2.533,5.326,2.423C5.212,2.287,5.112,2.146,4.993,2.017
	c0.12-0.096,0.286-0.292,0.371-0.42C5.482,1.724,5.392,2.15,5.469,2.312C5.337,2.308,5.306,2.137,5.202,2.08
	c0.013-0.021,0.032-0.05,0.05-0.063"/>
<path fill="#FFFFFF" stroke="#FFFFFF" stroke-width="0.2836" d="M5.674,0.876C5.675,1.399,5.332,1.881,5.28,2.405
	c0.054-0.278,0.207-0.552,0.19-0.841"/>
<path fill="#FFFFFF" stroke="#FFFFFF" stroke-width="0.2836" d="M4.564,1.923c0.233,0.261,0.5,0.504,0.747,0.747
	c0.16,0.158,0.303,0.215,0.402,0.411c0.057-0.09,0.026-0.225,0.026-0.333C5.738,2.557,5.767,2.368,5.745,2.176
	C5.724,1.994,5.688,1.828,5.689,1.644C5.69,1.38,5.673,1.122,5.638,0.864C5.439,1.015,5.29,1.263,5.11,1.441
	C5.054,1.497,5.006,1.542,4.924,1.533"/>
<path fill="#FFFFFF" stroke="#FFFFFF" stroke-width="0.2836" d="M4.627,1.689c0.122,0.072,0.225,0.246,0.313,0.359"/>
<path fill="#FFFFFF" stroke="#FFFFFF" stroke-width="0.2836" d="M4.549,2.017c0.193-0.416,0.613-0.716,0.907-1.063
	c0.093-0.11,0.152-0.233,0.312-0.234"/>
<path fill="#FFFFFF" stroke="#FFFFFF" stroke-width="0.2836" d="M5.768,1.033C5.753,0.934,5.752,0.836,5.752,0.736"/>
<path fill="#FFFFFF" stroke="#FFFFFF" stroke-width="0.2836" d="M5.736,0.83C5.704,0.766,5.729,0.724,5.799,0.705"/>
<line fill="none" stroke="#000000" stroke-width="0.2836" stroke-linejoin="bevel" x1="4.254" y1="1.938" x2="5.857" y2="0.334"/>
<line fill="none" stroke="#000000" stroke-width="0.2836" stroke-linejoin="bevel" x1="4.265" y1="1.95" x2="5.869" y2="3.555"/>
<path fill="none" stroke="#000000" stroke-width="0.2836" d="M0,1.938h4.263"/>
<line fill="none" stroke="#000000" stroke-width="0.2836" stroke-linejoin="bevel" x1="5.857" y1="3.328" x2="5.857" y2="0.548"/>
<polygon points="5.766,0.229 5.766,0.777 5.997,0.777 5.997,0.194 5.997,0 "/>
<polygon points="5.766,3.65 5.766,3.103 5.997,3.103 5.997,3.686 5.997,3.88 "/>
</svg>
