<?xml version="1.0" encoding="utf-8"?>
<!-- Generator: Adobe Illustrator 14.0.0, SVG Export Plug-In  -->
<!DOCTYPE svg PUBLIC "-//W3C//DTD SVG 1.1//EN" "http://www.w3.org/Graphics/SVG/1.1/DTD/svg11.dtd" [
	<!ENTITY ns_flows "http://ns.adobe.com/Flows/1.0/">
]>
<svg version="1.1"
	 xmlns="http://www.w3.org/2000/svg" xmlns:xlink="http://www.w3.org/1999/xlink" xmlns:a="http://ns.adobe.com/AdobeSVGViewerExtensions/3.0/"
	 x="0px" y="0px" width="6px" height="6px" viewBox="-0.773 -0.493 6 6" enable-background="new -0.773 -0.493 6 6"
	 xml:space="preserve">
<defs>
</defs>
<ellipse fill="#FFFFFF" cx="0.579" cy="4.911" rx="0.402" ry="0.376"/>
<line fill="none" stroke="#000000" stroke-width="0.2928" x1="0.562" y1="4.475" x2="0.562" y2="0.275"/>
<circle fill="#FFFFFF" stroke="#010101" stroke-width="0.2896" cx="0.579" cy="4.911" r="0.434"/>
<g id="XMLID_1_">
	<g>
		<path d="M2.739,0.291C3.493,0.335,4.09,0.736,4.507,1.169C4.045,1.591,3.415,1.98,2.626,2.014
			C1.827,2.036,1.173,1.647,0.689,1.236c0,0.111,0,0.222,0,0.333c-0.034-0.011-0.09-0.022-0.146-0.022c-0.034,0-0.057,0-0.09,0.011
			c0-0.333,0-0.667,0-1.011c0-0.078,0-0.156,0-0.245c0.034-0.056,0.158,0,0.236-0.022c0,0.256,0,0.511,0,0.756
			C1.185,0.636,1.872,0.235,2.739,0.291z"/>
	</g>
	<g>
	</g>
</g>
</svg>
