<?xml version="1.0" encoding="utf-8"?>
<!-- Generator: Adobe Illustrator 14.0.0, SVG Export Plug-In  -->
<!DOCTYPE svg PUBLIC "-//W3C//DTD SVG 1.1//EN" "http://www.w3.org/Graphics/SVG/1.1/DTD/svg11.dtd" [
	<!ENTITY ns_flows "http://ns.adobe.com/Flows/1.0/">
]>
<svg version="1.1"
	 xmlns="http://www.w3.org/2000/svg" xmlns:xlink="http://www.w3.org/1999/xlink" xmlns:a="http://ns.adobe.com/AdobeSVGViewerExtensions/3.0/"
	 x="0px" y="0px" width="4px" height="8px" viewBox="-0.097 -0.801 4 8" enable-background="new -0.097 -0.801 4 8"
	 xml:space="preserve">
<defs>
	<symbol  id="Building_x5F_HOW_x5F_Minaret_x5F_1L015P080" viewBox="-1.786 -1.786 3.572 3.572">
		<path fill="#FFFFFF" d="M1.604,0.006c0-0.907-0.71-1.643-1.589-1.643c-0.877,0-1.587,0.735-1.587,1.643s0.71,1.643,1.587,1.643
			C0.895,1.648,1.604,0.913,1.604,0.006z"/>
		<path d="M0,1.786c-0.986,0-1.786-0.8-1.786-1.786S-0.986-1.786,0-1.786S1.786-0.986,1.786,0S0.986,1.786,0,1.786z M0-1.365
			c-0.754,0-1.365,0.611-1.365,1.365c0,0.755,0.611,1.365,1.365,1.365S1.364,0.755,1.364,0C1.364-0.754,0.754-1.365,0-1.365z"/>
		<path d="M0.425,0c0-0.234-0.189-0.424-0.425-0.424S-0.425-0.234-0.425,0S-0.235,0.426,0,0.426S0.425,0.234,0.425,0z"/>
	</symbol>
	<symbol  id="Building_x5F_Mosque_x5F_Top" viewBox="-1.297 -1.87 2.594 3.74">
		<path d="M1.297,1.87H0.721c0-0.161-0.057-0.323-0.176-0.484C0.433,1.224,0.25,1.146,0.004,1.146c-0.204,0-0.381,0.07-0.521,0.211
			C-0.65,1.498-0.721,1.666-0.721,1.87h-0.576C-1.29,1.554-1.199,1.272-1.01,1.041c0.191-0.231,0.437-0.38,0.725-0.443V-1.87h0.576
			v2.468C0.58,0.661,0.819,0.81,1.009,1.041C1.199,1.272,1.297,1.554,1.297,1.87"/>
	</symbol>
	<symbol  id="Deleted_Symbol" viewBox="-2.126 -2.126 4.252 4.252">
		<path d="M2.126,0.573v1.553h-1.56V1.543h-1.133v0.583h-1.56V0.573h0.592v-1.147h-0.592v-1.552h1.56v0.588h1.133v-0.588h1.56v1.552
			H1.528v1.147H2.126z M1.157-0.574H0.566v-0.588h-1.133v0.588h-0.597v1.147h0.597v0.594h1.133V0.573h0.591V-0.574z"/>
	</symbol>
	<symbol  id="Deleted_Symbol_1" viewBox="-0.835 -3.25 1.671 6.501">
		<polygon points="0.625,2.878 0.797,3.251 0.797,3.251 0.792,3.114 0.81,3.004 0.819,2.895 0.81,2.758 0.732,2.566 0.717,2.507 
			0.717,2.427 0.75,2.274 0.788,2.117 0.819,2.023 0.835,1.933 0.835,1.821 0.81,1.706 0.701,1.436 0.651,1.333 0.548,1.203 
			0.458,1.109 0.321,1.018 0.176,0.963 0.041,0.937 -0.029,0.933 -0.029,0.933 -0.041,1.134 -0.041,1.134 0.015,1.138 0.11,1.153 
			0.213,1.193 0.312,1.26 0.381,1.33 0.462,1.436 0.5,1.511 0.604,1.761 0.62,1.841 0.62,1.918 0.607,1.979 0.577,2.069 
			0.539,2.234 0.5,2.406 0.5,2.531 0.527,2.627 		"/>
		<polygon points="-0.029,0.933 -0.212,0.943 -0.327,0.966 -0.587,1.083 -0.689,1.163 -0.76,1.244 -0.804,1.324 -0.819,1.395 
			-0.835,1.48 -0.835,1.604 -0.78,1.781 -0.63,2.014 -0.474,2.214 -0.321,2.366 -0.187,2.526 -0.1,2.633 0.003,2.724 0.272,2.918 
			0.539,3.101 0.797,3.251 0.797,3.251 0.625,2.878 0.625,2.878 0.436,2.779 0.402,2.758 0.144,2.571 0.063,2.494 -0.014,2.406 
			-0.16,2.234 -0.306,2.091 -0.452,1.902 -0.582,1.701 -0.619,1.576 -0.619,1.501 -0.607,1.436 -0.598,1.391 -0.576,1.354 
			-0.533,1.306 -0.468,1.253 -0.256,1.159 -0.175,1.138 -0.041,1.134 -0.041,1.134 		"/>
		<path d="M-0.078-3.004c0.247,0,0.43-0.1,0.551-0.246v3.779l-0.26,0.243h-0.54l-0.261-0.243v-3.741
			C-0.467-3.089-0.301-3.004-0.078-3.004z"/>
	</symbol>
</defs>
<ellipse fill="#FFFFFF" cx="1.786" cy="5.119" rx="1.605" ry="1.578"/>
<use xlink:href="#Building_x5F_HOW_x5F_Minaret_x5F_1L015P080"  width="3.572" height="3.572" x="-1.786" y="-1.786" transform="matrix(1 0 0 -1 1.7861 5.1191)" overflow="visible"/>
<use xlink:href="#Building_x5F_Mosque_x5F_Top"  width="2.594" height="3.74" x="-1.297" y="-1.87" transform="matrix(1 0 0 -1 1.7861 1.8701)" overflow="visible"/>
</svg>
