<?xml version="1.0" encoding="utf-8"?>
<!-- Generator: Adobe Illustrator 14.0.0, SVG Export Plug-In  -->
<!DOCTYPE svg PUBLIC "-//W3C//DTD SVG 1.1//EN" "http://www.w3.org/Graphics/SVG/1.1/DTD/svg11.dtd" [
	<!ENTITY ns_flows "http://ns.adobe.com/Flows/1.0/">
]>
<svg version="1.1"
	 xmlns="http://www.w3.org/2000/svg" xmlns:xlink="http://www.w3.org/1999/xlink" xmlns:a="http://ns.adobe.com/AdobeSVGViewerExtensions/3.0/"
	 x="0px" y="0px" width="4px" height="6px" viewBox="-0.791 -0.856 4 6" enable-background="new -0.791 -0.856 4 6"
	 xml:space="preserve">
<defs>
	<symbol  id="Building_x5F_Mosque_x5F_Top" viewBox="-1.297 -1.87 2.594 3.74">
		<path d="M1.297,1.87H0.721c0-0.161-0.057-0.323-0.176-0.484C0.433,1.224,0.25,1.146,0.004,1.146c-0.204,0-0.381,0.07-0.521,0.211
			C-0.65,1.498-0.721,1.666-0.721,1.87h-0.576C-1.29,1.554-1.199,1.272-1.01,1.041c0.191-0.231,0.437-0.38,0.725-0.443V-1.87h0.576
			v2.468C0.58,0.661,0.819,0.81,1.009,1.041C1.199,1.272,1.297,1.554,1.297,1.87"/>
	</symbol>
</defs>
<rect x="0.588" y="2.829" width="1.417" height="1.417"/>
<use xlink:href="#Building_x5F_Mosque_x5F_Top"  width="2.594" height="3.74" x="-1.297" y="-1.87" transform="matrix(1 0 0 -1 1.2969 1.8701)" overflow="visible"/>
</svg>
