<?xml version="1.0" encoding="utf-8"?>
<!-- Generator: Adobe Illustrator 14.0.0, SVG Export Plug-In  -->
<!DOCTYPE svg PUBLIC "-//W3C//DTD SVG 1.1//EN" "http://www.w3.org/Graphics/SVG/1.1/DTD/svg11.dtd" [
	<!ENTITY ns_flows "http://ns.adobe.com/Flows/1.0/">
]>
<svg version="1.1"
	 xmlns="http://www.w3.org/2000/svg" xmlns:xlink="http://www.w3.org/1999/xlink" xmlns:a="http://ns.adobe.com/AdobeSVGViewerExtensions/3.0/"
	 x="0px" y="0px" width="4px" height="4px" viewBox="-0.796 -0.415 4 4" enable-background="new -0.796 -0.415 4 4"
	 xml:space="preserve">
<defs>
	<symbol  id="Boundary_Mark_x5F_9B030P001" viewBox="-1.417 -1.417 2.834 2.834">
		<path fill-rule="evenodd" clip-rule="evenodd" d="M0.284,0c0-0.156-0.127-0.283-0.284-0.283c-0.156,0-0.283,0.127-0.283,0.283
			S-0.156,0.283,0,0.283C0.157,0.283,0.284,0.156,0.284,0z"/>
		<polygon fill-rule="evenodd" clip-rule="evenodd" fill="none" stroke="#000000" stroke-width="0.2835" points="1.275,-1.275 
			-1.275,-1.275 -1.275,1.275 1.275,1.275 		"/>
	</symbol>
	<symbol  id="Deleted_Symbol" viewBox="-2.126 -2.126 4.252 4.252">
		<path d="M2.126,0.573v1.553h-1.56V1.543h-1.133v0.583h-1.56V0.573h0.592v-1.147h-0.592v-1.552h1.56v0.588h1.133v-0.588h1.56v1.552
			H1.528v1.147H2.126z M1.157-0.574H0.566v-0.588h-1.133v0.588h-0.597v1.147h0.597v0.594h1.133V0.573h0.591V-0.574z"/>
	</symbol>
</defs>
<rect x="0.079" y="0.148" fill="#FFFFFF" width="2.547" height="2.516"/>
<use xlink:href="#Boundary_Mark_x5F_9B030P001"  width="2.834" height="2.834" x="-1.417" y="-1.417" transform="matrix(1 0 0 -1 1.417 1.417)" overflow="visible"/>
</svg>
