<?xml version="1.0" encoding="utf-8"?>
<!-- Generator: Adobe Illustrator 14.0.0, SVG Export Plug-In  -->
<!DOCTYPE svg PUBLIC "-//W3C//DTD SVG 1.1//EN" "http://www.w3.org/Graphics/SVG/1.1/DTD/svg11.dtd" [
	<!ENTITY ns_flows "http://ns.adobe.com/Flows/1.0/">
]>
<svg version="1.1"
	 xmlns="http://www.w3.org/2000/svg" xmlns:xlink="http://www.w3.org/1999/xlink" xmlns:a="http://ns.adobe.com/AdobeSVGViewerExtensions/3.0/"
	 x="0px" y="0px" width="5px" height="5px" viewBox="-0.339 -0.894 5 5" enable-background="new -0.339 -0.894 5 5"
	 xml:space="preserve">
<defs>
</defs>
<path fill-rule="evenodd" clip-rule="evenodd" fill="#FFFFFF" d="M2.381,1.797C2.05,1.289,1.277,1.642,1.472,2.212
	C1.765,2.854,2.705,2.424,2.381,1.797"/>
<path fill-rule="evenodd" clip-rule="evenodd" fill="#BC9045" d="M1.59,0h0.708L2.3,1.431l1.234-0.717L3.89,1.329L2.648,2.044
	L3.89,2.756L3.534,3.369L2.297,2.655l0.001,1.427H1.59V2.655L0.354,3.369L0,2.756l1.236-0.712L0,1.329l0.354-0.615L1.61,1.441
	L1.59,0 M2.239,1.872L2.032,1.714L1.774,1.747L1.615,1.954l0.034,0.257L1.856,2.37l0.258-0.034l0.159-0.207L2.239,1.872z"/>
</svg>
