<?xml version="1.0" encoding="utf-8"?>
<!-- Generator: Adobe Illustrator 14.0.0, SVG Export Plug-In  -->
<!DOCTYPE svg PUBLIC "-//W3C//DTD SVG 1.1//EN" "http://www.w3.org/Graphics/SVG/1.1/DTD/svg11.dtd" [
	<!ENTITY ns_flows "http://ns.adobe.com/Flows/1.0/">
]>
<svg version="1.1"
	 xmlns="http://www.w3.org/2000/svg" xmlns:xlink="http://www.w3.org/1999/xlink" xmlns:a="http://ns.adobe.com/AdobeSVGViewerExtensions/3.0/"
	 x="0px" y="0px" width="3px" height="9px" viewBox="-0.453 -0.494 3 9" enable-background="new -0.453 -0.494 3 9"
	 xml:space="preserve">
<defs>
</defs>
<circle fill="#BC9045" cx="1.134" cy="1.133" r="1.134"/>
<path fill="#BC9045" d="M0.868,2.094c0,0.084,0.002,0.168,0.004,0.248c0.007,0.33,0.012,0.592-0.101,0.826
	C0.719,3.277,0.62,3.383,0.516,3.498c-0.214,0.23-0.507,0.545-0.482,1.08c0.022,0.496,0.261,0.783,0.451,1.016
	C0.636,5.777,0.79,5.922,0.823,6.154C0.853,6.363,0.91,7.016,0.91,7.016C0.905,7.209,0.929,7.602,1.044,7.617
	c0.051,0.008,0.174-0.318,0.178-0.51c0,0,0.161-0.832,0.128-1.027C1.276,5.645,1.058,5.311,0.882,5.1
	C0.708,4.887,0.609,4.756,0.599,4.539C0.591,4.361,0.681,4.246,0.89,4.02C1.017,3.885,1.16,3.729,1.261,3.521
	c0.194-0.406,0.186-0.811,0.178-1.197C1.437,2.248,1.437,2.17,1.437,2.094l0,0c0-0.193-0.127-0.348-0.283-0.348
	C0.995,1.746,0.868,1.9,0.868,2.094L0.868,2.094z"/>
</svg>
