<?xml version="1.0" encoding="utf-8"?>
<!-- Generator: Adobe Illustrator 14.0.0, SVG Export Plug-In  -->
<!DOCTYPE svg PUBLIC "-//W3C//DTD SVG 1.1//EN" "http://www.w3.org/Graphics/SVG/1.1/DTD/svg11.dtd" [
	<!ENTITY ns_flows "http://ns.adobe.com/Flows/1.0/">
]>
<svg version="1.1"
	 xmlns="http://www.w3.org/2000/svg" xmlns:xlink="http://www.w3.org/1999/xlink" xmlns:a="http://ns.adobe.com/AdobeSVGViewerExtensions/3.0/"
	 x="0px" y="0px" width="5px" height="8px" viewBox="-0.27 -0.033 5 8" enable-background="new -0.27 -0.033 5 8"
	 xml:space="preserve">
<defs>
	<symbol  id="Lighthouse_1" viewBox="-2.126 -2.835 4.252 5.669">
		<path fill="none" d="M0,1.364c-0.334,0-0.608-0.278-0.608-0.625c0-0.345,0.274-0.623,0.608-0.623s0.607,0.278,0.607,0.623
			C0.607,1.086,0.334,1.364,0,1.364z"/>
		<path fill="#010101" d="M0.714,0.428l1.412,0.852H0.55L0,2.834l-0.55-1.556h-1.576l1.411-0.852l-0.657-1.503l1.074,0.819
			c-0.018-0.202-0.362-2.28-0.362-2.28l-0.525,0.014v-0.312h2.482v0.312L0.761-2.537L0.322-0.24l1.052-0.835L0.714,0.428z M0,0.116
			c-0.334,0-0.608,0.278-0.608,0.623c0,0.347,0.274,0.625,0.608,0.625s0.607-0.278,0.607-0.625C0.607,0.396,0.334,0.116,0,0.116z"/>
		<polygon fill="#010101" points="1.297,-2.523 -1.186,-2.523 -1.186,-2.835 1.297,-2.835 		"/>
	</symbol>
</defs>
<ellipse fill="#FFFFFF" cx="2.126" cy="2.084" rx="0.646" ry="0.68"/>
<polygon points="2.714,6.939 2.714,6.95 2.714,6.959 2.713,6.97 2.713,6.979 2.712,6.99 2.711,6.999 2.71,7.008 2.709,7.019 
	2.707,7.027 2.705,7.039 2.703,7.048 2.701,7.057 2.699,7.067 2.697,7.076 2.694,7.086 2.692,7.096 2.689,7.105 2.687,7.115 
	2.683,7.125 2.68,7.134 2.676,7.143 2.673,7.152 2.669,7.162 2.665,7.171 2.661,7.179 2.656,7.188 2.652,7.197 2.647,7.207 
	2.644,7.215 2.638,7.224 2.633,7.231 2.628,7.239 2.623,7.248 2.617,7.257 2.611,7.265 2.605,7.272 2.6,7.28 2.594,7.288 
	2.588,7.297 2.581,7.305 2.575,7.313 2.568,7.318 2.562,7.326 2.555,7.333 2.548,7.34 2.541,7.348 2.533,7.354 2.526,7.361 
	2.519,7.367 2.512,7.374 2.504,7.379 2.496,7.387 2.488,7.393 2.48,7.398 2.472,7.403 2.464,7.41 2.456,7.415 2.447,7.42 
	2.438,7.426 2.431,7.432 2.422,7.436 2.413,7.44 2.404,7.444 2.396,7.449 2.387,7.453 2.377,7.457 2.369,7.461 2.359,7.465 
	2.351,7.469 2.341,7.473 2.332,7.477 2.322,7.479 2.313,7.481 2.304,7.484 2.293,7.486 2.284,7.489 2.274,7.492 2.265,7.494 
	2.255,7.496 2.245,7.498 2.236,7.5 2.226,7.501 2.216,7.502 2.206,7.504 2.196,7.504 2.187,7.505 2.177,7.505 2.166,7.506 
	2.156,7.506 2.146,7.506 2.137,7.506 2.127,7.506 2.117,7.505 2.107,7.505 2.098,7.504 2.088,7.504 2.078,7.502 2.068,7.501 
	2.058,7.5 2.048,7.498 2.039,7.496 2.029,7.494 2.02,7.492 2.01,7.489 2,7.486 1.99,7.484 1.981,7.481 1.972,7.479 1.962,7.477 
	1.953,7.473 1.943,7.469 1.935,7.465 1.925,7.461 1.916,7.457 1.907,7.453 1.898,7.449 1.89,7.444 1.881,7.44 1.872,7.436 
	1.863,7.432 1.855,7.426 1.847,7.42 1.838,7.415 1.83,7.41 1.821,7.403 1.813,7.398 1.806,7.393 1.798,7.387 1.79,7.379 
	1.782,7.374 1.775,7.367 1.768,7.361 1.76,7.354 1.753,7.348 1.746,7.34 1.738,7.333 1.732,7.326 1.726,7.318 1.719,7.313 
	1.712,7.305 1.706,7.297 1.7,7.288 1.693,7.28 1.688,7.272 1.683,7.265 1.677,7.257 1.671,7.248 1.666,7.239 1.661,7.231 
	1.656,7.224 1.65,7.215 1.646,7.207 1.642,7.197 1.637,7.188 1.633,7.179 1.629,7.171 1.625,7.162 1.621,7.152 1.618,7.143 
	1.614,7.134 1.61,7.125 1.607,7.115 1.604,7.105 1.602,7.096 1.6,7.086 1.597,7.076 1.595,7.067 1.592,7.057 1.59,7.048 
	1.589,7.039 1.587,7.027 1.585,7.019 1.584,7.008 1.583,6.999 1.582,6.99 1.581,6.979 1.581,6.97 1.58,6.959 1.58,6.95 1.58,6.939 
	1.58,6.93 1.58,6.92 1.581,6.91 1.581,6.9 1.582,6.891 1.583,6.88 1.584,6.871 1.585,6.86 1.587,6.852 1.589,6.842 1.59,6.831 
	1.592,6.822 1.595,6.813 1.597,6.802 1.6,6.793 1.602,6.783 1.604,6.774 1.607,6.766 1.61,6.756 1.614,6.745 1.618,6.736 
	1.621,6.729 1.625,6.719 1.629,6.709 1.633,6.7 1.637,6.691 1.642,6.682 1.646,6.674 1.65,6.664 1.656,6.656 1.661,6.647 
	1.666,6.64 1.671,6.631 1.677,6.622 1.683,6.614 1.688,6.606 1.693,6.599 1.7,6.59 1.706,6.582 1.712,6.574 1.719,6.568 
	1.726,6.561 1.732,6.554 1.738,6.545 1.746,6.539 1.753,6.532 1.76,6.525 1.768,6.518 1.775,6.512 1.782,6.506 1.79,6.5 
	1.798,6.492 1.806,6.487 1.813,6.48 1.821,6.476 1.83,6.471 1.838,6.464 1.847,6.459 1.855,6.455 1.863,6.449 1.872,6.443 
	1.881,6.439 1.89,6.435 1.898,6.431 1.907,6.426 1.916,6.422 1.925,6.418 1.935,6.415 1.943,6.41 1.953,6.406 1.962,6.404 
	1.972,6.4 1.981,6.397 1.99,6.395 2,6.393 2.01,6.39 2.02,6.387 2.029,6.386 2.039,6.383 2.048,6.382 2.058,6.381 2.068,6.378 
	2.078,6.377 2.088,6.377 2.098,6.375 2.107,6.374 2.117,6.374 2.127,6.374 2.137,6.373 2.146,6.373 2.156,6.373 2.166,6.374 
	2.177,6.374 2.187,6.374 2.196,6.375 2.206,6.377 2.216,6.377 2.226,6.378 2.236,6.381 2.245,6.382 2.255,6.383 2.265,6.386 
	2.274,6.387 2.284,6.39 2.293,6.393 2.304,6.395 2.313,6.397 2.322,6.4 2.332,6.404 2.341,6.406 2.351,6.41 2.359,6.415 
	2.369,6.418 2.377,6.422 2.387,6.426 2.396,6.431 2.404,6.435 2.413,6.439 2.422,6.443 2.431,6.449 2.438,6.455 2.447,6.459 
	2.456,6.464 2.464,6.471 2.472,6.476 2.48,6.48 2.488,6.487 2.496,6.492 2.504,6.5 2.512,6.506 2.519,6.512 2.526,6.518 
	2.533,6.525 2.541,6.532 2.548,6.539 2.555,6.545 2.562,6.554 2.568,6.561 2.575,6.568 2.581,6.574 2.588,6.582 2.594,6.59 
	2.6,6.599 2.605,6.606 2.611,6.614 2.617,6.622 2.623,6.631 2.628,6.64 2.633,6.647 2.638,6.656 2.644,6.664 2.647,6.674 
	2.652,6.682 2.656,6.691 2.661,6.7 2.665,6.709 2.669,6.719 2.673,6.729 2.676,6.736 2.68,6.745 2.683,6.756 2.687,6.766 
	2.689,6.774 2.692,6.783 2.694,6.793 2.697,6.802 2.699,6.813 2.701,6.822 2.703,6.831 2.705,6.842 2.707,6.852 2.709,6.86 
	2.71,6.871 2.711,6.88 2.712,6.891 2.713,6.9 2.713,6.91 2.714,6.92 2.714,6.93 "/>
<use xlink:href="#Lighthouse_1"  width="4.252" height="5.669" x="-2.126" y="-2.835" transform="matrix(1 0 0 -1 2.126 2.834)" overflow="visible"/>
</svg>
