<?xml version="1.0" encoding="utf-8"?>
<!-- Generator: Adobe Illustrator 14.0.0, SVG Export Plug-In  -->
<!DOCTYPE svg PUBLIC "-//W3C//DTD SVG 1.1//EN" "http://www.w3.org/Graphics/SVG/1.1/DTD/svg11.dtd" [
	<!ENTITY ns_flows "http://ns.adobe.com/Flows/1.0/">
]>
<svg version="1.1"
	 xmlns="http://www.w3.org/2000/svg" xmlns:xlink="http://www.w3.org/1999/xlink" xmlns:a="http://ns.adobe.com/AdobeSVGViewerExtensions/3.0/"
	 x="0px" y="0px" width="15px" height="10px" viewBox="-0.345 -0.383 15 10" enable-background="new -0.345 -0.383 15 10"
	 xml:space="preserve">
<defs>
</defs>
<path fill-rule="evenodd" clip-rule="evenodd" fill="#FFFFFF" d="M12.811,4.852C9.035,4.835,5.259,4.807,1.483,4.805
	c-0.544,0-0.624,0.705-0.25,0.928C1.116,6.021,1.247,6.396,1.642,6.409c0.904,1.317,1.526,1.296,3.201,1.317
	c1.192,0.015,1.416,1.627,2.841,1.236C7.91,8.9,8.324,8.613,8.387,8.344C8.598,7.437,9.081,7.7,9.975,7.682
	c0.476-0.01,1.523,0.196,1.945-0.12c0.742-0.555,0.643-1.123,1.244-1.856C13.431,5.381,13.279,4.854,12.811,4.852z"/>
<path fill-rule="evenodd" clip-rule="evenodd" d="M5.898,0c0.009,0,0.018,0,0.026,0c0,0.008,0,0.016,0,0.023
	c0.003,0.006,0.018,0.001,0.024,0.003c0,0.006,0,0.013,0,0.02c0.002,0.007,0.017,0.001,0.024,0.003c0,0.008,0,0.016,0,0.023
	c0.009,0,0.018,0,0.026,0C6,0.08,6,0.088,6,0.095c0.002,0.007,0.017,0.002,0.024,0.003c0,0.007,0,0.014,0,0.021
	c0.002,0.007,0.017,0.001,0.023,0.003c0,0.008,0,0.016,0,0.023c0.01,0,0.019,0,0.027,0c0,0.007,0,0.015,0,0.022
	C6.077,0.174,6.092,0.168,6.1,0.17c0,0.007,0,0.014,0,0.021c0.002,0.006,0.017,0.001,0.023,0.003c0,0.008,0,0.015,0,0.022
	c0.009,0,0.019,0,0.027,0c0,0.008,0,0.016,0,0.023C6.152,0.245,6.167,0.24,6.174,0.242c0,0.008,0,0.016,0,0.022
	c0.009,0,0.017,0,0.024,0c0,0.008,0,0.016,0,0.023c0.009,0,0.018,0,0.027,0c0,0.008,0,0.016,0,0.023
	c0.002,0.006,0.017,0.001,0.023,0.003c0,0.006,0,0.013,0,0.02c0.002,0.007,0.017,0.001,0.024,0.003c0,0.008,0,0.016,0,0.023
	c0.009,0,0.018,0,0.026,0c0,0.008,0,0.015,0,0.022C6.303,0.39,6.317,0.384,6.324,0.386c0,0.008,0,0.016,0,0.023
	c0.008,0,0.016,0,0.024,0c0,0.008,0,0.016,0,0.022c0.009,0,0.018,0,0.026,0c0,0.008,0,0.016,0,0.023
	c0.002,0.007,0.017,0.001,0.024,0.003c0,0.008,0,0.016,0,0.023c0.008,0,0.016,0,0.023,0c0,0.015,0,0.03,0,0.046
	C6.427,0.533,6.442,0.528,6.45,0.53c0,0.007,0,0.013,0,0.02c0.002,0.007,0.017,0.001,0.024,0.003c0,0.008,0,0.016,0,0.023
	c0.008,0,0.016,0,0.023,0c0,0.009,0,0.018,0,0.025c0.009,0,0.019,0,0.027,0c0,0.008,0,0.016,0,0.023c0.008,0,0.016,0,0.023,0
	c0,0.007,0,0.014,0,0.021c0.003,0.006,0.018,0.001,0.024,0.003c0,0.008,0,0.017,0,0.025c0.009,0,0.018,0,0.027,0
	c0,0.008,0,0.016,0,0.023c0.008,0,0.016,0,0.023,0c0,0.008,0,0.015,0,0.022c0.008,0,0.017,0,0.024,0c0,0.009,0,0.018,0,0.026
	c0.009,0,0.018,0,0.026,0c0,0.008,0,0.016,0,0.022c0.009,0,0.017,0,0.024,0c0,0.007,0,0.014,0,0.021
	C6.701,0.796,6.716,0.79,6.724,0.792c0,0.008,0,0.016,0,0.023C6.727,0.821,6.742,0.816,6.75,0.818c0,0.007,0,0.015,0,0.022
	c0.008,0,0.017,0,0.024,0c0,0.008,0,0.016,0,0.023c0.008,0,0.016,0,0.023,0c0,0.009,0,0.017,0,0.025c0.01,0,0.019,0,0.027,0
	c0,0.008,0,0.016,0,0.023c0.008,0,0.016,0,0.024,0c0,0.007,0,0.014,0,0.021c0.002,0.006,0.017,0.001,0.023,0.003
	c0,0.007,0,0.015,0,0.022C6.876,0.966,6.892,0.96,6.9,0.962c0,0.008,0,0.016,0,0.023c0.008,0,0.016,0,0.023,0
	c0,0.007,0,0.013,0,0.02c0.003,0.007,0.018,0.001,0.024,0.003c0,0.009,0,0.018,0,0.026c0.009,0,0.018,0,0.027,0
	c0,0.007,0,0.014,0,0.02c0.002,0.007,0.017,0.002,0.023,0.003c0,0.008,0,0.016,0,0.023c0.008,0,0.017,0,0.024,0
	c0,0.008,0,0.016,0,0.023C7.026,1.109,7.042,1.104,7.05,1.106c0,0.006,0,0.013,0,0.02c0.003,0.007,0.018,0.001,0.024,0.003
	c0,0.008,0,0.016,0,0.023c0.008,0,0.016,0,0.024,0c0,0.008,0,0.015,0,0.022c0.003,0.007,0.019,0.001,0.026,0.003
	c0,0.008,0,0.016,0,0.023c0.008,0,0.017,0,0.024,0c0,0.007,0,0.014,0,0.02c0.002,0.007,0.017,0.002,0.023,0.003
	c0,0.008,0,0.016,0,0.023C7.177,1.254,7.192,1.248,7.2,1.25c0,0.008,0,0.016,0,0.023c0.015,0,0.03,0,0.045,0
	C7.252,1.271,7.246,1.257,7.248,1.25c0.009,0,0.019,0,0.027,0c0-0.009,0-0.018,0-0.026c0.008,0,0.016,0,0.023,0
	c0-0.007,0-0.015,0-0.022c0.008,0,0.015,0,0.021,0c0.007-0.002,0.001-0.017,0.003-0.023c0.009,0,0.018,0,0.027,0
	c0-0.009,0-0.017,0-0.025c0.008,0,0.016,0,0.023,0c0-0.008,0-0.016,0-0.023c0.008,0,0.017,0,0.024,0c0-0.008,0-0.016,0-0.022
	c0.008,0,0.016,0,0.023,0C7.429,1.103,7.424,1.088,7.425,1.08c0.008,0,0.015,0,0.021,0c0.007-0.002,0.001-0.017,0.003-0.023
	c0.007,0,0.014,0,0.021,0c0.007-0.002,0.002-0.016,0.004-0.022c0.008,0,0.016,0,0.023,0C7.504,1.031,7.498,1.016,7.5,1.008
	c0.007,0,0.015,0,0.021,0c0.007-0.002,0.001-0.016,0.003-0.022c0.007,0,0.014,0,0.021,0c0.007-0.003,0.001-0.017,0.003-0.023
	c0.009,0,0.017,0,0.024,0c0.007-0.003,0.001-0.018,0.003-0.025c0.008,0,0.016,0,0.024,0c0-0.008,0-0.016,0-0.023
	c0.008,0,0.016,0,0.023,0c0-0.008,0-0.016,0-0.023c0.008,0,0.017,0,0.024,0C7.654,0.887,7.648,0.872,7.65,0.864
	c0.007,0,0.014,0,0.021,0c0.007-0.002,0.002-0.017,0.003-0.023c0.009,0,0.017,0,0.024,0c0-0.008,0-0.016,0-0.022
	c0.009,0,0.018,0,0.027,0c0-0.009,0-0.018,0-0.026c0.007,0,0.014,0,0.021,0C7.753,0.79,7.747,0.776,7.749,0.769
	c0.008,0,0.017,0,0.024,0c0-0.007,0-0.015,0-0.022c0.009,0,0.018,0,0.026,0c0-0.009,0-0.018,0-0.026c0.009,0,0.017,0,0.024,0
	c0-0.008,0-0.015,0-0.022c0.008,0,0.016,0,0.024,0c0-0.017,0-0.033,0-0.049c0.008,0,0.016,0,0.023,0
	c0.007-0.003,0.001-0.017,0.003-0.023c0.008,0,0.017,0,0.024,0c0-0.008,0-0.016,0-0.023c0.008,0,0.016,0,0.023,0
	c0-0.008,0-0.017,0-0.025c0.009,0,0.017,0,0.024,0C7.954,0.574,7.948,0.56,7.95,0.553c0.008,0,0.016,0,0.024,0
	c0-0.008,0-0.015,0-0.022c0.008,0,0.016,0,0.023,0c0-0.009,0-0.018,0-0.026c0.008,0,0.017,0,0.024,0
	c0.007-0.002,0.001-0.016,0.003-0.022c0.007,0,0.014,0,0.021,0c0.007-0.003,0.002-0.017,0.003-0.023c0.009,0,0.017,0,0.024,0
	c0-0.009,0-0.018,0-0.026c0.008,0,0.016,0,0.024,0C8.104,0.43,8.099,0.416,8.101,0.409c0.008,0,0.016,0,0.023,0
	c0-0.008,0-0.016,0-0.023c0.008,0,0.017,0,0.024,0c0-0.009,0-0.017,0-0.025c0.008,0,0.016,0,0.023,0
	c0.007-0.002,0.002-0.017,0.003-0.023c0.009,0,0.017,0,0.024,0c0-0.008,0-0.016,0-0.022c0.008,0,0.016,0,0.024,0
	c0-0.009,0-0.018,0-0.026c0.008,0,0.016,0,0.023,0C8.254,0.286,8.248,0.271,8.25,0.265c0.008,0,0.017,0,0.024,0
	c0-0.007,0-0.015,0-0.022c0.008,0,0.016,0,0.023,0c0-0.009,0-0.018,0-0.026c0.009,0,0.017,0,0.024,0
	C8.329,0.214,8.323,0.2,8.325,0.193c0.008,0,0.016,0,0.024,0c0-0.008,0-0.016,0-0.023c0.008,0,0.016,0,0.023,0
	c0-0.009,0-0.018,0-0.025c0.008,0,0.017,0,0.024,0C8.404,0.142,8.398,0.128,8.4,0.121c0.008,0,0.016,0,0.023,0
	c0-0.008,0-0.016,0-0.023c0.009,0,0.017,0,0.024,0c0-0.009,0-0.017,0-0.025c0.008,0,0.016,0,0.024,0
	C8.479,0.07,8.474,0.056,8.476,0.049c0.008,0,0.016,0,0.023,0c0-0.008,0-0.016,0-0.022c0.008,0,0.017,0,0.024,0
	c0-0.009,0-0.018,0-0.026C8.532,0,8.541,0,8.55,0c0,0.008,0,0.016,0,0.023c0.003,0.006,0.018,0.001,0.024,0.003
	c0,0.007,0,0.015,0,0.022c0.008,0,0.016,0,0.024,0c0,0.008,0,0.016,0,0.023c0.009,0,0.018,0,0.026,0c0,0.008,0,0.016,0,0.022
	c0.002,0.007,0.017,0.002,0.024,0.003c0,0.008,0,0.016,0,0.023c0.008,0,0.016,0,0.023,0c0,0.008,0,0.016,0,0.023
	c0.01,0,0.019,0,0.027,0c0,0.007,0,0.015,0,0.022C8.702,0.174,8.717,0.168,8.725,0.17c0,0.008,0,0.016,0,0.023
	c0.008,0,0.016,0,0.023,0c0,0.008,0,0.015,0,0.022c0.009,0,0.019,0,0.027,0c0,0.008,0,0.016,0,0.023
	C8.777,0.245,8.792,0.24,8.799,0.242c0,0.008,0,0.016,0,0.022c0.009,0,0.017,0,0.024,0c0,0.008,0,0.016,0,0.023
	c0.009,0,0.018,0,0.027,0c0,0.008,0,0.016,0,0.023c0.002,0.006,0.017,0.001,0.023,0.003c0,0.006,0,0.013,0,0.02
	c0.002,0.007,0.017,0.001,0.024,0.003c0,0.008,0,0.016,0,0.023c0.009,0,0.018,0,0.026,0c0,0.023,0,0.048,0,0.071
	c-0.008,0-0.016,0-0.023,0C8.895,0.436,8.9,0.45,8.898,0.458c-0.008,0-0.017,0-0.024,0c0,0.008,0,0.016,0,0.023
	c-0.007,0-0.014,0-0.021,0C8.847,0.483,8.852,0.497,8.851,0.504c-0.009,0-0.017,0-0.024,0C8.819,0.507,8.825,0.522,8.823,0.53
	c-0.008,0-0.016,0-0.024,0c0,0.008,0,0.015,0,0.022c-0.007,0-0.014,0-0.021,0C8.771,0.555,8.777,0.569,8.775,0.576
	c-0.009,0-0.019,0-0.027,0c0,0.009,0,0.018,0,0.025c-0.008,0-0.016,0-0.023,0c0,0.008,0,0.016,0,0.023c-0.008,0-0.015,0-0.021,0
	C8.696,0.627,8.702,0.642,8.7,0.648c-0.009,0-0.018,0-0.027,0c0,0.008,0,0.017,0,0.025c-0.007,0-0.014,0-0.021,0
	C8.646,0.676,8.651,0.69,8.649,0.697c-0.008,0-0.017,0-0.024,0c0,0.008,0,0.015,0,0.022c-0.008,0-0.016,0-0.023,0
	C8.595,0.723,8.6,0.738,8.599,0.746c-0.008,0-0.015,0-0.021,0C8.57,0.748,8.576,0.762,8.574,0.769c-0.007,0-0.014,0-0.021,0
	C8.547,0.771,8.552,0.785,8.55,0.792c-0.008,0-0.016,0-0.023,0C8.52,0.795,8.525,0.811,8.523,0.818c-0.008,0-0.017,0-0.024,0
	c0,0.007,0,0.015,0,0.022c-0.008,0-0.016,0-0.023,0c0,0.008,0,0.016,0,0.023c-0.01,0-0.019,0-0.027,0c0,0.009,0,0.017,0,0.025
	c-0.007,0-0.014,0-0.021,0C8.421,0.893,8.426,0.906,8.424,0.913c-0.008,0-0.016,0-0.023,0c0,0.008,0,0.016,0,0.023
	c-0.009,0-0.019,0-0.027,0c0,0.008,0,0.017,0,0.025c-0.007,0-0.014,0-0.021,0C8.346,0.964,8.351,0.979,8.35,0.985
	c-0.009,0-0.017,0-0.024,0c0,0.008,0,0.015,0,0.022c-0.009,0-0.018,0-0.027,0c0,0.009,0,0.018,0,0.026c-0.007,0-0.014,0-0.021,0
	C8.271,1.036,8.276,1.05,8.274,1.057c-0.007,0-0.015,0-0.021,0C8.246,1.06,8.252,1.073,8.25,1.08c-0.008,0-0.016,0-0.023,0
	C8.22,1.083,8.225,1.099,8.224,1.106c-0.008,0-0.015,0-0.021,0C8.195,1.108,8.201,1.122,8.199,1.129c-0.007,0-0.014,0-0.021,0
	C8.172,1.131,8.177,1.146,8.175,1.152c-0.009,0-0.018,0-0.026,0c0,0.009,0,0.017,0,0.025c-0.007,0-0.015,0-0.021,0
	C8.12,1.18,8.126,1.194,8.124,1.201c-0.007,0-0.014,0-0.021,0C8.097,1.203,8.102,1.217,8.101,1.224c-0.01,0-0.019,0-0.027,0
	c0,0.017,0,0.033,0,0.05c-0.007,0-0.014,0-0.021,0C8.046,1.275,8.051,1.289,8.049,1.296c-0.008,0-0.016,0-0.023,0
	c0,0.009,0,0.018,0,0.026c-0.008,0-0.017,0-0.024,0C7.994,1.324,8,1.338,7.998,1.345c-0.008,0-0.016,0-0.023,0
	c0,0.008,0,0.016,0,0.023c-0.009,0-0.017,0-0.024,0c0,0.009,0,0.018,0,0.025c-0.008,0-0.016,0-0.024,0
	C7.92,1.396,7.925,1.41,7.923,1.417c-0.008,0-0.016,0-0.023,0c0,0.008,0,0.016,0,0.023c-0.008,0-0.017,0-0.024,0
	c0,0.008,0,0.017,0,0.025c-0.008,0-0.016,0-0.023,0C7.845,1.468,7.85,1.482,7.849,1.489c-0.009,0-0.017,0-0.024,0
	c0,0.008,0,0.015,0,0.022c-0.008,0-0.016,0-0.024,0c0,0.009,0,0.018,0,0.026c-0.008,0-0.016,0-0.023,0
	C7.77,1.54,7.775,1.554,7.773,1.561c-0.007,0-0.015,0-0.021,0C7.745,1.563,7.751,1.577,7.749,1.584c-0.008,0-0.016,0-0.023,0
	c0,0.009,0,0.018,0,0.026c-0.009,0-0.017,0-0.024,0C7.694,1.612,7.7,1.626,7.698,1.633c-0.008,0-0.016,0-0.024,0
	c0,0.008,0,0.016,0,0.023c-0.008,0-0.016,0-0.023,0c0,0.009,0,0.017,0,0.025c-0.009,0-0.019,0-0.027,0c0,0.007,0,0.014,0,0.021
	C7.626,1.709,7.642,1.703,7.65,1.705c0,0.007,0,0.014,0,0.021c0.002,0.006,0.017,0.001,0.023,0.003c0,0.007,0,0.015,0,0.022
	c0.003,0.007,0.018,0.001,0.024,0.003c0,0.008,0,0.016,0,0.023c0.009,0,0.018,0,0.027,0c0,0.008,0,0.015,0,0.022
	c0.008,0,0.016,0,0.023,0c0,0.008,0,0.016,0,0.023c0.002,0.006,0.017,0.001,0.024,0.003c0,0.008,0,0.016,0,0.022
	c0.009,0,0.018,0,0.026,0c0,0.008,0,0.016,0,0.023c0.009,0,0.017,0,0.024,0c0,0.008,0,0.016,0,0.023
	c0.002,0.006,0.017,0.001,0.024,0.003c0,0.007,0,0.015,0,0.022c0.009,0,0.018,0,0.026,0c0,0.008,0,0.016,0,0.023
	c0.008,0,0.017,0,0.024,0c0,0.008,0,0.015,0,0.022C7.901,1.974,7.916,1.968,7.923,1.97c0,0.008,0,0.016,0,0.023
	c0.01,0,0.019,0,0.027,0c0,0.008,0,0.016,0,0.022c0.008,0,0.016,0,0.024,0c0,0.008,0,0.016,0,0.023
	C7.977,2.046,7.991,2.04,7.998,2.042c0,0.008,0,0.016,0,0.023c0.009,0,0.019,0,0.027,0c0,0.007,0,0.015,0,0.022
	c0.008,0,0.016,0,0.023,0c0,0.008,0,0.016,0,0.023c0.003,0.006,0.018,0.001,0.024,0.003c0,0.008,0,0.015,0,0.022
	c0.009,0,0.018,0,0.027,0c0,0.008,0,0.016,0,0.023c0.008,0,0.016,0,0.023,0c0,0.008,0,0.016,0,0.022
	c0.002,0.007,0.017,0.002,0.024,0.003c0,0.015,0,0.029,0,0.044C8.151,2.235,8.167,2.23,8.175,2.232c0,0.007,0,0.015,0,0.022
	c0.003,0.007,0.018,0.001,0.024,0.003c0,0.007,0,0.014,0,0.021c0.002,0.006,0.017,0.001,0.024,0.003c0,0.008,0,0.015,0,0.022
	c0.009,0,0.018,0,0.026,0c0,0.008,0,0.016,0,0.023C8.252,2.334,8.267,2.328,8.274,2.33c0,0.008,0,0.016,0,0.022
	c0.008,0,0.016,0,0.023,0c0,0.008,0,0.016,0,0.023c0.01,0,0.019,0,0.027,0c0,0.008,0,0.016,0,0.023
	C8.327,2.405,8.342,2.4,8.35,2.402c0,0.007,0,0.015,0,0.022c0.008,0,0.016,0,0.023,0c0,0.008,0,0.016,0,0.023
	c0.009,0,0.019,0,0.027,0c0,0.008,0,0.016,0,0.022c0.002,0.007,0.017,0.002,0.023,0.003c0,0.008,0,0.016,0,0.023
	c0.009,0,0.017,0,0.024,0c0,0.008,0,0.016,0,0.023c0.009,0,0.018,0,0.027,0c0,0.007,0,0.015,0,0.022
	C8.478,2.55,8.492,2.544,8.499,2.546c0,0.008,0,0.016,0,0.023c0.008,0,0.017,0,0.024,0c0,0.008,0,0.015,0,0.022
	c0.009,0,0.018,0,0.026,0c0,0.008,0,0.016,0,0.023c0.003,0.007,0.018,0.001,0.024,0.003c0,0.008,0,0.016,0,0.022
	c0.008,0,0.016,0,0.024,0c0,0.008,0,0.016,0,0.023c0.009,0,0.018,0,0.026,0c0,0.008,0,0.016,0,0.023
	C8.627,2.693,8.642,2.688,8.649,2.69c0,0.006,0,0.013,0,0.02c0.002,0.007,0.017,0.001,0.023,0.003c0,0.008,0,0.016,0,0.023
	c0.01,0,0.019,0,0.027,0c0,0.008,0,0.015,0,0.022C8.702,2.766,8.717,2.76,8.725,2.762c0,0.008,0,0.016,0,0.023
	c0.008,0,0.016,0,0.023,0c0,0.008,0,0.016,0,0.022c0.009,0,0.019,0,0.027,0c0,0.008,0,0.016,0,0.023
	c0.002,0.007,0.017,0.001,0.023,0.003c0,0.007,0,0.014,0,0.021C8.802,2.86,8.816,2.855,8.823,2.857c0,0.007,0,0.015,0,0.022
	c0.009,0,0.018,0,0.027,0c0,0.008,0,0.016,0,0.023c0.002,0.006,0.017,0.001,0.023,0.003c0,0.008,0,0.015,0,0.022
	c0.008,0,0.017,0,0.024,0c0,0.008,0,0.016,0,0.023c0.009,0,0.018,0,0.026,0c0,0.023,0,0.048,0,0.072c-0.008,0-0.016,0-0.023,0
	C8.895,3.027,8.9,3.042,8.898,3.05c-0.007,0-0.015,0-0.021,0C8.87,3.052,8.876,3.066,8.874,3.073c-0.007,0-0.014,0-0.021,0
	C8.847,3.075,8.852,3.089,8.851,3.096c-0.01,0-0.019,0-0.027,0c0,0.009,0,0.018,0,0.026c-0.007,0-0.014,0-0.021,0
	C8.796,3.124,8.801,3.138,8.799,3.145c-0.008,0-0.016,0-0.023,0c0,0.008,0,0.016,0,0.023c-0.009,0-0.019,0-0.027,0
	c0,0.009,0,0.018,0,0.026c-0.007,0-0.014,0-0.021,0C8.721,3.196,8.726,3.21,8.725,3.217c-0.008,0-0.015,0-0.021,0
	C8.696,3.219,8.702,3.233,8.7,3.24c-0.009,0-0.018,0-0.027,0c0,0.009,0,0.018,0,0.025c-0.007,0-0.014,0-0.021,0
	C8.646,3.269,8.651,3.282,8.649,3.289c-0.008,0-0.017,0-0.024,0c0,0.008,0,0.016,0,0.023c-0.008,0-0.016,0-0.023,0
	C8.595,3.315,8.6,3.33,8.599,3.338c-0.009,0-0.017,0-0.024,0c0,0.008,0,0.016,0,0.023c-0.007,0-0.014,0-0.021,0
	C8.547,3.363,8.552,3.377,8.55,3.384c-0.009,0-0.018,0-0.026,0c0-0.007,0-0.013,0-0.02C8.521,3.357,8.507,3.362,8.499,3.361
	c0-0.007,0-0.014,0-0.021C8.497,3.334,8.482,3.34,8.476,3.338c0-0.009,0-0.018,0-0.025c-0.01,0-0.019,0-0.027,0
	c0-0.008,0-0.016,0-0.023c-0.008,0-0.016,0-0.024,0c0-0.007,0-0.014,0-0.021C8.422,3.263,8.407,3.268,8.4,3.266
	c0-0.008,0-0.015,0-0.022C8.397,3.236,8.381,3.242,8.373,3.24c0-0.007,0-0.014,0-0.021C8.371,3.214,8.356,3.219,8.35,3.217
	c0-0.007,0-0.014,0-0.02C8.347,3.19,8.332,3.195,8.325,3.194c0-0.008,0-0.016,0-0.023C8.322,3.164,8.307,3.17,8.298,3.168
	c0-0.008,0-0.016,0-0.023c-0.008,0-0.016,0-0.023,0c0-0.006,0-0.013,0-0.02C8.271,3.118,8.258,3.124,8.25,3.122
	c0-0.009,0-0.018,0-0.026c-0.009,0-0.018,0-0.026,0c0-0.007,0-0.013,0-0.02C8.221,3.069,8.206,3.075,8.199,3.073
	c0-0.008,0-0.016,0-0.023c-0.008,0-0.016,0-0.024,0c0-0.009,0-0.018,0-0.025c-0.009,0-0.018,0-0.026,0c0-0.007,0-0.014,0-0.021
	C8.146,2.997,8.132,3.003,8.124,3.001c0-0.008,0-0.016,0-0.023c-0.008,0-0.016,0-0.023,0c0-0.007,0-0.015,0-0.022
	c-0.004-0.007-0.02-0.001-0.027-0.003c0-0.007,0-0.014,0-0.021C8.071,2.926,8.057,2.931,8.049,2.929c0-0.008,0-0.015,0-0.022
	c-0.008,0-0.016,0-0.023,0c0-0.008,0-0.016,0-0.023C8.022,2.876,8.006,2.882,7.998,2.88c0-0.008,0-0.016,0-0.022
	c-0.008,0-0.016,0-0.023,0C7.979,2.837,7.971,2.83,7.95,2.834c0-0.008,0-0.016,0-0.023C7.947,2.805,7.932,2.81,7.923,2.808
	c0-0.007,0-0.015,0-0.022c-0.008,0-0.016,0-0.023,0c0-0.016,0-0.031,0-0.046C7.896,2.732,7.883,2.738,7.875,2.736
	c0-0.008,0-0.016,0-0.023c-0.009,0-0.018,0-0.026,0c0-0.008,0-0.016,0-0.022c-0.009,0-0.017,0-0.024,0c0-0.008,0-0.016,0-0.023
	C7.822,2.66,7.808,2.666,7.8,2.664c0-0.008,0-0.016,0-0.023c-0.009,0-0.018,0-0.026,0c0-0.006,0-0.013,0-0.02
	C7.771,2.614,7.757,2.62,7.749,2.618c0-0.008,0-0.016,0-0.023C7.747,2.589,7.732,2.594,7.726,2.592c0-0.008,0-0.015,0-0.022
	c-0.01,0-0.019,0-0.027,0c0-0.007,0-0.014,0-0.021C7.696,2.542,7.682,2.548,7.674,2.546c0-0.008,0-0.016,0-0.023
	C7.672,2.517,7.657,2.521,7.65,2.521c0-0.008,0-0.016,0-0.023c-0.009,0-0.019,0-0.027,0c0-0.007,0-0.014,0-0.021
	C7.621,2.471,7.606,2.476,7.6,2.474c0-0.008,0-0.015,0-0.022C7.597,2.444,7.582,2.45,7.575,2.448c0-0.008,0-0.016,0-0.023
	c-0.009,0-0.018,0-0.027,0c0-0.008,0-0.016,0-0.022c-0.008,0-0.016,0-0.023,0c0-0.008,0-0.016,0-0.023
	C7.521,2.372,7.508,2.378,7.5,2.376c0-0.008,0-0.016,0-0.023c-0.009,0-0.018,0-0.026,0c0-0.007,0-0.015,0-0.022
	c-0.009,0-0.017,0-0.024,0c0,0.751,0,1.501,0,2.252C9.718,4.589,12,4.583,14.274,4.585c0,0.017,0,0.032,0,0.049
	c-0.008,0-0.017,0-0.024,0c0,0.016,0,0.031,0,0.046c-0.008,0-0.016,0-0.023,0c-0.007,0.004-0.002,0.019-0.003,0.026
	c-0.009,0-0.017,0-0.024,0c0,0.016,0,0.03,0,0.046c-0.008,0-0.016,0-0.024,0c0,0.017,0,0.033,0,0.049c-0.008,0-0.016,0-0.023,0
	c-0.007,0.002-0.001,0.017-0.003,0.023c-0.008,0-0.017,0-0.024,0c0,0.017,0,0.032,0,0.049c-0.007,0-0.014,0-0.021,0
	c-0.007,0.002-0.002,0.017-0.003,0.023c-0.01,0-0.019,0-0.027,0c0,0.016,0,0.032,0,0.049c-0.008,0-0.016,0-0.024,0
	c0,0.008,0,0.015,0,0.022c-0.008,0-0.016,0-0.023,0c0,0.017,0,0.033,0,0.049c-0.008,0-0.017,0-0.024,0
	C13.994,5.02,14,5.033,13.998,5.04c-0.008,0-0.016,0-0.023,0c0,0.017,0,0.032,0,0.049c-0.008,0-0.015,0-0.021,0
	c-0.007,0.002-0.001,0.017-0.003,0.023c-0.009,0-0.018,0-0.027,0c0,0.016,0,0.032,0,0.049c-0.007,0-0.014,0-0.021,0
	c-0.007,0.002-0.001,0.016-0.003,0.022c-0.008,0-0.017,0-0.024,0c0,0.017,0,0.033,0,0.05c-0.009,0-0.018,0-0.026,0
	c0,0.016,0,0.032,0,0.049c-0.008,0-0.015,0-0.021,0c-0.007,0.002-0.001,0.016-0.003,0.022c-0.008,0-0.016,0-0.024,0
	c0,0.017,0,0.033,0,0.049c-0.008,0-0.016,0-0.023,0c-0.007,0.003-0.001,0.017-0.003,0.023c-0.008,0-0.017,0-0.024,0
	c0,0.017,0,0.032,0,0.049c-0.007,0-0.014,0-0.021,0c-0.007,0.002-0.002,0.017-0.003,0.023c-0.01,0-0.019,0-0.027,0
	c0,0.016,0,0.032,0,0.049c-0.007,0-0.014,0-0.021,0c-0.006,0.002-0.001,0.016-0.003,0.023c-0.008,0-0.016,0-0.023,0
	c0,0.016,0,0.032,0,0.049c-0.008,0-0.017,0-0.024,0c-0.007,0.002-0.001,0.016-0.003,0.022c-0.008,0-0.016,0-0.023,0
	c0,0.017,0,0.033,0,0.049c-0.009,0-0.017,0-0.024,0c0,0.016,0,0.031,0,0.047c-0.009,0-0.018,0-0.027,0c0,0.008,0,0.017,0,0.025
	c-0.008,0-0.016,0-0.023,0c0,0.016,0,0.031,0,0.046c-0.008,0-0.017,0-0.024,0c0,0.009,0,0.018,0,0.026c-0.009,0-0.018,0-0.026,0
	c0,0.016,0,0.03,0,0.046c-0.009,0-0.017,0-0.024,0c0,0.009,0,0.018,0,0.026c-0.008,0-0.016,0-0.024,0c0,0.015,0,0.03,0,0.046
	c-0.008,0-0.016,0-0.023,0C13.395,5.907,13.4,5.922,13.398,5.93c-0.008,0-0.017,0-0.024,0c0,0.016,0,0.031,0,0.046
	c-0.008,0-0.016,0-0.023,0c0,0.009,0,0.018,0,0.026c-0.01,0-0.019,0-0.027,0c0,0.016,0,0.03,0,0.046c-0.008,0-0.016,0-0.024,0
	c0,0.009,0,0.018,0,0.026c-0.008,0-0.016,0-0.023,0c0,0.015,0,0.03,0,0.046c-0.009,0-0.019,0-0.027,0c0,0.017,0,0.032,0,0.049
	c-0.008,0-0.016,0-0.023,0c0,0.008,0,0.016,0,0.023c-0.009,0-0.017,0-0.024,0c0,0.016,0,0.032,0,0.049c-0.008,0-0.016,0-0.024,0
	c-0.006,0.002-0.001,0.016-0.003,0.022c-0.008,0-0.016,0-0.023,0c0,0.017,0,0.033,0,0.05c-0.008,0-0.017,0-0.024,0
	c0,0.007,0,0.015,0,0.022c-0.009,0-0.018,0-0.026,0c0,0.017,0,0.033,0,0.049c-0.008,0-0.015,0-0.021,0
	c-0.007,0.002-0.001,0.017-0.003,0.023c-0.008,0-0.016,0-0.024,0c0,0.017,0,0.032,0,0.049c-0.008,0-0.016,0-0.023,0
	c-0.007,0.002-0.001,0.017-0.003,0.023c-0.008,0-0.017,0-0.024,0c0,0.016,0,0.032,0,0.049c-0.008,0-0.016,0-0.023,0
	c0,0.008,0,0.015,0,0.022c-0.01,0-0.019,0-0.027,0c0,0.017,0,0.033,0,0.049c-0.008,0-0.016,0-0.024,0c0,0.017,0,0.033,0,0.05
	c-0.007,0-0.014,0-0.021,0c-0.007,0.002-0.001,0.016-0.003,0.022c-0.009,0-0.019,0-0.027,0c0,0.017,0,0.033,0,0.049
	c-0.008,0-0.016,0-0.023,0c0,0.008,0,0.016,0,0.023c-0.009,0-0.017,0-0.024,0c0,0.017,0,0.032,0,0.049c-0.008,0-0.016,0-0.024,0
	c-0.006,0.002-0.001,0.017-0.003,0.023c-0.008,0-0.016,0-0.023,0c0,0.016,0,0.032,0,0.049c-0.007,0-0.015,0-0.021,0
	c-0.007,0.002-0.001,0.016-0.003,0.022c-0.009,0-0.018,0-0.026,0c0,0.017,0,0.033,0,0.049c-0.008,0-0.015,0-0.021,0
	c-0.007,0.003-0.001,0.017-0.003,0.023c-0.008,0-0.016,0-0.024,0c0,0.017,0,0.033,0,0.049c-0.009,0-0.018,0-0.026,0
	c0,0.016,0,0.031,0,0.046c-0.008,0-0.017,0-0.024,0c0,0.009,0,0.018,0,0.026c-0.008,0-0.016,0-0.023,0c0,0.016,0,0.03,0,0.046
	c-0.009,0-0.017,0-0.024,0c-0.007,0.003-0.001,0.019-0.003,0.026c-0.008,0-0.016,0-0.024,0c0,0.015,0,0.03,0,0.046
	c-0.008,0-0.016,0-0.023,0c0,0.009,0,0.018,0,0.025c-0.009,0-0.019,0-0.027,0c0,0.016,0,0.031,0,0.047c-0.008,0-0.016,0-0.023,0
	c0,0.008,0,0.017,0,0.025c-0.009,0-0.017,0-0.024,0c0,0.016,0,0.031,0,0.046c-0.008,0-0.016,0-0.024,0
	c-0.007,0.003-0.001,0.019-0.003,0.026c-0.008,0-0.016,0-0.023,0c0,0.016,0,0.03,0,0.046c-0.008,0-0.017,0-0.024,0
	c0,0.009,0,0.018,0,0.026c-0.009,0-0.018,0-0.026,0c0,0.015,0,0.03,0,0.046c-0.009,0-0.017,0-0.024,0c0,0.016,0,0.032,0,0.049
	c-0.007,0-0.014,0-0.021,0C12.297,7.539,12.302,7.553,12.3,7.56c-0.009,0-0.018,0-0.026,0c0,0.017,0,0.033,0,0.05
	c-0.007,0-0.015,0-0.021,0c-0.007,0.002-0.001,0.016-0.003,0.022c-0.008,0-0.016,0-0.023,0c0,0.017,0,0.033,0,0.049
	c-0.009,0-0.017,0-0.024,0c-0.007,0.003-0.001,0.017-0.003,0.023c-0.008,0-0.016,0-0.024,0c0,0.017,0,0.032,0,0.049
	c-0.008,0-0.016,0-0.023,0c0,0.008,0,0.016,0,0.023c-0.009,0-0.019,0-0.027,0c0,0.016,0,0.032,0,0.049c-0.007,0-0.014,0-0.021,0
	c-0.007,0.002-0.002,0.016-0.003,0.022c-0.009,0-0.017,0-0.024,0c0,0.017,0,0.033,0,0.05c-0.008,0-0.016,0-0.024,0
	c-0.006,0.002-0.001,0.016-0.003,0.022c-0.008,0-0.016,0-0.023,0c0,0.017,0,0.033,0,0.049c-0.008,0-0.017,0-0.024,0
	c0,0.008,0,0.016,0,0.023c-1.059,0-2.118,0-3.177,0c0,0.04,0,0.08,0,0.121c-0.008,0-0.016,0-0.024,0c0,0.023,0,0.048,0,0.071
	c-0.008,0-0.016,0-0.023,0c0,0.017,0,0.033,0,0.05c-0.009,0-0.019,0-0.027,0c0,0.023,0,0.048,0,0.071c-0.008,0-0.016,0-0.023,0
	c0,0.016,0,0.031,0,0.047c-0.009,0-0.017,0-0.024,0c0,0.016,0,0.032,0,0.049c-0.009,0-0.018,0-0.027,0c0,0.023,0,0.048,0,0.071
	c-0.007,0-0.014,0-0.021,0C8.646,8.476,8.651,8.489,8.649,8.496c-0.008,0-0.017,0-0.024,0c0,0.017,0,0.032,0,0.049
	c-0.009,0-0.018,0-0.026,0c0,0.017,0,0.033,0,0.049c-0.008,0-0.015,0-0.021,0C8.57,8.596,8.576,8.61,8.574,8.617
	c-0.008,0-0.016,0-0.024,0c0,0.017,0,0.032,0,0.049c-0.008,0-0.016,0-0.023,0C8.52,8.668,8.525,8.682,8.523,8.689
	c-0.008,0-0.017,0-0.024,0c0,0.016,0,0.032,0,0.049c-0.008,0-0.016,0-0.023,0c0,0.008,0,0.015,0,0.022c-0.009,0-0.017,0-0.024,0
	C8.444,8.763,8.45,8.777,8.448,8.784c-0.008,0-0.016,0-0.024,0c0,0.009,0,0.018,0,0.025c-0.008,0-0.016,0-0.023,0
	c0,0.008,0,0.016,0,0.023c-0.008,0-0.017,0-0.024,0C8.369,8.835,8.375,8.85,8.373,8.856c-0.008,0-0.016,0-0.023,0
	c0,0.008,0,0.017,0,0.025c-0.008,0-0.015,0-0.021,0C8.321,8.884,8.327,8.898,8.325,8.905c-0.008,0-0.016,0-0.024,0
	C8.295,8.907,8.3,8.921,8.298,8.928c-0.008,0-0.016,0-0.023,0c0,0.009,0,0.018,0,0.026c-0.008,0-0.017,0-0.024,0
	c0,0.008,0,0.016,0,0.022c-0.008,0-0.016,0-0.023,0C8.22,8.979,8.225,8.993,8.224,9c-0.016,0-0.03,0-0.046,0
	C8.172,9.003,8.177,9.019,8.175,9.026c-0.008,0-0.016,0-0.023,0C8.145,9.028,8.15,9.042,8.148,9.049c-0.007,0-0.015,0-0.021,0
	C8.12,9.051,8.126,9.065,8.124,9.072c-0.008,0-0.016,0-0.023,0c0,0.009,0,0.017,0,0.025c-0.017,0-0.032,0-0.049,0
	C8.046,9.101,8.051,9.114,8.049,9.121c-0.016,0-0.031,0-0.048,0C7.994,9.123,8,9.137,7.998,9.145c-0.008,0-0.016,0-0.023,0
	c0,0.008,0,0.017,0,0.025c-0.017,0-0.032,0-0.049,0C7.92,9.172,7.925,9.187,7.923,9.193c-0.015,0-0.029,0-0.045,0
	C7.871,9.195,7.877,9.209,7.875,9.216c-0.016,0-0.032,0-0.048,0C7.82,9.219,7.826,9.234,7.824,9.242c-0.024,0-0.048,0-0.072,0
	C7.745,9.244,7.751,9.258,7.749,9.265c-0.016,0-0.032,0-0.048,0C7.694,9.268,7.7,9.281,7.698,9.288c-0.024,0-0.048,0-0.072,0
	C7.619,9.291,7.625,9.307,7.623,9.314c-0.032,0-0.063,0-0.096,0C7.521,9.316,7.526,9.33,7.524,9.337c-0.041,0-0.082,0-0.123,0
	C7.395,9.339,7.4,9.354,7.398,9.36c-0.166,0-0.332,0-0.498,0c0-0.008,0-0.016,0-0.023c-0.042,0-0.084,0-0.126,0
	c0-0.008,0-0.016,0-0.022c-0.033,0-0.066,0-0.1,0c0-0.009,0-0.018,0-0.026c-0.024,0-0.05,0-0.074,0c0-0.008,0-0.016,0-0.023
	c-0.025,0-0.051,0-0.075,0c0-0.007,0-0.015,0-0.022c-0.025,0-0.05,0-0.075,0c0-0.009,0-0.018,0-0.026c-0.017,0-0.034,0-0.051,0
	c0-0.008,0-0.015,0-0.022c-0.018,0-0.034,0-0.051,0c0-0.008,0-0.016,0-0.023c-0.009,0-0.017,0-0.024,0c0-0.009,0-0.018,0-0.025
	c-0.017,0-0.034,0-0.051,0c0-0.008,0-0.016,0-0.023c-0.017,0-0.032,0-0.048,0c0-0.008,0-0.016,0-0.023c-0.01,0-0.019,0-0.027,0
	c0-0.008,0-0.015,0-0.022C6.196,9.068,6.182,9.074,6.174,9.072c0-0.008,0-0.016,0-0.023c-0.017,0-0.033,0-0.051,0
	c0-0.007,0-0.014,0-0.02C6.121,9.022,6.106,9.027,6.1,9.026c0-0.008,0-0.016,0-0.023C6.097,8.996,6.082,9.002,6.075,9
	c0-0.008,0-0.016,0-0.023c-0.017,0-0.034,0-0.051,0c0-0.006,0-0.013,0-0.02C6.021,8.95,6.008,8.956,6,8.954c0-0.009,0-0.018,0-0.026
	c-0.009,0-0.018,0-0.026,0c0-0.007,0-0.013,0-0.02C5.971,8.901,5.956,8.907,5.949,8.905c0-0.007,0-0.014,0-0.021
	C5.947,8.878,5.933,8.884,5.925,8.882c0-0.009,0-0.018,0-0.025c-0.009,0-0.018,0-0.026,0c0-0.007,0-0.014,0-0.021
	C5.896,8.829,5.882,8.835,5.874,8.833c0-0.008,0-0.016,0-0.023c-0.008,0-0.016,0-0.023,0c0-0.015,0-0.03,0-0.046
	c-0.004-0.006-0.02-0.001-0.027-0.003c0-0.008,0-0.015,0-0.022c-0.008,0-0.016,0-0.024,0c0-0.008,0-0.016,0-0.023
	C5.797,8.708,5.782,8.714,5.775,8.712c0-0.015,0-0.028,0-0.043c-0.003-0.007-0.02-0.001-0.027-0.003c0-0.008,0-0.016,0-0.023
	C5.746,8.637,5.731,8.642,5.725,8.64c0-0.006,0-0.013,0-0.02C5.722,8.613,5.707,8.619,5.7,8.617c0-0.016,0-0.031,0-0.046
	C5.697,8.564,5.682,8.57,5.673,8.568c0-0.015,0-0.029,0-0.044C5.671,8.519,5.656,8.523,5.649,8.522c0-0.008,0-0.016,0-0.023
	C5.646,8.492,5.633,8.498,5.625,8.496c0-0.015,0-0.029,0-0.043C5.622,8.446,5.606,8.452,5.599,8.45c0-0.023,0-0.046,0-0.069
	C5.596,8.374,5.581,8.38,5.574,8.378c0-0.016,0-0.03,0-0.046C5.572,8.325,5.558,8.331,5.55,8.329c0-0.016,0-0.031,0-0.046
	C5.547,8.276,5.531,8.282,5.523,8.28c0-0.023,0-0.046,0-0.069C5.521,8.204,5.507,8.21,5.499,8.208c0-0.023,0-0.046,0-0.069
	C5.497,8.133,5.482,8.138,5.476,8.136c0-0.022,0-0.046,0-0.068c-0.004-0.007-0.02-0.002-0.027-0.003c0-0.024,0-0.049,0-0.072
	c-1.05,0-2.1,0-3.15,0c0-0.007,0-0.014,0-0.021C2.296,7.966,2.281,7.971,2.274,7.969c0-0.008,0-0.015,0-0.022
	c-0.008,0-0.017,0-0.024,0c0-0.016,0-0.031,0-0.047C2.247,7.894,2.231,7.898,2.224,7.897c0-0.008,0-0.016,0-0.023
	c-0.009,0-0.017,0-0.024,0c0-0.016,0-0.031,0-0.046C2.197,7.821,2.183,7.827,2.175,7.825c0-0.008,0-0.016,0-0.023
	c-0.009,0-0.018,0-0.026,0c0-0.015,0-0.03,0-0.046C2.146,7.749,2.132,7.755,2.124,7.753c0-0.007,0-0.014,0-0.021
	C2.122,7.727,2.107,7.731,2.101,7.729c0-0.015,0-0.03,0-0.046c-0.004-0.006-0.02-0.001-0.027-0.003c0-0.007,0-0.013,0-0.02
	C2.071,7.654,2.057,7.66,2.049,7.658c0-0.016,0-0.031,0-0.046C2.047,7.605,2.032,7.61,2.025,7.609c0-0.008,0-0.016,0-0.023
	c-0.009,0-0.019,0-0.027,0c0-0.016,0-0.03,0-0.046C1.996,7.533,1.981,7.539,1.975,7.537c0-0.016,0-0.031,0-0.046
	C1.972,7.484,1.957,7.49,1.95,7.488c0-0.008,0-0.016,0-0.023c-0.009,0-0.018,0-0.027,0c0-0.016,0-0.03,0-0.046
	C1.921,7.412,1.906,7.418,1.899,7.416c0-0.008,0-0.016,0-0.023c-0.008,0-0.017,0-0.024,0c0-0.015,0-0.03,0-0.046
	C1.872,7.341,1.856,7.346,1.849,7.344c0-0.008,0-0.015,0-0.022c-0.009,0-0.017,0-0.024,0c0-0.016,0-0.031,0-0.046
	C1.822,7.269,1.808,7.273,1.8,7.272c0-0.008,0-0.016,0-0.023c-0.009,0-0.018,0-0.026,0c0-0.016,0-0.03,0-0.046
	C1.771,7.196,1.757,7.202,1.749,7.2c0-0.008,0-0.016,0-0.023c-0.008,0-0.016,0-0.023,0c0-0.015,0-0.03,0-0.046
	C1.722,7.124,1.706,7.13,1.698,7.128c0-0.008,0-0.016,0-0.022c-0.008,0-0.016,0-0.024,0c0-0.016,0-0.031,0-0.047
	C1.672,7.053,1.657,7.058,1.65,7.056c0-0.014,0-0.028,0-0.043C1.647,7.006,1.631,7.012,1.623,7.01c0-0.008,0-0.016,0-0.022
	C1.621,6.98,1.606,6.985,1.6,6.984c0-0.015,0-0.029,0-0.044C1.597,6.935,1.582,6.939,1.575,6.938c0-0.008,0-0.017,0-0.025
	c-0.009,0-0.018,0-0.027,0c0-0.015,0-0.029,0-0.043C1.546,6.862,1.531,6.868,1.524,6.866c0-0.008,0-0.016,0-0.023
	C1.521,6.837,1.508,6.842,1.5,6.84c0-0.015,0-0.028,0-0.043C1.497,6.79,1.481,6.796,1.474,6.794c0-0.008,0-0.016,0-0.023
	C1.471,6.765,1.456,6.77,1.449,6.768c0-0.014,0-0.028,0-0.043C1.447,6.719,1.433,6.724,1.425,6.722c0-0.009,0-0.017,0-0.025
	c-0.009,0-0.018,0-0.026,0c0-0.015,0-0.029,0-0.043C1.396,6.646,1.382,6.651,1.374,6.65c0-0.008,0-0.016,0-0.023
	C1.372,6.62,1.357,6.626,1.351,6.624c0-0.015,0-0.028,0-0.043C1.347,6.574,1.331,6.58,1.323,6.578c0-0.016,0-0.031,0-0.046
	C1.321,6.525,1.307,6.531,1.299,6.529c0-0.008,0-0.016,0-0.023c-0.008,0-0.016,0-0.023,0c0-0.016,0-0.03,0-0.046
	c-0.003-0.007-0.02-0.001-0.027-0.003c0-0.008,0-0.016,0-0.023c-0.008,0-0.016,0-0.023,0c0-0.015,0-0.03,0-0.046
	C1.222,6.382,1.207,6.387,1.2,6.385c0-0.008,0-0.015,0-0.022c-0.009,0-0.018,0-0.027,0c0-0.016,0-0.031,0-0.047
	C1.171,6.31,1.156,6.314,1.149,6.313c0-0.008,0-0.016,0-0.023c-0.008,0-0.017,0-0.024,0c0-0.016,0-0.031,0-0.046
	C1.122,6.237,1.106,6.243,1.099,6.241c0-0.008,0-0.016,0-0.023c-0.009,0-0.017,0-0.024,0c0-0.016,0-0.03,0-0.046
	C1.072,6.165,1.058,6.171,1.05,6.169c0-0.008,0-0.016,0-0.023c-0.009,0-0.018,0-0.026,0c0-0.015,0-0.03,0-0.046
	C1.021,6.094,1.007,6.099,0.999,6.097c0-0.008,0-0.015,0-0.022c-0.008,0-0.016,0-0.023,0c0-0.016,0-0.031,0-0.046
	c-0.004-0.007-0.02-0.002-0.027-0.003c0-0.016,0-0.031,0-0.047C0.946,5.973,0.932,5.978,0.924,5.976c0-0.007,0-0.015,0-0.022
	c-0.008,0-0.016,0-0.023,0c0-0.016,0-0.031,0-0.046C0.897,5.9,0.881,5.906,0.873,5.904c0-0.008,0-0.016,0-0.023
	c-0.008,0-0.016,0-0.023,0c0-0.016,0-0.03,0-0.046C0.847,5.828,0.832,5.834,0.825,5.832c0-0.008,0-0.016,0-0.023
	c-0.009,0-0.018,0-0.027,0c0-0.015,0-0.03,0-0.046C0.796,5.757,0.781,5.762,0.774,5.76c0-0.007,0-0.013,0-0.02
	C0.771,5.733,0.758,5.739,0.75,5.737c0-0.016,0-0.031,0-0.046C0.747,5.685,0.731,5.689,0.724,5.688c0-0.007,0-0.014,0-0.021
	C0.721,5.661,0.706,5.667,0.699,5.665c0-0.016,0-0.03,0-0.046C0.697,5.612,0.683,5.618,0.675,5.616c0-0.008,0-0.016,0-0.023
	c-0.009,0-0.018,0-0.026,0c0-0.015,0-0.03,0-0.046C0.646,5.54,0.632,5.546,0.624,5.544c0-0.015,0-0.028,0-0.043
	C0.622,5.494,0.607,5.5,0.601,5.498c0-0.009,0-0.018,0-0.026c-0.01,0-0.019,0-0.027,0c0-0.014,0-0.028,0-0.043
	C0.571,5.423,0.557,5.428,0.549,5.426c0-0.008,0-0.016,0-0.022C0.547,5.396,0.532,5.401,0.525,5.4c0-0.015,0-0.029,0-0.044
	c-0.003-0.006-0.02-0.001-0.027-0.003c0-0.007,0-0.015,0-0.022C0.496,5.324,0.481,5.33,0.475,5.328c0-0.015,0-0.029,0-0.043
	C0.472,5.278,0.457,5.284,0.45,5.282c0-0.009,0-0.018,0-0.026c-0.009,0-0.018,0-0.027,0c0-0.015,0-0.028,0-0.043
	C0.421,5.206,0.406,5.212,0.399,5.21c0-0.008,0-0.016,0-0.023C0.396,5.181,0.383,5.186,0.375,5.184c0-0.014,0-0.028,0-0.043
	C0.372,5.135,0.356,5.14,0.349,5.138c0-0.008,0-0.015,0-0.022C0.346,5.108,0.331,5.114,0.324,5.112c0-0.015,0-0.029,0-0.043
	C0.322,5.063,0.308,5.067,0.3,5.066c0-0.016,0-0.031,0-0.047C0.297,5.014,0.281,5.019,0.273,5.017c0-0.007,0-0.015,0-0.022
	c-0.008,0-0.017,0-0.024,0c0-0.016,0-0.031,0-0.046C0.247,4.941,0.232,4.946,0.226,4.945c0-0.008,0-0.016,0-0.023
	c-0.01,0-0.019,0-0.027,0c0-0.016,0-0.03,0-0.046C0.196,4.869,0.182,4.875,0.174,4.873c0-0.008,0-0.016,0-0.023
	c-0.008,0-0.016,0-0.023,0c0-0.015,0-0.03,0-0.046c-0.003-0.007-0.02-0.001-0.027-0.003c0-0.008,0-0.015,0-0.022
	c-0.008,0-0.016,0-0.023,0c0-0.016,0-0.031,0-0.047C0.097,4.726,0.082,4.73,0.075,4.729c0-0.008,0-0.016,0-0.023
	c-0.009,0-0.018,0-0.027,0c0-0.016,0-0.031,0-0.046C0.046,4.653,0.031,4.659,0.024,4.657c0-0.008,0-0.016,0-0.023
	c-0.008,0-0.017,0-0.024,0c0-0.017,0-0.032,0-0.049c2.332,0,4.664,0,6.996,0C7.003,3.84,6.997,3.083,6.999,2.333
	C6.998,2.326,6.984,2.332,6.979,2.33C6.972,2.332,6.977,2.346,6.976,2.353c-0.009,0-0.017,0-0.024,0
	C6.944,2.355,6.95,2.369,6.948,2.376c-0.008,0-0.016,0-0.024,0c0,0.009,0,0.018,0,0.026c-0.007,0-0.014,0-0.021,0
	C6.896,2.404,6.902,2.418,6.9,2.425c-0.008,0-0.017,0-0.024,0C6.869,2.427,6.875,2.441,6.873,2.448c-0.008,0-0.016,0-0.023,0
	c0,0.009,0,0.017,0,0.025c-0.009,0-0.017,0-0.024,0c0,0.008,0,0.016,0,0.023c-0.008,0-0.016,0-0.024,0
	C6.795,2.499,6.8,2.513,6.798,2.521c-0.008,0-0.016,0-0.023,0c0,0.008,0,0.017,0,0.025c-0.007,0-0.015,0-0.021,0
	C6.746,2.548,6.752,2.563,6.75,2.569c-0.008,0-0.016,0-0.023,0C6.72,2.571,6.725,2.585,6.724,2.592c-0.009,0-0.017,0-0.024,0
	c0,0.009,0,0.018,0,0.026c-0.008,0-0.016,0-0.024,0c0,0.008,0,0.016,0,0.022c-0.008,0-0.016,0-0.023,0
	C6.645,2.644,6.65,2.657,6.648,2.664c-0.008,0-0.017,0-0.024,0c0,0.009,0,0.018,0,0.026c-0.007,0-0.014,0-0.021,0
	C6.597,2.692,6.602,2.706,6.601,2.713c-0.009,0-0.017,0-0.024,0C6.569,2.715,6.575,2.729,6.573,2.736c-0.008,0-0.016,0-0.024,0
	c0,0.009,0,0.017,0,0.025c-0.007,0-0.014,0-0.021,0C6.521,2.764,6.527,2.778,6.525,2.785c-0.008,0-0.017,0-0.024,0
	C6.494,2.787,6.5,2.801,6.498,2.808c-0.008,0-0.016,0-0.023,0c0,0.009,0,0.018,0,0.026c-0.009,0-0.017,0-0.024,0
	c0,0.008,0,0.016,0,0.023c-0.008,0-0.016,0-0.024,0C6.42,2.859,6.425,2.873,6.423,2.88c-0.008,0-0.016,0-0.023,0
	c0,0.017,0,0.033,0,0.049c-0.008,0-0.017,0-0.024,0c0,0.008,0,0.016,0,0.023c-0.009,0-0.018,0-0.026,0c0,0.009,0,0.018,0,0.025
	c-0.009,0-0.017,0-0.024,0c0,0.008,0,0.016,0,0.023c-0.008,0-0.016,0-0.024,0c0,0.008,0,0.016,0,0.023c-0.009,0-0.018,0-0.026,0
	c0,0.008,0,0.017,0,0.025c-0.008,0-0.017,0-0.024,0c0,0.008,0,0.016,0,0.023c-0.007,0-0.014,0-0.021,0
	C6.222,3.075,6.227,3.089,6.226,3.096c-0.009,0-0.017,0-0.024,0C6.194,3.1,6.2,3.114,6.198,3.122c-0.008,0-0.016,0-0.024,0
	c0,0.008,0,0.016,0,0.022c-0.007,0-0.014,0-0.021,0C6.146,3.147,6.152,3.161,6.15,3.168c-0.008,0-0.017,0-0.024,0
	C6.119,3.171,6.125,3.187,6.123,3.194c-0.007,0-0.014,0-0.021,0C6.096,3.196,6.101,3.21,6.1,3.217c-0.009,0-0.017,0-0.024,0
	c0,0.008,0,0.016,0,0.023c-0.009,0-0.018,0-0.027,0c0,0.009,0,0.018,0,0.025c-0.008,0-0.016,0-0.023,0c0,0.008,0,0.016,0,0.023
	c-0.007,0-0.015,0-0.021,0C5.996,3.291,6.002,3.305,6,3.313c-0.008,0-0.016,0-0.023,0C5.97,3.315,5.975,3.33,5.974,3.338
	c-0.008,0-0.015,0-0.021,0C5.945,3.34,5.951,3.354,5.949,3.361c-0.008,0-0.016,0-0.024,0c0,0.008,0,0.015,0,0.022
	c-0.009,0-0.018,0-0.026,0c0-0.007,0-0.013,0-0.02C5.896,3.357,5.882,3.362,5.874,3.361c0-0.007,0-0.014,0-0.021
	C5.872,3.334,5.857,3.34,5.851,3.338c0-0.009,0-0.018,0-0.025c-0.01,0-0.019,0-0.027,0c0-0.007,0-0.014,0-0.021
	C5.821,3.285,5.807,3.291,5.799,3.289c0-0.007,0-0.014,0-0.021C5.797,3.263,5.782,3.268,5.775,3.266c0-0.008,0-0.015,0-0.022
	C5.772,3.236,5.756,3.242,5.748,3.24c0-0.008,0-0.016,0-0.023c-0.008,0-0.016,0-0.023,0c0-0.007,0-0.014,0-0.02
	C5.722,3.19,5.707,3.195,5.7,3.194c0-0.009,0-0.018,0-0.026c-0.009,0-0.018,0-0.027,0c0-0.007,0-0.014,0-0.021
	C5.671,3.142,5.656,3.146,5.649,3.145c0-0.007,0-0.015,0-0.022c-0.008,0-0.017,0-0.024,0c0-0.009,0-0.018,0-0.026
	c-0.009,0-0.018,0-0.026,0c0-0.008,0-0.015,0-0.022c-0.009,0-0.017,0-0.024,0c0-0.007,0-0.014,0-0.021
	C5.572,3.046,5.558,3.052,5.55,3.05c0-0.009,0-0.018,0-0.025c-0.009,0-0.018,0-0.026,0c0-0.007,0-0.014,0-0.021
	C5.521,2.997,5.507,3.003,5.499,3.001c0-0.008,0-0.016,0-0.023c0.008,0,0.017,0,0.024,0c0-0.008,0-0.017,0-0.025
	c0.008,0,0.016,0,0.023,0C5.554,2.95,5.549,2.936,5.55,2.929c0.008,0,0.015,0,0.021,0c0.007-0.002,0.001-0.016,0.003-0.022
	c0.008,0,0.016,0,0.024,0c0-0.009,0-0.018,0-0.026c0.008,0,0.016,0,0.023,0c0.007-0.002,0.001-0.016,0.003-0.022
	c0.007,0,0.015,0,0.021,0c0.007-0.003,0.001-0.017,0.003-0.023c0.008,0,0.016,0,0.023,0c0-0.009,0-0.018,0-0.026
	c0.009,0,0.017,0,0.024,0C5.704,2.806,5.698,2.792,5.7,2.785c0.007,0,0.014,0,0.021,0c0.006-0.002,0.001-0.017,0.003-0.023
	c0.008,0,0.016,0,0.023,0c0-0.009,0-0.017,0-0.025c0.008,0,0.017,0,0.024,0C5.779,2.734,5.773,2.72,5.775,2.713
	c0.007,0,0.014,0,0.021,0C5.803,2.711,5.798,2.697,5.799,2.69c0.009,0,0.017,0,0.024,0c0-0.009,0-0.018,0-0.026
	c0.008,0,0.016,0,0.024,0c0.006-0.002,0.001-0.017,0.003-0.023c0.008,0,0.016,0,0.023,0c0-0.007,0-0.015,0-0.022
	c0.008,0,0.017,0,0.024,0c0-0.009,0-0.018,0-0.026c0.008,0,0.016,0,0.023,0C5.929,2.59,5.924,2.576,5.925,2.569
	c0.008,0,0.015,0,0.021,0c0.007-0.003,0.001-0.017,0.003-0.023c0.008,0,0.016,0,0.024,0c0-0.009,0-0.018,0-0.025
	c0.008,0,0.016,0,0.023,0C6.004,2.518,5.998,2.504,6,2.497c0.007,0,0.015,0,0.021,0C6.028,2.495,6.022,2.48,6.024,2.474
	c0.008,0,0.016,0,0.023,0c0-0.009,0-0.017,0-0.025c0.009,0,0.017,0,0.024,0c0.007-0.002,0.001-0.017,0.003-0.023
	c0.007,0,0.014,0,0.021,0C6.103,2.423,6.098,2.409,6.1,2.402c0.008,0,0.016,0,0.023,0c0-0.017,0-0.033,0-0.05
	c0.008,0,0.017,0,0.024,0C6.154,2.351,6.148,2.337,6.15,2.33c0.008,0,0.016,0,0.023,0c0-0.009,0-0.018,0-0.026
	c0.009,0,0.017,0,0.024,0c0-0.008,0-0.015,0-0.022c0.008,0,0.016,0,0.024,0c0.006-0.002,0.001-0.017,0.003-0.023
	c0.008,0,0.016,0,0.023,0c0-0.009,0-0.018,0-0.025c0.008,0,0.017,0,0.024,0c0-0.008,0-0.016,0-0.023c0.008,0,0.016,0,0.023,0
	C6.304,2.207,6.299,2.192,6.3,2.186c0.009,0,0.017,0,0.024,0c0-0.008,0-0.017,0-0.025c0.008,0,0.016,0,0.024,0
	c0-0.008,0-0.016,0-0.023c0.008,0,0.016,0,0.023,0c0.007-0.002,0.001-0.016,0.003-0.022c0.008,0,0.017,0,0.024,0
	c0-0.009,0-0.018,0-0.026c0.007,0,0.014,0,0.021,0c0.007-0.002,0.001-0.016,0.003-0.022c0.009,0,0.017,0,0.024,0
	C6.454,2.063,6.448,2.049,6.45,2.042c0.008,0,0.016,0,0.024,0c0-0.009,0-0.018,0-0.026c0.007,0,0.014,0,0.021,0
	C6.502,2.014,6.496,2,6.498,1.993c0.008,0,0.017,0,0.024,0C6.529,1.991,6.523,1.977,6.525,1.97c0.008,0,0.016,0,0.023,0
	c0-0.009,0-0.017,0-0.025c0.009,0,0.017,0,0.024,0c0-0.008,0-0.016,0-0.023c0.008,0,0.016,0,0.024,0
	c0.006-0.002,0.001-0.016,0.003-0.022c0.008,0,0.016,0,0.023,0c0-0.009,0-0.018,0-0.026c0.007,0,0.015,0,0.021,0
	C6.652,1.87,6.646,1.855,6.648,1.849c0.008,0,0.016,0,0.023,0c0.007-0.002,0.002-0.016,0.003-0.022c0.009,0,0.017,0,0.024,0
	c0-0.009,0-0.018,0-0.026c0.008,0,0.016,0,0.024,0c0-0.008,0-0.015,0-0.022c0.008,0,0.016,0,0.023,0
	C6.754,1.774,6.748,1.761,6.75,1.754c0.008,0,0.017,0,0.024,0c0-0.009,0-0.018,0-0.025c0.008,0,0.016,0,0.023,0
	c0-0.008,0-0.016,0-0.023c0.01,0,0.019,0,0.027,0c0-0.007,0-0.014,0-0.021C6.822,1.679,6.807,1.684,6.798,1.682
	c0-0.008,0-0.015,0-0.022C6.796,1.652,6.781,1.658,6.774,1.656c0-0.008,0-0.016,0-0.023c-0.008,0-0.017,0-0.024,0
	c0-0.008,0-0.016,0-0.022c-0.009,0-0.018,0-0.026,0c0-0.008,0-0.016,0-0.023C6.721,1.58,6.706,1.586,6.699,1.584
	c0-0.007,0-0.014,0-0.021C6.697,1.558,6.683,1.563,6.675,1.561c0-0.007,0-0.015,0-0.022c-0.009,0-0.018,0-0.026,0
	c0-0.008,0-0.016,0-0.023C6.646,1.509,6.632,1.514,6.624,1.512c0-0.008,0-0.015,0-0.022c-0.008,0-0.016,0-0.023,0
	c0-0.008,0-0.016,0-0.023c-0.01,0-0.019,0-0.027,0c0-0.008,0-0.016,0-0.022C6.571,1.437,6.557,1.441,6.549,1.44
	c0-0.007,0-0.014,0-0.021C6.547,1.413,6.532,1.419,6.525,1.417c0-0.008,0-0.016,0-0.023c-0.009,0-0.019,0-0.027,0
	c0-0.007,0-0.015,0-0.022C6.496,1.364,6.481,1.37,6.475,1.368c0-0.007,0-0.014,0-0.021C6.472,1.342,6.457,1.347,6.45,1.345
	c0-0.008,0-0.015,0-0.022c-0.009,0-0.018,0-0.027,0c0-0.008,0-0.016,0-0.023C6.421,1.292,6.406,1.298,6.399,1.296
	c0-0.007,0-0.014,0-0.02C6.396,1.27,6.383,1.274,6.375,1.273c0-0.008,0-0.016,0-0.023c-0.009,0-0.018,0-0.026,0
	c0-0.008,0-0.016,0-0.023C6.346,1.221,6.331,1.226,6.324,1.224c0-0.007,0-0.015,0-0.022c-0.008,0-0.016,0-0.024,0
	c0-0.008,0-0.016,0-0.023c-0.009,0-0.018,0-0.026,0c0-0.008,0-0.015,0-0.022C6.271,1.148,6.257,1.154,6.249,1.152
	c0-0.007,0-0.014,0-0.021C6.247,1.125,6.232,1.131,6.226,1.129c0-0.008,0-0.016,0-0.022c-0.01,0-0.019,0-0.027,0
	c0-0.016,0-0.031,0-0.047C6.196,1.054,6.182,1.059,6.174,1.057c0-0.007,0-0.015,0-0.022c-0.008,0-0.016,0-0.023,0
	c0-0.009,0-0.018,0-0.026c-0.009,0-0.019,0-0.027,0c0-0.008,0-0.015,0-0.022c-0.008,0-0.016,0-0.023,0c0-0.008,0-0.016,0-0.023
	c-0.009,0-0.017,0-0.024,0c0-0.008,0-0.016,0-0.023C6.072,0.933,6.057,0.938,6.048,0.937c0-0.007,0-0.014,0-0.021
	C6.046,0.909,6.031,0.915,6.024,0.913c0-0.008,0-0.016,0-0.023c-0.008,0-0.017,0-0.024,0c0-0.009,0-0.017,0-0.025
	c-0.009,0-0.018,0-0.026,0c0-0.008,0-0.016,0-0.023c-0.009,0-0.017,0-0.024,0c0-0.007,0-0.014,0-0.02
	C5.947,0.814,5.933,0.819,5.925,0.818c0-0.008,0-0.016,0-0.023C5.922,0.788,5.906,0.794,5.898,0.792c0-0.007,0-0.014,0-0.021
	C5.896,0.766,5.882,0.771,5.874,0.769c0-0.006,0-0.013,0-0.02C5.872,0.742,5.857,0.748,5.851,0.746c0-0.009,0-0.018,0-0.026
	c-0.01,0-0.019,0-0.027,0c0-0.008,0-0.015,0-0.022c-0.008,0-0.016,0-0.024,0c0-0.008,0-0.016,0-0.023c-0.008,0-0.016,0-0.023,0
	c0-0.009,0-0.018,0-0.025c-0.009,0-0.019,0-0.027,0c0-0.007,0-0.014,0-0.021C5.746,0.621,5.731,0.627,5.725,0.625
	c0-0.008,0-0.016,0-0.023c-0.009,0-0.017,0-0.024,0c0-0.007,0-0.015,0-0.022C5.697,0.572,5.682,0.578,5.673,0.576
	c0-0.007,0-0.014,0-0.021C5.671,0.55,5.656,0.555,5.649,0.553c0-0.007,0-0.013,0-0.02C5.646,0.526,5.633,0.531,5.625,0.53
	c0-0.008,0-0.016,0-0.023C5.622,0.5,5.606,0.506,5.599,0.504c0-0.007,0-0.014,0-0.02C5.596,0.478,5.581,0.482,5.574,0.481
	c0-0.008,0-0.016,0-0.023c-0.008,0-0.016,0-0.024,0c0-0.009,0-0.018,0-0.026c-0.009,0-0.018,0-0.026,0c0-0.006,0-0.013,0-0.02
	C5.521,0.405,5.507,0.411,5.499,0.409c0-0.008,0-0.016,0-0.023c0.008,0,0.017,0,0.024,0c0-0.009,0-0.017,0-0.025
	c0.008,0,0.016,0,0.023,0C5.554,0.358,5.549,0.344,5.55,0.337c0.008,0,0.015,0,0.021,0c0.007-0.002,0.001-0.016,0.003-0.022
	c0.008,0,0.016,0,0.024,0c0-0.009,0-0.018,0-0.026c0.008,0,0.016,0,0.023,0c0.007-0.002,0.001-0.017,0.003-0.023
	c0.007,0,0.015,0,0.021,0c0.007-0.002,0.001-0.016,0.003-0.022c0.008,0,0.016,0,0.023,0c0-0.009,0-0.018,0-0.026
	c0.009,0,0.017,0,0.024,0C5.704,0.214,5.698,0.2,5.7,0.193c0.007,0,0.014,0,0.021,0C5.728,0.19,5.723,0.177,5.725,0.17
	c0.008,0,0.016,0,0.023,0c0-0.009,0-0.018,0-0.025c0.008,0,0.017,0,0.024,0c0.007-0.003,0.001-0.017,0.003-0.023
	c0.007,0,0.014,0,0.021,0c0.007-0.002,0.002-0.017,0.003-0.023c0.009,0,0.017,0,0.024,0c0-0.009,0-0.017,0-0.025
	c0.008,0,0.016,0,0.024,0C5.854,0.07,5.849,0.056,5.851,0.049c0.008,0,0.016,0,0.023,0c0-0.008,0-0.016,0-0.022
	c0.008,0,0.017,0,0.024,0C5.898,0.018,5.898,0.009,5.898,0z M1.099,5.21c0.008,0.002,0.023-0.004,0.026,0.003
	c0,0.015,0,0.028,0,0.043c0.008,0.002,0.021-0.003,0.024,0.003c0,0.008,0,0.016,0,0.023c0.007,0.002,0.021-0.004,0.023,0.003
	c0,0.014,0,0.028,0,0.043c0.01,0,0.019,0,0.027,0c0,0.009,0,0.018,0,0.025c0.007,0.002,0.021-0.003,0.024,0.003
	c0,0.015,0,0.029,0,0.044c0.007,0.001,0.021-0.004,0.023,0.003c0,0.007,0,0.015,0,0.022c0.008,0.002,0.024-0.004,0.027,0.003
	c0,0.015,0,0.029,0,0.043c0.007,0.002,0.021-0.003,0.023,0.003c0,0.008,0,0.016,0,0.023C1.307,5.5,1.321,5.494,1.323,5.501
	c0,0.015,0,0.028,0,0.043c0.009,0,0.018,0,0.027,0c0,0.009,0,0.018,0,0.026c0.007,0.001,0.021-0.004,0.023,0.003
	c0,0.014,0,0.028,0,0.043c0.008,0.002,0.021-0.004,0.024,0.003c0,0.008,0,0.016,0,0.022c0.008,0.002,0.023-0.003,0.026,0.003
	c0,0.015,0,0.029,0,0.044c0.008,0.001,0.022-0.004,0.024,0.003c0,0.015,0,0.03,0,0.046c0.008,0,0.016,0,0.024,0
	c0,0.008,0,0.015,0,0.022C1.481,5.762,1.497,5.757,1.5,5.763c0,0.016,0,0.031,0,0.046c0.008,0,0.017,0,0.024,0
	c0,0.008,0,0.016,0,0.023c0.007,0.002,0.021-0.004,0.023,0.003c0,0.016,0,0.03,0,0.046c0.01,0,0.019,0,0.027,0
	c0,0.008,0,0.016,0,0.023C1.582,5.906,1.597,5.9,1.6,5.907c0,0.015,0,0.03,0,0.046c0.008,0,0.016,0,0.023,0c0,0.008,0,0.016,0,0.022
	C1.631,5.978,1.647,5.973,1.65,5.979c0,0.016,0,0.031,0,0.047c0.008,0,0.016,0,0.023,0c0,0.007,0,0.015,0,0.022
	C1.682,6.05,1.696,6.045,1.698,6.051c0,0.016,0,0.031,0,0.046c0.009,0,0.018,0,0.027,0c0,0.008,0,0.016,0,0.023
	c0.007,0.002,0.021-0.004,0.023,0.003c0,0.016,0,0.03,0,0.046c0.008,0.002,0.021-0.004,0.024,0.003c0,0.007,0,0.014,0,0.021
	C1.781,6.193,1.797,6.188,1.8,6.195c0,0.015,0,0.03,0,0.046c0.008,0.002,0.022-0.004,0.024,0.003c0,0.015,0,0.03,0,0.046
	c0.008,0,0.016,0,0.024,0c0,0.008,0,0.016,0,0.023C1.856,6.314,1.872,6.31,1.875,6.315c0,0.016,0,0.031,0,0.047
	c0.008,0.001,0.021-0.004,0.024,0.003c0,0.007,0,0.013,0,0.02c0.007,0.002,0.021-0.003,0.023,0.003c0,0.016,0,0.031,0,0.046
	c0.01,0,0.019,0,0.027,0c0,0.008,0,0.016,0,0.023C1.957,6.459,1.972,6.453,1.975,6.46c0,0.016,0,0.03,0,0.046
	c0.008,0,0.016,0,0.023,0c0,0.008,0,0.016,0,0.023c0.008,0.002,0.024-0.004,0.027,0.003c0,0.015,0,0.03,0,0.046
	C2.032,6.58,2.047,6.574,2.049,6.581c0,0.015,0,0.028,0,0.043C2.057,6.626,2.071,6.62,2.073,6.627c0,0.008,0,0.016,0,0.023
	c0.009,0,0.018,0,0.027,0c0,0.007,0,0.015,0,0.022c0.007,0.002,0.021-0.004,0.023,0.003c0,0.016,0,0.031,0,0.046
	c0.008,0.002,0.021-0.003,0.024,0.003c0,0.015,0,0.029,0,0.043c0.009,0,0.018,0,0.026,0c0,0.009,0,0.018,0,0.026
	C2.183,6.796,2.197,6.79,2.199,6.797c0,0.015,0,0.028,0,0.043c0.007,0.002,0.021-0.003,0.024,0.003c0,0.008,0,0.016,0,0.023
	C2.231,6.868,2.247,6.862,2.25,6.869c0,0.014,0,0.028,0,0.043c0.008,0.002,0.021-0.004,0.024,0.003c0,0.008,0,0.016,0,0.022
	C2.281,6.939,2.296,6.935,2.298,6.94c0,0.015,0,0.029,0,0.044C2.307,6.985,2.322,6.98,2.325,6.987c0,0.007,0,0.015,0,0.022
	C2.332,7.012,2.347,7.007,2.35,7.013c0,0.015,0,0.029,0,0.043c0.007,0.002,0.021-0.003,0.023,0.003c0,0.016,0,0.031,0,0.047
	c0.009,0,0.019,0,0.027,0c0,0.007,0,0.015,0,0.022C2.407,7.13,2.422,7.124,2.424,7.131c0,0.008,0,0.016,0,0.023
	C2.432,7.155,2.446,7.15,2.448,7.157c0,0.014,0,0.028,0,0.043c0.008,0.002,0.023-0.004,0.027,0.003c0,0.016,0,0.03,0,0.046
	c0.008,0,0.016,0,0.023,0c0,0.008,0,0.016,0,0.023c0.008,0.001,0.021-0.004,0.024,0.003c0,0.015,0,0.03,0,0.046
	c0.009,0,0.018,0,0.026,0c0,0.008,0,0.015,0,0.022c0.008,0.002,0.022-0.003,0.024,0.003c0,0.016,0,0.031,0,0.046
	c0.008,0,0.016,0,0.024,0c0,0.008,0,0.016,0,0.023c0.941,0,1.884,0,2.825,0c0-0.024,0-0.048,0-0.072c0.009,0,0.017,0,0.024,0
	c0-0.039,0-0.078,0-0.118c0.009,0,0.018,0,0.027,0c0-0.023,0-0.048,0-0.071c0.008,0,0.016,0,0.023,0c0-0.024,0-0.048,0-0.072
	c0.008,0,0.017,0,0.024,0c0-0.017,0-0.032,0-0.049c0.009,0,0.018,0,0.026,0c0-0.024,0-0.048,0-0.072c0.009,0,0.017,0,0.024,0
	c0-0.017,0-0.032,0-0.049c0.008,0,0.016,0,0.024,0c0-0.016,0-0.031,0-0.046c0.009,0,0.018,0,0.026,0c0-0.017,0-0.033,0-0.049
	c0.008,0,0.017,0,0.024,0c0.002-0.007-0.004-0.021,0.003-0.023c0.007,0,0.014,0,0.021,0c0-0.017,0-0.032,0-0.049
	c0.01,0,0.019,0,0.027,0c0-0.017,0-0.033,0-0.049c0.008,0,0.016,0,0.024,0c0.001-0.007-0.004-0.021,0.003-0.023
	c0.007,0,0.014,0,0.021,0c0-0.017,0-0.032,0-0.049c0.009,0,0.019,0,0.027,0c0.002-0.007-0.004-0.021,0.003-0.023
	c0.007,0,0.014,0,0.021,0C5.801,6.594,5.796,6.58,5.802,6.578c0.008,0,0.015,0,0.021,0c0-0.009,0-0.018,0-0.026
	c0.009,0,0.018,0,0.027,0c0-0.015,0-0.03,0-0.046c0.008,0,0.016,0,0.023,0c0-0.009,0-0.018,0-0.025c0.008,0,0.017,0,0.024,0
	C5.9,6.474,5.895,6.459,5.901,6.457c0.008,0,0.016,0,0.023,0C5.927,6.45,5.922,6.437,5.928,6.434c0.008,0,0.015,0,0.021,0
	c0-0.008,0-0.017,0-0.025c0.008,0,0.016,0,0.024,0C5.975,6.401,5.97,6.387,5.977,6.385c0.008,0,0.016,0,0.023,0
	c0.002-0.007-0.004-0.021,0.003-0.022c0.007,0,0.015,0,0.021,0c0.002-0.008-0.004-0.023,0.003-0.026c0.016,0,0.032,0,0.048,0
	c0.002-0.007-0.004-0.021,0.003-0.022c0.007,0,0.014,0,0.021,0c0-0.008,0-0.016,0-0.023c0.008,0,0.016,0,0.023,0
	c0.002-0.008-0.004-0.022,0.003-0.026c0.017,0,0.032,0,0.048,0c0.002-0.007-0.003-0.021,0.003-0.022c0.008,0,0.015,0,0.021,0
	C6.2,6.234,6.194,6.22,6.201,6.218c0.016,0,0.032,0,0.048,0c0-0.009,0-0.017,0-0.025c0.008,0,0.017,0,0.024,0
	C6.275,6.186,6.27,6.171,6.276,6.169c0.016,0,0.032,0,0.048,0C6.326,6.162,6.32,6.148,6.327,6.146c0.016,0,0.032,0,0.048,0
	C6.377,6.138,6.371,6.123,6.378,6.12c0.016,0,0.03,0,0.045,0C6.425,6.113,6.42,6.1,6.426,6.097c0.017,0,0.032,0,0.049,0
	C6.476,6.09,6.471,6.076,6.478,6.074c0.023,0,0.048,0,0.071,0c0.002-0.008-0.004-0.023,0.003-0.026c0.024,0,0.049,0,0.072,0
	C6.626,6.041,6.62,6.027,6.627,6.025c0.024,0,0.048,0,0.072,0c0.002-0.007-0.004-0.021,0.003-0.023c0.032,0,0.064,0,0.096,0
	C6.8,5.994,6.794,5.979,6.801,5.976c0.05,0,0.099,0,0.147,0C6.95,5.969,6.944,5.955,6.951,5.953c0.008,0,0.016,0,0.024,0
	C6.978,5.96,6.97,5.978,6.981,5.976c0.005,0,0.01,0,0.015,0c0.009-0.001-0.003-0.021,0.006-0.022c0.091,0,0.183,0,0.273,0
	C7.277,5.96,7.27,5.978,7.281,5.976c0.005,0,0.01,0,0.015,0c0.009-0.001-0.002-0.021,0.006-0.022c0.008,0,0.015,0,0.021,0
	c0,0.008,0,0.016,0,0.022c0.042,0,0.084,0,0.126,0c0,0.009,0,0.018,0,0.026c0.042,0,0.084,0,0.126,0c0,0.008,0,0.016,0,0.023
	c0.025,0,0.05,0,0.075,0c0,0.007,0,0.015,0,0.022c0.024,0,0.05,0,0.075,0c0,0.009,0,0.018,0,0.026c0.016,0,0.031,0,0.048,0
	c0,0.008,0,0.015,0,0.022c0.024,0,0.05,0,0.075,0c0,0.008,0,0.016,0,0.023c0.017,0,0.033,0,0.051,0c0,0.009,0,0.018,0,0.025
	c0.017,0,0.034,0,0.051,0c0,0.008,0,0.016,0,0.023c0.016,0,0.032,0,0.048,0c0,0.008,0,0.016,0,0.023
	c0.008,0.001,0.024-0.004,0.027,0.003c0,0.007,0,0.015,0,0.022c0.016,0,0.032,0,0.048,0c0,0.008,0,0.016,0,0.023
	c0.009,0,0.018,0,0.027,0c0,0.008,0,0.016,0,0.022c0.016,0,0.031,0,0.048,0c0,0.009,0,0.018,0,0.026c0.009,0,0.018,0,0.026,0
	c0,0.008,0,0.016,0,0.023c0.009,0,0.017,0,0.024,0c0,0.007,0,0.015,0,0.022c0.007,0.002,0.021-0.004,0.024,0.003
	c0,0.008,0,0.016,0,0.023c0.017,0,0.033,0,0.051,0c0,0.008,0,0.015,0,0.022c0.008,0,0.016,0,0.023,0c0,0.008,0,0.016,0,0.023
	c0.01,0,0.019,0,0.027,0c0,0.009,0,0.018,0,0.025C8.332,6.436,8.347,6.431,8.35,6.437c0,0.007,0,0.014,0,0.021
	c0.008,0,0.016,0,0.023,0c0,0.008,0,0.016,0,0.023c0.009,0,0.019,0,0.027,0c0,0.008,0,0.017,0,0.025
	c0.007,0.002,0.021-0.004,0.023,0.003c0,0.015,0,0.029,0,0.043c0.008,0.002,0.022-0.003,0.024,0.003c0,0.008,0,0.016,0,0.023
	c0.009,0,0.018,0,0.027,0c0,0.008,0,0.016,0,0.022c0.007,0.002,0.021-0.003,0.023,0.003c0,0.016,0,0.031,0,0.047
	c0.008,0.001,0.021-0.004,0.024,0.003c0,0.006,0,0.013,0,0.02C8.531,6.675,8.547,6.669,8.55,6.676c0,0.016,0,0.031,0,0.046
	c0.009,0,0.017,0,0.024,0c0,0.008,0,0.016,0,0.023c0.007,0.002,0.021-0.004,0.024,0.003c0,0.016,0,0.03,0,0.046
	c0.009,0,0.018,0,0.026,0c0,0.008,0,0.016,0,0.023C8.633,6.818,8.646,6.813,8.649,6.82c0,0.015,0,0.03,0,0.046
	c0.007,0.002,0.021-0.004,0.023,0.003c0,0.014,0,0.028,0,0.043C8.682,6.914,8.697,6.908,8.7,6.915c0,0.022,0,0.046,0,0.069
	C8.707,6.985,8.722,6.98,8.725,6.987c0,0.015,0,0.03,0,0.046c0.007,0.002,0.021-0.004,0.023,0.003c0,0.022,0,0.046,0,0.069
	c0.008,0.001,0.024-0.004,0.027,0.002c0,0.023,0,0.047,0,0.069C8.782,7.179,8.797,7.174,8.799,7.18c0,0.031,0,0.062,0,0.093
	c0.008,0.001,0.022-0.004,0.024,0.003c0,0.031,0,0.063,0,0.095c0.008,0.002,0.023-0.004,0.027,0.003c0,0.015,0,0.028,0,0.043
	c0.949,0,1.899,0,2.85,0c0-0.016,0-0.03,0-0.046c0.008,0,0.016,0,0.024,0c0-0.009,0-0.018,0-0.026c0.008,0,0.016,0,0.023,0
	c0-0.015,0-0.03,0-0.046c0.009,0,0.019,0,0.027,0c0-0.009,0-0.018,0-0.025c0.008,0,0.016,0,0.023,0c0-0.016,0-0.031,0-0.047
	c0.009,0,0.017,0,0.024,0c0.002-0.008-0.004-0.022,0.003-0.025c0.008,0,0.016,0,0.024,0c0-0.016,0-0.031,0-0.046
	c0.008,0,0.016,0,0.023,0c0-0.009,0-0.018,0-0.026c0.008,0,0.017,0,0.024,0c0-0.016,0-0.03,0-0.046c0.009,0,0.018,0,0.026,0
	c0-0.017,0-0.032,0-0.049c0.009,0,0.017,0,0.024,0c0-0.008,0-0.016,0-0.023c0.008,0,0.016,0,0.024,0
	c0.001-0.008-0.004-0.022,0.003-0.025c0.008,0,0.016,0,0.023,0c0-0.016,0-0.031,0-0.047c0.008,0,0.017,0,0.024,0
	c0-0.016,0-0.032,0-0.049c0.008,0,0.016,0,0.023,0c0.002-0.007-0.003-0.021,0.003-0.022c0.009,0,0.017,0,0.024,0
	c0-0.017,0-0.033,0-0.049c0.008,0,0.016,0,0.024,0c0.001-0.007-0.004-0.021,0.003-0.023c0.007,0,0.014,0,0.021,0
	c0-0.017,0-0.032,0-0.049c0.009,0,0.019,0,0.027,0c0-0.008,0-0.016,0-0.023c0.008,0,0.016,0,0.023,0c0-0.016,0-0.032,0-0.049
	c0.009,0,0.017,0,0.024,0c0.002-0.007-0.004-0.021,0.003-0.022c0.008,0,0.016,0,0.024,0c0-0.017,0-0.033,0-0.05
	c0.008,0,0.016,0,0.023,0c0-0.016,0-0.032,0-0.049c0.008,0,0.017,0,0.024,0c0.002-0.007-0.004-0.021,0.003-0.022
	c0.008,0,0.016,0,0.023,0c0.002-0.007-0.003-0.021,0.003-0.023c0.008,0,0.015,0,0.021,0c0-0.017,0-0.032,0-0.049
	c0.008,0,0.016,0,0.024,0c0-0.017,0-0.032,0-0.049c0.009,0,0.018,0,0.026,0c0.002-0.007-0.004-0.021,0.003-0.023
	c0.007,0,0.015,0,0.021,0c0-0.016,0-0.032,0-0.049c0.008,0,0.016,0,0.023,0c0.002-0.007-0.003-0.021,0.003-0.022
	c0.009,0,0.017,0,0.024,0c0-0.017,0-0.033,0-0.05c0.008,0,0.016,0,0.024,0c0.001-0.007-0.004-0.021,0.003-0.022
	c0.007,0,0.014,0,0.021,0c0-0.017,0-0.033,0-0.049c0.009,0,0.019,0,0.027,0c0.002-0.007-0.004-0.021,0.003-0.023
	c0.007,0,0.014,0,0.021,0c0-0.017,0-0.032,0-0.049c0.009,0,0.017,0,0.024,0c0-0.016,0-0.031,0-0.046c0.009,0,0.018,0,0.027,0
	c0-0.009,0-0.018,0-0.026c0.008,0,0.016,0,0.023,0c0-0.016,0-0.03,0-0.046c0.008,0,0.017,0,0.024,0
	c0.002-0.008-0.004-0.022,0.003-0.026c0.008,0,0.016,0,0.023,0c0-0.015,0-0.03,0-0.046c0.009,0,0.017,0,0.024,0
	c0-0.009,0-0.017,0-0.025c0.008,0,0.016,0,0.024,0c0-0.016,0-0.031,0-0.046c0.009,0,0.018,0,0.026,0c0-0.009,0-0.018,0-0.026
	c0.008,0,0.017,0,0.024,0c0-0.016,0-0.03,0-0.046c0.008,0,0.016,0,0.023,0c0-0.009,0-0.018,0-0.026c0.01,0,0.019,0,0.027,0
	c0-0.015,0-0.03,0-0.046c0.008,0,0.016,0,0.024,0c0-0.009,0-0.018,0-0.025c0.008,0,0.016,0,0.023,0c0-0.016,0-0.031,0-0.047
	c0.009,0,0.019,0,0.027,0c0-0.008,0-0.017,0-0.025c0.008,0,0.016,0,0.023,0c0-0.016,0-0.031,0-0.046c0.009,0,0.017,0,0.024,0
	c0-0.017,0-0.033,0-0.049c0.009,0,0.018,0,0.027,0c0-0.008,0-0.016,0-0.023c0.008,0,0.016,0,0.023,0c0-0.017,0-0.033,0-0.049
	c0.008,0,0.017,0,0.024,0c0.002-0.007-0.004-0.021,0.003-0.023c0.008,0,0.016,0,0.023,0c0-0.017,0-0.032,0-0.049
	c0.009,0,0.017,0,0.024,0c0.002-0.007-0.004-0.021,0.003-0.023c0.007,0,0.014,0,0.021,0c0-0.016,0-0.032,0-0.049
	c0.009,0,0.018,0,0.026,0c0-0.008,0-0.015,0-0.022c0.008,0,0.017,0,0.024,0c0-0.017,0-0.033,0-0.049c0.008,0,0.016,0,0.023,0
	c0.002-0.007-0.003-0.021,0.003-0.023c0.009,0,0.017,0,0.024,0c0-0.017,0-0.032,0-0.049c-4.034,0-8.068,0-12.102,0
	C1.099,5.178,1.099,5.193,1.099,5.21z M6.973,6.552c-0.041,0-0.082,0-0.123,0C6.848,6.56,6.853,6.575,6.847,6.578
	c-0.024,0-0.049,0-0.072,0C6.772,6.585,6.778,6.599,6.771,6.601c-0.024,0-0.048,0-0.072,0C6.697,6.607,6.703,6.622,6.696,6.624
	c-0.016,0-0.032,0-0.048,0C6.646,6.632,6.652,6.646,6.646,6.65c-0.016,0-0.03,0-0.045,0C6.599,6.657,6.604,6.671,6.598,6.673
	c-0.017,0-0.032,0-0.049,0c0,0.008,0,0.016,0,0.023c-0.008,0-0.016,0-0.023,0C6.523,6.704,6.529,6.719,6.522,6.722
	c-0.017,0-0.032,0-0.048,0c0,0.008,0,0.016,0,0.023c-0.009,0-0.017,0-0.024,0C6.448,6.752,6.454,6.766,6.447,6.768
	c-0.008,0-0.016,0-0.024,0c0,0.009,0,0.018,0,0.026c-0.008,0-0.016,0-0.023,0C6.397,6.801,6.403,6.814,6.396,6.817
	c-0.017,0-0.032,0-0.048,0c0,0.007,0,0.015,0,0.022c-0.009,0-0.017,0-0.024,0c0,0.009,0,0.018,0,0.026c-0.008,0-0.016,0-0.024,0
	c0,0.015,0,0.03,0,0.046c-0.009,0-0.018,0-0.026,0c0,0.009,0,0.018,0,0.025c-0.008,0-0.017,0-0.024,0
	C6.247,6.945,6.253,6.959,6.246,6.961c-0.007,0-0.014,0-0.021,0c0,0.017,0,0.033,0,0.049c-0.01,0-0.019,0-0.027,0
	C6.196,7.017,6.202,7.031,6.195,7.033c-0.007,0-0.014,0-0.021,0c0,0.023,0,0.048,0,0.072c-0.008,0-0.016,0-0.023,0
	C6.148,7.112,6.154,7.126,6.147,7.128c-0.008,0-0.017,0-0.024,0c0,0.017,0,0.033,0,0.049c-0.008,0-0.016,0-0.023,0
	c0,0.017,0,0.033,0,0.049c-0.009,0-0.017,0-0.024,0c0,0.024,0,0.049,0,0.072c-0.009,0-0.018,0-0.027,0c0,0.024,0,0.048,0,0.072
	c-0.008,0-0.016,0-0.023,0c0,0.031,0,0.063,0,0.095c-0.008,0-0.017,0-0.024,0c0,0.112,0,0.225,0,0.337
	c0.008,0.002,0.021-0.003,0.024,0.003c0,0.038,0,0.077,0,0.115c0.007,0.002,0.021-0.004,0.023,0.003c0,0.023,0,0.046,0,0.069
	c0.009,0.002,0.024-0.004,0.027,0.003c0,0.022,0,0.046,0,0.069C6.082,8.065,6.097,8.061,6.1,8.067c0,0.015,0,0.03,0,0.046
	c0.007,0.002,0.021-0.004,0.023,0.003c0,0.022,0,0.046,0,0.068C6.131,8.187,6.147,8.182,6.15,8.188c0,0.016,0,0.031,0,0.047
	C6.157,8.235,6.172,8.23,6.174,8.237c0,0.014,0,0.028,0,0.043c0.008,0.002,0.022-0.004,0.024,0.003c0,0.008,0,0.015,0,0.022
	c0.008,0.002,0.023-0.003,0.027,0.003c0,0.015,0,0.029,0,0.044c0.007,0.001,0.021-0.004,0.023,0.002c0,0.008,0,0.016,0,0.023
	c0.008,0,0.017,0,0.024,0c0,0.008,0,0.016,0,0.023c0.009,0,0.018,0,0.026,0c0,0.008,0,0.015,0,0.022
	c0.008,0.002,0.022-0.003,0.024,0.003c0,0.016,0,0.031,0,0.046C6.331,8.475,6.346,8.47,6.349,8.476c0,0.007,0,0.014,0,0.021
	c0.017,0,0.033,0,0.051,0c0,0.009,0,0.018,0,0.026c0.008,0,0.016,0,0.023,0c0,0.007,0,0.015,0,0.022c0.01,0,0.019,0,0.027,0
	c0,0.008,0,0.016,0,0.023c0.007,0.001,0.021-0.004,0.024,0.003c0,0.008,0,0.015,0,0.022c0.017,0,0.033,0,0.051,0
	c0,0.008,0,0.016,0,0.023C6.532,8.619,6.547,8.613,6.549,8.62c0,0.007,0,0.014,0,0.02c0.018,0,0.034,0,0.052,0
	c0,0.009,0,0.018,0,0.026c0.016,0,0.031,0,0.048,0c0,0.008,0,0.016,0,0.023c0.017,0,0.034,0,0.051,0c0,0.007,0,0.015,0,0.022
	c0.017,0,0.034,0,0.051,0c0,0.009,0,0.018,0,0.026c0.025,0,0.05,0,0.075,0c0,0.008,0,0.015,0,0.022c0.033,0,0.066,0,0.099,0
	c0,0.008,0,0.016,0,0.023c0.143,0,0.284,0,0.427,0c0.001-0.007-0.004-0.021,0.003-0.023c0.031,0,0.063,0,0.096,0
	C7.451,8.754,7.445,8.74,7.452,8.738c0.024,0,0.048,0,0.072,0C7.526,8.73,7.521,8.715,7.527,8.712c0.023,0,0.048,0,0.072,0
	c0.001-0.007-0.004-0.021,0.003-0.022c0.016,0,0.031,0,0.048,0c0.002-0.008-0.004-0.021,0.003-0.023c0.015,0,0.03,0,0.045,0
	c0-0.009,0-0.018,0-0.026c0.009,0,0.018,0,0.027,0c0.001-0.007-0.004-0.021,0.003-0.022c0.015,0,0.029,0,0.045,0
	C7.775,8.61,7.77,8.596,7.776,8.594c0.008,0,0.016,0,0.023,0c0.002-0.008-0.003-0.022,0.003-0.025c0.016,0,0.03,0,0.046,0
	C7.85,8.562,7.845,8.547,7.852,8.545c0.008,0,0.016,0,0.023,0c0-0.008,0-0.016,0-0.022c0.008,0,0.017,0,0.024,0
	c0-0.009,0-0.018,0-0.026c0.008,0,0.016,0,0.023,0C7.925,8.489,7.92,8.476,7.926,8.473c0.009,0,0.017,0,0.024,0
	c0-0.008,0-0.015,0-0.022c0.008,0,0.016,0,0.024,0c0-0.009,0-0.018,0-0.026c0.008,0,0.016,0,0.023,0
	C8,8.417,7.994,8.403,8.001,8.401c0.008,0,0.017,0,0.024,0c0-0.017,0-0.033,0-0.049c0.008,0,0.016,0,0.023,0
	c0-0.008,0-0.016,0-0.023c0.009,0,0.017,0,0.024,0c0.002-0.007-0.004-0.021,0.003-0.023c0.008,0,0.016,0,0.024,0
	c0-0.016,0-0.032,0-0.049c0.008,0,0.016,0,0.023,0c0-0.017,0-0.032,0-0.049c0.008,0,0.017,0,0.024,0c0-0.016,0-0.03,0-0.046
	c0.009,0,0.018,0,0.026,0c0-0.017,0-0.033,0-0.049c0.009,0,0.017,0,0.024,0c0-0.024,0-0.048,0-0.072c0.008,0,0.016,0,0.024,0
	c0-0.024,0-0.048,0-0.072c0.009,0,0.018,0,0.026,0c0-0.031,0-0.063,0-0.095c0.008,0,0.017,0,0.024,0c0-0.16,0-0.32,0-0.481
	C8.267,7.392,8.252,7.396,8.25,7.39c0-0.022,0-0.046,0-0.068C8.242,7.319,8.227,7.324,8.224,7.318c0-0.016,0-0.031,0-0.046
	C8.216,7.271,8.201,7.275,8.199,7.27c0-0.015,0-0.029,0-0.044C8.192,7.225,8.178,7.229,8.175,7.223c0-0.015,0-0.03,0-0.046
	C8.167,7.175,8.151,7.181,8.148,7.174c0-0.015,0-0.03,0-0.046C8.141,7.126,8.126,7.132,8.124,7.125c0-0.015,0-0.028,0-0.043
	C8.117,7.08,8.103,7.086,8.101,7.079c0-0.016,0-0.03,0-0.046c-0.01,0-0.019,0-0.027,0c0-0.008,0-0.016,0-0.023
	C8.066,7.008,8.052,7.014,8.049,7.007c0-0.015,0-0.03,0-0.046c-0.008,0-0.016,0-0.023,0c0-0.008,0-0.016,0-0.023
	c-0.009,0-0.019,0-0.027,0c0-0.008,0-0.017,0-0.025C7.991,6.91,7.977,6.916,7.975,6.909c0-0.007,0-0.014,0-0.021
	c-0.009,0-0.017,0-0.024,0c0-0.008,0-0.015,0-0.022c-0.009,0-0.018,0-0.027,0c0-0.009,0-0.018,0-0.026c-0.008,0-0.016,0-0.023,0
	c0-0.008,0-0.016,0-0.022C7.892,6.815,7.877,6.82,7.875,6.814c0-0.007,0-0.014,0-0.021c-0.009,0-0.018,0-0.026,0
	c0-0.009,0-0.018,0-0.026c-0.009,0-0.017,0-0.024,0c0-0.007,0-0.015,0-0.022C7.817,6.743,7.803,6.749,7.8,6.742
	c0-0.007,0-0.014,0-0.021c-0.017,0-0.033,0-0.051,0c0-0.009,0-0.017,0-0.025c-0.017,0-0.034,0-0.051,0c0-0.008,0-0.016,0-0.023
	C7.691,6.671,7.677,6.677,7.674,6.67c0-0.007,0-0.014,0-0.02c-0.017,0-0.033,0-0.051,0c0-0.009,0-0.018,0-0.026
	c-0.016,0-0.032,0-0.048,0c0-0.008,0-0.016,0-0.023c-0.025,0-0.05,0-0.075,0c0-0.007,0-0.015,0-0.022c-0.024,0-0.05,0-0.075,0
	c0-0.009,0-0.018,0-0.026c-0.033,0-0.067,0-0.102,0c0-0.008,0-0.015,0-0.022c-0.116,0-0.232,0-0.348,0
	C6.974,6.536,6.979,6.55,6.973,6.552z"/>
</svg>
