<?xml version="1.0" encoding="utf-8"?>
<!-- Generator: Adobe Illustrator 14.0.0, SVG Export Plug-In  -->
<!DOCTYPE svg PUBLIC "-//W3C//DTD SVG 1.1//EN" "http://www.w3.org/Graphics/SVG/1.1/DTD/svg11.dtd" [
	<!ENTITY ns_flows "http://ns.adobe.com/Flows/1.0/">
]>
<svg version="1.1"
	 xmlns="http://www.w3.org/2000/svg" xmlns:xlink="http://www.w3.org/1999/xlink" xmlns:a="http://ns.adobe.com/AdobeSVGViewerExtensions/3.0/"
	 x="0px" y="0px" width="3px" height="8px" viewBox="-0.143 -0.403 3 8" enable-background="new -0.143 -0.403 3 8"
	 xml:space="preserve">
<defs>
	<symbol  id="Tower" viewBox="-1.418 -2.543 2.836 5.086">
		<g>
			<g id="XMLID_132_">
				<g>
					<path fill="#010101" d="M-0.401,2.16l-0.031-0.806L0.458,1.34L0.442,2.144 M0.777,2.543L0.777,2.543l0.194-4.846
						c-0.049,0.031-0.244,0-0.328,0l-0.17,3.348h-0.906l-0.226-3.401c-0.12,0-0.223,0-0.297,0l0.261,4.899"/>
				</g>
				<g>
				</g>
			</g>
		</g>
		
			<line fill="none" stroke="#010101" stroke-width="0.2362" stroke-miterlimit="1" x1="-1.418" y1="-2.418" x2="1.418" y2="-2.418"/>
		<line fill="none" stroke="#010101" stroke-width="0.2822" x1="-1.417" y1="-2.402" x2="1.418" y2="-2.402"/>
	</symbol>
</defs>
<path fill="#FFFFFF" d="M2.222,4.168c0.015-0.171,0.006-0.367-0.021-0.587C2.122,2.92,2.048,2.274,1.994,1.611
	C1.975,1.379,1.96,1.086,1.9,0.821C2.079,0.473,1.82-0.058,1.349,0.1C1.287,0.12,1.224,0.141,1.162,0.162
	C0.887,0.253,0.656,0.625,0.863,0.896c0.012,0.015,0.013,0.043,0.023,0.06C0.84,1.514,0.84,2.072,0.844,2.633
	C0.847,3.13,0.939,3.749,0.66,4.188c-0.28,0.441,0.228,0.843,0.617,0.699c0.121,0.009,0.225,0.005,0.32-0.007
	C1.657,4.909,1.728,4.925,1.81,4.925C2.25,4.925,2.382,4.464,2.222,4.168z"/>
<use xlink:href="#Tower"  width="2.836" height="5.086" x="-1.418" y="-2.543" transform="matrix(1 0 0 -1 1.418 2.543)" overflow="visible"/>
<polygon points="1.99,6.375 1.99,6.386 1.99,6.396 1.989,6.406 1.988,6.415 1.987,6.426 1.986,6.435 1.985,6.444 1.984,6.455 
	1.983,6.464 1.981,6.475 1.979,6.484 1.978,6.493 1.976,6.503 1.974,6.513 1.971,6.522 1.968,6.531 1.965,6.542 1.962,6.551 
	1.959,6.561 1.955,6.57 1.952,6.579 1.949,6.588 1.944,6.598 1.94,6.607 1.937,6.615 1.933,6.624 1.929,6.633 1.924,6.643 
	1.919,6.65 1.914,6.66 1.909,6.667 1.904,6.675 1.898,6.685 1.893,6.693 1.888,6.701 1.881,6.708 1.875,6.716 1.869,6.724 
	1.863,6.732 1.856,6.74 1.851,6.748 1.845,6.755 1.838,6.763 1.83,6.769 1.824,6.776 1.816,6.784 1.81,6.791 1.802,6.797 
	1.795,6.804 1.787,6.81 1.779,6.815 1.771,6.822 1.765,6.829 1.757,6.834 1.748,6.839 1.74,6.846 1.731,6.851 1.724,6.856 
	1.715,6.862 1.706,6.867 1.697,6.871 1.688,6.876 1.681,6.88 1.671,6.886 1.662,6.89 1.653,6.894 1.645,6.897 1.636,6.901 
	1.626,6.905 1.617,6.908 1.607,6.912 1.598,6.915 1.589,6.917 1.579,6.92 1.569,6.922 1.56,6.925 1.55,6.928 1.541,6.931 
	1.531,6.932 1.521,6.935 1.512,6.936 1.502,6.937 1.492,6.938 1.482,6.94 1.472,6.94 1.462,6.941 1.452,6.941 1.442,6.942 
	1.433,6.942 1.423,6.942 1.413,6.942 1.402,6.942 1.393,6.941 1.384,6.941 1.374,6.94 1.363,6.94 1.354,6.938 1.344,6.937 
	1.334,6.936 1.324,6.935 1.314,6.932 1.305,6.931 1.295,6.928 1.286,6.925 1.275,6.922 1.267,6.92 1.257,6.917 1.247,6.915 
	1.238,6.912 1.229,6.908 1.22,6.905 1.21,6.901 1.201,6.897 1.191,6.894 1.184,6.89 1.174,6.886 1.165,6.88 1.157,6.876 
	1.148,6.871 1.14,6.867 1.131,6.862 1.122,6.856 1.113,6.851 1.105,6.846 1.098,6.839 1.089,6.834 1.081,6.829 1.073,6.822 
	1.066,6.815 1.059,6.81 1.051,6.804 1.043,6.797 1.036,6.791 1.029,6.784 1.021,6.776 1.015,6.769 1.008,6.763 1.001,6.755 
	0.995,6.748 0.988,6.74 0.982,6.732 0.976,6.724 0.97,6.716 0.964,6.708 0.958,6.701 0.952,6.693 0.947,6.685 0.941,6.675 
	0.937,6.667 0.932,6.66 0.927,6.65 0.922,6.643 0.917,6.633 0.913,6.624 0.909,6.615 0.905,6.607 0.9,6.598 0.896,6.588 
	0.894,6.579 0.89,6.57 0.887,6.561 0.884,6.551 0.881,6.542 0.878,6.531 0.875,6.522 0.872,6.513 0.87,6.503 0.868,6.493 
	0.866,6.484 0.864,6.475 0.862,6.464 0.861,6.455 0.86,6.444 0.858,6.435 0.857,6.426 0.857,6.415 0.856,6.406 0.855,6.396 
	0.855,6.386 0.855,6.375 0.855,6.366 0.855,6.355 0.856,6.346 0.857,6.336 0.857,6.327 0.858,6.316 0.86,6.307 0.861,6.296 
	0.862,6.287 0.864,6.278 0.866,6.267 0.868,6.258 0.87,6.249 0.872,6.238 0.875,6.229 0.878,6.22 0.881,6.21 0.884,6.201 
	0.887,6.192 0.89,6.181 0.894,6.172 0.896,6.164 0.9,6.155 0.905,6.146 0.909,6.136 0.913,6.127 0.917,6.118 0.922,6.11 
	0.927,6.101 0.932,6.093 0.937,6.083 0.941,6.076 0.947,6.067 0.952,6.058 0.958,6.05 0.964,6.042 0.97,6.035 0.976,6.026 
	0.982,6.019 0.988,6.011 0.995,6.004 1.001,5.996 1.008,5.99 1.015,5.981 1.021,5.975 1.029,5.968 1.036,5.962 1.043,5.954 
	1.051,5.947 1.059,5.942 1.066,5.936 1.073,5.929 1.081,5.923 1.089,5.917 1.098,5.912 1.105,5.906 1.113,5.9 1.122,5.895 
	1.131,5.891 1.14,5.885 1.148,5.88 1.157,5.876 1.165,5.871 1.174,5.867 1.184,5.861 1.191,5.857 1.201,5.854 1.21,5.851 
	1.22,5.847 1.229,5.843 1.238,5.84 1.247,5.836 1.257,5.833 1.267,5.831 1.275,5.829 1.286,5.826 1.295,5.823 1.305,5.822 
	1.314,5.819 1.324,5.818 1.334,5.816 1.344,5.814 1.354,5.813 1.363,5.813 1.374,5.811 1.384,5.81 1.393,5.81 1.402,5.81 
	1.413,5.809 1.423,5.809 1.433,5.809 1.442,5.81 1.452,5.81 1.462,5.81 1.472,5.811 1.482,5.813 1.492,5.813 1.502,5.814 
	1.512,5.816 1.521,5.818 1.531,5.819 1.541,5.822 1.55,5.823 1.56,5.826 1.569,5.829 1.579,5.831 1.589,5.833 1.598,5.836 
	1.607,5.84 1.617,5.843 1.626,5.847 1.636,5.851 1.645,5.854 1.653,5.857 1.662,5.861 1.671,5.867 1.681,5.871 1.688,5.876 
	1.697,5.88 1.706,5.885 1.715,5.891 1.724,5.895 1.731,5.9 1.74,5.906 1.748,5.912 1.757,5.917 1.765,5.923 1.771,5.929 
	1.779,5.936 1.787,5.942 1.795,5.947 1.802,5.954 1.81,5.962 1.816,5.968 1.824,5.975 1.83,5.981 1.838,5.99 1.845,5.996 
	1.851,6.004 1.856,6.011 1.863,6.019 1.869,6.026 1.875,6.035 1.881,6.042 1.888,6.05 1.893,6.058 1.898,6.067 1.904,6.076 
	1.909,6.083 1.914,6.093 1.919,6.101 1.924,6.11 1.929,6.118 1.933,6.127 1.937,6.136 1.94,6.146 1.944,6.155 1.949,6.164 
	1.952,6.172 1.955,6.181 1.959,6.192 1.962,6.201 1.965,6.21 1.968,6.22 1.971,6.229 1.974,6.238 1.976,6.249 1.978,6.258 
	1.979,6.267 1.981,6.278 1.983,6.287 1.984,6.296 1.985,6.307 1.986,6.316 1.987,6.327 1.988,6.336 1.989,6.346 1.99,6.355 
	1.99,6.366 "/>
</svg>
