<?xml version="1.0" encoding="utf-8"?>
<!-- Generator: Adobe Illustrator 14.0.0, SVG Export Plug-In  -->
<!DOCTYPE svg PUBLIC "-//W3C//DTD SVG 1.1//EN" "http://www.w3.org/Graphics/SVG/1.1/DTD/svg11.dtd" [
	<!ENTITY ns_flows "http://ns.adobe.com/Flows/1.0/">
]>
<svg version="1.1"
	 xmlns="http://www.w3.org/2000/svg" xmlns:xlink="http://www.w3.org/1999/xlink" xmlns:a="http://ns.adobe.com/AdobeSVGViewerExtensions/3.0/"
	 x="0px" y="0px" width="4px" height="7px" viewBox="-0.183 -0.324 4 7" enable-background="new -0.183 -0.324 4 7"
	 xml:space="preserve">
<defs>
	<symbol  id="Deleted_Symbol" viewBox="-2.126 -2.126 4.252 4.252">
		<path d="M2.126,0.573v1.553h-1.56V1.543h-1.133v0.583h-1.56V0.573h0.592v-1.147h-0.592v-1.552h1.56v0.588h1.133v-0.588h1.56v1.552
			H1.528v1.147H2.126z M1.157-0.574H0.566v-0.588h-1.133v0.588h-0.597v1.147h0.597v0.594h1.133V0.573h0.591V-0.574z"/>
	</symbol>
	<symbol  id="Deleted_Symbol_1" viewBox="-0.835 -3.25 1.671 6.501">
		<polygon points="0.625,2.878 0.797,3.251 0.797,3.251 0.792,3.114 0.81,3.004 0.819,2.895 0.81,2.758 0.732,2.566 0.717,2.507 
			0.717,2.427 0.75,2.274 0.788,2.117 0.819,2.023 0.835,1.933 0.835,1.821 0.81,1.706 0.701,1.436 0.651,1.333 0.548,1.203 
			0.458,1.109 0.321,1.018 0.176,0.963 0.041,0.937 -0.029,0.933 -0.029,0.933 -0.041,1.134 -0.041,1.134 0.015,1.138 0.11,1.153 
			0.213,1.193 0.312,1.26 0.381,1.33 0.462,1.436 0.5,1.511 0.604,1.761 0.62,1.841 0.62,1.918 0.607,1.979 0.577,2.069 
			0.539,2.234 0.5,2.406 0.5,2.531 0.527,2.627 		"/>
		<polygon points="-0.029,0.933 -0.212,0.943 -0.327,0.966 -0.587,1.083 -0.689,1.163 -0.76,1.244 -0.804,1.324 -0.819,1.395 
			-0.835,1.48 -0.835,1.604 -0.78,1.781 -0.63,2.014 -0.474,2.214 -0.321,2.366 -0.187,2.526 -0.1,2.633 0.003,2.724 0.272,2.918 
			0.539,3.101 0.797,3.251 0.797,3.251 0.625,2.878 0.625,2.878 0.436,2.779 0.402,2.758 0.144,2.571 0.063,2.494 -0.014,2.406 
			-0.16,2.234 -0.306,2.091 -0.452,1.902 -0.582,1.701 -0.619,1.576 -0.619,1.501 -0.607,1.436 -0.598,1.391 -0.576,1.354 
			-0.533,1.306 -0.468,1.253 -0.256,1.159 -0.175,1.138 -0.041,1.134 -0.041,1.134 		"/>
		<path d="M-0.078-3.004c0.247,0,0.43-0.1,0.551-0.246v3.779l-0.26,0.243h-0.54l-0.261-0.243v-3.741
			C-0.467-3.089-0.301-3.004-0.078-3.004z"/>
	</symbol>
	<symbol  id="Deleted_Symbol_2" viewBox="-1.771 -2.48 3.543 4.961">
		<polygon points="1.214,-2.223 0.813,2.48 -0.911,2.48 -1.314,-2.223 -1.771,-2.223 -1.771,-2.48 1.771,-2.48 1.771,-2.223 		"/>
	</symbol>
	<symbol  id="water_intake_tower_1" viewBox="-1.771 -3.18 3.543 6.36">
		<g>
			<polygon points="0.506,-2.614 0.506,-2.624 0.506,-2.633 0.505,-2.644 0.505,-2.652 0.504,-2.664 0.503,-2.674 0.502,-2.683 
				0.501,-2.692 0.5,-2.701 0.498,-2.714 0.496,-2.723 0.494,-2.731 0.492,-2.742 0.49,-2.751 0.487,-2.76 0.484,-2.771 
				0.481,-2.78 0.479,-2.789 0.475,-2.8 0.472,-2.809 0.468,-2.816 0.465,-2.826 0.461,-2.837 0.457,-2.845 0.453,-2.854 
				0.449,-2.862 0.445,-2.871 0.44,-2.882 0.436,-2.889 0.43,-2.898 0.425,-2.905 0.42,-2.913 0.415,-2.922 0.409,-2.931 
				0.404,-2.938 0.397,-2.947 0.392,-2.955 0.386,-2.962 0.38,-2.971 0.373,-2.979 0.367,-2.987 0.361,-2.993 0.354,-3.001 
				0.347,-3.007 0.34,-3.014 0.333,-3.021 0.326,-3.029 0.318,-3.035 0.311,-3.041 0.304,-3.049 0.296,-3.053 0.288,-3.062 
				0.281,-3.066 0.273,-3.072 0.264,-3.078 0.256,-3.084 0.248,-3.09 0.24,-3.095 0.231,-3.101 0.223,-3.106 0.214,-3.109 
				0.205,-3.115 0.197,-3.118 0.188,-3.124 0.179,-3.127 0.169,-3.132 0.161,-3.135 0.152,-3.139 0.143,-3.144 0.133,-3.146 
				0.124,-3.151 0.114,-3.152 0.105,-3.155 0.096,-3.158 0.085,-3.16 0.076,-3.163 0.066,-3.166 0.057,-3.169 0.047,-3.17 
				0.038,-3.172 0.028,-3.175 0.018,-3.175 0.008,-3.177 -0.001,-3.178 -0.012,-3.178 -0.021,-3.18 -0.031,-3.18 -0.042,-3.181 
				-0.051,-3.181 -0.061,-3.181 -0.071,-3.181 -0.081,-3.181 -0.091,-3.18 -0.1,-3.18 -0.11,-3.178 -0.12,-3.178 -0.13,-3.177 
				-0.14,-3.175 -0.15,-3.175 -0.16,-3.172 -0.169,-3.17 -0.179,-3.169 -0.188,-3.166 -0.198,-3.163 -0.208,-3.16 -0.217,-3.158 
				-0.227,-3.155 -0.236,-3.152 -0.246,-3.151 -0.255,-3.146 -0.264,-3.144 -0.273,-3.139 -0.283,-3.135 -0.292,-3.132 -0.3,-3.127 
				-0.31,-3.124 -0.318,-3.118 -0.327,-3.115 -0.335,-3.109 -0.344,-3.106 -0.353,-3.101 -0.361,-3.095 -0.37,-3.09 -0.378,-3.084 
				-0.386,-3.078 -0.395,-3.072 -0.402,-3.066 -0.41,-3.062 -0.417,-3.053 -0.425,-3.049 -0.433,-3.041 -0.44,-3.035 -0.448,-3.029 
				-0.455,-3.021 -0.462,-3.014 -0.469,-3.007 -0.476,-3.001 -0.482,-2.993 -0.489,-2.987 -0.496,-2.979 -0.501,-2.971 
				-0.508,-2.962 -0.514,-2.955 -0.52,-2.947 -0.525,-2.938 -0.531,-2.931 -0.537,-2.922 -0.542,-2.913 -0.547,-2.905 
				-0.552,-2.898 -0.557,-2.889 -0.562,-2.882 -0.566,-2.871 -0.571,-2.862 -0.575,-2.854 -0.579,-2.845 -0.583,-2.837 
				-0.587,-2.826 -0.59,-2.816 -0.594,-2.809 -0.597,-2.8 -0.6,-2.789 -0.603,-2.78 -0.606,-2.771 -0.608,-2.76 -0.611,-2.751 
				-0.613,-2.742 -0.616,-2.731 -0.618,-2.723 -0.619,-2.714 -0.621,-2.701 -0.623,-2.692 -0.624,-2.683 -0.625,-2.674 
				-0.626,-2.664 -0.626,-2.652 -0.627,-2.644 -0.628,-2.633 -0.628,-2.624 -0.628,-2.614 -0.628,-2.604 -0.628,-2.595 
				-0.627,-2.584 -0.626,-2.575 -0.626,-2.564 -0.625,-2.555 -0.624,-2.545 -0.623,-2.535 -0.621,-2.526 -0.619,-2.516 
				-0.618,-2.505 -0.616,-2.496 -0.613,-2.487 -0.611,-2.476 -0.608,-2.468 -0.606,-2.458 -0.603,-2.448 -0.6,-2.439 -0.597,-2.431 
				-0.594,-2.419 -0.59,-2.41 -0.587,-2.402 -0.583,-2.394 -0.579,-2.383 -0.575,-2.374 -0.571,-2.365 -0.566,-2.356 -0.562,-2.348 
				-0.557,-2.339 -0.552,-2.331 -0.547,-2.322 -0.542,-2.313 -0.537,-2.306 -0.531,-2.297 -0.525,-2.288 -0.52,-2.28 -0.514,-2.273 
				-0.508,-2.264 -0.501,-2.257 -0.496,-2.249 -0.489,-2.243 -0.482,-2.234 -0.476,-2.229 -0.469,-2.22 -0.462,-2.214 
				-0.455,-2.206 -0.448,-2.2 -0.44,-2.191 -0.433,-2.187 -0.425,-2.181 -0.417,-2.175 -0.41,-2.166 -0.402,-2.161 -0.395,-2.155 
				-0.386,-2.149 -0.378,-2.146 -0.37,-2.138 -0.361,-2.133 -0.353,-2.129 -0.344,-2.124 -0.335,-2.118 -0.327,-2.114 
				-0.318,-2.109 -0.31,-2.104 -0.3,-2.101 -0.292,-2.096 -0.283,-2.093 -0.273,-2.09 -0.264,-2.084 -0.255,-2.081 -0.246,-2.078 
				-0.236,-2.075 -0.227,-2.072 -0.217,-2.069 -0.208,-2.066 -0.198,-2.063 -0.188,-2.062 -0.179,-2.061 -0.169,-2.058 
				-0.16,-2.056 -0.15,-2.056 -0.14,-2.053 -0.13,-2.052 -0.12,-2.052 -0.11,-2.05 -0.1,-2.049 -0.091,-2.049 -0.081,-2.049 
				-0.071,-2.047 -0.061,-2.047 -0.051,-2.047 -0.042,-2.049 -0.031,-2.049 -0.021,-2.049 -0.012,-2.05 -0.001,-2.052 0.008,-2.052 
				0.018,-2.053 0.028,-2.056 0.038,-2.056 0.047,-2.058 0.057,-2.061 0.066,-2.062 0.076,-2.063 0.085,-2.066 0.096,-2.069 
				0.105,-2.072 0.114,-2.075 0.124,-2.078 0.133,-2.081 0.143,-2.084 0.152,-2.09 0.161,-2.093 0.169,-2.096 0.179,-2.101 
				0.188,-2.104 0.197,-2.109 0.205,-2.114 0.214,-2.118 0.223,-2.124 0.231,-2.129 0.24,-2.133 0.248,-2.138 0.256,-2.146 
				0.264,-2.149 0.273,-2.155 0.281,-2.161 0.288,-2.166 0.296,-2.175 0.304,-2.181 0.311,-2.187 0.318,-2.191 0.326,-2.2 
				0.333,-2.206 0.34,-2.214 0.347,-2.22 0.354,-2.229 0.361,-2.234 0.367,-2.243 0.373,-2.249 0.38,-2.257 0.386,-2.264 
				0.392,-2.273 0.397,-2.28 0.404,-2.288 0.409,-2.297 0.415,-2.306 0.42,-2.313 0.425,-2.322 0.43,-2.331 0.436,-2.339 
				0.44,-2.348 0.445,-2.356 0.449,-2.365 0.453,-2.374 0.457,-2.383 0.461,-2.394 0.465,-2.402 0.468,-2.41 0.472,-2.419 
				0.475,-2.431 0.479,-2.439 0.481,-2.448 0.484,-2.458 0.487,-2.468 0.49,-2.476 0.492,-2.487 0.494,-2.496 0.496,-2.505 
				0.498,-2.516 0.5,-2.526 0.501,-2.535 0.502,-2.545 0.503,-2.555 0.504,-2.564 0.505,-2.575 0.505,-2.584 0.506,-2.595 
				0.506,-2.604 			"/>
		</g>
		<path fill="none" d="M-1.333,2.865"/>
		
			<use xlink:href="#Deleted_Symbol_2"  width="3.543" height="4.961" x="-1.771" y="-2.48" transform="matrix(1 0 0 1 0 0.6992)" overflow="visible"/>
	</symbol>
</defs>
<use xlink:href="#water_intake_tower_1"  width="3.543" height="6.36" x="-1.771" y="-3.18" transform="matrix(1 0 0 -1 1.7715 3.1797)" overflow="visible"/>
</svg>
