<?xml version="1.0" encoding="utf-8"?>
<!-- Generator: Adobe Illustrator 14.0.0, SVG Export Plug-In  -->
<!DOCTYPE svg PUBLIC "-//W3C//DTD SVG 1.1//EN" "http://www.w3.org/Graphics/SVG/1.1/DTD/svg11.dtd" [
	<!ENTITY ns_flows "http://ns.adobe.com/Flows/1.0/">
]>
<svg version="1.1"
	 xmlns="http://www.w3.org/2000/svg" xmlns:xlink="http://www.w3.org/1999/xlink" xmlns:a="http://ns.adobe.com/AdobeSVGViewerExtensions/3.0/"
	 x="0px" y="0px" width="6px" height="5px" viewBox="-0.934 -0.76 6 5" enable-background="new -0.934 -0.76 6 5"
	 xml:space="preserve">
<defs>
</defs>
<path fill-rule="evenodd" clip-rule="evenodd" fill="#FFFFFF" d="M2.539,1.467c-0.311-0.099-0.712-0.115-1.011,0.03
	c-0.292,0.142-0.42,0.394-0.612,0.639C0.545,2.609,1.147,3.258,1.551,2.904C1.625,2.96,1.714,3.003,1.832,3.005
	c0.437,0.009,0.86,0.039,1.289-0.065c0.197-0.047,0.391-0.269,0.367-0.482C3.417,1.836,3.111,1.649,2.539,1.467z"/>
<path fill-rule="evenodd" clip-rule="evenodd" d="M2.355,0c0,0.335,0,0.67,0,1.004c0.29,0.105,0.583,0.205,0.767,0.438
	c0.323-0.204,0.637-0.417,0.95-0.634C4.167,0.911,4.218,1.069,4.309,1.18c-0.284,0.22-0.583,0.423-0.895,0.611
	c0.29,0.402,0.27,1.176,0.255,1.943c-1.017,0-2.033,0-3.049,0C0.616,2.985,0.568,2.187,0.876,1.813C0.591,1.601,0.298,1.398,0,1.201
	c0.066-0.14,0.154-0.253,0.22-0.394C0.533,1.014,0.847,1.221,1.15,1.441c0.216-0.2,0.46-0.366,0.803-0.415c0-0.342,0-0.685,0-1.026
	C2.087,0,2.221,0,2.355,0z M3.012,1.965C2.463,1.139,1.078,1.477,1.041,2.664c0.736,0,1.473,0,2.209,0
	C3.182,2.396,3.137,2.153,3.012,1.965z"/>
</svg>
