<?xml version="1.0" encoding="utf-8"?>
<!-- Generator: Adobe Illustrator 14.0.0, SVG Export Plug-In  -->
<!DOCTYPE svg PUBLIC "-//W3C//DTD SVG 1.1//EN" "http://www.w3.org/Graphics/SVG/1.1/DTD/svg11.dtd" [
	<!ENTITY ns_flows "http://ns.adobe.com/Flows/1.0/">
]>
<svg version="1.1"
	 xmlns="http://www.w3.org/2000/svg" xmlns:xlink="http://www.w3.org/1999/xlink" xmlns:a="http://ns.adobe.com/AdobeSVGViewerExtensions/3.0/"
	 x="0px" y="0px" width="5px" height="11px" viewBox="-0.37 -0.969 5 11" enable-background="new -0.37 -0.969 5 11"
	 xml:space="preserve">
<defs>
	<symbol  id="Deleted_Symbol" viewBox="-2.126 -2.126 4.252 4.252">
		<path d="M2.126,0.573v1.553h-1.56V1.543h-1.133v0.583h-1.56V0.573h0.592v-1.147h-0.592v-1.552h1.56v0.588h1.133v-0.588h1.56v1.552
			H1.528v1.147H2.126z M1.157-0.574H0.566v-0.588h-1.133v0.588h-0.597v1.147h0.597v0.594h1.133V0.573h0.591V-0.574z"/>
	</symbol>
	<symbol  id="Deleted_Symbol_1" viewBox="-0.835 -3.25 1.671 6.501">
		<polygon points="0.625,2.878 0.797,3.251 0.797,3.251 0.792,3.114 0.81,3.004 0.819,2.895 0.81,2.758 0.732,2.566 0.717,2.507 
			0.717,2.427 0.75,2.274 0.788,2.117 0.819,2.023 0.835,1.933 0.835,1.821 0.81,1.706 0.701,1.436 0.651,1.333 0.548,1.203 
			0.458,1.109 0.321,1.018 0.176,0.963 0.041,0.937 -0.029,0.933 -0.029,0.933 -0.041,1.134 -0.041,1.134 0.015,1.138 0.11,1.153 
			0.213,1.193 0.312,1.26 0.381,1.33 0.462,1.436 0.5,1.511 0.604,1.761 0.62,1.841 0.62,1.918 0.607,1.979 0.577,2.069 
			0.539,2.234 0.5,2.406 0.5,2.531 0.527,2.627 		"/>
		<polygon points="-0.029,0.933 -0.212,0.943 -0.327,0.966 -0.587,1.083 -0.689,1.163 -0.76,1.244 -0.804,1.324 -0.819,1.395 
			-0.835,1.48 -0.835,1.604 -0.78,1.781 -0.63,2.014 -0.474,2.214 -0.321,2.366 -0.187,2.526 -0.1,2.633 0.003,2.724 0.272,2.918 
			0.539,3.101 0.797,3.251 0.797,3.251 0.625,2.878 0.625,2.878 0.436,2.779 0.402,2.758 0.144,2.571 0.063,2.494 -0.014,2.406 
			-0.16,2.234 -0.306,2.091 -0.452,1.902 -0.582,1.701 -0.619,1.576 -0.619,1.501 -0.607,1.436 -0.598,1.391 -0.576,1.354 
			-0.533,1.306 -0.468,1.253 -0.256,1.159 -0.175,1.138 -0.041,1.134 -0.041,1.134 		"/>
		<path d="M-0.078-3.004c0.247,0,0.43-0.1,0.551-0.246v3.779l-0.26,0.243h-0.54l-0.261-0.243v-3.741
			C-0.467-3.089-0.301-3.004-0.078-3.004z"/>
	</symbol>
	<symbol  id="smokestack_1" viewBox="-2.069 -4.941 4.138 9.883">
		<g>
			<polygon points="0.014,-4.375 0.014,-4.386 0.014,-4.395 0.013,-4.405 0.013,-4.414 0.012,-4.426 0.011,-4.435 0.01,-4.443 
				0.009,-4.454 0.007,-4.463 0.005,-4.475 0.003,-4.483 0.001,-4.492 0,-4.503 -0.002,-4.512 -0.005,-4.521 -0.008,-4.531 
				-0.011,-4.541 -0.014,-4.551 -0.017,-4.561 -0.021,-4.569 -0.024,-4.578 -0.027,-4.588 -0.031,-4.598 -0.035,-4.606 
				-0.039,-4.614 -0.043,-4.623 -0.047,-4.633 -0.052,-4.643 -0.057,-4.65 -0.062,-4.659 -0.067,-4.667 -0.072,-4.675 
				-0.077,-4.684 -0.083,-4.692 -0.088,-4.7 -0.095,-4.708 -0.101,-4.716 -0.106,-4.724 -0.112,-4.732 -0.119,-4.74 -0.125,-4.748 
				-0.131,-4.754 -0.138,-4.762 -0.146,-4.769 -0.152,-4.775 -0.159,-4.783 -0.167,-4.79 -0.174,-4.797 -0.181,-4.803 -0.188,-4.81 
				-0.196,-4.814 -0.204,-4.822 -0.211,-4.828 -0.219,-4.834 -0.228,-4.839 -0.236,-4.846 -0.244,-4.851 -0.252,-4.855 
				-0.261,-4.861 -0.27,-4.867 -0.278,-4.871 -0.287,-4.876 -0.295,-4.88 -0.305,-4.885 -0.313,-4.889 -0.323,-4.893 -0.331,-4.896 
				-0.34,-4.9 -0.35,-4.904 -0.359,-4.908 -0.368,-4.912 -0.378,-4.914 -0.387,-4.917 -0.396,-4.92 -0.407,-4.922 -0.416,-4.925 
				-0.426,-4.928 -0.435,-4.93 -0.445,-4.932 -0.455,-4.934 -0.464,-4.936 -0.474,-4.937 -0.484,-4.938 -0.494,-4.939 
				-0.504,-4.939 -0.514,-4.94 -0.523,-4.94 -0.534,-4.941 -0.543,-4.941 -0.553,-4.941 -0.563,-4.941 -0.573,-4.941 -0.583,-4.94 
				-0.592,-4.94 -0.602,-4.939 -0.612,-4.939 -0.622,-4.938 -0.632,-4.937 -0.642,-4.936 -0.652,-4.934 -0.661,-4.932 -0.671,-4.93 
				-0.681,-4.928 -0.69,-4.925 -0.7,-4.922 -0.709,-4.92 -0.719,-4.917 -0.729,-4.914 -0.738,-4.912 -0.747,-4.908 -0.756,-4.904 
				-0.766,-4.9 -0.775,-4.896 -0.784,-4.893 -0.792,-4.889 -0.802,-4.885 -0.811,-4.88 -0.819,-4.876 -0.828,-4.871 -0.836,-4.867 
				-0.845,-4.861 -0.854,-4.855 -0.862,-4.851 -0.87,-4.846 -0.878,-4.839 -0.887,-4.834 -0.895,-4.828 -0.902,-4.822 -0.91,-4.814 
				-0.917,-4.81 -0.925,-4.803 -0.933,-4.797 -0.94,-4.79 -0.947,-4.783 -0.954,-4.775 -0.961,-4.769 -0.968,-4.762 -0.975,-4.754 
				-0.981,-4.748 -0.988,-4.74 -0.994,-4.732 -1,-4.724 -1.006,-4.716 -1.012,-4.708 -1.018,-4.7 -1.023,-4.692 -1.029,-4.684 
				-1.034,-4.675 -1.039,-4.667 -1.044,-4.659 -1.049,-4.65 -1.054,-4.643 -1.059,-4.633 -1.063,-4.623 -1.067,-4.614 
				-1.071,-4.606 -1.075,-4.598 -1.079,-4.588 -1.082,-4.578 -1.086,-4.569 -1.089,-4.561 -1.092,-4.551 -1.095,-4.541 
				-1.098,-4.531 -1.101,-4.521 -1.104,-4.512 -1.105,-4.503 -1.108,-4.492 -1.11,-4.483 -1.111,-4.475 -1.113,-4.463 
				-1.115,-4.454 -1.116,-4.443 -1.117,-4.435 -1.118,-4.426 -1.119,-4.414 -1.119,-4.405 -1.12,-4.395 -1.12,-4.386 -1.12,-4.375 
				-1.12,-4.365 -1.12,-4.355 -1.119,-4.346 -1.119,-4.336 -1.118,-4.326 -1.117,-4.315 -1.116,-4.307 -1.115,-4.296 -1.113,-4.287 
				-1.111,-4.277 -1.11,-4.267 -1.108,-4.258 -1.105,-4.248 -1.104,-4.237 -1.101,-4.229 -1.098,-4.219 -1.095,-4.21 -1.092,-4.201 
				-1.089,-4.191 -1.086,-4.181 -1.082,-4.172 -1.079,-4.164 -1.075,-4.154 -1.071,-4.145 -1.067,-4.136 -1.063,-4.127 
				-1.059,-4.117 -1.054,-4.109 -1.049,-4.1 -1.044,-4.092 -1.039,-4.083 -1.034,-4.075 -1.029,-4.066 -1.023,-4.058 -1.018,-4.05 
				-1.012,-4.042 -1.006,-4.034 -1,-4.025 -0.994,-4.018 -0.988,-4.01 -0.981,-4.004 -0.975,-3.996 -0.968,-3.989 -0.961,-3.98 
				-0.954,-3.975 -0.947,-3.968 -0.94,-3.961 -0.933,-3.953 -0.925,-3.947 -0.917,-3.941 -0.91,-3.936 -0.902,-3.928 -0.895,-3.923 
				-0.887,-3.916 -0.878,-3.911 -0.87,-3.906 -0.862,-3.899 -0.854,-3.895 -0.845,-3.891 -0.836,-3.885 -0.828,-3.879 
				-0.819,-3.875 -0.811,-3.87 -0.802,-3.866 -0.792,-3.861 -0.784,-3.857 -0.775,-3.854 -0.766,-3.851 -0.756,-3.846 
				-0.747,-3.842 -0.738,-3.84 -0.729,-3.836 -0.719,-3.833 -0.709,-3.83 -0.7,-3.828 -0.69,-3.825 -0.681,-3.822 -0.671,-3.821 
				-0.661,-3.818 -0.652,-3.817 -0.642,-3.816 -0.632,-3.813 -0.622,-3.813 -0.612,-3.813 -0.602,-3.811 -0.592,-3.81 -0.583,-3.81 
				-0.573,-3.81 -0.563,-3.809 -0.553,-3.809 -0.543,-3.809 -0.534,-3.81 -0.523,-3.81 -0.514,-3.81 -0.504,-3.811 -0.494,-3.813 
				-0.484,-3.813 -0.474,-3.813 -0.464,-3.816 -0.455,-3.817 -0.445,-3.818 -0.435,-3.821 -0.426,-3.822 -0.416,-3.825 
				-0.407,-3.828 -0.396,-3.83 -0.387,-3.833 -0.378,-3.836 -0.368,-3.84 -0.359,-3.842 -0.35,-3.846 -0.34,-3.851 -0.331,-3.854 
				-0.323,-3.857 -0.313,-3.861 -0.305,-3.866 -0.295,-3.87 -0.287,-3.875 -0.278,-3.879 -0.27,-3.885 -0.261,-3.891 -0.252,-3.895 
				-0.244,-3.899 -0.236,-3.906 -0.228,-3.911 -0.219,-3.916 -0.211,-3.923 -0.204,-3.928 -0.196,-3.936 -0.188,-3.941 
				-0.181,-3.947 -0.174,-3.953 -0.167,-3.961 -0.159,-3.968 -0.152,-3.975 -0.146,-3.98 -0.138,-3.989 -0.131,-3.996 
				-0.125,-4.004 -0.119,-4.01 -0.112,-4.018 -0.106,-4.025 -0.101,-4.034 -0.095,-4.042 -0.088,-4.05 -0.083,-4.058 -0.077,-4.066 
				-0.072,-4.075 -0.067,-4.083 -0.062,-4.092 -0.057,-4.1 -0.052,-4.109 -0.047,-4.117 -0.043,-4.127 -0.039,-4.136 -0.035,-4.145 
				-0.031,-4.154 -0.027,-4.164 -0.024,-4.172 -0.021,-4.181 -0.017,-4.191 -0.014,-4.201 -0.011,-4.21 -0.008,-4.219 
				-0.005,-4.229 -0.002,-4.237 0,-4.248 0.001,-4.258 0.003,-4.267 0.005,-4.277 0.007,-4.287 0.009,-4.296 0.01,-4.307 
				0.011,-4.315 0.012,-4.326 0.013,-4.336 0.013,-4.346 0.014,-4.355 0.014,-4.365 			"/>
		</g>
		<g>
			<polygon points="0.314,2.121 -1.308,2.121 -1.545,-2.813 -2.069,-2.813 -2.069,-3.563 1.01,-3.563 1.01,-2.813 0.554,-2.813 			
				"/>
			<polygon points="2.025,3.206 1.942,3.255 1.81,3.251 1.666,3.104 1.606,2.973 1.566,2.761 1.512,2.587 1.369,2.406 1.274,2.351 
				1.169,2.339 1.058,2.376 0.932,2.464 0.794,2.604 0.722,2.724 0.716,2.806 0.75,2.944 0.733,3.055 0.673,3.177 0.598,3.222 
				0.454,3.206 0.37,3.122 0.303,3.05 0.269,2.979 0.171,2.944 0.073,2.973 -0.061,3.008 -0.217,2.995 -0.293,2.94 -0.354,2.844 
				-0.376,2.712 -0.376,2.615 -0.319,2.532 -0.194,2.47 -0.05,2.444 0.137,2.431 0.267,2.431 0.363,2.386 0.458,2.304 0.561,2.195 
				0.65,2.09 0.75,2 0.86,1.924 0.995,1.865 1.125,1.82 1.291,1.829 1.452,1.871 1.633,2 1.766,2.127 1.871,2.26 1.936,2.395 
				2.003,2.644 2.069,3.08 			"/>
			<polygon points="-1.241,2.395 -1.226,2.806 -1.143,3.206 -1.08,3.352 -1.017,3.458 -0.954,3.538 -0.855,3.561 -0.58,3.428 
				-0.513,3.416 -0.381,3.439 -0.311,3.497 -0.26,3.618 -0.288,3.791 -0.404,3.98 -0.447,4.104 -0.393,4.224 -0.204,4.351 
				0.032,4.41 0.353,4.396 0.589,4.331 0.816,4.254 0.988,4.136 1.212,3.95 1.412,3.721 1.502,3.696 1.61,3.732 1.705,3.831 
				1.731,3.98 1.666,4.149 1.533,4.351 1.295,4.559 0.976,4.761 0.659,4.877 0.385,4.941 -0.237,4.906 -0.47,4.839 -0.662,4.687 
				-0.755,4.58 -0.855,4.368 -0.916,4.141 -0.999,4.059 -1.176,4.013 -1.337,3.908 -1.54,3.688 -1.667,3.383 -1.718,3.155 
				-1.718,2.94 -1.667,2.635 -1.612,2.395 -1.524,2.254 -1.308,2.121 -1.236,2.254 			"/>
		</g>
	</symbol>
</defs>
<use xlink:href="#smokestack_1"  width="4.138" height="9.883" x="-2.069" y="-4.941" transform="matrix(1 0 0 -1 2.0688 4.9414)" overflow="visible"/>
</svg>
