<?xml version="1.0" encoding="utf-8"?>
<!-- Generator: Adobe Illustrator 14.0.0, SVG Export Plug-In  -->
<!DOCTYPE svg PUBLIC "-//W3C//DTD SVG 1.1//EN" "http://www.w3.org/Graphics/SVG/1.1/DTD/svg11.dtd" [
	<!ENTITY ns_flows "http://ns.adobe.com/Flows/1.0/">
]>
<svg version="1.1"
	 xmlns="http://www.w3.org/2000/svg" xmlns:xlink="http://www.w3.org/1999/xlink" xmlns:a="http://ns.adobe.com/AdobeSVGViewerExtensions/3.0/"
	 x="0px" y="0px" width="12px" height="12px" viewBox="-0.508 -0.252 12 12" enable-background="new -0.508 -0.252 12 12"
	 xml:space="preserve">
<defs>
	<symbol  id="Route_x5F_Marker_x5F_National_x5F_1Q119P002" viewBox="-5.32 -5.417 10.641 10.834">
		<path fill="#FFFFFF" stroke="#000000" stroke-width="0.2835" d="M-0.015-5.275h0.03c0.389,0.523,1.092,0.613,2.348,0.518
			c2.405,0.205,3.246,1.605,2.352,3.941C4.123,0.189,4.018,2.076,5.14,3.363L3.877,5.09C2.439,4.287,1.578,4.369,0,5.254l0,0l0,0
			l0,0l0,0l0,0l0,0l0,0l0,0C-1.578,4.369-2.439,4.287-3.877,5.09l-1.262-1.727c1.122-1.287,1.017-3.174,0.424-4.18
			C-5.61-3.152-4.77-4.553-2.361-4.758C-1.107-4.662-0.405-4.752-0.015-5.275h0.03H-0.015z"/>
	</symbol>
</defs>
<g>
	<g>
		<path fill="#FFFFFF" d="M0.534,2.454C1.077,2.195,1.46,1.505,1.718,0.989c-0.114,0.03-0.228,0.06-0.342,0.09
			C2.25,1.493,3.845,1.965,4.737,1.376C4.947,1.238,4.864,0.922,4.611,0.91C4.497,0.905,4.382,0.9,4.268,0.895
			C4.31,1.05,4.352,1.205,4.394,1.36c1.149-0.599,2.149,0.097,3.397,0.122c-0.018,0,1.211-0.147,1.2-0.169
			c0.198,0.41,0.604,0.871,1.038,1.042c-0.037-0.14-0.073-0.279-0.11-0.418c-0.32,0.261-0.584,0.729-0.62,1.146
			C9.276,3.343,9.642,3.405,9.765,3.208c0.1-0.159,0.1-0.228,0.072-0.411C9.804,2.583,9.472,2.555,9.38,2.737
			C8.946,3.599,8.945,4.712,9.131,5.642C9.362,6.796,10.788,9,8.779,9.499C8.521,9.563,7.894,9.561,7.624,9.719
			C7.323,9.895,6.706,9.576,6.326,9.702C6.24,9.73,5.194,10.013,5.269,10.094c-0.227-0.246-0.518-0.333-0.83-0.37
			C4.252,9.702,4.126,9.954,4.224,10.1c0.01,0.016,0.021,0.031,0.031,0.047c0.114-0.114,0.228-0.228,0.342-0.342
			c-0.288-0.138-0.51-0.19-0.829-0.159c-0.29,0.028-0.329,0.383-0.066,0.491c0.088,0.036,0.177,0.073,0.266,0.109
			C4.011,10.085,4.055,9.925,4.1,9.764c-0.837-0.113-1.59-0.162-2.406-0.422c-0.219-0.069-0.38,0.183-0.282,0.367
			c0.047,0.089,0.094,0.178,0.141,0.266C1.666,9.861,1.78,9.748,1.894,9.633c-1.938-0.966-0.641-2.711-0.26-4.141
			C1.702,5.237,1.4,5.093,1.216,5.249C1.061,5.38,1.04,5.419,0.979,5.609C0.892,5.887,1.29,6.038,1.437,5.802
			c0.615-0.988-0.014-2.756-0.664-3.553c-0.204-0.25-0.556,0.106-0.354,0.354C0.791,3.059,1.434,4.859,1.005,5.55
			C1.157,5.614,1.31,5.678,1.462,5.742c0.036-0.046,0.072-0.093,0.107-0.14C1.43,5.521,1.291,5.44,1.151,5.359
			c-0.264,0.99-1.008,1.818-0.814,2.912c0.145,0.818,0.542,1.414,1.304,1.794c0.224,0.112,0.462-0.114,0.342-0.342
			C1.937,9.634,1.89,9.545,1.843,9.458C1.749,9.58,1.655,9.703,1.561,9.825c0.899,0.286,1.469,0.295,2.406,0.422
			C4.287,10.29,4.4,9.888,4.1,9.764C4.011,9.728,3.922,9.691,3.834,9.655C3.812,9.819,3.79,9.982,3.768,10.146
			c0.192,0.03,0.385,0.061,0.577,0.091c0.208,0.1,0.493-0.116,0.342-0.342c-0.01-0.016-0.021-0.031-0.031-0.047
			c-0.072,0.125-0.144,0.251-0.216,0.376c0.257,0.04,0.464,0.166,0.62,0.38c0.069,0.074,0.218,0.104,0.303,0.039
			c1.191-0.919,3.718,0.268,4.549-1.229c1.216-2.188-1.207-4.224-0.1-6.425C9.659,2.97,9.507,2.95,9.354,2.93
			C9.348,2.938,9.34,2.947,9.333,2.956C9.488,2.998,9.644,3.04,9.799,3.082c0.007-0.075,0.385-0.72,0.474-0.792
			c0.161-0.131,0.045-0.357-0.11-0.418C9.918,1.776,9.387,0.987,9.296,0.8C9.248,0.701,9.115,0.656,9.014,0.685
			c-0.95,0.274-1.971,0.518-2.899-0.027C5.338,0.204,4.855,0.557,4.142,0.929C3.91,1.049,4.032,1.384,4.268,1.395
			C4.382,1.4,4.497,1.405,4.611,1.41C4.569,1.255,4.527,1.1,4.485,0.944c-0.7,0.461-2.234-0.001-2.857-0.297
			c-0.116-0.055-0.277-0.04-0.342,0.09c-0.218,0.436-0.55,1.068-1.004,1.285C-0.009,2.162,0.245,2.592,0.534,2.454L0.534,2.454z"/>
	</g>
</g>
<g>
	<g>
		<path fill="#FFFFFF" d="M4.033,1.332c0.322,0,0.322-0.5,0-0.5S3.711,1.332,4.033,1.332L4.033,1.332z"/>
	</g>
</g>
<g>
	<g>
		<path fill="#FFFFFF" d="M3.721,1.441c0.322,0,0.322-0.5,0-0.5S3.398,1.441,3.721,1.441L3.721,1.441z"/>
	</g>
</g>
<g>
	<path fill="#FFFFFF" d="M1.861,9.974c0.219,0.031,0.438-0.016,0.656,0c0.234,0.031,0.422,0.125,0.656,0.078"/>
	<g>
		<path fill="#FFFFFF" d="M1.861,10.224c0.252,0.017,0.508-0.024,0.758,0.023c0.196,0.037,0.355,0.068,0.554,0.055
			c0.32-0.022,0.322-0.522,0-0.5C2.936,9.819,2.747,9.727,2.518,9.724c-0.22-0.003-0.437,0.015-0.656,0
			C1.539,9.703,1.542,10.203,1.861,10.224L1.861,10.224z"/>
	</g>
</g>
<g>
	<g>
		<path fill="#FFFFFF" d="M1.274,5.916c0.097-0.24,0.098-0.49,0.172-0.736c0.093-0.31-0.39-0.441-0.482-0.133
			C0.891,5.291,0.889,5.545,0.792,5.783C0.671,6.082,1.155,6.21,1.274,5.916L1.274,5.916z"/>
	</g>
</g>
<g>
	<g>
		<path fill="#FFFFFF" d="M0.578,2.686c1.822,0.843,3.525,2.772,4.776,4.32c0.799,0.988,2.209,2.226,3.484,2.576
			c0.994,0.273,1.111-1.103,1.019-1.717C9.685,6.724,9.429,5.578,9.354,4.424c-0.051-0.786,0.371-1.51,0.273-2.279
			C9.416,2.305,9.205,2.466,8.994,2.626c0.031,0.011,0.063,0.021,0.094,0.031C9.455,2.78,9.801,2.396,9.703,2.043
			C9.409,0.985,8.344,0.984,7.407,1.028C6.675,1.063,5.967,0.963,5.236,0.91C4.187,0.833,3.239,1.33,2.115,1.131
			C1.438,1.011,0.541,1.753,1.07,2.459C1.568,3.123,2.03,3.774,2.607,4.374C3.246,5.036,2.955,8.266,2.523,9.05
			C2.399,9.276,2.454,9.611,2.703,9.734C3.037,9.9,3.182,9.927,3.561,9.958c0.551,0.045,1.019,0.272,1.559,0.389
			c0.871,0.188,2.542,0.1,3.391-0.25c0.464-0.191,0.484-0.78,0-0.965C6.774,8.471,5.677,6.63,4.465,5.291
			C4.146,4.938,3.649,5.245,3.611,5.645C3.533,6.465,3.615,7.289,3.489,8.107C3.433,8.465,3.343,8.826,3.54,9.164
			c0.494,0.843,2.494,0.643,3.243,0.623c0.405-0.011,0.588-0.41,0.432-0.752C6.773,8.068,5.657,7.502,5.09,6.566
			C4.821,6.122,4.192,6.333,4.158,6.818c-0.029,0.41-0.43,1.455-0.041,1.822C4.65,9.143,5.278,9.196,5.986,9.177
			c2.131-0.056,3.61,0.132,2.982-2.396C8.649,5.497,8.682,4.494,9.07,3.268c0.137-0.432,0.24-1.058-0.173-1.369
			C8.357,1.493,7.468,1.88,6.861,1.91C5.357,1.986,3.851,1.787,2.346,1.879C1.984,1.901,1.701,2.292,1.914,2.631
			c0.737,1.172,1.845,2.228,2.797,3.227C5.517,6.703,6.481,8.64,7.783,8.722c0.237,0.016,0.403-0.167,0.482-0.367
			c0.179-0.452,0.008-0.972-0.09-1.427c-0.265-1.236-0.327-3.03,0.152-4.245c0.158-0.401-0.391-0.809-0.734-0.564
			C6.588,2.833,4.681,2.456,3.533,2.473C3.192,2.478,2.86,2.909,3.102,3.225c0.458,0.6,0.966,1.128,1.497,1.666
			C5.1,5.399,6.314,6.716,6.582,7.419c0.234,0.613,1.052,0.367,0.965-0.266C7.363,5.821,7.361,4.606,7.471,3.27
			c0.021-0.249-0.244-0.531-0.5-0.5C6.079,2.878,5.197,2.911,4.299,2.926C3.832,2.934,3.678,3.451,3.945,3.779
			c0.56,0.689,1.361,1.058,1.844,1.868c0.33,0.553,1.194,0.05,0.863-0.505c-0.567-0.95-1.356-1.279-2-2.07
			C4.535,3.357,4.417,3.641,4.299,3.926c0.898-0.015,1.78-0.047,2.672-0.156c-0.167-0.167-0.333-0.333-0.5-0.5
			c-0.117,1.429-0.083,2.736,0.111,4.15c0.321-0.089,0.644-0.177,0.965-0.266C6.894,5.442,5.057,4.15,3.965,2.72
			C3.821,2.971,3.677,3.222,3.533,3.473c1.402-0.021,3.345,0.375,4.564-0.49C7.854,2.794,7.608,2.606,7.363,2.418
			c-0.317,0.805-0.25,1.686-0.342,2.539c-0.044,0.41-0.089,0.865-0.018,1.275c0.087,0.495,0.492,1.366,0.298,1.857
			c0.16-0.122,0.321-0.244,0.481-0.367C7.553,7.708,6.82,6.709,6.627,6.461C6.15,5.853,5.585,5.326,5.053,4.768
			C4.286,3.963,3.372,3.072,2.777,2.126C2.633,2.377,2.49,2.628,2.346,2.879C3.847,2.787,5.357,2.918,6.861,2.91
			C7.258,2.908,7.649,2.85,8.039,2.78c0.173-0.031-0.198,1.013-0.228,1.099C7.483,4.835,7.744,6.098,8.004,7.046
			c0.438,0.804,0.18,1.175-0.772,1.111c-0.415,0.004-0.83,0.011-1.245,0.02C4.868,8.198,5.099,7.662,5.158,6.818
			C4.848,6.902,4.537,6.986,4.227,7.07c0.553,0.914,1.699,1.537,2.125,2.469c0.144-0.25,0.288-0.501,0.432-0.752
			C5.864,8.81,4.332,9.157,4.532,7.86c0.112-0.726,0.009-1.482,0.079-2.215C4.327,5.762,4.042,5.88,3.758,5.999
			c1.394,1.539,2.478,3.333,4.486,4.099c0-0.321,0-0.644,0-0.965c-0.729,0.301-2.742,0.422-3.409,0.05
			C4.301,8.883,3.72,9.125,3.208,8.871c0.06,0.228,0.12,0.456,0.179,0.684c0.63-1.145,0.384-2.612,0.698-3.859
			C4.329,4.726,3.627,3.99,3.017,3.358C1.313,1.59,3.395,2.33,4.697,2.095C4.96,2.048,8.578,1.731,8.738,2.309
			c0.205-0.205,0.41-0.41,0.615-0.615C9.322,1.683,9.291,1.673,9.26,1.663C8.978,1.568,8.587,1.827,8.627,2.145
			c0.12,0.947-0.394,1.866-0.226,2.877c0.132,0.792,0.354,1.781,0.413,2.578C8.894,8.683,9.096,8.635,8.16,8.136
			c-1.432-0.765-2.256-2.25-3.432-3.298c-1.193-1.063-2.165-2.33-3.646-3.016C0.501,1.553-0.007,2.415,0.578,2.686L0.578,2.686z"/>
	</g>
</g>
<g>
	<g>
		<path fill="#FFFFFF" d="M5.664,4.225C5.711,4.327,5.747,4.433,5.77,4.543C5.936,5.166,6.9,4.901,6.734,4.277
			C6.683,4.083,6.607,3.904,6.527,3.72C6.271,3.13,5.41,3.64,5.664,4.225L5.664,4.225z"/>
	</g>
</g>
<g>
	<g>
		<path fill="#FFFFFF" d="M5.549,4.457c0.645,0,0.645-1,0-1S4.904,4.457,5.549,4.457L5.549,4.457z"/>
	</g>
</g>
<g>
	<g>
		<path fill="#FFFFFF" d="M1.439,3.785c0.645,0,0.645-1,0-1S0.794,3.785,1.439,3.785L1.439,3.785z"/>
	</g>
</g>
<g>
	<g>
		<path fill="#FFFFFF" d="M1.008,3.538c0.182,0.4,0.434,0.701,0.699,1.051C2.079,5.08,2.074,5.706,2.093,6.29
			c0.03,0.928-0.138,1.862-0.138,2.794c0.167-0.167,0.333-0.333,0.5-0.5c-1.132,0.12-0.69-1.087-0.547-1.701
			c0.153-0.657,0.251-1.297,0.25-1.972c0-0.645-0.991-0.645-1,0C1.141,6.134,1.115,7.359,1.111,8.583c-0.002,0.645,0.998,0.645,1,0
			c0.004-1.225,0.03-2.449,0.047-3.673c-0.333,0-0.667,0-1,0C1.16,6.446-0.416,9.888,2.455,9.583c0.271-0.028,0.5-0.206,0.5-0.5
			c0-1.177,0.192-2.343,0.099-3.519C2.968,4.487,2.292,3.956,1.871,3.033C1.604,2.447,0.742,2.956,1.008,3.538L1.008,3.538z"/>
	</g>
</g>
<use xlink:href="#Route_x5F_Marker_x5F_National_x5F_1Q119P002"  width="10.641" height="10.834" x="-5.32" y="-5.417" transform="matrix(1 0 0 -1 5.3198 5.5981)" overflow="visible"/>
</svg>
