<?xml version="1.0" encoding="utf-8"?>
<!-- Generator: Adobe Illustrator 14.0.0, SVG Export Plug-In  -->
<!DOCTYPE svg PUBLIC "-//W3C//DTD SVG 1.1//EN" "http://www.w3.org/Graphics/SVG/1.1/DTD/svg11.dtd" [
	<!ENTITY ns_flows "http://ns.adobe.com/Flows/1.0/">
]>
<svg version="1.1"
	 xmlns="http://www.w3.org/2000/svg" xmlns:xlink="http://www.w3.org/1999/xlink" xmlns:a="http://ns.adobe.com/AdobeSVGViewerExtensions/3.0/"
	 x="0px" y="0px" width="5px" height="5px" viewBox="-0.708 -0.375 5 5" enable-background="new -0.708 -0.375 5 5"
	 xml:space="preserve">
<defs>
	<symbol  id="Castle" viewBox="-2.126 -2.126 4.251 4.251">
		
			<use xlink:href="#Deleted_Symbol"  width="4.252" height="4.252" id="XMLID_3_" x="-2.126" y="-2.126" transform="matrix(0.9998 0 0 0.9998 0 0)" overflow="visible"/>
	</symbol>
	<symbol  id="Deleted_Symbol" viewBox="-2.126 -2.126 4.252 4.252">
		<path d="M2.126,0.573v1.553h-1.56V1.543h-1.133v0.583h-1.56V0.573h0.592v-1.147h-0.592v-1.552h1.56v0.588h1.133v-0.588h1.56v1.552
			H1.528v1.147H2.126z M1.157-0.574H0.566v-0.588h-1.133v0.588h-0.597v1.147h0.597v0.594h1.133V0.573h0.591V-0.574z"/>
	</symbol>
</defs>
<rect x="0.729" y="0.704" fill="#FFFFFF" width="2.703" height="2.719"/>
<use xlink:href="#Castle"  width="4.251" height="4.251" x="-2.126" y="-2.126" transform="matrix(1 0 0 -1 2.126 2.1255)" overflow="visible"/>
</svg>
