<?xml version="1.0" encoding="utf-8"?>
<!-- Generator: Adobe Illustrator 14.0.0, SVG Export Plug-In . SVG Version: 6.00 Build 43363)  -->
<!DOCTYPE svg PUBLIC "-//W3C//DTD SVG 1.1//EN" "http://www.w3.org/Graphics/SVG/1.1/DTD/svg11.dtd" [
	<!ENTITY ns_flows "http://ns.adobe.com/Flows/1.0/">
	<!ENTITY ns_extend "http://ns.adobe.com/Extensibility/1.0/">
	<!ENTITY ns_ai "http://ns.adobe.com/AdobeIllustrator/10.0/">
	<!ENTITY ns_graphs "http://ns.adobe.com/Graphs/1.0/">
]>
<svg version="1.1" id="Layer_1" xmlns:x="&ns_extend;" xmlns:i="&ns_ai;" xmlns:graph="&ns_graphs;"
	 xmlns="http://www.w3.org/2000/svg" xmlns:xlink="http://www.w3.org/1999/xlink" xmlns:a="http://ns.adobe.com/AdobeSVGViewerExtensions/3.0/"
	 x="0px" y="0px" width="8.045px" height="10.521px" viewBox="0 0 8.045 10.521" enable-background="new 0 0 8.045 10.521"
	 xml:space="preserve">
<g>
	<path fill="#28166F" d="M4.054,10.52c0.771-0.014,0.653-1.252-0.114-1.129C3.251,9.5,3.349,10.555,4.054,10.52"/>
	<path fill="#28166F" d="M2.999,9c-0.506,0.291-2.633,2.02-2.971,1.285c-0.186-0.404,0.604-0.934,0.824-1.204
		c0.293-0.36,0.553-0.772,0.801-1.165c1.246-1.98,1.67-4.219,1.653-6.515c-0.003-0.474-0.079-1.229,0.61-1.328
		c1.051-0.149,0.818,1.269,0.809,1.866C4.702,3.447,5.022,5.095,5.665,6.492C6.041,7.309,6.46,8.099,7.007,8.814
		c0.168,0.218,1.561,1.428,0.825,1.654c-0.643,0.198-1.75-0.795-2.337-1.244C4.349,8.349,3.878,8.33,2.999,9"/>
</g>
</svg>
