<?xml version="1.0" encoding="utf-8"?>
<!-- Generator: Adobe Illustrator 14.0.0, SVG Export Plug-In  -->
<!DOCTYPE svg PUBLIC "-//W3C//DTD SVG 1.1//EN" "http://www.w3.org/Graphics/SVG/1.1/DTD/svg11.dtd" [
	<!ENTITY ns_flows "http://ns.adobe.com/Flows/1.0/">
]>
<svg version="1.1"
	 xmlns="http://www.w3.org/2000/svg" xmlns:xlink="http://www.w3.org/1999/xlink" xmlns:a="http://ns.adobe.com/AdobeSVGViewerExtensions/3.0/"
	 x="0px" y="0px" width="5px" height="11px" viewBox="-0.313 -0.285 5 11" enable-background="new -0.313 -0.285 5 11"
	 xml:space="preserve">
<defs>
	<symbol  id="Deleted_Symbol" viewBox="-2.126 -2.126 4.252 4.252">
		<path d="M2.126,0.573v1.553h-1.56V1.543h-1.133v0.583h-1.56V0.573h0.592v-1.147h-0.592v-1.552h1.56v0.588h1.133v-0.588h1.56v1.552
			H1.528v1.147H2.126z M1.157-0.574H0.566v-0.588h-1.133v0.588h-0.597v1.147h0.597v0.594h1.133V0.573h0.591V-0.574z"/>
	</symbol>
	<symbol  id="Deleted_Symbol_1" viewBox="-0.835 -3.25 1.671 6.501">
		<polygon points="0.625,2.878 0.797,3.251 0.797,3.251 0.792,3.114 0.81,3.004 0.819,2.895 0.81,2.758 0.732,2.566 0.717,2.507 
			0.717,2.427 0.75,2.274 0.788,2.117 0.819,2.023 0.835,1.933 0.835,1.821 0.81,1.706 0.701,1.436 0.651,1.333 0.548,1.203 
			0.458,1.109 0.321,1.018 0.176,0.963 0.041,0.937 -0.029,0.933 -0.029,0.933 -0.041,1.134 -0.041,1.134 0.015,1.138 0.11,1.153 
			0.213,1.193 0.312,1.26 0.381,1.33 0.462,1.436 0.5,1.511 0.604,1.761 0.62,1.841 0.62,1.918 0.607,1.979 0.577,2.069 
			0.539,2.234 0.5,2.406 0.5,2.531 0.527,2.627 		"/>
		<polygon points="-0.029,0.933 -0.212,0.943 -0.327,0.966 -0.587,1.083 -0.689,1.163 -0.76,1.244 -0.804,1.324 -0.819,1.395 
			-0.835,1.48 -0.835,1.604 -0.78,1.781 -0.63,2.014 -0.474,2.214 -0.321,2.366 -0.187,2.526 -0.1,2.633 0.003,2.724 0.272,2.918 
			0.539,3.101 0.797,3.251 0.797,3.251 0.625,2.878 0.625,2.878 0.436,2.779 0.402,2.758 0.144,2.571 0.063,2.494 -0.014,2.406 
			-0.16,2.234 -0.306,2.091 -0.452,1.902 -0.582,1.701 -0.619,1.576 -0.619,1.501 -0.607,1.436 -0.598,1.391 -0.576,1.354 
			-0.533,1.306 -0.468,1.253 -0.256,1.159 -0.175,1.138 -0.041,1.134 -0.041,1.134 		"/>
		<path d="M-0.078-3.004c0.247,0,0.43-0.1,0.551-0.246v3.779l-0.26,0.243h-0.54l-0.261-0.243v-3.741
			C-0.467-3.089-0.301-3.004-0.078-3.004z"/>
	</symbol>
	<symbol  id="flarepipe1" viewBox="-2.126 -4.953 4.252 9.907">
		<polygon points="0.456,-4.387 0.456,-4.397 0.456,-4.406 0.455,-4.417 0.455,-4.426 0.454,-4.438 0.453,-4.446 0.452,-4.455 
			0.451,-4.466 0.449,-4.475 0.447,-4.486 0.445,-4.495 0.443,-4.504 0.441,-4.515 0.439,-4.523 0.437,-4.533 0.434,-4.543 
			0.431,-4.553 0.428,-4.563 0.425,-4.572 0.421,-4.581 0.418,-4.59 0.415,-4.6 0.411,-4.609 0.407,-4.618 0.403,-4.626 
			0.398,-4.635 0.395,-4.645 0.39,-4.654 0.385,-4.662 0.38,-4.671 0.375,-4.679 0.37,-4.687 0.365,-4.695 0.359,-4.704 
			0.354,-4.712 0.347,-4.72 0.341,-4.728 0.335,-4.735 0.33,-4.744 0.323,-4.752 0.317,-4.76 0.311,-4.766 0.304,-4.773 
			0.296,-4.78 0.29,-4.787 0.283,-4.795 0.275,-4.802 0.268,-4.809 0.261,-4.814 0.253,-4.821 0.246,-4.826 0.238,-4.834 
			0.23,-4.84 0.223,-4.846 0.214,-4.851 0.206,-4.857 0.198,-4.862 0.189,-4.867 0.181,-4.873 0.172,-4.879 0.164,-4.883 
			0.155,-4.888 0.146,-4.892 0.137,-4.896 0.128,-4.9 0.119,-4.904 0.111,-4.908 0.102,-4.912 0.092,-4.916 0.083,-4.92 
			0.074,-4.924 0.064,-4.926 0.055,-4.929 0.045,-4.932 0.035,-4.934 0.026,-4.937 0.016,-4.939 0.007,-4.941 -0.003,-4.943 
			-0.013,-4.945 -0.022,-4.947 -0.032,-4.948 -0.042,-4.949 -0.052,-4.951 -0.062,-4.951 -0.072,-4.952 -0.082,-4.952 
			-0.092,-4.953 -0.102,-4.953 -0.111,-4.953 -0.121,-4.953 -0.131,-4.953 -0.141,-4.952 -0.15,-4.952 -0.16,-4.951 -0.17,-4.951 
			-0.18,-4.949 -0.19,-4.948 -0.2,-4.947 -0.21,-4.945 -0.219,-4.943 -0.229,-4.941 -0.239,-4.939 -0.248,-4.937 -0.258,-4.934 
			-0.268,-4.932 -0.277,-4.929 -0.287,-4.926 -0.296,-4.924 -0.305,-4.92 -0.314,-4.916 -0.324,-4.912 -0.333,-4.908 -0.342,-4.904 
			-0.351,-4.9 -0.36,-4.896 -0.369,-4.892 -0.377,-4.888 -0.386,-4.883 -0.395,-4.879 -0.403,-4.873 -0.412,-4.867 -0.42,-4.862 
			-0.428,-4.857 -0.437,-4.851 -0.445,-4.846 -0.453,-4.84 -0.46,-4.834 -0.468,-4.826 -0.476,-4.821 -0.483,-4.814 -0.491,-4.809 
			-0.498,-4.802 -0.505,-4.795 -0.512,-4.787 -0.52,-4.78 -0.526,-4.773 -0.533,-4.766 -0.539,-4.76 -0.546,-4.752 -0.552,-4.744 
			-0.558,-4.735 -0.564,-4.728 -0.57,-4.72 -0.576,-4.712 -0.582,-4.704 -0.587,-4.695 -0.592,-4.687 -0.597,-4.679 -0.602,-4.671 
			-0.607,-4.662 -0.612,-4.654 -0.617,-4.645 -0.621,-4.635 -0.625,-4.626 -0.629,-4.618 -0.633,-4.609 -0.637,-4.6 -0.64,-4.59 
			-0.644,-4.581 -0.647,-4.572 -0.65,-4.563 -0.653,-4.553 -0.656,-4.543 -0.659,-4.533 -0.662,-4.523 -0.664,-4.515 -0.666,-4.504 
			-0.668,-4.495 -0.669,-4.486 -0.671,-4.475 -0.673,-4.466 -0.674,-4.455 -0.675,-4.446 -0.676,-4.438 -0.677,-4.426 
			-0.677,-4.417 -0.678,-4.406 -0.678,-4.397 -0.678,-4.387 -0.678,-4.377 -0.678,-4.367 -0.677,-4.357 -0.677,-4.348 
			-0.676,-4.338 -0.675,-4.327 -0.674,-4.318 -0.673,-4.308 -0.671,-4.299 -0.669,-4.289 -0.668,-4.278 -0.666,-4.27 -0.664,-4.26 
			-0.662,-4.249 -0.659,-4.24 -0.656,-4.23 -0.653,-4.222 -0.65,-4.213 -0.647,-4.203 -0.644,-4.192 -0.64,-4.184 -0.637,-4.176 
			-0.633,-4.166 -0.629,-4.156 -0.625,-4.147 -0.621,-4.139 -0.617,-4.129 -0.612,-4.121 -0.607,-4.111 -0.602,-4.104 
			-0.597,-4.095 -0.592,-4.087 -0.587,-4.078 -0.582,-4.069 -0.576,-4.062 -0.57,-4.054 -0.564,-4.046 -0.558,-4.037 -0.552,-4.029 
			-0.546,-4.021 -0.539,-4.016 -0.533,-4.008 -0.526,-4.001 -0.52,-3.992 -0.512,-3.986 -0.505,-3.979 -0.498,-3.973 -0.491,-3.965 
			-0.483,-3.959 -0.476,-3.953 -0.468,-3.947 -0.46,-3.939 -0.453,-3.935 -0.445,-3.928 -0.437,-3.923 -0.428,-3.918 -0.42,-3.911 
			-0.412,-3.906 -0.403,-3.902 -0.395,-3.896 -0.386,-3.891 -0.377,-3.887 -0.369,-3.882 -0.36,-3.878 -0.351,-3.873 -0.342,-3.869 
			-0.333,-3.865 -0.324,-3.862 -0.314,-3.857 -0.305,-3.854 -0.296,-3.852 -0.287,-3.848 -0.277,-3.845 -0.268,-3.842 -0.258,-3.84 
			-0.248,-3.837 -0.239,-3.834 -0.229,-3.833 -0.219,-3.83 -0.21,-3.829 -0.2,-3.828 -0.19,-3.825 -0.18,-3.824 -0.17,-3.824 
			-0.16,-3.822 -0.15,-3.821 -0.141,-3.821 -0.131,-3.821 -0.121,-3.82 -0.111,-3.82 -0.102,-3.82 -0.092,-3.821 -0.082,-3.821 
			-0.072,-3.821 -0.062,-3.822 -0.052,-3.824 -0.042,-3.824 -0.032,-3.825 -0.022,-3.828 -0.013,-3.829 -0.003,-3.83 0.007,-3.833 
			0.016,-3.834 0.026,-3.837 0.035,-3.84 0.045,-3.842 0.055,-3.845 0.064,-3.848 0.074,-3.852 0.083,-3.854 0.092,-3.857 
			0.102,-3.862 0.111,-3.865 0.119,-3.869 0.128,-3.873 0.137,-3.878 0.146,-3.882 0.155,-3.887 0.164,-3.891 0.172,-3.896 
			0.181,-3.902 0.189,-3.906 0.198,-3.911 0.206,-3.918 0.214,-3.923 0.223,-3.928 0.23,-3.935 0.238,-3.939 0.246,-3.947 
			0.253,-3.953 0.261,-3.959 0.268,-3.965 0.275,-3.973 0.283,-3.979 0.29,-3.986 0.296,-3.992 0.304,-4.001 0.311,-4.008 
			0.317,-4.016 0.323,-4.021 0.33,-4.029 0.335,-4.037 0.341,-4.046 0.347,-4.054 0.354,-4.062 0.359,-4.069 0.365,-4.078 
			0.37,-4.087 0.375,-4.095 0.38,-4.104 0.385,-4.111 0.39,-4.121 0.395,-4.129 0.398,-4.139 0.403,-4.147 0.407,-4.156 
			0.411,-4.166 0.415,-4.176 0.418,-4.184 0.421,-4.192 0.425,-4.203 0.428,-4.213 0.431,-4.222 0.434,-4.23 0.437,-4.24 
			0.439,-4.249 0.441,-4.26 0.443,-4.27 0.445,-4.278 0.447,-4.289 0.449,-4.299 0.451,-4.308 0.452,-4.318 0.453,-4.327 
			0.454,-4.338 0.455,-4.348 0.455,-4.357 0.456,-4.367 0.456,-4.377 		"/>
		<g>
			
				<use xlink:href="#Deleted_Symbol_1"  width="1.671" height="6.501" id="XMLID_7_" x="-0.835" y="-3.25" transform="matrix(1.499 0 0 1.308 -0.0039 0.7012)" overflow="visible"/>
			<polygon points="-1.833,-3.181 -2.126,-3.181 -2.126,-3.551 2.126,-3.551 2.126,-3.181 			"/>
		</g>
	</symbol>
</defs>
<path fill="#FFFFFF" d="M2.908,0.945c0.077-0.086,0.148-0.176,0.237-0.256c0.24-0.216-0.114-0.568-0.354-0.354
	C2.611,0.498,2.464,0.683,2.326,0.875c-0.018,0.007-0.027,0.02-0.042,0.029C2.2,0.935,2.148,0.995,2.134,1.076
	C2.107,1.081,2.08,1.083,2.058,1.101C2.03,1.123,2.016,1.157,1.989,1.18C1.885,1.296,1.659,1.346,1.54,1.451
	C1.353,1.619,1.222,1.813,1.132,2.047C0.968,2.472,1.393,2.75,1.746,2.8C1.773,2.804,1.798,2.792,1.824,2.79
	c0.287,0.106,0.603,0.106,0.899-0.091c0.568-0.376,0.48-1.01,0.346-1.597C3.051,1.021,2.983,0.972,2.908,0.945z"/>
<use xlink:href="#flarepipe1"  width="4.252" height="9.907" x="-2.126" y="-4.953" transform="matrix(1 0 0 -1 2.126 4.9536)" overflow="visible"/>
</svg>
