<?xml version="1.0" encoding="utf-8"?>
<!-- Generator: Adobe Illustrator 14.0.0, SVG Export Plug-In  -->
<!DOCTYPE svg PUBLIC "-//W3C//DTD SVG 1.1//EN" "http://www.w3.org/Graphics/SVG/1.1/DTD/svg11.dtd" [
	<!ENTITY ns_flows "http://ns.adobe.com/Flows/1.0/">
]>
<svg version="1.1"
	 xmlns="http://www.w3.org/2000/svg" xmlns:xlink="http://www.w3.org/1999/xlink" xmlns:a="http://ns.adobe.com/AdobeSVGViewerExtensions/3.0/"
	 x="0px" y="0px" width="8px" height="6px" viewBox="-0.051 -0.919 8 6" enable-background="new -0.051 -0.919 8 6"
	 xml:space="preserve">
<defs>
	<symbol  id="Deleted_Symbol" viewBox="-2.126 -2.126 4.252 4.252">
		<path d="M2.126,0.573v1.553h-1.56V1.543h-1.133v0.583h-1.56V0.573h0.592v-1.147h-0.592v-1.552h1.56v0.588h1.133v-0.588h1.56v1.552
			H1.528v1.147H2.126z M1.157-0.574H0.566v-0.588h-1.133v0.588h-0.597v1.147h0.597v0.594h1.133V0.573h0.591V-0.574z"/>
	</symbol>
	<symbol  id="Deleted_Symbol_1" viewBox="-0.835 -3.25 1.671 6.501">
		<polygon points="0.625,2.878 0.797,3.251 0.797,3.251 0.792,3.114 0.81,3.004 0.819,2.895 0.81,2.758 0.732,2.566 0.717,2.507 
			0.717,2.427 0.75,2.274 0.788,2.117 0.819,2.023 0.835,1.933 0.835,1.821 0.81,1.706 0.701,1.436 0.651,1.333 0.548,1.203 
			0.458,1.109 0.321,1.018 0.176,0.963 0.041,0.937 -0.029,0.933 -0.029,0.933 -0.041,1.134 -0.041,1.134 0.015,1.138 0.11,1.153 
			0.213,1.193 0.312,1.26 0.381,1.33 0.462,1.436 0.5,1.511 0.604,1.761 0.62,1.841 0.62,1.918 0.607,1.979 0.577,2.069 
			0.539,2.234 0.5,2.406 0.5,2.531 0.527,2.627 		"/>
		<polygon points="-0.029,0.933 -0.212,0.943 -0.327,0.966 -0.587,1.083 -0.689,1.163 -0.76,1.244 -0.804,1.324 -0.819,1.395 
			-0.835,1.48 -0.835,1.604 -0.78,1.781 -0.63,2.014 -0.474,2.214 -0.321,2.366 -0.187,2.526 -0.1,2.633 0.003,2.724 0.272,2.918 
			0.539,3.101 0.797,3.251 0.797,3.251 0.625,2.878 0.625,2.878 0.436,2.779 0.402,2.758 0.144,2.571 0.063,2.494 -0.014,2.406 
			-0.16,2.234 -0.306,2.091 -0.452,1.902 -0.582,1.701 -0.619,1.576 -0.619,1.501 -0.607,1.436 -0.598,1.391 -0.576,1.354 
			-0.533,1.306 -0.468,1.253 -0.256,1.159 -0.175,1.138 -0.041,1.134 -0.041,1.134 		"/>
		<path d="M-0.078-3.004c0.247,0,0.43-0.1,0.551-0.246v3.779l-0.26,0.243h-0.54l-0.261-0.243v-3.741
			C-0.467-3.089-0.301-3.004-0.078-3.004z"/>
	</symbol>
	
		<pattern  x="-351.051" y="367.081" width="9.625" height="9.625" patternUnits="userSpaceOnUse" id="lp_x5F_15_x5F_000_x5F_58600" viewBox="0 -9.625 9.625 9.625" overflow="visible">
		<g>
			<polygon fill="none" points="0,0 9.625,0 9.625,-9.625 0,-9.625 			"/>
			<polygon fill="#FFFFFF" points="0,-9.625 9.625,-9.625 9.625,0 0,0 			"/>
			<g>
				<polygon points="9.625,-2.807 6.818,0 7.619,0 9.625,-2.006 				"/>
			</g>
			<g>
				<polygon points="9.625,-0.4 9.224,0 9.625,0 				"/>
			</g>
			<g>
				<polygon points="0,-9.625 0,-9.225 0.401,-9.625 				"/>
			</g>
			<g>
				<polygon points="2.007,-9.625 0,-7.619 0,-6.818 2.808,-9.625 				"/>
			</g>
			<polygon points="5.214,-9.625 4.813,-9.625 4.412,-9.625 0,-5.213 0,-4.813 0,-4.412 0.4,-4.813 			"/>
			<polygon points="7.62,-9.625 6.819,-9.625 0,-2.807 0,-2.006 			"/>
			<polygon points="9.625,-9.625 9.225,-9.625 0,-0.4 0,0 0.4,0 9.625,-9.225 			"/>
			<polygon points="9.625,-7.619 2.006,0 2.807,0 9.625,-6.818 			"/>
			<polygon points="4.411,0 4.813,0 5.213,0 9.625,-4.412 9.625,-4.813 9.625,-5.213 			"/>
		</g>
	</pattern>
</defs>
<rect x="0.283" y="0.283" fill="#FFFFFF" width="6.354" height="3.685"/>
<rect x="0.283" y="0.283" fill="url(#lp_x5F_15_x5F_000_x5F_58600)" stroke="#000000" stroke-width="0.5669" width="6.52" height="3.685"/>
</svg>
