<?xml version="1.0" encoding="utf-8"?>
<!-- Generator: Adobe Illustrator 14.0.0, SVG Export Plug-In  -->
<!DOCTYPE svg PUBLIC "-//W3C//DTD SVG 1.1//EN" "http://www.w3.org/Graphics/SVG/1.1/DTD/svg11.dtd" [
	<!ENTITY ns_flows "http://ns.adobe.com/Flows/1.0/">
]>
<svg version="1.1"
	 xmlns="http://www.w3.org/2000/svg" xmlns:xlink="http://www.w3.org/1999/xlink" xmlns:a="http://ns.adobe.com/AdobeSVGViewerExtensions/3.0/"
	 x="0px" y="0px" width="2px" height="7px" viewBox="-0.01 -0.413 2 7" enable-background="new -0.01 -0.413 2 7"
	 xml:space="preserve">
<defs>
</defs>
<path fill="#00AEEF" d="M0.837,0.348c0,0.085,0.002,0.168,0.003,0.248c0.008,0.331,0.014,0.591-0.1,0.826
	c-0.053,0.11-0.152,0.216-0.256,0.33C0.27,1.983-0.023,2.298,0.002,2.832c0.022,0.496,0.26,0.784,0.451,1.016
	c0.15,0.185,0.306,0.328,0.339,0.562c0.029,0.208,0.087,0.861,0.087,0.861c-0.005,0.192,0.02,0.585,0.133,0.602
	C1.063,5.88,1.186,5.554,1.19,5.362c0,0,0.161-0.832,0.128-1.026c-0.074-0.437-0.293-0.77-0.467-0.982
	C0.676,3.141,0.578,3.011,0.568,2.792C0.559,2.616,0.65,2.5,0.857,2.274c0.127-0.136,0.271-0.292,0.371-0.498
	c0.195-0.408,0.187-0.811,0.179-1.199c-0.002-0.076-0.003-0.154-0.003-0.23l0,0C1.404,0.156,1.277,0,1.121,0
	C0.964,0,0.837,0.156,0.837,0.348L0.837,0.348z"/>
</svg>
