<?xml version="1.0" encoding="utf-8"?>
<!-- Generator: Adobe Illustrator 14.0.0, SVG Export Plug-In  -->
<!DOCTYPE svg PUBLIC "-//W3C//DTD SVG 1.1//EN" "http://www.w3.org/Graphics/SVG/1.1/DTD/svg11.dtd" [
	<!ENTITY ns_flows "http://ns.adobe.com/Flows/1.0/">
]>
<svg version="1.1"
	 xmlns="http://www.w3.org/2000/svg" xmlns:xlink="http://www.w3.org/1999/xlink" xmlns:a="http://ns.adobe.com/AdobeSVGViewerExtensions/3.0/"
	 x="0px" y="0px" width="50px" height="100px" viewBox="-0.313 -0.063 5 10" enable-background="new -0.313 -0.063 5 10"
	 xml:space="preserve">
<defs>
	<symbol  id="Deleted_Symbol" viewBox="-2.126 -2.126 4.252 4.252">
		<path d="M2.126,0.573v1.553h-1.56V1.543h-1.133v0.583h-1.56V0.573h0.592v-1.147h-0.592v-1.552h1.56v0.588h1.133v-0.588h1.56v1.552
			H1.528v1.147H2.126z M1.157-0.574H0.566v-0.588h-1.133v0.588h-0.597v1.147h0.597v0.594h1.133V0.573h0.591V-0.574z"/>
	</symbol>
	<symbol  id="Deleted_Symbol_1" viewBox="-0.835 -3.25 1.671 6.501">
		<polygon points="0.625,2.878 0.797,3.251 0.797,3.251 0.792,3.114 0.81,3.004 0.819,2.895 0.81,2.758 0.732,2.566 0.717,2.507 
			0.717,2.427 0.75,2.274 0.788,2.117 0.819,2.023 0.835,1.933 0.835,1.821 0.81,1.706 0.701,1.436 0.651,1.333 0.548,1.203 
			0.458,1.109 0.321,1.018 0.176,0.963 0.041,0.937 -0.029,0.933 -0.029,0.933 -0.041,1.134 -0.041,1.134 0.015,1.138 0.11,1.153 
			0.213,1.193 0.312,1.26 0.381,1.33 0.462,1.436 0.5,1.511 0.604,1.761 0.62,1.841 0.62,1.918 0.607,1.979 0.577,2.069 
			0.539,2.234 0.5,2.406 0.5,2.531 0.527,2.627 		"/>
		<polygon points="-0.029,0.933 -0.212,0.943 -0.327,0.966 -0.587,1.083 -0.689,1.163 -0.76,1.244 -0.804,1.324 -0.819,1.395 
			-0.835,1.48 -0.835,1.604 -0.78,1.781 -0.63,2.014 -0.474,2.214 -0.321,2.366 -0.187,2.526 -0.1,2.633 0.003,2.724 0.272,2.918 
			0.539,3.101 0.797,3.251 0.797,3.251 0.625,2.878 0.625,2.878 0.436,2.779 0.402,2.758 0.144,2.571 0.063,2.494 -0.014,2.406 
			-0.16,2.234 -0.306,2.091 -0.452,1.902 -0.582,1.701 -0.619,1.576 -0.619,1.501 -0.607,1.436 -0.598,1.391 -0.576,1.354 
			-0.533,1.306 -0.468,1.253 -0.256,1.159 -0.175,1.138 -0.041,1.134 -0.041,1.134 		"/>
		<path d="M-0.078-3.004c0.247,0,0.43-0.1,0.551-0.246v3.779l-0.26,0.243h-0.54l-0.261-0.243v-3.741
			C-0.467-3.089-0.301-3.004-0.078-3.004z"/>
	</symbol>
	<symbol  id="water_tower_1" viewBox="-2.126 -4.942 4.252 9.883">
		<g>
			<polygon fill="#00AEEF" points="0.547,-4.375 0.547,-4.386 0.547,-4.396 0.546,-4.405 0.545,-4.414 0.544,-4.425 0.543,-4.435 
				0.542,-4.444 0.542,-4.454 0.54,-4.464 0.538,-4.474 0.536,-4.483 0.534,-4.493 0.532,-4.503 0.53,-4.513 0.527,-4.521 
				0.525,-4.53 0.522,-4.541 0.519,-4.551 0.516,-4.561 0.512,-4.569 0.509,-4.578 0.506,-4.588 0.501,-4.598 0.498,-4.606 
				0.494,-4.614 0.489,-4.624 0.485,-4.633 0.48,-4.643 0.476,-4.649 0.471,-4.659 0.466,-4.667 0.461,-4.675 0.456,-4.684 
				0.45,-4.692 0.444,-4.7 0.438,-4.708 0.432,-4.716 0.426,-4.724 0.42,-4.731 0.414,-4.74 0.408,-4.748 0.401,-4.754 
				0.395,-4.763 0.387,-4.769 0.381,-4.775 0.374,-4.783 0.366,-4.79 0.359,-4.797 0.352,-4.803 0.344,-4.81 0.336,-4.814 
				0.329,-4.822 0.321,-4.828 0.313,-4.834 0.305,-4.839 0.297,-4.845 0.289,-4.851 0.28,-4.856 0.271,-4.861 0.263,-4.867 
				0.254,-4.871 0.246,-4.876 0.237,-4.88 0.228,-4.885 0.219,-4.889 0.21,-4.894 0.202,-4.896 0.192,-4.901 0.183,-4.905 
				0.174,-4.907 0.165,-4.911 0.155,-4.914 0.146,-4.917 0.136,-4.919 0.126,-4.922 0.117,-4.925 0.107,-4.928 0.098,-4.931 
				0.088,-4.931 0.078,-4.934 0.069,-4.936 0.059,-4.937 0.049,-4.938 0.039,-4.939 0.029,-4.939 0.019,-4.94 0.009,-4.94 
				-0.001,-4.941 -0.011,-4.941 -0.021,-4.941 -0.03,-4.941 -0.041,-4.941 -0.05,-4.94 -0.06,-4.94 -0.069,-4.939 -0.08,-4.939 
				-0.089,-4.938 -0.099,-4.937 -0.109,-4.936 -0.119,-4.934 -0.128,-4.931 -0.138,-4.931 -0.148,-4.928 -0.157,-4.925 
				-0.167,-4.922 -0.177,-4.919 -0.186,-4.917 -0.196,-4.914 -0.205,-4.911 -0.214,-4.907 -0.224,-4.905 -0.233,-4.901 
				-0.242,-4.896 -0.251,-4.894 -0.26,-4.889 -0.269,-4.885 -0.278,-4.88 -0.286,-4.876 -0.295,-4.871 -0.304,-4.867 -0.312,-4.861 
				-0.321,-4.856 -0.33,-4.851 -0.337,-4.845 -0.346,-4.839 -0.354,-4.834 -0.362,-4.828 -0.37,-4.822 -0.377,-4.814 -0.385,-4.81 
				-0.392,-4.803 -0.4,-4.797 -0.407,-4.79 -0.414,-4.783 -0.421,-4.775 -0.429,-4.769 -0.435,-4.763 -0.442,-4.754 -0.448,-4.748 
				-0.455,-4.74 -0.461,-4.731 -0.467,-4.724 -0.474,-4.716 -0.479,-4.708 -0.485,-4.7 -0.491,-4.692 -0.496,-4.684 -0.501,-4.675 
				-0.506,-4.667 -0.511,-4.659 -0.517,-4.649 -0.521,-4.643 -0.526,-4.633 -0.53,-4.624 -0.534,-4.614 -0.538,-4.606 
				-0.542,-4.598 -0.546,-4.588 -0.549,-4.578 -0.553,-4.569 -0.557,-4.561 -0.56,-4.551 -0.563,-4.541 -0.565,-4.53 -0.568,-4.521 
				-0.571,-4.513 -0.573,-4.503 -0.575,-4.493 -0.577,-4.483 -0.579,-4.474 -0.581,-4.464 -0.582,-4.454 -0.583,-4.444 
				-0.584,-4.435 -0.585,-4.425 -0.586,-4.414 -0.586,-4.405 -0.587,-4.396 -0.587,-4.386 -0.587,-4.375 -0.587,-4.365 
				-0.587,-4.354 -0.586,-4.346 -0.586,-4.336 -0.585,-4.326 -0.584,-4.315 -0.583,-4.306 -0.582,-4.296 -0.581,-4.286 
				-0.579,-4.277 -0.577,-4.267 -0.575,-4.257 -0.573,-4.248 -0.571,-4.237 -0.568,-4.229 -0.565,-4.22 -0.563,-4.21 -0.56,-4.2 
				-0.557,-4.191 -0.553,-4.181 -0.549,-4.172 -0.546,-4.163 -0.542,-4.154 -0.538,-4.146 -0.534,-4.136 -0.53,-4.126 
				-0.526,-4.117 -0.521,-4.109 -0.517,-4.101 -0.511,-4.093 -0.506,-4.083 -0.501,-4.075 -0.496,-4.066 -0.491,-4.058 
				-0.485,-4.05 -0.479,-4.042 -0.474,-4.034 -0.467,-4.026 -0.461,-4.019 -0.455,-4.01 -0.448,-4.004 -0.442,-3.996 -0.435,-3.989 
				-0.429,-3.981 -0.421,-3.975 -0.414,-3.968 -0.407,-3.962 -0.4,-3.953 -0.392,-3.947 -0.385,-3.941 -0.377,-3.936 -0.37,-3.928 
				-0.362,-3.923 -0.354,-3.916 -0.346,-3.911 -0.337,-3.905 -0.33,-3.899 -0.321,-3.894 -0.312,-3.891 -0.304,-3.885 
				-0.295,-3.879 -0.286,-3.876 -0.278,-3.87 -0.269,-3.866 -0.26,-3.861 -0.251,-3.856 -0.242,-3.854 -0.233,-3.851 -0.224,-3.846 
				-0.214,-3.843 -0.205,-3.84 -0.196,-3.836 -0.186,-3.833 -0.177,-3.831 -0.167,-3.828 -0.157,-3.825 -0.148,-3.822 
				-0.138,-3.821 -0.128,-3.819 -0.119,-3.817 -0.109,-3.816 -0.099,-3.813 -0.089,-3.812 -0.08,-3.812 -0.069,-3.811 -0.06,-3.81 
				-0.05,-3.81 -0.041,-3.81 -0.03,-3.809 -0.021,-3.809 -0.011,-3.809 -0.001,-3.81 0.009,-3.81 0.019,-3.81 0.029,-3.811 
				0.039,-3.812 0.049,-3.812 0.059,-3.813 0.069,-3.816 0.078,-3.817 0.088,-3.819 0.098,-3.821 0.107,-3.822 0.117,-3.825 
				0.126,-3.828 0.136,-3.831 0.146,-3.833 0.155,-3.836 0.165,-3.84 0.174,-3.843 0.183,-3.846 0.192,-3.851 0.202,-3.854 
				0.21,-3.856 0.219,-3.861 0.228,-3.866 0.237,-3.87 0.246,-3.876 0.254,-3.879 0.263,-3.885 0.271,-3.891 0.28,-3.894 
				0.289,-3.899 0.297,-3.905 0.305,-3.911 0.313,-3.916 0.321,-3.923 0.329,-3.928 0.336,-3.936 0.344,-3.941 0.352,-3.947 
				0.359,-3.953 0.366,-3.962 0.374,-3.968 0.381,-3.975 0.387,-3.981 0.395,-3.989 0.401,-3.996 0.408,-4.004 0.414,-4.01 
				0.42,-4.019 0.426,-4.026 0.432,-4.034 0.438,-4.042 0.444,-4.05 0.45,-4.058 0.456,-4.066 0.461,-4.075 0.466,-4.083 
				0.471,-4.093 0.476,-4.101 0.48,-4.109 0.485,-4.117 0.489,-4.126 0.494,-4.136 0.498,-4.146 0.501,-4.154 0.506,-4.163 
				0.509,-4.172 0.512,-4.181 0.516,-4.191 0.519,-4.2 0.522,-4.21 0.525,-4.22 0.527,-4.229 0.53,-4.237 0.532,-4.248 
				0.534,-4.257 0.536,-4.267 0.538,-4.277 0.54,-4.286 0.542,-4.296 0.542,-4.306 0.543,-4.315 0.544,-4.326 0.545,-4.336 
				0.546,-4.346 0.547,-4.354 0.547,-4.365 			"/>
		</g>
		<g>
			<path fill="#00AEEF" d="M2.126,2.715v2.227h-4.252V2.715h0.48h0.568l-0.352-5.837h-0.374v-0.44h0.732h0.003h0.104h1.919h0.116
				h0.003h0.726v0.44H1.435L1.077,2.715h0.558H2.126z M-0.932-3.124l0.019,0.329l0.283,4.856l0.037,0.65h1.181l0.037-0.637
				l0.286-4.86l0.022-0.339H-0.932z M-1.646,3.151v1.347h3.281V3.151H-1.646z"/>
		</g>
	</symbol>
</defs>
<path fill="#FFFFFF" d="M3.016,2.344c-0.008-0.147-0.108-0.235-0.25-0.25c-0.42-0.044-0.733-0.026-0.95,0.122
	c-0.134-0.1-0.338-0.097-0.369,0.109C1.18,4.116,0.877,6.049,1.016,7.859c0.011,0.144,0.105,0.239,0.25,0.25
	c0.571,0.043,1.188,0.05,1.754-0.04c0.103-0.017,0.191-0.141,0.184-0.241C3.068,6.002,3.112,4.177,3.016,2.344z"/>
<rect x="0.313" y="0.25" fill="#FFFFFF" width="3.594" height="1.719"/>
<use xlink:href="#water_tower_1"  width="4.252" height="9.883" x="-2.126" y="-4.942" transform="matrix(1 0 0 -1 2.126 4.9414)" overflow="visible"/>
</svg>
