<?xml version="1.0" encoding="utf-8"?>
<!-- Generator: Adobe Illustrator 14.0.0, SVG Export Plug-In  -->
<!DOCTYPE svg PUBLIC "-//W3C//DTD SVG 1.1//EN" "http://www.w3.org/Graphics/SVG/1.1/DTD/svg11.dtd" [
	<!ENTITY ns_flows "http://ns.adobe.com/Flows/1.0/">
]>
<svg version="1.1"
	 xmlns="http://www.w3.org/2000/svg" xmlns:xlink="http://www.w3.org/1999/xlink" xmlns:a="http://ns.adobe.com/AdobeSVGViewerExtensions/3.0/"
	 x="0px" y="0px" width="4px" height="9px" viewBox="-0.958 -0.731 4 9" enable-background="new -0.958 -0.731 4 9"
	 xml:space="preserve">
<defs>
</defs>
<circle fill="#00AEEF" cx="1.134" cy="1.134" r="1.134"/>
<path fill="#00AEEF" d="M0.868,2.094c0,0.085,0.002,0.168,0.003,0.248c0.007,0.331,0.013,0.591-0.1,0.826
	c-0.053,0.11-0.152,0.216-0.256,0.33c-0.214,0.231-0.507,0.546-0.482,1.08c0.023,0.496,0.261,0.784,0.451,1.016
	C0.635,5.778,0.79,5.922,0.823,6.156C0.853,6.363,0.91,7.017,0.91,7.017C0.905,7.208,0.929,7.602,1.043,7.619
	C1.094,7.626,1.217,7.3,1.222,7.108c0,0,0.161-0.832,0.128-1.026C1.275,5.645,1.057,5.312,0.882,5.1
	C0.708,4.887,0.609,4.757,0.599,4.539C0.59,4.362,0.681,4.246,0.889,4.021C1.016,3.885,1.16,3.729,1.26,3.523
	c0.195-0.408,0.187-0.811,0.179-1.199C1.437,2.249,1.436,2.17,1.436,2.094l0,0c0-0.192-0.127-0.348-0.283-0.348
	C0.995,1.746,0.868,1.902,0.868,2.094L0.868,2.094z"/>
</svg>
