<?xml version="1.0" encoding="utf-8"?>
<!-- Generator: Adobe Illustrator 14.0.0, SVG Export Plug-In  -->
<!DOCTYPE svg PUBLIC "-//W3C//DTD SVG 1.1//EN" "http://www.w3.org/Graphics/SVG/1.1/DTD/svg11.dtd" [
	<!ENTITY ns_flows "http://ns.adobe.com/Flows/1.0/">
]>
<svg version="1.1"
	 xmlns="http://www.w3.org/2000/svg" xmlns:xlink="http://www.w3.org/1999/xlink" xmlns:a="http://ns.adobe.com/AdobeSVGViewerExtensions/3.0/"
	 x="0px" y="0px" width="5px" height="5px" viewBox="-0.238 -0.393 5 5" enable-background="new -0.238 -0.393 5 5"
	 xml:space="preserve">
<defs>
	<symbol  id="Vanishing_x5F_Pt_x5F_Dissapearing_x5F_2H145P002" viewBox="-2.126 -2.126 4.252 4.252">
		<path fill-rule="evenodd" clip-rule="evenodd" fill="#00AEEF" d="M0,2.126c-1.175,0-2.126-0.952-2.126-2.126S-1.175-2.126,0-2.126
			S2.126-1.174,2.126,0S1.175,2.126,0,2.126z M-1.12-0.496c-0.274,0-0.497,0.223-0.497,0.494c0,0.275,0.223,0.498,0.497,0.498
			c0.274,0,0.495-0.223,0.495-0.498C-0.625-0.273-0.846-0.496-1.12-0.496z"/>
	</symbol>
</defs>
<ellipse fill="#FFFFFF" cx="0.942" cy="2.126" rx="0.648" ry="0.688"/>
<use xlink:href="#Vanishing_x5F_Pt_x5F_Dissapearing_x5F_2H145P002"  width="4.252" height="4.252" x="-2.126" y="-2.126" transform="matrix(1 0 0 -1 2.1265 2.126)" overflow="visible"/>
</svg>
