<?xml version="1.0" encoding="utf-8"?>
<!-- Generator: Adobe Illustrator 14.0.0, SVG Export Plug-In  -->
<!DOCTYPE svg PUBLIC "-//W3C//DTD SVG 1.1//EN" "http://www.w3.org/Graphics/SVG/1.1/DTD/svg11.dtd" [
	<!ENTITY ns_flows "http://ns.adobe.com/Flows/1.0/">
]>
<svg version="1.1"
	 xmlns="http://www.w3.org/2000/svg" xmlns:xlink="http://www.w3.org/1999/xlink" xmlns:a="http://ns.adobe.com/AdobeSVGViewerExtensions/3.0/"
	 x="0px" y="0px" width="5px" height="7px" viewBox="-0.215 -0.836 5 7" enable-background="new -0.215 -0.836 5 7"
	 xml:space="preserve">
<defs>
	<symbol  id="Deleted_Symbol" viewBox="-2.126 -2.126 4.252 4.252">
		<path d="M2.126,0.573v1.553h-1.56V1.543h-1.133v0.583h-1.56V0.573h0.592v-1.147h-0.592v-1.552h1.56v0.588h1.133v-0.588h1.56v1.552
			H1.528v1.147H2.126z M1.157-0.574H0.566v-0.588h-1.133v0.588h-0.597v1.147h0.597v0.594h1.133V0.573h0.591V-0.574z"/>
	</symbol>
	<symbol  id="Deleted_Symbol_1" viewBox="-0.835 -3.25 1.671 6.501">
		<polygon points="0.625,2.878 0.797,3.251 0.797,3.251 0.792,3.114 0.81,3.004 0.819,2.895 0.81,2.758 0.732,2.566 0.717,2.507 
			0.717,2.427 0.75,2.274 0.788,2.117 0.819,2.023 0.835,1.933 0.835,1.821 0.81,1.706 0.701,1.436 0.651,1.333 0.548,1.203 
			0.458,1.109 0.321,1.018 0.176,0.963 0.041,0.937 -0.029,0.933 -0.029,0.933 -0.041,1.134 -0.041,1.134 0.015,1.138 0.11,1.153 
			0.213,1.193 0.312,1.26 0.381,1.33 0.462,1.436 0.5,1.511 0.604,1.761 0.62,1.841 0.62,1.918 0.607,1.979 0.577,2.069 
			0.539,2.234 0.5,2.406 0.5,2.531 0.527,2.627 		"/>
		<polygon points="-0.029,0.933 -0.212,0.943 -0.327,0.966 -0.587,1.083 -0.689,1.163 -0.76,1.244 -0.804,1.324 -0.819,1.395 
			-0.835,1.48 -0.835,1.604 -0.78,1.781 -0.63,2.014 -0.474,2.214 -0.321,2.366 -0.187,2.526 -0.1,2.633 0.003,2.724 0.272,2.918 
			0.539,3.101 0.797,3.251 0.797,3.251 0.625,2.878 0.625,2.878 0.436,2.779 0.402,2.758 0.144,2.571 0.063,2.494 -0.014,2.406 
			-0.16,2.234 -0.306,2.091 -0.452,1.902 -0.582,1.701 -0.619,1.576 -0.619,1.501 -0.607,1.436 -0.598,1.391 -0.576,1.354 
			-0.533,1.306 -0.468,1.253 -0.256,1.159 -0.175,1.138 -0.041,1.134 -0.041,1.134 		"/>
		<path d="M-0.078-3.004c0.247,0,0.43-0.1,0.551-0.246v3.779l-0.26,0.243h-0.54l-0.261-0.243v-3.741
			C-0.467-3.089-0.301-3.004-0.078-3.004z"/>
	</symbol>
	<symbol  id="Tree_x5F_5C030P001" viewBox="-2.285 -2.998 4.57 5.995">
		<path fill-rule="evenodd" clip-rule="evenodd" fill="#3F9C35" d="M2.003-2.407C2.37-2.438,2.372-2.919,2.046-2.976
			C1.642-3.013,1.599-2.438,2.003-2.407 M1.154-2.407c-0.373-0.026-0.377-0.558,0-0.568C1.488-2.986,1.575-2.453,1.154-2.407z
			 M-1.012,2.535l0.921-3.468v-0.052l-0.028-0.107l-0.044-0.171l-0.064-0.045l-0.087-0.063l-0.136-0.03l-0.195-0.021
			c-0.267,0.029-0.336-0.04-0.59,0.065l-0.028,0.021l-0.058,0.022l-0.244,0.07l-0.224,0.065l-0.079,0.223l0.094,0.268v0.323
			l-0.058,0.359l0.094,0.359l0.403,0.498c0.282,0.538,0.326,1.18,0.208,1.769L-1.012,2.535z M0.449-2.416V-2.99l-1.712-0.008
			l0.007,1.36l-0.309-0.086l-0.36,0.049l-0.187,0.238l-0.101,0.101l-0.072,0.274l0.007,0.157c-0.01,0.604,0.174,0.306,0.101,1.165
			c0.038,0.42,0.394,0.732,0.576,1.102l0.064,0.107l0.166,0.339L-1.386,2.16L-1.4,2.334l-0.014,0.079v0.216l0.165,0.273
			c0.989,0.562,1.52-1.509,1.72-2.159c0.267-0.701,0.614-1.33,0.107-2.035C0.35-1.848-0.217-1.779-0.688-1.666l0.007-0.75H0.449z"/>
	</symbol>
</defs>
<path fill="#FFFFFF" d="M1.948,2.098C1.92,1.961,1.797,1.909,1.681,1.923C1.642,1.485,1.615,1.048,1.604,0.608
	C1.668,0.482,1.65,0.301,1.477,0.235c-0.066-0.025-0.129-0.025-0.195,0C1.178,0.274,1.095,0.358,1.098,0.477
	c0.009,0.355,0.029,0.707,0.054,1.057C1.104,1.55,1.057,1.578,1.022,1.632C1.016,1.643,1.006,1.661,0.998,1.673
	c-0.004,0.002-0.009,0-0.012,0.003c-0.048,0.016-0.092,0.047-0.12,0.112c-0.145,0.335-0.429,0.544-0.574,0.88
	C0.158,2.977,0.172,3.352,0.16,3.68C0.145,4.112,0.295,4.391,0.768,4.432C1.059,4.457,2.039,4.614,2.21,4.257
	C2.5,3.652,2.075,2.705,1.948,2.098z"/>
<use xlink:href="#Tree_x5F_5C030P001"  width="4.57" height="5.995" x="-2.285" y="-2.998" transform="matrix(1 0 0 -1 2.2852 2.9976)" overflow="visible"/>
</svg>
