<?xml version="1.0" encoding="utf-8"?>
<!-- Generator: Adobe Illustrator 14.0.0, SVG Export Plug-In  -->
<!DOCTYPE svg PUBLIC "-//W3C//DTD SVG 1.1//EN" "http://www.w3.org/Graphics/SVG/1.1/DTD/svg11.dtd" [
	<!ENTITY ns_flows "http://ns.adobe.com/Flows/1.0/">
]>
<svg version="1.1"
	 xmlns="http://www.w3.org/2000/svg" xmlns:xlink="http://www.w3.org/1999/xlink" xmlns:a="http://ns.adobe.com/AdobeSVGViewerExtensions/3.0/"
	 x="0px" y="0px" width="15.001px" height="15px" viewBox="0 0 15.001 15" enable-background="new 0 0 15.001 15"
	 xml:space="preserve">
<defs>
</defs>
<rect fill="none" width="15.001" height="15"/>
<polyline fill="#FFF8AA" points="2.393,0 15.001,12.607 15.001,13.623 1.393,0 2.393,0 "/>
<polyline fill="#FFF8AA" points="4.049,0 15.001,10.951 15.001,11.965 3.048,0 4.049,0 "/>
<polyline fill="#FFF8AA" points="5.721,0 15.001,9.279 15.001,10.291 4.719,0 5.721,0 "/>
<polyline fill="#FFF8AA" points="7.377,0 15.001,7.623 15.001,8.635 6.375,0 7.377,0 "/>
<polyline fill="#FFF8AA" points="9.049,0 15.001,5.951 15.001,6.961 8.047,0 9.049,0 "/>
<polyline fill="#FFF8AA" points="0,12.607 2.393,15 1.393,15 0,13.623 0,12.607 "/>
<polyline fill="#FFF8AA" points="0,10.951 4.049,15 3.048,15 0,11.965 0,10.951 "/>
<polyline fill="#FFF8AA" points="0,9.279 5.721,15 4.719,15 0,10.291 0,9.279 "/>
<polyline fill="#FFF8AA" points="0,7.623 7.377,15 6.375,15 0,8.635 0,7.623 "/>
<polyline fill="#FFF8AA" points="0,5.951 9.049,15 8.047,15 0,6.961 0,5.951 "/>
<polyline fill="#FFF8AA" points="10.723,0 15.001,4.279 15.001,5.281 9.71,0 10.723,0 "/>
<polyline fill="#FFF8AA" points="12.378,0 15.001,2.623 15.001,3.625 11.363,0 12.378,0 "/>
<polyline fill="#FFF8AA" points="0,2.592 12.378,15 11.406,15 0,3.598 0,2.592 "/>
<polyline fill="#FFF8AA" points="0,0.951 14.049,15 13.045,15 0,1.957 0,0.951 "/>
<polyline fill="#FFF8AA" points="0,14.262 0.738,15 0,15 0,14.262 "/>
<polyline fill="#FFF8AA" points="14.049,0 15.001,0.951 15.001,1.953 13.045,0 14.049,0 "/>
<polyline fill="#FFF8AA" points="15.001,0.264 14.736,0 15.001,0 15.001,0.264 "/>
<polyline fill="#FFF8AA" points="0.738,0 15.001,14.262 15.001,15 14.736,15 0,0.264 0,0 0.738,0 "/>
<polyline fill="#FFF8AA" points="0,4.279 10.721,15 9.718,15 0,5.287 0,4.279 "/>
</svg>
